%TF.GenerationSoftware,KiCad,Pcbnew,8.0.4*%
%TF.CreationDate,2024-10-19T17:10:43-04:00*%
%TF.ProjectId,Logic PCB,4c6f6769-6320-4504-9342-2e6b69636164,rev?*%
%TF.SameCoordinates,Original*%
%TF.FileFunction,Copper,L1,Top*%
%TF.FilePolarity,Positive*%
%FSLAX46Y46*%
G04 Gerber Fmt 4.6, Leading zero omitted, Abs format (unit mm)*
G04 Created by KiCad (PCBNEW 8.0.4) date 2024-10-19 17:10:43*
%MOMM*%
%LPD*%
G01*
G04 APERTURE LIST*
%TA.AperFunction,ComponentPad*%
%ADD10R,2.000000X1.440000*%
%TD*%
%TA.AperFunction,ComponentPad*%
%ADD11O,2.000000X1.440000*%
%TD*%
%TA.AperFunction,ComponentPad*%
%ADD12R,1.700000X1.700000*%
%TD*%
%TA.AperFunction,ComponentPad*%
%ADD13O,1.700000X1.700000*%
%TD*%
%TA.AperFunction,ViaPad*%
%ADD14C,0.600000*%
%TD*%
%TA.AperFunction,Conductor*%
%ADD15C,0.200000*%
%TD*%
G04 APERTURE END LIST*
D10*
%TO.P,CD5,1,A1*%
%TO.N,/A5*%
X159450000Y-101652843D03*
D11*
%TO.P,CD5,2,B1*%
%TO.N,Net-(CD4-Y4)*%
X159450000Y-104192843D03*
%TO.P,CD5,3,Y1*%
%TO.N,Net-(CD5-Y1)*%
X159450000Y-106732843D03*
%TO.P,CD5,4,Y2*%
%TO.N,Net-(CD5-A4)*%
X159450000Y-109272843D03*
%TO.P,CD5,5,B2*%
%TO.N,/A5*%
X159450000Y-111812843D03*
%TO.P,CD5,6,A2*%
%TO.N,/A6*%
X159450000Y-114352843D03*
%TO.P,CD5,7,GND*%
%TO.N,GND*%
X159450000Y-116892843D03*
%TO.P,CD5,8,A3*%
%TO.N,/~{A4}*%
X167070000Y-116892843D03*
%TO.P,CD5,9,B3*%
%TO.N,/RET*%
X167070000Y-114352843D03*
%TO.P,CD5,10,Y3*%
%TO.N,Net-(CD5-B4)*%
X167070000Y-111812843D03*
%TO.P,CD5,11,Y4*%
%TO.N,Net-(CD5-Y4)*%
X167070000Y-109272843D03*
%TO.P,CD5,12,B4*%
%TO.N,Net-(CD5-B4)*%
X167070000Y-106732843D03*
%TO.P,CD5,13,A4*%
%TO.N,Net-(CD5-A4)*%
X167070000Y-104192843D03*
%TO.P,CD5,14,VCC*%
%TO.N,+5V*%
X167070000Y-101652843D03*
%TD*%
D12*
%TO.P,J3,1,Pin_1*%
%TO.N,GND*%
X176725000Y-78802843D03*
D13*
%TO.P,J3,2,Pin_2*%
%TO.N,+5V*%
X179265000Y-78802843D03*
%TD*%
D10*
%TO.P,CD2,1,A1*%
%TO.N,/A6*%
X159450000Y-83152843D03*
D11*
%TO.P,CD2,2,B1*%
%TO.N,/S1*%
X159450000Y-85692843D03*
%TO.P,CD2,3,Y1*%
%TO.N,Net-(CD2-Y1)*%
X159450000Y-88232843D03*
%TO.P,CD2,4,Y2*%
%TO.N,Net-(CD2-Y2)*%
X159450000Y-90772843D03*
%TO.P,CD2,5,B2*%
%TO.N,/S0*%
X159450000Y-93312843D03*
%TO.P,CD2,6,A2*%
%TO.N,/A5*%
X159450000Y-95852843D03*
%TO.P,CD2,7,GND*%
%TO.N,GND*%
X159450000Y-98392843D03*
%TO.P,CD2,8,A3*%
%TO.N,/~{A7} ~{A6} ~{A5} ~{A4} ~{A3}*%
X167070000Y-98392843D03*
%TO.P,CD2,9,B3*%
%TO.N,Net-(CD2-B3)*%
X167070000Y-95852843D03*
%TO.P,CD2,10,Y3*%
%TO.N,/RegDest0*%
X167070000Y-93312843D03*
%TO.P,CD2,11,Y4*%
%TO.N,unconnected-(CD2-Y4-Pad11)*%
X167070000Y-90772843D03*
%TO.P,CD2,12,B4*%
%TO.N,unconnected-(CD2-B4-Pad12)*%
X167070000Y-88232843D03*
%TO.P,CD2,13,A4*%
%TO.N,unconnected-(CD2-A4-Pad13)*%
X167070000Y-85692843D03*
%TO.P,CD2,14,VCC*%
%TO.N,+5V*%
X167070000Y-83152843D03*
%TD*%
D10*
%TO.P,74HC1,1,A1*%
%TO.N,/A4*%
X128830000Y-83112843D03*
D11*
%TO.P,74HC1,2,Y1*%
%TO.N,/~{A4}*%
X128830000Y-85652843D03*
%TO.P,74HC1,3,A2*%
%TO.N,/A5*%
X128830000Y-88192843D03*
%TO.P,74HC1,4,Y2*%
%TO.N,/~{A5}*%
X128830000Y-90732843D03*
%TO.P,74HC1,5,A3*%
%TO.N,/A6*%
X128830000Y-93272843D03*
%TO.P,74HC1,6,Y3*%
%TO.N,Net-(74HC1-Y3)*%
X128830000Y-95812843D03*
%TO.P,74HC1,7,GND*%
%TO.N,GND*%
X128830000Y-98352843D03*
%TO.P,74HC1,8,Y4*%
%TO.N,/RET*%
X136450000Y-98352843D03*
%TO.P,74HC1,9,A4*%
%TO.N,/A7*%
X136450000Y-95812843D03*
%TO.P,74HC1,10,Y5*%
%TO.N,unconnected-(74HC1-Y5-Pad10)*%
X136450000Y-93272843D03*
%TO.P,74HC1,11,A5*%
%TO.N,unconnected-(74HC1-A5-Pad11)*%
X136450000Y-90732843D03*
%TO.P,74HC1,12,Y6*%
%TO.N,Net-(74HC1-Y6)*%
X136450000Y-88192843D03*
%TO.P,74HC1,13,A6*%
%TO.N,/A3*%
X136450000Y-85652843D03*
%TO.P,74HC1,14,VCC*%
%TO.N,+5V*%
X136450000Y-83112843D03*
%TD*%
D10*
%TO.P,CD4,1,A1*%
%TO.N,/A6*%
X143830000Y-101652843D03*
D11*
%TO.P,CD4,2,B1*%
%TO.N,/RET*%
X143830000Y-104192843D03*
%TO.P,CD4,3,Y1*%
%TO.N,Net-(CD4-A3)*%
X143830000Y-106732843D03*
%TO.P,CD4,4,Y2*%
%TO.N,Net-(CD4-B3)*%
X143830000Y-109272843D03*
%TO.P,CD4,5,B2*%
%TO.N,/~{A4}*%
X143830000Y-111812843D03*
%TO.P,CD4,6,A2*%
%TO.N,/~{A5}*%
X143830000Y-114352843D03*
%TO.P,CD4,7,GND*%
%TO.N,GND*%
X143830000Y-116892843D03*
%TO.P,CD4,8,A3*%
%TO.N,Net-(CD4-A3)*%
X151450000Y-116892843D03*
%TO.P,CD4,9,B3*%
%TO.N,Net-(CD4-B3)*%
X151450000Y-114352843D03*
%TO.P,CD4,10,Y3*%
%TO.N,Net-(CD4-Y3)*%
X151450000Y-111812843D03*
%TO.P,CD4,11,Y4*%
%TO.N,Net-(CD4-Y4)*%
X151450000Y-109272843D03*
%TO.P,CD4,12,B4*%
%TO.N,/A6*%
X151450000Y-106732843D03*
%TO.P,CD4,13,A4*%
%TO.N,/A7*%
X151450000Y-104192843D03*
%TO.P,CD4,14,VCC*%
%TO.N,+5V*%
X151450000Y-101652843D03*
%TD*%
D10*
%TO.P,CD7,1,A1*%
%TO.N,/A6*%
X174330000Y-101652843D03*
D11*
%TO.P,CD7,2,B1*%
%TO.N,/A4*%
X174330000Y-104192843D03*
%TO.P,CD7,3,Y1*%
%TO.N,Net-(CD2-B3)*%
X174330000Y-106732843D03*
%TO.P,CD7,4,Y2*%
%TO.N,Net-(CD6-B4)*%
X174330000Y-109272843D03*
%TO.P,CD7,5,B2*%
%TO.N,/A4*%
X174330000Y-111812843D03*
%TO.P,CD7,6,A2*%
%TO.N,/A7*%
X174330000Y-114352843D03*
%TO.P,CD7,7,GND*%
%TO.N,GND*%
X174330000Y-116892843D03*
%TO.P,CD7,8,A3*%
%TO.N,unconnected-(CD7-A3-Pad8)*%
X181950000Y-116892843D03*
%TO.P,CD7,9,B3*%
%TO.N,unconnected-(CD7-B3-Pad9)*%
X181950000Y-114352843D03*
%TO.P,CD7,10,Y3*%
%TO.N,unconnected-(CD7-Y3-Pad10)*%
X181950000Y-111812843D03*
%TO.P,CD7,11,Y4*%
%TO.N,unconnected-(CD7-Y4-Pad11)*%
X181950000Y-109272843D03*
%TO.P,CD7,12,B4*%
%TO.N,unconnected-(CD7-B4-Pad12)*%
X181950000Y-106732843D03*
%TO.P,CD7,13,A4*%
%TO.N,unconnected-(CD7-A4-Pad13)*%
X181950000Y-104192843D03*
%TO.P,CD7,14,VCC*%
%TO.N,+5V*%
X181950000Y-101652843D03*
%TD*%
D10*
%TO.P,CD6,1,A1*%
%TO.N,/A5*%
X174330000Y-83152843D03*
D11*
%TO.P,CD6,2,B1*%
%TO.N,/A4*%
X174330000Y-85692843D03*
%TO.P,CD6,3,Y1*%
%TO.N,Net-(CD1-A4)*%
X174330000Y-88232843D03*
%TO.P,CD6,4,Y2*%
%TO.N,Net-(CD5-Y4)*%
X174330000Y-90772843D03*
%TO.P,CD6,5,B2*%
%TO.N,Net-(CD4-Y3)*%
X174330000Y-93312843D03*
%TO.P,CD6,6,A2*%
%TO.N,Net-(CD5-Y1)*%
X174330000Y-95852843D03*
%TO.P,CD6,7,GND*%
%TO.N,GND*%
X174330000Y-98392843D03*
%TO.P,CD6,8,A3*%
%TO.N,/F7 ~{XOR(F6\u002C S1)} ~{XOR(F5\u002CS0)}*%
X181950000Y-98392843D03*
%TO.P,CD6,9,B3*%
%TO.N,Net-(CD5-Y4)*%
X181950000Y-95852843D03*
%TO.P,CD6,10,Y3*%
%TO.N,/PCSrc*%
X181950000Y-93312843D03*
%TO.P,CD6,11,Y4*%
%TO.N,/RegDest1*%
X181950000Y-90772843D03*
%TO.P,CD6,12,B4*%
%TO.N,Net-(CD6-B4)*%
X181950000Y-88232843D03*
%TO.P,CD6,13,A4*%
%TO.N,Net-(CD5-Y4)*%
X181950000Y-85692843D03*
%TO.P,CD6,14,VCC*%
%TO.N,+5V*%
X181950000Y-83152843D03*
%TD*%
D10*
%TO.P,CD3,1,A1*%
%TO.N,/A3*%
X128830000Y-101652843D03*
D11*
%TO.P,CD3,2,B1*%
%TO.N,/DSrc*%
X128830000Y-104192843D03*
%TO.P,CD3,3,Y1*%
%TO.N,/STAT*%
X128830000Y-106732843D03*
%TO.P,CD3,4,Y2*%
%TO.N,/~{A7} ~{A6} ~{A5} ~{A4} ~{A3}*%
X128830000Y-109272843D03*
%TO.P,CD3,5,B2*%
%TO.N,/DSrc*%
X128830000Y-111812843D03*
%TO.P,CD3,6,A2*%
%TO.N,Net-(74HC1-Y6)*%
X128830000Y-114352843D03*
%TO.P,CD3,7,GND*%
%TO.N,GND*%
X128830000Y-116892843D03*
%TO.P,CD3,8,A3*%
%TO.N,Net-(CD2-Y1)*%
X136450000Y-116892843D03*
%TO.P,CD3,9,B3*%
%TO.N,Net-(CD2-Y2)*%
X136450000Y-114352843D03*
%TO.P,CD3,10,Y3*%
%TO.N,Net-(CD3-B4)*%
X136450000Y-111812843D03*
%TO.P,CD3,11,Y4*%
%TO.N,/F7 ~{XOR(F6\u002C S1)} ~{XOR(F5\u002CS0)}*%
X136450000Y-109272843D03*
%TO.P,CD3,12,B4*%
%TO.N,Net-(CD3-B4)*%
X136450000Y-106732843D03*
%TO.P,CD3,13,A4*%
%TO.N,/A7*%
X136450000Y-104192843D03*
%TO.P,CD3,14,VCC*%
%TO.N,+5V*%
X136450000Y-101652843D03*
%TD*%
D12*
%TO.P,J1,1,Pin_1*%
%TO.N,GND*%
X132840000Y-78802843D03*
D13*
%TO.P,J1,2,Pin_2*%
%TO.N,/A0*%
X135380000Y-78802843D03*
%TO.P,J1,3,Pin_3*%
%TO.N,/A1*%
X137920000Y-78802843D03*
%TO.P,J1,4,Pin_4*%
%TO.N,/A2*%
X140460000Y-78802843D03*
%TO.P,J1,5,Pin_5*%
%TO.N,/A3*%
X143000000Y-78802843D03*
%TO.P,J1,6,Pin_6*%
%TO.N,/A4*%
X145540000Y-78802843D03*
%TO.P,J1,7,Pin_7*%
%TO.N,/A5*%
X148080000Y-78802843D03*
%TO.P,J1,8,Pin_8*%
%TO.N,/A6*%
X150620000Y-78802843D03*
%TO.P,J1,9,Pin_9*%
%TO.N,/A7*%
X153160000Y-78802843D03*
%TD*%
D10*
%TO.P,CD1,1,A1*%
%TO.N,/~{A4}*%
X143830000Y-83112843D03*
D11*
%TO.P,CD1,2,B1*%
%TO.N,/~{A5}*%
X143830000Y-85652843D03*
%TO.P,CD1,3,Y1*%
%TO.N,Net-(CD1-A3)*%
X143830000Y-88192843D03*
%TO.P,CD1,4,Y2*%
%TO.N,Net-(CD1-B3)*%
X143830000Y-90732843D03*
%TO.P,CD1,5,B2*%
%TO.N,/RET*%
X143830000Y-93272843D03*
%TO.P,CD1,6,A2*%
%TO.N,Net-(74HC1-Y3)*%
X143830000Y-95812843D03*
%TO.P,CD1,7,GND*%
%TO.N,GND*%
X143830000Y-98352843D03*
%TO.P,CD1,8,A3*%
%TO.N,Net-(CD1-A3)*%
X151450000Y-98352843D03*
%TO.P,CD1,9,B3*%
%TO.N,Net-(CD1-B3)*%
X151450000Y-95812843D03*
%TO.P,CD1,10,Y3*%
%TO.N,/DSrc*%
X151450000Y-93272843D03*
%TO.P,CD1,11,Y4*%
%TO.N,/MemWrite*%
X151450000Y-90732843D03*
%TO.P,CD1,12,B4*%
%TO.N,Net-(CD1-B3)*%
X151450000Y-88192843D03*
%TO.P,CD1,13,A4*%
%TO.N,Net-(CD1-A4)*%
X151450000Y-85652843D03*
%TO.P,CD1,14,VCC*%
%TO.N,+5V*%
X151450000Y-83112843D03*
%TD*%
D12*
%TO.P,J4,1,Pin_1*%
%TO.N,/S0*%
X158725000Y-78802843D03*
D13*
%TO.P,J4,2,Pin_2*%
%TO.N,/S1*%
X161265000Y-78802843D03*
%TD*%
D12*
%TO.P,J2,1,Pin_1*%
%TO.N,unconnected-(J2-Pin_1-Pad1)*%
X140180000Y-121802843D03*
D13*
%TO.P,J2,2,Pin_2*%
%TO.N,/A0*%
X142720000Y-121802843D03*
%TO.P,J2,3,Pin_3*%
%TO.N,/A1*%
X145260000Y-121802843D03*
%TO.P,J2,4,Pin_4*%
%TO.N,/A2*%
X147800000Y-121802843D03*
%TO.P,J2,5,Pin_5*%
%TO.N,/A4*%
X150340000Y-121802843D03*
%TO.P,J2,6,Pin_6*%
%TO.N,/A5*%
X152880000Y-121802843D03*
%TO.P,J2,7,Pin_7*%
%TO.N,/A6*%
X155420000Y-121802843D03*
%TO.P,J2,8,Pin_8*%
%TO.N,/RET*%
X157960000Y-121802843D03*
%TO.P,J2,9,Pin_9*%
%TO.N,/MemWrite*%
X160500000Y-121802843D03*
%TO.P,J2,10,Pin_10*%
%TO.N,/DSrc*%
X163040000Y-121802843D03*
%TO.P,J2,11,Pin_11*%
%TO.N,/STAT*%
X165580000Y-121802843D03*
%TO.P,J2,12,Pin_12*%
%TO.N,/PCSrc*%
X168120000Y-121802843D03*
%TO.P,J2,13,Pin_13*%
%TO.N,/RegDest0*%
X170660000Y-121802843D03*
%TO.P,J2,14,Pin_14*%
%TO.N,/RegDest1*%
X173200000Y-121802843D03*
%TD*%
D14*
%TO.N,/A6*%
X172400000Y-110702843D03*
X134500000Y-100402843D03*
X132250000Y-93702843D03*
%TO.N,/~{A5}*%
X141930000Y-87172843D03*
%TO.N,/~{A4}*%
X147500000Y-115302843D03*
%TO.N,/A7*%
X149000000Y-83802843D03*
X171100000Y-103272843D03*
%TO.N,/A5*%
X157000000Y-113802843D03*
%TO.N,/RET*%
X138350000Y-103802843D03*
X165040000Y-102672843D03*
X138350000Y-96332843D03*
%TO.N,/DSrc*%
X147000000Y-98802843D03*
X169997157Y-101802843D03*
X147000000Y-100432843D03*
%TO.N,Net-(CD2-Y1)*%
X156538342Y-109295529D03*
%TO.N,/~{A7} ~{A6} ~{A5} ~{A4} ~{A3}*%
X161102498Y-106802843D03*
%TO.N,Net-(CD2-B3)*%
X168997157Y-103752843D03*
%TO.N,Net-(CD2-Y2)*%
X156526372Y-108429215D03*
%TO.N,Net-(CD4-Y3)*%
X171697296Y-107332100D03*
X152900000Y-109792843D03*
%TO.N,Net-(CD5-Y1)*%
X161950000Y-98652843D03*
%TD*%
D15*
%TO.N,/A6*%
X160470000Y-113332843D02*
X159450000Y-114352843D01*
X172400000Y-110702843D02*
X169770000Y-113332843D01*
X131820000Y-93272843D02*
X128830000Y-93272843D01*
X132250000Y-93702843D02*
X131820000Y-93272843D01*
X169770000Y-113332843D02*
X160470000Y-113332843D01*
X143830000Y-101652843D02*
X142580000Y-100402843D01*
X142580000Y-100402843D02*
X134500000Y-100402843D01*
%TO.N,Net-(74HC1-Y6)*%
X129680000Y-114352843D02*
X128830000Y-114352843D01*
%TO.N,/A4*%
X173892498Y-119052843D02*
X175630000Y-117315341D01*
X145540000Y-78802843D02*
X146690000Y-77652843D01*
X128830000Y-79972843D02*
X131150000Y-77652843D01*
X170170000Y-81532843D02*
X174330000Y-85692843D01*
X153090000Y-119052843D02*
X173892498Y-119052843D01*
X175630000Y-113112843D02*
X174330000Y-111812843D01*
X146690000Y-77652843D02*
X154350000Y-77652843D01*
X158230000Y-81532843D02*
X170170000Y-81532843D01*
X144390000Y-77652843D02*
X145540000Y-78802843D01*
X154350000Y-77652843D02*
X158230000Y-81532843D01*
X131150000Y-77652843D02*
X144390000Y-77652843D01*
X175630000Y-117315341D02*
X175630000Y-113112843D01*
X150340000Y-121802843D02*
X153090000Y-119052843D01*
X174770000Y-104192843D02*
X174330000Y-104192843D01*
X128830000Y-83112843D02*
X128830000Y-79972843D01*
%TO.N,/~{A5}*%
X141930000Y-87172843D02*
X143450000Y-85652843D01*
X143450000Y-85652843D02*
X143830000Y-85652843D01*
X141930000Y-87172843D02*
X132390000Y-87172843D01*
X132390000Y-87172843D02*
X128830000Y-90732843D01*
%TO.N,Net-(74HC1-Y3)*%
X128830000Y-95812843D02*
X129950000Y-96932843D01*
X129950000Y-96932843D02*
X142710000Y-96932843D01*
X142710000Y-96932843D02*
X143830000Y-95812843D01*
%TO.N,/~{A4}*%
X142310000Y-84632843D02*
X143830000Y-83112843D01*
X166050000Y-115872843D02*
X167070000Y-116892843D01*
X128830000Y-85652843D02*
X129850000Y-84632843D01*
X147500000Y-115302843D02*
X148070000Y-115872843D01*
X129850000Y-84632843D02*
X142310000Y-84632843D01*
X148070000Y-115872843D02*
X166050000Y-115872843D01*
%TO.N,/A7*%
X143527502Y-86772843D02*
X146030000Y-86772843D01*
X136450000Y-95812843D02*
X137750000Y-94512843D01*
X171100000Y-103272843D02*
X170980000Y-103152843D01*
X150430000Y-105212843D02*
X151450000Y-104192843D01*
X166267502Y-103272843D02*
X162490000Y-103272843D01*
X166387502Y-103152843D02*
X166267502Y-103272843D01*
X170980000Y-103152843D02*
X166387502Y-103152843D01*
X162390000Y-103172843D02*
X153430000Y-103172843D01*
X152410000Y-104192843D02*
X151450000Y-104192843D01*
X146030000Y-86772843D02*
X149000000Y-83802843D01*
X137750000Y-94512843D02*
X137750000Y-92550345D01*
X162490000Y-103272843D02*
X162390000Y-103172843D01*
X137750000Y-92550345D02*
X143527502Y-86772843D01*
X137470000Y-105212843D02*
X136450000Y-104192843D01*
X144950000Y-105212843D02*
X137470000Y-105212843D01*
X153430000Y-103172843D02*
X152410000Y-104192843D01*
X144950000Y-105212843D02*
X150430000Y-105212843D01*
%TO.N,/A5*%
X136751471Y-80702843D02*
X133221471Y-84232843D01*
X144532498Y-97332843D02*
X145130000Y-97930345D01*
X148080000Y-78802843D02*
X146180000Y-80702843D01*
X128627502Y-97332843D02*
X144532498Y-97332843D01*
X145130000Y-98775341D02*
X145787502Y-99432843D01*
X155870000Y-99432843D02*
X159450000Y-95852843D01*
X133221471Y-84232843D02*
X128527502Y-84232843D01*
X128830000Y-88192843D02*
X128830000Y-88632843D01*
X145130000Y-97930345D02*
X145130000Y-98775341D01*
X157000000Y-113802843D02*
X158990000Y-111812843D01*
X145787502Y-99432843D02*
X155870000Y-99432843D01*
X127530000Y-86892843D02*
X128830000Y-88192843D01*
X146180000Y-80702843D02*
X136751471Y-80702843D01*
X127530000Y-85230345D02*
X127530000Y-86892843D01*
X128527502Y-84232843D02*
X127530000Y-85230345D01*
X128830000Y-88192843D02*
X127500000Y-89522843D01*
X127500000Y-96205341D02*
X128627502Y-97332843D01*
X158990000Y-111812843D02*
X159450000Y-111812843D01*
X127500000Y-89522843D02*
X127500000Y-96205341D01*
%TO.N,/RET*%
X157970000Y-102672843D02*
X157950000Y-102652843D01*
X143830000Y-104192843D02*
X149227502Y-104192843D01*
X149227502Y-104192843D02*
X150247502Y-103172843D01*
X165040000Y-102672843D02*
X157970000Y-102672843D01*
X141410000Y-93272843D02*
X143830000Y-93272843D01*
X152641249Y-103172843D02*
X153161249Y-102652843D01*
X153161249Y-102652843D02*
X157950000Y-102652843D01*
X166790000Y-114352843D02*
X167070000Y-114352843D01*
X158130000Y-102652843D02*
X158150000Y-102672843D01*
X138350000Y-96332843D02*
X141410000Y-93272843D01*
X138740000Y-104192843D02*
X138350000Y-103802843D01*
X157950000Y-102652843D02*
X158130000Y-102652843D01*
X150247502Y-103172843D02*
X152641249Y-103172843D01*
X143830000Y-104192843D02*
X138740000Y-104192843D01*
%TO.N,Net-(CD1-B3)*%
X143830000Y-90732843D02*
X148910000Y-90732843D01*
X148910000Y-90732843D02*
X151450000Y-88192843D01*
%TO.N,/MemWrite*%
X151450000Y-90732843D02*
X151930000Y-90732843D01*
%TO.N,Net-(CD1-A3)*%
X144850000Y-87172843D02*
X152370000Y-87172843D01*
X152750000Y-97052843D02*
X151450000Y-98352843D01*
X152370000Y-87172843D02*
X152750000Y-87552843D01*
X143830000Y-88192843D02*
X144850000Y-87172843D01*
X152750000Y-87552843D02*
X152750000Y-97052843D01*
%TO.N,/DSrc*%
X127450000Y-105572843D02*
X127450000Y-110432843D01*
X152304315Y-100232843D02*
X152104315Y-100432843D01*
X128830000Y-104192843D02*
X127450000Y-105572843D01*
X142545686Y-99802843D02*
X133220000Y-99802843D01*
X127450000Y-110432843D02*
X128830000Y-111812843D01*
X152104315Y-100432843D02*
X143175686Y-100432843D01*
X147000000Y-97722843D02*
X147000000Y-98802843D01*
X133220000Y-99802843D02*
X128830000Y-104192843D01*
X143175686Y-100432843D02*
X142545686Y-99802843D01*
X169997157Y-101802843D02*
X168427157Y-100232843D01*
X151450000Y-93272843D02*
X147000000Y-97722843D01*
X168427157Y-100232843D02*
X152304315Y-100232843D01*
%TO.N,Net-(CD1-A4)*%
X173310000Y-87212843D02*
X174330000Y-88232843D01*
X151450000Y-85652843D02*
X153010000Y-87212843D01*
X153010000Y-87212843D02*
X173310000Y-87212843D01*
%TO.N,Net-(CD2-Y1)*%
X152470000Y-113332843D02*
X140010000Y-113332843D01*
X156538342Y-109295529D02*
X156507314Y-109295529D01*
X140010000Y-113332843D02*
X136450000Y-116892843D01*
X156507314Y-109295529D02*
X152470000Y-113332843D01*
%TO.N,/~{A7} ~{A6} ~{A5} ~{A4} ~{A3}*%
X161102498Y-106802843D02*
X160152498Y-107752843D01*
X160152498Y-107752843D02*
X156354215Y-107752843D01*
X130350000Y-110792843D02*
X128830000Y-109272843D01*
X156354215Y-107752843D02*
X153314215Y-110792843D01*
X153314215Y-110792843D02*
X130350000Y-110792843D01*
%TO.N,Net-(CD2-B3)*%
X168997157Y-103752843D02*
X168997157Y-104002843D01*
X171727157Y-106732843D02*
X174330000Y-106732843D01*
X168997157Y-104002843D02*
X171727157Y-106732843D01*
%TO.N,Net-(CD2-Y2)*%
X152152498Y-112832843D02*
X137970000Y-112832843D01*
X156526372Y-108429215D02*
X156526372Y-108458969D01*
X137970000Y-112832843D02*
X136450000Y-114352843D01*
X156526372Y-108458969D02*
X152152498Y-112832843D01*
%TO.N,/F7 ~{XOR(F6\u002C S1)} ~{XOR(F5\u002CS0)}*%
X157838529Y-105702843D02*
X162934314Y-105702843D01*
X136450000Y-109272843D02*
X137570000Y-110392843D01*
X137570000Y-110392843D02*
X153148529Y-110392843D01*
X182252498Y-108152843D02*
X183250000Y-107155341D01*
X165384314Y-108152843D02*
X182252498Y-108152843D01*
X183250000Y-99692843D02*
X181950000Y-98392843D01*
X183250000Y-107155341D02*
X183250000Y-99692843D01*
X153148529Y-110392843D02*
X157838529Y-105702843D01*
X162934314Y-105702843D02*
X165384314Y-108152843D01*
%TO.N,Net-(CD4-Y4)*%
X156530000Y-104192843D02*
X159450000Y-104192843D01*
X151450000Y-109272843D02*
X156530000Y-104192843D01*
%TO.N,Net-(CD4-B3)*%
X143830000Y-109272843D02*
X144310000Y-109752843D01*
%TO.N,Net-(CD4-Y3)*%
X163100000Y-105302843D02*
X157390000Y-105302843D01*
X157390000Y-105302843D02*
X152900000Y-109792843D01*
X171697296Y-107332100D02*
X171276553Y-107752843D01*
X165550000Y-107752843D02*
X163100000Y-105302843D01*
X171276553Y-107752843D02*
X165550000Y-107752843D01*
%TO.N,Net-(CD5-Y1)*%
X161950000Y-98652843D02*
X165800000Y-94802843D01*
X165800000Y-94802843D02*
X173280000Y-94802843D01*
X173280000Y-94802843D02*
X174330000Y-95852843D01*
%TO.N,/PCSrc*%
X181950000Y-93312843D02*
X181950000Y-93452843D01*
%TO.N,GND*%
X159450000Y-98392843D02*
X160470000Y-99412843D01*
X158430000Y-117912843D02*
X159450000Y-116892843D01*
X129850000Y-99372843D02*
X142810000Y-99372843D01*
X128830000Y-98352843D02*
X129850000Y-99372843D01*
X142810000Y-99372843D02*
X143830000Y-98352843D01*
X176725000Y-95997843D02*
X176725000Y-78802843D01*
X145310000Y-99832843D02*
X158010000Y-99832843D01*
X142570000Y-118152843D02*
X143830000Y-116892843D01*
X143830000Y-116892843D02*
X144850000Y-117912843D01*
X144850000Y-117912843D02*
X158430000Y-117912843D01*
X159450000Y-116892843D02*
X159450000Y-117652843D01*
X126950000Y-115012843D02*
X126950000Y-100232843D01*
X173310000Y-99412843D02*
X174330000Y-98392843D01*
X172570000Y-118652843D02*
X174330000Y-116892843D01*
X159450000Y-117652843D02*
X160450000Y-118652843D01*
X160470000Y-99412843D02*
X173310000Y-99412843D01*
X158010000Y-99832843D02*
X159450000Y-98392843D01*
X143830000Y-98352843D02*
X145310000Y-99832843D01*
X128830000Y-116892843D02*
X130090000Y-118152843D01*
X130090000Y-118152843D02*
X142570000Y-118152843D01*
X128830000Y-116892843D02*
X126950000Y-115012843D01*
X174330000Y-98392843D02*
X176725000Y-95997843D01*
X160450000Y-118652843D02*
X172570000Y-118652843D01*
X126950000Y-100232843D02*
X128830000Y-98352843D01*
%TO.N,+5V*%
X168090000Y-102672843D02*
X180930000Y-102672843D01*
X150330000Y-102772843D02*
X137570000Y-102772843D01*
X180930000Y-102672843D02*
X181950000Y-101652843D01*
X181950000Y-81487843D02*
X181950000Y-83152843D01*
X151450000Y-83112843D02*
X152430000Y-82132843D01*
X152470000Y-100632843D02*
X151450000Y-101652843D01*
X151450000Y-101652843D02*
X150330000Y-102772843D01*
X137570000Y-102772843D02*
X136450000Y-101652843D01*
X167070000Y-101652843D02*
X168090000Y-102672843D01*
X137470000Y-82092843D02*
X150430000Y-82092843D01*
X136450000Y-83112843D02*
X137470000Y-82092843D01*
X166050000Y-82132843D02*
X167070000Y-83152843D01*
X179265000Y-78802843D02*
X181950000Y-81487843D01*
X152430000Y-82132843D02*
X166050000Y-82132843D01*
X166050000Y-100632843D02*
X152470000Y-100632843D01*
X167070000Y-101652843D02*
X166050000Y-100632843D01*
X150430000Y-82092843D02*
X151450000Y-83112843D01*
%TD*%
M02*
