%TF.GenerationSoftware,KiCad,Pcbnew,8.0.4*%
%TF.CreationDate,2024-10-19T17:10:43-04:00*%
%TF.ProjectId,Logic PCB,4c6f6769-6320-4504-9342-2e6b69636164,rev?*%
%TF.SameCoordinates,Original*%
%TF.FileFunction,Legend,Top*%
%TF.FilePolarity,Positive*%
%FSLAX46Y46*%
G04 Gerber Fmt 4.6, Leading zero omitted, Abs format (unit mm)*
G04 Created by KiCad (PCBNEW 8.0.4) date 2024-10-19 17:10:43*
%MOMM*%
%LPD*%
G01*
G04 APERTURE LIST*
%ADD10C,0.100000*%
%ADD11C,0.200000*%
%ADD12C,0.140000*%
%ADD13C,1.000000*%
%ADD14C,0.120000*%
G04 APERTURE END LIST*
D10*
X162807208Y-111345238D02*
X162854828Y-111392857D01*
X162854828Y-111392857D02*
X162902447Y-111535714D01*
X162902447Y-111535714D02*
X162902447Y-111630952D01*
X162902447Y-111630952D02*
X162854828Y-111773809D01*
X162854828Y-111773809D02*
X162759589Y-111869047D01*
X162759589Y-111869047D02*
X162664351Y-111916666D01*
X162664351Y-111916666D02*
X162473875Y-111964285D01*
X162473875Y-111964285D02*
X162331018Y-111964285D01*
X162331018Y-111964285D02*
X162140542Y-111916666D01*
X162140542Y-111916666D02*
X162045304Y-111869047D01*
X162045304Y-111869047D02*
X161950066Y-111773809D01*
X161950066Y-111773809D02*
X161902447Y-111630952D01*
X161902447Y-111630952D02*
X161902447Y-111535714D01*
X161902447Y-111535714D02*
X161950066Y-111392857D01*
X161950066Y-111392857D02*
X161997685Y-111345238D01*
X162902447Y-110916666D02*
X161902447Y-110916666D01*
X161902447Y-110916666D02*
X161902447Y-110678571D01*
X161902447Y-110678571D02*
X161950066Y-110535714D01*
X161950066Y-110535714D02*
X162045304Y-110440476D01*
X162045304Y-110440476D02*
X162140542Y-110392857D01*
X162140542Y-110392857D02*
X162331018Y-110345238D01*
X162331018Y-110345238D02*
X162473875Y-110345238D01*
X162473875Y-110345238D02*
X162664351Y-110392857D01*
X162664351Y-110392857D02*
X162759589Y-110440476D01*
X162759589Y-110440476D02*
X162854828Y-110535714D01*
X162854828Y-110535714D02*
X162902447Y-110678571D01*
X162902447Y-110678571D02*
X162902447Y-110916666D01*
X162235780Y-109488095D02*
X162902447Y-109488095D01*
X161854828Y-109726190D02*
X162569113Y-109964285D01*
X162569113Y-109964285D02*
X162569113Y-109345238D01*
X161902447Y-108773809D02*
X161902447Y-108678571D01*
X161902447Y-108678571D02*
X161950066Y-108583333D01*
X161950066Y-108583333D02*
X161997685Y-108535714D01*
X161997685Y-108535714D02*
X162092923Y-108488095D01*
X162092923Y-108488095D02*
X162283399Y-108440476D01*
X162283399Y-108440476D02*
X162521494Y-108440476D01*
X162521494Y-108440476D02*
X162711970Y-108488095D01*
X162711970Y-108488095D02*
X162807208Y-108535714D01*
X162807208Y-108535714D02*
X162854828Y-108583333D01*
X162854828Y-108583333D02*
X162902447Y-108678571D01*
X162902447Y-108678571D02*
X162902447Y-108773809D01*
X162902447Y-108773809D02*
X162854828Y-108869047D01*
X162854828Y-108869047D02*
X162807208Y-108916666D01*
X162807208Y-108916666D02*
X162711970Y-108964285D01*
X162711970Y-108964285D02*
X162521494Y-109011904D01*
X162521494Y-109011904D02*
X162283399Y-109011904D01*
X162283399Y-109011904D02*
X162092923Y-108964285D01*
X162092923Y-108964285D02*
X161997685Y-108916666D01*
X161997685Y-108916666D02*
X161950066Y-108869047D01*
X161950066Y-108869047D02*
X161902447Y-108773809D01*
X162331018Y-107869047D02*
X162283399Y-107964285D01*
X162283399Y-107964285D02*
X162235780Y-108011904D01*
X162235780Y-108011904D02*
X162140542Y-108059523D01*
X162140542Y-108059523D02*
X162092923Y-108059523D01*
X162092923Y-108059523D02*
X161997685Y-108011904D01*
X161997685Y-108011904D02*
X161950066Y-107964285D01*
X161950066Y-107964285D02*
X161902447Y-107869047D01*
X161902447Y-107869047D02*
X161902447Y-107678571D01*
X161902447Y-107678571D02*
X161950066Y-107583333D01*
X161950066Y-107583333D02*
X161997685Y-107535714D01*
X161997685Y-107535714D02*
X162092923Y-107488095D01*
X162092923Y-107488095D02*
X162140542Y-107488095D01*
X162140542Y-107488095D02*
X162235780Y-107535714D01*
X162235780Y-107535714D02*
X162283399Y-107583333D01*
X162283399Y-107583333D02*
X162331018Y-107678571D01*
X162331018Y-107678571D02*
X162331018Y-107869047D01*
X162331018Y-107869047D02*
X162378637Y-107964285D01*
X162378637Y-107964285D02*
X162426256Y-108011904D01*
X162426256Y-108011904D02*
X162521494Y-108059523D01*
X162521494Y-108059523D02*
X162711970Y-108059523D01*
X162711970Y-108059523D02*
X162807208Y-108011904D01*
X162807208Y-108011904D02*
X162854828Y-107964285D01*
X162854828Y-107964285D02*
X162902447Y-107869047D01*
X162902447Y-107869047D02*
X162902447Y-107678571D01*
X162902447Y-107678571D02*
X162854828Y-107583333D01*
X162854828Y-107583333D02*
X162807208Y-107535714D01*
X162807208Y-107535714D02*
X162711970Y-107488095D01*
X162711970Y-107488095D02*
X162521494Y-107488095D01*
X162521494Y-107488095D02*
X162426256Y-107535714D01*
X162426256Y-107535714D02*
X162378637Y-107583333D01*
X162378637Y-107583333D02*
X162331018Y-107678571D01*
X162902447Y-106535714D02*
X162902447Y-107107142D01*
X162902447Y-106821428D02*
X161902447Y-106821428D01*
X161902447Y-106821428D02*
X162045304Y-106916666D01*
X162045304Y-106916666D02*
X162140542Y-107011904D01*
X162140542Y-107011904D02*
X162188161Y-107107142D01*
X164607629Y-112059524D02*
X164560010Y-112154762D01*
X164560010Y-112154762D02*
X164464772Y-112250000D01*
X164464772Y-112250000D02*
X164321914Y-112392857D01*
X164321914Y-112392857D02*
X164274295Y-112488095D01*
X164274295Y-112488095D02*
X164274295Y-112583333D01*
X164512391Y-112535714D02*
X164464772Y-112630952D01*
X164464772Y-112630952D02*
X164369533Y-112726190D01*
X164369533Y-112726190D02*
X164179057Y-112773809D01*
X164179057Y-112773809D02*
X163845724Y-112773809D01*
X163845724Y-112773809D02*
X163655248Y-112726190D01*
X163655248Y-112726190D02*
X163560010Y-112630952D01*
X163560010Y-112630952D02*
X163512391Y-112535714D01*
X163512391Y-112535714D02*
X163512391Y-112345238D01*
X163512391Y-112345238D02*
X163560010Y-112250000D01*
X163560010Y-112250000D02*
X163655248Y-112154762D01*
X163655248Y-112154762D02*
X163845724Y-112107143D01*
X163845724Y-112107143D02*
X164179057Y-112107143D01*
X164179057Y-112107143D02*
X164369533Y-112154762D01*
X164369533Y-112154762D02*
X164464772Y-112250000D01*
X164464772Y-112250000D02*
X164512391Y-112345238D01*
X164512391Y-112345238D02*
X164512391Y-112535714D01*
X163845724Y-111250000D02*
X164512391Y-111250000D01*
X163845724Y-111678571D02*
X164369533Y-111678571D01*
X164369533Y-111678571D02*
X164464772Y-111630952D01*
X164464772Y-111630952D02*
X164512391Y-111535714D01*
X164512391Y-111535714D02*
X164512391Y-111392857D01*
X164512391Y-111392857D02*
X164464772Y-111297619D01*
X164464772Y-111297619D02*
X164417152Y-111250000D01*
X164512391Y-110345238D02*
X163988581Y-110345238D01*
X163988581Y-110345238D02*
X163893343Y-110392857D01*
X163893343Y-110392857D02*
X163845724Y-110488095D01*
X163845724Y-110488095D02*
X163845724Y-110678571D01*
X163845724Y-110678571D02*
X163893343Y-110773809D01*
X164464772Y-110345238D02*
X164512391Y-110440476D01*
X164512391Y-110440476D02*
X164512391Y-110678571D01*
X164512391Y-110678571D02*
X164464772Y-110773809D01*
X164464772Y-110773809D02*
X164369533Y-110821428D01*
X164369533Y-110821428D02*
X164274295Y-110821428D01*
X164274295Y-110821428D02*
X164179057Y-110773809D01*
X164179057Y-110773809D02*
X164131438Y-110678571D01*
X164131438Y-110678571D02*
X164131438Y-110440476D01*
X164131438Y-110440476D02*
X164083819Y-110345238D01*
X164512391Y-109440476D02*
X163512391Y-109440476D01*
X164464772Y-109440476D02*
X164512391Y-109535714D01*
X164512391Y-109535714D02*
X164512391Y-109726190D01*
X164512391Y-109726190D02*
X164464772Y-109821428D01*
X164464772Y-109821428D02*
X164417152Y-109869047D01*
X164417152Y-109869047D02*
X164321914Y-109916666D01*
X164321914Y-109916666D02*
X164036200Y-109916666D01*
X164036200Y-109916666D02*
X163940962Y-109869047D01*
X163940962Y-109869047D02*
X163893343Y-109821428D01*
X163893343Y-109821428D02*
X163845724Y-109726190D01*
X163845724Y-109726190D02*
X163845724Y-109535714D01*
X163845724Y-109535714D02*
X163893343Y-109440476D01*
X164226676Y-108249999D02*
X164226676Y-107773809D01*
X164512391Y-108345237D02*
X163512391Y-108011904D01*
X163512391Y-108011904D02*
X164512391Y-107678571D01*
X164512391Y-107345237D02*
X163512391Y-107345237D01*
X163512391Y-107345237D02*
X164512391Y-106773809D01*
X164512391Y-106773809D02*
X163512391Y-106773809D01*
X164512391Y-106297618D02*
X163512391Y-106297618D01*
X163512391Y-106297618D02*
X163512391Y-106059523D01*
X163512391Y-106059523D02*
X163560010Y-105916666D01*
X163560010Y-105916666D02*
X163655248Y-105821428D01*
X163655248Y-105821428D02*
X163750486Y-105773809D01*
X163750486Y-105773809D02*
X163940962Y-105726190D01*
X163940962Y-105726190D02*
X164083819Y-105726190D01*
X164083819Y-105726190D02*
X164274295Y-105773809D01*
X164274295Y-105773809D02*
X164369533Y-105821428D01*
X164369533Y-105821428D02*
X164464772Y-105916666D01*
X164464772Y-105916666D02*
X164512391Y-106059523D01*
X164512391Y-106059523D02*
X164512391Y-106297618D01*
D11*
X135490476Y-81352219D02*
X135014286Y-81352219D01*
X135014286Y-81352219D02*
X135014286Y-80352219D01*
X135776191Y-81304600D02*
X135919048Y-81352219D01*
X135919048Y-81352219D02*
X136157143Y-81352219D01*
X136157143Y-81352219D02*
X136252381Y-81304600D01*
X136252381Y-81304600D02*
X136300000Y-81256980D01*
X136300000Y-81256980D02*
X136347619Y-81161742D01*
X136347619Y-81161742D02*
X136347619Y-81066504D01*
X136347619Y-81066504D02*
X136300000Y-80971266D01*
X136300000Y-80971266D02*
X136252381Y-80923647D01*
X136252381Y-80923647D02*
X136157143Y-80876028D01*
X136157143Y-80876028D02*
X135966667Y-80828409D01*
X135966667Y-80828409D02*
X135871429Y-80780790D01*
X135871429Y-80780790D02*
X135823810Y-80733171D01*
X135823810Y-80733171D02*
X135776191Y-80637933D01*
X135776191Y-80637933D02*
X135776191Y-80542695D01*
X135776191Y-80542695D02*
X135823810Y-80447457D01*
X135823810Y-80447457D02*
X135871429Y-80399838D01*
X135871429Y-80399838D02*
X135966667Y-80352219D01*
X135966667Y-80352219D02*
X136204762Y-80352219D01*
X136204762Y-80352219D02*
X136347619Y-80399838D01*
X137109524Y-80828409D02*
X137252381Y-80876028D01*
X137252381Y-80876028D02*
X137300000Y-80923647D01*
X137300000Y-80923647D02*
X137347619Y-81018885D01*
X137347619Y-81018885D02*
X137347619Y-81161742D01*
X137347619Y-81161742D02*
X137300000Y-81256980D01*
X137300000Y-81256980D02*
X137252381Y-81304600D01*
X137252381Y-81304600D02*
X137157143Y-81352219D01*
X137157143Y-81352219D02*
X136776191Y-81352219D01*
X136776191Y-81352219D02*
X136776191Y-80352219D01*
X136776191Y-80352219D02*
X137109524Y-80352219D01*
X137109524Y-80352219D02*
X137204762Y-80399838D01*
X137204762Y-80399838D02*
X137252381Y-80447457D01*
X137252381Y-80447457D02*
X137300000Y-80542695D01*
X137300000Y-80542695D02*
X137300000Y-80637933D01*
X137300000Y-80637933D02*
X137252381Y-80733171D01*
X137252381Y-80733171D02*
X137204762Y-80780790D01*
X137204762Y-80780790D02*
X137109524Y-80828409D01*
X137109524Y-80828409D02*
X136776191Y-80828409D01*
X137776191Y-80971266D02*
X138538096Y-80971266D01*
X139014286Y-80971266D02*
X139776191Y-80971266D01*
X140252381Y-80971266D02*
X141014286Y-80971266D01*
X142252381Y-81352219D02*
X142252381Y-80352219D01*
X142728571Y-81352219D02*
X142728571Y-80352219D01*
X142728571Y-80352219D02*
X143299999Y-81352219D01*
X143299999Y-81352219D02*
X143299999Y-80352219D01*
X143728571Y-81304600D02*
X143871428Y-81352219D01*
X143871428Y-81352219D02*
X144109523Y-81352219D01*
X144109523Y-81352219D02*
X144204761Y-81304600D01*
X144204761Y-81304600D02*
X144252380Y-81256980D01*
X144252380Y-81256980D02*
X144299999Y-81161742D01*
X144299999Y-81161742D02*
X144299999Y-81066504D01*
X144299999Y-81066504D02*
X144252380Y-80971266D01*
X144252380Y-80971266D02*
X144204761Y-80923647D01*
X144204761Y-80923647D02*
X144109523Y-80876028D01*
X144109523Y-80876028D02*
X143919047Y-80828409D01*
X143919047Y-80828409D02*
X143823809Y-80780790D01*
X143823809Y-80780790D02*
X143776190Y-80733171D01*
X143776190Y-80733171D02*
X143728571Y-80637933D01*
X143728571Y-80637933D02*
X143728571Y-80542695D01*
X143728571Y-80542695D02*
X143776190Y-80447457D01*
X143776190Y-80447457D02*
X143823809Y-80399838D01*
X143823809Y-80399838D02*
X143919047Y-80352219D01*
X143919047Y-80352219D02*
X144157142Y-80352219D01*
X144157142Y-80352219D02*
X144299999Y-80399838D01*
X144585714Y-80352219D02*
X145157142Y-80352219D01*
X144871428Y-81352219D02*
X144871428Y-80352219D01*
X146061904Y-81352219D02*
X145728571Y-80876028D01*
X145490476Y-81352219D02*
X145490476Y-80352219D01*
X145490476Y-80352219D02*
X145871428Y-80352219D01*
X145871428Y-80352219D02*
X145966666Y-80399838D01*
X145966666Y-80399838D02*
X146014285Y-80447457D01*
X146014285Y-80447457D02*
X146061904Y-80542695D01*
X146061904Y-80542695D02*
X146061904Y-80685552D01*
X146061904Y-80685552D02*
X146014285Y-80780790D01*
X146014285Y-80780790D02*
X145966666Y-80828409D01*
X145966666Y-80828409D02*
X145871428Y-80876028D01*
X145871428Y-80876028D02*
X145490476Y-80876028D01*
X147252381Y-80971266D02*
X148014286Y-80971266D01*
X148490476Y-80971266D02*
X149252381Y-80971266D01*
X149728571Y-80971266D02*
X150490476Y-80971266D01*
X150966666Y-81352219D02*
X150966666Y-80352219D01*
X150966666Y-80352219D02*
X151299999Y-81066504D01*
X151299999Y-81066504D02*
X151633332Y-80352219D01*
X151633332Y-80352219D02*
X151633332Y-81352219D01*
X152061904Y-81304600D02*
X152204761Y-81352219D01*
X152204761Y-81352219D02*
X152442856Y-81352219D01*
X152442856Y-81352219D02*
X152538094Y-81304600D01*
X152538094Y-81304600D02*
X152585713Y-81256980D01*
X152585713Y-81256980D02*
X152633332Y-81161742D01*
X152633332Y-81161742D02*
X152633332Y-81066504D01*
X152633332Y-81066504D02*
X152585713Y-80971266D01*
X152585713Y-80971266D02*
X152538094Y-80923647D01*
X152538094Y-80923647D02*
X152442856Y-80876028D01*
X152442856Y-80876028D02*
X152252380Y-80828409D01*
X152252380Y-80828409D02*
X152157142Y-80780790D01*
X152157142Y-80780790D02*
X152109523Y-80733171D01*
X152109523Y-80733171D02*
X152061904Y-80637933D01*
X152061904Y-80637933D02*
X152061904Y-80542695D01*
X152061904Y-80542695D02*
X152109523Y-80447457D01*
X152109523Y-80447457D02*
X152157142Y-80399838D01*
X152157142Y-80399838D02*
X152252380Y-80352219D01*
X152252380Y-80352219D02*
X152490475Y-80352219D01*
X152490475Y-80352219D02*
X152633332Y-80399838D01*
X153395237Y-80828409D02*
X153538094Y-80876028D01*
X153538094Y-80876028D02*
X153585713Y-80923647D01*
X153585713Y-80923647D02*
X153633332Y-81018885D01*
X153633332Y-81018885D02*
X153633332Y-81161742D01*
X153633332Y-81161742D02*
X153585713Y-81256980D01*
X153585713Y-81256980D02*
X153538094Y-81304600D01*
X153538094Y-81304600D02*
X153442856Y-81352219D01*
X153442856Y-81352219D02*
X153061904Y-81352219D01*
X153061904Y-81352219D02*
X153061904Y-80352219D01*
X153061904Y-80352219D02*
X153395237Y-80352219D01*
X153395237Y-80352219D02*
X153490475Y-80399838D01*
X153490475Y-80399838D02*
X153538094Y-80447457D01*
X153538094Y-80447457D02*
X153585713Y-80542695D01*
X153585713Y-80542695D02*
X153585713Y-80637933D01*
X153585713Y-80637933D02*
X153538094Y-80733171D01*
X153538094Y-80733171D02*
X153490475Y-80780790D01*
X153490475Y-80780790D02*
X153395237Y-80828409D01*
X153395237Y-80828409D02*
X153061904Y-80828409D01*
D12*
X165793220Y-120274561D02*
X165826553Y-120174561D01*
X165826553Y-120174561D02*
X165826553Y-120007895D01*
X165826553Y-120007895D02*
X165793220Y-119941228D01*
X165793220Y-119941228D02*
X165759886Y-119907895D01*
X165759886Y-119907895D02*
X165693220Y-119874561D01*
X165693220Y-119874561D02*
X165626553Y-119874561D01*
X165626553Y-119874561D02*
X165559886Y-119907895D01*
X165559886Y-119907895D02*
X165526553Y-119941228D01*
X165526553Y-119941228D02*
X165493220Y-120007895D01*
X165493220Y-120007895D02*
X165459886Y-120141228D01*
X165459886Y-120141228D02*
X165426553Y-120207895D01*
X165426553Y-120207895D02*
X165393220Y-120241228D01*
X165393220Y-120241228D02*
X165326553Y-120274561D01*
X165326553Y-120274561D02*
X165259886Y-120274561D01*
X165259886Y-120274561D02*
X165193220Y-120241228D01*
X165193220Y-120241228D02*
X165159886Y-120207895D01*
X165159886Y-120207895D02*
X165126553Y-120141228D01*
X165126553Y-120141228D02*
X165126553Y-119974561D01*
X165126553Y-119974561D02*
X165159886Y-119874561D01*
X165126553Y-119674561D02*
X165126553Y-119274561D01*
X165826553Y-119474561D02*
X165126553Y-119474561D01*
X165626553Y-119074561D02*
X165626553Y-118741228D01*
X165826553Y-119141228D02*
X165126553Y-118907895D01*
X165126553Y-118907895D02*
X165826553Y-118674561D01*
X165126553Y-118541228D02*
X165126553Y-118141228D01*
X165826553Y-118341228D02*
X165126553Y-118341228D01*
X155726553Y-120241228D02*
X155026553Y-120241228D01*
X155026553Y-120241228D02*
X155526553Y-120007895D01*
X155526553Y-120007895D02*
X155026553Y-119774561D01*
X155026553Y-119774561D02*
X155726553Y-119774561D01*
X155693220Y-119174561D02*
X155726553Y-119241228D01*
X155726553Y-119241228D02*
X155726553Y-119374561D01*
X155726553Y-119374561D02*
X155693220Y-119441228D01*
X155693220Y-119441228D02*
X155626553Y-119474561D01*
X155626553Y-119474561D02*
X155359886Y-119474561D01*
X155359886Y-119474561D02*
X155293220Y-119441228D01*
X155293220Y-119441228D02*
X155259886Y-119374561D01*
X155259886Y-119374561D02*
X155259886Y-119241228D01*
X155259886Y-119241228D02*
X155293220Y-119174561D01*
X155293220Y-119174561D02*
X155359886Y-119141228D01*
X155359886Y-119141228D02*
X155426553Y-119141228D01*
X155426553Y-119141228D02*
X155493220Y-119474561D01*
X155726553Y-118841228D02*
X155259886Y-118841228D01*
X155326553Y-118841228D02*
X155293220Y-118807895D01*
X155293220Y-118807895D02*
X155259886Y-118741228D01*
X155259886Y-118741228D02*
X155259886Y-118641228D01*
X155259886Y-118641228D02*
X155293220Y-118574561D01*
X155293220Y-118574561D02*
X155359886Y-118541228D01*
X155359886Y-118541228D02*
X155726553Y-118541228D01*
X155359886Y-118541228D02*
X155293220Y-118507895D01*
X155293220Y-118507895D02*
X155259886Y-118441228D01*
X155259886Y-118441228D02*
X155259886Y-118341228D01*
X155259886Y-118341228D02*
X155293220Y-118274561D01*
X155293220Y-118274561D02*
X155359886Y-118241228D01*
X155359886Y-118241228D02*
X155726553Y-118241228D01*
X155726553Y-117507895D02*
X155393220Y-117741228D01*
X155726553Y-117907895D02*
X155026553Y-117907895D01*
X155026553Y-117907895D02*
X155026553Y-117641228D01*
X155026553Y-117641228D02*
X155059886Y-117574562D01*
X155059886Y-117574562D02*
X155093220Y-117541228D01*
X155093220Y-117541228D02*
X155159886Y-117507895D01*
X155159886Y-117507895D02*
X155259886Y-117507895D01*
X155259886Y-117507895D02*
X155326553Y-117541228D01*
X155326553Y-117541228D02*
X155359886Y-117574562D01*
X155359886Y-117574562D02*
X155393220Y-117641228D01*
X155393220Y-117641228D02*
X155393220Y-117907895D01*
X155693220Y-116941228D02*
X155726553Y-117007895D01*
X155726553Y-117007895D02*
X155726553Y-117141228D01*
X155726553Y-117141228D02*
X155693220Y-117207895D01*
X155693220Y-117207895D02*
X155626553Y-117241228D01*
X155626553Y-117241228D02*
X155359886Y-117241228D01*
X155359886Y-117241228D02*
X155293220Y-117207895D01*
X155293220Y-117207895D02*
X155259886Y-117141228D01*
X155259886Y-117141228D02*
X155259886Y-117007895D01*
X155259886Y-117007895D02*
X155293220Y-116941228D01*
X155293220Y-116941228D02*
X155359886Y-116907895D01*
X155359886Y-116907895D02*
X155426553Y-116907895D01*
X155426553Y-116907895D02*
X155493220Y-117241228D01*
X155726553Y-116307895D02*
X155359886Y-116307895D01*
X155359886Y-116307895D02*
X155293220Y-116341228D01*
X155293220Y-116341228D02*
X155259886Y-116407895D01*
X155259886Y-116407895D02*
X155259886Y-116541228D01*
X155259886Y-116541228D02*
X155293220Y-116607895D01*
X155693220Y-116307895D02*
X155726553Y-116374562D01*
X155726553Y-116374562D02*
X155726553Y-116541228D01*
X155726553Y-116541228D02*
X155693220Y-116607895D01*
X155693220Y-116607895D02*
X155626553Y-116641228D01*
X155626553Y-116641228D02*
X155559886Y-116641228D01*
X155559886Y-116641228D02*
X155493220Y-116607895D01*
X155493220Y-116607895D02*
X155459886Y-116541228D01*
X155459886Y-116541228D02*
X155459886Y-116374562D01*
X155459886Y-116374562D02*
X155426553Y-116307895D01*
X155726553Y-115674562D02*
X155026553Y-115674562D01*
X155693220Y-115674562D02*
X155726553Y-115741229D01*
X155726553Y-115741229D02*
X155726553Y-115874562D01*
X155726553Y-115874562D02*
X155693220Y-115941229D01*
X155693220Y-115941229D02*
X155659886Y-115974562D01*
X155659886Y-115974562D02*
X155593220Y-116007895D01*
X155593220Y-116007895D02*
X155393220Y-116007895D01*
X155393220Y-116007895D02*
X155326553Y-115974562D01*
X155326553Y-115974562D02*
X155293220Y-115941229D01*
X155293220Y-115941229D02*
X155259886Y-115874562D01*
X155259886Y-115874562D02*
X155259886Y-115741229D01*
X155259886Y-115741229D02*
X155293220Y-115674562D01*
D10*
X178057208Y-92845238D02*
X178104828Y-92892857D01*
X178104828Y-92892857D02*
X178152447Y-93035714D01*
X178152447Y-93035714D02*
X178152447Y-93130952D01*
X178152447Y-93130952D02*
X178104828Y-93273809D01*
X178104828Y-93273809D02*
X178009589Y-93369047D01*
X178009589Y-93369047D02*
X177914351Y-93416666D01*
X177914351Y-93416666D02*
X177723875Y-93464285D01*
X177723875Y-93464285D02*
X177581018Y-93464285D01*
X177581018Y-93464285D02*
X177390542Y-93416666D01*
X177390542Y-93416666D02*
X177295304Y-93369047D01*
X177295304Y-93369047D02*
X177200066Y-93273809D01*
X177200066Y-93273809D02*
X177152447Y-93130952D01*
X177152447Y-93130952D02*
X177152447Y-93035714D01*
X177152447Y-93035714D02*
X177200066Y-92892857D01*
X177200066Y-92892857D02*
X177247685Y-92845238D01*
X178152447Y-92416666D02*
X177152447Y-92416666D01*
X177152447Y-92416666D02*
X177152447Y-92178571D01*
X177152447Y-92178571D02*
X177200066Y-92035714D01*
X177200066Y-92035714D02*
X177295304Y-91940476D01*
X177295304Y-91940476D02*
X177390542Y-91892857D01*
X177390542Y-91892857D02*
X177581018Y-91845238D01*
X177581018Y-91845238D02*
X177723875Y-91845238D01*
X177723875Y-91845238D02*
X177914351Y-91892857D01*
X177914351Y-91892857D02*
X178009589Y-91940476D01*
X178009589Y-91940476D02*
X178104828Y-92035714D01*
X178104828Y-92035714D02*
X178152447Y-92178571D01*
X178152447Y-92178571D02*
X178152447Y-92416666D01*
X177485780Y-90988095D02*
X178152447Y-90988095D01*
X177104828Y-91226190D02*
X177819113Y-91464285D01*
X177819113Y-91464285D02*
X177819113Y-90845238D01*
X177152447Y-90273809D02*
X177152447Y-90178571D01*
X177152447Y-90178571D02*
X177200066Y-90083333D01*
X177200066Y-90083333D02*
X177247685Y-90035714D01*
X177247685Y-90035714D02*
X177342923Y-89988095D01*
X177342923Y-89988095D02*
X177533399Y-89940476D01*
X177533399Y-89940476D02*
X177771494Y-89940476D01*
X177771494Y-89940476D02*
X177961970Y-89988095D01*
X177961970Y-89988095D02*
X178057208Y-90035714D01*
X178057208Y-90035714D02*
X178104828Y-90083333D01*
X178104828Y-90083333D02*
X178152447Y-90178571D01*
X178152447Y-90178571D02*
X178152447Y-90273809D01*
X178152447Y-90273809D02*
X178104828Y-90369047D01*
X178104828Y-90369047D02*
X178057208Y-90416666D01*
X178057208Y-90416666D02*
X177961970Y-90464285D01*
X177961970Y-90464285D02*
X177771494Y-90511904D01*
X177771494Y-90511904D02*
X177533399Y-90511904D01*
X177533399Y-90511904D02*
X177342923Y-90464285D01*
X177342923Y-90464285D02*
X177247685Y-90416666D01*
X177247685Y-90416666D02*
X177200066Y-90369047D01*
X177200066Y-90369047D02*
X177152447Y-90273809D01*
X177152447Y-89607142D02*
X177152447Y-88940476D01*
X177152447Y-88940476D02*
X178152447Y-89369047D01*
X178152447Y-88035714D02*
X178152447Y-88607142D01*
X178152447Y-88321428D02*
X177152447Y-88321428D01*
X177152447Y-88321428D02*
X177295304Y-88416666D01*
X177295304Y-88416666D02*
X177390542Y-88511904D01*
X177390542Y-88511904D02*
X177438161Y-88607142D01*
X179857629Y-93130952D02*
X179810010Y-93226190D01*
X179810010Y-93226190D02*
X179714772Y-93321428D01*
X179714772Y-93321428D02*
X179571914Y-93464285D01*
X179571914Y-93464285D02*
X179524295Y-93559523D01*
X179524295Y-93559523D02*
X179524295Y-93654761D01*
X179762391Y-93607142D02*
X179714772Y-93702380D01*
X179714772Y-93702380D02*
X179619533Y-93797618D01*
X179619533Y-93797618D02*
X179429057Y-93845237D01*
X179429057Y-93845237D02*
X179095724Y-93845237D01*
X179095724Y-93845237D02*
X178905248Y-93797618D01*
X178905248Y-93797618D02*
X178810010Y-93702380D01*
X178810010Y-93702380D02*
X178762391Y-93607142D01*
X178762391Y-93607142D02*
X178762391Y-93416666D01*
X178762391Y-93416666D02*
X178810010Y-93321428D01*
X178810010Y-93321428D02*
X178905248Y-93226190D01*
X178905248Y-93226190D02*
X179095724Y-93178571D01*
X179095724Y-93178571D02*
X179429057Y-93178571D01*
X179429057Y-93178571D02*
X179619533Y-93226190D01*
X179619533Y-93226190D02*
X179714772Y-93321428D01*
X179714772Y-93321428D02*
X179762391Y-93416666D01*
X179762391Y-93416666D02*
X179762391Y-93607142D01*
X179095724Y-92321428D02*
X179762391Y-92321428D01*
X179095724Y-92749999D02*
X179619533Y-92749999D01*
X179619533Y-92749999D02*
X179714772Y-92702380D01*
X179714772Y-92702380D02*
X179762391Y-92607142D01*
X179762391Y-92607142D02*
X179762391Y-92464285D01*
X179762391Y-92464285D02*
X179714772Y-92369047D01*
X179714772Y-92369047D02*
X179667152Y-92321428D01*
X179762391Y-91416666D02*
X179238581Y-91416666D01*
X179238581Y-91416666D02*
X179143343Y-91464285D01*
X179143343Y-91464285D02*
X179095724Y-91559523D01*
X179095724Y-91559523D02*
X179095724Y-91749999D01*
X179095724Y-91749999D02*
X179143343Y-91845237D01*
X179714772Y-91416666D02*
X179762391Y-91511904D01*
X179762391Y-91511904D02*
X179762391Y-91749999D01*
X179762391Y-91749999D02*
X179714772Y-91845237D01*
X179714772Y-91845237D02*
X179619533Y-91892856D01*
X179619533Y-91892856D02*
X179524295Y-91892856D01*
X179524295Y-91892856D02*
X179429057Y-91845237D01*
X179429057Y-91845237D02*
X179381438Y-91749999D01*
X179381438Y-91749999D02*
X179381438Y-91511904D01*
X179381438Y-91511904D02*
X179333819Y-91416666D01*
X179762391Y-90511904D02*
X178762391Y-90511904D01*
X179714772Y-90511904D02*
X179762391Y-90607142D01*
X179762391Y-90607142D02*
X179762391Y-90797618D01*
X179762391Y-90797618D02*
X179714772Y-90892856D01*
X179714772Y-90892856D02*
X179667152Y-90940475D01*
X179667152Y-90940475D02*
X179571914Y-90988094D01*
X179571914Y-90988094D02*
X179286200Y-90988094D01*
X179286200Y-90988094D02*
X179190962Y-90940475D01*
X179190962Y-90940475D02*
X179143343Y-90892856D01*
X179143343Y-90892856D02*
X179095724Y-90797618D01*
X179095724Y-90797618D02*
X179095724Y-90607142D01*
X179095724Y-90607142D02*
X179143343Y-90511904D01*
X178762391Y-89083332D02*
X178762391Y-88892856D01*
X178762391Y-88892856D02*
X178810010Y-88797618D01*
X178810010Y-88797618D02*
X178905248Y-88702380D01*
X178905248Y-88702380D02*
X179095724Y-88654761D01*
X179095724Y-88654761D02*
X179429057Y-88654761D01*
X179429057Y-88654761D02*
X179619533Y-88702380D01*
X179619533Y-88702380D02*
X179714772Y-88797618D01*
X179714772Y-88797618D02*
X179762391Y-88892856D01*
X179762391Y-88892856D02*
X179762391Y-89083332D01*
X179762391Y-89083332D02*
X179714772Y-89178570D01*
X179714772Y-89178570D02*
X179619533Y-89273808D01*
X179619533Y-89273808D02*
X179429057Y-89321427D01*
X179429057Y-89321427D02*
X179095724Y-89321427D01*
X179095724Y-89321427D02*
X178905248Y-89273808D01*
X178905248Y-89273808D02*
X178810010Y-89178570D01*
X178810010Y-89178570D02*
X178762391Y-89083332D01*
X179762391Y-87654761D02*
X179286200Y-87988094D01*
X179762391Y-88226189D02*
X178762391Y-88226189D01*
X178762391Y-88226189D02*
X178762391Y-87845237D01*
X178762391Y-87845237D02*
X178810010Y-87749999D01*
X178810010Y-87749999D02*
X178857629Y-87702380D01*
X178857629Y-87702380D02*
X178952867Y-87654761D01*
X178952867Y-87654761D02*
X179095724Y-87654761D01*
X179095724Y-87654761D02*
X179190962Y-87702380D01*
X179190962Y-87702380D02*
X179238581Y-87749999D01*
X179238581Y-87749999D02*
X179286200Y-87845237D01*
X179286200Y-87845237D02*
X179286200Y-88226189D01*
D12*
X170926553Y-119841228D02*
X170593220Y-120074561D01*
X170926553Y-120241228D02*
X170226553Y-120241228D01*
X170226553Y-120241228D02*
X170226553Y-119974561D01*
X170226553Y-119974561D02*
X170259886Y-119907895D01*
X170259886Y-119907895D02*
X170293220Y-119874561D01*
X170293220Y-119874561D02*
X170359886Y-119841228D01*
X170359886Y-119841228D02*
X170459886Y-119841228D01*
X170459886Y-119841228D02*
X170526553Y-119874561D01*
X170526553Y-119874561D02*
X170559886Y-119907895D01*
X170559886Y-119907895D02*
X170593220Y-119974561D01*
X170593220Y-119974561D02*
X170593220Y-120241228D01*
X170893220Y-119274561D02*
X170926553Y-119341228D01*
X170926553Y-119341228D02*
X170926553Y-119474561D01*
X170926553Y-119474561D02*
X170893220Y-119541228D01*
X170893220Y-119541228D02*
X170826553Y-119574561D01*
X170826553Y-119574561D02*
X170559886Y-119574561D01*
X170559886Y-119574561D02*
X170493220Y-119541228D01*
X170493220Y-119541228D02*
X170459886Y-119474561D01*
X170459886Y-119474561D02*
X170459886Y-119341228D01*
X170459886Y-119341228D02*
X170493220Y-119274561D01*
X170493220Y-119274561D02*
X170559886Y-119241228D01*
X170559886Y-119241228D02*
X170626553Y-119241228D01*
X170626553Y-119241228D02*
X170693220Y-119574561D01*
X170459886Y-118641228D02*
X171026553Y-118641228D01*
X171026553Y-118641228D02*
X171093220Y-118674561D01*
X171093220Y-118674561D02*
X171126553Y-118707895D01*
X171126553Y-118707895D02*
X171159886Y-118774561D01*
X171159886Y-118774561D02*
X171159886Y-118874561D01*
X171159886Y-118874561D02*
X171126553Y-118941228D01*
X170893220Y-118641228D02*
X170926553Y-118707895D01*
X170926553Y-118707895D02*
X170926553Y-118841228D01*
X170926553Y-118841228D02*
X170893220Y-118907895D01*
X170893220Y-118907895D02*
X170859886Y-118941228D01*
X170859886Y-118941228D02*
X170793220Y-118974561D01*
X170793220Y-118974561D02*
X170593220Y-118974561D01*
X170593220Y-118974561D02*
X170526553Y-118941228D01*
X170526553Y-118941228D02*
X170493220Y-118907895D01*
X170493220Y-118907895D02*
X170459886Y-118841228D01*
X170459886Y-118841228D02*
X170459886Y-118707895D01*
X170459886Y-118707895D02*
X170493220Y-118641228D01*
X170926553Y-118307895D02*
X170226553Y-118307895D01*
X170226553Y-118307895D02*
X170226553Y-118141228D01*
X170226553Y-118141228D02*
X170259886Y-118041228D01*
X170259886Y-118041228D02*
X170326553Y-117974562D01*
X170326553Y-117974562D02*
X170393220Y-117941228D01*
X170393220Y-117941228D02*
X170526553Y-117907895D01*
X170526553Y-117907895D02*
X170626553Y-117907895D01*
X170626553Y-117907895D02*
X170759886Y-117941228D01*
X170759886Y-117941228D02*
X170826553Y-117974562D01*
X170826553Y-117974562D02*
X170893220Y-118041228D01*
X170893220Y-118041228D02*
X170926553Y-118141228D01*
X170926553Y-118141228D02*
X170926553Y-118307895D01*
X170893220Y-117341228D02*
X170926553Y-117407895D01*
X170926553Y-117407895D02*
X170926553Y-117541228D01*
X170926553Y-117541228D02*
X170893220Y-117607895D01*
X170893220Y-117607895D02*
X170826553Y-117641228D01*
X170826553Y-117641228D02*
X170559886Y-117641228D01*
X170559886Y-117641228D02*
X170493220Y-117607895D01*
X170493220Y-117607895D02*
X170459886Y-117541228D01*
X170459886Y-117541228D02*
X170459886Y-117407895D01*
X170459886Y-117407895D02*
X170493220Y-117341228D01*
X170493220Y-117341228D02*
X170559886Y-117307895D01*
X170559886Y-117307895D02*
X170626553Y-117307895D01*
X170626553Y-117307895D02*
X170693220Y-117641228D01*
X170893220Y-117041228D02*
X170926553Y-116974562D01*
X170926553Y-116974562D02*
X170926553Y-116841228D01*
X170926553Y-116841228D02*
X170893220Y-116774562D01*
X170893220Y-116774562D02*
X170826553Y-116741228D01*
X170826553Y-116741228D02*
X170793220Y-116741228D01*
X170793220Y-116741228D02*
X170726553Y-116774562D01*
X170726553Y-116774562D02*
X170693220Y-116841228D01*
X170693220Y-116841228D02*
X170693220Y-116941228D01*
X170693220Y-116941228D02*
X170659886Y-117007895D01*
X170659886Y-117007895D02*
X170593220Y-117041228D01*
X170593220Y-117041228D02*
X170559886Y-117041228D01*
X170559886Y-117041228D02*
X170493220Y-117007895D01*
X170493220Y-117007895D02*
X170459886Y-116941228D01*
X170459886Y-116941228D02*
X170459886Y-116841228D01*
X170459886Y-116841228D02*
X170493220Y-116774562D01*
X170459886Y-116541228D02*
X170459886Y-116274561D01*
X170226553Y-116441228D02*
X170826553Y-116441228D01*
X170826553Y-116441228D02*
X170893220Y-116407895D01*
X170893220Y-116407895D02*
X170926553Y-116341228D01*
X170926553Y-116341228D02*
X170926553Y-116274561D01*
X170226553Y-115907895D02*
X170226553Y-115841228D01*
X170226553Y-115841228D02*
X170259886Y-115774561D01*
X170259886Y-115774561D02*
X170293220Y-115741228D01*
X170293220Y-115741228D02*
X170359886Y-115707895D01*
X170359886Y-115707895D02*
X170493220Y-115674561D01*
X170493220Y-115674561D02*
X170659886Y-115674561D01*
X170659886Y-115674561D02*
X170793220Y-115707895D01*
X170793220Y-115707895D02*
X170859886Y-115741228D01*
X170859886Y-115741228D02*
X170893220Y-115774561D01*
X170893220Y-115774561D02*
X170926553Y-115841228D01*
X170926553Y-115841228D02*
X170926553Y-115907895D01*
X170926553Y-115907895D02*
X170893220Y-115974561D01*
X170893220Y-115974561D02*
X170859886Y-116007895D01*
X170859886Y-116007895D02*
X170793220Y-116041228D01*
X170793220Y-116041228D02*
X170659886Y-116074561D01*
X170659886Y-116074561D02*
X170493220Y-116074561D01*
X170493220Y-116074561D02*
X170359886Y-116041228D01*
X170359886Y-116041228D02*
X170293220Y-116007895D01*
X170293220Y-116007895D02*
X170259886Y-115974561D01*
X170259886Y-115974561D02*
X170226553Y-115907895D01*
X142826553Y-120174561D02*
X142826553Y-119841228D01*
X143026553Y-120241228D02*
X142326553Y-120007895D01*
X142326553Y-120007895D02*
X143026553Y-119774561D01*
X143026553Y-119207895D02*
X143026553Y-119541228D01*
X143026553Y-119541228D02*
X142326553Y-119541228D01*
X142326553Y-118974561D02*
X142893220Y-118974561D01*
X142893220Y-118974561D02*
X142959886Y-118941228D01*
X142959886Y-118941228D02*
X142993220Y-118907894D01*
X142993220Y-118907894D02*
X143026553Y-118841228D01*
X143026553Y-118841228D02*
X143026553Y-118707894D01*
X143026553Y-118707894D02*
X142993220Y-118641228D01*
X142993220Y-118641228D02*
X142959886Y-118607894D01*
X142959886Y-118607894D02*
X142893220Y-118574561D01*
X142893220Y-118574561D02*
X142326553Y-118574561D01*
X142326553Y-118107895D02*
X142326553Y-118041228D01*
X142326553Y-118041228D02*
X142359886Y-117974561D01*
X142359886Y-117974561D02*
X142393220Y-117941228D01*
X142393220Y-117941228D02*
X142459886Y-117907895D01*
X142459886Y-117907895D02*
X142593220Y-117874561D01*
X142593220Y-117874561D02*
X142759886Y-117874561D01*
X142759886Y-117874561D02*
X142893220Y-117907895D01*
X142893220Y-117907895D02*
X142959886Y-117941228D01*
X142959886Y-117941228D02*
X142993220Y-117974561D01*
X142993220Y-117974561D02*
X143026553Y-118041228D01*
X143026553Y-118041228D02*
X143026553Y-118107895D01*
X143026553Y-118107895D02*
X142993220Y-118174561D01*
X142993220Y-118174561D02*
X142959886Y-118207895D01*
X142959886Y-118207895D02*
X142893220Y-118241228D01*
X142893220Y-118241228D02*
X142759886Y-118274561D01*
X142759886Y-118274561D02*
X142593220Y-118274561D01*
X142593220Y-118274561D02*
X142459886Y-118241228D01*
X142459886Y-118241228D02*
X142393220Y-118207895D01*
X142393220Y-118207895D02*
X142359886Y-118174561D01*
X142359886Y-118174561D02*
X142326553Y-118107895D01*
X160816553Y-120214071D02*
X160116553Y-120214071D01*
X160116553Y-120214071D02*
X160616553Y-119980738D01*
X160616553Y-119980738D02*
X160116553Y-119747404D01*
X160116553Y-119747404D02*
X160816553Y-119747404D01*
X160783220Y-119147404D02*
X160816553Y-119214071D01*
X160816553Y-119214071D02*
X160816553Y-119347404D01*
X160816553Y-119347404D02*
X160783220Y-119414071D01*
X160783220Y-119414071D02*
X160716553Y-119447404D01*
X160716553Y-119447404D02*
X160449886Y-119447404D01*
X160449886Y-119447404D02*
X160383220Y-119414071D01*
X160383220Y-119414071D02*
X160349886Y-119347404D01*
X160349886Y-119347404D02*
X160349886Y-119214071D01*
X160349886Y-119214071D02*
X160383220Y-119147404D01*
X160383220Y-119147404D02*
X160449886Y-119114071D01*
X160449886Y-119114071D02*
X160516553Y-119114071D01*
X160516553Y-119114071D02*
X160583220Y-119447404D01*
X160816553Y-118814071D02*
X160349886Y-118814071D01*
X160416553Y-118814071D02*
X160383220Y-118780738D01*
X160383220Y-118780738D02*
X160349886Y-118714071D01*
X160349886Y-118714071D02*
X160349886Y-118614071D01*
X160349886Y-118614071D02*
X160383220Y-118547404D01*
X160383220Y-118547404D02*
X160449886Y-118514071D01*
X160449886Y-118514071D02*
X160816553Y-118514071D01*
X160449886Y-118514071D02*
X160383220Y-118480738D01*
X160383220Y-118480738D02*
X160349886Y-118414071D01*
X160349886Y-118414071D02*
X160349886Y-118314071D01*
X160349886Y-118314071D02*
X160383220Y-118247404D01*
X160383220Y-118247404D02*
X160449886Y-118214071D01*
X160449886Y-118214071D02*
X160816553Y-118214071D01*
X160116553Y-117947405D02*
X160816553Y-117780738D01*
X160816553Y-117780738D02*
X160316553Y-117647405D01*
X160316553Y-117647405D02*
X160816553Y-117514071D01*
X160816553Y-117514071D02*
X160116553Y-117347405D01*
X160816553Y-117080738D02*
X160349886Y-117080738D01*
X160483220Y-117080738D02*
X160416553Y-117047405D01*
X160416553Y-117047405D02*
X160383220Y-117014071D01*
X160383220Y-117014071D02*
X160349886Y-116947405D01*
X160349886Y-116947405D02*
X160349886Y-116880738D01*
X160816553Y-116647405D02*
X160349886Y-116647405D01*
X160116553Y-116647405D02*
X160149886Y-116680738D01*
X160149886Y-116680738D02*
X160183220Y-116647405D01*
X160183220Y-116647405D02*
X160149886Y-116614072D01*
X160149886Y-116614072D02*
X160116553Y-116647405D01*
X160116553Y-116647405D02*
X160183220Y-116647405D01*
X160349886Y-116414072D02*
X160349886Y-116147405D01*
X160116553Y-116314072D02*
X160716553Y-116314072D01*
X160716553Y-116314072D02*
X160783220Y-116280739D01*
X160783220Y-116280739D02*
X160816553Y-116214072D01*
X160816553Y-116214072D02*
X160816553Y-116147405D01*
X160783220Y-115647405D02*
X160816553Y-115714072D01*
X160816553Y-115714072D02*
X160816553Y-115847405D01*
X160816553Y-115847405D02*
X160783220Y-115914072D01*
X160783220Y-115914072D02*
X160716553Y-115947405D01*
X160716553Y-115947405D02*
X160449886Y-115947405D01*
X160449886Y-115947405D02*
X160383220Y-115914072D01*
X160383220Y-115914072D02*
X160349886Y-115847405D01*
X160349886Y-115847405D02*
X160349886Y-115714072D01*
X160349886Y-115714072D02*
X160383220Y-115647405D01*
X160383220Y-115647405D02*
X160449886Y-115614072D01*
X160449886Y-115614072D02*
X160516553Y-115614072D01*
X160516553Y-115614072D02*
X160583220Y-115947405D01*
X153126553Y-119741228D02*
X152793220Y-119974561D01*
X153126553Y-120141228D02*
X152426553Y-120141228D01*
X152426553Y-120141228D02*
X152426553Y-119874561D01*
X152426553Y-119874561D02*
X152459886Y-119807895D01*
X152459886Y-119807895D02*
X152493220Y-119774561D01*
X152493220Y-119774561D02*
X152559886Y-119741228D01*
X152559886Y-119741228D02*
X152659886Y-119741228D01*
X152659886Y-119741228D02*
X152726553Y-119774561D01*
X152726553Y-119774561D02*
X152759886Y-119807895D01*
X152759886Y-119807895D02*
X152793220Y-119874561D01*
X152793220Y-119874561D02*
X152793220Y-120141228D01*
X153093220Y-119174561D02*
X153126553Y-119241228D01*
X153126553Y-119241228D02*
X153126553Y-119374561D01*
X153126553Y-119374561D02*
X153093220Y-119441228D01*
X153093220Y-119441228D02*
X153026553Y-119474561D01*
X153026553Y-119474561D02*
X152759886Y-119474561D01*
X152759886Y-119474561D02*
X152693220Y-119441228D01*
X152693220Y-119441228D02*
X152659886Y-119374561D01*
X152659886Y-119374561D02*
X152659886Y-119241228D01*
X152659886Y-119241228D02*
X152693220Y-119174561D01*
X152693220Y-119174561D02*
X152759886Y-119141228D01*
X152759886Y-119141228D02*
X152826553Y-119141228D01*
X152826553Y-119141228D02*
X152893220Y-119474561D01*
X152659886Y-118541228D02*
X153226553Y-118541228D01*
X153226553Y-118541228D02*
X153293220Y-118574561D01*
X153293220Y-118574561D02*
X153326553Y-118607895D01*
X153326553Y-118607895D02*
X153359886Y-118674561D01*
X153359886Y-118674561D02*
X153359886Y-118774561D01*
X153359886Y-118774561D02*
X153326553Y-118841228D01*
X153093220Y-118541228D02*
X153126553Y-118607895D01*
X153126553Y-118607895D02*
X153126553Y-118741228D01*
X153126553Y-118741228D02*
X153093220Y-118807895D01*
X153093220Y-118807895D02*
X153059886Y-118841228D01*
X153059886Y-118841228D02*
X152993220Y-118874561D01*
X152993220Y-118874561D02*
X152793220Y-118874561D01*
X152793220Y-118874561D02*
X152726553Y-118841228D01*
X152726553Y-118841228D02*
X152693220Y-118807895D01*
X152693220Y-118807895D02*
X152659886Y-118741228D01*
X152659886Y-118741228D02*
X152659886Y-118607895D01*
X152659886Y-118607895D02*
X152693220Y-118541228D01*
X153093220Y-118241228D02*
X153126553Y-118141228D01*
X153126553Y-118141228D02*
X153126553Y-117974562D01*
X153126553Y-117974562D02*
X153093220Y-117907895D01*
X153093220Y-117907895D02*
X153059886Y-117874562D01*
X153059886Y-117874562D02*
X152993220Y-117841228D01*
X152993220Y-117841228D02*
X152926553Y-117841228D01*
X152926553Y-117841228D02*
X152859886Y-117874562D01*
X152859886Y-117874562D02*
X152826553Y-117907895D01*
X152826553Y-117907895D02*
X152793220Y-117974562D01*
X152793220Y-117974562D02*
X152759886Y-118107895D01*
X152759886Y-118107895D02*
X152726553Y-118174562D01*
X152726553Y-118174562D02*
X152693220Y-118207895D01*
X152693220Y-118207895D02*
X152626553Y-118241228D01*
X152626553Y-118241228D02*
X152559886Y-118241228D01*
X152559886Y-118241228D02*
X152493220Y-118207895D01*
X152493220Y-118207895D02*
X152459886Y-118174562D01*
X152459886Y-118174562D02*
X152426553Y-118107895D01*
X152426553Y-118107895D02*
X152426553Y-117941228D01*
X152426553Y-117941228D02*
X152459886Y-117841228D01*
X153126553Y-117541228D02*
X152659886Y-117541228D01*
X152793220Y-117541228D02*
X152726553Y-117507895D01*
X152726553Y-117507895D02*
X152693220Y-117474561D01*
X152693220Y-117474561D02*
X152659886Y-117407895D01*
X152659886Y-117407895D02*
X152659886Y-117341228D01*
X153093220Y-116807895D02*
X153126553Y-116874562D01*
X153126553Y-116874562D02*
X153126553Y-117007895D01*
X153126553Y-117007895D02*
X153093220Y-117074562D01*
X153093220Y-117074562D02*
X153059886Y-117107895D01*
X153059886Y-117107895D02*
X152993220Y-117141228D01*
X152993220Y-117141228D02*
X152793220Y-117141228D01*
X152793220Y-117141228D02*
X152726553Y-117107895D01*
X152726553Y-117107895D02*
X152693220Y-117074562D01*
X152693220Y-117074562D02*
X152659886Y-117007895D01*
X152659886Y-117007895D02*
X152659886Y-116874562D01*
X152659886Y-116874562D02*
X152693220Y-116807895D01*
X153126553Y-116141228D02*
X153126553Y-116541228D01*
X153126553Y-116341228D02*
X152426553Y-116341228D01*
X152426553Y-116341228D02*
X152526553Y-116407895D01*
X152526553Y-116407895D02*
X152593220Y-116474562D01*
X152593220Y-116474562D02*
X152626553Y-116541228D01*
X147926553Y-120274561D02*
X147926553Y-119941228D01*
X148126553Y-120341228D02*
X147426553Y-120107895D01*
X147426553Y-120107895D02*
X148126553Y-119874561D01*
X148126553Y-119307895D02*
X148126553Y-119641228D01*
X148126553Y-119641228D02*
X147426553Y-119641228D01*
X147426553Y-119074561D02*
X147993220Y-119074561D01*
X147993220Y-119074561D02*
X148059886Y-119041228D01*
X148059886Y-119041228D02*
X148093220Y-119007894D01*
X148093220Y-119007894D02*
X148126553Y-118941228D01*
X148126553Y-118941228D02*
X148126553Y-118807894D01*
X148126553Y-118807894D02*
X148093220Y-118741228D01*
X148093220Y-118741228D02*
X148059886Y-118707894D01*
X148059886Y-118707894D02*
X147993220Y-118674561D01*
X147993220Y-118674561D02*
X147426553Y-118674561D01*
X147493220Y-118374561D02*
X147459886Y-118341228D01*
X147459886Y-118341228D02*
X147426553Y-118274561D01*
X147426553Y-118274561D02*
X147426553Y-118107895D01*
X147426553Y-118107895D02*
X147459886Y-118041228D01*
X147459886Y-118041228D02*
X147493220Y-118007895D01*
X147493220Y-118007895D02*
X147559886Y-117974561D01*
X147559886Y-117974561D02*
X147626553Y-117974561D01*
X147626553Y-117974561D02*
X147726553Y-118007895D01*
X147726553Y-118007895D02*
X148126553Y-118407895D01*
X148126553Y-118407895D02*
X148126553Y-117974561D01*
D10*
X163057208Y-92845238D02*
X163104828Y-92892857D01*
X163104828Y-92892857D02*
X163152447Y-93035714D01*
X163152447Y-93035714D02*
X163152447Y-93130952D01*
X163152447Y-93130952D02*
X163104828Y-93273809D01*
X163104828Y-93273809D02*
X163009589Y-93369047D01*
X163009589Y-93369047D02*
X162914351Y-93416666D01*
X162914351Y-93416666D02*
X162723875Y-93464285D01*
X162723875Y-93464285D02*
X162581018Y-93464285D01*
X162581018Y-93464285D02*
X162390542Y-93416666D01*
X162390542Y-93416666D02*
X162295304Y-93369047D01*
X162295304Y-93369047D02*
X162200066Y-93273809D01*
X162200066Y-93273809D02*
X162152447Y-93130952D01*
X162152447Y-93130952D02*
X162152447Y-93035714D01*
X162152447Y-93035714D02*
X162200066Y-92892857D01*
X162200066Y-92892857D02*
X162247685Y-92845238D01*
X163152447Y-92416666D02*
X162152447Y-92416666D01*
X162152447Y-92416666D02*
X162152447Y-92178571D01*
X162152447Y-92178571D02*
X162200066Y-92035714D01*
X162200066Y-92035714D02*
X162295304Y-91940476D01*
X162295304Y-91940476D02*
X162390542Y-91892857D01*
X162390542Y-91892857D02*
X162581018Y-91845238D01*
X162581018Y-91845238D02*
X162723875Y-91845238D01*
X162723875Y-91845238D02*
X162914351Y-91892857D01*
X162914351Y-91892857D02*
X163009589Y-91940476D01*
X163009589Y-91940476D02*
X163104828Y-92035714D01*
X163104828Y-92035714D02*
X163152447Y-92178571D01*
X163152447Y-92178571D02*
X163152447Y-92416666D01*
X162485780Y-90988095D02*
X163152447Y-90988095D01*
X162104828Y-91226190D02*
X162819113Y-91464285D01*
X162819113Y-91464285D02*
X162819113Y-90845238D01*
X162152447Y-90273809D02*
X162152447Y-90178571D01*
X162152447Y-90178571D02*
X162200066Y-90083333D01*
X162200066Y-90083333D02*
X162247685Y-90035714D01*
X162247685Y-90035714D02*
X162342923Y-89988095D01*
X162342923Y-89988095D02*
X162533399Y-89940476D01*
X162533399Y-89940476D02*
X162771494Y-89940476D01*
X162771494Y-89940476D02*
X162961970Y-89988095D01*
X162961970Y-89988095D02*
X163057208Y-90035714D01*
X163057208Y-90035714D02*
X163104828Y-90083333D01*
X163104828Y-90083333D02*
X163152447Y-90178571D01*
X163152447Y-90178571D02*
X163152447Y-90273809D01*
X163152447Y-90273809D02*
X163104828Y-90369047D01*
X163104828Y-90369047D02*
X163057208Y-90416666D01*
X163057208Y-90416666D02*
X162961970Y-90464285D01*
X162961970Y-90464285D02*
X162771494Y-90511904D01*
X162771494Y-90511904D02*
X162533399Y-90511904D01*
X162533399Y-90511904D02*
X162342923Y-90464285D01*
X162342923Y-90464285D02*
X162247685Y-90416666D01*
X162247685Y-90416666D02*
X162200066Y-90369047D01*
X162200066Y-90369047D02*
X162152447Y-90273809D01*
X162152447Y-89607142D02*
X162152447Y-88940476D01*
X162152447Y-88940476D02*
X163152447Y-89369047D01*
X162152447Y-88654761D02*
X162152447Y-87988095D01*
X162152447Y-87988095D02*
X163152447Y-88416666D01*
X164857629Y-94130952D02*
X164810010Y-94226190D01*
X164810010Y-94226190D02*
X164714772Y-94321428D01*
X164714772Y-94321428D02*
X164571914Y-94464285D01*
X164571914Y-94464285D02*
X164524295Y-94559523D01*
X164524295Y-94559523D02*
X164524295Y-94654761D01*
X164762391Y-94607142D02*
X164714772Y-94702380D01*
X164714772Y-94702380D02*
X164619533Y-94797618D01*
X164619533Y-94797618D02*
X164429057Y-94845237D01*
X164429057Y-94845237D02*
X164095724Y-94845237D01*
X164095724Y-94845237D02*
X163905248Y-94797618D01*
X163905248Y-94797618D02*
X163810010Y-94702380D01*
X163810010Y-94702380D02*
X163762391Y-94607142D01*
X163762391Y-94607142D02*
X163762391Y-94416666D01*
X163762391Y-94416666D02*
X163810010Y-94321428D01*
X163810010Y-94321428D02*
X163905248Y-94226190D01*
X163905248Y-94226190D02*
X164095724Y-94178571D01*
X164095724Y-94178571D02*
X164429057Y-94178571D01*
X164429057Y-94178571D02*
X164619533Y-94226190D01*
X164619533Y-94226190D02*
X164714772Y-94321428D01*
X164714772Y-94321428D02*
X164762391Y-94416666D01*
X164762391Y-94416666D02*
X164762391Y-94607142D01*
X164095724Y-93321428D02*
X164762391Y-93321428D01*
X164095724Y-93749999D02*
X164619533Y-93749999D01*
X164619533Y-93749999D02*
X164714772Y-93702380D01*
X164714772Y-93702380D02*
X164762391Y-93607142D01*
X164762391Y-93607142D02*
X164762391Y-93464285D01*
X164762391Y-93464285D02*
X164714772Y-93369047D01*
X164714772Y-93369047D02*
X164667152Y-93321428D01*
X164762391Y-92416666D02*
X164238581Y-92416666D01*
X164238581Y-92416666D02*
X164143343Y-92464285D01*
X164143343Y-92464285D02*
X164095724Y-92559523D01*
X164095724Y-92559523D02*
X164095724Y-92749999D01*
X164095724Y-92749999D02*
X164143343Y-92845237D01*
X164714772Y-92416666D02*
X164762391Y-92511904D01*
X164762391Y-92511904D02*
X164762391Y-92749999D01*
X164762391Y-92749999D02*
X164714772Y-92845237D01*
X164714772Y-92845237D02*
X164619533Y-92892856D01*
X164619533Y-92892856D02*
X164524295Y-92892856D01*
X164524295Y-92892856D02*
X164429057Y-92845237D01*
X164429057Y-92845237D02*
X164381438Y-92749999D01*
X164381438Y-92749999D02*
X164381438Y-92511904D01*
X164381438Y-92511904D02*
X164333819Y-92416666D01*
X164762391Y-91511904D02*
X163762391Y-91511904D01*
X164714772Y-91511904D02*
X164762391Y-91607142D01*
X164762391Y-91607142D02*
X164762391Y-91797618D01*
X164762391Y-91797618D02*
X164714772Y-91892856D01*
X164714772Y-91892856D02*
X164667152Y-91940475D01*
X164667152Y-91940475D02*
X164571914Y-91988094D01*
X164571914Y-91988094D02*
X164286200Y-91988094D01*
X164286200Y-91988094D02*
X164190962Y-91940475D01*
X164190962Y-91940475D02*
X164143343Y-91892856D01*
X164143343Y-91892856D02*
X164095724Y-91797618D01*
X164095724Y-91797618D02*
X164095724Y-91607142D01*
X164095724Y-91607142D02*
X164143343Y-91511904D01*
X164762391Y-90273808D02*
X163762391Y-90273808D01*
X163762391Y-90273808D02*
X164762391Y-89702380D01*
X164762391Y-89702380D02*
X163762391Y-89702380D01*
X163762391Y-89321427D02*
X164762391Y-88654761D01*
X163762391Y-88654761D02*
X164762391Y-89321427D01*
X163762391Y-88083332D02*
X163762391Y-87892856D01*
X163762391Y-87892856D02*
X163810010Y-87797618D01*
X163810010Y-87797618D02*
X163905248Y-87702380D01*
X163905248Y-87702380D02*
X164095724Y-87654761D01*
X164095724Y-87654761D02*
X164429057Y-87654761D01*
X164429057Y-87654761D02*
X164619533Y-87702380D01*
X164619533Y-87702380D02*
X164714772Y-87797618D01*
X164714772Y-87797618D02*
X164762391Y-87892856D01*
X164762391Y-87892856D02*
X164762391Y-88083332D01*
X164762391Y-88083332D02*
X164714772Y-88178570D01*
X164714772Y-88178570D02*
X164619533Y-88273808D01*
X164619533Y-88273808D02*
X164429057Y-88321427D01*
X164429057Y-88321427D02*
X164095724Y-88321427D01*
X164095724Y-88321427D02*
X163905248Y-88273808D01*
X163905248Y-88273808D02*
X163810010Y-88178570D01*
X163810010Y-88178570D02*
X163762391Y-88083332D01*
X164762391Y-86654761D02*
X164286200Y-86988094D01*
X164762391Y-87226189D02*
X163762391Y-87226189D01*
X163762391Y-87226189D02*
X163762391Y-86845237D01*
X163762391Y-86845237D02*
X163810010Y-86749999D01*
X163810010Y-86749999D02*
X163857629Y-86702380D01*
X163857629Y-86702380D02*
X163952867Y-86654761D01*
X163952867Y-86654761D02*
X164095724Y-86654761D01*
X164095724Y-86654761D02*
X164190962Y-86702380D01*
X164190962Y-86702380D02*
X164238581Y-86749999D01*
X164238581Y-86749999D02*
X164286200Y-86845237D01*
X164286200Y-86845237D02*
X164286200Y-87226189D01*
X147157208Y-92795238D02*
X147204828Y-92842857D01*
X147204828Y-92842857D02*
X147252447Y-92985714D01*
X147252447Y-92985714D02*
X147252447Y-93080952D01*
X147252447Y-93080952D02*
X147204828Y-93223809D01*
X147204828Y-93223809D02*
X147109589Y-93319047D01*
X147109589Y-93319047D02*
X147014351Y-93366666D01*
X147014351Y-93366666D02*
X146823875Y-93414285D01*
X146823875Y-93414285D02*
X146681018Y-93414285D01*
X146681018Y-93414285D02*
X146490542Y-93366666D01*
X146490542Y-93366666D02*
X146395304Y-93319047D01*
X146395304Y-93319047D02*
X146300066Y-93223809D01*
X146300066Y-93223809D02*
X146252447Y-93080952D01*
X146252447Y-93080952D02*
X146252447Y-92985714D01*
X146252447Y-92985714D02*
X146300066Y-92842857D01*
X146300066Y-92842857D02*
X146347685Y-92795238D01*
X147252447Y-92366666D02*
X146252447Y-92366666D01*
X146252447Y-92366666D02*
X146252447Y-92128571D01*
X146252447Y-92128571D02*
X146300066Y-91985714D01*
X146300066Y-91985714D02*
X146395304Y-91890476D01*
X146395304Y-91890476D02*
X146490542Y-91842857D01*
X146490542Y-91842857D02*
X146681018Y-91795238D01*
X146681018Y-91795238D02*
X146823875Y-91795238D01*
X146823875Y-91795238D02*
X147014351Y-91842857D01*
X147014351Y-91842857D02*
X147109589Y-91890476D01*
X147109589Y-91890476D02*
X147204828Y-91985714D01*
X147204828Y-91985714D02*
X147252447Y-92128571D01*
X147252447Y-92128571D02*
X147252447Y-92366666D01*
X146585780Y-90938095D02*
X147252447Y-90938095D01*
X146204828Y-91176190D02*
X146919113Y-91414285D01*
X146919113Y-91414285D02*
X146919113Y-90795238D01*
X146252447Y-90223809D02*
X146252447Y-90128571D01*
X146252447Y-90128571D02*
X146300066Y-90033333D01*
X146300066Y-90033333D02*
X146347685Y-89985714D01*
X146347685Y-89985714D02*
X146442923Y-89938095D01*
X146442923Y-89938095D02*
X146633399Y-89890476D01*
X146633399Y-89890476D02*
X146871494Y-89890476D01*
X146871494Y-89890476D02*
X147061970Y-89938095D01*
X147061970Y-89938095D02*
X147157208Y-89985714D01*
X147157208Y-89985714D02*
X147204828Y-90033333D01*
X147204828Y-90033333D02*
X147252447Y-90128571D01*
X147252447Y-90128571D02*
X147252447Y-90223809D01*
X147252447Y-90223809D02*
X147204828Y-90319047D01*
X147204828Y-90319047D02*
X147157208Y-90366666D01*
X147157208Y-90366666D02*
X147061970Y-90414285D01*
X147061970Y-90414285D02*
X146871494Y-90461904D01*
X146871494Y-90461904D02*
X146633399Y-90461904D01*
X146633399Y-90461904D02*
X146442923Y-90414285D01*
X146442923Y-90414285D02*
X146347685Y-90366666D01*
X146347685Y-90366666D02*
X146300066Y-90319047D01*
X146300066Y-90319047D02*
X146252447Y-90223809D01*
X146681018Y-89319047D02*
X146633399Y-89414285D01*
X146633399Y-89414285D02*
X146585780Y-89461904D01*
X146585780Y-89461904D02*
X146490542Y-89509523D01*
X146490542Y-89509523D02*
X146442923Y-89509523D01*
X146442923Y-89509523D02*
X146347685Y-89461904D01*
X146347685Y-89461904D02*
X146300066Y-89414285D01*
X146300066Y-89414285D02*
X146252447Y-89319047D01*
X146252447Y-89319047D02*
X146252447Y-89128571D01*
X146252447Y-89128571D02*
X146300066Y-89033333D01*
X146300066Y-89033333D02*
X146347685Y-88985714D01*
X146347685Y-88985714D02*
X146442923Y-88938095D01*
X146442923Y-88938095D02*
X146490542Y-88938095D01*
X146490542Y-88938095D02*
X146585780Y-88985714D01*
X146585780Y-88985714D02*
X146633399Y-89033333D01*
X146633399Y-89033333D02*
X146681018Y-89128571D01*
X146681018Y-89128571D02*
X146681018Y-89319047D01*
X146681018Y-89319047D02*
X146728637Y-89414285D01*
X146728637Y-89414285D02*
X146776256Y-89461904D01*
X146776256Y-89461904D02*
X146871494Y-89509523D01*
X146871494Y-89509523D02*
X147061970Y-89509523D01*
X147061970Y-89509523D02*
X147157208Y-89461904D01*
X147157208Y-89461904D02*
X147204828Y-89414285D01*
X147204828Y-89414285D02*
X147252447Y-89319047D01*
X147252447Y-89319047D02*
X147252447Y-89128571D01*
X147252447Y-89128571D02*
X147204828Y-89033333D01*
X147204828Y-89033333D02*
X147157208Y-88985714D01*
X147157208Y-88985714D02*
X147061970Y-88938095D01*
X147061970Y-88938095D02*
X146871494Y-88938095D01*
X146871494Y-88938095D02*
X146776256Y-88985714D01*
X146776256Y-88985714D02*
X146728637Y-89033333D01*
X146728637Y-89033333D02*
X146681018Y-89128571D01*
X147252447Y-87985714D02*
X147252447Y-88557142D01*
X147252447Y-88271428D02*
X146252447Y-88271428D01*
X146252447Y-88271428D02*
X146395304Y-88366666D01*
X146395304Y-88366666D02*
X146490542Y-88461904D01*
X146490542Y-88461904D02*
X146538161Y-88557142D01*
X148957629Y-93509524D02*
X148910010Y-93604762D01*
X148910010Y-93604762D02*
X148814772Y-93700000D01*
X148814772Y-93700000D02*
X148671914Y-93842857D01*
X148671914Y-93842857D02*
X148624295Y-93938095D01*
X148624295Y-93938095D02*
X148624295Y-94033333D01*
X148862391Y-93985714D02*
X148814772Y-94080952D01*
X148814772Y-94080952D02*
X148719533Y-94176190D01*
X148719533Y-94176190D02*
X148529057Y-94223809D01*
X148529057Y-94223809D02*
X148195724Y-94223809D01*
X148195724Y-94223809D02*
X148005248Y-94176190D01*
X148005248Y-94176190D02*
X147910010Y-94080952D01*
X147910010Y-94080952D02*
X147862391Y-93985714D01*
X147862391Y-93985714D02*
X147862391Y-93795238D01*
X147862391Y-93795238D02*
X147910010Y-93700000D01*
X147910010Y-93700000D02*
X148005248Y-93604762D01*
X148005248Y-93604762D02*
X148195724Y-93557143D01*
X148195724Y-93557143D02*
X148529057Y-93557143D01*
X148529057Y-93557143D02*
X148719533Y-93604762D01*
X148719533Y-93604762D02*
X148814772Y-93700000D01*
X148814772Y-93700000D02*
X148862391Y-93795238D01*
X148862391Y-93795238D02*
X148862391Y-93985714D01*
X148195724Y-92700000D02*
X148862391Y-92700000D01*
X148195724Y-93128571D02*
X148719533Y-93128571D01*
X148719533Y-93128571D02*
X148814772Y-93080952D01*
X148814772Y-93080952D02*
X148862391Y-92985714D01*
X148862391Y-92985714D02*
X148862391Y-92842857D01*
X148862391Y-92842857D02*
X148814772Y-92747619D01*
X148814772Y-92747619D02*
X148767152Y-92700000D01*
X148862391Y-91795238D02*
X148338581Y-91795238D01*
X148338581Y-91795238D02*
X148243343Y-91842857D01*
X148243343Y-91842857D02*
X148195724Y-91938095D01*
X148195724Y-91938095D02*
X148195724Y-92128571D01*
X148195724Y-92128571D02*
X148243343Y-92223809D01*
X148814772Y-91795238D02*
X148862391Y-91890476D01*
X148862391Y-91890476D02*
X148862391Y-92128571D01*
X148862391Y-92128571D02*
X148814772Y-92223809D01*
X148814772Y-92223809D02*
X148719533Y-92271428D01*
X148719533Y-92271428D02*
X148624295Y-92271428D01*
X148624295Y-92271428D02*
X148529057Y-92223809D01*
X148529057Y-92223809D02*
X148481438Y-92128571D01*
X148481438Y-92128571D02*
X148481438Y-91890476D01*
X148481438Y-91890476D02*
X148433819Y-91795238D01*
X148862391Y-90890476D02*
X147862391Y-90890476D01*
X148814772Y-90890476D02*
X148862391Y-90985714D01*
X148862391Y-90985714D02*
X148862391Y-91176190D01*
X148862391Y-91176190D02*
X148814772Y-91271428D01*
X148814772Y-91271428D02*
X148767152Y-91319047D01*
X148767152Y-91319047D02*
X148671914Y-91366666D01*
X148671914Y-91366666D02*
X148386200Y-91366666D01*
X148386200Y-91366666D02*
X148290962Y-91319047D01*
X148290962Y-91319047D02*
X148243343Y-91271428D01*
X148243343Y-91271428D02*
X148195724Y-91176190D01*
X148195724Y-91176190D02*
X148195724Y-90985714D01*
X148195724Y-90985714D02*
X148243343Y-90890476D01*
X148576676Y-89699999D02*
X148576676Y-89223809D01*
X148862391Y-89795237D02*
X147862391Y-89461904D01*
X147862391Y-89461904D02*
X148862391Y-89128571D01*
X148862391Y-88795237D02*
X147862391Y-88795237D01*
X147862391Y-88795237D02*
X148862391Y-88223809D01*
X148862391Y-88223809D02*
X147862391Y-88223809D01*
X148862391Y-87747618D02*
X147862391Y-87747618D01*
X147862391Y-87747618D02*
X147862391Y-87509523D01*
X147862391Y-87509523D02*
X147910010Y-87366666D01*
X147910010Y-87366666D02*
X148005248Y-87271428D01*
X148005248Y-87271428D02*
X148100486Y-87223809D01*
X148100486Y-87223809D02*
X148290962Y-87176190D01*
X148290962Y-87176190D02*
X148433819Y-87176190D01*
X148433819Y-87176190D02*
X148624295Y-87223809D01*
X148624295Y-87223809D02*
X148719533Y-87271428D01*
X148719533Y-87271428D02*
X148814772Y-87366666D01*
X148814772Y-87366666D02*
X148862391Y-87509523D01*
X148862391Y-87509523D02*
X148862391Y-87747618D01*
X177557208Y-111345238D02*
X177604828Y-111392857D01*
X177604828Y-111392857D02*
X177652447Y-111535714D01*
X177652447Y-111535714D02*
X177652447Y-111630952D01*
X177652447Y-111630952D02*
X177604828Y-111773809D01*
X177604828Y-111773809D02*
X177509589Y-111869047D01*
X177509589Y-111869047D02*
X177414351Y-111916666D01*
X177414351Y-111916666D02*
X177223875Y-111964285D01*
X177223875Y-111964285D02*
X177081018Y-111964285D01*
X177081018Y-111964285D02*
X176890542Y-111916666D01*
X176890542Y-111916666D02*
X176795304Y-111869047D01*
X176795304Y-111869047D02*
X176700066Y-111773809D01*
X176700066Y-111773809D02*
X176652447Y-111630952D01*
X176652447Y-111630952D02*
X176652447Y-111535714D01*
X176652447Y-111535714D02*
X176700066Y-111392857D01*
X176700066Y-111392857D02*
X176747685Y-111345238D01*
X177652447Y-110916666D02*
X176652447Y-110916666D01*
X176652447Y-110916666D02*
X176652447Y-110678571D01*
X176652447Y-110678571D02*
X176700066Y-110535714D01*
X176700066Y-110535714D02*
X176795304Y-110440476D01*
X176795304Y-110440476D02*
X176890542Y-110392857D01*
X176890542Y-110392857D02*
X177081018Y-110345238D01*
X177081018Y-110345238D02*
X177223875Y-110345238D01*
X177223875Y-110345238D02*
X177414351Y-110392857D01*
X177414351Y-110392857D02*
X177509589Y-110440476D01*
X177509589Y-110440476D02*
X177604828Y-110535714D01*
X177604828Y-110535714D02*
X177652447Y-110678571D01*
X177652447Y-110678571D02*
X177652447Y-110916666D01*
X176985780Y-109488095D02*
X177652447Y-109488095D01*
X176604828Y-109726190D02*
X177319113Y-109964285D01*
X177319113Y-109964285D02*
X177319113Y-109345238D01*
X176652447Y-108773809D02*
X176652447Y-108678571D01*
X176652447Y-108678571D02*
X176700066Y-108583333D01*
X176700066Y-108583333D02*
X176747685Y-108535714D01*
X176747685Y-108535714D02*
X176842923Y-108488095D01*
X176842923Y-108488095D02*
X177033399Y-108440476D01*
X177033399Y-108440476D02*
X177271494Y-108440476D01*
X177271494Y-108440476D02*
X177461970Y-108488095D01*
X177461970Y-108488095D02*
X177557208Y-108535714D01*
X177557208Y-108535714D02*
X177604828Y-108583333D01*
X177604828Y-108583333D02*
X177652447Y-108678571D01*
X177652447Y-108678571D02*
X177652447Y-108773809D01*
X177652447Y-108773809D02*
X177604828Y-108869047D01*
X177604828Y-108869047D02*
X177557208Y-108916666D01*
X177557208Y-108916666D02*
X177461970Y-108964285D01*
X177461970Y-108964285D02*
X177271494Y-109011904D01*
X177271494Y-109011904D02*
X177033399Y-109011904D01*
X177033399Y-109011904D02*
X176842923Y-108964285D01*
X176842923Y-108964285D02*
X176747685Y-108916666D01*
X176747685Y-108916666D02*
X176700066Y-108869047D01*
X176700066Y-108869047D02*
X176652447Y-108773809D01*
X177081018Y-107869047D02*
X177033399Y-107964285D01*
X177033399Y-107964285D02*
X176985780Y-108011904D01*
X176985780Y-108011904D02*
X176890542Y-108059523D01*
X176890542Y-108059523D02*
X176842923Y-108059523D01*
X176842923Y-108059523D02*
X176747685Y-108011904D01*
X176747685Y-108011904D02*
X176700066Y-107964285D01*
X176700066Y-107964285D02*
X176652447Y-107869047D01*
X176652447Y-107869047D02*
X176652447Y-107678571D01*
X176652447Y-107678571D02*
X176700066Y-107583333D01*
X176700066Y-107583333D02*
X176747685Y-107535714D01*
X176747685Y-107535714D02*
X176842923Y-107488095D01*
X176842923Y-107488095D02*
X176890542Y-107488095D01*
X176890542Y-107488095D02*
X176985780Y-107535714D01*
X176985780Y-107535714D02*
X177033399Y-107583333D01*
X177033399Y-107583333D02*
X177081018Y-107678571D01*
X177081018Y-107678571D02*
X177081018Y-107869047D01*
X177081018Y-107869047D02*
X177128637Y-107964285D01*
X177128637Y-107964285D02*
X177176256Y-108011904D01*
X177176256Y-108011904D02*
X177271494Y-108059523D01*
X177271494Y-108059523D02*
X177461970Y-108059523D01*
X177461970Y-108059523D02*
X177557208Y-108011904D01*
X177557208Y-108011904D02*
X177604828Y-107964285D01*
X177604828Y-107964285D02*
X177652447Y-107869047D01*
X177652447Y-107869047D02*
X177652447Y-107678571D01*
X177652447Y-107678571D02*
X177604828Y-107583333D01*
X177604828Y-107583333D02*
X177557208Y-107535714D01*
X177557208Y-107535714D02*
X177461970Y-107488095D01*
X177461970Y-107488095D02*
X177271494Y-107488095D01*
X177271494Y-107488095D02*
X177176256Y-107535714D01*
X177176256Y-107535714D02*
X177128637Y-107583333D01*
X177128637Y-107583333D02*
X177081018Y-107678571D01*
X177652447Y-106535714D02*
X177652447Y-107107142D01*
X177652447Y-106821428D02*
X176652447Y-106821428D01*
X176652447Y-106821428D02*
X176795304Y-106916666D01*
X176795304Y-106916666D02*
X176890542Y-107011904D01*
X176890542Y-107011904D02*
X176938161Y-107107142D01*
X179357629Y-112059524D02*
X179310010Y-112154762D01*
X179310010Y-112154762D02*
X179214772Y-112250000D01*
X179214772Y-112250000D02*
X179071914Y-112392857D01*
X179071914Y-112392857D02*
X179024295Y-112488095D01*
X179024295Y-112488095D02*
X179024295Y-112583333D01*
X179262391Y-112535714D02*
X179214772Y-112630952D01*
X179214772Y-112630952D02*
X179119533Y-112726190D01*
X179119533Y-112726190D02*
X178929057Y-112773809D01*
X178929057Y-112773809D02*
X178595724Y-112773809D01*
X178595724Y-112773809D02*
X178405248Y-112726190D01*
X178405248Y-112726190D02*
X178310010Y-112630952D01*
X178310010Y-112630952D02*
X178262391Y-112535714D01*
X178262391Y-112535714D02*
X178262391Y-112345238D01*
X178262391Y-112345238D02*
X178310010Y-112250000D01*
X178310010Y-112250000D02*
X178405248Y-112154762D01*
X178405248Y-112154762D02*
X178595724Y-112107143D01*
X178595724Y-112107143D02*
X178929057Y-112107143D01*
X178929057Y-112107143D02*
X179119533Y-112154762D01*
X179119533Y-112154762D02*
X179214772Y-112250000D01*
X179214772Y-112250000D02*
X179262391Y-112345238D01*
X179262391Y-112345238D02*
X179262391Y-112535714D01*
X178595724Y-111250000D02*
X179262391Y-111250000D01*
X178595724Y-111678571D02*
X179119533Y-111678571D01*
X179119533Y-111678571D02*
X179214772Y-111630952D01*
X179214772Y-111630952D02*
X179262391Y-111535714D01*
X179262391Y-111535714D02*
X179262391Y-111392857D01*
X179262391Y-111392857D02*
X179214772Y-111297619D01*
X179214772Y-111297619D02*
X179167152Y-111250000D01*
X179262391Y-110345238D02*
X178738581Y-110345238D01*
X178738581Y-110345238D02*
X178643343Y-110392857D01*
X178643343Y-110392857D02*
X178595724Y-110488095D01*
X178595724Y-110488095D02*
X178595724Y-110678571D01*
X178595724Y-110678571D02*
X178643343Y-110773809D01*
X179214772Y-110345238D02*
X179262391Y-110440476D01*
X179262391Y-110440476D02*
X179262391Y-110678571D01*
X179262391Y-110678571D02*
X179214772Y-110773809D01*
X179214772Y-110773809D02*
X179119533Y-110821428D01*
X179119533Y-110821428D02*
X179024295Y-110821428D01*
X179024295Y-110821428D02*
X178929057Y-110773809D01*
X178929057Y-110773809D02*
X178881438Y-110678571D01*
X178881438Y-110678571D02*
X178881438Y-110440476D01*
X178881438Y-110440476D02*
X178833819Y-110345238D01*
X179262391Y-109440476D02*
X178262391Y-109440476D01*
X179214772Y-109440476D02*
X179262391Y-109535714D01*
X179262391Y-109535714D02*
X179262391Y-109726190D01*
X179262391Y-109726190D02*
X179214772Y-109821428D01*
X179214772Y-109821428D02*
X179167152Y-109869047D01*
X179167152Y-109869047D02*
X179071914Y-109916666D01*
X179071914Y-109916666D02*
X178786200Y-109916666D01*
X178786200Y-109916666D02*
X178690962Y-109869047D01*
X178690962Y-109869047D02*
X178643343Y-109821428D01*
X178643343Y-109821428D02*
X178595724Y-109726190D01*
X178595724Y-109726190D02*
X178595724Y-109535714D01*
X178595724Y-109535714D02*
X178643343Y-109440476D01*
X178976676Y-108249999D02*
X178976676Y-107773809D01*
X179262391Y-108345237D02*
X178262391Y-108011904D01*
X178262391Y-108011904D02*
X179262391Y-107678571D01*
X179262391Y-107345237D02*
X178262391Y-107345237D01*
X178262391Y-107345237D02*
X179262391Y-106773809D01*
X179262391Y-106773809D02*
X178262391Y-106773809D01*
X179262391Y-106297618D02*
X178262391Y-106297618D01*
X178262391Y-106297618D02*
X178262391Y-106059523D01*
X178262391Y-106059523D02*
X178310010Y-105916666D01*
X178310010Y-105916666D02*
X178405248Y-105821428D01*
X178405248Y-105821428D02*
X178500486Y-105773809D01*
X178500486Y-105773809D02*
X178690962Y-105726190D01*
X178690962Y-105726190D02*
X178833819Y-105726190D01*
X178833819Y-105726190D02*
X179024295Y-105773809D01*
X179024295Y-105773809D02*
X179119533Y-105821428D01*
X179119533Y-105821428D02*
X179214772Y-105916666D01*
X179214772Y-105916666D02*
X179262391Y-106059523D01*
X179262391Y-106059523D02*
X179262391Y-106297618D01*
D12*
X150626553Y-119841228D02*
X150293220Y-120074561D01*
X150626553Y-120241228D02*
X149926553Y-120241228D01*
X149926553Y-120241228D02*
X149926553Y-119974561D01*
X149926553Y-119974561D02*
X149959886Y-119907895D01*
X149959886Y-119907895D02*
X149993220Y-119874561D01*
X149993220Y-119874561D02*
X150059886Y-119841228D01*
X150059886Y-119841228D02*
X150159886Y-119841228D01*
X150159886Y-119841228D02*
X150226553Y-119874561D01*
X150226553Y-119874561D02*
X150259886Y-119907895D01*
X150259886Y-119907895D02*
X150293220Y-119974561D01*
X150293220Y-119974561D02*
X150293220Y-120241228D01*
X150593220Y-119274561D02*
X150626553Y-119341228D01*
X150626553Y-119341228D02*
X150626553Y-119474561D01*
X150626553Y-119474561D02*
X150593220Y-119541228D01*
X150593220Y-119541228D02*
X150526553Y-119574561D01*
X150526553Y-119574561D02*
X150259886Y-119574561D01*
X150259886Y-119574561D02*
X150193220Y-119541228D01*
X150193220Y-119541228D02*
X150159886Y-119474561D01*
X150159886Y-119474561D02*
X150159886Y-119341228D01*
X150159886Y-119341228D02*
X150193220Y-119274561D01*
X150193220Y-119274561D02*
X150259886Y-119241228D01*
X150259886Y-119241228D02*
X150326553Y-119241228D01*
X150326553Y-119241228D02*
X150393220Y-119574561D01*
X150159886Y-118641228D02*
X150726553Y-118641228D01*
X150726553Y-118641228D02*
X150793220Y-118674561D01*
X150793220Y-118674561D02*
X150826553Y-118707895D01*
X150826553Y-118707895D02*
X150859886Y-118774561D01*
X150859886Y-118774561D02*
X150859886Y-118874561D01*
X150859886Y-118874561D02*
X150826553Y-118941228D01*
X150593220Y-118641228D02*
X150626553Y-118707895D01*
X150626553Y-118707895D02*
X150626553Y-118841228D01*
X150626553Y-118841228D02*
X150593220Y-118907895D01*
X150593220Y-118907895D02*
X150559886Y-118941228D01*
X150559886Y-118941228D02*
X150493220Y-118974561D01*
X150493220Y-118974561D02*
X150293220Y-118974561D01*
X150293220Y-118974561D02*
X150226553Y-118941228D01*
X150226553Y-118941228D02*
X150193220Y-118907895D01*
X150193220Y-118907895D02*
X150159886Y-118841228D01*
X150159886Y-118841228D02*
X150159886Y-118707895D01*
X150159886Y-118707895D02*
X150193220Y-118641228D01*
X150593220Y-118341228D02*
X150626553Y-118241228D01*
X150626553Y-118241228D02*
X150626553Y-118074562D01*
X150626553Y-118074562D02*
X150593220Y-118007895D01*
X150593220Y-118007895D02*
X150559886Y-117974562D01*
X150559886Y-117974562D02*
X150493220Y-117941228D01*
X150493220Y-117941228D02*
X150426553Y-117941228D01*
X150426553Y-117941228D02*
X150359886Y-117974562D01*
X150359886Y-117974562D02*
X150326553Y-118007895D01*
X150326553Y-118007895D02*
X150293220Y-118074562D01*
X150293220Y-118074562D02*
X150259886Y-118207895D01*
X150259886Y-118207895D02*
X150226553Y-118274562D01*
X150226553Y-118274562D02*
X150193220Y-118307895D01*
X150193220Y-118307895D02*
X150126553Y-118341228D01*
X150126553Y-118341228D02*
X150059886Y-118341228D01*
X150059886Y-118341228D02*
X149993220Y-118307895D01*
X149993220Y-118307895D02*
X149959886Y-118274562D01*
X149959886Y-118274562D02*
X149926553Y-118207895D01*
X149926553Y-118207895D02*
X149926553Y-118041228D01*
X149926553Y-118041228D02*
X149959886Y-117941228D01*
X150626553Y-117641228D02*
X150159886Y-117641228D01*
X150293220Y-117641228D02*
X150226553Y-117607895D01*
X150226553Y-117607895D02*
X150193220Y-117574561D01*
X150193220Y-117574561D02*
X150159886Y-117507895D01*
X150159886Y-117507895D02*
X150159886Y-117441228D01*
X150593220Y-116907895D02*
X150626553Y-116974562D01*
X150626553Y-116974562D02*
X150626553Y-117107895D01*
X150626553Y-117107895D02*
X150593220Y-117174562D01*
X150593220Y-117174562D02*
X150559886Y-117207895D01*
X150559886Y-117207895D02*
X150493220Y-117241228D01*
X150493220Y-117241228D02*
X150293220Y-117241228D01*
X150293220Y-117241228D02*
X150226553Y-117207895D01*
X150226553Y-117207895D02*
X150193220Y-117174562D01*
X150193220Y-117174562D02*
X150159886Y-117107895D01*
X150159886Y-117107895D02*
X150159886Y-116974562D01*
X150159886Y-116974562D02*
X150193220Y-116907895D01*
X149926553Y-116474562D02*
X149926553Y-116407895D01*
X149926553Y-116407895D02*
X149959886Y-116341228D01*
X149959886Y-116341228D02*
X149993220Y-116307895D01*
X149993220Y-116307895D02*
X150059886Y-116274562D01*
X150059886Y-116274562D02*
X150193220Y-116241228D01*
X150193220Y-116241228D02*
X150359886Y-116241228D01*
X150359886Y-116241228D02*
X150493220Y-116274562D01*
X150493220Y-116274562D02*
X150559886Y-116307895D01*
X150559886Y-116307895D02*
X150593220Y-116341228D01*
X150593220Y-116341228D02*
X150626553Y-116407895D01*
X150626553Y-116407895D02*
X150626553Y-116474562D01*
X150626553Y-116474562D02*
X150593220Y-116541228D01*
X150593220Y-116541228D02*
X150559886Y-116574562D01*
X150559886Y-116574562D02*
X150493220Y-116607895D01*
X150493220Y-116607895D02*
X150359886Y-116641228D01*
X150359886Y-116641228D02*
X150193220Y-116641228D01*
X150193220Y-116641228D02*
X150059886Y-116607895D01*
X150059886Y-116607895D02*
X149993220Y-116574562D01*
X149993220Y-116574562D02*
X149959886Y-116541228D01*
X149959886Y-116541228D02*
X149926553Y-116474562D01*
D10*
X147057208Y-111345238D02*
X147104828Y-111392857D01*
X147104828Y-111392857D02*
X147152447Y-111535714D01*
X147152447Y-111535714D02*
X147152447Y-111630952D01*
X147152447Y-111630952D02*
X147104828Y-111773809D01*
X147104828Y-111773809D02*
X147009589Y-111869047D01*
X147009589Y-111869047D02*
X146914351Y-111916666D01*
X146914351Y-111916666D02*
X146723875Y-111964285D01*
X146723875Y-111964285D02*
X146581018Y-111964285D01*
X146581018Y-111964285D02*
X146390542Y-111916666D01*
X146390542Y-111916666D02*
X146295304Y-111869047D01*
X146295304Y-111869047D02*
X146200066Y-111773809D01*
X146200066Y-111773809D02*
X146152447Y-111630952D01*
X146152447Y-111630952D02*
X146152447Y-111535714D01*
X146152447Y-111535714D02*
X146200066Y-111392857D01*
X146200066Y-111392857D02*
X146247685Y-111345238D01*
X147152447Y-110916666D02*
X146152447Y-110916666D01*
X146152447Y-110916666D02*
X146152447Y-110678571D01*
X146152447Y-110678571D02*
X146200066Y-110535714D01*
X146200066Y-110535714D02*
X146295304Y-110440476D01*
X146295304Y-110440476D02*
X146390542Y-110392857D01*
X146390542Y-110392857D02*
X146581018Y-110345238D01*
X146581018Y-110345238D02*
X146723875Y-110345238D01*
X146723875Y-110345238D02*
X146914351Y-110392857D01*
X146914351Y-110392857D02*
X147009589Y-110440476D01*
X147009589Y-110440476D02*
X147104828Y-110535714D01*
X147104828Y-110535714D02*
X147152447Y-110678571D01*
X147152447Y-110678571D02*
X147152447Y-110916666D01*
X146485780Y-109488095D02*
X147152447Y-109488095D01*
X146104828Y-109726190D02*
X146819113Y-109964285D01*
X146819113Y-109964285D02*
X146819113Y-109345238D01*
X146152447Y-108773809D02*
X146152447Y-108678571D01*
X146152447Y-108678571D02*
X146200066Y-108583333D01*
X146200066Y-108583333D02*
X146247685Y-108535714D01*
X146247685Y-108535714D02*
X146342923Y-108488095D01*
X146342923Y-108488095D02*
X146533399Y-108440476D01*
X146533399Y-108440476D02*
X146771494Y-108440476D01*
X146771494Y-108440476D02*
X146961970Y-108488095D01*
X146961970Y-108488095D02*
X147057208Y-108535714D01*
X147057208Y-108535714D02*
X147104828Y-108583333D01*
X147104828Y-108583333D02*
X147152447Y-108678571D01*
X147152447Y-108678571D02*
X147152447Y-108773809D01*
X147152447Y-108773809D02*
X147104828Y-108869047D01*
X147104828Y-108869047D02*
X147057208Y-108916666D01*
X147057208Y-108916666D02*
X146961970Y-108964285D01*
X146961970Y-108964285D02*
X146771494Y-109011904D01*
X146771494Y-109011904D02*
X146533399Y-109011904D01*
X146533399Y-109011904D02*
X146342923Y-108964285D01*
X146342923Y-108964285D02*
X146247685Y-108916666D01*
X146247685Y-108916666D02*
X146200066Y-108869047D01*
X146200066Y-108869047D02*
X146152447Y-108773809D01*
X146581018Y-107869047D02*
X146533399Y-107964285D01*
X146533399Y-107964285D02*
X146485780Y-108011904D01*
X146485780Y-108011904D02*
X146390542Y-108059523D01*
X146390542Y-108059523D02*
X146342923Y-108059523D01*
X146342923Y-108059523D02*
X146247685Y-108011904D01*
X146247685Y-108011904D02*
X146200066Y-107964285D01*
X146200066Y-107964285D02*
X146152447Y-107869047D01*
X146152447Y-107869047D02*
X146152447Y-107678571D01*
X146152447Y-107678571D02*
X146200066Y-107583333D01*
X146200066Y-107583333D02*
X146247685Y-107535714D01*
X146247685Y-107535714D02*
X146342923Y-107488095D01*
X146342923Y-107488095D02*
X146390542Y-107488095D01*
X146390542Y-107488095D02*
X146485780Y-107535714D01*
X146485780Y-107535714D02*
X146533399Y-107583333D01*
X146533399Y-107583333D02*
X146581018Y-107678571D01*
X146581018Y-107678571D02*
X146581018Y-107869047D01*
X146581018Y-107869047D02*
X146628637Y-107964285D01*
X146628637Y-107964285D02*
X146676256Y-108011904D01*
X146676256Y-108011904D02*
X146771494Y-108059523D01*
X146771494Y-108059523D02*
X146961970Y-108059523D01*
X146961970Y-108059523D02*
X147057208Y-108011904D01*
X147057208Y-108011904D02*
X147104828Y-107964285D01*
X147104828Y-107964285D02*
X147152447Y-107869047D01*
X147152447Y-107869047D02*
X147152447Y-107678571D01*
X147152447Y-107678571D02*
X147104828Y-107583333D01*
X147104828Y-107583333D02*
X147057208Y-107535714D01*
X147057208Y-107535714D02*
X146961970Y-107488095D01*
X146961970Y-107488095D02*
X146771494Y-107488095D01*
X146771494Y-107488095D02*
X146676256Y-107535714D01*
X146676256Y-107535714D02*
X146628637Y-107583333D01*
X146628637Y-107583333D02*
X146581018Y-107678571D01*
X147152447Y-106535714D02*
X147152447Y-107107142D01*
X147152447Y-106821428D02*
X146152447Y-106821428D01*
X146152447Y-106821428D02*
X146295304Y-106916666D01*
X146295304Y-106916666D02*
X146390542Y-107011904D01*
X146390542Y-107011904D02*
X146438161Y-107107142D01*
X148857629Y-112059524D02*
X148810010Y-112154762D01*
X148810010Y-112154762D02*
X148714772Y-112250000D01*
X148714772Y-112250000D02*
X148571914Y-112392857D01*
X148571914Y-112392857D02*
X148524295Y-112488095D01*
X148524295Y-112488095D02*
X148524295Y-112583333D01*
X148762391Y-112535714D02*
X148714772Y-112630952D01*
X148714772Y-112630952D02*
X148619533Y-112726190D01*
X148619533Y-112726190D02*
X148429057Y-112773809D01*
X148429057Y-112773809D02*
X148095724Y-112773809D01*
X148095724Y-112773809D02*
X147905248Y-112726190D01*
X147905248Y-112726190D02*
X147810010Y-112630952D01*
X147810010Y-112630952D02*
X147762391Y-112535714D01*
X147762391Y-112535714D02*
X147762391Y-112345238D01*
X147762391Y-112345238D02*
X147810010Y-112250000D01*
X147810010Y-112250000D02*
X147905248Y-112154762D01*
X147905248Y-112154762D02*
X148095724Y-112107143D01*
X148095724Y-112107143D02*
X148429057Y-112107143D01*
X148429057Y-112107143D02*
X148619533Y-112154762D01*
X148619533Y-112154762D02*
X148714772Y-112250000D01*
X148714772Y-112250000D02*
X148762391Y-112345238D01*
X148762391Y-112345238D02*
X148762391Y-112535714D01*
X148095724Y-111250000D02*
X148762391Y-111250000D01*
X148095724Y-111678571D02*
X148619533Y-111678571D01*
X148619533Y-111678571D02*
X148714772Y-111630952D01*
X148714772Y-111630952D02*
X148762391Y-111535714D01*
X148762391Y-111535714D02*
X148762391Y-111392857D01*
X148762391Y-111392857D02*
X148714772Y-111297619D01*
X148714772Y-111297619D02*
X148667152Y-111250000D01*
X148762391Y-110345238D02*
X148238581Y-110345238D01*
X148238581Y-110345238D02*
X148143343Y-110392857D01*
X148143343Y-110392857D02*
X148095724Y-110488095D01*
X148095724Y-110488095D02*
X148095724Y-110678571D01*
X148095724Y-110678571D02*
X148143343Y-110773809D01*
X148714772Y-110345238D02*
X148762391Y-110440476D01*
X148762391Y-110440476D02*
X148762391Y-110678571D01*
X148762391Y-110678571D02*
X148714772Y-110773809D01*
X148714772Y-110773809D02*
X148619533Y-110821428D01*
X148619533Y-110821428D02*
X148524295Y-110821428D01*
X148524295Y-110821428D02*
X148429057Y-110773809D01*
X148429057Y-110773809D02*
X148381438Y-110678571D01*
X148381438Y-110678571D02*
X148381438Y-110440476D01*
X148381438Y-110440476D02*
X148333819Y-110345238D01*
X148762391Y-109440476D02*
X147762391Y-109440476D01*
X148714772Y-109440476D02*
X148762391Y-109535714D01*
X148762391Y-109535714D02*
X148762391Y-109726190D01*
X148762391Y-109726190D02*
X148714772Y-109821428D01*
X148714772Y-109821428D02*
X148667152Y-109869047D01*
X148667152Y-109869047D02*
X148571914Y-109916666D01*
X148571914Y-109916666D02*
X148286200Y-109916666D01*
X148286200Y-109916666D02*
X148190962Y-109869047D01*
X148190962Y-109869047D02*
X148143343Y-109821428D01*
X148143343Y-109821428D02*
X148095724Y-109726190D01*
X148095724Y-109726190D02*
X148095724Y-109535714D01*
X148095724Y-109535714D02*
X148143343Y-109440476D01*
X148476676Y-108249999D02*
X148476676Y-107773809D01*
X148762391Y-108345237D02*
X147762391Y-108011904D01*
X147762391Y-108011904D02*
X148762391Y-107678571D01*
X148762391Y-107345237D02*
X147762391Y-107345237D01*
X147762391Y-107345237D02*
X148762391Y-106773809D01*
X148762391Y-106773809D02*
X147762391Y-106773809D01*
X148762391Y-106297618D02*
X147762391Y-106297618D01*
X147762391Y-106297618D02*
X147762391Y-106059523D01*
X147762391Y-106059523D02*
X147810010Y-105916666D01*
X147810010Y-105916666D02*
X147905248Y-105821428D01*
X147905248Y-105821428D02*
X148000486Y-105773809D01*
X148000486Y-105773809D02*
X148190962Y-105726190D01*
X148190962Y-105726190D02*
X148333819Y-105726190D01*
X148333819Y-105726190D02*
X148524295Y-105773809D01*
X148524295Y-105773809D02*
X148619533Y-105821428D01*
X148619533Y-105821428D02*
X148714772Y-105916666D01*
X148714772Y-105916666D02*
X148762391Y-106059523D01*
X148762391Y-106059523D02*
X148762391Y-106297618D01*
X131452447Y-93285713D02*
X131452447Y-92619047D01*
X131452447Y-92619047D02*
X132452447Y-93047618D01*
X131785780Y-91809523D02*
X132452447Y-91809523D01*
X131404828Y-92047618D02*
X132119113Y-92285713D01*
X132119113Y-92285713D02*
X132119113Y-91666666D01*
X132452447Y-91285713D02*
X131452447Y-91285713D01*
X131928637Y-91285713D02*
X131928637Y-90714285D01*
X132452447Y-90714285D02*
X131452447Y-90714285D01*
X132357208Y-89666666D02*
X132404828Y-89714285D01*
X132404828Y-89714285D02*
X132452447Y-89857142D01*
X132452447Y-89857142D02*
X132452447Y-89952380D01*
X132452447Y-89952380D02*
X132404828Y-90095237D01*
X132404828Y-90095237D02*
X132309589Y-90190475D01*
X132309589Y-90190475D02*
X132214351Y-90238094D01*
X132214351Y-90238094D02*
X132023875Y-90285713D01*
X132023875Y-90285713D02*
X131881018Y-90285713D01*
X131881018Y-90285713D02*
X131690542Y-90238094D01*
X131690542Y-90238094D02*
X131595304Y-90190475D01*
X131595304Y-90190475D02*
X131500066Y-90095237D01*
X131500066Y-90095237D02*
X131452447Y-89952380D01*
X131452447Y-89952380D02*
X131452447Y-89857142D01*
X131452447Y-89857142D02*
X131500066Y-89714285D01*
X131500066Y-89714285D02*
X131547685Y-89666666D01*
X131452447Y-89047618D02*
X131452447Y-88952380D01*
X131452447Y-88952380D02*
X131500066Y-88857142D01*
X131500066Y-88857142D02*
X131547685Y-88809523D01*
X131547685Y-88809523D02*
X131642923Y-88761904D01*
X131642923Y-88761904D02*
X131833399Y-88714285D01*
X131833399Y-88714285D02*
X132071494Y-88714285D01*
X132071494Y-88714285D02*
X132261970Y-88761904D01*
X132261970Y-88761904D02*
X132357208Y-88809523D01*
X132357208Y-88809523D02*
X132404828Y-88857142D01*
X132404828Y-88857142D02*
X132452447Y-88952380D01*
X132452447Y-88952380D02*
X132452447Y-89047618D01*
X132452447Y-89047618D02*
X132404828Y-89142856D01*
X132404828Y-89142856D02*
X132357208Y-89190475D01*
X132357208Y-89190475D02*
X132261970Y-89238094D01*
X132261970Y-89238094D02*
X132071494Y-89285713D01*
X132071494Y-89285713D02*
X131833399Y-89285713D01*
X131833399Y-89285713D02*
X131642923Y-89238094D01*
X131642923Y-89238094D02*
X131547685Y-89190475D01*
X131547685Y-89190475D02*
X131500066Y-89142856D01*
X131500066Y-89142856D02*
X131452447Y-89047618D01*
X131785780Y-87857142D02*
X132452447Y-87857142D01*
X131404828Y-88095237D02*
X132119113Y-88333332D01*
X132119113Y-88333332D02*
X132119113Y-87714285D01*
X134062391Y-94833333D02*
X133062391Y-94833333D01*
X133538581Y-94833333D02*
X133538581Y-94261905D01*
X134062391Y-94261905D02*
X133062391Y-94261905D01*
X134014772Y-93404762D02*
X134062391Y-93500000D01*
X134062391Y-93500000D02*
X134062391Y-93690476D01*
X134062391Y-93690476D02*
X134014772Y-93785714D01*
X134014772Y-93785714D02*
X133919533Y-93833333D01*
X133919533Y-93833333D02*
X133538581Y-93833333D01*
X133538581Y-93833333D02*
X133443343Y-93785714D01*
X133443343Y-93785714D02*
X133395724Y-93690476D01*
X133395724Y-93690476D02*
X133395724Y-93500000D01*
X133395724Y-93500000D02*
X133443343Y-93404762D01*
X133443343Y-93404762D02*
X133538581Y-93357143D01*
X133538581Y-93357143D02*
X133633819Y-93357143D01*
X133633819Y-93357143D02*
X133729057Y-93833333D01*
X134062391Y-93023809D02*
X133395724Y-92500000D01*
X133395724Y-93023809D02*
X134062391Y-92500000D01*
X134062391Y-91357142D02*
X133062391Y-91357142D01*
X133395724Y-90880952D02*
X134062391Y-90880952D01*
X133490962Y-90880952D02*
X133443343Y-90833333D01*
X133443343Y-90833333D02*
X133395724Y-90738095D01*
X133395724Y-90738095D02*
X133395724Y-90595238D01*
X133395724Y-90595238D02*
X133443343Y-90500000D01*
X133443343Y-90500000D02*
X133538581Y-90452381D01*
X133538581Y-90452381D02*
X134062391Y-90452381D01*
X133395724Y-90071428D02*
X134062391Y-89833333D01*
X134062391Y-89833333D02*
X133395724Y-89595238D01*
X134014772Y-88833333D02*
X134062391Y-88928571D01*
X134062391Y-88928571D02*
X134062391Y-89119047D01*
X134062391Y-89119047D02*
X134014772Y-89214285D01*
X134014772Y-89214285D02*
X133919533Y-89261904D01*
X133919533Y-89261904D02*
X133538581Y-89261904D01*
X133538581Y-89261904D02*
X133443343Y-89214285D01*
X133443343Y-89214285D02*
X133395724Y-89119047D01*
X133395724Y-89119047D02*
X133395724Y-88928571D01*
X133395724Y-88928571D02*
X133443343Y-88833333D01*
X133443343Y-88833333D02*
X133538581Y-88785714D01*
X133538581Y-88785714D02*
X133633819Y-88785714D01*
X133633819Y-88785714D02*
X133729057Y-89261904D01*
X134062391Y-88357142D02*
X133395724Y-88357142D01*
X133586200Y-88357142D02*
X133490962Y-88309523D01*
X133490962Y-88309523D02*
X133443343Y-88261904D01*
X133443343Y-88261904D02*
X133395724Y-88166666D01*
X133395724Y-88166666D02*
X133395724Y-88071428D01*
X133395724Y-87880951D02*
X133395724Y-87499999D01*
X133062391Y-87738094D02*
X133919533Y-87738094D01*
X133919533Y-87738094D02*
X134014772Y-87690475D01*
X134014772Y-87690475D02*
X134062391Y-87595237D01*
X134062391Y-87595237D02*
X134062391Y-87499999D01*
X134014772Y-86785713D02*
X134062391Y-86880951D01*
X134062391Y-86880951D02*
X134062391Y-87071427D01*
X134062391Y-87071427D02*
X134014772Y-87166665D01*
X134014772Y-87166665D02*
X133919533Y-87214284D01*
X133919533Y-87214284D02*
X133538581Y-87214284D01*
X133538581Y-87214284D02*
X133443343Y-87166665D01*
X133443343Y-87166665D02*
X133395724Y-87071427D01*
X133395724Y-87071427D02*
X133395724Y-86880951D01*
X133395724Y-86880951D02*
X133443343Y-86785713D01*
X133443343Y-86785713D02*
X133538581Y-86738094D01*
X133538581Y-86738094D02*
X133633819Y-86738094D01*
X133633819Y-86738094D02*
X133729057Y-87214284D01*
X134062391Y-86309522D02*
X133395724Y-86309522D01*
X133586200Y-86309522D02*
X133490962Y-86261903D01*
X133490962Y-86261903D02*
X133443343Y-86214284D01*
X133443343Y-86214284D02*
X133395724Y-86119046D01*
X133395724Y-86119046D02*
X133395724Y-86023808D01*
D12*
X145326553Y-120274561D02*
X145326553Y-119941228D01*
X145526553Y-120341228D02*
X144826553Y-120107895D01*
X144826553Y-120107895D02*
X145526553Y-119874561D01*
X145526553Y-119307895D02*
X145526553Y-119641228D01*
X145526553Y-119641228D02*
X144826553Y-119641228D01*
X144826553Y-119074561D02*
X145393220Y-119074561D01*
X145393220Y-119074561D02*
X145459886Y-119041228D01*
X145459886Y-119041228D02*
X145493220Y-119007894D01*
X145493220Y-119007894D02*
X145526553Y-118941228D01*
X145526553Y-118941228D02*
X145526553Y-118807894D01*
X145526553Y-118807894D02*
X145493220Y-118741228D01*
X145493220Y-118741228D02*
X145459886Y-118707894D01*
X145459886Y-118707894D02*
X145393220Y-118674561D01*
X145393220Y-118674561D02*
X144826553Y-118674561D01*
X145526553Y-117974561D02*
X145526553Y-118374561D01*
X145526553Y-118174561D02*
X144826553Y-118174561D01*
X144826553Y-118174561D02*
X144926553Y-118241228D01*
X144926553Y-118241228D02*
X144993220Y-118307895D01*
X144993220Y-118307895D02*
X145026553Y-118374561D01*
X163326553Y-120241228D02*
X162626553Y-120241228D01*
X162626553Y-120241228D02*
X162626553Y-120074561D01*
X162626553Y-120074561D02*
X162659886Y-119974561D01*
X162659886Y-119974561D02*
X162726553Y-119907895D01*
X162726553Y-119907895D02*
X162793220Y-119874561D01*
X162793220Y-119874561D02*
X162926553Y-119841228D01*
X162926553Y-119841228D02*
X163026553Y-119841228D01*
X163026553Y-119841228D02*
X163159886Y-119874561D01*
X163159886Y-119874561D02*
X163226553Y-119907895D01*
X163226553Y-119907895D02*
X163293220Y-119974561D01*
X163293220Y-119974561D02*
X163326553Y-120074561D01*
X163326553Y-120074561D02*
X163326553Y-120241228D01*
X163293220Y-119574561D02*
X163326553Y-119474561D01*
X163326553Y-119474561D02*
X163326553Y-119307895D01*
X163326553Y-119307895D02*
X163293220Y-119241228D01*
X163293220Y-119241228D02*
X163259886Y-119207895D01*
X163259886Y-119207895D02*
X163193220Y-119174561D01*
X163193220Y-119174561D02*
X163126553Y-119174561D01*
X163126553Y-119174561D02*
X163059886Y-119207895D01*
X163059886Y-119207895D02*
X163026553Y-119241228D01*
X163026553Y-119241228D02*
X162993220Y-119307895D01*
X162993220Y-119307895D02*
X162959886Y-119441228D01*
X162959886Y-119441228D02*
X162926553Y-119507895D01*
X162926553Y-119507895D02*
X162893220Y-119541228D01*
X162893220Y-119541228D02*
X162826553Y-119574561D01*
X162826553Y-119574561D02*
X162759886Y-119574561D01*
X162759886Y-119574561D02*
X162693220Y-119541228D01*
X162693220Y-119541228D02*
X162659886Y-119507895D01*
X162659886Y-119507895D02*
X162626553Y-119441228D01*
X162626553Y-119441228D02*
X162626553Y-119274561D01*
X162626553Y-119274561D02*
X162659886Y-119174561D01*
X163326553Y-118874561D02*
X162859886Y-118874561D01*
X162993220Y-118874561D02*
X162926553Y-118841228D01*
X162926553Y-118841228D02*
X162893220Y-118807894D01*
X162893220Y-118807894D02*
X162859886Y-118741228D01*
X162859886Y-118741228D02*
X162859886Y-118674561D01*
X163293220Y-118141228D02*
X163326553Y-118207895D01*
X163326553Y-118207895D02*
X163326553Y-118341228D01*
X163326553Y-118341228D02*
X163293220Y-118407895D01*
X163293220Y-118407895D02*
X163259886Y-118441228D01*
X163259886Y-118441228D02*
X163193220Y-118474561D01*
X163193220Y-118474561D02*
X162993220Y-118474561D01*
X162993220Y-118474561D02*
X162926553Y-118441228D01*
X162926553Y-118441228D02*
X162893220Y-118407895D01*
X162893220Y-118407895D02*
X162859886Y-118341228D01*
X162859886Y-118341228D02*
X162859886Y-118207895D01*
X162859886Y-118207895D02*
X162893220Y-118141228D01*
X158226553Y-119841228D02*
X157893220Y-120074561D01*
X158226553Y-120241228D02*
X157526553Y-120241228D01*
X157526553Y-120241228D02*
X157526553Y-119974561D01*
X157526553Y-119974561D02*
X157559886Y-119907895D01*
X157559886Y-119907895D02*
X157593220Y-119874561D01*
X157593220Y-119874561D02*
X157659886Y-119841228D01*
X157659886Y-119841228D02*
X157759886Y-119841228D01*
X157759886Y-119841228D02*
X157826553Y-119874561D01*
X157826553Y-119874561D02*
X157859886Y-119907895D01*
X157859886Y-119907895D02*
X157893220Y-119974561D01*
X157893220Y-119974561D02*
X157893220Y-120241228D01*
X157859886Y-119541228D02*
X157859886Y-119307895D01*
X158226553Y-119207895D02*
X158226553Y-119541228D01*
X158226553Y-119541228D02*
X157526553Y-119541228D01*
X157526553Y-119541228D02*
X157526553Y-119207895D01*
X157526553Y-119007895D02*
X157526553Y-118607895D01*
X158226553Y-118807895D02*
X157526553Y-118807895D01*
X173426553Y-119841228D02*
X173093220Y-120074561D01*
X173426553Y-120241228D02*
X172726553Y-120241228D01*
X172726553Y-120241228D02*
X172726553Y-119974561D01*
X172726553Y-119974561D02*
X172759886Y-119907895D01*
X172759886Y-119907895D02*
X172793220Y-119874561D01*
X172793220Y-119874561D02*
X172859886Y-119841228D01*
X172859886Y-119841228D02*
X172959886Y-119841228D01*
X172959886Y-119841228D02*
X173026553Y-119874561D01*
X173026553Y-119874561D02*
X173059886Y-119907895D01*
X173059886Y-119907895D02*
X173093220Y-119974561D01*
X173093220Y-119974561D02*
X173093220Y-120241228D01*
X173393220Y-119274561D02*
X173426553Y-119341228D01*
X173426553Y-119341228D02*
X173426553Y-119474561D01*
X173426553Y-119474561D02*
X173393220Y-119541228D01*
X173393220Y-119541228D02*
X173326553Y-119574561D01*
X173326553Y-119574561D02*
X173059886Y-119574561D01*
X173059886Y-119574561D02*
X172993220Y-119541228D01*
X172993220Y-119541228D02*
X172959886Y-119474561D01*
X172959886Y-119474561D02*
X172959886Y-119341228D01*
X172959886Y-119341228D02*
X172993220Y-119274561D01*
X172993220Y-119274561D02*
X173059886Y-119241228D01*
X173059886Y-119241228D02*
X173126553Y-119241228D01*
X173126553Y-119241228D02*
X173193220Y-119574561D01*
X172959886Y-118641228D02*
X173526553Y-118641228D01*
X173526553Y-118641228D02*
X173593220Y-118674561D01*
X173593220Y-118674561D02*
X173626553Y-118707895D01*
X173626553Y-118707895D02*
X173659886Y-118774561D01*
X173659886Y-118774561D02*
X173659886Y-118874561D01*
X173659886Y-118874561D02*
X173626553Y-118941228D01*
X173393220Y-118641228D02*
X173426553Y-118707895D01*
X173426553Y-118707895D02*
X173426553Y-118841228D01*
X173426553Y-118841228D02*
X173393220Y-118907895D01*
X173393220Y-118907895D02*
X173359886Y-118941228D01*
X173359886Y-118941228D02*
X173293220Y-118974561D01*
X173293220Y-118974561D02*
X173093220Y-118974561D01*
X173093220Y-118974561D02*
X173026553Y-118941228D01*
X173026553Y-118941228D02*
X172993220Y-118907895D01*
X172993220Y-118907895D02*
X172959886Y-118841228D01*
X172959886Y-118841228D02*
X172959886Y-118707895D01*
X172959886Y-118707895D02*
X172993220Y-118641228D01*
X173426553Y-118307895D02*
X172726553Y-118307895D01*
X172726553Y-118307895D02*
X172726553Y-118141228D01*
X172726553Y-118141228D02*
X172759886Y-118041228D01*
X172759886Y-118041228D02*
X172826553Y-117974562D01*
X172826553Y-117974562D02*
X172893220Y-117941228D01*
X172893220Y-117941228D02*
X173026553Y-117907895D01*
X173026553Y-117907895D02*
X173126553Y-117907895D01*
X173126553Y-117907895D02*
X173259886Y-117941228D01*
X173259886Y-117941228D02*
X173326553Y-117974562D01*
X173326553Y-117974562D02*
X173393220Y-118041228D01*
X173393220Y-118041228D02*
X173426553Y-118141228D01*
X173426553Y-118141228D02*
X173426553Y-118307895D01*
X173393220Y-117341228D02*
X173426553Y-117407895D01*
X173426553Y-117407895D02*
X173426553Y-117541228D01*
X173426553Y-117541228D02*
X173393220Y-117607895D01*
X173393220Y-117607895D02*
X173326553Y-117641228D01*
X173326553Y-117641228D02*
X173059886Y-117641228D01*
X173059886Y-117641228D02*
X172993220Y-117607895D01*
X172993220Y-117607895D02*
X172959886Y-117541228D01*
X172959886Y-117541228D02*
X172959886Y-117407895D01*
X172959886Y-117407895D02*
X172993220Y-117341228D01*
X172993220Y-117341228D02*
X173059886Y-117307895D01*
X173059886Y-117307895D02*
X173126553Y-117307895D01*
X173126553Y-117307895D02*
X173193220Y-117641228D01*
X173393220Y-117041228D02*
X173426553Y-116974562D01*
X173426553Y-116974562D02*
X173426553Y-116841228D01*
X173426553Y-116841228D02*
X173393220Y-116774562D01*
X173393220Y-116774562D02*
X173326553Y-116741228D01*
X173326553Y-116741228D02*
X173293220Y-116741228D01*
X173293220Y-116741228D02*
X173226553Y-116774562D01*
X173226553Y-116774562D02*
X173193220Y-116841228D01*
X173193220Y-116841228D02*
X173193220Y-116941228D01*
X173193220Y-116941228D02*
X173159886Y-117007895D01*
X173159886Y-117007895D02*
X173093220Y-117041228D01*
X173093220Y-117041228D02*
X173059886Y-117041228D01*
X173059886Y-117041228D02*
X172993220Y-117007895D01*
X172993220Y-117007895D02*
X172959886Y-116941228D01*
X172959886Y-116941228D02*
X172959886Y-116841228D01*
X172959886Y-116841228D02*
X172993220Y-116774562D01*
X172959886Y-116541228D02*
X172959886Y-116274561D01*
X172726553Y-116441228D02*
X173326553Y-116441228D01*
X173326553Y-116441228D02*
X173393220Y-116407895D01*
X173393220Y-116407895D02*
X173426553Y-116341228D01*
X173426553Y-116341228D02*
X173426553Y-116274561D01*
X173426553Y-115674561D02*
X173426553Y-116074561D01*
X173426553Y-115874561D02*
X172726553Y-115874561D01*
X172726553Y-115874561D02*
X172826553Y-115941228D01*
X172826553Y-115941228D02*
X172893220Y-116007895D01*
X172893220Y-116007895D02*
X172926553Y-116074561D01*
D11*
X157838095Y-81304600D02*
X157980952Y-81352219D01*
X157980952Y-81352219D02*
X158219047Y-81352219D01*
X158219047Y-81352219D02*
X158314285Y-81304600D01*
X158314285Y-81304600D02*
X158361904Y-81256980D01*
X158361904Y-81256980D02*
X158409523Y-81161742D01*
X158409523Y-81161742D02*
X158409523Y-81066504D01*
X158409523Y-81066504D02*
X158361904Y-80971266D01*
X158361904Y-80971266D02*
X158314285Y-80923647D01*
X158314285Y-80923647D02*
X158219047Y-80876028D01*
X158219047Y-80876028D02*
X158028571Y-80828409D01*
X158028571Y-80828409D02*
X157933333Y-80780790D01*
X157933333Y-80780790D02*
X157885714Y-80733171D01*
X157885714Y-80733171D02*
X157838095Y-80637933D01*
X157838095Y-80637933D02*
X157838095Y-80542695D01*
X157838095Y-80542695D02*
X157885714Y-80447457D01*
X157885714Y-80447457D02*
X157933333Y-80399838D01*
X157933333Y-80399838D02*
X158028571Y-80352219D01*
X158028571Y-80352219D02*
X158266666Y-80352219D01*
X158266666Y-80352219D02*
X158409523Y-80399838D01*
X159028571Y-80352219D02*
X159123809Y-80352219D01*
X159123809Y-80352219D02*
X159219047Y-80399838D01*
X159219047Y-80399838D02*
X159266666Y-80447457D01*
X159266666Y-80447457D02*
X159314285Y-80542695D01*
X159314285Y-80542695D02*
X159361904Y-80733171D01*
X159361904Y-80733171D02*
X159361904Y-80971266D01*
X159361904Y-80971266D02*
X159314285Y-81161742D01*
X159314285Y-81161742D02*
X159266666Y-81256980D01*
X159266666Y-81256980D02*
X159219047Y-81304600D01*
X159219047Y-81304600D02*
X159123809Y-81352219D01*
X159123809Y-81352219D02*
X159028571Y-81352219D01*
X159028571Y-81352219D02*
X158933333Y-81304600D01*
X158933333Y-81304600D02*
X158885714Y-81256980D01*
X158885714Y-81256980D02*
X158838095Y-81161742D01*
X158838095Y-81161742D02*
X158790476Y-80971266D01*
X158790476Y-80971266D02*
X158790476Y-80733171D01*
X158790476Y-80733171D02*
X158838095Y-80542695D01*
X158838095Y-80542695D02*
X158885714Y-80447457D01*
X158885714Y-80447457D02*
X158933333Y-80399838D01*
X158933333Y-80399838D02*
X159028571Y-80352219D01*
D13*
X165121868Y-131563938D02*
X162740916Y-131563938D01*
X162740916Y-131563938D02*
X162740916Y-126563938D01*
X167740916Y-126563938D02*
X168693297Y-126563938D01*
X168693297Y-126563938D02*
X169169487Y-126802033D01*
X169169487Y-126802033D02*
X169645678Y-127278223D01*
X169645678Y-127278223D02*
X169883773Y-128230604D01*
X169883773Y-128230604D02*
X169883773Y-129897271D01*
X169883773Y-129897271D02*
X169645678Y-130849652D01*
X169645678Y-130849652D02*
X169169487Y-131325843D01*
X169169487Y-131325843D02*
X168693297Y-131563938D01*
X168693297Y-131563938D02*
X167740916Y-131563938D01*
X167740916Y-131563938D02*
X167264725Y-131325843D01*
X167264725Y-131325843D02*
X166788535Y-130849652D01*
X166788535Y-130849652D02*
X166550439Y-129897271D01*
X166550439Y-129897271D02*
X166550439Y-128230604D01*
X166550439Y-128230604D02*
X166788535Y-127278223D01*
X166788535Y-127278223D02*
X167264725Y-126802033D01*
X167264725Y-126802033D02*
X167740916Y-126563938D01*
X174645677Y-126802033D02*
X174169487Y-126563938D01*
X174169487Y-126563938D02*
X173455201Y-126563938D01*
X173455201Y-126563938D02*
X172740915Y-126802033D01*
X172740915Y-126802033D02*
X172264725Y-127278223D01*
X172264725Y-127278223D02*
X172026630Y-127754414D01*
X172026630Y-127754414D02*
X171788534Y-128706795D01*
X171788534Y-128706795D02*
X171788534Y-129421081D01*
X171788534Y-129421081D02*
X172026630Y-130373462D01*
X172026630Y-130373462D02*
X172264725Y-130849652D01*
X172264725Y-130849652D02*
X172740915Y-131325843D01*
X172740915Y-131325843D02*
X173455201Y-131563938D01*
X173455201Y-131563938D02*
X173931392Y-131563938D01*
X173931392Y-131563938D02*
X174645677Y-131325843D01*
X174645677Y-131325843D02*
X174883773Y-131087747D01*
X174883773Y-131087747D02*
X174883773Y-129421081D01*
X174883773Y-129421081D02*
X173931392Y-129421081D01*
X177026630Y-131563938D02*
X177026630Y-126563938D01*
X182264725Y-131087747D02*
X182026629Y-131325843D01*
X182026629Y-131325843D02*
X181312344Y-131563938D01*
X181312344Y-131563938D02*
X180836153Y-131563938D01*
X180836153Y-131563938D02*
X180121867Y-131325843D01*
X180121867Y-131325843D02*
X179645677Y-130849652D01*
X179645677Y-130849652D02*
X179407582Y-130373462D01*
X179407582Y-130373462D02*
X179169486Y-129421081D01*
X179169486Y-129421081D02*
X179169486Y-128706795D01*
X179169486Y-128706795D02*
X179407582Y-127754414D01*
X179407582Y-127754414D02*
X179645677Y-127278223D01*
X179645677Y-127278223D02*
X180121867Y-126802033D01*
X180121867Y-126802033D02*
X180836153Y-126563938D01*
X180836153Y-126563938D02*
X181312344Y-126563938D01*
X181312344Y-126563938D02*
X182026629Y-126802033D01*
X182026629Y-126802033D02*
X182264725Y-127040128D01*
D11*
X131938095Y-80399838D02*
X131842857Y-80352219D01*
X131842857Y-80352219D02*
X131700000Y-80352219D01*
X131700000Y-80352219D02*
X131557143Y-80399838D01*
X131557143Y-80399838D02*
X131461905Y-80495076D01*
X131461905Y-80495076D02*
X131414286Y-80590314D01*
X131414286Y-80590314D02*
X131366667Y-80780790D01*
X131366667Y-80780790D02*
X131366667Y-80923647D01*
X131366667Y-80923647D02*
X131414286Y-81114123D01*
X131414286Y-81114123D02*
X131461905Y-81209361D01*
X131461905Y-81209361D02*
X131557143Y-81304600D01*
X131557143Y-81304600D02*
X131700000Y-81352219D01*
X131700000Y-81352219D02*
X131795238Y-81352219D01*
X131795238Y-81352219D02*
X131938095Y-81304600D01*
X131938095Y-81304600D02*
X131985714Y-81256980D01*
X131985714Y-81256980D02*
X131985714Y-80923647D01*
X131985714Y-80923647D02*
X131795238Y-80923647D01*
X132414286Y-81352219D02*
X132414286Y-80352219D01*
X132414286Y-80352219D02*
X132985714Y-81352219D01*
X132985714Y-81352219D02*
X132985714Y-80352219D01*
X133461905Y-81352219D02*
X133461905Y-80352219D01*
X133461905Y-80352219D02*
X133700000Y-80352219D01*
X133700000Y-80352219D02*
X133842857Y-80399838D01*
X133842857Y-80399838D02*
X133938095Y-80495076D01*
X133938095Y-80495076D02*
X133985714Y-80590314D01*
X133985714Y-80590314D02*
X134033333Y-80780790D01*
X134033333Y-80780790D02*
X134033333Y-80923647D01*
X134033333Y-80923647D02*
X133985714Y-81114123D01*
X133985714Y-81114123D02*
X133938095Y-81209361D01*
X133938095Y-81209361D02*
X133842857Y-81304600D01*
X133842857Y-81304600D02*
X133700000Y-81352219D01*
X133700000Y-81352219D02*
X133461905Y-81352219D01*
X160438095Y-81304600D02*
X160580952Y-81352219D01*
X160580952Y-81352219D02*
X160819047Y-81352219D01*
X160819047Y-81352219D02*
X160914285Y-81304600D01*
X160914285Y-81304600D02*
X160961904Y-81256980D01*
X160961904Y-81256980D02*
X161009523Y-81161742D01*
X161009523Y-81161742D02*
X161009523Y-81066504D01*
X161009523Y-81066504D02*
X160961904Y-80971266D01*
X160961904Y-80971266D02*
X160914285Y-80923647D01*
X160914285Y-80923647D02*
X160819047Y-80876028D01*
X160819047Y-80876028D02*
X160628571Y-80828409D01*
X160628571Y-80828409D02*
X160533333Y-80780790D01*
X160533333Y-80780790D02*
X160485714Y-80733171D01*
X160485714Y-80733171D02*
X160438095Y-80637933D01*
X160438095Y-80637933D02*
X160438095Y-80542695D01*
X160438095Y-80542695D02*
X160485714Y-80447457D01*
X160485714Y-80447457D02*
X160533333Y-80399838D01*
X160533333Y-80399838D02*
X160628571Y-80352219D01*
X160628571Y-80352219D02*
X160866666Y-80352219D01*
X160866666Y-80352219D02*
X161009523Y-80399838D01*
X161961904Y-81352219D02*
X161390476Y-81352219D01*
X161676190Y-81352219D02*
X161676190Y-80352219D01*
X161676190Y-80352219D02*
X161580952Y-80495076D01*
X161580952Y-80495076D02*
X161485714Y-80590314D01*
X161485714Y-80590314D02*
X161390476Y-80637933D01*
D10*
X132307208Y-111345238D02*
X132354828Y-111392857D01*
X132354828Y-111392857D02*
X132402447Y-111535714D01*
X132402447Y-111535714D02*
X132402447Y-111630952D01*
X132402447Y-111630952D02*
X132354828Y-111773809D01*
X132354828Y-111773809D02*
X132259589Y-111869047D01*
X132259589Y-111869047D02*
X132164351Y-111916666D01*
X132164351Y-111916666D02*
X131973875Y-111964285D01*
X131973875Y-111964285D02*
X131831018Y-111964285D01*
X131831018Y-111964285D02*
X131640542Y-111916666D01*
X131640542Y-111916666D02*
X131545304Y-111869047D01*
X131545304Y-111869047D02*
X131450066Y-111773809D01*
X131450066Y-111773809D02*
X131402447Y-111630952D01*
X131402447Y-111630952D02*
X131402447Y-111535714D01*
X131402447Y-111535714D02*
X131450066Y-111392857D01*
X131450066Y-111392857D02*
X131497685Y-111345238D01*
X132402447Y-110916666D02*
X131402447Y-110916666D01*
X131402447Y-110916666D02*
X131402447Y-110678571D01*
X131402447Y-110678571D02*
X131450066Y-110535714D01*
X131450066Y-110535714D02*
X131545304Y-110440476D01*
X131545304Y-110440476D02*
X131640542Y-110392857D01*
X131640542Y-110392857D02*
X131831018Y-110345238D01*
X131831018Y-110345238D02*
X131973875Y-110345238D01*
X131973875Y-110345238D02*
X132164351Y-110392857D01*
X132164351Y-110392857D02*
X132259589Y-110440476D01*
X132259589Y-110440476D02*
X132354828Y-110535714D01*
X132354828Y-110535714D02*
X132402447Y-110678571D01*
X132402447Y-110678571D02*
X132402447Y-110916666D01*
X131735780Y-109488095D02*
X132402447Y-109488095D01*
X131354828Y-109726190D02*
X132069113Y-109964285D01*
X132069113Y-109964285D02*
X132069113Y-109345238D01*
X131402447Y-108773809D02*
X131402447Y-108678571D01*
X131402447Y-108678571D02*
X131450066Y-108583333D01*
X131450066Y-108583333D02*
X131497685Y-108535714D01*
X131497685Y-108535714D02*
X131592923Y-108488095D01*
X131592923Y-108488095D02*
X131783399Y-108440476D01*
X131783399Y-108440476D02*
X132021494Y-108440476D01*
X132021494Y-108440476D02*
X132211970Y-108488095D01*
X132211970Y-108488095D02*
X132307208Y-108535714D01*
X132307208Y-108535714D02*
X132354828Y-108583333D01*
X132354828Y-108583333D02*
X132402447Y-108678571D01*
X132402447Y-108678571D02*
X132402447Y-108773809D01*
X132402447Y-108773809D02*
X132354828Y-108869047D01*
X132354828Y-108869047D02*
X132307208Y-108916666D01*
X132307208Y-108916666D02*
X132211970Y-108964285D01*
X132211970Y-108964285D02*
X132021494Y-109011904D01*
X132021494Y-109011904D02*
X131783399Y-109011904D01*
X131783399Y-109011904D02*
X131592923Y-108964285D01*
X131592923Y-108964285D02*
X131497685Y-108916666D01*
X131497685Y-108916666D02*
X131450066Y-108869047D01*
X131450066Y-108869047D02*
X131402447Y-108773809D01*
X131831018Y-107869047D02*
X131783399Y-107964285D01*
X131783399Y-107964285D02*
X131735780Y-108011904D01*
X131735780Y-108011904D02*
X131640542Y-108059523D01*
X131640542Y-108059523D02*
X131592923Y-108059523D01*
X131592923Y-108059523D02*
X131497685Y-108011904D01*
X131497685Y-108011904D02*
X131450066Y-107964285D01*
X131450066Y-107964285D02*
X131402447Y-107869047D01*
X131402447Y-107869047D02*
X131402447Y-107678571D01*
X131402447Y-107678571D02*
X131450066Y-107583333D01*
X131450066Y-107583333D02*
X131497685Y-107535714D01*
X131497685Y-107535714D02*
X131592923Y-107488095D01*
X131592923Y-107488095D02*
X131640542Y-107488095D01*
X131640542Y-107488095D02*
X131735780Y-107535714D01*
X131735780Y-107535714D02*
X131783399Y-107583333D01*
X131783399Y-107583333D02*
X131831018Y-107678571D01*
X131831018Y-107678571D02*
X131831018Y-107869047D01*
X131831018Y-107869047D02*
X131878637Y-107964285D01*
X131878637Y-107964285D02*
X131926256Y-108011904D01*
X131926256Y-108011904D02*
X132021494Y-108059523D01*
X132021494Y-108059523D02*
X132211970Y-108059523D01*
X132211970Y-108059523D02*
X132307208Y-108011904D01*
X132307208Y-108011904D02*
X132354828Y-107964285D01*
X132354828Y-107964285D02*
X132402447Y-107869047D01*
X132402447Y-107869047D02*
X132402447Y-107678571D01*
X132402447Y-107678571D02*
X132354828Y-107583333D01*
X132354828Y-107583333D02*
X132307208Y-107535714D01*
X132307208Y-107535714D02*
X132211970Y-107488095D01*
X132211970Y-107488095D02*
X132021494Y-107488095D01*
X132021494Y-107488095D02*
X131926256Y-107535714D01*
X131926256Y-107535714D02*
X131878637Y-107583333D01*
X131878637Y-107583333D02*
X131831018Y-107678571D01*
X132402447Y-106535714D02*
X132402447Y-107107142D01*
X132402447Y-106821428D02*
X131402447Y-106821428D01*
X131402447Y-106821428D02*
X131545304Y-106916666D01*
X131545304Y-106916666D02*
X131640542Y-107011904D01*
X131640542Y-107011904D02*
X131688161Y-107107142D01*
X134107629Y-112059524D02*
X134060010Y-112154762D01*
X134060010Y-112154762D02*
X133964772Y-112250000D01*
X133964772Y-112250000D02*
X133821914Y-112392857D01*
X133821914Y-112392857D02*
X133774295Y-112488095D01*
X133774295Y-112488095D02*
X133774295Y-112583333D01*
X134012391Y-112535714D02*
X133964772Y-112630952D01*
X133964772Y-112630952D02*
X133869533Y-112726190D01*
X133869533Y-112726190D02*
X133679057Y-112773809D01*
X133679057Y-112773809D02*
X133345724Y-112773809D01*
X133345724Y-112773809D02*
X133155248Y-112726190D01*
X133155248Y-112726190D02*
X133060010Y-112630952D01*
X133060010Y-112630952D02*
X133012391Y-112535714D01*
X133012391Y-112535714D02*
X133012391Y-112345238D01*
X133012391Y-112345238D02*
X133060010Y-112250000D01*
X133060010Y-112250000D02*
X133155248Y-112154762D01*
X133155248Y-112154762D02*
X133345724Y-112107143D01*
X133345724Y-112107143D02*
X133679057Y-112107143D01*
X133679057Y-112107143D02*
X133869533Y-112154762D01*
X133869533Y-112154762D02*
X133964772Y-112250000D01*
X133964772Y-112250000D02*
X134012391Y-112345238D01*
X134012391Y-112345238D02*
X134012391Y-112535714D01*
X133345724Y-111250000D02*
X134012391Y-111250000D01*
X133345724Y-111678571D02*
X133869533Y-111678571D01*
X133869533Y-111678571D02*
X133964772Y-111630952D01*
X133964772Y-111630952D02*
X134012391Y-111535714D01*
X134012391Y-111535714D02*
X134012391Y-111392857D01*
X134012391Y-111392857D02*
X133964772Y-111297619D01*
X133964772Y-111297619D02*
X133917152Y-111250000D01*
X134012391Y-110345238D02*
X133488581Y-110345238D01*
X133488581Y-110345238D02*
X133393343Y-110392857D01*
X133393343Y-110392857D02*
X133345724Y-110488095D01*
X133345724Y-110488095D02*
X133345724Y-110678571D01*
X133345724Y-110678571D02*
X133393343Y-110773809D01*
X133964772Y-110345238D02*
X134012391Y-110440476D01*
X134012391Y-110440476D02*
X134012391Y-110678571D01*
X134012391Y-110678571D02*
X133964772Y-110773809D01*
X133964772Y-110773809D02*
X133869533Y-110821428D01*
X133869533Y-110821428D02*
X133774295Y-110821428D01*
X133774295Y-110821428D02*
X133679057Y-110773809D01*
X133679057Y-110773809D02*
X133631438Y-110678571D01*
X133631438Y-110678571D02*
X133631438Y-110440476D01*
X133631438Y-110440476D02*
X133583819Y-110345238D01*
X134012391Y-109440476D02*
X133012391Y-109440476D01*
X133964772Y-109440476D02*
X134012391Y-109535714D01*
X134012391Y-109535714D02*
X134012391Y-109726190D01*
X134012391Y-109726190D02*
X133964772Y-109821428D01*
X133964772Y-109821428D02*
X133917152Y-109869047D01*
X133917152Y-109869047D02*
X133821914Y-109916666D01*
X133821914Y-109916666D02*
X133536200Y-109916666D01*
X133536200Y-109916666D02*
X133440962Y-109869047D01*
X133440962Y-109869047D02*
X133393343Y-109821428D01*
X133393343Y-109821428D02*
X133345724Y-109726190D01*
X133345724Y-109726190D02*
X133345724Y-109535714D01*
X133345724Y-109535714D02*
X133393343Y-109440476D01*
X133726676Y-108249999D02*
X133726676Y-107773809D01*
X134012391Y-108345237D02*
X133012391Y-108011904D01*
X133012391Y-108011904D02*
X134012391Y-107678571D01*
X134012391Y-107345237D02*
X133012391Y-107345237D01*
X133012391Y-107345237D02*
X134012391Y-106773809D01*
X134012391Y-106773809D02*
X133012391Y-106773809D01*
X134012391Y-106297618D02*
X133012391Y-106297618D01*
X133012391Y-106297618D02*
X133012391Y-106059523D01*
X133012391Y-106059523D02*
X133060010Y-105916666D01*
X133060010Y-105916666D02*
X133155248Y-105821428D01*
X133155248Y-105821428D02*
X133250486Y-105773809D01*
X133250486Y-105773809D02*
X133440962Y-105726190D01*
X133440962Y-105726190D02*
X133583819Y-105726190D01*
X133583819Y-105726190D02*
X133774295Y-105773809D01*
X133774295Y-105773809D02*
X133869533Y-105821428D01*
X133869533Y-105821428D02*
X133964772Y-105916666D01*
X133964772Y-105916666D02*
X134012391Y-106059523D01*
X134012391Y-106059523D02*
X134012391Y-106297618D01*
D12*
X168426553Y-120241228D02*
X167726553Y-120241228D01*
X167726553Y-120241228D02*
X167726553Y-119974561D01*
X167726553Y-119974561D02*
X167759886Y-119907895D01*
X167759886Y-119907895D02*
X167793220Y-119874561D01*
X167793220Y-119874561D02*
X167859886Y-119841228D01*
X167859886Y-119841228D02*
X167959886Y-119841228D01*
X167959886Y-119841228D02*
X168026553Y-119874561D01*
X168026553Y-119874561D02*
X168059886Y-119907895D01*
X168059886Y-119907895D02*
X168093220Y-119974561D01*
X168093220Y-119974561D02*
X168093220Y-120241228D01*
X168359886Y-119141228D02*
X168393220Y-119174561D01*
X168393220Y-119174561D02*
X168426553Y-119274561D01*
X168426553Y-119274561D02*
X168426553Y-119341228D01*
X168426553Y-119341228D02*
X168393220Y-119441228D01*
X168393220Y-119441228D02*
X168326553Y-119507895D01*
X168326553Y-119507895D02*
X168259886Y-119541228D01*
X168259886Y-119541228D02*
X168126553Y-119574561D01*
X168126553Y-119574561D02*
X168026553Y-119574561D01*
X168026553Y-119574561D02*
X167893220Y-119541228D01*
X167893220Y-119541228D02*
X167826553Y-119507895D01*
X167826553Y-119507895D02*
X167759886Y-119441228D01*
X167759886Y-119441228D02*
X167726553Y-119341228D01*
X167726553Y-119341228D02*
X167726553Y-119274561D01*
X167726553Y-119274561D02*
X167759886Y-119174561D01*
X167759886Y-119174561D02*
X167793220Y-119141228D01*
X168393220Y-118874561D02*
X168426553Y-118774561D01*
X168426553Y-118774561D02*
X168426553Y-118607895D01*
X168426553Y-118607895D02*
X168393220Y-118541228D01*
X168393220Y-118541228D02*
X168359886Y-118507895D01*
X168359886Y-118507895D02*
X168293220Y-118474561D01*
X168293220Y-118474561D02*
X168226553Y-118474561D01*
X168226553Y-118474561D02*
X168159886Y-118507895D01*
X168159886Y-118507895D02*
X168126553Y-118541228D01*
X168126553Y-118541228D02*
X168093220Y-118607895D01*
X168093220Y-118607895D02*
X168059886Y-118741228D01*
X168059886Y-118741228D02*
X168026553Y-118807895D01*
X168026553Y-118807895D02*
X167993220Y-118841228D01*
X167993220Y-118841228D02*
X167926553Y-118874561D01*
X167926553Y-118874561D02*
X167859886Y-118874561D01*
X167859886Y-118874561D02*
X167793220Y-118841228D01*
X167793220Y-118841228D02*
X167759886Y-118807895D01*
X167759886Y-118807895D02*
X167726553Y-118741228D01*
X167726553Y-118741228D02*
X167726553Y-118574561D01*
X167726553Y-118574561D02*
X167759886Y-118474561D01*
X168426553Y-118174561D02*
X167959886Y-118174561D01*
X168093220Y-118174561D02*
X168026553Y-118141228D01*
X168026553Y-118141228D02*
X167993220Y-118107894D01*
X167993220Y-118107894D02*
X167959886Y-118041228D01*
X167959886Y-118041228D02*
X167959886Y-117974561D01*
X168393220Y-117441228D02*
X168426553Y-117507895D01*
X168426553Y-117507895D02*
X168426553Y-117641228D01*
X168426553Y-117641228D02*
X168393220Y-117707895D01*
X168393220Y-117707895D02*
X168359886Y-117741228D01*
X168359886Y-117741228D02*
X168293220Y-117774561D01*
X168293220Y-117774561D02*
X168093220Y-117774561D01*
X168093220Y-117774561D02*
X168026553Y-117741228D01*
X168026553Y-117741228D02*
X167993220Y-117707895D01*
X167993220Y-117707895D02*
X167959886Y-117641228D01*
X167959886Y-117641228D02*
X167959886Y-117507895D01*
X167959886Y-117507895D02*
X167993220Y-117441228D01*
D11*
X179109523Y-80352219D02*
X178633333Y-80352219D01*
X178633333Y-80352219D02*
X178585714Y-80828409D01*
X178585714Y-80828409D02*
X178633333Y-80780790D01*
X178633333Y-80780790D02*
X178728571Y-80733171D01*
X178728571Y-80733171D02*
X178966666Y-80733171D01*
X178966666Y-80733171D02*
X179061904Y-80780790D01*
X179061904Y-80780790D02*
X179109523Y-80828409D01*
X179109523Y-80828409D02*
X179157142Y-80923647D01*
X179157142Y-80923647D02*
X179157142Y-81161742D01*
X179157142Y-81161742D02*
X179109523Y-81256980D01*
X179109523Y-81256980D02*
X179061904Y-81304600D01*
X179061904Y-81304600D02*
X178966666Y-81352219D01*
X178966666Y-81352219D02*
X178728571Y-81352219D01*
X178728571Y-81352219D02*
X178633333Y-81304600D01*
X178633333Y-81304600D02*
X178585714Y-81256980D01*
X179442857Y-80352219D02*
X179776190Y-81352219D01*
X179776190Y-81352219D02*
X180109523Y-80352219D01*
X175738095Y-80399838D02*
X175642857Y-80352219D01*
X175642857Y-80352219D02*
X175500000Y-80352219D01*
X175500000Y-80352219D02*
X175357143Y-80399838D01*
X175357143Y-80399838D02*
X175261905Y-80495076D01*
X175261905Y-80495076D02*
X175214286Y-80590314D01*
X175214286Y-80590314D02*
X175166667Y-80780790D01*
X175166667Y-80780790D02*
X175166667Y-80923647D01*
X175166667Y-80923647D02*
X175214286Y-81114123D01*
X175214286Y-81114123D02*
X175261905Y-81209361D01*
X175261905Y-81209361D02*
X175357143Y-81304600D01*
X175357143Y-81304600D02*
X175500000Y-81352219D01*
X175500000Y-81352219D02*
X175595238Y-81352219D01*
X175595238Y-81352219D02*
X175738095Y-81304600D01*
X175738095Y-81304600D02*
X175785714Y-81256980D01*
X175785714Y-81256980D02*
X175785714Y-80923647D01*
X175785714Y-80923647D02*
X175595238Y-80923647D01*
X176214286Y-81352219D02*
X176214286Y-80352219D01*
X176214286Y-80352219D02*
X176785714Y-81352219D01*
X176785714Y-81352219D02*
X176785714Y-80352219D01*
X177261905Y-81352219D02*
X177261905Y-80352219D01*
X177261905Y-80352219D02*
X177500000Y-80352219D01*
X177500000Y-80352219D02*
X177642857Y-80399838D01*
X177642857Y-80399838D02*
X177738095Y-80495076D01*
X177738095Y-80495076D02*
X177785714Y-80590314D01*
X177785714Y-80590314D02*
X177833333Y-80780790D01*
X177833333Y-80780790D02*
X177833333Y-80923647D01*
X177833333Y-80923647D02*
X177785714Y-81114123D01*
X177785714Y-81114123D02*
X177738095Y-81209361D01*
X177738095Y-81209361D02*
X177642857Y-81304600D01*
X177642857Y-81304600D02*
X177500000Y-81352219D01*
X177500000Y-81352219D02*
X177261905Y-81352219D01*
D12*
X139849886Y-119774561D02*
X139816553Y-119841228D01*
X139816553Y-119841228D02*
X139816553Y-119941228D01*
X139816553Y-119941228D02*
X139849886Y-120041228D01*
X139849886Y-120041228D02*
X139916553Y-120107895D01*
X139916553Y-120107895D02*
X139983220Y-120141228D01*
X139983220Y-120141228D02*
X140116553Y-120174561D01*
X140116553Y-120174561D02*
X140216553Y-120174561D01*
X140216553Y-120174561D02*
X140349886Y-120141228D01*
X140349886Y-120141228D02*
X140416553Y-120107895D01*
X140416553Y-120107895D02*
X140483220Y-120041228D01*
X140483220Y-120041228D02*
X140516553Y-119941228D01*
X140516553Y-119941228D02*
X140516553Y-119874561D01*
X140516553Y-119874561D02*
X140483220Y-119774561D01*
X140483220Y-119774561D02*
X140449886Y-119741228D01*
X140449886Y-119741228D02*
X140216553Y-119741228D01*
X140216553Y-119741228D02*
X140216553Y-119874561D01*
X140516553Y-119441228D02*
X139816553Y-119441228D01*
X139816553Y-119441228D02*
X140516553Y-119041228D01*
X140516553Y-119041228D02*
X139816553Y-119041228D01*
X140516553Y-118707895D02*
X139816553Y-118707895D01*
X139816553Y-118707895D02*
X139816553Y-118541228D01*
X139816553Y-118541228D02*
X139849886Y-118441228D01*
X139849886Y-118441228D02*
X139916553Y-118374562D01*
X139916553Y-118374562D02*
X139983220Y-118341228D01*
X139983220Y-118341228D02*
X140116553Y-118307895D01*
X140116553Y-118307895D02*
X140216553Y-118307895D01*
X140216553Y-118307895D02*
X140349886Y-118341228D01*
X140349886Y-118341228D02*
X140416553Y-118374562D01*
X140416553Y-118374562D02*
X140483220Y-118441228D01*
X140483220Y-118441228D02*
X140516553Y-118541228D01*
X140516553Y-118541228D02*
X140516553Y-118707895D01*
D14*
%TO.C,J3*%
X175395000Y-80132843D02*
X175395000Y-78802843D01*
X176725000Y-80132843D02*
X175395000Y-80132843D01*
X177995000Y-77472843D02*
X180595000Y-77472843D01*
X177995000Y-80132843D02*
X177995000Y-77472843D01*
X177995000Y-80132843D02*
X180595000Y-80132843D01*
X180595000Y-80132843D02*
X180595000Y-77472843D01*
%TO.C,J1*%
X131510000Y-80132843D02*
X131510000Y-78802843D01*
X132840000Y-80132843D02*
X131510000Y-80132843D01*
X134110000Y-77472843D02*
X154490000Y-77472843D01*
X134110000Y-80132843D02*
X134110000Y-77472843D01*
X134110000Y-80132843D02*
X154490000Y-80132843D01*
X154490000Y-80132843D02*
X154490000Y-77472843D01*
%TO.C,J4*%
X157395000Y-80132843D02*
X157395000Y-78802843D01*
X158725000Y-80132843D02*
X157395000Y-80132843D01*
X159995000Y-77472843D02*
X162595000Y-77472843D01*
X159995000Y-80132843D02*
X159995000Y-77472843D01*
X159995000Y-80132843D02*
X162595000Y-80132843D01*
X162595000Y-80132843D02*
X162595000Y-77472843D01*
%TO.C,J2*%
X138850000Y-123132843D02*
X138850000Y-121802843D01*
X140180000Y-123132843D02*
X138850000Y-123132843D01*
X141450000Y-120472843D02*
X174530000Y-120472843D01*
X141450000Y-123132843D02*
X141450000Y-120472843D01*
X141450000Y-123132843D02*
X174530000Y-123132843D01*
X174530000Y-123132843D02*
X174530000Y-120472843D01*
%TD*%
M02*
