%TF.GenerationSoftware,KiCad,Pcbnew,8.0.4*%
%TF.CreationDate,2024-10-19T17:10:44-04:00*%
%TF.ProjectId,Logic PCB,4c6f6769-6320-4504-9342-2e6b69636164,rev?*%
%TF.SameCoordinates,Original*%
%TF.FileFunction,Soldermask,Top*%
%TF.FilePolarity,Negative*%
%FSLAX46Y46*%
G04 Gerber Fmt 4.6, Leading zero omitted, Abs format (unit mm)*
G04 Created by KiCad (PCBNEW 8.0.4) date 2024-10-19 17:10:44*
%MOMM*%
%LPD*%
G01*
G04 APERTURE LIST*
%ADD10R,2.000000X1.440000*%
%ADD11O,2.000000X1.440000*%
%ADD12R,1.700000X1.700000*%
%ADD13O,1.700000X1.700000*%
G04 APERTURE END LIST*
D10*
%TO.C,CD5*%
X159450000Y-101652843D03*
D11*
X159450000Y-104192843D03*
X159450000Y-106732843D03*
X159450000Y-109272843D03*
X159450000Y-111812843D03*
X159450000Y-114352843D03*
X159450000Y-116892843D03*
X167070000Y-116892843D03*
X167070000Y-114352843D03*
X167070000Y-111812843D03*
X167070000Y-109272843D03*
X167070000Y-106732843D03*
X167070000Y-104192843D03*
X167070000Y-101652843D03*
%TD*%
D12*
%TO.C,J3*%
X176725000Y-78802843D03*
D13*
X179265000Y-78802843D03*
%TD*%
D10*
%TO.C,CD2*%
X159450000Y-83152843D03*
D11*
X159450000Y-85692843D03*
X159450000Y-88232843D03*
X159450000Y-90772843D03*
X159450000Y-93312843D03*
X159450000Y-95852843D03*
X159450000Y-98392843D03*
X167070000Y-98392843D03*
X167070000Y-95852843D03*
X167070000Y-93312843D03*
X167070000Y-90772843D03*
X167070000Y-88232843D03*
X167070000Y-85692843D03*
X167070000Y-83152843D03*
%TD*%
D10*
%TO.C,74HC1*%
X128830000Y-83112843D03*
D11*
X128830000Y-85652843D03*
X128830000Y-88192843D03*
X128830000Y-90732843D03*
X128830000Y-93272843D03*
X128830000Y-95812843D03*
X128830000Y-98352843D03*
X136450000Y-98352843D03*
X136450000Y-95812843D03*
X136450000Y-93272843D03*
X136450000Y-90732843D03*
X136450000Y-88192843D03*
X136450000Y-85652843D03*
X136450000Y-83112843D03*
%TD*%
D10*
%TO.C,CD4*%
X143830000Y-101652843D03*
D11*
X143830000Y-104192843D03*
X143830000Y-106732843D03*
X143830000Y-109272843D03*
X143830000Y-111812843D03*
X143830000Y-114352843D03*
X143830000Y-116892843D03*
X151450000Y-116892843D03*
X151450000Y-114352843D03*
X151450000Y-111812843D03*
X151450000Y-109272843D03*
X151450000Y-106732843D03*
X151450000Y-104192843D03*
X151450000Y-101652843D03*
%TD*%
D10*
%TO.C,CD7*%
X174330000Y-101652843D03*
D11*
X174330000Y-104192843D03*
X174330000Y-106732843D03*
X174330000Y-109272843D03*
X174330000Y-111812843D03*
X174330000Y-114352843D03*
X174330000Y-116892843D03*
X181950000Y-116892843D03*
X181950000Y-114352843D03*
X181950000Y-111812843D03*
X181950000Y-109272843D03*
X181950000Y-106732843D03*
X181950000Y-104192843D03*
X181950000Y-101652843D03*
%TD*%
D10*
%TO.C,CD6*%
X174330000Y-83152843D03*
D11*
X174330000Y-85692843D03*
X174330000Y-88232843D03*
X174330000Y-90772843D03*
X174330000Y-93312843D03*
X174330000Y-95852843D03*
X174330000Y-98392843D03*
X181950000Y-98392843D03*
X181950000Y-95852843D03*
X181950000Y-93312843D03*
X181950000Y-90772843D03*
X181950000Y-88232843D03*
X181950000Y-85692843D03*
X181950000Y-83152843D03*
%TD*%
D10*
%TO.C,CD3*%
X128830000Y-101652843D03*
D11*
X128830000Y-104192843D03*
X128830000Y-106732843D03*
X128830000Y-109272843D03*
X128830000Y-111812843D03*
X128830000Y-114352843D03*
X128830000Y-116892843D03*
X136450000Y-116892843D03*
X136450000Y-114352843D03*
X136450000Y-111812843D03*
X136450000Y-109272843D03*
X136450000Y-106732843D03*
X136450000Y-104192843D03*
X136450000Y-101652843D03*
%TD*%
D12*
%TO.C,J1*%
X132840000Y-78802843D03*
D13*
X135380000Y-78802843D03*
X137920000Y-78802843D03*
X140460000Y-78802843D03*
X143000000Y-78802843D03*
X145540000Y-78802843D03*
X148080000Y-78802843D03*
X150620000Y-78802843D03*
X153160000Y-78802843D03*
%TD*%
D10*
%TO.C,CD1*%
X143830000Y-83112843D03*
D11*
X143830000Y-85652843D03*
X143830000Y-88192843D03*
X143830000Y-90732843D03*
X143830000Y-93272843D03*
X143830000Y-95812843D03*
X143830000Y-98352843D03*
X151450000Y-98352843D03*
X151450000Y-95812843D03*
X151450000Y-93272843D03*
X151450000Y-90732843D03*
X151450000Y-88192843D03*
X151450000Y-85652843D03*
X151450000Y-83112843D03*
%TD*%
D12*
%TO.C,J4*%
X158725000Y-78802843D03*
D13*
X161265000Y-78802843D03*
%TD*%
D12*
%TO.C,J2*%
X140180000Y-121802843D03*
D13*
X142720000Y-121802843D03*
X145260000Y-121802843D03*
X147800000Y-121802843D03*
X150340000Y-121802843D03*
X152880000Y-121802843D03*
X155420000Y-121802843D03*
X157960000Y-121802843D03*
X160500000Y-121802843D03*
X163040000Y-121802843D03*
X165580000Y-121802843D03*
X168120000Y-121802843D03*
X170660000Y-121802843D03*
X173200000Y-121802843D03*
%TD*%
M02*
