%TF.GenerationSoftware,KiCad,Pcbnew,8.0.4*%
%TF.CreationDate,2024-10-19T17:10:43-04:00*%
%TF.ProjectId,Logic PCB,4c6f6769-6320-4504-9342-2e6b69636164,rev?*%
%TF.SameCoordinates,Original*%
%TF.FileFunction,Legend,Bot*%
%TF.FilePolarity,Positive*%
%FSLAX46Y46*%
G04 Gerber Fmt 4.6, Leading zero omitted, Abs format (unit mm)*
G04 Created by KiCad (PCBNEW 8.0.4) date 2024-10-19 17:10:43*
%MOMM*%
%LPD*%
G01*
G04 APERTURE LIST*
%ADD10C,0.100000*%
%ADD11C,0.300000*%
G04 APERTURE END LIST*
D10*
X155707580Y-119446115D02*
X156707580Y-119446115D01*
X156707580Y-119446115D02*
X156707580Y-119208020D01*
X156707580Y-119208020D02*
X156659961Y-119065163D01*
X156659961Y-119065163D02*
X156564723Y-118969925D01*
X156564723Y-118969925D02*
X156469485Y-118922306D01*
X156469485Y-118922306D02*
X156279009Y-118874687D01*
X156279009Y-118874687D02*
X156136152Y-118874687D01*
X156136152Y-118874687D02*
X155945676Y-118922306D01*
X155945676Y-118922306D02*
X155850438Y-118969925D01*
X155850438Y-118969925D02*
X155755200Y-119065163D01*
X155755200Y-119065163D02*
X155707580Y-119208020D01*
X155707580Y-119208020D02*
X155707580Y-119446115D01*
X155755200Y-118493734D02*
X155707580Y-118350877D01*
X155707580Y-118350877D02*
X155707580Y-118112782D01*
X155707580Y-118112782D02*
X155755200Y-118017544D01*
X155755200Y-118017544D02*
X155802819Y-117969925D01*
X155802819Y-117969925D02*
X155898057Y-117922306D01*
X155898057Y-117922306D02*
X155993295Y-117922306D01*
X155993295Y-117922306D02*
X156088533Y-117969925D01*
X156088533Y-117969925D02*
X156136152Y-118017544D01*
X156136152Y-118017544D02*
X156183771Y-118112782D01*
X156183771Y-118112782D02*
X156231390Y-118303258D01*
X156231390Y-118303258D02*
X156279009Y-118398496D01*
X156279009Y-118398496D02*
X156326628Y-118446115D01*
X156326628Y-118446115D02*
X156421866Y-118493734D01*
X156421866Y-118493734D02*
X156517104Y-118493734D01*
X156517104Y-118493734D02*
X156612342Y-118446115D01*
X156612342Y-118446115D02*
X156659961Y-118398496D01*
X156659961Y-118398496D02*
X156707580Y-118303258D01*
X156707580Y-118303258D02*
X156707580Y-118065163D01*
X156707580Y-118065163D02*
X156659961Y-117922306D01*
X155707580Y-117493734D02*
X156374247Y-117493734D01*
X156183771Y-117493734D02*
X156279009Y-117446115D01*
X156279009Y-117446115D02*
X156326628Y-117398496D01*
X156326628Y-117398496D02*
X156374247Y-117303258D01*
X156374247Y-117303258D02*
X156374247Y-117208020D01*
X155755200Y-116446115D02*
X155707580Y-116541353D01*
X155707580Y-116541353D02*
X155707580Y-116731829D01*
X155707580Y-116731829D02*
X155755200Y-116827067D01*
X155755200Y-116827067D02*
X155802819Y-116874686D01*
X155802819Y-116874686D02*
X155898057Y-116922305D01*
X155898057Y-116922305D02*
X156183771Y-116922305D01*
X156183771Y-116922305D02*
X156279009Y-116874686D01*
X156279009Y-116874686D02*
X156326628Y-116827067D01*
X156326628Y-116827067D02*
X156374247Y-116731829D01*
X156374247Y-116731829D02*
X156374247Y-116541353D01*
X156374247Y-116541353D02*
X156326628Y-116446115D01*
X156231390Y-115255638D02*
X156231390Y-114493734D01*
X155945676Y-114493734D02*
X155945676Y-115255638D01*
X155993295Y-113303257D02*
X155993295Y-112827067D01*
X155707580Y-113398495D02*
X156707580Y-113065162D01*
X156707580Y-113065162D02*
X155707580Y-112731829D01*
X156985200Y-113393734D02*
X156985200Y-112736591D01*
X156231390Y-112065162D02*
X156183771Y-111922305D01*
X156183771Y-111922305D02*
X156136152Y-111874686D01*
X156136152Y-111874686D02*
X156040914Y-111827067D01*
X156040914Y-111827067D02*
X155898057Y-111827067D01*
X155898057Y-111827067D02*
X155802819Y-111874686D01*
X155802819Y-111874686D02*
X155755200Y-111922305D01*
X155755200Y-111922305D02*
X155707580Y-112017543D01*
X155707580Y-112017543D02*
X155707580Y-112398495D01*
X155707580Y-112398495D02*
X156707580Y-112398495D01*
X156707580Y-112398495D02*
X156707580Y-112065162D01*
X156707580Y-112065162D02*
X156659961Y-111969924D01*
X156659961Y-111969924D02*
X156612342Y-111922305D01*
X156612342Y-111922305D02*
X156517104Y-111874686D01*
X156517104Y-111874686D02*
X156421866Y-111874686D01*
X156421866Y-111874686D02*
X156326628Y-111922305D01*
X156326628Y-111922305D02*
X156279009Y-111969924D01*
X156279009Y-111969924D02*
X156231390Y-112065162D01*
X156231390Y-112065162D02*
X156231390Y-112398495D01*
X156985200Y-112536591D02*
X156985200Y-111736591D01*
X155802819Y-110827067D02*
X155755200Y-110874686D01*
X155755200Y-110874686D02*
X155707580Y-111017543D01*
X155707580Y-111017543D02*
X155707580Y-111112781D01*
X155707580Y-111112781D02*
X155755200Y-111255638D01*
X155755200Y-111255638D02*
X155850438Y-111350876D01*
X155850438Y-111350876D02*
X155945676Y-111398495D01*
X155945676Y-111398495D02*
X156136152Y-111446114D01*
X156136152Y-111446114D02*
X156279009Y-111446114D01*
X156279009Y-111446114D02*
X156469485Y-111398495D01*
X156469485Y-111398495D02*
X156564723Y-111350876D01*
X156564723Y-111350876D02*
X156659961Y-111255638D01*
X156659961Y-111255638D02*
X156707580Y-111112781D01*
X156707580Y-111112781D02*
X156707580Y-111017543D01*
X156707580Y-111017543D02*
X156659961Y-110874686D01*
X156659961Y-110874686D02*
X156612342Y-110827067D01*
X156985200Y-111536591D02*
X156985200Y-110736591D01*
X155707580Y-110398495D02*
X156707580Y-110398495D01*
X156707580Y-110398495D02*
X156707580Y-110160400D01*
X156707580Y-110160400D02*
X156659961Y-110017543D01*
X156659961Y-110017543D02*
X156564723Y-109922305D01*
X156564723Y-109922305D02*
X156469485Y-109874686D01*
X156469485Y-109874686D02*
X156279009Y-109827067D01*
X156279009Y-109827067D02*
X156136152Y-109827067D01*
X156136152Y-109827067D02*
X155945676Y-109874686D01*
X155945676Y-109874686D02*
X155850438Y-109922305D01*
X155850438Y-109922305D02*
X155755200Y-110017543D01*
X155755200Y-110017543D02*
X155707580Y-110160400D01*
X155707580Y-110160400D02*
X155707580Y-110398495D01*
X156985200Y-110536591D02*
X156985200Y-109736591D01*
X154097636Y-119446115D02*
X155097636Y-119446115D01*
X155097636Y-119446115D02*
X154383351Y-119112782D01*
X154383351Y-119112782D02*
X155097636Y-118779449D01*
X155097636Y-118779449D02*
X154097636Y-118779449D01*
X154145256Y-117922306D02*
X154097636Y-118017544D01*
X154097636Y-118017544D02*
X154097636Y-118208020D01*
X154097636Y-118208020D02*
X154145256Y-118303258D01*
X154145256Y-118303258D02*
X154240494Y-118350877D01*
X154240494Y-118350877D02*
X154621446Y-118350877D01*
X154621446Y-118350877D02*
X154716684Y-118303258D01*
X154716684Y-118303258D02*
X154764303Y-118208020D01*
X154764303Y-118208020D02*
X154764303Y-118017544D01*
X154764303Y-118017544D02*
X154716684Y-117922306D01*
X154716684Y-117922306D02*
X154621446Y-117874687D01*
X154621446Y-117874687D02*
X154526208Y-117874687D01*
X154526208Y-117874687D02*
X154430970Y-118350877D01*
X154097636Y-117446115D02*
X154764303Y-117446115D01*
X154669065Y-117446115D02*
X154716684Y-117398496D01*
X154716684Y-117398496D02*
X154764303Y-117303258D01*
X154764303Y-117303258D02*
X154764303Y-117160401D01*
X154764303Y-117160401D02*
X154716684Y-117065163D01*
X154716684Y-117065163D02*
X154621446Y-117017544D01*
X154621446Y-117017544D02*
X154097636Y-117017544D01*
X154621446Y-117017544D02*
X154716684Y-116969925D01*
X154716684Y-116969925D02*
X154764303Y-116874687D01*
X154764303Y-116874687D02*
X154764303Y-116731830D01*
X154764303Y-116731830D02*
X154716684Y-116636591D01*
X154716684Y-116636591D02*
X154621446Y-116588972D01*
X154621446Y-116588972D02*
X154097636Y-116588972D01*
X155097636Y-116208020D02*
X154097636Y-115969925D01*
X154097636Y-115969925D02*
X154811922Y-115779449D01*
X154811922Y-115779449D02*
X154097636Y-115588973D01*
X154097636Y-115588973D02*
X155097636Y-115350878D01*
X154097636Y-114969925D02*
X154764303Y-114969925D01*
X154573827Y-114969925D02*
X154669065Y-114922306D01*
X154669065Y-114922306D02*
X154716684Y-114874687D01*
X154716684Y-114874687D02*
X154764303Y-114779449D01*
X154764303Y-114779449D02*
X154764303Y-114684211D01*
X154097636Y-114350877D02*
X154764303Y-114350877D01*
X155097636Y-114350877D02*
X155050017Y-114398496D01*
X155050017Y-114398496D02*
X155002398Y-114350877D01*
X155002398Y-114350877D02*
X155050017Y-114303258D01*
X155050017Y-114303258D02*
X155097636Y-114350877D01*
X155097636Y-114350877D02*
X155002398Y-114350877D01*
X154764303Y-114017544D02*
X154764303Y-113636592D01*
X155097636Y-113874687D02*
X154240494Y-113874687D01*
X154240494Y-113874687D02*
X154145256Y-113827068D01*
X154145256Y-113827068D02*
X154097636Y-113731830D01*
X154097636Y-113731830D02*
X154097636Y-113636592D01*
X154145256Y-112922306D02*
X154097636Y-113017544D01*
X154097636Y-113017544D02*
X154097636Y-113208020D01*
X154097636Y-113208020D02*
X154145256Y-113303258D01*
X154145256Y-113303258D02*
X154240494Y-113350877D01*
X154240494Y-113350877D02*
X154621446Y-113350877D01*
X154621446Y-113350877D02*
X154716684Y-113303258D01*
X154716684Y-113303258D02*
X154764303Y-113208020D01*
X154764303Y-113208020D02*
X154764303Y-113017544D01*
X154764303Y-113017544D02*
X154716684Y-112922306D01*
X154716684Y-112922306D02*
X154621446Y-112874687D01*
X154621446Y-112874687D02*
X154526208Y-112874687D01*
X154526208Y-112874687D02*
X154430970Y-113350877D01*
X154621446Y-111684210D02*
X154621446Y-110922306D01*
X154335732Y-110922306D02*
X154335732Y-111684210D01*
X154383351Y-109731829D02*
X154383351Y-109255639D01*
X154097636Y-109827067D02*
X155097636Y-109493734D01*
X155097636Y-109493734D02*
X154097636Y-109160401D01*
X155375256Y-109822306D02*
X155375256Y-109165163D01*
X154621446Y-108493734D02*
X154573827Y-108350877D01*
X154573827Y-108350877D02*
X154526208Y-108303258D01*
X154526208Y-108303258D02*
X154430970Y-108255639D01*
X154430970Y-108255639D02*
X154288113Y-108255639D01*
X154288113Y-108255639D02*
X154192875Y-108303258D01*
X154192875Y-108303258D02*
X154145256Y-108350877D01*
X154145256Y-108350877D02*
X154097636Y-108446115D01*
X154097636Y-108446115D02*
X154097636Y-108827067D01*
X154097636Y-108827067D02*
X155097636Y-108827067D01*
X155097636Y-108827067D02*
X155097636Y-108493734D01*
X155097636Y-108493734D02*
X155050017Y-108398496D01*
X155050017Y-108398496D02*
X155002398Y-108350877D01*
X155002398Y-108350877D02*
X154907160Y-108303258D01*
X154907160Y-108303258D02*
X154811922Y-108303258D01*
X154811922Y-108303258D02*
X154716684Y-108350877D01*
X154716684Y-108350877D02*
X154669065Y-108398496D01*
X154669065Y-108398496D02*
X154621446Y-108493734D01*
X154621446Y-108493734D02*
X154621446Y-108827067D01*
X155375256Y-108965163D02*
X155375256Y-108165163D01*
X153716684Y-107541353D02*
X153764303Y-107588972D01*
X153764303Y-107588972D02*
X153907160Y-107684210D01*
X153907160Y-107684210D02*
X154002398Y-107731829D01*
X154002398Y-107731829D02*
X154145256Y-107779448D01*
X154145256Y-107779448D02*
X154383351Y-107827067D01*
X154383351Y-107827067D02*
X154573827Y-107827067D01*
X154573827Y-107827067D02*
X154811922Y-107779448D01*
X154811922Y-107779448D02*
X154954779Y-107731829D01*
X154954779Y-107731829D02*
X155050017Y-107684210D01*
X155050017Y-107684210D02*
X155192875Y-107588972D01*
X155192875Y-107588972D02*
X155240494Y-107541353D01*
X154192875Y-106588972D02*
X154145256Y-106636591D01*
X154145256Y-106636591D02*
X154097636Y-106779448D01*
X154097636Y-106779448D02*
X154097636Y-106874686D01*
X154097636Y-106874686D02*
X154145256Y-107017543D01*
X154145256Y-107017543D02*
X154240494Y-107112781D01*
X154240494Y-107112781D02*
X154335732Y-107160400D01*
X154335732Y-107160400D02*
X154526208Y-107208019D01*
X154526208Y-107208019D02*
X154669065Y-107208019D01*
X154669065Y-107208019D02*
X154859541Y-107160400D01*
X154859541Y-107160400D02*
X154954779Y-107112781D01*
X154954779Y-107112781D02*
X155050017Y-107017543D01*
X155050017Y-107017543D02*
X155097636Y-106874686D01*
X155097636Y-106874686D02*
X155097636Y-106779448D01*
X155097636Y-106779448D02*
X155050017Y-106636591D01*
X155050017Y-106636591D02*
X155002398Y-106588972D01*
X154478589Y-106160400D02*
X154478589Y-105398496D01*
X154097636Y-105779448D02*
X154859541Y-105779448D01*
X154097636Y-104922305D02*
X155097636Y-104922305D01*
X155097636Y-104922305D02*
X155097636Y-104684210D01*
X155097636Y-104684210D02*
X155050017Y-104541353D01*
X155050017Y-104541353D02*
X154954779Y-104446115D01*
X154954779Y-104446115D02*
X154859541Y-104398496D01*
X154859541Y-104398496D02*
X154669065Y-104350877D01*
X154669065Y-104350877D02*
X154526208Y-104350877D01*
X154526208Y-104350877D02*
X154335732Y-104398496D01*
X154335732Y-104398496D02*
X154240494Y-104446115D01*
X154240494Y-104446115D02*
X154145256Y-104541353D01*
X154145256Y-104541353D02*
X154097636Y-104684210D01*
X154097636Y-104684210D02*
X154097636Y-104922305D01*
X153716684Y-104017543D02*
X153764303Y-103969924D01*
X153764303Y-103969924D02*
X153907160Y-103874686D01*
X153907160Y-103874686D02*
X154002398Y-103827067D01*
X154002398Y-103827067D02*
X154145256Y-103779448D01*
X154145256Y-103779448D02*
X154383351Y-103731829D01*
X154383351Y-103731829D02*
X154573827Y-103731829D01*
X154573827Y-103731829D02*
X154811922Y-103779448D01*
X154811922Y-103779448D02*
X154954779Y-103827067D01*
X154954779Y-103827067D02*
X155050017Y-103874686D01*
X155050017Y-103874686D02*
X155192875Y-103969924D01*
X155192875Y-103969924D02*
X155240494Y-104017543D01*
X178707580Y-123088972D02*
X178707580Y-122517544D01*
X177707580Y-122803258D02*
X178707580Y-122803258D01*
X177707580Y-122184210D02*
X178707580Y-122184210D01*
X177707580Y-121755639D02*
X178231390Y-121755639D01*
X178231390Y-121755639D02*
X178326628Y-121803258D01*
X178326628Y-121803258D02*
X178374247Y-121898496D01*
X178374247Y-121898496D02*
X178374247Y-122041353D01*
X178374247Y-122041353D02*
X178326628Y-122136591D01*
X178326628Y-122136591D02*
X178279009Y-122184210D01*
X177755200Y-120898496D02*
X177707580Y-120993734D01*
X177707580Y-120993734D02*
X177707580Y-121184210D01*
X177707580Y-121184210D02*
X177755200Y-121279448D01*
X177755200Y-121279448D02*
X177850438Y-121327067D01*
X177850438Y-121327067D02*
X178231390Y-121327067D01*
X178231390Y-121327067D02*
X178326628Y-121279448D01*
X178326628Y-121279448D02*
X178374247Y-121184210D01*
X178374247Y-121184210D02*
X178374247Y-120993734D01*
X178374247Y-120993734D02*
X178326628Y-120898496D01*
X178326628Y-120898496D02*
X178231390Y-120850877D01*
X178231390Y-120850877D02*
X178136152Y-120850877D01*
X178136152Y-120850877D02*
X178040914Y-121327067D01*
X177755200Y-120469924D02*
X177707580Y-120374686D01*
X177707580Y-120374686D02*
X177707580Y-120184210D01*
X177707580Y-120184210D02*
X177755200Y-120088972D01*
X177755200Y-120088972D02*
X177850438Y-120041353D01*
X177850438Y-120041353D02*
X177898057Y-120041353D01*
X177898057Y-120041353D02*
X177993295Y-120088972D01*
X177993295Y-120088972D02*
X178040914Y-120184210D01*
X178040914Y-120184210D02*
X178040914Y-120327067D01*
X178040914Y-120327067D02*
X178088533Y-120422305D01*
X178088533Y-120422305D02*
X178183771Y-120469924D01*
X178183771Y-120469924D02*
X178231390Y-120469924D01*
X178231390Y-120469924D02*
X178326628Y-120422305D01*
X178326628Y-120422305D02*
X178374247Y-120327067D01*
X178374247Y-120327067D02*
X178374247Y-120184210D01*
X178374247Y-120184210D02*
X178326628Y-120088972D01*
X177755200Y-119231829D02*
X177707580Y-119327067D01*
X177707580Y-119327067D02*
X177707580Y-119517543D01*
X177707580Y-119517543D02*
X177755200Y-119612781D01*
X177755200Y-119612781D02*
X177850438Y-119660400D01*
X177850438Y-119660400D02*
X178231390Y-119660400D01*
X178231390Y-119660400D02*
X178326628Y-119612781D01*
X178326628Y-119612781D02*
X178374247Y-119517543D01*
X178374247Y-119517543D02*
X178374247Y-119327067D01*
X178374247Y-119327067D02*
X178326628Y-119231829D01*
X178326628Y-119231829D02*
X178231390Y-119184210D01*
X178231390Y-119184210D02*
X178136152Y-119184210D01*
X178136152Y-119184210D02*
X178040914Y-119660400D01*
X177707580Y-117850876D02*
X177755200Y-117946114D01*
X177755200Y-117946114D02*
X177850438Y-117993733D01*
X177850438Y-117993733D02*
X178707580Y-117993733D01*
X177707580Y-117327066D02*
X177755200Y-117422304D01*
X177755200Y-117422304D02*
X177802819Y-117469923D01*
X177802819Y-117469923D02*
X177898057Y-117517542D01*
X177898057Y-117517542D02*
X178183771Y-117517542D01*
X178183771Y-117517542D02*
X178279009Y-117469923D01*
X178279009Y-117469923D02*
X178326628Y-117422304D01*
X178326628Y-117422304D02*
X178374247Y-117327066D01*
X178374247Y-117327066D02*
X178374247Y-117184209D01*
X178374247Y-117184209D02*
X178326628Y-117088971D01*
X178326628Y-117088971D02*
X178279009Y-117041352D01*
X178279009Y-117041352D02*
X178183771Y-116993733D01*
X178183771Y-116993733D02*
X177898057Y-116993733D01*
X177898057Y-116993733D02*
X177802819Y-117041352D01*
X177802819Y-117041352D02*
X177755200Y-117088971D01*
X177755200Y-117088971D02*
X177707580Y-117184209D01*
X177707580Y-117184209D02*
X177707580Y-117327066D01*
X178374247Y-116136590D02*
X177564723Y-116136590D01*
X177564723Y-116136590D02*
X177469485Y-116184209D01*
X177469485Y-116184209D02*
X177421866Y-116231828D01*
X177421866Y-116231828D02*
X177374247Y-116327066D01*
X177374247Y-116327066D02*
X177374247Y-116469923D01*
X177374247Y-116469923D02*
X177421866Y-116565161D01*
X177755200Y-116136590D02*
X177707580Y-116231828D01*
X177707580Y-116231828D02*
X177707580Y-116422304D01*
X177707580Y-116422304D02*
X177755200Y-116517542D01*
X177755200Y-116517542D02*
X177802819Y-116565161D01*
X177802819Y-116565161D02*
X177898057Y-116612780D01*
X177898057Y-116612780D02*
X178183771Y-116612780D01*
X178183771Y-116612780D02*
X178279009Y-116565161D01*
X178279009Y-116565161D02*
X178326628Y-116517542D01*
X178326628Y-116517542D02*
X178374247Y-116422304D01*
X178374247Y-116422304D02*
X178374247Y-116231828D01*
X178374247Y-116231828D02*
X178326628Y-116136590D01*
X177707580Y-115660399D02*
X178374247Y-115660399D01*
X178707580Y-115660399D02*
X178659961Y-115708018D01*
X178659961Y-115708018D02*
X178612342Y-115660399D01*
X178612342Y-115660399D02*
X178659961Y-115612780D01*
X178659961Y-115612780D02*
X178707580Y-115660399D01*
X178707580Y-115660399D02*
X178612342Y-115660399D01*
X177755200Y-114755638D02*
X177707580Y-114850876D01*
X177707580Y-114850876D02*
X177707580Y-115041352D01*
X177707580Y-115041352D02*
X177755200Y-115136590D01*
X177755200Y-115136590D02*
X177802819Y-115184209D01*
X177802819Y-115184209D02*
X177898057Y-115231828D01*
X177898057Y-115231828D02*
X178183771Y-115231828D01*
X178183771Y-115231828D02*
X178279009Y-115184209D01*
X178279009Y-115184209D02*
X178326628Y-115136590D01*
X178326628Y-115136590D02*
X178374247Y-115041352D01*
X178374247Y-115041352D02*
X178374247Y-114850876D01*
X178374247Y-114850876D02*
X178326628Y-114755638D01*
X178374247Y-113136590D02*
X177564723Y-113136590D01*
X177564723Y-113136590D02*
X177469485Y-113184209D01*
X177469485Y-113184209D02*
X177421866Y-113231828D01*
X177421866Y-113231828D02*
X177374247Y-113327066D01*
X177374247Y-113327066D02*
X177374247Y-113469923D01*
X177374247Y-113469923D02*
X177421866Y-113565161D01*
X177755200Y-113136590D02*
X177707580Y-113231828D01*
X177707580Y-113231828D02*
X177707580Y-113422304D01*
X177707580Y-113422304D02*
X177755200Y-113517542D01*
X177755200Y-113517542D02*
X177802819Y-113565161D01*
X177802819Y-113565161D02*
X177898057Y-113612780D01*
X177898057Y-113612780D02*
X178183771Y-113612780D01*
X178183771Y-113612780D02*
X178279009Y-113565161D01*
X178279009Y-113565161D02*
X178326628Y-113517542D01*
X178326628Y-113517542D02*
X178374247Y-113422304D01*
X178374247Y-113422304D02*
X178374247Y-113231828D01*
X178374247Y-113231828D02*
X178326628Y-113136590D01*
X177707580Y-112231828D02*
X178231390Y-112231828D01*
X178231390Y-112231828D02*
X178326628Y-112279447D01*
X178326628Y-112279447D02*
X178374247Y-112374685D01*
X178374247Y-112374685D02*
X178374247Y-112565161D01*
X178374247Y-112565161D02*
X178326628Y-112660399D01*
X177755200Y-112231828D02*
X177707580Y-112327066D01*
X177707580Y-112327066D02*
X177707580Y-112565161D01*
X177707580Y-112565161D02*
X177755200Y-112660399D01*
X177755200Y-112660399D02*
X177850438Y-112708018D01*
X177850438Y-112708018D02*
X177945676Y-112708018D01*
X177945676Y-112708018D02*
X178040914Y-112660399D01*
X178040914Y-112660399D02*
X178088533Y-112565161D01*
X178088533Y-112565161D02*
X178088533Y-112327066D01*
X178088533Y-112327066D02*
X178136152Y-112231828D01*
X178374247Y-111898494D02*
X178374247Y-111517542D01*
X178707580Y-111755637D02*
X177850438Y-111755637D01*
X177850438Y-111755637D02*
X177755200Y-111708018D01*
X177755200Y-111708018D02*
X177707580Y-111612780D01*
X177707580Y-111612780D02*
X177707580Y-111517542D01*
X177755200Y-110803256D02*
X177707580Y-110898494D01*
X177707580Y-110898494D02*
X177707580Y-111088970D01*
X177707580Y-111088970D02*
X177755200Y-111184208D01*
X177755200Y-111184208D02*
X177850438Y-111231827D01*
X177850438Y-111231827D02*
X178231390Y-111231827D01*
X178231390Y-111231827D02*
X178326628Y-111184208D01*
X178326628Y-111184208D02*
X178374247Y-111088970D01*
X178374247Y-111088970D02*
X178374247Y-110898494D01*
X178374247Y-110898494D02*
X178326628Y-110803256D01*
X178326628Y-110803256D02*
X178231390Y-110755637D01*
X178231390Y-110755637D02*
X178136152Y-110755637D01*
X178136152Y-110755637D02*
X178040914Y-111231827D01*
X177755200Y-110374684D02*
X177707580Y-110279446D01*
X177707580Y-110279446D02*
X177707580Y-110088970D01*
X177707580Y-110088970D02*
X177755200Y-109993732D01*
X177755200Y-109993732D02*
X177850438Y-109946113D01*
X177850438Y-109946113D02*
X177898057Y-109946113D01*
X177898057Y-109946113D02*
X177993295Y-109993732D01*
X177993295Y-109993732D02*
X178040914Y-110088970D01*
X178040914Y-110088970D02*
X178040914Y-110231827D01*
X178040914Y-110231827D02*
X178088533Y-110327065D01*
X178088533Y-110327065D02*
X178183771Y-110374684D01*
X178183771Y-110374684D02*
X178231390Y-110374684D01*
X178231390Y-110374684D02*
X178326628Y-110327065D01*
X178326628Y-110327065D02*
X178374247Y-110231827D01*
X178374247Y-110231827D02*
X178374247Y-110088970D01*
X178374247Y-110088970D02*
X178326628Y-109993732D01*
X178374247Y-108327065D02*
X177564723Y-108327065D01*
X177564723Y-108327065D02*
X177469485Y-108374684D01*
X177469485Y-108374684D02*
X177421866Y-108422303D01*
X177421866Y-108422303D02*
X177374247Y-108517541D01*
X177374247Y-108517541D02*
X177374247Y-108660398D01*
X177374247Y-108660398D02*
X177421866Y-108755636D01*
X177755200Y-108327065D02*
X177707580Y-108422303D01*
X177707580Y-108422303D02*
X177707580Y-108612779D01*
X177707580Y-108612779D02*
X177755200Y-108708017D01*
X177755200Y-108708017D02*
X177802819Y-108755636D01*
X177802819Y-108755636D02*
X177898057Y-108803255D01*
X177898057Y-108803255D02*
X178183771Y-108803255D01*
X178183771Y-108803255D02*
X178279009Y-108755636D01*
X178279009Y-108755636D02*
X178326628Y-108708017D01*
X178326628Y-108708017D02*
X178374247Y-108612779D01*
X178374247Y-108612779D02*
X178374247Y-108422303D01*
X178374247Y-108422303D02*
X178326628Y-108327065D01*
X177755200Y-107469922D02*
X177707580Y-107565160D01*
X177707580Y-107565160D02*
X177707580Y-107755636D01*
X177707580Y-107755636D02*
X177755200Y-107850874D01*
X177755200Y-107850874D02*
X177850438Y-107898493D01*
X177850438Y-107898493D02*
X178231390Y-107898493D01*
X178231390Y-107898493D02*
X178326628Y-107850874D01*
X178326628Y-107850874D02*
X178374247Y-107755636D01*
X178374247Y-107755636D02*
X178374247Y-107565160D01*
X178374247Y-107565160D02*
X178326628Y-107469922D01*
X178326628Y-107469922D02*
X178231390Y-107422303D01*
X178231390Y-107422303D02*
X178136152Y-107422303D01*
X178136152Y-107422303D02*
X178040914Y-107898493D01*
X178374247Y-106993731D02*
X177707580Y-106993731D01*
X178279009Y-106993731D02*
X178326628Y-106946112D01*
X178326628Y-106946112D02*
X178374247Y-106850874D01*
X178374247Y-106850874D02*
X178374247Y-106708017D01*
X178374247Y-106708017D02*
X178326628Y-106612779D01*
X178326628Y-106612779D02*
X178231390Y-106565160D01*
X178231390Y-106565160D02*
X177707580Y-106565160D01*
X177755200Y-105708017D02*
X177707580Y-105803255D01*
X177707580Y-105803255D02*
X177707580Y-105993731D01*
X177707580Y-105993731D02*
X177755200Y-106088969D01*
X177755200Y-106088969D02*
X177850438Y-106136588D01*
X177850438Y-106136588D02*
X178231390Y-106136588D01*
X178231390Y-106136588D02*
X178326628Y-106088969D01*
X178326628Y-106088969D02*
X178374247Y-105993731D01*
X178374247Y-105993731D02*
X178374247Y-105803255D01*
X178374247Y-105803255D02*
X178326628Y-105708017D01*
X178326628Y-105708017D02*
X178231390Y-105660398D01*
X178231390Y-105660398D02*
X178136152Y-105660398D01*
X178136152Y-105660398D02*
X178040914Y-106136588D01*
X177707580Y-105231826D02*
X178374247Y-105231826D01*
X178183771Y-105231826D02*
X178279009Y-105184207D01*
X178279009Y-105184207D02*
X178326628Y-105136588D01*
X178326628Y-105136588D02*
X178374247Y-105041350D01*
X178374247Y-105041350D02*
X178374247Y-104946112D01*
X177707580Y-104184207D02*
X178231390Y-104184207D01*
X178231390Y-104184207D02*
X178326628Y-104231826D01*
X178326628Y-104231826D02*
X178374247Y-104327064D01*
X178374247Y-104327064D02*
X178374247Y-104517540D01*
X178374247Y-104517540D02*
X178326628Y-104612778D01*
X177755200Y-104184207D02*
X177707580Y-104279445D01*
X177707580Y-104279445D02*
X177707580Y-104517540D01*
X177707580Y-104517540D02*
X177755200Y-104612778D01*
X177755200Y-104612778D02*
X177850438Y-104660397D01*
X177850438Y-104660397D02*
X177945676Y-104660397D01*
X177945676Y-104660397D02*
X178040914Y-104612778D01*
X178040914Y-104612778D02*
X178088533Y-104517540D01*
X178088533Y-104517540D02*
X178088533Y-104279445D01*
X178088533Y-104279445D02*
X178136152Y-104184207D01*
X178374247Y-103850873D02*
X178374247Y-103469921D01*
X178707580Y-103708016D02*
X177850438Y-103708016D01*
X177850438Y-103708016D02*
X177755200Y-103660397D01*
X177755200Y-103660397D02*
X177707580Y-103565159D01*
X177707580Y-103565159D02*
X177707580Y-103469921D01*
X177755200Y-102755635D02*
X177707580Y-102850873D01*
X177707580Y-102850873D02*
X177707580Y-103041349D01*
X177707580Y-103041349D02*
X177755200Y-103136587D01*
X177755200Y-103136587D02*
X177850438Y-103184206D01*
X177850438Y-103184206D02*
X178231390Y-103184206D01*
X178231390Y-103184206D02*
X178326628Y-103136587D01*
X178326628Y-103136587D02*
X178374247Y-103041349D01*
X178374247Y-103041349D02*
X178374247Y-102850873D01*
X178374247Y-102850873D02*
X178326628Y-102755635D01*
X178326628Y-102755635D02*
X178231390Y-102708016D01*
X178231390Y-102708016D02*
X178136152Y-102708016D01*
X178136152Y-102708016D02*
X178040914Y-103184206D01*
X177755200Y-101565158D02*
X177707580Y-101469920D01*
X177707580Y-101469920D02*
X177707580Y-101279444D01*
X177707580Y-101279444D02*
X177755200Y-101184206D01*
X177755200Y-101184206D02*
X177850438Y-101136587D01*
X177850438Y-101136587D02*
X177898057Y-101136587D01*
X177898057Y-101136587D02*
X177993295Y-101184206D01*
X177993295Y-101184206D02*
X178040914Y-101279444D01*
X178040914Y-101279444D02*
X178040914Y-101422301D01*
X178040914Y-101422301D02*
X178088533Y-101517539D01*
X178088533Y-101517539D02*
X178183771Y-101565158D01*
X178183771Y-101565158D02*
X178231390Y-101565158D01*
X178231390Y-101565158D02*
X178326628Y-101517539D01*
X178326628Y-101517539D02*
X178374247Y-101422301D01*
X178374247Y-101422301D02*
X178374247Y-101279444D01*
X178374247Y-101279444D02*
X178326628Y-101184206D01*
X177707580Y-100708015D02*
X178374247Y-100708015D01*
X178707580Y-100708015D02*
X178659961Y-100755634D01*
X178659961Y-100755634D02*
X178612342Y-100708015D01*
X178612342Y-100708015D02*
X178659961Y-100660396D01*
X178659961Y-100660396D02*
X178707580Y-100708015D01*
X178707580Y-100708015D02*
X178612342Y-100708015D01*
X178374247Y-99803254D02*
X177564723Y-99803254D01*
X177564723Y-99803254D02*
X177469485Y-99850873D01*
X177469485Y-99850873D02*
X177421866Y-99898492D01*
X177421866Y-99898492D02*
X177374247Y-99993730D01*
X177374247Y-99993730D02*
X177374247Y-100136587D01*
X177374247Y-100136587D02*
X177421866Y-100231825D01*
X177755200Y-99803254D02*
X177707580Y-99898492D01*
X177707580Y-99898492D02*
X177707580Y-100088968D01*
X177707580Y-100088968D02*
X177755200Y-100184206D01*
X177755200Y-100184206D02*
X177802819Y-100231825D01*
X177802819Y-100231825D02*
X177898057Y-100279444D01*
X177898057Y-100279444D02*
X178183771Y-100279444D01*
X178183771Y-100279444D02*
X178279009Y-100231825D01*
X178279009Y-100231825D02*
X178326628Y-100184206D01*
X178326628Y-100184206D02*
X178374247Y-100088968D01*
X178374247Y-100088968D02*
X178374247Y-99898492D01*
X178374247Y-99898492D02*
X178326628Y-99803254D01*
X178374247Y-99327063D02*
X177707580Y-99327063D01*
X178279009Y-99327063D02*
X178326628Y-99279444D01*
X178326628Y-99279444D02*
X178374247Y-99184206D01*
X178374247Y-99184206D02*
X178374247Y-99041349D01*
X178374247Y-99041349D02*
X178326628Y-98946111D01*
X178326628Y-98946111D02*
X178231390Y-98898492D01*
X178231390Y-98898492D02*
X177707580Y-98898492D01*
X177707580Y-97993730D02*
X178231390Y-97993730D01*
X178231390Y-97993730D02*
X178326628Y-98041349D01*
X178326628Y-98041349D02*
X178374247Y-98136587D01*
X178374247Y-98136587D02*
X178374247Y-98327063D01*
X178374247Y-98327063D02*
X178326628Y-98422301D01*
X177755200Y-97993730D02*
X177707580Y-98088968D01*
X177707580Y-98088968D02*
X177707580Y-98327063D01*
X177707580Y-98327063D02*
X177755200Y-98422301D01*
X177755200Y-98422301D02*
X177850438Y-98469920D01*
X177850438Y-98469920D02*
X177945676Y-98469920D01*
X177945676Y-98469920D02*
X178040914Y-98422301D01*
X178040914Y-98422301D02*
X178088533Y-98327063D01*
X178088533Y-98327063D02*
X178088533Y-98088968D01*
X178088533Y-98088968D02*
X178136152Y-97993730D01*
X177707580Y-97374682D02*
X177755200Y-97469920D01*
X177755200Y-97469920D02*
X177850438Y-97517539D01*
X177850438Y-97517539D02*
X178707580Y-97517539D01*
X177755200Y-97041348D02*
X177707580Y-96946110D01*
X177707580Y-96946110D02*
X177707580Y-96755634D01*
X177707580Y-96755634D02*
X177755200Y-96660396D01*
X177755200Y-96660396D02*
X177850438Y-96612777D01*
X177850438Y-96612777D02*
X177898057Y-96612777D01*
X177898057Y-96612777D02*
X177993295Y-96660396D01*
X177993295Y-96660396D02*
X178040914Y-96755634D01*
X178040914Y-96755634D02*
X178040914Y-96898491D01*
X178040914Y-96898491D02*
X178088533Y-96993729D01*
X178088533Y-96993729D02*
X178183771Y-97041348D01*
X178183771Y-97041348D02*
X178231390Y-97041348D01*
X178231390Y-97041348D02*
X178326628Y-96993729D01*
X178326628Y-96993729D02*
X178374247Y-96898491D01*
X178374247Y-96898491D02*
X178374247Y-96755634D01*
X178374247Y-96755634D02*
X178326628Y-96660396D01*
X178374247Y-95565157D02*
X178374247Y-95184205D01*
X178707580Y-95422300D02*
X177850438Y-95422300D01*
X177850438Y-95422300D02*
X177755200Y-95374681D01*
X177755200Y-95374681D02*
X177707580Y-95279443D01*
X177707580Y-95279443D02*
X177707580Y-95184205D01*
X177707580Y-94850871D02*
X178707580Y-94850871D01*
X177707580Y-94422300D02*
X178231390Y-94422300D01*
X178231390Y-94422300D02*
X178326628Y-94469919D01*
X178326628Y-94469919D02*
X178374247Y-94565157D01*
X178374247Y-94565157D02*
X178374247Y-94708014D01*
X178374247Y-94708014D02*
X178326628Y-94803252D01*
X178326628Y-94803252D02*
X178279009Y-94850871D01*
X177707580Y-93517538D02*
X178231390Y-93517538D01*
X178231390Y-93517538D02*
X178326628Y-93565157D01*
X178326628Y-93565157D02*
X178374247Y-93660395D01*
X178374247Y-93660395D02*
X178374247Y-93850871D01*
X178374247Y-93850871D02*
X178326628Y-93946109D01*
X177755200Y-93517538D02*
X177707580Y-93612776D01*
X177707580Y-93612776D02*
X177707580Y-93850871D01*
X177707580Y-93850871D02*
X177755200Y-93946109D01*
X177755200Y-93946109D02*
X177850438Y-93993728D01*
X177850438Y-93993728D02*
X177945676Y-93993728D01*
X177945676Y-93993728D02*
X178040914Y-93946109D01*
X178040914Y-93946109D02*
X178088533Y-93850871D01*
X178088533Y-93850871D02*
X178088533Y-93612776D01*
X178088533Y-93612776D02*
X178136152Y-93517538D01*
X178374247Y-93184204D02*
X178374247Y-92803252D01*
X178707580Y-93041347D02*
X177850438Y-93041347D01*
X177850438Y-93041347D02*
X177755200Y-92993728D01*
X177755200Y-92993728D02*
X177707580Y-92898490D01*
X177707580Y-92898490D02*
X177707580Y-92803252D01*
X177755200Y-91279442D02*
X177707580Y-91374680D01*
X177707580Y-91374680D02*
X177707580Y-91565156D01*
X177707580Y-91565156D02*
X177755200Y-91660394D01*
X177755200Y-91660394D02*
X177802819Y-91708013D01*
X177802819Y-91708013D02*
X177898057Y-91755632D01*
X177898057Y-91755632D02*
X178183771Y-91755632D01*
X178183771Y-91755632D02*
X178279009Y-91708013D01*
X178279009Y-91708013D02*
X178326628Y-91660394D01*
X178326628Y-91660394D02*
X178374247Y-91565156D01*
X178374247Y-91565156D02*
X178374247Y-91374680D01*
X178374247Y-91374680D02*
X178326628Y-91279442D01*
X177707580Y-90708013D02*
X177755200Y-90803251D01*
X177755200Y-90803251D02*
X177802819Y-90850870D01*
X177802819Y-90850870D02*
X177898057Y-90898489D01*
X177898057Y-90898489D02*
X178183771Y-90898489D01*
X178183771Y-90898489D02*
X178279009Y-90850870D01*
X178279009Y-90850870D02*
X178326628Y-90803251D01*
X178326628Y-90803251D02*
X178374247Y-90708013D01*
X178374247Y-90708013D02*
X178374247Y-90565156D01*
X178374247Y-90565156D02*
X178326628Y-90469918D01*
X178326628Y-90469918D02*
X178279009Y-90422299D01*
X178279009Y-90422299D02*
X178183771Y-90374680D01*
X178183771Y-90374680D02*
X177898057Y-90374680D01*
X177898057Y-90374680D02*
X177802819Y-90422299D01*
X177802819Y-90422299D02*
X177755200Y-90469918D01*
X177755200Y-90469918D02*
X177707580Y-90565156D01*
X177707580Y-90565156D02*
X177707580Y-90708013D01*
X178374247Y-89946108D02*
X177707580Y-89946108D01*
X178279009Y-89946108D02*
X178326628Y-89898489D01*
X178326628Y-89898489D02*
X178374247Y-89803251D01*
X178374247Y-89803251D02*
X178374247Y-89660394D01*
X178374247Y-89660394D02*
X178326628Y-89565156D01*
X178326628Y-89565156D02*
X178231390Y-89517537D01*
X178231390Y-89517537D02*
X177707580Y-89517537D01*
X178374247Y-89184203D02*
X178374247Y-88803251D01*
X178707580Y-89041346D02*
X177850438Y-89041346D01*
X177850438Y-89041346D02*
X177755200Y-88993727D01*
X177755200Y-88993727D02*
X177707580Y-88898489D01*
X177707580Y-88898489D02*
X177707580Y-88803251D01*
X177707580Y-88469917D02*
X178374247Y-88469917D01*
X178183771Y-88469917D02*
X178279009Y-88422298D01*
X178279009Y-88422298D02*
X178326628Y-88374679D01*
X178326628Y-88374679D02*
X178374247Y-88279441D01*
X178374247Y-88279441D02*
X178374247Y-88184203D01*
X177707580Y-87708012D02*
X177755200Y-87803250D01*
X177755200Y-87803250D02*
X177802819Y-87850869D01*
X177802819Y-87850869D02*
X177898057Y-87898488D01*
X177898057Y-87898488D02*
X178183771Y-87898488D01*
X178183771Y-87898488D02*
X178279009Y-87850869D01*
X178279009Y-87850869D02*
X178326628Y-87803250D01*
X178326628Y-87803250D02*
X178374247Y-87708012D01*
X178374247Y-87708012D02*
X178374247Y-87565155D01*
X178374247Y-87565155D02*
X178326628Y-87469917D01*
X178326628Y-87469917D02*
X178279009Y-87422298D01*
X178279009Y-87422298D02*
X178183771Y-87374679D01*
X178183771Y-87374679D02*
X177898057Y-87374679D01*
X177898057Y-87374679D02*
X177802819Y-87422298D01*
X177802819Y-87422298D02*
X177755200Y-87469917D01*
X177755200Y-87469917D02*
X177707580Y-87565155D01*
X177707580Y-87565155D02*
X177707580Y-87708012D01*
X177707580Y-86803250D02*
X177755200Y-86898488D01*
X177755200Y-86898488D02*
X177850438Y-86946107D01*
X177850438Y-86946107D02*
X178707580Y-86946107D01*
X178374247Y-85803249D02*
X178374247Y-85422297D01*
X178707580Y-85660392D02*
X177850438Y-85660392D01*
X177850438Y-85660392D02*
X177755200Y-85612773D01*
X177755200Y-85612773D02*
X177707580Y-85517535D01*
X177707580Y-85517535D02*
X177707580Y-85422297D01*
X177707580Y-85088963D02*
X178707580Y-85088963D01*
X177707580Y-84660392D02*
X178231390Y-84660392D01*
X178231390Y-84660392D02*
X178326628Y-84708011D01*
X178326628Y-84708011D02*
X178374247Y-84803249D01*
X178374247Y-84803249D02*
X178374247Y-84946106D01*
X178374247Y-84946106D02*
X178326628Y-85041344D01*
X178326628Y-85041344D02*
X178279009Y-85088963D01*
X177755200Y-83803249D02*
X177707580Y-83898487D01*
X177707580Y-83898487D02*
X177707580Y-84088963D01*
X177707580Y-84088963D02*
X177755200Y-84184201D01*
X177755200Y-84184201D02*
X177850438Y-84231820D01*
X177850438Y-84231820D02*
X178231390Y-84231820D01*
X178231390Y-84231820D02*
X178326628Y-84184201D01*
X178326628Y-84184201D02*
X178374247Y-84088963D01*
X178374247Y-84088963D02*
X178374247Y-83898487D01*
X178374247Y-83898487D02*
X178326628Y-83803249D01*
X178326628Y-83803249D02*
X178231390Y-83755630D01*
X178231390Y-83755630D02*
X178136152Y-83755630D01*
X178136152Y-83755630D02*
X178040914Y-84231820D01*
X176764303Y-123088972D02*
X176764303Y-122708020D01*
X176097636Y-122946115D02*
X176954779Y-122946115D01*
X176954779Y-122946115D02*
X177050017Y-122898496D01*
X177050017Y-122898496D02*
X177097636Y-122803258D01*
X177097636Y-122803258D02*
X177097636Y-122708020D01*
X176097636Y-122231829D02*
X176145256Y-122327067D01*
X176145256Y-122327067D02*
X176240494Y-122374686D01*
X176240494Y-122374686D02*
X177097636Y-122374686D01*
X176097636Y-121708019D02*
X176145256Y-121803257D01*
X176145256Y-121803257D02*
X176192875Y-121850876D01*
X176192875Y-121850876D02*
X176288113Y-121898495D01*
X176288113Y-121898495D02*
X176573827Y-121898495D01*
X176573827Y-121898495D02*
X176669065Y-121850876D01*
X176669065Y-121850876D02*
X176716684Y-121803257D01*
X176716684Y-121803257D02*
X176764303Y-121708019D01*
X176764303Y-121708019D02*
X176764303Y-121565162D01*
X176764303Y-121565162D02*
X176716684Y-121469924D01*
X176716684Y-121469924D02*
X176669065Y-121422305D01*
X176669065Y-121422305D02*
X176573827Y-121374686D01*
X176573827Y-121374686D02*
X176288113Y-121374686D01*
X176288113Y-121374686D02*
X176192875Y-121422305D01*
X176192875Y-121422305D02*
X176145256Y-121469924D01*
X176145256Y-121469924D02*
X176097636Y-121565162D01*
X176097636Y-121565162D02*
X176097636Y-121708019D01*
X176764303Y-121041352D02*
X176097636Y-120850876D01*
X176097636Y-120850876D02*
X176573827Y-120660400D01*
X176573827Y-120660400D02*
X176097636Y-120469924D01*
X176097636Y-120469924D02*
X176764303Y-120279448D01*
X176097636Y-118993733D02*
X176145256Y-119088971D01*
X176145256Y-119088971D02*
X176192875Y-119136590D01*
X176192875Y-119136590D02*
X176288113Y-119184209D01*
X176288113Y-119184209D02*
X176573827Y-119184209D01*
X176573827Y-119184209D02*
X176669065Y-119136590D01*
X176669065Y-119136590D02*
X176716684Y-119088971D01*
X176716684Y-119088971D02*
X176764303Y-118993733D01*
X176764303Y-118993733D02*
X176764303Y-118850876D01*
X176764303Y-118850876D02*
X176716684Y-118755638D01*
X176716684Y-118755638D02*
X176669065Y-118708019D01*
X176669065Y-118708019D02*
X176573827Y-118660400D01*
X176573827Y-118660400D02*
X176288113Y-118660400D01*
X176288113Y-118660400D02*
X176192875Y-118708019D01*
X176192875Y-118708019D02*
X176145256Y-118755638D01*
X176145256Y-118755638D02*
X176097636Y-118850876D01*
X176097636Y-118850876D02*
X176097636Y-118993733D01*
X176764303Y-118374685D02*
X176764303Y-117993733D01*
X176097636Y-118231828D02*
X176954779Y-118231828D01*
X176954779Y-118231828D02*
X177050017Y-118184209D01*
X177050017Y-118184209D02*
X177097636Y-118088971D01*
X177097636Y-118088971D02*
X177097636Y-117993733D01*
X176097636Y-116469923D02*
X177097636Y-116469923D01*
X176145256Y-116469923D02*
X176097636Y-116565161D01*
X176097636Y-116565161D02*
X176097636Y-116755637D01*
X176097636Y-116755637D02*
X176145256Y-116850875D01*
X176145256Y-116850875D02*
X176192875Y-116898494D01*
X176192875Y-116898494D02*
X176288113Y-116946113D01*
X176288113Y-116946113D02*
X176573827Y-116946113D01*
X176573827Y-116946113D02*
X176669065Y-116898494D01*
X176669065Y-116898494D02*
X176716684Y-116850875D01*
X176716684Y-116850875D02*
X176764303Y-116755637D01*
X176764303Y-116755637D02*
X176764303Y-116565161D01*
X176764303Y-116565161D02*
X176716684Y-116469923D01*
X176097636Y-115565161D02*
X176621446Y-115565161D01*
X176621446Y-115565161D02*
X176716684Y-115612780D01*
X176716684Y-115612780D02*
X176764303Y-115708018D01*
X176764303Y-115708018D02*
X176764303Y-115898494D01*
X176764303Y-115898494D02*
X176716684Y-115993732D01*
X176145256Y-115565161D02*
X176097636Y-115660399D01*
X176097636Y-115660399D02*
X176097636Y-115898494D01*
X176097636Y-115898494D02*
X176145256Y-115993732D01*
X176145256Y-115993732D02*
X176240494Y-116041351D01*
X176240494Y-116041351D02*
X176335732Y-116041351D01*
X176335732Y-116041351D02*
X176430970Y-115993732D01*
X176430970Y-115993732D02*
X176478589Y-115898494D01*
X176478589Y-115898494D02*
X176478589Y-115660399D01*
X176478589Y-115660399D02*
X176526208Y-115565161D01*
X176764303Y-115231827D02*
X176764303Y-114850875D01*
X177097636Y-115088970D02*
X176240494Y-115088970D01*
X176240494Y-115088970D02*
X176145256Y-115041351D01*
X176145256Y-115041351D02*
X176097636Y-114946113D01*
X176097636Y-114946113D02*
X176097636Y-114850875D01*
X176097636Y-114088970D02*
X176621446Y-114088970D01*
X176621446Y-114088970D02*
X176716684Y-114136589D01*
X176716684Y-114136589D02*
X176764303Y-114231827D01*
X176764303Y-114231827D02*
X176764303Y-114422303D01*
X176764303Y-114422303D02*
X176716684Y-114517541D01*
X176145256Y-114088970D02*
X176097636Y-114184208D01*
X176097636Y-114184208D02*
X176097636Y-114422303D01*
X176097636Y-114422303D02*
X176145256Y-114517541D01*
X176145256Y-114517541D02*
X176240494Y-114565160D01*
X176240494Y-114565160D02*
X176335732Y-114565160D01*
X176335732Y-114565160D02*
X176430970Y-114517541D01*
X176430970Y-114517541D02*
X176478589Y-114422303D01*
X176478589Y-114422303D02*
X176478589Y-114184208D01*
X176478589Y-114184208D02*
X176526208Y-114088970D01*
X176097636Y-112422303D02*
X176621446Y-112422303D01*
X176621446Y-112422303D02*
X176716684Y-112469922D01*
X176716684Y-112469922D02*
X176764303Y-112565160D01*
X176764303Y-112565160D02*
X176764303Y-112755636D01*
X176764303Y-112755636D02*
X176716684Y-112850874D01*
X176145256Y-112422303D02*
X176097636Y-112517541D01*
X176097636Y-112517541D02*
X176097636Y-112755636D01*
X176097636Y-112755636D02*
X176145256Y-112850874D01*
X176145256Y-112850874D02*
X176240494Y-112898493D01*
X176240494Y-112898493D02*
X176335732Y-112898493D01*
X176335732Y-112898493D02*
X176430970Y-112850874D01*
X176430970Y-112850874D02*
X176478589Y-112755636D01*
X176478589Y-112755636D02*
X176478589Y-112517541D01*
X176478589Y-112517541D02*
X176526208Y-112422303D01*
X176145256Y-111517541D02*
X176097636Y-111612779D01*
X176097636Y-111612779D02*
X176097636Y-111803255D01*
X176097636Y-111803255D02*
X176145256Y-111898493D01*
X176145256Y-111898493D02*
X176192875Y-111946112D01*
X176192875Y-111946112D02*
X176288113Y-111993731D01*
X176288113Y-111993731D02*
X176573827Y-111993731D01*
X176573827Y-111993731D02*
X176669065Y-111946112D01*
X176669065Y-111946112D02*
X176716684Y-111898493D01*
X176716684Y-111898493D02*
X176764303Y-111803255D01*
X176764303Y-111803255D02*
X176764303Y-111612779D01*
X176764303Y-111612779D02*
X176716684Y-111517541D01*
X176145256Y-110660398D02*
X176097636Y-110755636D01*
X176097636Y-110755636D02*
X176097636Y-110946112D01*
X176097636Y-110946112D02*
X176145256Y-111041350D01*
X176145256Y-111041350D02*
X176192875Y-111088969D01*
X176192875Y-111088969D02*
X176288113Y-111136588D01*
X176288113Y-111136588D02*
X176573827Y-111136588D01*
X176573827Y-111136588D02*
X176669065Y-111088969D01*
X176669065Y-111088969D02*
X176716684Y-111041350D01*
X176716684Y-111041350D02*
X176764303Y-110946112D01*
X176764303Y-110946112D02*
X176764303Y-110755636D01*
X176764303Y-110755636D02*
X176716684Y-110660398D01*
X176097636Y-110088969D02*
X176145256Y-110184207D01*
X176145256Y-110184207D02*
X176192875Y-110231826D01*
X176192875Y-110231826D02*
X176288113Y-110279445D01*
X176288113Y-110279445D02*
X176573827Y-110279445D01*
X176573827Y-110279445D02*
X176669065Y-110231826D01*
X176669065Y-110231826D02*
X176716684Y-110184207D01*
X176716684Y-110184207D02*
X176764303Y-110088969D01*
X176764303Y-110088969D02*
X176764303Y-109946112D01*
X176764303Y-109946112D02*
X176716684Y-109850874D01*
X176716684Y-109850874D02*
X176669065Y-109803255D01*
X176669065Y-109803255D02*
X176573827Y-109755636D01*
X176573827Y-109755636D02*
X176288113Y-109755636D01*
X176288113Y-109755636D02*
X176192875Y-109803255D01*
X176192875Y-109803255D02*
X176145256Y-109850874D01*
X176145256Y-109850874D02*
X176097636Y-109946112D01*
X176097636Y-109946112D02*
X176097636Y-110088969D01*
X176097636Y-109327064D02*
X176764303Y-109327064D01*
X176573827Y-109327064D02*
X176669065Y-109279445D01*
X176669065Y-109279445D02*
X176716684Y-109231826D01*
X176716684Y-109231826D02*
X176764303Y-109136588D01*
X176764303Y-109136588D02*
X176764303Y-109041350D01*
X176097636Y-108279445D02*
X177097636Y-108279445D01*
X176145256Y-108279445D02*
X176097636Y-108374683D01*
X176097636Y-108374683D02*
X176097636Y-108565159D01*
X176097636Y-108565159D02*
X176145256Y-108660397D01*
X176145256Y-108660397D02*
X176192875Y-108708016D01*
X176192875Y-108708016D02*
X176288113Y-108755635D01*
X176288113Y-108755635D02*
X176573827Y-108755635D01*
X176573827Y-108755635D02*
X176669065Y-108708016D01*
X176669065Y-108708016D02*
X176716684Y-108660397D01*
X176716684Y-108660397D02*
X176764303Y-108565159D01*
X176764303Y-108565159D02*
X176764303Y-108374683D01*
X176764303Y-108374683D02*
X176716684Y-108279445D01*
X176097636Y-107803254D02*
X176764303Y-107803254D01*
X177097636Y-107803254D02*
X177050017Y-107850873D01*
X177050017Y-107850873D02*
X177002398Y-107803254D01*
X177002398Y-107803254D02*
X177050017Y-107755635D01*
X177050017Y-107755635D02*
X177097636Y-107803254D01*
X177097636Y-107803254D02*
X177002398Y-107803254D01*
X176764303Y-107327064D02*
X176097636Y-107327064D01*
X176669065Y-107327064D02*
X176716684Y-107279445D01*
X176716684Y-107279445D02*
X176764303Y-107184207D01*
X176764303Y-107184207D02*
X176764303Y-107041350D01*
X176764303Y-107041350D02*
X176716684Y-106946112D01*
X176716684Y-106946112D02*
X176621446Y-106898493D01*
X176621446Y-106898493D02*
X176097636Y-106898493D01*
X176764303Y-105993731D02*
X175954779Y-105993731D01*
X175954779Y-105993731D02*
X175859541Y-106041350D01*
X175859541Y-106041350D02*
X175811922Y-106088969D01*
X175811922Y-106088969D02*
X175764303Y-106184207D01*
X175764303Y-106184207D02*
X175764303Y-106327064D01*
X175764303Y-106327064D02*
X175811922Y-106422302D01*
X176145256Y-105993731D02*
X176097636Y-106088969D01*
X176097636Y-106088969D02*
X176097636Y-106279445D01*
X176097636Y-106279445D02*
X176145256Y-106374683D01*
X176145256Y-106374683D02*
X176192875Y-106422302D01*
X176192875Y-106422302D02*
X176288113Y-106469921D01*
X176288113Y-106469921D02*
X176573827Y-106469921D01*
X176573827Y-106469921D02*
X176669065Y-106422302D01*
X176669065Y-106422302D02*
X176716684Y-106374683D01*
X176716684Y-106374683D02*
X176764303Y-106279445D01*
X176764303Y-106279445D02*
X176764303Y-106088969D01*
X176764303Y-106088969D02*
X176716684Y-105993731D01*
X176764303Y-104898492D02*
X176764303Y-104517540D01*
X177097636Y-104755635D02*
X176240494Y-104755635D01*
X176240494Y-104755635D02*
X176145256Y-104708016D01*
X176145256Y-104708016D02*
X176097636Y-104612778D01*
X176097636Y-104612778D02*
X176097636Y-104517540D01*
X176097636Y-104041349D02*
X176145256Y-104136587D01*
X176145256Y-104136587D02*
X176192875Y-104184206D01*
X176192875Y-104184206D02*
X176288113Y-104231825D01*
X176288113Y-104231825D02*
X176573827Y-104231825D01*
X176573827Y-104231825D02*
X176669065Y-104184206D01*
X176669065Y-104184206D02*
X176716684Y-104136587D01*
X176716684Y-104136587D02*
X176764303Y-104041349D01*
X176764303Y-104041349D02*
X176764303Y-103898492D01*
X176764303Y-103898492D02*
X176716684Y-103803254D01*
X176716684Y-103803254D02*
X176669065Y-103755635D01*
X176669065Y-103755635D02*
X176573827Y-103708016D01*
X176573827Y-103708016D02*
X176288113Y-103708016D01*
X176288113Y-103708016D02*
X176192875Y-103755635D01*
X176192875Y-103755635D02*
X176145256Y-103803254D01*
X176145256Y-103803254D02*
X176097636Y-103898492D01*
X176097636Y-103898492D02*
X176097636Y-104041349D01*
X176764303Y-102660396D02*
X176764303Y-102279444D01*
X177097636Y-102517539D02*
X176240494Y-102517539D01*
X176240494Y-102517539D02*
X176145256Y-102469920D01*
X176145256Y-102469920D02*
X176097636Y-102374682D01*
X176097636Y-102374682D02*
X176097636Y-102279444D01*
X176097636Y-101946110D02*
X177097636Y-101946110D01*
X176097636Y-101517539D02*
X176621446Y-101517539D01*
X176621446Y-101517539D02*
X176716684Y-101565158D01*
X176716684Y-101565158D02*
X176764303Y-101660396D01*
X176764303Y-101660396D02*
X176764303Y-101803253D01*
X176764303Y-101803253D02*
X176716684Y-101898491D01*
X176716684Y-101898491D02*
X176669065Y-101946110D01*
X176145256Y-100660396D02*
X176097636Y-100755634D01*
X176097636Y-100755634D02*
X176097636Y-100946110D01*
X176097636Y-100946110D02*
X176145256Y-101041348D01*
X176145256Y-101041348D02*
X176240494Y-101088967D01*
X176240494Y-101088967D02*
X176621446Y-101088967D01*
X176621446Y-101088967D02*
X176716684Y-101041348D01*
X176716684Y-101041348D02*
X176764303Y-100946110D01*
X176764303Y-100946110D02*
X176764303Y-100755634D01*
X176764303Y-100755634D02*
X176716684Y-100660396D01*
X176716684Y-100660396D02*
X176621446Y-100612777D01*
X176621446Y-100612777D02*
X176526208Y-100612777D01*
X176526208Y-100612777D02*
X176430970Y-101088967D01*
X176764303Y-99565157D02*
X176764303Y-99184205D01*
X176097636Y-99422300D02*
X176954779Y-99422300D01*
X176954779Y-99422300D02*
X177050017Y-99374681D01*
X177050017Y-99374681D02*
X177097636Y-99279443D01*
X177097636Y-99279443D02*
X177097636Y-99184205D01*
X176097636Y-98708014D02*
X176145256Y-98803252D01*
X176145256Y-98803252D02*
X176192875Y-98850871D01*
X176192875Y-98850871D02*
X176288113Y-98898490D01*
X176288113Y-98898490D02*
X176573827Y-98898490D01*
X176573827Y-98898490D02*
X176669065Y-98850871D01*
X176669065Y-98850871D02*
X176716684Y-98803252D01*
X176716684Y-98803252D02*
X176764303Y-98708014D01*
X176764303Y-98708014D02*
X176764303Y-98565157D01*
X176764303Y-98565157D02*
X176716684Y-98469919D01*
X176716684Y-98469919D02*
X176669065Y-98422300D01*
X176669065Y-98422300D02*
X176573827Y-98374681D01*
X176573827Y-98374681D02*
X176288113Y-98374681D01*
X176288113Y-98374681D02*
X176192875Y-98422300D01*
X176192875Y-98422300D02*
X176145256Y-98469919D01*
X176145256Y-98469919D02*
X176097636Y-98565157D01*
X176097636Y-98565157D02*
X176097636Y-98708014D01*
X176097636Y-97803252D02*
X176145256Y-97898490D01*
X176145256Y-97898490D02*
X176240494Y-97946109D01*
X176240494Y-97946109D02*
X177097636Y-97946109D01*
X176097636Y-97279442D02*
X176145256Y-97374680D01*
X176145256Y-97374680D02*
X176240494Y-97422299D01*
X176240494Y-97422299D02*
X177097636Y-97422299D01*
X176097636Y-96755632D02*
X176145256Y-96850870D01*
X176145256Y-96850870D02*
X176192875Y-96898489D01*
X176192875Y-96898489D02*
X176288113Y-96946108D01*
X176288113Y-96946108D02*
X176573827Y-96946108D01*
X176573827Y-96946108D02*
X176669065Y-96898489D01*
X176669065Y-96898489D02*
X176716684Y-96850870D01*
X176716684Y-96850870D02*
X176764303Y-96755632D01*
X176764303Y-96755632D02*
X176764303Y-96612775D01*
X176764303Y-96612775D02*
X176716684Y-96517537D01*
X176716684Y-96517537D02*
X176669065Y-96469918D01*
X176669065Y-96469918D02*
X176573827Y-96422299D01*
X176573827Y-96422299D02*
X176288113Y-96422299D01*
X176288113Y-96422299D02*
X176192875Y-96469918D01*
X176192875Y-96469918D02*
X176145256Y-96517537D01*
X176145256Y-96517537D02*
X176097636Y-96612775D01*
X176097636Y-96612775D02*
X176097636Y-96755632D01*
X176764303Y-96088965D02*
X176097636Y-95898489D01*
X176097636Y-95898489D02*
X176573827Y-95708013D01*
X176573827Y-95708013D02*
X176097636Y-95517537D01*
X176097636Y-95517537D02*
X176764303Y-95327061D01*
X176097636Y-94946108D02*
X176764303Y-94946108D01*
X177097636Y-94946108D02*
X177050017Y-94993727D01*
X177050017Y-94993727D02*
X177002398Y-94946108D01*
X177002398Y-94946108D02*
X177050017Y-94898489D01*
X177050017Y-94898489D02*
X177097636Y-94946108D01*
X177097636Y-94946108D02*
X177002398Y-94946108D01*
X176764303Y-94469918D02*
X176097636Y-94469918D01*
X176669065Y-94469918D02*
X176716684Y-94422299D01*
X176716684Y-94422299D02*
X176764303Y-94327061D01*
X176764303Y-94327061D02*
X176764303Y-94184204D01*
X176764303Y-94184204D02*
X176716684Y-94088966D01*
X176716684Y-94088966D02*
X176621446Y-94041347D01*
X176621446Y-94041347D02*
X176097636Y-94041347D01*
X176764303Y-93136585D02*
X175954779Y-93136585D01*
X175954779Y-93136585D02*
X175859541Y-93184204D01*
X175859541Y-93184204D02*
X175811922Y-93231823D01*
X175811922Y-93231823D02*
X175764303Y-93327061D01*
X175764303Y-93327061D02*
X175764303Y-93469918D01*
X175764303Y-93469918D02*
X175811922Y-93565156D01*
X176145256Y-93136585D02*
X176097636Y-93231823D01*
X176097636Y-93231823D02*
X176097636Y-93422299D01*
X176097636Y-93422299D02*
X176145256Y-93517537D01*
X176145256Y-93517537D02*
X176192875Y-93565156D01*
X176192875Y-93565156D02*
X176288113Y-93612775D01*
X176288113Y-93612775D02*
X176573827Y-93612775D01*
X176573827Y-93612775D02*
X176669065Y-93565156D01*
X176669065Y-93565156D02*
X176716684Y-93517537D01*
X176716684Y-93517537D02*
X176764303Y-93422299D01*
X176764303Y-93422299D02*
X176764303Y-93231823D01*
X176764303Y-93231823D02*
X176716684Y-93136585D01*
X176097636Y-91898489D02*
X177097636Y-91898489D01*
X176716684Y-91898489D02*
X176764303Y-91803251D01*
X176764303Y-91803251D02*
X176764303Y-91612775D01*
X176764303Y-91612775D02*
X176716684Y-91517537D01*
X176716684Y-91517537D02*
X176669065Y-91469918D01*
X176669065Y-91469918D02*
X176573827Y-91422299D01*
X176573827Y-91422299D02*
X176288113Y-91422299D01*
X176288113Y-91422299D02*
X176192875Y-91469918D01*
X176192875Y-91469918D02*
X176145256Y-91517537D01*
X176145256Y-91517537D02*
X176097636Y-91612775D01*
X176097636Y-91612775D02*
X176097636Y-91803251D01*
X176097636Y-91803251D02*
X176145256Y-91898489D01*
X176097636Y-90850870D02*
X176145256Y-90946108D01*
X176145256Y-90946108D02*
X176192875Y-90993727D01*
X176192875Y-90993727D02*
X176288113Y-91041346D01*
X176288113Y-91041346D02*
X176573827Y-91041346D01*
X176573827Y-91041346D02*
X176669065Y-90993727D01*
X176669065Y-90993727D02*
X176716684Y-90946108D01*
X176716684Y-90946108D02*
X176764303Y-90850870D01*
X176764303Y-90850870D02*
X176764303Y-90708013D01*
X176764303Y-90708013D02*
X176716684Y-90612775D01*
X176716684Y-90612775D02*
X176669065Y-90565156D01*
X176669065Y-90565156D02*
X176573827Y-90517537D01*
X176573827Y-90517537D02*
X176288113Y-90517537D01*
X176288113Y-90517537D02*
X176192875Y-90565156D01*
X176192875Y-90565156D02*
X176145256Y-90612775D01*
X176145256Y-90612775D02*
X176097636Y-90708013D01*
X176097636Y-90708013D02*
X176097636Y-90850870D01*
X176097636Y-89946108D02*
X176145256Y-90041346D01*
X176145256Y-90041346D02*
X176192875Y-90088965D01*
X176192875Y-90088965D02*
X176288113Y-90136584D01*
X176288113Y-90136584D02*
X176573827Y-90136584D01*
X176573827Y-90136584D02*
X176669065Y-90088965D01*
X176669065Y-90088965D02*
X176716684Y-90041346D01*
X176716684Y-90041346D02*
X176764303Y-89946108D01*
X176764303Y-89946108D02*
X176764303Y-89803251D01*
X176764303Y-89803251D02*
X176716684Y-89708013D01*
X176716684Y-89708013D02*
X176669065Y-89660394D01*
X176669065Y-89660394D02*
X176573827Y-89612775D01*
X176573827Y-89612775D02*
X176288113Y-89612775D01*
X176288113Y-89612775D02*
X176192875Y-89660394D01*
X176192875Y-89660394D02*
X176145256Y-89708013D01*
X176145256Y-89708013D02*
X176097636Y-89803251D01*
X176097636Y-89803251D02*
X176097636Y-89946108D01*
X176097636Y-89041346D02*
X176145256Y-89136584D01*
X176145256Y-89136584D02*
X176240494Y-89184203D01*
X176240494Y-89184203D02*
X177097636Y-89184203D01*
X176145256Y-88279441D02*
X176097636Y-88374679D01*
X176097636Y-88374679D02*
X176097636Y-88565155D01*
X176097636Y-88565155D02*
X176145256Y-88660393D01*
X176145256Y-88660393D02*
X176240494Y-88708012D01*
X176240494Y-88708012D02*
X176621446Y-88708012D01*
X176621446Y-88708012D02*
X176716684Y-88660393D01*
X176716684Y-88660393D02*
X176764303Y-88565155D01*
X176764303Y-88565155D02*
X176764303Y-88374679D01*
X176764303Y-88374679D02*
X176716684Y-88279441D01*
X176716684Y-88279441D02*
X176621446Y-88231822D01*
X176621446Y-88231822D02*
X176526208Y-88231822D01*
X176526208Y-88231822D02*
X176430970Y-88708012D01*
X176097636Y-87374679D02*
X176621446Y-87374679D01*
X176621446Y-87374679D02*
X176716684Y-87422298D01*
X176716684Y-87422298D02*
X176764303Y-87517536D01*
X176764303Y-87517536D02*
X176764303Y-87708012D01*
X176764303Y-87708012D02*
X176716684Y-87803250D01*
X176145256Y-87374679D02*
X176097636Y-87469917D01*
X176097636Y-87469917D02*
X176097636Y-87708012D01*
X176097636Y-87708012D02*
X176145256Y-87803250D01*
X176145256Y-87803250D02*
X176240494Y-87850869D01*
X176240494Y-87850869D02*
X176335732Y-87850869D01*
X176335732Y-87850869D02*
X176430970Y-87803250D01*
X176430970Y-87803250D02*
X176478589Y-87708012D01*
X176478589Y-87708012D02*
X176478589Y-87469917D01*
X176478589Y-87469917D02*
X176526208Y-87374679D01*
X176764303Y-86898488D02*
X176097636Y-86898488D01*
X176669065Y-86898488D02*
X176716684Y-86850869D01*
X176716684Y-86850869D02*
X176764303Y-86755631D01*
X176764303Y-86755631D02*
X176764303Y-86612774D01*
X176764303Y-86612774D02*
X176716684Y-86517536D01*
X176716684Y-86517536D02*
X176621446Y-86469917D01*
X176621446Y-86469917D02*
X176097636Y-86469917D01*
X176145256Y-84850869D02*
X176097636Y-84946107D01*
X176097636Y-84946107D02*
X176097636Y-85136583D01*
X176097636Y-85136583D02*
X176145256Y-85231821D01*
X176145256Y-85231821D02*
X176240494Y-85279440D01*
X176240494Y-85279440D02*
X176621446Y-85279440D01*
X176621446Y-85279440D02*
X176716684Y-85231821D01*
X176716684Y-85231821D02*
X176764303Y-85136583D01*
X176764303Y-85136583D02*
X176764303Y-84946107D01*
X176764303Y-84946107D02*
X176716684Y-84850869D01*
X176716684Y-84850869D02*
X176621446Y-84803250D01*
X176621446Y-84803250D02*
X176526208Y-84803250D01*
X176526208Y-84803250D02*
X176430970Y-85279440D01*
X176764303Y-83946107D02*
X175764303Y-83946107D01*
X176145256Y-83946107D02*
X176097636Y-84041345D01*
X176097636Y-84041345D02*
X176097636Y-84231821D01*
X176097636Y-84231821D02*
X176145256Y-84327059D01*
X176145256Y-84327059D02*
X176192875Y-84374678D01*
X176192875Y-84374678D02*
X176288113Y-84422297D01*
X176288113Y-84422297D02*
X176573827Y-84422297D01*
X176573827Y-84422297D02*
X176669065Y-84374678D01*
X176669065Y-84374678D02*
X176716684Y-84327059D01*
X176716684Y-84327059D02*
X176764303Y-84231821D01*
X176764303Y-84231821D02*
X176764303Y-84041345D01*
X176764303Y-84041345D02*
X176716684Y-83946107D01*
X176764303Y-83469916D02*
X176097636Y-83469916D01*
X176669065Y-83469916D02*
X176716684Y-83422297D01*
X176716684Y-83422297D02*
X176764303Y-83327059D01*
X176764303Y-83327059D02*
X176764303Y-83184202D01*
X176764303Y-83184202D02*
X176716684Y-83088964D01*
X176716684Y-83088964D02*
X176621446Y-83041345D01*
X176621446Y-83041345D02*
X176097636Y-83041345D01*
X176145256Y-82612773D02*
X176097636Y-82517535D01*
X176097636Y-82517535D02*
X176097636Y-82327059D01*
X176097636Y-82327059D02*
X176145256Y-82231821D01*
X176145256Y-82231821D02*
X176240494Y-82184202D01*
X176240494Y-82184202D02*
X176288113Y-82184202D01*
X176288113Y-82184202D02*
X176383351Y-82231821D01*
X176383351Y-82231821D02*
X176430970Y-82327059D01*
X176430970Y-82327059D02*
X176430970Y-82469916D01*
X176430970Y-82469916D02*
X176478589Y-82565154D01*
X176478589Y-82565154D02*
X176573827Y-82612773D01*
X176573827Y-82612773D02*
X176621446Y-82612773D01*
X176621446Y-82612773D02*
X176716684Y-82565154D01*
X176716684Y-82565154D02*
X176764303Y-82469916D01*
X176764303Y-82469916D02*
X176764303Y-82327059D01*
X176764303Y-82327059D02*
X176716684Y-82231821D01*
X163707580Y-118874687D02*
X164183771Y-119208020D01*
X163707580Y-119446115D02*
X164707580Y-119446115D01*
X164707580Y-119446115D02*
X164707580Y-119065163D01*
X164707580Y-119065163D02*
X164659961Y-118969925D01*
X164659961Y-118969925D02*
X164612342Y-118922306D01*
X164612342Y-118922306D02*
X164517104Y-118874687D01*
X164517104Y-118874687D02*
X164374247Y-118874687D01*
X164374247Y-118874687D02*
X164279009Y-118922306D01*
X164279009Y-118922306D02*
X164231390Y-118969925D01*
X164231390Y-118969925D02*
X164183771Y-119065163D01*
X164183771Y-119065163D02*
X164183771Y-119446115D01*
X163755200Y-118065163D02*
X163707580Y-118160401D01*
X163707580Y-118160401D02*
X163707580Y-118350877D01*
X163707580Y-118350877D02*
X163755200Y-118446115D01*
X163755200Y-118446115D02*
X163850438Y-118493734D01*
X163850438Y-118493734D02*
X164231390Y-118493734D01*
X164231390Y-118493734D02*
X164326628Y-118446115D01*
X164326628Y-118446115D02*
X164374247Y-118350877D01*
X164374247Y-118350877D02*
X164374247Y-118160401D01*
X164374247Y-118160401D02*
X164326628Y-118065163D01*
X164326628Y-118065163D02*
X164231390Y-118017544D01*
X164231390Y-118017544D02*
X164136152Y-118017544D01*
X164136152Y-118017544D02*
X164040914Y-118493734D01*
X164374247Y-117160401D02*
X163564723Y-117160401D01*
X163564723Y-117160401D02*
X163469485Y-117208020D01*
X163469485Y-117208020D02*
X163421866Y-117255639D01*
X163421866Y-117255639D02*
X163374247Y-117350877D01*
X163374247Y-117350877D02*
X163374247Y-117493734D01*
X163374247Y-117493734D02*
X163421866Y-117588972D01*
X163755200Y-117160401D02*
X163707580Y-117255639D01*
X163707580Y-117255639D02*
X163707580Y-117446115D01*
X163707580Y-117446115D02*
X163755200Y-117541353D01*
X163755200Y-117541353D02*
X163802819Y-117588972D01*
X163802819Y-117588972D02*
X163898057Y-117636591D01*
X163898057Y-117636591D02*
X164183771Y-117636591D01*
X164183771Y-117636591D02*
X164279009Y-117588972D01*
X164279009Y-117588972D02*
X164326628Y-117541353D01*
X164326628Y-117541353D02*
X164374247Y-117446115D01*
X164374247Y-117446115D02*
X164374247Y-117255639D01*
X164374247Y-117255639D02*
X164326628Y-117160401D01*
X163755200Y-116731829D02*
X163707580Y-116588972D01*
X163707580Y-116588972D02*
X163707580Y-116350877D01*
X163707580Y-116350877D02*
X163755200Y-116255639D01*
X163755200Y-116255639D02*
X163802819Y-116208020D01*
X163802819Y-116208020D02*
X163898057Y-116160401D01*
X163898057Y-116160401D02*
X163993295Y-116160401D01*
X163993295Y-116160401D02*
X164088533Y-116208020D01*
X164088533Y-116208020D02*
X164136152Y-116255639D01*
X164136152Y-116255639D02*
X164183771Y-116350877D01*
X164183771Y-116350877D02*
X164231390Y-116541353D01*
X164231390Y-116541353D02*
X164279009Y-116636591D01*
X164279009Y-116636591D02*
X164326628Y-116684210D01*
X164326628Y-116684210D02*
X164421866Y-116731829D01*
X164421866Y-116731829D02*
X164517104Y-116731829D01*
X164517104Y-116731829D02*
X164612342Y-116684210D01*
X164612342Y-116684210D02*
X164659961Y-116636591D01*
X164659961Y-116636591D02*
X164707580Y-116541353D01*
X164707580Y-116541353D02*
X164707580Y-116303258D01*
X164707580Y-116303258D02*
X164659961Y-116160401D01*
X163707580Y-115731829D02*
X164374247Y-115731829D01*
X164183771Y-115731829D02*
X164279009Y-115684210D01*
X164279009Y-115684210D02*
X164326628Y-115636591D01*
X164326628Y-115636591D02*
X164374247Y-115541353D01*
X164374247Y-115541353D02*
X164374247Y-115446115D01*
X163755200Y-114684210D02*
X163707580Y-114779448D01*
X163707580Y-114779448D02*
X163707580Y-114969924D01*
X163707580Y-114969924D02*
X163755200Y-115065162D01*
X163755200Y-115065162D02*
X163802819Y-115112781D01*
X163802819Y-115112781D02*
X163898057Y-115160400D01*
X163898057Y-115160400D02*
X164183771Y-115160400D01*
X164183771Y-115160400D02*
X164279009Y-115112781D01*
X164279009Y-115112781D02*
X164326628Y-115065162D01*
X164326628Y-115065162D02*
X164374247Y-114969924D01*
X164374247Y-114969924D02*
X164374247Y-114779448D01*
X164374247Y-114779448D02*
X164326628Y-114684210D01*
X163707580Y-113731829D02*
X163707580Y-114303257D01*
X163707580Y-114017543D02*
X164707580Y-114017543D01*
X164707580Y-114017543D02*
X164564723Y-114112781D01*
X164564723Y-114112781D02*
X164469485Y-114208019D01*
X164469485Y-114208019D02*
X164421866Y-114303257D01*
X164231390Y-112541352D02*
X164231390Y-111779448D01*
X163945676Y-111779448D02*
X163945676Y-112541352D01*
X164231390Y-110208019D02*
X164183771Y-110065162D01*
X164183771Y-110065162D02*
X164136152Y-110017543D01*
X164136152Y-110017543D02*
X164040914Y-109969924D01*
X164040914Y-109969924D02*
X163898057Y-109969924D01*
X163898057Y-109969924D02*
X163802819Y-110017543D01*
X163802819Y-110017543D02*
X163755200Y-110065162D01*
X163755200Y-110065162D02*
X163707580Y-110160400D01*
X163707580Y-110160400D02*
X163707580Y-110541352D01*
X163707580Y-110541352D02*
X164707580Y-110541352D01*
X164707580Y-110541352D02*
X164707580Y-110208019D01*
X164707580Y-110208019D02*
X164659961Y-110112781D01*
X164659961Y-110112781D02*
X164612342Y-110065162D01*
X164612342Y-110065162D02*
X164517104Y-110017543D01*
X164517104Y-110017543D02*
X164421866Y-110017543D01*
X164421866Y-110017543D02*
X164326628Y-110065162D01*
X164326628Y-110065162D02*
X164279009Y-110112781D01*
X164279009Y-110112781D02*
X164231390Y-110208019D01*
X164231390Y-110208019D02*
X164231390Y-110541352D01*
X163755200Y-109493733D02*
X163707580Y-109493733D01*
X163707580Y-109493733D02*
X163612342Y-109541352D01*
X163612342Y-109541352D02*
X163564723Y-109588971D01*
X164326628Y-109541352D02*
X164279009Y-109493733D01*
X164279009Y-109493733D02*
X164231390Y-109541352D01*
X164231390Y-109541352D02*
X164279009Y-109588971D01*
X164279009Y-109588971D02*
X164326628Y-109541352D01*
X164326628Y-109541352D02*
X164231390Y-109541352D01*
X163707580Y-107731829D02*
X164183771Y-108065162D01*
X163707580Y-108303257D02*
X164707580Y-108303257D01*
X164707580Y-108303257D02*
X164707580Y-107922305D01*
X164707580Y-107922305D02*
X164659961Y-107827067D01*
X164659961Y-107827067D02*
X164612342Y-107779448D01*
X164612342Y-107779448D02*
X164517104Y-107731829D01*
X164517104Y-107731829D02*
X164374247Y-107731829D01*
X164374247Y-107731829D02*
X164279009Y-107779448D01*
X164279009Y-107779448D02*
X164231390Y-107827067D01*
X164231390Y-107827067D02*
X164183771Y-107922305D01*
X164183771Y-107922305D02*
X164183771Y-108303257D01*
X163755200Y-106922305D02*
X163707580Y-107017543D01*
X163707580Y-107017543D02*
X163707580Y-107208019D01*
X163707580Y-107208019D02*
X163755200Y-107303257D01*
X163755200Y-107303257D02*
X163850438Y-107350876D01*
X163850438Y-107350876D02*
X164231390Y-107350876D01*
X164231390Y-107350876D02*
X164326628Y-107303257D01*
X164326628Y-107303257D02*
X164374247Y-107208019D01*
X164374247Y-107208019D02*
X164374247Y-107017543D01*
X164374247Y-107017543D02*
X164326628Y-106922305D01*
X164326628Y-106922305D02*
X164231390Y-106874686D01*
X164231390Y-106874686D02*
X164136152Y-106874686D01*
X164136152Y-106874686D02*
X164040914Y-107350876D01*
X164374247Y-106017543D02*
X163564723Y-106017543D01*
X163564723Y-106017543D02*
X163469485Y-106065162D01*
X163469485Y-106065162D02*
X163421866Y-106112781D01*
X163421866Y-106112781D02*
X163374247Y-106208019D01*
X163374247Y-106208019D02*
X163374247Y-106350876D01*
X163374247Y-106350876D02*
X163421866Y-106446114D01*
X163755200Y-106017543D02*
X163707580Y-106112781D01*
X163707580Y-106112781D02*
X163707580Y-106303257D01*
X163707580Y-106303257D02*
X163755200Y-106398495D01*
X163755200Y-106398495D02*
X163802819Y-106446114D01*
X163802819Y-106446114D02*
X163898057Y-106493733D01*
X163898057Y-106493733D02*
X164183771Y-106493733D01*
X164183771Y-106493733D02*
X164279009Y-106446114D01*
X164279009Y-106446114D02*
X164326628Y-106398495D01*
X164326628Y-106398495D02*
X164374247Y-106303257D01*
X164374247Y-106303257D02*
X164374247Y-106112781D01*
X164374247Y-106112781D02*
X164326628Y-106017543D01*
X163755200Y-105588971D02*
X163707580Y-105446114D01*
X163707580Y-105446114D02*
X163707580Y-105208019D01*
X163707580Y-105208019D02*
X163755200Y-105112781D01*
X163755200Y-105112781D02*
X163802819Y-105065162D01*
X163802819Y-105065162D02*
X163898057Y-105017543D01*
X163898057Y-105017543D02*
X163993295Y-105017543D01*
X163993295Y-105017543D02*
X164088533Y-105065162D01*
X164088533Y-105065162D02*
X164136152Y-105112781D01*
X164136152Y-105112781D02*
X164183771Y-105208019D01*
X164183771Y-105208019D02*
X164231390Y-105398495D01*
X164231390Y-105398495D02*
X164279009Y-105493733D01*
X164279009Y-105493733D02*
X164326628Y-105541352D01*
X164326628Y-105541352D02*
X164421866Y-105588971D01*
X164421866Y-105588971D02*
X164517104Y-105588971D01*
X164517104Y-105588971D02*
X164612342Y-105541352D01*
X164612342Y-105541352D02*
X164659961Y-105493733D01*
X164659961Y-105493733D02*
X164707580Y-105398495D01*
X164707580Y-105398495D02*
X164707580Y-105160400D01*
X164707580Y-105160400D02*
X164659961Y-105017543D01*
X163707580Y-104588971D02*
X164374247Y-104588971D01*
X164183771Y-104588971D02*
X164279009Y-104541352D01*
X164279009Y-104541352D02*
X164326628Y-104493733D01*
X164326628Y-104493733D02*
X164374247Y-104398495D01*
X164374247Y-104398495D02*
X164374247Y-104303257D01*
X163755200Y-103541352D02*
X163707580Y-103636590D01*
X163707580Y-103636590D02*
X163707580Y-103827066D01*
X163707580Y-103827066D02*
X163755200Y-103922304D01*
X163755200Y-103922304D02*
X163802819Y-103969923D01*
X163802819Y-103969923D02*
X163898057Y-104017542D01*
X163898057Y-104017542D02*
X164183771Y-104017542D01*
X164183771Y-104017542D02*
X164279009Y-103969923D01*
X164279009Y-103969923D02*
X164326628Y-103922304D01*
X164326628Y-103922304D02*
X164374247Y-103827066D01*
X164374247Y-103827066D02*
X164374247Y-103636590D01*
X164374247Y-103636590D02*
X164326628Y-103541352D01*
X164707580Y-102922304D02*
X164707580Y-102827066D01*
X164707580Y-102827066D02*
X164659961Y-102731828D01*
X164659961Y-102731828D02*
X164612342Y-102684209D01*
X164612342Y-102684209D02*
X164517104Y-102636590D01*
X164517104Y-102636590D02*
X164326628Y-102588971D01*
X164326628Y-102588971D02*
X164088533Y-102588971D01*
X164088533Y-102588971D02*
X163898057Y-102636590D01*
X163898057Y-102636590D02*
X163802819Y-102684209D01*
X163802819Y-102684209D02*
X163755200Y-102731828D01*
X163755200Y-102731828D02*
X163707580Y-102827066D01*
X163707580Y-102827066D02*
X163707580Y-102922304D01*
X163707580Y-102922304D02*
X163755200Y-103017542D01*
X163755200Y-103017542D02*
X163802819Y-103065161D01*
X163802819Y-103065161D02*
X163898057Y-103112780D01*
X163898057Y-103112780D02*
X164088533Y-103160399D01*
X164088533Y-103160399D02*
X164326628Y-103160399D01*
X164326628Y-103160399D02*
X164517104Y-103112780D01*
X164517104Y-103112780D02*
X164612342Y-103065161D01*
X164612342Y-103065161D02*
X164659961Y-103017542D01*
X164659961Y-103017542D02*
X164707580Y-102922304D01*
X164231390Y-101398494D02*
X164231390Y-100636590D01*
X163945676Y-100636590D02*
X163945676Y-101398494D01*
X163707580Y-99398494D02*
X164707580Y-99398494D01*
X164707580Y-99398494D02*
X164707580Y-99160399D01*
X164707580Y-99160399D02*
X164659961Y-99017542D01*
X164659961Y-99017542D02*
X164564723Y-98922304D01*
X164564723Y-98922304D02*
X164469485Y-98874685D01*
X164469485Y-98874685D02*
X164279009Y-98827066D01*
X164279009Y-98827066D02*
X164136152Y-98827066D01*
X164136152Y-98827066D02*
X163945676Y-98874685D01*
X163945676Y-98874685D02*
X163850438Y-98922304D01*
X163850438Y-98922304D02*
X163755200Y-99017542D01*
X163755200Y-99017542D02*
X163707580Y-99160399D01*
X163707580Y-99160399D02*
X163707580Y-99398494D01*
X162383351Y-119493734D02*
X162383351Y-119017544D01*
X162097636Y-119588972D02*
X163097636Y-119255639D01*
X163097636Y-119255639D02*
X162097636Y-118922306D01*
X162097636Y-118112782D02*
X162097636Y-118588972D01*
X162097636Y-118588972D02*
X163097636Y-118588972D01*
X163097636Y-117779448D02*
X162288113Y-117779448D01*
X162288113Y-117779448D02*
X162192875Y-117731829D01*
X162192875Y-117731829D02*
X162145256Y-117684210D01*
X162145256Y-117684210D02*
X162097636Y-117588972D01*
X162097636Y-117588972D02*
X162097636Y-117398496D01*
X162097636Y-117398496D02*
X162145256Y-117303258D01*
X162145256Y-117303258D02*
X162192875Y-117255639D01*
X162192875Y-117255639D02*
X162288113Y-117208020D01*
X162288113Y-117208020D02*
X163097636Y-117208020D01*
X163002398Y-116779448D02*
X163050017Y-116731829D01*
X163050017Y-116731829D02*
X163097636Y-116636591D01*
X163097636Y-116636591D02*
X163097636Y-116398496D01*
X163097636Y-116398496D02*
X163050017Y-116303258D01*
X163050017Y-116303258D02*
X163002398Y-116255639D01*
X163002398Y-116255639D02*
X162907160Y-116208020D01*
X162907160Y-116208020D02*
X162811922Y-116208020D01*
X162811922Y-116208020D02*
X162669065Y-116255639D01*
X162669065Y-116255639D02*
X162097636Y-116827067D01*
X162097636Y-116827067D02*
X162097636Y-116208020D01*
X162621446Y-115017543D02*
X162621446Y-114255639D01*
X162335732Y-114255639D02*
X162335732Y-115017543D01*
X162621446Y-112684210D02*
X162621446Y-113017543D01*
X162097636Y-113017543D02*
X163097636Y-113017543D01*
X163097636Y-113017543D02*
X163097636Y-112541353D01*
X162145256Y-112112781D02*
X162097636Y-112112781D01*
X162097636Y-112112781D02*
X162002398Y-112160400D01*
X162002398Y-112160400D02*
X161954779Y-112208019D01*
X162716684Y-112160400D02*
X162669065Y-112112781D01*
X162669065Y-112112781D02*
X162621446Y-112160400D01*
X162621446Y-112160400D02*
X162669065Y-112208019D01*
X162669065Y-112208019D02*
X162716684Y-112160400D01*
X162716684Y-112160400D02*
X162621446Y-112160400D01*
X162383351Y-110969924D02*
X162383351Y-110493734D01*
X162097636Y-111065162D02*
X163097636Y-110731829D01*
X163097636Y-110731829D02*
X162097636Y-110398496D01*
X162097636Y-109588972D02*
X162097636Y-110065162D01*
X162097636Y-110065162D02*
X163097636Y-110065162D01*
X163097636Y-109255638D02*
X162288113Y-109255638D01*
X162288113Y-109255638D02*
X162192875Y-109208019D01*
X162192875Y-109208019D02*
X162145256Y-109160400D01*
X162145256Y-109160400D02*
X162097636Y-109065162D01*
X162097636Y-109065162D02*
X162097636Y-108874686D01*
X162097636Y-108874686D02*
X162145256Y-108779448D01*
X162145256Y-108779448D02*
X162192875Y-108731829D01*
X162192875Y-108731829D02*
X162288113Y-108684210D01*
X162288113Y-108684210D02*
X163097636Y-108684210D01*
X162097636Y-107684210D02*
X162097636Y-108255638D01*
X162097636Y-107969924D02*
X163097636Y-107969924D01*
X163097636Y-107969924D02*
X162954779Y-108065162D01*
X162954779Y-108065162D02*
X162859541Y-108160400D01*
X162859541Y-108160400D02*
X162811922Y-108255638D01*
X162621446Y-106493733D02*
X162621446Y-105731829D01*
X162335732Y-105731829D02*
X162335732Y-106493733D01*
X163050017Y-103969924D02*
X163097636Y-104065162D01*
X163097636Y-104065162D02*
X163097636Y-104208019D01*
X163097636Y-104208019D02*
X163050017Y-104350876D01*
X163050017Y-104350876D02*
X162954779Y-104446114D01*
X162954779Y-104446114D02*
X162859541Y-104493733D01*
X162859541Y-104493733D02*
X162669065Y-104541352D01*
X162669065Y-104541352D02*
X162526208Y-104541352D01*
X162526208Y-104541352D02*
X162335732Y-104493733D01*
X162335732Y-104493733D02*
X162240494Y-104446114D01*
X162240494Y-104446114D02*
X162145256Y-104350876D01*
X162145256Y-104350876D02*
X162097636Y-104208019D01*
X162097636Y-104208019D02*
X162097636Y-104112781D01*
X162097636Y-104112781D02*
X162145256Y-103969924D01*
X162145256Y-103969924D02*
X162192875Y-103922305D01*
X162192875Y-103922305D02*
X162526208Y-103922305D01*
X162526208Y-103922305D02*
X162526208Y-104112781D01*
X162145256Y-103446114D02*
X162097636Y-103446114D01*
X162097636Y-103446114D02*
X162002398Y-103493733D01*
X162002398Y-103493733D02*
X161954779Y-103541352D01*
X162716684Y-103493733D02*
X162669065Y-103446114D01*
X162669065Y-103446114D02*
X162621446Y-103493733D01*
X162621446Y-103493733D02*
X162669065Y-103541352D01*
X162669065Y-103541352D02*
X162716684Y-103493733D01*
X162716684Y-103493733D02*
X162621446Y-103493733D01*
X162383351Y-102303257D02*
X162383351Y-101827067D01*
X162097636Y-102398495D02*
X163097636Y-102065162D01*
X163097636Y-102065162D02*
X162097636Y-101731829D01*
X162097636Y-100922305D02*
X162097636Y-101398495D01*
X162097636Y-101398495D02*
X163097636Y-101398495D01*
X163097636Y-100588971D02*
X162288113Y-100588971D01*
X162288113Y-100588971D02*
X162192875Y-100541352D01*
X162192875Y-100541352D02*
X162145256Y-100493733D01*
X162145256Y-100493733D02*
X162097636Y-100398495D01*
X162097636Y-100398495D02*
X162097636Y-100208019D01*
X162097636Y-100208019D02*
X162145256Y-100112781D01*
X162145256Y-100112781D02*
X162192875Y-100065162D01*
X162192875Y-100065162D02*
X162288113Y-100017543D01*
X162288113Y-100017543D02*
X163097636Y-100017543D01*
X163097636Y-99350876D02*
X163097636Y-99255638D01*
X163097636Y-99255638D02*
X163050017Y-99160400D01*
X163050017Y-99160400D02*
X163002398Y-99112781D01*
X163002398Y-99112781D02*
X162907160Y-99065162D01*
X162907160Y-99065162D02*
X162716684Y-99017543D01*
X162716684Y-99017543D02*
X162478589Y-99017543D01*
X162478589Y-99017543D02*
X162288113Y-99065162D01*
X162288113Y-99065162D02*
X162192875Y-99112781D01*
X162192875Y-99112781D02*
X162145256Y-99160400D01*
X162145256Y-99160400D02*
X162097636Y-99255638D01*
X162097636Y-99255638D02*
X162097636Y-99350876D01*
X162097636Y-99350876D02*
X162145256Y-99446114D01*
X162145256Y-99446114D02*
X162192875Y-99493733D01*
X162192875Y-99493733D02*
X162288113Y-99541352D01*
X162288113Y-99541352D02*
X162478589Y-99588971D01*
X162478589Y-99588971D02*
X162716684Y-99588971D01*
X162716684Y-99588971D02*
X162907160Y-99541352D01*
X162907160Y-99541352D02*
X163002398Y-99493733D01*
X163002398Y-99493733D02*
X163050017Y-99446114D01*
X163050017Y-99446114D02*
X163097636Y-99350876D01*
X162621446Y-97827066D02*
X162621446Y-97065162D01*
X162335732Y-97065162D02*
X162335732Y-97827066D01*
X162097636Y-95827066D02*
X163097636Y-95827066D01*
X162621446Y-95827066D02*
X162621446Y-95255638D01*
X162097636Y-95255638D02*
X163097636Y-95255638D01*
X141207580Y-119541353D02*
X140207580Y-119303258D01*
X140207580Y-119303258D02*
X140921866Y-119112782D01*
X140921866Y-119112782D02*
X140207580Y-118922306D01*
X140207580Y-118922306D02*
X141207580Y-118684211D01*
X140207580Y-118303258D02*
X141207580Y-118303258D01*
X140207580Y-117874687D02*
X140731390Y-117874687D01*
X140731390Y-117874687D02*
X140826628Y-117922306D01*
X140826628Y-117922306D02*
X140874247Y-118017544D01*
X140874247Y-118017544D02*
X140874247Y-118160401D01*
X140874247Y-118160401D02*
X140826628Y-118255639D01*
X140826628Y-118255639D02*
X140779009Y-118303258D01*
X140255200Y-117017544D02*
X140207580Y-117112782D01*
X140207580Y-117112782D02*
X140207580Y-117303258D01*
X140207580Y-117303258D02*
X140255200Y-117398496D01*
X140255200Y-117398496D02*
X140350438Y-117446115D01*
X140350438Y-117446115D02*
X140731390Y-117446115D01*
X140731390Y-117446115D02*
X140826628Y-117398496D01*
X140826628Y-117398496D02*
X140874247Y-117303258D01*
X140874247Y-117303258D02*
X140874247Y-117112782D01*
X140874247Y-117112782D02*
X140826628Y-117017544D01*
X140826628Y-117017544D02*
X140731390Y-116969925D01*
X140731390Y-116969925D02*
X140636152Y-116969925D01*
X140636152Y-116969925D02*
X140540914Y-117446115D01*
X140207580Y-116541353D02*
X140874247Y-116541353D01*
X140683771Y-116541353D02*
X140779009Y-116493734D01*
X140779009Y-116493734D02*
X140826628Y-116446115D01*
X140826628Y-116446115D02*
X140874247Y-116350877D01*
X140874247Y-116350877D02*
X140874247Y-116255639D01*
X140255200Y-115541353D02*
X140207580Y-115636591D01*
X140207580Y-115636591D02*
X140207580Y-115827067D01*
X140207580Y-115827067D02*
X140255200Y-115922305D01*
X140255200Y-115922305D02*
X140350438Y-115969924D01*
X140350438Y-115969924D02*
X140731390Y-115969924D01*
X140731390Y-115969924D02*
X140826628Y-115922305D01*
X140826628Y-115922305D02*
X140874247Y-115827067D01*
X140874247Y-115827067D02*
X140874247Y-115636591D01*
X140874247Y-115636591D02*
X140826628Y-115541353D01*
X140826628Y-115541353D02*
X140731390Y-115493734D01*
X140731390Y-115493734D02*
X140636152Y-115493734D01*
X140636152Y-115493734D02*
X140540914Y-115969924D01*
X140493295Y-114350876D02*
X140493295Y-113874686D01*
X140207580Y-114446114D02*
X141207580Y-114112781D01*
X141207580Y-114112781D02*
X140207580Y-113779448D01*
X140731390Y-113112781D02*
X140683771Y-112969924D01*
X140683771Y-112969924D02*
X140636152Y-112922305D01*
X140636152Y-112922305D02*
X140540914Y-112874686D01*
X140540914Y-112874686D02*
X140398057Y-112874686D01*
X140398057Y-112874686D02*
X140302819Y-112922305D01*
X140302819Y-112922305D02*
X140255200Y-112969924D01*
X140255200Y-112969924D02*
X140207580Y-113065162D01*
X140207580Y-113065162D02*
X140207580Y-113446114D01*
X140207580Y-113446114D02*
X141207580Y-113446114D01*
X141207580Y-113446114D02*
X141207580Y-113112781D01*
X141207580Y-113112781D02*
X141159961Y-113017543D01*
X141159961Y-113017543D02*
X141112342Y-112969924D01*
X141112342Y-112969924D02*
X141017104Y-112922305D01*
X141017104Y-112922305D02*
X140921866Y-112922305D01*
X140921866Y-112922305D02*
X140826628Y-112969924D01*
X140826628Y-112969924D02*
X140779009Y-113017543D01*
X140779009Y-113017543D02*
X140731390Y-113112781D01*
X140731390Y-113112781D02*
X140731390Y-113446114D01*
X140302819Y-111874686D02*
X140255200Y-111922305D01*
X140255200Y-111922305D02*
X140207580Y-112065162D01*
X140207580Y-112065162D02*
X140207580Y-112160400D01*
X140207580Y-112160400D02*
X140255200Y-112303257D01*
X140255200Y-112303257D02*
X140350438Y-112398495D01*
X140350438Y-112398495D02*
X140445676Y-112446114D01*
X140445676Y-112446114D02*
X140636152Y-112493733D01*
X140636152Y-112493733D02*
X140779009Y-112493733D01*
X140779009Y-112493733D02*
X140969485Y-112446114D01*
X140969485Y-112446114D02*
X141064723Y-112398495D01*
X141064723Y-112398495D02*
X141159961Y-112303257D01*
X141159961Y-112303257D02*
X141207580Y-112160400D01*
X141207580Y-112160400D02*
X141207580Y-112065162D01*
X141207580Y-112065162D02*
X141159961Y-111922305D01*
X141159961Y-111922305D02*
X141112342Y-111874686D01*
X140207580Y-111446114D02*
X141207580Y-111446114D01*
X141207580Y-111446114D02*
X141207580Y-111208019D01*
X141207580Y-111208019D02*
X141159961Y-111065162D01*
X141159961Y-111065162D02*
X141064723Y-110969924D01*
X141064723Y-110969924D02*
X140969485Y-110922305D01*
X140969485Y-110922305D02*
X140779009Y-110874686D01*
X140779009Y-110874686D02*
X140636152Y-110874686D01*
X140636152Y-110874686D02*
X140445676Y-110922305D01*
X140445676Y-110922305D02*
X140350438Y-110969924D01*
X140350438Y-110969924D02*
X140255200Y-111065162D01*
X140255200Y-111065162D02*
X140207580Y-111208019D01*
X140207580Y-111208019D02*
X140207580Y-111446114D01*
X140731390Y-110446114D02*
X140731390Y-110112781D01*
X140207580Y-109969924D02*
X140207580Y-110446114D01*
X140207580Y-110446114D02*
X141207580Y-110446114D01*
X141207580Y-110446114D02*
X141207580Y-109969924D01*
X140731390Y-109208019D02*
X140731390Y-109541352D01*
X140207580Y-109541352D02*
X141207580Y-109541352D01*
X141207580Y-109541352D02*
X141207580Y-109065162D01*
X141159961Y-108160400D02*
X141207580Y-108255638D01*
X141207580Y-108255638D02*
X141207580Y-108398495D01*
X141207580Y-108398495D02*
X141159961Y-108541352D01*
X141159961Y-108541352D02*
X141064723Y-108636590D01*
X141064723Y-108636590D02*
X140969485Y-108684209D01*
X140969485Y-108684209D02*
X140779009Y-108731828D01*
X140779009Y-108731828D02*
X140636152Y-108731828D01*
X140636152Y-108731828D02*
X140445676Y-108684209D01*
X140445676Y-108684209D02*
X140350438Y-108636590D01*
X140350438Y-108636590D02*
X140255200Y-108541352D01*
X140255200Y-108541352D02*
X140207580Y-108398495D01*
X140207580Y-108398495D02*
X140207580Y-108303257D01*
X140207580Y-108303257D02*
X140255200Y-108160400D01*
X140255200Y-108160400D02*
X140302819Y-108112781D01*
X140302819Y-108112781D02*
X140636152Y-108112781D01*
X140636152Y-108112781D02*
X140636152Y-108303257D01*
X140207580Y-107684209D02*
X141207580Y-107684209D01*
X140731390Y-107684209D02*
X140731390Y-107112781D01*
X140207580Y-107112781D02*
X141207580Y-107112781D01*
X140207580Y-105874685D02*
X140874247Y-105874685D01*
X141207580Y-105874685D02*
X141159961Y-105922304D01*
X141159961Y-105922304D02*
X141112342Y-105874685D01*
X141112342Y-105874685D02*
X141159961Y-105827066D01*
X141159961Y-105827066D02*
X141207580Y-105874685D01*
X141207580Y-105874685D02*
X141112342Y-105874685D01*
X140255200Y-105446114D02*
X140207580Y-105350876D01*
X140207580Y-105350876D02*
X140207580Y-105160400D01*
X140207580Y-105160400D02*
X140255200Y-105065162D01*
X140255200Y-105065162D02*
X140350438Y-105017543D01*
X140350438Y-105017543D02*
X140398057Y-105017543D01*
X140398057Y-105017543D02*
X140493295Y-105065162D01*
X140493295Y-105065162D02*
X140540914Y-105160400D01*
X140540914Y-105160400D02*
X140540914Y-105303257D01*
X140540914Y-105303257D02*
X140588533Y-105398495D01*
X140588533Y-105398495D02*
X140683771Y-105446114D01*
X140683771Y-105446114D02*
X140731390Y-105446114D01*
X140731390Y-105446114D02*
X140826628Y-105398495D01*
X140826628Y-105398495D02*
X140874247Y-105303257D01*
X140874247Y-105303257D02*
X140874247Y-105160400D01*
X140874247Y-105160400D02*
X140826628Y-105065162D01*
X140874247Y-103969923D02*
X140874247Y-103588971D01*
X141207580Y-103827066D02*
X140350438Y-103827066D01*
X140350438Y-103827066D02*
X140255200Y-103779447D01*
X140255200Y-103779447D02*
X140207580Y-103684209D01*
X140207580Y-103684209D02*
X140207580Y-103588971D01*
X140207580Y-103255637D02*
X141207580Y-103255637D01*
X140207580Y-102827066D02*
X140731390Y-102827066D01*
X140731390Y-102827066D02*
X140826628Y-102874685D01*
X140826628Y-102874685D02*
X140874247Y-102969923D01*
X140874247Y-102969923D02*
X140874247Y-103112780D01*
X140874247Y-103112780D02*
X140826628Y-103208018D01*
X140826628Y-103208018D02*
X140779009Y-103255637D01*
X140255200Y-101969923D02*
X140207580Y-102065161D01*
X140207580Y-102065161D02*
X140207580Y-102255637D01*
X140207580Y-102255637D02*
X140255200Y-102350875D01*
X140255200Y-102350875D02*
X140350438Y-102398494D01*
X140350438Y-102398494D02*
X140731390Y-102398494D01*
X140731390Y-102398494D02*
X140826628Y-102350875D01*
X140826628Y-102350875D02*
X140874247Y-102255637D01*
X140874247Y-102255637D02*
X140874247Y-102065161D01*
X140874247Y-102065161D02*
X140826628Y-101969923D01*
X140826628Y-101969923D02*
X140731390Y-101922304D01*
X140731390Y-101922304D02*
X140636152Y-101922304D01*
X140636152Y-101922304D02*
X140540914Y-102398494D01*
X140207580Y-100731827D02*
X141207580Y-100731827D01*
X140874247Y-100255637D02*
X140207580Y-100255637D01*
X140779009Y-100255637D02*
X140826628Y-100208018D01*
X140826628Y-100208018D02*
X140874247Y-100112780D01*
X140874247Y-100112780D02*
X140874247Y-99969923D01*
X140874247Y-99969923D02*
X140826628Y-99874685D01*
X140826628Y-99874685D02*
X140731390Y-99827066D01*
X140731390Y-99827066D02*
X140207580Y-99827066D01*
X140255200Y-99398494D02*
X140207580Y-99303256D01*
X140207580Y-99303256D02*
X140207580Y-99112780D01*
X140207580Y-99112780D02*
X140255200Y-99017542D01*
X140255200Y-99017542D02*
X140350438Y-98969923D01*
X140350438Y-98969923D02*
X140398057Y-98969923D01*
X140398057Y-98969923D02*
X140493295Y-99017542D01*
X140493295Y-99017542D02*
X140540914Y-99112780D01*
X140540914Y-99112780D02*
X140540914Y-99255637D01*
X140540914Y-99255637D02*
X140588533Y-99350875D01*
X140588533Y-99350875D02*
X140683771Y-99398494D01*
X140683771Y-99398494D02*
X140731390Y-99398494D01*
X140731390Y-99398494D02*
X140826628Y-99350875D01*
X140826628Y-99350875D02*
X140874247Y-99255637D01*
X140874247Y-99255637D02*
X140874247Y-99112780D01*
X140874247Y-99112780D02*
X140826628Y-99017542D01*
X140874247Y-98684208D02*
X140874247Y-98303256D01*
X141207580Y-98541351D02*
X140350438Y-98541351D01*
X140350438Y-98541351D02*
X140255200Y-98493732D01*
X140255200Y-98493732D02*
X140207580Y-98398494D01*
X140207580Y-98398494D02*
X140207580Y-98303256D01*
X140207580Y-97969922D02*
X140874247Y-97969922D01*
X140683771Y-97969922D02*
X140779009Y-97922303D01*
X140779009Y-97922303D02*
X140826628Y-97874684D01*
X140826628Y-97874684D02*
X140874247Y-97779446D01*
X140874247Y-97779446D02*
X140874247Y-97684208D01*
X140874247Y-96922303D02*
X140207580Y-96922303D01*
X140874247Y-97350874D02*
X140350438Y-97350874D01*
X140350438Y-97350874D02*
X140255200Y-97303255D01*
X140255200Y-97303255D02*
X140207580Y-97208017D01*
X140207580Y-97208017D02*
X140207580Y-97065160D01*
X140207580Y-97065160D02*
X140255200Y-96969922D01*
X140255200Y-96969922D02*
X140302819Y-96922303D01*
X140255200Y-96017541D02*
X140207580Y-96112779D01*
X140207580Y-96112779D02*
X140207580Y-96303255D01*
X140207580Y-96303255D02*
X140255200Y-96398493D01*
X140255200Y-96398493D02*
X140302819Y-96446112D01*
X140302819Y-96446112D02*
X140398057Y-96493731D01*
X140398057Y-96493731D02*
X140683771Y-96493731D01*
X140683771Y-96493731D02*
X140779009Y-96446112D01*
X140779009Y-96446112D02*
X140826628Y-96398493D01*
X140826628Y-96398493D02*
X140874247Y-96303255D01*
X140874247Y-96303255D02*
X140874247Y-96112779D01*
X140874247Y-96112779D02*
X140826628Y-96017541D01*
X140874247Y-95731826D02*
X140874247Y-95350874D01*
X141207580Y-95588969D02*
X140350438Y-95588969D01*
X140350438Y-95588969D02*
X140255200Y-95541350D01*
X140255200Y-95541350D02*
X140207580Y-95446112D01*
X140207580Y-95446112D02*
X140207580Y-95350874D01*
X140207580Y-95017540D02*
X140874247Y-95017540D01*
X141207580Y-95017540D02*
X141159961Y-95065159D01*
X141159961Y-95065159D02*
X141112342Y-95017540D01*
X141112342Y-95017540D02*
X141159961Y-94969921D01*
X141159961Y-94969921D02*
X141207580Y-95017540D01*
X141207580Y-95017540D02*
X141112342Y-95017540D01*
X140207580Y-94398493D02*
X140255200Y-94493731D01*
X140255200Y-94493731D02*
X140302819Y-94541350D01*
X140302819Y-94541350D02*
X140398057Y-94588969D01*
X140398057Y-94588969D02*
X140683771Y-94588969D01*
X140683771Y-94588969D02*
X140779009Y-94541350D01*
X140779009Y-94541350D02*
X140826628Y-94493731D01*
X140826628Y-94493731D02*
X140874247Y-94398493D01*
X140874247Y-94398493D02*
X140874247Y-94255636D01*
X140874247Y-94255636D02*
X140826628Y-94160398D01*
X140826628Y-94160398D02*
X140779009Y-94112779D01*
X140779009Y-94112779D02*
X140683771Y-94065160D01*
X140683771Y-94065160D02*
X140398057Y-94065160D01*
X140398057Y-94065160D02*
X140302819Y-94112779D01*
X140302819Y-94112779D02*
X140255200Y-94160398D01*
X140255200Y-94160398D02*
X140207580Y-94255636D01*
X140207580Y-94255636D02*
X140207580Y-94398493D01*
X140874247Y-93636588D02*
X140207580Y-93636588D01*
X140779009Y-93636588D02*
X140826628Y-93588969D01*
X140826628Y-93588969D02*
X140874247Y-93493731D01*
X140874247Y-93493731D02*
X140874247Y-93350874D01*
X140874247Y-93350874D02*
X140826628Y-93255636D01*
X140826628Y-93255636D02*
X140731390Y-93208017D01*
X140731390Y-93208017D02*
X140207580Y-93208017D01*
D11*
X179337028Y-122088346D02*
X179265600Y-122159774D01*
X179265600Y-122159774D02*
X179194171Y-122374060D01*
X179194171Y-122374060D02*
X179194171Y-122516917D01*
X179194171Y-122516917D02*
X179265600Y-122731203D01*
X179265600Y-122731203D02*
X179408457Y-122874060D01*
X179408457Y-122874060D02*
X179551314Y-122945489D01*
X179551314Y-122945489D02*
X179837028Y-123016917D01*
X179837028Y-123016917D02*
X180051314Y-123016917D01*
X180051314Y-123016917D02*
X180337028Y-122945489D01*
X180337028Y-122945489D02*
X180479885Y-122874060D01*
X180479885Y-122874060D02*
X180622742Y-122731203D01*
X180622742Y-122731203D02*
X180694171Y-122516917D01*
X180694171Y-122516917D02*
X180694171Y-122374060D01*
X180694171Y-122374060D02*
X180622742Y-122159774D01*
X180622742Y-122159774D02*
X180551314Y-122088346D01*
X180694171Y-121159774D02*
X180694171Y-120874060D01*
X180694171Y-120874060D02*
X180622742Y-120731203D01*
X180622742Y-120731203D02*
X180479885Y-120588346D01*
X180479885Y-120588346D02*
X180194171Y-120516917D01*
X180194171Y-120516917D02*
X179694171Y-120516917D01*
X179694171Y-120516917D02*
X179408457Y-120588346D01*
X179408457Y-120588346D02*
X179265600Y-120731203D01*
X179265600Y-120731203D02*
X179194171Y-120874060D01*
X179194171Y-120874060D02*
X179194171Y-121159774D01*
X179194171Y-121159774D02*
X179265600Y-121302632D01*
X179265600Y-121302632D02*
X179408457Y-121445489D01*
X179408457Y-121445489D02*
X179694171Y-121516917D01*
X179694171Y-121516917D02*
X180194171Y-121516917D01*
X180194171Y-121516917D02*
X180479885Y-121445489D01*
X180479885Y-121445489D02*
X180622742Y-121302632D01*
X180622742Y-121302632D02*
X180694171Y-121159774D01*
X179194171Y-119874060D02*
X180694171Y-119874060D01*
X180694171Y-119874060D02*
X179194171Y-119016917D01*
X179194171Y-119016917D02*
X180694171Y-119016917D01*
X180694171Y-118516916D02*
X180694171Y-117659774D01*
X179194171Y-118088345D02*
X180694171Y-118088345D01*
X179194171Y-116302631D02*
X179908457Y-116802631D01*
X179194171Y-117159774D02*
X180694171Y-117159774D01*
X180694171Y-117159774D02*
X180694171Y-116588345D01*
X180694171Y-116588345D02*
X180622742Y-116445488D01*
X180622742Y-116445488D02*
X180551314Y-116374059D01*
X180551314Y-116374059D02*
X180408457Y-116302631D01*
X180408457Y-116302631D02*
X180194171Y-116302631D01*
X180194171Y-116302631D02*
X180051314Y-116374059D01*
X180051314Y-116374059D02*
X179979885Y-116445488D01*
X179979885Y-116445488D02*
X179908457Y-116588345D01*
X179908457Y-116588345D02*
X179908457Y-117159774D01*
X180694171Y-115374059D02*
X180694171Y-115088345D01*
X180694171Y-115088345D02*
X180622742Y-114945488D01*
X180622742Y-114945488D02*
X180479885Y-114802631D01*
X180479885Y-114802631D02*
X180194171Y-114731202D01*
X180194171Y-114731202D02*
X179694171Y-114731202D01*
X179694171Y-114731202D02*
X179408457Y-114802631D01*
X179408457Y-114802631D02*
X179265600Y-114945488D01*
X179265600Y-114945488D02*
X179194171Y-115088345D01*
X179194171Y-115088345D02*
X179194171Y-115374059D01*
X179194171Y-115374059D02*
X179265600Y-115516917D01*
X179265600Y-115516917D02*
X179408457Y-115659774D01*
X179408457Y-115659774D02*
X179694171Y-115731202D01*
X179694171Y-115731202D02*
X180194171Y-115731202D01*
X180194171Y-115731202D02*
X180479885Y-115659774D01*
X180479885Y-115659774D02*
X180622742Y-115516917D01*
X180622742Y-115516917D02*
X180694171Y-115374059D01*
X179194171Y-113374059D02*
X179194171Y-114088345D01*
X179194171Y-114088345D02*
X180694171Y-114088345D01*
X179194171Y-112159773D02*
X179194171Y-112874059D01*
X179194171Y-112874059D02*
X180694171Y-112874059D01*
X179979885Y-111659773D02*
X179979885Y-111159773D01*
X179194171Y-110945487D02*
X179194171Y-111659773D01*
X179194171Y-111659773D02*
X180694171Y-111659773D01*
X180694171Y-111659773D02*
X180694171Y-110945487D01*
X179194171Y-109445487D02*
X179908457Y-109945487D01*
X179194171Y-110302630D02*
X180694171Y-110302630D01*
X180694171Y-110302630D02*
X180694171Y-109731201D01*
X180694171Y-109731201D02*
X180622742Y-109588344D01*
X180622742Y-109588344D02*
X180551314Y-109516915D01*
X180551314Y-109516915D02*
X180408457Y-109445487D01*
X180408457Y-109445487D02*
X180194171Y-109445487D01*
X180194171Y-109445487D02*
X180051314Y-109516915D01*
X180051314Y-109516915D02*
X179979885Y-109588344D01*
X179979885Y-109588344D02*
X179908457Y-109731201D01*
X179908457Y-109731201D02*
X179908457Y-110302630D01*
X179194171Y-106945487D02*
X179194171Y-107659773D01*
X179194171Y-107659773D02*
X180694171Y-107659773D01*
X180694171Y-106159772D02*
X180694171Y-105874058D01*
X180694171Y-105874058D02*
X180622742Y-105731201D01*
X180622742Y-105731201D02*
X180479885Y-105588344D01*
X180479885Y-105588344D02*
X180194171Y-105516915D01*
X180194171Y-105516915D02*
X179694171Y-105516915D01*
X179694171Y-105516915D02*
X179408457Y-105588344D01*
X179408457Y-105588344D02*
X179265600Y-105731201D01*
X179265600Y-105731201D02*
X179194171Y-105874058D01*
X179194171Y-105874058D02*
X179194171Y-106159772D01*
X179194171Y-106159772D02*
X179265600Y-106302630D01*
X179265600Y-106302630D02*
X179408457Y-106445487D01*
X179408457Y-106445487D02*
X179694171Y-106516915D01*
X179694171Y-106516915D02*
X180194171Y-106516915D01*
X180194171Y-106516915D02*
X180479885Y-106445487D01*
X180479885Y-106445487D02*
X180622742Y-106302630D01*
X180622742Y-106302630D02*
X180694171Y-106159772D01*
X180622742Y-104088343D02*
X180694171Y-104231201D01*
X180694171Y-104231201D02*
X180694171Y-104445486D01*
X180694171Y-104445486D02*
X180622742Y-104659772D01*
X180622742Y-104659772D02*
X180479885Y-104802629D01*
X180479885Y-104802629D02*
X180337028Y-104874058D01*
X180337028Y-104874058D02*
X180051314Y-104945486D01*
X180051314Y-104945486D02*
X179837028Y-104945486D01*
X179837028Y-104945486D02*
X179551314Y-104874058D01*
X179551314Y-104874058D02*
X179408457Y-104802629D01*
X179408457Y-104802629D02*
X179265600Y-104659772D01*
X179265600Y-104659772D02*
X179194171Y-104445486D01*
X179194171Y-104445486D02*
X179194171Y-104302629D01*
X179194171Y-104302629D02*
X179265600Y-104088343D01*
X179265600Y-104088343D02*
X179337028Y-104016915D01*
X179337028Y-104016915D02*
X179837028Y-104016915D01*
X179837028Y-104016915D02*
X179837028Y-104302629D01*
X179194171Y-103374058D02*
X180694171Y-103374058D01*
X179337028Y-101802629D02*
X179265600Y-101874057D01*
X179265600Y-101874057D02*
X179194171Y-102088343D01*
X179194171Y-102088343D02*
X179194171Y-102231200D01*
X179194171Y-102231200D02*
X179265600Y-102445486D01*
X179265600Y-102445486D02*
X179408457Y-102588343D01*
X179408457Y-102588343D02*
X179551314Y-102659772D01*
X179551314Y-102659772D02*
X179837028Y-102731200D01*
X179837028Y-102731200D02*
X180051314Y-102731200D01*
X180051314Y-102731200D02*
X180337028Y-102659772D01*
X180337028Y-102659772D02*
X180479885Y-102588343D01*
X180479885Y-102588343D02*
X180622742Y-102445486D01*
X180622742Y-102445486D02*
X180694171Y-102231200D01*
X180694171Y-102231200D02*
X180694171Y-102088343D01*
X180694171Y-102088343D02*
X180622742Y-101874057D01*
X180622742Y-101874057D02*
X180551314Y-101802629D01*
D10*
X170957580Y-119696115D02*
X171957580Y-119696115D01*
X171957580Y-119696115D02*
X171957580Y-119315163D01*
X171957580Y-119315163D02*
X171909961Y-119219925D01*
X171909961Y-119219925D02*
X171862342Y-119172306D01*
X171862342Y-119172306D02*
X171767104Y-119124687D01*
X171767104Y-119124687D02*
X171624247Y-119124687D01*
X171624247Y-119124687D02*
X171529009Y-119172306D01*
X171529009Y-119172306D02*
X171481390Y-119219925D01*
X171481390Y-119219925D02*
X171433771Y-119315163D01*
X171433771Y-119315163D02*
X171433771Y-119696115D01*
X171052819Y-118124687D02*
X171005200Y-118172306D01*
X171005200Y-118172306D02*
X170957580Y-118315163D01*
X170957580Y-118315163D02*
X170957580Y-118410401D01*
X170957580Y-118410401D02*
X171005200Y-118553258D01*
X171005200Y-118553258D02*
X171100438Y-118648496D01*
X171100438Y-118648496D02*
X171195676Y-118696115D01*
X171195676Y-118696115D02*
X171386152Y-118743734D01*
X171386152Y-118743734D02*
X171529009Y-118743734D01*
X171529009Y-118743734D02*
X171719485Y-118696115D01*
X171719485Y-118696115D02*
X171814723Y-118648496D01*
X171814723Y-118648496D02*
X171909961Y-118553258D01*
X171909961Y-118553258D02*
X171957580Y-118410401D01*
X171957580Y-118410401D02*
X171957580Y-118315163D01*
X171957580Y-118315163D02*
X171909961Y-118172306D01*
X171909961Y-118172306D02*
X171862342Y-118124687D01*
X171005200Y-117743734D02*
X170957580Y-117600877D01*
X170957580Y-117600877D02*
X170957580Y-117362782D01*
X170957580Y-117362782D02*
X171005200Y-117267544D01*
X171005200Y-117267544D02*
X171052819Y-117219925D01*
X171052819Y-117219925D02*
X171148057Y-117172306D01*
X171148057Y-117172306D02*
X171243295Y-117172306D01*
X171243295Y-117172306D02*
X171338533Y-117219925D01*
X171338533Y-117219925D02*
X171386152Y-117267544D01*
X171386152Y-117267544D02*
X171433771Y-117362782D01*
X171433771Y-117362782D02*
X171481390Y-117553258D01*
X171481390Y-117553258D02*
X171529009Y-117648496D01*
X171529009Y-117648496D02*
X171576628Y-117696115D01*
X171576628Y-117696115D02*
X171671866Y-117743734D01*
X171671866Y-117743734D02*
X171767104Y-117743734D01*
X171767104Y-117743734D02*
X171862342Y-117696115D01*
X171862342Y-117696115D02*
X171909961Y-117648496D01*
X171909961Y-117648496D02*
X171957580Y-117553258D01*
X171957580Y-117553258D02*
X171957580Y-117315163D01*
X171957580Y-117315163D02*
X171909961Y-117172306D01*
X170957580Y-116743734D02*
X171624247Y-116743734D01*
X171433771Y-116743734D02*
X171529009Y-116696115D01*
X171529009Y-116696115D02*
X171576628Y-116648496D01*
X171576628Y-116648496D02*
X171624247Y-116553258D01*
X171624247Y-116553258D02*
X171624247Y-116458020D01*
X171005200Y-115696115D02*
X170957580Y-115791353D01*
X170957580Y-115791353D02*
X170957580Y-115981829D01*
X170957580Y-115981829D02*
X171005200Y-116077067D01*
X171005200Y-116077067D02*
X171052819Y-116124686D01*
X171052819Y-116124686D02*
X171148057Y-116172305D01*
X171148057Y-116172305D02*
X171433771Y-116172305D01*
X171433771Y-116172305D02*
X171529009Y-116124686D01*
X171529009Y-116124686D02*
X171576628Y-116077067D01*
X171576628Y-116077067D02*
X171624247Y-115981829D01*
X171624247Y-115981829D02*
X171624247Y-115791353D01*
X171624247Y-115791353D02*
X171576628Y-115696115D01*
X171481390Y-114505638D02*
X171481390Y-113743734D01*
X171195676Y-113743734D02*
X171195676Y-114505638D01*
X171243295Y-112553257D02*
X171243295Y-112077067D01*
X170957580Y-112648495D02*
X171957580Y-112315162D01*
X171957580Y-112315162D02*
X170957580Y-111981829D01*
X171957580Y-111505638D02*
X171719485Y-111505638D01*
X171814723Y-111743733D02*
X171719485Y-111505638D01*
X171719485Y-111505638D02*
X171814723Y-111267543D01*
X171529009Y-111648495D02*
X171719485Y-111505638D01*
X171719485Y-111505638D02*
X171529009Y-111362781D01*
X171957580Y-110981828D02*
X170957580Y-110315162D01*
X171957580Y-110315162D02*
X170957580Y-110981828D01*
X171957580Y-109743733D02*
X171957580Y-109553257D01*
X171957580Y-109553257D02*
X171909961Y-109458019D01*
X171909961Y-109458019D02*
X171814723Y-109362781D01*
X171814723Y-109362781D02*
X171624247Y-109315162D01*
X171624247Y-109315162D02*
X171290914Y-109315162D01*
X171290914Y-109315162D02*
X171100438Y-109362781D01*
X171100438Y-109362781D02*
X171005200Y-109458019D01*
X171005200Y-109458019D02*
X170957580Y-109553257D01*
X170957580Y-109553257D02*
X170957580Y-109743733D01*
X170957580Y-109743733D02*
X171005200Y-109838971D01*
X171005200Y-109838971D02*
X171100438Y-109934209D01*
X171100438Y-109934209D02*
X171290914Y-109981828D01*
X171290914Y-109981828D02*
X171624247Y-109981828D01*
X171624247Y-109981828D02*
X171814723Y-109934209D01*
X171814723Y-109934209D02*
X171909961Y-109838971D01*
X171909961Y-109838971D02*
X171957580Y-109743733D01*
X170957580Y-108315162D02*
X171433771Y-108648495D01*
X170957580Y-108886590D02*
X171957580Y-108886590D01*
X171957580Y-108886590D02*
X171957580Y-108505638D01*
X171957580Y-108505638D02*
X171909961Y-108410400D01*
X171909961Y-108410400D02*
X171862342Y-108362781D01*
X171862342Y-108362781D02*
X171767104Y-108315162D01*
X171767104Y-108315162D02*
X171624247Y-108315162D01*
X171624247Y-108315162D02*
X171529009Y-108362781D01*
X171529009Y-108362781D02*
X171481390Y-108410400D01*
X171481390Y-108410400D02*
X171433771Y-108505638D01*
X171433771Y-108505638D02*
X171433771Y-108886590D01*
X170576628Y-107600876D02*
X170624247Y-107648495D01*
X170624247Y-107648495D02*
X170767104Y-107743733D01*
X170767104Y-107743733D02*
X170862342Y-107791352D01*
X170862342Y-107791352D02*
X171005200Y-107838971D01*
X171005200Y-107838971D02*
X171243295Y-107886590D01*
X171243295Y-107886590D02*
X171433771Y-107886590D01*
X171433771Y-107886590D02*
X171671866Y-107838971D01*
X171671866Y-107838971D02*
X171814723Y-107791352D01*
X171814723Y-107791352D02*
X171909961Y-107743733D01*
X171909961Y-107743733D02*
X172052819Y-107648495D01*
X172052819Y-107648495D02*
X172100438Y-107600876D01*
X171481390Y-106886590D02*
X171433771Y-106743733D01*
X171433771Y-106743733D02*
X171386152Y-106696114D01*
X171386152Y-106696114D02*
X171290914Y-106648495D01*
X171290914Y-106648495D02*
X171148057Y-106648495D01*
X171148057Y-106648495D02*
X171052819Y-106696114D01*
X171052819Y-106696114D02*
X171005200Y-106743733D01*
X171005200Y-106743733D02*
X170957580Y-106838971D01*
X170957580Y-106838971D02*
X170957580Y-107219923D01*
X170957580Y-107219923D02*
X171957580Y-107219923D01*
X171957580Y-107219923D02*
X171957580Y-106886590D01*
X171957580Y-106886590D02*
X171909961Y-106791352D01*
X171909961Y-106791352D02*
X171862342Y-106743733D01*
X171862342Y-106743733D02*
X171767104Y-106696114D01*
X171767104Y-106696114D02*
X171671866Y-106696114D01*
X171671866Y-106696114D02*
X171576628Y-106743733D01*
X171576628Y-106743733D02*
X171529009Y-106791352D01*
X171529009Y-106791352D02*
X171481390Y-106886590D01*
X171481390Y-106886590D02*
X171481390Y-107219923D01*
X171005200Y-106172304D02*
X170957580Y-106172304D01*
X170957580Y-106172304D02*
X170862342Y-106219923D01*
X170862342Y-106219923D02*
X170814723Y-106267542D01*
X171005200Y-105791352D02*
X170957580Y-105648495D01*
X170957580Y-105648495D02*
X170957580Y-105410400D01*
X170957580Y-105410400D02*
X171005200Y-105315162D01*
X171005200Y-105315162D02*
X171052819Y-105267543D01*
X171052819Y-105267543D02*
X171148057Y-105219924D01*
X171148057Y-105219924D02*
X171243295Y-105219924D01*
X171243295Y-105219924D02*
X171338533Y-105267543D01*
X171338533Y-105267543D02*
X171386152Y-105315162D01*
X171386152Y-105315162D02*
X171433771Y-105410400D01*
X171433771Y-105410400D02*
X171481390Y-105600876D01*
X171481390Y-105600876D02*
X171529009Y-105696114D01*
X171529009Y-105696114D02*
X171576628Y-105743733D01*
X171576628Y-105743733D02*
X171671866Y-105791352D01*
X171671866Y-105791352D02*
X171767104Y-105791352D01*
X171767104Y-105791352D02*
X171862342Y-105743733D01*
X171862342Y-105743733D02*
X171909961Y-105696114D01*
X171909961Y-105696114D02*
X171957580Y-105600876D01*
X171957580Y-105600876D02*
X171957580Y-105362781D01*
X171957580Y-105362781D02*
X171909961Y-105219924D01*
X170957580Y-104267543D02*
X170957580Y-104838971D01*
X170957580Y-104553257D02*
X171957580Y-104553257D01*
X171957580Y-104553257D02*
X171814723Y-104648495D01*
X171814723Y-104648495D02*
X171719485Y-104743733D01*
X171719485Y-104743733D02*
X171671866Y-104838971D01*
X170576628Y-103934209D02*
X170624247Y-103886590D01*
X170624247Y-103886590D02*
X170767104Y-103791352D01*
X170767104Y-103791352D02*
X170862342Y-103743733D01*
X170862342Y-103743733D02*
X171005200Y-103696114D01*
X171005200Y-103696114D02*
X171243295Y-103648495D01*
X171243295Y-103648495D02*
X171433771Y-103648495D01*
X171433771Y-103648495D02*
X171671866Y-103696114D01*
X171671866Y-103696114D02*
X171814723Y-103743733D01*
X171814723Y-103743733D02*
X171909961Y-103791352D01*
X171909961Y-103791352D02*
X172052819Y-103886590D01*
X172052819Y-103886590D02*
X172100438Y-103934209D01*
X172235200Y-111024686D02*
X172235200Y-103510400D01*
X171957580Y-103029447D02*
X171719485Y-103029447D01*
X171814723Y-103267542D02*
X171719485Y-103029447D01*
X171719485Y-103029447D02*
X171814723Y-102791352D01*
X171529009Y-103172304D02*
X171719485Y-103029447D01*
X171719485Y-103029447D02*
X171529009Y-102886590D01*
X171957580Y-102505637D02*
X170957580Y-101838971D01*
X171957580Y-101838971D02*
X170957580Y-102505637D01*
X171957580Y-101267542D02*
X171957580Y-101077066D01*
X171957580Y-101077066D02*
X171909961Y-100981828D01*
X171909961Y-100981828D02*
X171814723Y-100886590D01*
X171814723Y-100886590D02*
X171624247Y-100838971D01*
X171624247Y-100838971D02*
X171290914Y-100838971D01*
X171290914Y-100838971D02*
X171100438Y-100886590D01*
X171100438Y-100886590D02*
X171005200Y-100981828D01*
X171005200Y-100981828D02*
X170957580Y-101077066D01*
X170957580Y-101077066D02*
X170957580Y-101267542D01*
X170957580Y-101267542D02*
X171005200Y-101362780D01*
X171005200Y-101362780D02*
X171100438Y-101458018D01*
X171100438Y-101458018D02*
X171290914Y-101505637D01*
X171290914Y-101505637D02*
X171624247Y-101505637D01*
X171624247Y-101505637D02*
X171814723Y-101458018D01*
X171814723Y-101458018D02*
X171909961Y-101362780D01*
X171909961Y-101362780D02*
X171957580Y-101267542D01*
X170957580Y-99838971D02*
X171433771Y-100172304D01*
X170957580Y-100410399D02*
X171957580Y-100410399D01*
X171957580Y-100410399D02*
X171957580Y-100029447D01*
X171957580Y-100029447D02*
X171909961Y-99934209D01*
X171909961Y-99934209D02*
X171862342Y-99886590D01*
X171862342Y-99886590D02*
X171767104Y-99838971D01*
X171767104Y-99838971D02*
X171624247Y-99838971D01*
X171624247Y-99838971D02*
X171529009Y-99886590D01*
X171529009Y-99886590D02*
X171481390Y-99934209D01*
X171481390Y-99934209D02*
X171433771Y-100029447D01*
X171433771Y-100029447D02*
X171433771Y-100410399D01*
X170576628Y-99124685D02*
X170624247Y-99172304D01*
X170624247Y-99172304D02*
X170767104Y-99267542D01*
X170767104Y-99267542D02*
X170862342Y-99315161D01*
X170862342Y-99315161D02*
X171005200Y-99362780D01*
X171005200Y-99362780D02*
X171243295Y-99410399D01*
X171243295Y-99410399D02*
X171433771Y-99410399D01*
X171433771Y-99410399D02*
X171671866Y-99362780D01*
X171671866Y-99362780D02*
X171814723Y-99315161D01*
X171814723Y-99315161D02*
X171909961Y-99267542D01*
X171909961Y-99267542D02*
X172052819Y-99172304D01*
X172052819Y-99172304D02*
X172100438Y-99124685D01*
X171052819Y-98172304D02*
X171005200Y-98219923D01*
X171005200Y-98219923D02*
X170957580Y-98362780D01*
X170957580Y-98362780D02*
X170957580Y-98458018D01*
X170957580Y-98458018D02*
X171005200Y-98600875D01*
X171005200Y-98600875D02*
X171100438Y-98696113D01*
X171100438Y-98696113D02*
X171195676Y-98743732D01*
X171195676Y-98743732D02*
X171386152Y-98791351D01*
X171386152Y-98791351D02*
X171529009Y-98791351D01*
X171529009Y-98791351D02*
X171719485Y-98743732D01*
X171719485Y-98743732D02*
X171814723Y-98696113D01*
X171814723Y-98696113D02*
X171909961Y-98600875D01*
X171909961Y-98600875D02*
X171957580Y-98458018D01*
X171957580Y-98458018D02*
X171957580Y-98362780D01*
X171957580Y-98362780D02*
X171909961Y-98219923D01*
X171909961Y-98219923D02*
X171862342Y-98172304D01*
X171005200Y-97696113D02*
X170957580Y-97696113D01*
X170957580Y-97696113D02*
X170862342Y-97743732D01*
X170862342Y-97743732D02*
X170814723Y-97791351D01*
X171005200Y-97315161D02*
X170957580Y-97172304D01*
X170957580Y-97172304D02*
X170957580Y-96934209D01*
X170957580Y-96934209D02*
X171005200Y-96838971D01*
X171005200Y-96838971D02*
X171052819Y-96791352D01*
X171052819Y-96791352D02*
X171148057Y-96743733D01*
X171148057Y-96743733D02*
X171243295Y-96743733D01*
X171243295Y-96743733D02*
X171338533Y-96791352D01*
X171338533Y-96791352D02*
X171386152Y-96838971D01*
X171386152Y-96838971D02*
X171433771Y-96934209D01*
X171433771Y-96934209D02*
X171481390Y-97124685D01*
X171481390Y-97124685D02*
X171529009Y-97219923D01*
X171529009Y-97219923D02*
X171576628Y-97267542D01*
X171576628Y-97267542D02*
X171671866Y-97315161D01*
X171671866Y-97315161D02*
X171767104Y-97315161D01*
X171767104Y-97315161D02*
X171862342Y-97267542D01*
X171862342Y-97267542D02*
X171909961Y-97219923D01*
X171909961Y-97219923D02*
X171957580Y-97124685D01*
X171957580Y-97124685D02*
X171957580Y-96886590D01*
X171957580Y-96886590D02*
X171909961Y-96743733D01*
X171957580Y-96124685D02*
X171957580Y-96029447D01*
X171957580Y-96029447D02*
X171909961Y-95934209D01*
X171909961Y-95934209D02*
X171862342Y-95886590D01*
X171862342Y-95886590D02*
X171767104Y-95838971D01*
X171767104Y-95838971D02*
X171576628Y-95791352D01*
X171576628Y-95791352D02*
X171338533Y-95791352D01*
X171338533Y-95791352D02*
X171148057Y-95838971D01*
X171148057Y-95838971D02*
X171052819Y-95886590D01*
X171052819Y-95886590D02*
X171005200Y-95934209D01*
X171005200Y-95934209D02*
X170957580Y-96029447D01*
X170957580Y-96029447D02*
X170957580Y-96124685D01*
X170957580Y-96124685D02*
X171005200Y-96219923D01*
X171005200Y-96219923D02*
X171052819Y-96267542D01*
X171052819Y-96267542D02*
X171148057Y-96315161D01*
X171148057Y-96315161D02*
X171338533Y-96362780D01*
X171338533Y-96362780D02*
X171576628Y-96362780D01*
X171576628Y-96362780D02*
X171767104Y-96315161D01*
X171767104Y-96315161D02*
X171862342Y-96267542D01*
X171862342Y-96267542D02*
X171909961Y-96219923D01*
X171909961Y-96219923D02*
X171957580Y-96124685D01*
X170576628Y-95458018D02*
X170624247Y-95410399D01*
X170624247Y-95410399D02*
X170767104Y-95315161D01*
X170767104Y-95315161D02*
X170862342Y-95267542D01*
X170862342Y-95267542D02*
X171005200Y-95219923D01*
X171005200Y-95219923D02*
X171243295Y-95172304D01*
X171243295Y-95172304D02*
X171433771Y-95172304D01*
X171433771Y-95172304D02*
X171671866Y-95219923D01*
X171671866Y-95219923D02*
X171814723Y-95267542D01*
X171814723Y-95267542D02*
X171909961Y-95315161D01*
X171909961Y-95315161D02*
X172052819Y-95410399D01*
X172052819Y-95410399D02*
X172100438Y-95458018D01*
X172235200Y-102548495D02*
X172235200Y-95034209D01*
X171338533Y-93934208D02*
X171338533Y-93172304D01*
X170957580Y-93553256D02*
X171719485Y-93553256D01*
X171243295Y-91981827D02*
X171243295Y-91505637D01*
X170957580Y-92077065D02*
X171957580Y-91743732D01*
X171957580Y-91743732D02*
X170957580Y-91410399D01*
X172235200Y-92072304D02*
X172235200Y-91415161D01*
X171481390Y-90743732D02*
X171433771Y-90600875D01*
X171433771Y-90600875D02*
X171386152Y-90553256D01*
X171386152Y-90553256D02*
X171290914Y-90505637D01*
X171290914Y-90505637D02*
X171148057Y-90505637D01*
X171148057Y-90505637D02*
X171052819Y-90553256D01*
X171052819Y-90553256D02*
X171005200Y-90600875D01*
X171005200Y-90600875D02*
X170957580Y-90696113D01*
X170957580Y-90696113D02*
X170957580Y-91077065D01*
X170957580Y-91077065D02*
X171957580Y-91077065D01*
X171957580Y-91077065D02*
X171957580Y-90743732D01*
X171957580Y-90743732D02*
X171909961Y-90648494D01*
X171909961Y-90648494D02*
X171862342Y-90600875D01*
X171862342Y-90600875D02*
X171767104Y-90553256D01*
X171767104Y-90553256D02*
X171671866Y-90553256D01*
X171671866Y-90553256D02*
X171576628Y-90600875D01*
X171576628Y-90600875D02*
X171529009Y-90648494D01*
X171529009Y-90648494D02*
X171481390Y-90743732D01*
X171481390Y-90743732D02*
X171481390Y-91077065D01*
X171052819Y-89505637D02*
X171005200Y-89553256D01*
X171005200Y-89553256D02*
X170957580Y-89696113D01*
X170957580Y-89696113D02*
X170957580Y-89791351D01*
X170957580Y-89791351D02*
X171005200Y-89934208D01*
X171005200Y-89934208D02*
X171100438Y-90029446D01*
X171100438Y-90029446D02*
X171195676Y-90077065D01*
X171195676Y-90077065D02*
X171386152Y-90124684D01*
X171386152Y-90124684D02*
X171529009Y-90124684D01*
X171529009Y-90124684D02*
X171719485Y-90077065D01*
X171719485Y-90077065D02*
X171814723Y-90029446D01*
X171814723Y-90029446D02*
X171909961Y-89934208D01*
X171909961Y-89934208D02*
X171957580Y-89791351D01*
X171957580Y-89791351D02*
X171957580Y-89696113D01*
X171957580Y-89696113D02*
X171909961Y-89553256D01*
X171909961Y-89553256D02*
X171862342Y-89505637D01*
X172235200Y-90215161D02*
X172235200Y-89415161D01*
X170957580Y-89077065D02*
X171957580Y-89077065D01*
X171957580Y-89077065D02*
X171957580Y-88838970D01*
X171957580Y-88838970D02*
X171909961Y-88696113D01*
X171909961Y-88696113D02*
X171814723Y-88600875D01*
X171814723Y-88600875D02*
X171719485Y-88553256D01*
X171719485Y-88553256D02*
X171529009Y-88505637D01*
X171529009Y-88505637D02*
X171386152Y-88505637D01*
X171386152Y-88505637D02*
X171195676Y-88553256D01*
X171195676Y-88553256D02*
X171100438Y-88600875D01*
X171100438Y-88600875D02*
X171005200Y-88696113D01*
X171005200Y-88696113D02*
X170957580Y-88838970D01*
X170957580Y-88838970D02*
X170957580Y-89077065D01*
X172235200Y-89215161D02*
X172235200Y-88415161D01*
X171338533Y-87315160D02*
X171338533Y-86553256D01*
X170957580Y-86934208D02*
X171719485Y-86934208D01*
X171243295Y-85362779D02*
X171243295Y-84886589D01*
X170957580Y-85458017D02*
X171957580Y-85124684D01*
X171957580Y-85124684D02*
X170957580Y-84791351D01*
X171481390Y-84124684D02*
X171433771Y-83981827D01*
X171433771Y-83981827D02*
X171386152Y-83934208D01*
X171386152Y-83934208D02*
X171290914Y-83886589D01*
X171290914Y-83886589D02*
X171148057Y-83886589D01*
X171148057Y-83886589D02*
X171052819Y-83934208D01*
X171052819Y-83934208D02*
X171005200Y-83981827D01*
X171005200Y-83981827D02*
X170957580Y-84077065D01*
X170957580Y-84077065D02*
X170957580Y-84458017D01*
X170957580Y-84458017D02*
X171957580Y-84458017D01*
X171957580Y-84458017D02*
X171957580Y-84124684D01*
X171957580Y-84124684D02*
X171909961Y-84029446D01*
X171909961Y-84029446D02*
X171862342Y-83981827D01*
X171862342Y-83981827D02*
X171767104Y-83934208D01*
X171767104Y-83934208D02*
X171671866Y-83934208D01*
X171671866Y-83934208D02*
X171576628Y-83981827D01*
X171576628Y-83981827D02*
X171529009Y-84029446D01*
X171529009Y-84029446D02*
X171481390Y-84124684D01*
X171481390Y-84124684D02*
X171481390Y-84458017D01*
X171052819Y-82886589D02*
X171005200Y-82934208D01*
X171005200Y-82934208D02*
X170957580Y-83077065D01*
X170957580Y-83077065D02*
X170957580Y-83172303D01*
X170957580Y-83172303D02*
X171005200Y-83315160D01*
X171005200Y-83315160D02*
X171100438Y-83410398D01*
X171100438Y-83410398D02*
X171195676Y-83458017D01*
X171195676Y-83458017D02*
X171386152Y-83505636D01*
X171386152Y-83505636D02*
X171529009Y-83505636D01*
X171529009Y-83505636D02*
X171719485Y-83458017D01*
X171719485Y-83458017D02*
X171814723Y-83410398D01*
X171814723Y-83410398D02*
X171909961Y-83315160D01*
X171909961Y-83315160D02*
X171957580Y-83172303D01*
X171957580Y-83172303D02*
X171957580Y-83077065D01*
X171957580Y-83077065D02*
X171909961Y-82934208D01*
X171909961Y-82934208D02*
X171862342Y-82886589D01*
X169347636Y-119124687D02*
X169823827Y-119458020D01*
X169347636Y-119696115D02*
X170347636Y-119696115D01*
X170347636Y-119696115D02*
X170347636Y-119315163D01*
X170347636Y-119315163D02*
X170300017Y-119219925D01*
X170300017Y-119219925D02*
X170252398Y-119172306D01*
X170252398Y-119172306D02*
X170157160Y-119124687D01*
X170157160Y-119124687D02*
X170014303Y-119124687D01*
X170014303Y-119124687D02*
X169919065Y-119172306D01*
X169919065Y-119172306D02*
X169871446Y-119219925D01*
X169871446Y-119219925D02*
X169823827Y-119315163D01*
X169823827Y-119315163D02*
X169823827Y-119696115D01*
X169395256Y-118315163D02*
X169347636Y-118410401D01*
X169347636Y-118410401D02*
X169347636Y-118600877D01*
X169347636Y-118600877D02*
X169395256Y-118696115D01*
X169395256Y-118696115D02*
X169490494Y-118743734D01*
X169490494Y-118743734D02*
X169871446Y-118743734D01*
X169871446Y-118743734D02*
X169966684Y-118696115D01*
X169966684Y-118696115D02*
X170014303Y-118600877D01*
X170014303Y-118600877D02*
X170014303Y-118410401D01*
X170014303Y-118410401D02*
X169966684Y-118315163D01*
X169966684Y-118315163D02*
X169871446Y-118267544D01*
X169871446Y-118267544D02*
X169776208Y-118267544D01*
X169776208Y-118267544D02*
X169680970Y-118743734D01*
X170014303Y-117410401D02*
X169204779Y-117410401D01*
X169204779Y-117410401D02*
X169109541Y-117458020D01*
X169109541Y-117458020D02*
X169061922Y-117505639D01*
X169061922Y-117505639D02*
X169014303Y-117600877D01*
X169014303Y-117600877D02*
X169014303Y-117743734D01*
X169014303Y-117743734D02*
X169061922Y-117838972D01*
X169395256Y-117410401D02*
X169347636Y-117505639D01*
X169347636Y-117505639D02*
X169347636Y-117696115D01*
X169347636Y-117696115D02*
X169395256Y-117791353D01*
X169395256Y-117791353D02*
X169442875Y-117838972D01*
X169442875Y-117838972D02*
X169538113Y-117886591D01*
X169538113Y-117886591D02*
X169823827Y-117886591D01*
X169823827Y-117886591D02*
X169919065Y-117838972D01*
X169919065Y-117838972D02*
X169966684Y-117791353D01*
X169966684Y-117791353D02*
X170014303Y-117696115D01*
X170014303Y-117696115D02*
X170014303Y-117505639D01*
X170014303Y-117505639D02*
X169966684Y-117410401D01*
X169347636Y-116934210D02*
X170347636Y-116934210D01*
X170347636Y-116934210D02*
X170347636Y-116696115D01*
X170347636Y-116696115D02*
X170300017Y-116553258D01*
X170300017Y-116553258D02*
X170204779Y-116458020D01*
X170204779Y-116458020D02*
X170109541Y-116410401D01*
X170109541Y-116410401D02*
X169919065Y-116362782D01*
X169919065Y-116362782D02*
X169776208Y-116362782D01*
X169776208Y-116362782D02*
X169585732Y-116410401D01*
X169585732Y-116410401D02*
X169490494Y-116458020D01*
X169490494Y-116458020D02*
X169395256Y-116553258D01*
X169395256Y-116553258D02*
X169347636Y-116696115D01*
X169347636Y-116696115D02*
X169347636Y-116934210D01*
X169395256Y-115553258D02*
X169347636Y-115648496D01*
X169347636Y-115648496D02*
X169347636Y-115838972D01*
X169347636Y-115838972D02*
X169395256Y-115934210D01*
X169395256Y-115934210D02*
X169490494Y-115981829D01*
X169490494Y-115981829D02*
X169871446Y-115981829D01*
X169871446Y-115981829D02*
X169966684Y-115934210D01*
X169966684Y-115934210D02*
X170014303Y-115838972D01*
X170014303Y-115838972D02*
X170014303Y-115648496D01*
X170014303Y-115648496D02*
X169966684Y-115553258D01*
X169966684Y-115553258D02*
X169871446Y-115505639D01*
X169871446Y-115505639D02*
X169776208Y-115505639D01*
X169776208Y-115505639D02*
X169680970Y-115981829D01*
X169395256Y-115124686D02*
X169347636Y-115029448D01*
X169347636Y-115029448D02*
X169347636Y-114838972D01*
X169347636Y-114838972D02*
X169395256Y-114743734D01*
X169395256Y-114743734D02*
X169490494Y-114696115D01*
X169490494Y-114696115D02*
X169538113Y-114696115D01*
X169538113Y-114696115D02*
X169633351Y-114743734D01*
X169633351Y-114743734D02*
X169680970Y-114838972D01*
X169680970Y-114838972D02*
X169680970Y-114981829D01*
X169680970Y-114981829D02*
X169728589Y-115077067D01*
X169728589Y-115077067D02*
X169823827Y-115124686D01*
X169823827Y-115124686D02*
X169871446Y-115124686D01*
X169871446Y-115124686D02*
X169966684Y-115077067D01*
X169966684Y-115077067D02*
X170014303Y-114981829D01*
X170014303Y-114981829D02*
X170014303Y-114838972D01*
X170014303Y-114838972D02*
X169966684Y-114743734D01*
X170014303Y-114410400D02*
X170014303Y-114029448D01*
X170347636Y-114267543D02*
X169490494Y-114267543D01*
X169490494Y-114267543D02*
X169395256Y-114219924D01*
X169395256Y-114219924D02*
X169347636Y-114124686D01*
X169347636Y-114124686D02*
X169347636Y-114029448D01*
X169347636Y-113172305D02*
X169347636Y-113743733D01*
X169347636Y-113458019D02*
X170347636Y-113458019D01*
X170347636Y-113458019D02*
X170204779Y-113553257D01*
X170204779Y-113553257D02*
X170109541Y-113648495D01*
X170109541Y-113648495D02*
X170061922Y-113743733D01*
X169871446Y-111981828D02*
X169871446Y-111219924D01*
X169585732Y-111219924D02*
X169585732Y-111981828D01*
X169633351Y-110029447D02*
X169633351Y-109553257D01*
X169347636Y-110124685D02*
X170347636Y-109791352D01*
X170347636Y-109791352D02*
X169347636Y-109458019D01*
X170625256Y-110119924D02*
X170625256Y-109462781D01*
X169871446Y-108791352D02*
X169823827Y-108648495D01*
X169823827Y-108648495D02*
X169776208Y-108600876D01*
X169776208Y-108600876D02*
X169680970Y-108553257D01*
X169680970Y-108553257D02*
X169538113Y-108553257D01*
X169538113Y-108553257D02*
X169442875Y-108600876D01*
X169442875Y-108600876D02*
X169395256Y-108648495D01*
X169395256Y-108648495D02*
X169347636Y-108743733D01*
X169347636Y-108743733D02*
X169347636Y-109124685D01*
X169347636Y-109124685D02*
X170347636Y-109124685D01*
X170347636Y-109124685D02*
X170347636Y-108791352D01*
X170347636Y-108791352D02*
X170300017Y-108696114D01*
X170300017Y-108696114D02*
X170252398Y-108648495D01*
X170252398Y-108648495D02*
X170157160Y-108600876D01*
X170157160Y-108600876D02*
X170061922Y-108600876D01*
X170061922Y-108600876D02*
X169966684Y-108648495D01*
X169966684Y-108648495D02*
X169919065Y-108696114D01*
X169919065Y-108696114D02*
X169871446Y-108791352D01*
X169871446Y-108791352D02*
X169871446Y-109124685D01*
X169442875Y-107553257D02*
X169395256Y-107600876D01*
X169395256Y-107600876D02*
X169347636Y-107743733D01*
X169347636Y-107743733D02*
X169347636Y-107838971D01*
X169347636Y-107838971D02*
X169395256Y-107981828D01*
X169395256Y-107981828D02*
X169490494Y-108077066D01*
X169490494Y-108077066D02*
X169585732Y-108124685D01*
X169585732Y-108124685D02*
X169776208Y-108172304D01*
X169776208Y-108172304D02*
X169919065Y-108172304D01*
X169919065Y-108172304D02*
X170109541Y-108124685D01*
X170109541Y-108124685D02*
X170204779Y-108077066D01*
X170204779Y-108077066D02*
X170300017Y-107981828D01*
X170300017Y-107981828D02*
X170347636Y-107838971D01*
X170347636Y-107838971D02*
X170347636Y-107743733D01*
X170347636Y-107743733D02*
X170300017Y-107600876D01*
X170300017Y-107600876D02*
X170252398Y-107553257D01*
X169347636Y-107124685D02*
X170347636Y-107124685D01*
X170347636Y-107124685D02*
X170347636Y-106886590D01*
X170347636Y-106886590D02*
X170300017Y-106743733D01*
X170300017Y-106743733D02*
X170204779Y-106648495D01*
X170204779Y-106648495D02*
X170109541Y-106600876D01*
X170109541Y-106600876D02*
X169919065Y-106553257D01*
X169919065Y-106553257D02*
X169776208Y-106553257D01*
X169776208Y-106553257D02*
X169585732Y-106600876D01*
X169585732Y-106600876D02*
X169490494Y-106648495D01*
X169490494Y-106648495D02*
X169395256Y-106743733D01*
X169395256Y-106743733D02*
X169347636Y-106886590D01*
X169347636Y-106886590D02*
X169347636Y-107124685D01*
X170625256Y-107262781D02*
X170625256Y-106462781D01*
X169728589Y-106124685D02*
X169728589Y-105362781D01*
X169347636Y-105743733D02*
X170109541Y-105743733D01*
X169633351Y-104934209D02*
X169633351Y-104458019D01*
X169347636Y-105029447D02*
X170347636Y-104696114D01*
X170347636Y-104696114D02*
X169347636Y-104362781D01*
X169347636Y-104029447D02*
X170347636Y-104029447D01*
X170347636Y-104029447D02*
X170347636Y-103791352D01*
X170347636Y-103791352D02*
X170300017Y-103648495D01*
X170300017Y-103648495D02*
X170204779Y-103553257D01*
X170204779Y-103553257D02*
X170109541Y-103505638D01*
X170109541Y-103505638D02*
X169919065Y-103458019D01*
X169919065Y-103458019D02*
X169776208Y-103458019D01*
X169776208Y-103458019D02*
X169585732Y-103505638D01*
X169585732Y-103505638D02*
X169490494Y-103553257D01*
X169490494Y-103553257D02*
X169395256Y-103648495D01*
X169395256Y-103648495D02*
X169347636Y-103791352D01*
X169347636Y-103791352D02*
X169347636Y-104029447D01*
X169395256Y-102981828D02*
X169347636Y-102981828D01*
X169347636Y-102981828D02*
X169252398Y-103029447D01*
X169252398Y-103029447D02*
X169204779Y-103077066D01*
X169966684Y-103029447D02*
X169919065Y-102981828D01*
X169919065Y-102981828D02*
X169871446Y-103029447D01*
X169871446Y-103029447D02*
X169919065Y-103077066D01*
X169919065Y-103077066D02*
X169966684Y-103029447D01*
X169966684Y-103029447D02*
X169871446Y-103029447D01*
X169347636Y-101219924D02*
X169823827Y-101553257D01*
X169347636Y-101791352D02*
X170347636Y-101791352D01*
X170347636Y-101791352D02*
X170347636Y-101410400D01*
X170347636Y-101410400D02*
X170300017Y-101315162D01*
X170300017Y-101315162D02*
X170252398Y-101267543D01*
X170252398Y-101267543D02*
X170157160Y-101219924D01*
X170157160Y-101219924D02*
X170014303Y-101219924D01*
X170014303Y-101219924D02*
X169919065Y-101267543D01*
X169919065Y-101267543D02*
X169871446Y-101315162D01*
X169871446Y-101315162D02*
X169823827Y-101410400D01*
X169823827Y-101410400D02*
X169823827Y-101791352D01*
X169395256Y-100410400D02*
X169347636Y-100505638D01*
X169347636Y-100505638D02*
X169347636Y-100696114D01*
X169347636Y-100696114D02*
X169395256Y-100791352D01*
X169395256Y-100791352D02*
X169490494Y-100838971D01*
X169490494Y-100838971D02*
X169871446Y-100838971D01*
X169871446Y-100838971D02*
X169966684Y-100791352D01*
X169966684Y-100791352D02*
X170014303Y-100696114D01*
X170014303Y-100696114D02*
X170014303Y-100505638D01*
X170014303Y-100505638D02*
X169966684Y-100410400D01*
X169966684Y-100410400D02*
X169871446Y-100362781D01*
X169871446Y-100362781D02*
X169776208Y-100362781D01*
X169776208Y-100362781D02*
X169680970Y-100838971D01*
X170014303Y-99505638D02*
X169204779Y-99505638D01*
X169204779Y-99505638D02*
X169109541Y-99553257D01*
X169109541Y-99553257D02*
X169061922Y-99600876D01*
X169061922Y-99600876D02*
X169014303Y-99696114D01*
X169014303Y-99696114D02*
X169014303Y-99838971D01*
X169014303Y-99838971D02*
X169061922Y-99934209D01*
X169395256Y-99505638D02*
X169347636Y-99600876D01*
X169347636Y-99600876D02*
X169347636Y-99791352D01*
X169347636Y-99791352D02*
X169395256Y-99886590D01*
X169395256Y-99886590D02*
X169442875Y-99934209D01*
X169442875Y-99934209D02*
X169538113Y-99981828D01*
X169538113Y-99981828D02*
X169823827Y-99981828D01*
X169823827Y-99981828D02*
X169919065Y-99934209D01*
X169919065Y-99934209D02*
X169966684Y-99886590D01*
X169966684Y-99886590D02*
X170014303Y-99791352D01*
X170014303Y-99791352D02*
X170014303Y-99600876D01*
X170014303Y-99600876D02*
X169966684Y-99505638D01*
X169347636Y-99029447D02*
X170347636Y-99029447D01*
X170347636Y-99029447D02*
X170347636Y-98791352D01*
X170347636Y-98791352D02*
X170300017Y-98648495D01*
X170300017Y-98648495D02*
X170204779Y-98553257D01*
X170204779Y-98553257D02*
X170109541Y-98505638D01*
X170109541Y-98505638D02*
X169919065Y-98458019D01*
X169919065Y-98458019D02*
X169776208Y-98458019D01*
X169776208Y-98458019D02*
X169585732Y-98505638D01*
X169585732Y-98505638D02*
X169490494Y-98553257D01*
X169490494Y-98553257D02*
X169395256Y-98648495D01*
X169395256Y-98648495D02*
X169347636Y-98791352D01*
X169347636Y-98791352D02*
X169347636Y-99029447D01*
X169395256Y-97648495D02*
X169347636Y-97743733D01*
X169347636Y-97743733D02*
X169347636Y-97934209D01*
X169347636Y-97934209D02*
X169395256Y-98029447D01*
X169395256Y-98029447D02*
X169490494Y-98077066D01*
X169490494Y-98077066D02*
X169871446Y-98077066D01*
X169871446Y-98077066D02*
X169966684Y-98029447D01*
X169966684Y-98029447D02*
X170014303Y-97934209D01*
X170014303Y-97934209D02*
X170014303Y-97743733D01*
X170014303Y-97743733D02*
X169966684Y-97648495D01*
X169966684Y-97648495D02*
X169871446Y-97600876D01*
X169871446Y-97600876D02*
X169776208Y-97600876D01*
X169776208Y-97600876D02*
X169680970Y-98077066D01*
X169395256Y-97219923D02*
X169347636Y-97124685D01*
X169347636Y-97124685D02*
X169347636Y-96934209D01*
X169347636Y-96934209D02*
X169395256Y-96838971D01*
X169395256Y-96838971D02*
X169490494Y-96791352D01*
X169490494Y-96791352D02*
X169538113Y-96791352D01*
X169538113Y-96791352D02*
X169633351Y-96838971D01*
X169633351Y-96838971D02*
X169680970Y-96934209D01*
X169680970Y-96934209D02*
X169680970Y-97077066D01*
X169680970Y-97077066D02*
X169728589Y-97172304D01*
X169728589Y-97172304D02*
X169823827Y-97219923D01*
X169823827Y-97219923D02*
X169871446Y-97219923D01*
X169871446Y-97219923D02*
X169966684Y-97172304D01*
X169966684Y-97172304D02*
X170014303Y-97077066D01*
X170014303Y-97077066D02*
X170014303Y-96934209D01*
X170014303Y-96934209D02*
X169966684Y-96838971D01*
X170014303Y-96505637D02*
X170014303Y-96124685D01*
X170347636Y-96362780D02*
X169490494Y-96362780D01*
X169490494Y-96362780D02*
X169395256Y-96315161D01*
X169395256Y-96315161D02*
X169347636Y-96219923D01*
X169347636Y-96219923D02*
X169347636Y-96124685D01*
X170347636Y-95600875D02*
X170347636Y-95505637D01*
X170347636Y-95505637D02*
X170300017Y-95410399D01*
X170300017Y-95410399D02*
X170252398Y-95362780D01*
X170252398Y-95362780D02*
X170157160Y-95315161D01*
X170157160Y-95315161D02*
X169966684Y-95267542D01*
X169966684Y-95267542D02*
X169728589Y-95267542D01*
X169728589Y-95267542D02*
X169538113Y-95315161D01*
X169538113Y-95315161D02*
X169442875Y-95362780D01*
X169442875Y-95362780D02*
X169395256Y-95410399D01*
X169395256Y-95410399D02*
X169347636Y-95505637D01*
X169347636Y-95505637D02*
X169347636Y-95600875D01*
X169347636Y-95600875D02*
X169395256Y-95696113D01*
X169395256Y-95696113D02*
X169442875Y-95743732D01*
X169442875Y-95743732D02*
X169538113Y-95791351D01*
X169538113Y-95791351D02*
X169728589Y-95838970D01*
X169728589Y-95838970D02*
X169966684Y-95838970D01*
X169966684Y-95838970D02*
X170157160Y-95791351D01*
X170157160Y-95791351D02*
X170252398Y-95743732D01*
X170252398Y-95743732D02*
X170300017Y-95696113D01*
X170300017Y-95696113D02*
X170347636Y-95600875D01*
X169871446Y-94077065D02*
X169871446Y-93315161D01*
X169585732Y-93315161D02*
X169585732Y-94077065D01*
X169633351Y-92124684D02*
X169633351Y-91648494D01*
X169347636Y-92219922D02*
X170347636Y-91886589D01*
X170347636Y-91886589D02*
X169347636Y-91553256D01*
X170625256Y-92215161D02*
X170625256Y-91558018D01*
X169871446Y-90886589D02*
X169823827Y-90743732D01*
X169823827Y-90743732D02*
X169776208Y-90696113D01*
X169776208Y-90696113D02*
X169680970Y-90648494D01*
X169680970Y-90648494D02*
X169538113Y-90648494D01*
X169538113Y-90648494D02*
X169442875Y-90696113D01*
X169442875Y-90696113D02*
X169395256Y-90743732D01*
X169395256Y-90743732D02*
X169347636Y-90838970D01*
X169347636Y-90838970D02*
X169347636Y-91219922D01*
X169347636Y-91219922D02*
X170347636Y-91219922D01*
X170347636Y-91219922D02*
X170347636Y-90886589D01*
X170347636Y-90886589D02*
X170300017Y-90791351D01*
X170300017Y-90791351D02*
X170252398Y-90743732D01*
X170252398Y-90743732D02*
X170157160Y-90696113D01*
X170157160Y-90696113D02*
X170061922Y-90696113D01*
X170061922Y-90696113D02*
X169966684Y-90743732D01*
X169966684Y-90743732D02*
X169919065Y-90791351D01*
X169919065Y-90791351D02*
X169871446Y-90886589D01*
X169871446Y-90886589D02*
X169871446Y-91219922D01*
X170625256Y-91358018D02*
X170625256Y-90558018D01*
X169442875Y-89648494D02*
X169395256Y-89696113D01*
X169395256Y-89696113D02*
X169347636Y-89838970D01*
X169347636Y-89838970D02*
X169347636Y-89934208D01*
X169347636Y-89934208D02*
X169395256Y-90077065D01*
X169395256Y-90077065D02*
X169490494Y-90172303D01*
X169490494Y-90172303D02*
X169585732Y-90219922D01*
X169585732Y-90219922D02*
X169776208Y-90267541D01*
X169776208Y-90267541D02*
X169919065Y-90267541D01*
X169919065Y-90267541D02*
X170109541Y-90219922D01*
X170109541Y-90219922D02*
X170204779Y-90172303D01*
X170204779Y-90172303D02*
X170300017Y-90077065D01*
X170300017Y-90077065D02*
X170347636Y-89934208D01*
X170347636Y-89934208D02*
X170347636Y-89838970D01*
X170347636Y-89838970D02*
X170300017Y-89696113D01*
X170300017Y-89696113D02*
X170252398Y-89648494D01*
X170625256Y-90358018D02*
X170625256Y-89558018D01*
X169347636Y-89219922D02*
X170347636Y-89219922D01*
X170347636Y-89219922D02*
X170347636Y-88981827D01*
X170347636Y-88981827D02*
X170300017Y-88838970D01*
X170300017Y-88838970D02*
X170204779Y-88743732D01*
X170204779Y-88743732D02*
X170109541Y-88696113D01*
X170109541Y-88696113D02*
X169919065Y-88648494D01*
X169919065Y-88648494D02*
X169776208Y-88648494D01*
X169776208Y-88648494D02*
X169585732Y-88696113D01*
X169585732Y-88696113D02*
X169490494Y-88743732D01*
X169490494Y-88743732D02*
X169395256Y-88838970D01*
X169395256Y-88838970D02*
X169347636Y-88981827D01*
X169347636Y-88981827D02*
X169347636Y-89219922D01*
X170625256Y-89358018D02*
X170625256Y-88558018D01*
X169871446Y-88219922D02*
X169871446Y-87886589D01*
X169347636Y-87743732D02*
X169347636Y-88219922D01*
X169347636Y-88219922D02*
X170347636Y-88219922D01*
X170347636Y-88219922D02*
X170347636Y-87743732D01*
X170625256Y-88358018D02*
X170625256Y-87653256D01*
X169728589Y-86553255D02*
X169728589Y-85791351D01*
X169347636Y-86172303D02*
X170109541Y-86172303D01*
X169871446Y-84219922D02*
X169823827Y-84077065D01*
X169823827Y-84077065D02*
X169776208Y-84029446D01*
X169776208Y-84029446D02*
X169680970Y-83981827D01*
X169680970Y-83981827D02*
X169538113Y-83981827D01*
X169538113Y-83981827D02*
X169442875Y-84029446D01*
X169442875Y-84029446D02*
X169395256Y-84077065D01*
X169395256Y-84077065D02*
X169347636Y-84172303D01*
X169347636Y-84172303D02*
X169347636Y-84553255D01*
X169347636Y-84553255D02*
X170347636Y-84553255D01*
X170347636Y-84553255D02*
X170347636Y-84219922D01*
X170347636Y-84219922D02*
X170300017Y-84124684D01*
X170300017Y-84124684D02*
X170252398Y-84077065D01*
X170252398Y-84077065D02*
X170157160Y-84029446D01*
X170157160Y-84029446D02*
X170061922Y-84029446D01*
X170061922Y-84029446D02*
X169966684Y-84077065D01*
X169966684Y-84077065D02*
X169919065Y-84124684D01*
X169919065Y-84124684D02*
X169871446Y-84219922D01*
X169871446Y-84219922D02*
X169871446Y-84553255D01*
X169347636Y-83553255D02*
X170347636Y-83553255D01*
X170347636Y-83553255D02*
X170347636Y-83315160D01*
X170347636Y-83315160D02*
X170300017Y-83172303D01*
X170300017Y-83172303D02*
X170204779Y-83077065D01*
X170204779Y-83077065D02*
X170109541Y-83029446D01*
X170109541Y-83029446D02*
X169919065Y-82981827D01*
X169919065Y-82981827D02*
X169776208Y-82981827D01*
X169776208Y-82981827D02*
X169585732Y-83029446D01*
X169585732Y-83029446D02*
X169490494Y-83077065D01*
X169490494Y-83077065D02*
X169395256Y-83172303D01*
X169395256Y-83172303D02*
X169347636Y-83315160D01*
X169347636Y-83315160D02*
X169347636Y-83553255D01*
X148207580Y-119446115D02*
X149207580Y-119446115D01*
X149207580Y-119446115D02*
X148493295Y-119112782D01*
X148493295Y-119112782D02*
X149207580Y-118779449D01*
X149207580Y-118779449D02*
X148207580Y-118779449D01*
X148255200Y-117922306D02*
X148207580Y-118017544D01*
X148207580Y-118017544D02*
X148207580Y-118208020D01*
X148207580Y-118208020D02*
X148255200Y-118303258D01*
X148255200Y-118303258D02*
X148350438Y-118350877D01*
X148350438Y-118350877D02*
X148731390Y-118350877D01*
X148731390Y-118350877D02*
X148826628Y-118303258D01*
X148826628Y-118303258D02*
X148874247Y-118208020D01*
X148874247Y-118208020D02*
X148874247Y-118017544D01*
X148874247Y-118017544D02*
X148826628Y-117922306D01*
X148826628Y-117922306D02*
X148731390Y-117874687D01*
X148731390Y-117874687D02*
X148636152Y-117874687D01*
X148636152Y-117874687D02*
X148540914Y-118350877D01*
X148207580Y-117446115D02*
X148874247Y-117446115D01*
X148779009Y-117446115D02*
X148826628Y-117398496D01*
X148826628Y-117398496D02*
X148874247Y-117303258D01*
X148874247Y-117303258D02*
X148874247Y-117160401D01*
X148874247Y-117160401D02*
X148826628Y-117065163D01*
X148826628Y-117065163D02*
X148731390Y-117017544D01*
X148731390Y-117017544D02*
X148207580Y-117017544D01*
X148731390Y-117017544D02*
X148826628Y-116969925D01*
X148826628Y-116969925D02*
X148874247Y-116874687D01*
X148874247Y-116874687D02*
X148874247Y-116731830D01*
X148874247Y-116731830D02*
X148826628Y-116636591D01*
X148826628Y-116636591D02*
X148731390Y-116588972D01*
X148731390Y-116588972D02*
X148207580Y-116588972D01*
X148207580Y-115541354D02*
X148683771Y-115874687D01*
X148207580Y-116112782D02*
X149207580Y-116112782D01*
X149207580Y-116112782D02*
X149207580Y-115731830D01*
X149207580Y-115731830D02*
X149159961Y-115636592D01*
X149159961Y-115636592D02*
X149112342Y-115588973D01*
X149112342Y-115588973D02*
X149017104Y-115541354D01*
X149017104Y-115541354D02*
X148874247Y-115541354D01*
X148874247Y-115541354D02*
X148779009Y-115588973D01*
X148779009Y-115588973D02*
X148731390Y-115636592D01*
X148731390Y-115636592D02*
X148683771Y-115731830D01*
X148683771Y-115731830D02*
X148683771Y-116112782D01*
X148255200Y-114731830D02*
X148207580Y-114827068D01*
X148207580Y-114827068D02*
X148207580Y-115017544D01*
X148207580Y-115017544D02*
X148255200Y-115112782D01*
X148255200Y-115112782D02*
X148350438Y-115160401D01*
X148350438Y-115160401D02*
X148731390Y-115160401D01*
X148731390Y-115160401D02*
X148826628Y-115112782D01*
X148826628Y-115112782D02*
X148874247Y-115017544D01*
X148874247Y-115017544D02*
X148874247Y-114827068D01*
X148874247Y-114827068D02*
X148826628Y-114731830D01*
X148826628Y-114731830D02*
X148731390Y-114684211D01*
X148731390Y-114684211D02*
X148636152Y-114684211D01*
X148636152Y-114684211D02*
X148540914Y-115160401D01*
X148207580Y-113827068D02*
X148731390Y-113827068D01*
X148731390Y-113827068D02*
X148826628Y-113874687D01*
X148826628Y-113874687D02*
X148874247Y-113969925D01*
X148874247Y-113969925D02*
X148874247Y-114160401D01*
X148874247Y-114160401D02*
X148826628Y-114255639D01*
X148255200Y-113827068D02*
X148207580Y-113922306D01*
X148207580Y-113922306D02*
X148207580Y-114160401D01*
X148207580Y-114160401D02*
X148255200Y-114255639D01*
X148255200Y-114255639D02*
X148350438Y-114303258D01*
X148350438Y-114303258D02*
X148445676Y-114303258D01*
X148445676Y-114303258D02*
X148540914Y-114255639D01*
X148540914Y-114255639D02*
X148588533Y-114160401D01*
X148588533Y-114160401D02*
X148588533Y-113922306D01*
X148588533Y-113922306D02*
X148636152Y-113827068D01*
X148207580Y-112922306D02*
X149207580Y-112922306D01*
X148255200Y-112922306D02*
X148207580Y-113017544D01*
X148207580Y-113017544D02*
X148207580Y-113208020D01*
X148207580Y-113208020D02*
X148255200Y-113303258D01*
X148255200Y-113303258D02*
X148302819Y-113350877D01*
X148302819Y-113350877D02*
X148398057Y-113398496D01*
X148398057Y-113398496D02*
X148683771Y-113398496D01*
X148683771Y-113398496D02*
X148779009Y-113350877D01*
X148779009Y-113350877D02*
X148826628Y-113303258D01*
X148826628Y-113303258D02*
X148874247Y-113208020D01*
X148874247Y-113208020D02*
X148874247Y-113017544D01*
X148874247Y-113017544D02*
X148826628Y-112922306D01*
X148731390Y-111684210D02*
X148731390Y-110922306D01*
X148445676Y-110922306D02*
X148445676Y-111684210D01*
X148731390Y-109350877D02*
X148683771Y-109208020D01*
X148683771Y-109208020D02*
X148636152Y-109160401D01*
X148636152Y-109160401D02*
X148540914Y-109112782D01*
X148540914Y-109112782D02*
X148398057Y-109112782D01*
X148398057Y-109112782D02*
X148302819Y-109160401D01*
X148302819Y-109160401D02*
X148255200Y-109208020D01*
X148255200Y-109208020D02*
X148207580Y-109303258D01*
X148207580Y-109303258D02*
X148207580Y-109684210D01*
X148207580Y-109684210D02*
X149207580Y-109684210D01*
X149207580Y-109684210D02*
X149207580Y-109350877D01*
X149207580Y-109350877D02*
X149159961Y-109255639D01*
X149159961Y-109255639D02*
X149112342Y-109208020D01*
X149112342Y-109208020D02*
X149017104Y-109160401D01*
X149017104Y-109160401D02*
X148921866Y-109160401D01*
X148921866Y-109160401D02*
X148826628Y-109208020D01*
X148826628Y-109208020D02*
X148779009Y-109255639D01*
X148779009Y-109255639D02*
X148731390Y-109350877D01*
X148731390Y-109350877D02*
X148731390Y-109684210D01*
X148255200Y-108636591D02*
X148207580Y-108636591D01*
X148207580Y-108636591D02*
X148112342Y-108684210D01*
X148112342Y-108684210D02*
X148064723Y-108731829D01*
X148826628Y-108684210D02*
X148779009Y-108636591D01*
X148779009Y-108636591D02*
X148731390Y-108684210D01*
X148731390Y-108684210D02*
X148779009Y-108731829D01*
X148779009Y-108731829D02*
X148826628Y-108684210D01*
X148826628Y-108684210D02*
X148731390Y-108684210D01*
X148207580Y-106874687D02*
X148683771Y-107208020D01*
X148207580Y-107446115D02*
X149207580Y-107446115D01*
X149207580Y-107446115D02*
X149207580Y-107065163D01*
X149207580Y-107065163D02*
X149159961Y-106969925D01*
X149159961Y-106969925D02*
X149112342Y-106922306D01*
X149112342Y-106922306D02*
X149017104Y-106874687D01*
X149017104Y-106874687D02*
X148874247Y-106874687D01*
X148874247Y-106874687D02*
X148779009Y-106922306D01*
X148779009Y-106922306D02*
X148731390Y-106969925D01*
X148731390Y-106969925D02*
X148683771Y-107065163D01*
X148683771Y-107065163D02*
X148683771Y-107446115D01*
X148731390Y-106446115D02*
X148731390Y-106112782D01*
X148207580Y-105969925D02*
X148207580Y-106446115D01*
X148207580Y-106446115D02*
X149207580Y-106446115D01*
X149207580Y-106446115D02*
X149207580Y-105969925D01*
X149207580Y-105684210D02*
X149207580Y-105112782D01*
X148207580Y-105398496D02*
X149207580Y-105398496D01*
X148731390Y-104017543D02*
X148731390Y-103255639D01*
X148445676Y-103255639D02*
X148445676Y-104017543D01*
X148493295Y-102065162D02*
X148493295Y-101588972D01*
X148207580Y-102160400D02*
X149207580Y-101827067D01*
X149207580Y-101827067D02*
X148207580Y-101493734D01*
X149485200Y-102155639D02*
X149485200Y-101498496D01*
X146645256Y-119493734D02*
X146597636Y-119350877D01*
X146597636Y-119350877D02*
X146597636Y-119112782D01*
X146597636Y-119112782D02*
X146645256Y-119017544D01*
X146645256Y-119017544D02*
X146692875Y-118969925D01*
X146692875Y-118969925D02*
X146788113Y-118922306D01*
X146788113Y-118922306D02*
X146883351Y-118922306D01*
X146883351Y-118922306D02*
X146978589Y-118969925D01*
X146978589Y-118969925D02*
X147026208Y-119017544D01*
X147026208Y-119017544D02*
X147073827Y-119112782D01*
X147073827Y-119112782D02*
X147121446Y-119303258D01*
X147121446Y-119303258D02*
X147169065Y-119398496D01*
X147169065Y-119398496D02*
X147216684Y-119446115D01*
X147216684Y-119446115D02*
X147311922Y-119493734D01*
X147311922Y-119493734D02*
X147407160Y-119493734D01*
X147407160Y-119493734D02*
X147502398Y-119446115D01*
X147502398Y-119446115D02*
X147550017Y-119398496D01*
X147550017Y-119398496D02*
X147597636Y-119303258D01*
X147597636Y-119303258D02*
X147597636Y-119065163D01*
X147597636Y-119065163D02*
X147550017Y-118922306D01*
X147597636Y-118636591D02*
X147597636Y-118065163D01*
X146597636Y-118350877D02*
X147597636Y-118350877D01*
X146883351Y-117779448D02*
X146883351Y-117303258D01*
X146597636Y-117874686D02*
X147597636Y-117541353D01*
X147597636Y-117541353D02*
X146597636Y-117208020D01*
X147597636Y-117017543D02*
X147597636Y-116446115D01*
X146597636Y-116731829D02*
X147597636Y-116731829D01*
X147121446Y-115350876D02*
X147121446Y-114588972D01*
X146835732Y-114588972D02*
X146835732Y-115350876D01*
X146883351Y-113398495D02*
X146883351Y-112922305D01*
X146597636Y-113493733D02*
X147597636Y-113160400D01*
X147597636Y-113160400D02*
X146597636Y-112827067D01*
X147875256Y-113488972D02*
X147875256Y-112831829D01*
X147121446Y-112160400D02*
X147073827Y-112017543D01*
X147073827Y-112017543D02*
X147026208Y-111969924D01*
X147026208Y-111969924D02*
X146930970Y-111922305D01*
X146930970Y-111922305D02*
X146788113Y-111922305D01*
X146788113Y-111922305D02*
X146692875Y-111969924D01*
X146692875Y-111969924D02*
X146645256Y-112017543D01*
X146645256Y-112017543D02*
X146597636Y-112112781D01*
X146597636Y-112112781D02*
X146597636Y-112493733D01*
X146597636Y-112493733D02*
X147597636Y-112493733D01*
X147597636Y-112493733D02*
X147597636Y-112160400D01*
X147597636Y-112160400D02*
X147550017Y-112065162D01*
X147550017Y-112065162D02*
X147502398Y-112017543D01*
X147502398Y-112017543D02*
X147407160Y-111969924D01*
X147407160Y-111969924D02*
X147311922Y-111969924D01*
X147311922Y-111969924D02*
X147216684Y-112017543D01*
X147216684Y-112017543D02*
X147169065Y-112065162D01*
X147169065Y-112065162D02*
X147121446Y-112160400D01*
X147121446Y-112160400D02*
X147121446Y-112493733D01*
X147875256Y-112631829D02*
X147875256Y-111831829D01*
X146692875Y-110922305D02*
X146645256Y-110969924D01*
X146645256Y-110969924D02*
X146597636Y-111112781D01*
X146597636Y-111112781D02*
X146597636Y-111208019D01*
X146597636Y-111208019D02*
X146645256Y-111350876D01*
X146645256Y-111350876D02*
X146740494Y-111446114D01*
X146740494Y-111446114D02*
X146835732Y-111493733D01*
X146835732Y-111493733D02*
X147026208Y-111541352D01*
X147026208Y-111541352D02*
X147169065Y-111541352D01*
X147169065Y-111541352D02*
X147359541Y-111493733D01*
X147359541Y-111493733D02*
X147454779Y-111446114D01*
X147454779Y-111446114D02*
X147550017Y-111350876D01*
X147550017Y-111350876D02*
X147597636Y-111208019D01*
X147597636Y-111208019D02*
X147597636Y-111112781D01*
X147597636Y-111112781D02*
X147550017Y-110969924D01*
X147550017Y-110969924D02*
X147502398Y-110922305D01*
X147875256Y-111631829D02*
X147875256Y-110831829D01*
X146597636Y-110493733D02*
X147597636Y-110493733D01*
X147597636Y-110493733D02*
X147597636Y-110255638D01*
X147597636Y-110255638D02*
X147550017Y-110112781D01*
X147550017Y-110112781D02*
X147454779Y-110017543D01*
X147454779Y-110017543D02*
X147359541Y-109969924D01*
X147359541Y-109969924D02*
X147169065Y-109922305D01*
X147169065Y-109922305D02*
X147026208Y-109922305D01*
X147026208Y-109922305D02*
X146835732Y-109969924D01*
X146835732Y-109969924D02*
X146740494Y-110017543D01*
X146740494Y-110017543D02*
X146645256Y-110112781D01*
X146645256Y-110112781D02*
X146597636Y-110255638D01*
X146597636Y-110255638D02*
X146597636Y-110493733D01*
X147875256Y-110631829D02*
X147875256Y-109831829D01*
X147121446Y-109493733D02*
X147121446Y-109160400D01*
X146597636Y-109017543D02*
X146597636Y-109493733D01*
X146597636Y-109493733D02*
X147597636Y-109493733D01*
X147597636Y-109493733D02*
X147597636Y-109017543D01*
M02*
