M48
; DRILL file {KiCad 8.0.4} date 2024-10-19T17:10:47-0400
; FORMAT={-:-/ absolute / inch / decimal}
; #@! TF.CreationDate,2024-10-19T17:10:47-04:00
; #@! TF.GenerationSoftware,Kicad,Pcbnew,8.0.4
; #@! TF.FileFunction,Plated,1,2,PTH
FMAT,2
INCH
; #@! TA.AperFunction,Plated,PTH,ViaDrill
T1C0.0118
; #@! TA.AperFunction,Plated,PTH,ComponentDrill
T2C0.0394
%
G90
G05
T1
X5.2067Y-3.6891
X5.2953Y-3.9529
X5.4469Y-3.7926
X5.4469Y-4.0867
X5.5878Y-3.432
X5.7874Y-3.8899
X5.7874Y-3.954
X5.8071Y-4.5395
X5.8661Y-3.2993
X6.0197Y-4.3226
X6.1625Y-4.2689
X6.1629Y-4.303
X6.1811Y-4.4804
X6.3426Y-4.2048
X6.376Y-3.884
X6.4976Y-4.0422
X6.6534Y-4.0848
X6.6928Y-4.008
X6.7362Y-4.0659
X6.7597Y-4.2257
X6.7874Y-4.3584
T2
X5.072Y-3.2722
X5.072Y-3.3722
X5.072Y-3.4722
X5.072Y-3.5722
X5.072Y-3.6722
X5.072Y-3.7722
X5.072Y-3.8722
X5.072Y-4.0021
X5.072Y-4.1021
X5.072Y-4.2021
X5.072Y-4.3021
X5.072Y-4.4021
X5.072Y-4.5021
X5.072Y-4.6021
X5.2299Y-3.1025
X5.3299Y-3.1025
X5.372Y-3.2722
X5.372Y-3.3722
X5.372Y-3.4722
X5.372Y-3.5722
X5.372Y-3.6722
X5.372Y-3.7722
X5.372Y-3.8722
X5.372Y-4.0021
X5.372Y-4.1021
X5.372Y-4.2021
X5.372Y-4.3021
X5.372Y-4.4021
X5.372Y-4.5021
X5.372Y-4.6021
X5.4299Y-3.1025
X5.5189Y-4.7954
X5.5299Y-3.1025
X5.6189Y-4.7954
X5.6299Y-3.1025
X5.6626Y-3.2722
X5.6626Y-3.3722
X5.6626Y-3.4722
X5.6626Y-3.5722
X5.6626Y-3.6722
X5.6626Y-3.7722
X5.6626Y-3.8722
X5.6626Y-4.0021
X5.6626Y-4.1021
X5.6626Y-4.2021
X5.6626Y-4.3021
X5.6626Y-4.4021
X5.6626Y-4.5021
X5.6626Y-4.6021
X5.7189Y-4.7954
X5.7299Y-3.1025
X5.8189Y-4.7954
X5.8299Y-3.1025
X5.9189Y-4.7954
X5.9299Y-3.1025
X5.9626Y-3.2722
X5.9626Y-3.3722
X5.9626Y-3.4722
X5.9626Y-3.5722
X5.9626Y-3.6722
X5.9626Y-3.7722
X5.9626Y-3.8722
X5.9626Y-4.0021
X5.9626Y-4.1021
X5.9626Y-4.2021
X5.9626Y-4.3021
X5.9626Y-4.4021
X5.9626Y-4.5021
X5.9626Y-4.6021
X6.0189Y-4.7954
X6.0299Y-3.1025
X6.1189Y-4.7954
X6.2189Y-4.7954
X6.249Y-3.1025
X6.2776Y-3.2737
X6.2776Y-3.3737
X6.2776Y-3.4737
X6.2776Y-3.5737
X6.2776Y-3.6737
X6.2776Y-3.7737
X6.2776Y-3.8737
X6.2776Y-4.0021
X6.2776Y-4.1021
X6.2776Y-4.2021
X6.2776Y-4.3021
X6.2776Y-4.4021
X6.2776Y-4.5021
X6.2776Y-4.6021
X6.3189Y-4.7954
X6.349Y-3.1025
X6.4189Y-4.7954
X6.5189Y-4.7954
X6.5776Y-3.2737
X6.5776Y-3.3737
X6.5776Y-3.4737
X6.5776Y-3.5737
X6.5776Y-3.6737
X6.5776Y-3.7737
X6.5776Y-3.8737
X6.5776Y-4.0021
X6.5776Y-4.1021
X6.5776Y-4.2021
X6.5776Y-4.3021
X6.5776Y-4.4021
X6.5776Y-4.5021
X6.5776Y-4.6021
X6.6189Y-4.7954
X6.7189Y-4.7954
X6.8189Y-4.7954
X6.8634Y-3.2737
X6.8634Y-3.3737
X6.8634Y-3.4737
X6.8634Y-3.5737
X6.8634Y-3.6737
X6.8634Y-3.7737
X6.8634Y-3.8737
X6.8634Y-4.0021
X6.8634Y-4.1021
X6.8634Y-4.2021
X6.8634Y-4.3021
X6.8634Y-4.4021
X6.8634Y-4.5021
X6.8634Y-4.6021
X6.9577Y-3.1025
X7.0577Y-3.1025
X7.1634Y-3.2737
X7.1634Y-3.3737
X7.1634Y-3.4737
X7.1634Y-3.5737
X7.1634Y-3.6737
X7.1634Y-3.7737
X7.1634Y-3.8737
X7.1634Y-4.0021
X7.1634Y-4.1021
X7.1634Y-4.2021
X7.1634Y-4.3021
X7.1634Y-4.4021
X7.1634Y-4.5021
X7.1634Y-4.6021
M30
