M48
; DRILL file {KiCad 8.0.4} date 2024-11-02T16:38:03-0400
; FORMAT={-:-/ absolute / inch / decimal}
; #@! TF.CreationDate,2024-11-02T16:38:03-04:00
; #@! TF.GenerationSoftware,Kicad,Pcbnew,8.0.4
; #@! TF.FileFunction,Plated,1,2,PTH
FMAT,2
INCH
; #@! TA.AperFunction,Plated,PTH,ViaDrill
T1C0.0118
; #@! TA.AperFunction,Plated,PTH,ComponentDrill
T2C0.0394
%
G90
G05
T1
X4.252Y-5.5906
X4.2913Y-5.5315
X4.3961Y-5.0569
X4.5079Y-4.2612
X4.6128Y-4.2848
X4.7146Y-4.3012
X4.8228Y-4.3012
X4.9906Y-4.7157
X5.1476Y-4.5276
X5.3252Y-5.0772
X5.4407Y-5.0404
X5.463Y-5.0181
X5.6465Y-4.9
T2
X4.1205Y-4.3301
X4.1205Y-4.4301
X4.1205Y-4.5301
X4.1205Y-4.6301
X4.1205Y-4.7301
X4.1205Y-4.8301
X4.1205Y-4.9301
X4.1205Y-5.0301
X4.1205Y-5.1301
X4.1205Y-5.3584
X4.1205Y-5.4584
X4.1205Y-5.5584
X4.1205Y-5.6584
X4.1205Y-5.7584
X4.2215Y-4.065
X4.2882Y-4.4669
X4.2882Y-4.7669
X4.3215Y-4.065
X4.3882Y-4.4669
X4.3882Y-4.7669
X4.4882Y-4.4669
X4.4882Y-4.7669
X4.5181Y-5.0772
X4.5181Y-5.1772
X4.5181Y-5.2772
X4.5181Y-5.3772
X4.5181Y-5.4772
X4.5181Y-5.5772
X4.5181Y-5.6772
X4.5181Y-5.7772
X4.5882Y-4.4669
X4.5882Y-4.7669
X4.6882Y-4.4669
X4.6882Y-4.7669
X4.7882Y-4.4669
X4.7882Y-4.7669
X4.8181Y-5.0772
X4.8181Y-5.1772
X4.8181Y-5.2772
X4.8181Y-5.3772
X4.8181Y-5.4772
X4.8181Y-5.5772
X4.8181Y-5.6772
X4.8181Y-5.7772
X4.8882Y-4.4669
X4.8882Y-4.7669
X5.0886Y-4.4669
X5.0886Y-4.7669
X5.1886Y-4.4669
X5.1886Y-4.7669
X5.2465Y-5.0772
X5.2465Y-5.1772
X5.2465Y-5.2772
X5.2465Y-5.3772
X5.2465Y-5.4772
X5.2465Y-5.5772
X5.2465Y-5.6772
X5.2465Y-5.7772
X5.2886Y-4.4669
X5.2886Y-4.7669
X5.3886Y-4.4669
X5.3886Y-4.7669
X5.4886Y-4.4669
X5.4886Y-4.7669
X5.5465Y-5.0772
X5.5465Y-5.1772
X5.5465Y-5.2772
X5.5465Y-5.3772
X5.5465Y-5.4772
X5.5465Y-5.5772
X5.5465Y-5.6772
X5.5465Y-5.7772
X5.5886Y-4.4669
X5.5886Y-4.7669
X5.6886Y-4.4669
X5.6886Y-4.7669
X5.8169Y-4.3819
X5.8169Y-4.4819
X5.8169Y-4.5819
X5.8169Y-4.6819
X5.8169Y-4.7819
X5.8169Y-4.8819
X5.8169Y-4.9819
X5.8169Y-5.0819
X5.8169Y-5.1819
M30
