%TF.GenerationSoftware,KiCad,Pcbnew,8.0.4*%
%TF.CreationDate,2024-11-02T16:38:00-04:00*%
%TF.ProjectId,ExamplePCB,4578616d-706c-4655-9043-422e6b696361,rev?*%
%TF.SameCoordinates,Original*%
%TF.FileFunction,Soldermask,Bot*%
%TF.FilePolarity,Negative*%
%FSLAX46Y46*%
G04 Gerber Fmt 4.6, Leading zero omitted, Abs format (unit mm)*
G04 Created by KiCad (PCBNEW 8.0.4) date 2024-11-02 16:38:00*
%MOMM*%
%LPD*%
G01*
G04 APERTURE LIST*
%ADD10R,1.700000X1.700000*%
%ADD11O,1.700000X1.700000*%
%ADD12R,1.440000X2.000000*%
%ADD13O,1.440000X2.000000*%
%ADD14R,2.000000X1.440000*%
%ADD15O,2.000000X1.440000*%
G04 APERTURE END LIST*
D10*
%TO.C,J3*%
X107225000Y-103250000D03*
D11*
X109765000Y-103250000D03*
%TD*%
D10*
%TO.C,J4*%
X147750000Y-131620000D03*
D11*
X147750000Y-129080000D03*
X147750000Y-126540000D03*
X147750000Y-124000000D03*
X147750000Y-121460000D03*
X147750000Y-118920000D03*
X147750000Y-116380000D03*
X147750000Y-113840000D03*
X147750000Y-111300000D03*
%TD*%
D12*
%TO.C,74HC1*%
X108920000Y-121080000D03*
D13*
X111460000Y-121080000D03*
X114000000Y-121080000D03*
X116540000Y-121080000D03*
X119080000Y-121080000D03*
X121620000Y-121080000D03*
X124160000Y-121080000D03*
X124160000Y-113460000D03*
X121620000Y-113460000D03*
X119080000Y-113460000D03*
X116540000Y-113460000D03*
X114000000Y-113460000D03*
X111460000Y-113460000D03*
X108920000Y-113460000D03*
%TD*%
D14*
%TO.C,SN74189N1*%
X114760000Y-128960000D03*
D15*
X114760000Y-131500000D03*
X114760000Y-134040000D03*
X114760000Y-136580000D03*
X114760000Y-139120000D03*
X114760000Y-141660000D03*
X114760000Y-144200000D03*
X114760000Y-146740000D03*
X122380000Y-146740000D03*
X122380000Y-144200000D03*
X122380000Y-141660000D03*
X122380000Y-139120000D03*
X122380000Y-136580000D03*
X122380000Y-134040000D03*
X122380000Y-131500000D03*
X122380000Y-128960000D03*
%TD*%
D10*
%TO.C,J2*%
X104660000Y-130304265D03*
D11*
X104660000Y-127764265D03*
X104660000Y-125224265D03*
X104660000Y-122684265D03*
X104660000Y-120144265D03*
X104660000Y-117604265D03*
X104660000Y-115064265D03*
X104660000Y-112524265D03*
X104660000Y-109984265D03*
%TD*%
D12*
%TO.C,74HC2*%
X129250000Y-121080000D03*
D13*
X131790000Y-121080000D03*
X134330000Y-121080000D03*
X136870000Y-121080000D03*
X139410000Y-121080000D03*
X141950000Y-121080000D03*
X144490000Y-121080000D03*
X144490000Y-113460000D03*
X141950000Y-113460000D03*
X139410000Y-113460000D03*
X136870000Y-113460000D03*
X134330000Y-113460000D03*
X131790000Y-113460000D03*
X129250000Y-113460000D03*
%TD*%
D10*
%TO.C,J1*%
X104660000Y-146264265D03*
D11*
X104660000Y-143724265D03*
X104660000Y-141184265D03*
X104660000Y-138644265D03*
X104660000Y-136104265D03*
%TD*%
D14*
%TO.C,SN74189N2*%
X133260000Y-128960000D03*
D15*
X133260000Y-131500000D03*
X133260000Y-134040000D03*
X133260000Y-136580000D03*
X133260000Y-139120000D03*
X133260000Y-141660000D03*
X133260000Y-144200000D03*
X133260000Y-146740000D03*
X140880000Y-146740000D03*
X140880000Y-144200000D03*
X140880000Y-141660000D03*
X140880000Y-139120000D03*
X140880000Y-136580000D03*
X140880000Y-134040000D03*
X140880000Y-131500000D03*
X140880000Y-128960000D03*
%TD*%
M02*
