%TF.GenerationSoftware,KiCad,Pcbnew,8.0.4*%
%TF.CreationDate,2024-11-02T16:38:00-04:00*%
%TF.ProjectId,ExamplePCB,4578616d-706c-4655-9043-422e6b696361,rev?*%
%TF.SameCoordinates,Original*%
%TF.FileFunction,Legend,Bot*%
%TF.FilePolarity,Positive*%
%FSLAX46Y46*%
G04 Gerber Fmt 4.6, Leading zero omitted, Abs format (unit mm)*
G04 Created by KiCad (PCBNEW 8.0.4) date 2024-11-02 16:38:00*
%MOMM*%
%LPD*%
G01*
G04 APERTURE LIST*
%ADD10C,0.100000*%
%ADD11C,0.300000*%
G04 APERTURE END LIST*
D10*
X146362782Y-104768609D02*
X146219925Y-104816228D01*
X146219925Y-104816228D02*
X146172306Y-104863847D01*
X146172306Y-104863847D02*
X146124687Y-104959085D01*
X146124687Y-104959085D02*
X146124687Y-105101942D01*
X146124687Y-105101942D02*
X146172306Y-105197180D01*
X146172306Y-105197180D02*
X146219925Y-105244800D01*
X146219925Y-105244800D02*
X146315163Y-105292419D01*
X146315163Y-105292419D02*
X146696115Y-105292419D01*
X146696115Y-105292419D02*
X146696115Y-104292419D01*
X146696115Y-104292419D02*
X146362782Y-104292419D01*
X146362782Y-104292419D02*
X146267544Y-104340038D01*
X146267544Y-104340038D02*
X146219925Y-104387657D01*
X146219925Y-104387657D02*
X146172306Y-104482895D01*
X146172306Y-104482895D02*
X146172306Y-104578133D01*
X146172306Y-104578133D02*
X146219925Y-104673371D01*
X146219925Y-104673371D02*
X146267544Y-104720990D01*
X146267544Y-104720990D02*
X146362782Y-104768609D01*
X146362782Y-104768609D02*
X146696115Y-104768609D01*
X145267544Y-104625752D02*
X145267544Y-105292419D01*
X145696115Y-104625752D02*
X145696115Y-105149561D01*
X145696115Y-105149561D02*
X145648496Y-105244800D01*
X145648496Y-105244800D02*
X145553258Y-105292419D01*
X145553258Y-105292419D02*
X145410401Y-105292419D01*
X145410401Y-105292419D02*
X145315163Y-105244800D01*
X145315163Y-105244800D02*
X145267544Y-105197180D01*
X144648496Y-105292419D02*
X144743734Y-105244800D01*
X144743734Y-105244800D02*
X144791353Y-105149561D01*
X144791353Y-105149561D02*
X144791353Y-104292419D01*
X144267543Y-105292419D02*
X144267543Y-104292419D01*
X144172305Y-104911466D02*
X143886591Y-105292419D01*
X143886591Y-104625752D02*
X144267543Y-105006704D01*
X142696114Y-105292419D02*
X142696114Y-104625752D01*
X142696114Y-104720990D02*
X142648495Y-104673371D01*
X142648495Y-104673371D02*
X142553257Y-104625752D01*
X142553257Y-104625752D02*
X142410400Y-104625752D01*
X142410400Y-104625752D02*
X142315162Y-104673371D01*
X142315162Y-104673371D02*
X142267543Y-104768609D01*
X142267543Y-104768609D02*
X142267543Y-105292419D01*
X142267543Y-104768609D02*
X142219924Y-104673371D01*
X142219924Y-104673371D02*
X142124686Y-104625752D01*
X142124686Y-104625752D02*
X141981829Y-104625752D01*
X141981829Y-104625752D02*
X141886590Y-104673371D01*
X141886590Y-104673371D02*
X141838971Y-104768609D01*
X141838971Y-104768609D02*
X141838971Y-105292419D01*
X140981829Y-105244800D02*
X141077067Y-105292419D01*
X141077067Y-105292419D02*
X141267543Y-105292419D01*
X141267543Y-105292419D02*
X141362781Y-105244800D01*
X141362781Y-105244800D02*
X141410400Y-105149561D01*
X141410400Y-105149561D02*
X141410400Y-104768609D01*
X141410400Y-104768609D02*
X141362781Y-104673371D01*
X141362781Y-104673371D02*
X141267543Y-104625752D01*
X141267543Y-104625752D02*
X141077067Y-104625752D01*
X141077067Y-104625752D02*
X140981829Y-104673371D01*
X140981829Y-104673371D02*
X140934210Y-104768609D01*
X140934210Y-104768609D02*
X140934210Y-104863847D01*
X140934210Y-104863847D02*
X141410400Y-104959085D01*
X140505638Y-105292419D02*
X140505638Y-104625752D01*
X140505638Y-104720990D02*
X140458019Y-104673371D01*
X140458019Y-104673371D02*
X140362781Y-104625752D01*
X140362781Y-104625752D02*
X140219924Y-104625752D01*
X140219924Y-104625752D02*
X140124686Y-104673371D01*
X140124686Y-104673371D02*
X140077067Y-104768609D01*
X140077067Y-104768609D02*
X140077067Y-105292419D01*
X140077067Y-104768609D02*
X140029448Y-104673371D01*
X140029448Y-104673371D02*
X139934210Y-104625752D01*
X139934210Y-104625752D02*
X139791353Y-104625752D01*
X139791353Y-104625752D02*
X139696114Y-104673371D01*
X139696114Y-104673371D02*
X139648495Y-104768609D01*
X139648495Y-104768609D02*
X139648495Y-105292419D01*
X139029448Y-105292419D02*
X139124686Y-105244800D01*
X139124686Y-105244800D02*
X139172305Y-105197180D01*
X139172305Y-105197180D02*
X139219924Y-105101942D01*
X139219924Y-105101942D02*
X139219924Y-104816228D01*
X139219924Y-104816228D02*
X139172305Y-104720990D01*
X139172305Y-104720990D02*
X139124686Y-104673371D01*
X139124686Y-104673371D02*
X139029448Y-104625752D01*
X139029448Y-104625752D02*
X138886591Y-104625752D01*
X138886591Y-104625752D02*
X138791353Y-104673371D01*
X138791353Y-104673371D02*
X138743734Y-104720990D01*
X138743734Y-104720990D02*
X138696115Y-104816228D01*
X138696115Y-104816228D02*
X138696115Y-105101942D01*
X138696115Y-105101942D02*
X138743734Y-105197180D01*
X138743734Y-105197180D02*
X138791353Y-105244800D01*
X138791353Y-105244800D02*
X138886591Y-105292419D01*
X138886591Y-105292419D02*
X139029448Y-105292419D01*
X138267543Y-105292419D02*
X138267543Y-104625752D01*
X138267543Y-104816228D02*
X138219924Y-104720990D01*
X138219924Y-104720990D02*
X138172305Y-104673371D01*
X138172305Y-104673371D02*
X138077067Y-104625752D01*
X138077067Y-104625752D02*
X137981829Y-104625752D01*
X137743733Y-104625752D02*
X137505638Y-105292419D01*
X137267543Y-104625752D02*
X137505638Y-105292419D01*
X137505638Y-105292419D02*
X137600876Y-105530514D01*
X137600876Y-105530514D02*
X137648495Y-105578133D01*
X137648495Y-105578133D02*
X137743733Y-105625752D01*
X136267542Y-104625752D02*
X135886590Y-104625752D01*
X136124685Y-104292419D02*
X136124685Y-105149561D01*
X136124685Y-105149561D02*
X136077066Y-105244800D01*
X136077066Y-105244800D02*
X135981828Y-105292419D01*
X135981828Y-105292419D02*
X135886590Y-105292419D01*
X135553256Y-105292419D02*
X135553256Y-104292419D01*
X135124685Y-105292419D02*
X135124685Y-104768609D01*
X135124685Y-104768609D02*
X135172304Y-104673371D01*
X135172304Y-104673371D02*
X135267542Y-104625752D01*
X135267542Y-104625752D02*
X135410399Y-104625752D01*
X135410399Y-104625752D02*
X135505637Y-104673371D01*
X135505637Y-104673371D02*
X135553256Y-104720990D01*
X134219923Y-105292419D02*
X134219923Y-104768609D01*
X134219923Y-104768609D02*
X134267542Y-104673371D01*
X134267542Y-104673371D02*
X134362780Y-104625752D01*
X134362780Y-104625752D02*
X134553256Y-104625752D01*
X134553256Y-104625752D02*
X134648494Y-104673371D01*
X134219923Y-105244800D02*
X134315161Y-105292419D01*
X134315161Y-105292419D02*
X134553256Y-105292419D01*
X134553256Y-105292419D02*
X134648494Y-105244800D01*
X134648494Y-105244800D02*
X134696113Y-105149561D01*
X134696113Y-105149561D02*
X134696113Y-105054323D01*
X134696113Y-105054323D02*
X134648494Y-104959085D01*
X134648494Y-104959085D02*
X134553256Y-104911466D01*
X134553256Y-104911466D02*
X134315161Y-104911466D01*
X134315161Y-104911466D02*
X134219923Y-104863847D01*
X133886589Y-104625752D02*
X133505637Y-104625752D01*
X133743732Y-104292419D02*
X133743732Y-105149561D01*
X133743732Y-105149561D02*
X133696113Y-105244800D01*
X133696113Y-105244800D02*
X133600875Y-105292419D01*
X133600875Y-105292419D02*
X133505637Y-105292419D01*
X132458017Y-105244800D02*
X132362779Y-105292419D01*
X132362779Y-105292419D02*
X132172303Y-105292419D01*
X132172303Y-105292419D02*
X132077065Y-105244800D01*
X132077065Y-105244800D02*
X132029446Y-105149561D01*
X132029446Y-105149561D02*
X132029446Y-105101942D01*
X132029446Y-105101942D02*
X132077065Y-105006704D01*
X132077065Y-105006704D02*
X132172303Y-104959085D01*
X132172303Y-104959085D02*
X132315160Y-104959085D01*
X132315160Y-104959085D02*
X132410398Y-104911466D01*
X132410398Y-104911466D02*
X132458017Y-104816228D01*
X132458017Y-104816228D02*
X132458017Y-104768609D01*
X132458017Y-104768609D02*
X132410398Y-104673371D01*
X132410398Y-104673371D02*
X132315160Y-104625752D01*
X132315160Y-104625752D02*
X132172303Y-104625752D01*
X132172303Y-104625752D02*
X132077065Y-104673371D01*
X131743731Y-104625752D02*
X131362779Y-104625752D01*
X131600874Y-104292419D02*
X131600874Y-105149561D01*
X131600874Y-105149561D02*
X131553255Y-105244800D01*
X131553255Y-105244800D02*
X131458017Y-105292419D01*
X131458017Y-105292419D02*
X131362779Y-105292419D01*
X130886588Y-105292419D02*
X130981826Y-105244800D01*
X130981826Y-105244800D02*
X131029445Y-105197180D01*
X131029445Y-105197180D02*
X131077064Y-105101942D01*
X131077064Y-105101942D02*
X131077064Y-104816228D01*
X131077064Y-104816228D02*
X131029445Y-104720990D01*
X131029445Y-104720990D02*
X130981826Y-104673371D01*
X130981826Y-104673371D02*
X130886588Y-104625752D01*
X130886588Y-104625752D02*
X130743731Y-104625752D01*
X130743731Y-104625752D02*
X130648493Y-104673371D01*
X130648493Y-104673371D02*
X130600874Y-104720990D01*
X130600874Y-104720990D02*
X130553255Y-104816228D01*
X130553255Y-104816228D02*
X130553255Y-105101942D01*
X130553255Y-105101942D02*
X130600874Y-105197180D01*
X130600874Y-105197180D02*
X130648493Y-105244800D01*
X130648493Y-105244800D02*
X130743731Y-105292419D01*
X130743731Y-105292419D02*
X130886588Y-105292419D01*
X130124683Y-105292419D02*
X130124683Y-104625752D01*
X130124683Y-104816228D02*
X130077064Y-104720990D01*
X130077064Y-104720990D02*
X130029445Y-104673371D01*
X130029445Y-104673371D02*
X129934207Y-104625752D01*
X129934207Y-104625752D02*
X129838969Y-104625752D01*
X129124683Y-105244800D02*
X129219921Y-105292419D01*
X129219921Y-105292419D02*
X129410397Y-105292419D01*
X129410397Y-105292419D02*
X129505635Y-105244800D01*
X129505635Y-105244800D02*
X129553254Y-105149561D01*
X129553254Y-105149561D02*
X129553254Y-104768609D01*
X129553254Y-104768609D02*
X129505635Y-104673371D01*
X129505635Y-104673371D02*
X129410397Y-104625752D01*
X129410397Y-104625752D02*
X129219921Y-104625752D01*
X129219921Y-104625752D02*
X129124683Y-104673371D01*
X129124683Y-104673371D02*
X129077064Y-104768609D01*
X129077064Y-104768609D02*
X129077064Y-104863847D01*
X129077064Y-104863847D02*
X129553254Y-104959085D01*
X128696111Y-105244800D02*
X128600873Y-105292419D01*
X128600873Y-105292419D02*
X128410397Y-105292419D01*
X128410397Y-105292419D02*
X128315159Y-105244800D01*
X128315159Y-105244800D02*
X128267540Y-105149561D01*
X128267540Y-105149561D02*
X128267540Y-105101942D01*
X128267540Y-105101942D02*
X128315159Y-105006704D01*
X128315159Y-105006704D02*
X128410397Y-104959085D01*
X128410397Y-104959085D02*
X128553254Y-104959085D01*
X128553254Y-104959085D02*
X128648492Y-104911466D01*
X128648492Y-104911466D02*
X128696111Y-104816228D01*
X128696111Y-104816228D02*
X128696111Y-104768609D01*
X128696111Y-104768609D02*
X128648492Y-104673371D01*
X128648492Y-104673371D02*
X128553254Y-104625752D01*
X128553254Y-104625752D02*
X128410397Y-104625752D01*
X128410397Y-104625752D02*
X128315159Y-104673371D01*
X126648492Y-105292419D02*
X126648492Y-104768609D01*
X126648492Y-104768609D02*
X126696111Y-104673371D01*
X126696111Y-104673371D02*
X126791349Y-104625752D01*
X126791349Y-104625752D02*
X126981825Y-104625752D01*
X126981825Y-104625752D02*
X127077063Y-104673371D01*
X126648492Y-105244800D02*
X126743730Y-105292419D01*
X126743730Y-105292419D02*
X126981825Y-105292419D01*
X126981825Y-105292419D02*
X127077063Y-105244800D01*
X127077063Y-105244800D02*
X127124682Y-105149561D01*
X127124682Y-105149561D02*
X127124682Y-105054323D01*
X127124682Y-105054323D02*
X127077063Y-104959085D01*
X127077063Y-104959085D02*
X126981825Y-104911466D01*
X126981825Y-104911466D02*
X126743730Y-104911466D01*
X126743730Y-104911466D02*
X126648492Y-104863847D01*
X126029444Y-105292419D02*
X126124682Y-105244800D01*
X126124682Y-105244800D02*
X126172301Y-105149561D01*
X126172301Y-105149561D02*
X126172301Y-104292419D01*
X125505634Y-105292419D02*
X125600872Y-105244800D01*
X125600872Y-105244800D02*
X125648491Y-105149561D01*
X125648491Y-105149561D02*
X125648491Y-104292419D01*
X123934205Y-104625752D02*
X123934205Y-105292419D01*
X124362776Y-104625752D02*
X124362776Y-105149561D01*
X124362776Y-105149561D02*
X124315157Y-105244800D01*
X124315157Y-105244800D02*
X124219919Y-105292419D01*
X124219919Y-105292419D02*
X124077062Y-105292419D01*
X124077062Y-105292419D02*
X123981824Y-105244800D01*
X123981824Y-105244800D02*
X123934205Y-105197180D01*
X123505633Y-105244800D02*
X123410395Y-105292419D01*
X123410395Y-105292419D02*
X123219919Y-105292419D01*
X123219919Y-105292419D02*
X123124681Y-105244800D01*
X123124681Y-105244800D02*
X123077062Y-105149561D01*
X123077062Y-105149561D02*
X123077062Y-105101942D01*
X123077062Y-105101942D02*
X123124681Y-105006704D01*
X123124681Y-105006704D02*
X123219919Y-104959085D01*
X123219919Y-104959085D02*
X123362776Y-104959085D01*
X123362776Y-104959085D02*
X123458014Y-104911466D01*
X123458014Y-104911466D02*
X123505633Y-104816228D01*
X123505633Y-104816228D02*
X123505633Y-104768609D01*
X123505633Y-104768609D02*
X123458014Y-104673371D01*
X123458014Y-104673371D02*
X123362776Y-104625752D01*
X123362776Y-104625752D02*
X123219919Y-104625752D01*
X123219919Y-104625752D02*
X123124681Y-104673371D01*
X122267538Y-105244800D02*
X122362776Y-105292419D01*
X122362776Y-105292419D02*
X122553252Y-105292419D01*
X122553252Y-105292419D02*
X122648490Y-105244800D01*
X122648490Y-105244800D02*
X122696109Y-105149561D01*
X122696109Y-105149561D02*
X122696109Y-104768609D01*
X122696109Y-104768609D02*
X122648490Y-104673371D01*
X122648490Y-104673371D02*
X122553252Y-104625752D01*
X122553252Y-104625752D02*
X122362776Y-104625752D01*
X122362776Y-104625752D02*
X122267538Y-104673371D01*
X122267538Y-104673371D02*
X122219919Y-104768609D01*
X122219919Y-104768609D02*
X122219919Y-104863847D01*
X122219919Y-104863847D02*
X122696109Y-104959085D01*
X121791347Y-105292419D02*
X121791347Y-104625752D01*
X121791347Y-104816228D02*
X121743728Y-104720990D01*
X121743728Y-104720990D02*
X121696109Y-104673371D01*
X121696109Y-104673371D02*
X121600871Y-104625752D01*
X121600871Y-104625752D02*
X121505633Y-104625752D01*
X121172299Y-104911466D02*
X120410395Y-104911466D01*
X119934204Y-105292419D02*
X119934204Y-104625752D01*
X119934204Y-104292419D02*
X119981823Y-104340038D01*
X119981823Y-104340038D02*
X119934204Y-104387657D01*
X119934204Y-104387657D02*
X119886585Y-104340038D01*
X119886585Y-104340038D02*
X119934204Y-104292419D01*
X119934204Y-104292419D02*
X119934204Y-104387657D01*
X119458014Y-104625752D02*
X119458014Y-105292419D01*
X119458014Y-104720990D02*
X119410395Y-104673371D01*
X119410395Y-104673371D02*
X119315157Y-104625752D01*
X119315157Y-104625752D02*
X119172300Y-104625752D01*
X119172300Y-104625752D02*
X119077062Y-104673371D01*
X119077062Y-104673371D02*
X119029443Y-104768609D01*
X119029443Y-104768609D02*
X119029443Y-105292419D01*
X118553252Y-104625752D02*
X118553252Y-105625752D01*
X118553252Y-104673371D02*
X118458014Y-104625752D01*
X118458014Y-104625752D02*
X118267538Y-104625752D01*
X118267538Y-104625752D02*
X118172300Y-104673371D01*
X118172300Y-104673371D02*
X118124681Y-104720990D01*
X118124681Y-104720990D02*
X118077062Y-104816228D01*
X118077062Y-104816228D02*
X118077062Y-105101942D01*
X118077062Y-105101942D02*
X118124681Y-105197180D01*
X118124681Y-105197180D02*
X118172300Y-105244800D01*
X118172300Y-105244800D02*
X118267538Y-105292419D01*
X118267538Y-105292419D02*
X118458014Y-105292419D01*
X118458014Y-105292419D02*
X118553252Y-105244800D01*
X117219919Y-104625752D02*
X117219919Y-105292419D01*
X117648490Y-104625752D02*
X117648490Y-105149561D01*
X117648490Y-105149561D02*
X117600871Y-105244800D01*
X117600871Y-105244800D02*
X117505633Y-105292419D01*
X117505633Y-105292419D02*
X117362776Y-105292419D01*
X117362776Y-105292419D02*
X117267538Y-105244800D01*
X117267538Y-105244800D02*
X117219919Y-105197180D01*
X116886585Y-104625752D02*
X116505633Y-104625752D01*
X116743728Y-104292419D02*
X116743728Y-105149561D01*
X116743728Y-105149561D02*
X116696109Y-105244800D01*
X116696109Y-105244800D02*
X116600871Y-105292419D01*
X116600871Y-105292419D02*
X116505633Y-105292419D01*
X115410394Y-105292419D02*
X115410394Y-104625752D01*
X115410394Y-104292419D02*
X115458013Y-104340038D01*
X115458013Y-104340038D02*
X115410394Y-104387657D01*
X115410394Y-104387657D02*
X115362775Y-104340038D01*
X115362775Y-104340038D02*
X115410394Y-104292419D01*
X115410394Y-104292419D02*
X115410394Y-104387657D01*
X114934204Y-104625752D02*
X114934204Y-105292419D01*
X114934204Y-104720990D02*
X114886585Y-104673371D01*
X114886585Y-104673371D02*
X114791347Y-104625752D01*
X114791347Y-104625752D02*
X114648490Y-104625752D01*
X114648490Y-104625752D02*
X114553252Y-104673371D01*
X114553252Y-104673371D02*
X114505633Y-104768609D01*
X114505633Y-104768609D02*
X114505633Y-105292419D01*
X114172299Y-104625752D02*
X113791347Y-104625752D01*
X114029442Y-105292419D02*
X114029442Y-104435276D01*
X114029442Y-104435276D02*
X113981823Y-104340038D01*
X113981823Y-104340038D02*
X113886585Y-104292419D01*
X113886585Y-104292419D02*
X113791347Y-104292419D01*
X113315156Y-105292419D02*
X113410394Y-105244800D01*
X113410394Y-105244800D02*
X113458013Y-105197180D01*
X113458013Y-105197180D02*
X113505632Y-105101942D01*
X113505632Y-105101942D02*
X113505632Y-104816228D01*
X113505632Y-104816228D02*
X113458013Y-104720990D01*
X113458013Y-104720990D02*
X113410394Y-104673371D01*
X113410394Y-104673371D02*
X113315156Y-104625752D01*
X113315156Y-104625752D02*
X113172299Y-104625752D01*
X113172299Y-104625752D02*
X113077061Y-104673371D01*
X113077061Y-104673371D02*
X113029442Y-104720990D01*
X113029442Y-104720990D02*
X112981823Y-104816228D01*
X112981823Y-104816228D02*
X112981823Y-105101942D01*
X112981823Y-105101942D02*
X113029442Y-105197180D01*
X113029442Y-105197180D02*
X113077061Y-105244800D01*
X113077061Y-105244800D02*
X113172299Y-105292419D01*
X113172299Y-105292419D02*
X113315156Y-105292419D01*
X112553251Y-105292419D02*
X112553251Y-104625752D01*
X112553251Y-104816228D02*
X112505632Y-104720990D01*
X112505632Y-104720990D02*
X112458013Y-104673371D01*
X112458013Y-104673371D02*
X112362775Y-104625752D01*
X112362775Y-104625752D02*
X112267537Y-104625752D01*
X111934203Y-105292419D02*
X111934203Y-104625752D01*
X111934203Y-104720990D02*
X111886584Y-104673371D01*
X111886584Y-104673371D02*
X111791346Y-104625752D01*
X111791346Y-104625752D02*
X111648489Y-104625752D01*
X111648489Y-104625752D02*
X111553251Y-104673371D01*
X111553251Y-104673371D02*
X111505632Y-104768609D01*
X111505632Y-104768609D02*
X111505632Y-105292419D01*
X111505632Y-104768609D02*
X111458013Y-104673371D01*
X111458013Y-104673371D02*
X111362775Y-104625752D01*
X111362775Y-104625752D02*
X111219918Y-104625752D01*
X111219918Y-104625752D02*
X111124679Y-104673371D01*
X111124679Y-104673371D02*
X111077060Y-104768609D01*
X111077060Y-104768609D02*
X111077060Y-105292419D01*
X110172299Y-105292419D02*
X110172299Y-104768609D01*
X110172299Y-104768609D02*
X110219918Y-104673371D01*
X110219918Y-104673371D02*
X110315156Y-104625752D01*
X110315156Y-104625752D02*
X110505632Y-104625752D01*
X110505632Y-104625752D02*
X110600870Y-104673371D01*
X110172299Y-105244800D02*
X110267537Y-105292419D01*
X110267537Y-105292419D02*
X110505632Y-105292419D01*
X110505632Y-105292419D02*
X110600870Y-105244800D01*
X110600870Y-105244800D02*
X110648489Y-105149561D01*
X110648489Y-105149561D02*
X110648489Y-105054323D01*
X110648489Y-105054323D02*
X110600870Y-104959085D01*
X110600870Y-104959085D02*
X110505632Y-104911466D01*
X110505632Y-104911466D02*
X110267537Y-104911466D01*
X110267537Y-104911466D02*
X110172299Y-104863847D01*
X109838965Y-104625752D02*
X109458013Y-104625752D01*
X109696108Y-104292419D02*
X109696108Y-105149561D01*
X109696108Y-105149561D02*
X109648489Y-105244800D01*
X109648489Y-105244800D02*
X109553251Y-105292419D01*
X109553251Y-105292419D02*
X109458013Y-105292419D01*
X109124679Y-105292419D02*
X109124679Y-104625752D01*
X109124679Y-104292419D02*
X109172298Y-104340038D01*
X109172298Y-104340038D02*
X109124679Y-104387657D01*
X109124679Y-104387657D02*
X109077060Y-104340038D01*
X109077060Y-104340038D02*
X109124679Y-104292419D01*
X109124679Y-104292419D02*
X109124679Y-104387657D01*
X108505632Y-105292419D02*
X108600870Y-105244800D01*
X108600870Y-105244800D02*
X108648489Y-105197180D01*
X108648489Y-105197180D02*
X108696108Y-105101942D01*
X108696108Y-105101942D02*
X108696108Y-104816228D01*
X108696108Y-104816228D02*
X108648489Y-104720990D01*
X108648489Y-104720990D02*
X108600870Y-104673371D01*
X108600870Y-104673371D02*
X108505632Y-104625752D01*
X108505632Y-104625752D02*
X108362775Y-104625752D01*
X108362775Y-104625752D02*
X108267537Y-104673371D01*
X108267537Y-104673371D02*
X108219918Y-104720990D01*
X108219918Y-104720990D02*
X108172299Y-104816228D01*
X108172299Y-104816228D02*
X108172299Y-105101942D01*
X108172299Y-105101942D02*
X108219918Y-105197180D01*
X108219918Y-105197180D02*
X108267537Y-105244800D01*
X108267537Y-105244800D02*
X108362775Y-105292419D01*
X108362775Y-105292419D02*
X108505632Y-105292419D01*
X107743727Y-104625752D02*
X107743727Y-105292419D01*
X107743727Y-104720990D02*
X107696108Y-104673371D01*
X107696108Y-104673371D02*
X107600870Y-104625752D01*
X107600870Y-104625752D02*
X107458013Y-104625752D01*
X107458013Y-104625752D02*
X107362775Y-104673371D01*
X107362775Y-104673371D02*
X107315156Y-104768609D01*
X107315156Y-104768609D02*
X107315156Y-105292419D01*
X106791346Y-105244800D02*
X106791346Y-105292419D01*
X106791346Y-105292419D02*
X106838965Y-105387657D01*
X106838965Y-105387657D02*
X106886584Y-105435276D01*
X146696115Y-106902363D02*
X146696115Y-106235696D01*
X146696115Y-105902363D02*
X146743734Y-105949982D01*
X146743734Y-105949982D02*
X146696115Y-105997601D01*
X146696115Y-105997601D02*
X146648496Y-105949982D01*
X146648496Y-105949982D02*
X146696115Y-105902363D01*
X146696115Y-105902363D02*
X146696115Y-105997601D01*
X146219925Y-106235696D02*
X146219925Y-106902363D01*
X146219925Y-106330934D02*
X146172306Y-106283315D01*
X146172306Y-106283315D02*
X146077068Y-106235696D01*
X146077068Y-106235696D02*
X145934211Y-106235696D01*
X145934211Y-106235696D02*
X145838973Y-106283315D01*
X145838973Y-106283315D02*
X145791354Y-106378553D01*
X145791354Y-106378553D02*
X145791354Y-106902363D01*
X144886592Y-106854744D02*
X144981830Y-106902363D01*
X144981830Y-106902363D02*
X145172306Y-106902363D01*
X145172306Y-106902363D02*
X145267544Y-106854744D01*
X145267544Y-106854744D02*
X145315163Y-106807124D01*
X145315163Y-106807124D02*
X145362782Y-106711886D01*
X145362782Y-106711886D02*
X145362782Y-106426172D01*
X145362782Y-106426172D02*
X145315163Y-106330934D01*
X145315163Y-106330934D02*
X145267544Y-106283315D01*
X145267544Y-106283315D02*
X145172306Y-106235696D01*
X145172306Y-106235696D02*
X144981830Y-106235696D01*
X144981830Y-106235696D02*
X144886592Y-106283315D01*
X144315163Y-106902363D02*
X144410401Y-106854744D01*
X144410401Y-106854744D02*
X144458020Y-106759505D01*
X144458020Y-106759505D02*
X144458020Y-105902363D01*
X143505639Y-106235696D02*
X143505639Y-106902363D01*
X143934210Y-106235696D02*
X143934210Y-106759505D01*
X143934210Y-106759505D02*
X143886591Y-106854744D01*
X143886591Y-106854744D02*
X143791353Y-106902363D01*
X143791353Y-106902363D02*
X143648496Y-106902363D01*
X143648496Y-106902363D02*
X143553258Y-106854744D01*
X143553258Y-106854744D02*
X143505639Y-106807124D01*
X142600877Y-106902363D02*
X142600877Y-105902363D01*
X142600877Y-106854744D02*
X142696115Y-106902363D01*
X142696115Y-106902363D02*
X142886591Y-106902363D01*
X142886591Y-106902363D02*
X142981829Y-106854744D01*
X142981829Y-106854744D02*
X143029448Y-106807124D01*
X143029448Y-106807124D02*
X143077067Y-106711886D01*
X143077067Y-106711886D02*
X143077067Y-106426172D01*
X143077067Y-106426172D02*
X143029448Y-106330934D01*
X143029448Y-106330934D02*
X142981829Y-106283315D01*
X142981829Y-106283315D02*
X142886591Y-106235696D01*
X142886591Y-106235696D02*
X142696115Y-106235696D01*
X142696115Y-106235696D02*
X142600877Y-106283315D01*
X142124686Y-106902363D02*
X142124686Y-106235696D01*
X142124686Y-105902363D02*
X142172305Y-105949982D01*
X142172305Y-105949982D02*
X142124686Y-105997601D01*
X142124686Y-105997601D02*
X142077067Y-105949982D01*
X142077067Y-105949982D02*
X142124686Y-105902363D01*
X142124686Y-105902363D02*
X142124686Y-105997601D01*
X141648496Y-106235696D02*
X141648496Y-106902363D01*
X141648496Y-106330934D02*
X141600877Y-106283315D01*
X141600877Y-106283315D02*
X141505639Y-106235696D01*
X141505639Y-106235696D02*
X141362782Y-106235696D01*
X141362782Y-106235696D02*
X141267544Y-106283315D01*
X141267544Y-106283315D02*
X141219925Y-106378553D01*
X141219925Y-106378553D02*
X141219925Y-106902363D01*
X140315163Y-106235696D02*
X140315163Y-107045220D01*
X140315163Y-107045220D02*
X140362782Y-107140458D01*
X140362782Y-107140458D02*
X140410401Y-107188077D01*
X140410401Y-107188077D02*
X140505639Y-107235696D01*
X140505639Y-107235696D02*
X140648496Y-107235696D01*
X140648496Y-107235696D02*
X140743734Y-107188077D01*
X140315163Y-106854744D02*
X140410401Y-106902363D01*
X140410401Y-106902363D02*
X140600877Y-106902363D01*
X140600877Y-106902363D02*
X140696115Y-106854744D01*
X140696115Y-106854744D02*
X140743734Y-106807124D01*
X140743734Y-106807124D02*
X140791353Y-106711886D01*
X140791353Y-106711886D02*
X140791353Y-106426172D01*
X140791353Y-106426172D02*
X140743734Y-106330934D01*
X140743734Y-106330934D02*
X140696115Y-106283315D01*
X140696115Y-106283315D02*
X140600877Y-106235696D01*
X140600877Y-106235696D02*
X140410401Y-106235696D01*
X140410401Y-106235696D02*
X140315163Y-106283315D01*
X139077067Y-106235696D02*
X139077067Y-107235696D01*
X139077067Y-106283315D02*
X138981829Y-106235696D01*
X138981829Y-106235696D02*
X138791353Y-106235696D01*
X138791353Y-106235696D02*
X138696115Y-106283315D01*
X138696115Y-106283315D02*
X138648496Y-106330934D01*
X138648496Y-106330934D02*
X138600877Y-106426172D01*
X138600877Y-106426172D02*
X138600877Y-106711886D01*
X138600877Y-106711886D02*
X138648496Y-106807124D01*
X138648496Y-106807124D02*
X138696115Y-106854744D01*
X138696115Y-106854744D02*
X138791353Y-106902363D01*
X138791353Y-106902363D02*
X138981829Y-106902363D01*
X138981829Y-106902363D02*
X139077067Y-106854744D01*
X138172305Y-106902363D02*
X138172305Y-106235696D01*
X138172305Y-106426172D02*
X138124686Y-106330934D01*
X138124686Y-106330934D02*
X138077067Y-106283315D01*
X138077067Y-106283315D02*
X137981829Y-106235696D01*
X137981829Y-106235696D02*
X137886591Y-106235696D01*
X137410400Y-106902363D02*
X137505638Y-106854744D01*
X137505638Y-106854744D02*
X137553257Y-106807124D01*
X137553257Y-106807124D02*
X137600876Y-106711886D01*
X137600876Y-106711886D02*
X137600876Y-106426172D01*
X137600876Y-106426172D02*
X137553257Y-106330934D01*
X137553257Y-106330934D02*
X137505638Y-106283315D01*
X137505638Y-106283315D02*
X137410400Y-106235696D01*
X137410400Y-106235696D02*
X137267543Y-106235696D01*
X137267543Y-106235696D02*
X137172305Y-106283315D01*
X137172305Y-106283315D02*
X137124686Y-106330934D01*
X137124686Y-106330934D02*
X137077067Y-106426172D01*
X137077067Y-106426172D02*
X137077067Y-106711886D01*
X137077067Y-106711886D02*
X137124686Y-106807124D01*
X137124686Y-106807124D02*
X137172305Y-106854744D01*
X137172305Y-106854744D02*
X137267543Y-106902363D01*
X137267543Y-106902363D02*
X137410400Y-106902363D01*
X136219924Y-106235696D02*
X136219924Y-107045220D01*
X136219924Y-107045220D02*
X136267543Y-107140458D01*
X136267543Y-107140458D02*
X136315162Y-107188077D01*
X136315162Y-107188077D02*
X136410400Y-107235696D01*
X136410400Y-107235696D02*
X136553257Y-107235696D01*
X136553257Y-107235696D02*
X136648495Y-107188077D01*
X136219924Y-106854744D02*
X136315162Y-106902363D01*
X136315162Y-106902363D02*
X136505638Y-106902363D01*
X136505638Y-106902363D02*
X136600876Y-106854744D01*
X136600876Y-106854744D02*
X136648495Y-106807124D01*
X136648495Y-106807124D02*
X136696114Y-106711886D01*
X136696114Y-106711886D02*
X136696114Y-106426172D01*
X136696114Y-106426172D02*
X136648495Y-106330934D01*
X136648495Y-106330934D02*
X136600876Y-106283315D01*
X136600876Y-106283315D02*
X136505638Y-106235696D01*
X136505638Y-106235696D02*
X136315162Y-106235696D01*
X136315162Y-106235696D02*
X136219924Y-106283315D01*
X135743733Y-106902363D02*
X135743733Y-106235696D01*
X135743733Y-106426172D02*
X135696114Y-106330934D01*
X135696114Y-106330934D02*
X135648495Y-106283315D01*
X135648495Y-106283315D02*
X135553257Y-106235696D01*
X135553257Y-106235696D02*
X135458019Y-106235696D01*
X134696114Y-106902363D02*
X134696114Y-106378553D01*
X134696114Y-106378553D02*
X134743733Y-106283315D01*
X134743733Y-106283315D02*
X134838971Y-106235696D01*
X134838971Y-106235696D02*
X135029447Y-106235696D01*
X135029447Y-106235696D02*
X135124685Y-106283315D01*
X134696114Y-106854744D02*
X134791352Y-106902363D01*
X134791352Y-106902363D02*
X135029447Y-106902363D01*
X135029447Y-106902363D02*
X135124685Y-106854744D01*
X135124685Y-106854744D02*
X135172304Y-106759505D01*
X135172304Y-106759505D02*
X135172304Y-106664267D01*
X135172304Y-106664267D02*
X135124685Y-106569029D01*
X135124685Y-106569029D02*
X135029447Y-106521410D01*
X135029447Y-106521410D02*
X134791352Y-106521410D01*
X134791352Y-106521410D02*
X134696114Y-106473791D01*
X134219923Y-106902363D02*
X134219923Y-106235696D01*
X134219923Y-106330934D02*
X134172304Y-106283315D01*
X134172304Y-106283315D02*
X134077066Y-106235696D01*
X134077066Y-106235696D02*
X133934209Y-106235696D01*
X133934209Y-106235696D02*
X133838971Y-106283315D01*
X133838971Y-106283315D02*
X133791352Y-106378553D01*
X133791352Y-106378553D02*
X133791352Y-106902363D01*
X133791352Y-106378553D02*
X133743733Y-106283315D01*
X133743733Y-106283315D02*
X133648495Y-106235696D01*
X133648495Y-106235696D02*
X133505638Y-106235696D01*
X133505638Y-106235696D02*
X133410399Y-106283315D01*
X133410399Y-106283315D02*
X133362780Y-106378553D01*
X133362780Y-106378553D02*
X133362780Y-106902363D01*
X132124685Y-106902363D02*
X132124685Y-106235696D01*
X132124685Y-105902363D02*
X132172304Y-105949982D01*
X132172304Y-105949982D02*
X132124685Y-105997601D01*
X132124685Y-105997601D02*
X132077066Y-105949982D01*
X132077066Y-105949982D02*
X132124685Y-105902363D01*
X132124685Y-105902363D02*
X132124685Y-105997601D01*
X131648495Y-106235696D02*
X131648495Y-106902363D01*
X131648495Y-106330934D02*
X131600876Y-106283315D01*
X131600876Y-106283315D02*
X131505638Y-106235696D01*
X131505638Y-106235696D02*
X131362781Y-106235696D01*
X131362781Y-106235696D02*
X131267543Y-106283315D01*
X131267543Y-106283315D02*
X131219924Y-106378553D01*
X131219924Y-106378553D02*
X131219924Y-106902363D01*
X130791352Y-106854744D02*
X130696114Y-106902363D01*
X130696114Y-106902363D02*
X130505638Y-106902363D01*
X130505638Y-106902363D02*
X130410400Y-106854744D01*
X130410400Y-106854744D02*
X130362781Y-106759505D01*
X130362781Y-106759505D02*
X130362781Y-106711886D01*
X130362781Y-106711886D02*
X130410400Y-106616648D01*
X130410400Y-106616648D02*
X130505638Y-106569029D01*
X130505638Y-106569029D02*
X130648495Y-106569029D01*
X130648495Y-106569029D02*
X130743733Y-106521410D01*
X130743733Y-106521410D02*
X130791352Y-106426172D01*
X130791352Y-106426172D02*
X130791352Y-106378553D01*
X130791352Y-106378553D02*
X130743733Y-106283315D01*
X130743733Y-106283315D02*
X130648495Y-106235696D01*
X130648495Y-106235696D02*
X130505638Y-106235696D01*
X130505638Y-106235696D02*
X130410400Y-106283315D01*
X130077066Y-106235696D02*
X129696114Y-106235696D01*
X129934209Y-105902363D02*
X129934209Y-106759505D01*
X129934209Y-106759505D02*
X129886590Y-106854744D01*
X129886590Y-106854744D02*
X129791352Y-106902363D01*
X129791352Y-106902363D02*
X129696114Y-106902363D01*
X129362780Y-106902363D02*
X129362780Y-106235696D01*
X129362780Y-106426172D02*
X129315161Y-106330934D01*
X129315161Y-106330934D02*
X129267542Y-106283315D01*
X129267542Y-106283315D02*
X129172304Y-106235696D01*
X129172304Y-106235696D02*
X129077066Y-106235696D01*
X128315161Y-106235696D02*
X128315161Y-106902363D01*
X128743732Y-106235696D02*
X128743732Y-106759505D01*
X128743732Y-106759505D02*
X128696113Y-106854744D01*
X128696113Y-106854744D02*
X128600875Y-106902363D01*
X128600875Y-106902363D02*
X128458018Y-106902363D01*
X128458018Y-106902363D02*
X128362780Y-106854744D01*
X128362780Y-106854744D02*
X128315161Y-106807124D01*
X127410399Y-106854744D02*
X127505637Y-106902363D01*
X127505637Y-106902363D02*
X127696113Y-106902363D01*
X127696113Y-106902363D02*
X127791351Y-106854744D01*
X127791351Y-106854744D02*
X127838970Y-106807124D01*
X127838970Y-106807124D02*
X127886589Y-106711886D01*
X127886589Y-106711886D02*
X127886589Y-106426172D01*
X127886589Y-106426172D02*
X127838970Y-106330934D01*
X127838970Y-106330934D02*
X127791351Y-106283315D01*
X127791351Y-106283315D02*
X127696113Y-106235696D01*
X127696113Y-106235696D02*
X127505637Y-106235696D01*
X127505637Y-106235696D02*
X127410399Y-106283315D01*
X127124684Y-106235696D02*
X126743732Y-106235696D01*
X126981827Y-105902363D02*
X126981827Y-106759505D01*
X126981827Y-106759505D02*
X126934208Y-106854744D01*
X126934208Y-106854744D02*
X126838970Y-106902363D01*
X126838970Y-106902363D02*
X126743732Y-106902363D01*
X126410398Y-106902363D02*
X126410398Y-106235696D01*
X126410398Y-105902363D02*
X126458017Y-105949982D01*
X126458017Y-105949982D02*
X126410398Y-105997601D01*
X126410398Y-105997601D02*
X126362779Y-105949982D01*
X126362779Y-105949982D02*
X126410398Y-105902363D01*
X126410398Y-105902363D02*
X126410398Y-105997601D01*
X125791351Y-106902363D02*
X125886589Y-106854744D01*
X125886589Y-106854744D02*
X125934208Y-106807124D01*
X125934208Y-106807124D02*
X125981827Y-106711886D01*
X125981827Y-106711886D02*
X125981827Y-106426172D01*
X125981827Y-106426172D02*
X125934208Y-106330934D01*
X125934208Y-106330934D02*
X125886589Y-106283315D01*
X125886589Y-106283315D02*
X125791351Y-106235696D01*
X125791351Y-106235696D02*
X125648494Y-106235696D01*
X125648494Y-106235696D02*
X125553256Y-106283315D01*
X125553256Y-106283315D02*
X125505637Y-106330934D01*
X125505637Y-106330934D02*
X125458018Y-106426172D01*
X125458018Y-106426172D02*
X125458018Y-106711886D01*
X125458018Y-106711886D02*
X125505637Y-106807124D01*
X125505637Y-106807124D02*
X125553256Y-106854744D01*
X125553256Y-106854744D02*
X125648494Y-106902363D01*
X125648494Y-106902363D02*
X125791351Y-106902363D01*
X125029446Y-106235696D02*
X125029446Y-106902363D01*
X125029446Y-106330934D02*
X124981827Y-106283315D01*
X124981827Y-106283315D02*
X124886589Y-106235696D01*
X124886589Y-106235696D02*
X124743732Y-106235696D01*
X124743732Y-106235696D02*
X124648494Y-106283315D01*
X124648494Y-106283315D02*
X124600875Y-106378553D01*
X124600875Y-106378553D02*
X124600875Y-106902363D01*
X124172303Y-106854744D02*
X124077065Y-106902363D01*
X124077065Y-106902363D02*
X123886589Y-106902363D01*
X123886589Y-106902363D02*
X123791351Y-106854744D01*
X123791351Y-106854744D02*
X123743732Y-106759505D01*
X123743732Y-106759505D02*
X123743732Y-106711886D01*
X123743732Y-106711886D02*
X123791351Y-106616648D01*
X123791351Y-106616648D02*
X123886589Y-106569029D01*
X123886589Y-106569029D02*
X124029446Y-106569029D01*
X124029446Y-106569029D02*
X124124684Y-106521410D01*
X124124684Y-106521410D02*
X124172303Y-106426172D01*
X124172303Y-106426172D02*
X124172303Y-106378553D01*
X124172303Y-106378553D02*
X124124684Y-106283315D01*
X124124684Y-106283315D02*
X124029446Y-106235696D01*
X124029446Y-106235696D02*
X123886589Y-106235696D01*
X123886589Y-106235696D02*
X123791351Y-106283315D01*
X122410398Y-106902363D02*
X122505636Y-106854744D01*
X122505636Y-106854744D02*
X122553255Y-106807124D01*
X122553255Y-106807124D02*
X122600874Y-106711886D01*
X122600874Y-106711886D02*
X122600874Y-106426172D01*
X122600874Y-106426172D02*
X122553255Y-106330934D01*
X122553255Y-106330934D02*
X122505636Y-106283315D01*
X122505636Y-106283315D02*
X122410398Y-106235696D01*
X122410398Y-106235696D02*
X122267541Y-106235696D01*
X122267541Y-106235696D02*
X122172303Y-106283315D01*
X122172303Y-106283315D02*
X122124684Y-106330934D01*
X122124684Y-106330934D02*
X122077065Y-106426172D01*
X122077065Y-106426172D02*
X122077065Y-106711886D01*
X122077065Y-106711886D02*
X122124684Y-106807124D01*
X122124684Y-106807124D02*
X122172303Y-106854744D01*
X122172303Y-106854744D02*
X122267541Y-106902363D01*
X122267541Y-106902363D02*
X122410398Y-106902363D01*
X121648493Y-106902363D02*
X121648493Y-106235696D01*
X121648493Y-106426172D02*
X121600874Y-106330934D01*
X121600874Y-106330934D02*
X121553255Y-106283315D01*
X121553255Y-106283315D02*
X121458017Y-106235696D01*
X121458017Y-106235696D02*
X121362779Y-106235696D01*
X119838969Y-106902363D02*
X119838969Y-105902363D01*
X119838969Y-106854744D02*
X119934207Y-106902363D01*
X119934207Y-106902363D02*
X120124683Y-106902363D01*
X120124683Y-106902363D02*
X120219921Y-106854744D01*
X120219921Y-106854744D02*
X120267540Y-106807124D01*
X120267540Y-106807124D02*
X120315159Y-106711886D01*
X120315159Y-106711886D02*
X120315159Y-106426172D01*
X120315159Y-106426172D02*
X120267540Y-106330934D01*
X120267540Y-106330934D02*
X120219921Y-106283315D01*
X120219921Y-106283315D02*
X120124683Y-106235696D01*
X120124683Y-106235696D02*
X119934207Y-106235696D01*
X119934207Y-106235696D02*
X119838969Y-106283315D01*
X118934207Y-106902363D02*
X118934207Y-106378553D01*
X118934207Y-106378553D02*
X118981826Y-106283315D01*
X118981826Y-106283315D02*
X119077064Y-106235696D01*
X119077064Y-106235696D02*
X119267540Y-106235696D01*
X119267540Y-106235696D02*
X119362778Y-106283315D01*
X118934207Y-106854744D02*
X119029445Y-106902363D01*
X119029445Y-106902363D02*
X119267540Y-106902363D01*
X119267540Y-106902363D02*
X119362778Y-106854744D01*
X119362778Y-106854744D02*
X119410397Y-106759505D01*
X119410397Y-106759505D02*
X119410397Y-106664267D01*
X119410397Y-106664267D02*
X119362778Y-106569029D01*
X119362778Y-106569029D02*
X119267540Y-106521410D01*
X119267540Y-106521410D02*
X119029445Y-106521410D01*
X119029445Y-106521410D02*
X118934207Y-106473791D01*
X118600873Y-106235696D02*
X118219921Y-106235696D01*
X118458016Y-105902363D02*
X118458016Y-106759505D01*
X118458016Y-106759505D02*
X118410397Y-106854744D01*
X118410397Y-106854744D02*
X118315159Y-106902363D01*
X118315159Y-106902363D02*
X118219921Y-106902363D01*
X117458016Y-106902363D02*
X117458016Y-106378553D01*
X117458016Y-106378553D02*
X117505635Y-106283315D01*
X117505635Y-106283315D02*
X117600873Y-106235696D01*
X117600873Y-106235696D02*
X117791349Y-106235696D01*
X117791349Y-106235696D02*
X117886587Y-106283315D01*
X117458016Y-106854744D02*
X117553254Y-106902363D01*
X117553254Y-106902363D02*
X117791349Y-106902363D01*
X117791349Y-106902363D02*
X117886587Y-106854744D01*
X117886587Y-106854744D02*
X117934206Y-106759505D01*
X117934206Y-106759505D02*
X117934206Y-106664267D01*
X117934206Y-106664267D02*
X117886587Y-106569029D01*
X117886587Y-106569029D02*
X117791349Y-106521410D01*
X117791349Y-106521410D02*
X117553254Y-106521410D01*
X117553254Y-106521410D02*
X117458016Y-106473791D01*
X116315158Y-106235696D02*
X116077063Y-106902363D01*
X116077063Y-106902363D02*
X115838968Y-106235696D01*
X115029444Y-106902363D02*
X115029444Y-106378553D01*
X115029444Y-106378553D02*
X115077063Y-106283315D01*
X115077063Y-106283315D02*
X115172301Y-106235696D01*
X115172301Y-106235696D02*
X115362777Y-106235696D01*
X115362777Y-106235696D02*
X115458015Y-106283315D01*
X115029444Y-106854744D02*
X115124682Y-106902363D01*
X115124682Y-106902363D02*
X115362777Y-106902363D01*
X115362777Y-106902363D02*
X115458015Y-106854744D01*
X115458015Y-106854744D02*
X115505634Y-106759505D01*
X115505634Y-106759505D02*
X115505634Y-106664267D01*
X115505634Y-106664267D02*
X115458015Y-106569029D01*
X115458015Y-106569029D02*
X115362777Y-106521410D01*
X115362777Y-106521410D02*
X115124682Y-106521410D01*
X115124682Y-106521410D02*
X115029444Y-106473791D01*
X114553253Y-106902363D02*
X114553253Y-106235696D01*
X114553253Y-106426172D02*
X114505634Y-106330934D01*
X114505634Y-106330934D02*
X114458015Y-106283315D01*
X114458015Y-106283315D02*
X114362777Y-106235696D01*
X114362777Y-106235696D02*
X114267539Y-106235696D01*
X113934205Y-106902363D02*
X113934205Y-106235696D01*
X113934205Y-105902363D02*
X113981824Y-105949982D01*
X113981824Y-105949982D02*
X113934205Y-105997601D01*
X113934205Y-105997601D02*
X113886586Y-105949982D01*
X113886586Y-105949982D02*
X113934205Y-105902363D01*
X113934205Y-105902363D02*
X113934205Y-105997601D01*
X113029444Y-106902363D02*
X113029444Y-106378553D01*
X113029444Y-106378553D02*
X113077063Y-106283315D01*
X113077063Y-106283315D02*
X113172301Y-106235696D01*
X113172301Y-106235696D02*
X113362777Y-106235696D01*
X113362777Y-106235696D02*
X113458015Y-106283315D01*
X113029444Y-106854744D02*
X113124682Y-106902363D01*
X113124682Y-106902363D02*
X113362777Y-106902363D01*
X113362777Y-106902363D02*
X113458015Y-106854744D01*
X113458015Y-106854744D02*
X113505634Y-106759505D01*
X113505634Y-106759505D02*
X113505634Y-106664267D01*
X113505634Y-106664267D02*
X113458015Y-106569029D01*
X113458015Y-106569029D02*
X113362777Y-106521410D01*
X113362777Y-106521410D02*
X113124682Y-106521410D01*
X113124682Y-106521410D02*
X113029444Y-106473791D01*
X112553253Y-106902363D02*
X112553253Y-105902363D01*
X112553253Y-106283315D02*
X112458015Y-106235696D01*
X112458015Y-106235696D02*
X112267539Y-106235696D01*
X112267539Y-106235696D02*
X112172301Y-106283315D01*
X112172301Y-106283315D02*
X112124682Y-106330934D01*
X112124682Y-106330934D02*
X112077063Y-106426172D01*
X112077063Y-106426172D02*
X112077063Y-106711886D01*
X112077063Y-106711886D02*
X112124682Y-106807124D01*
X112124682Y-106807124D02*
X112172301Y-106854744D01*
X112172301Y-106854744D02*
X112267539Y-106902363D01*
X112267539Y-106902363D02*
X112458015Y-106902363D01*
X112458015Y-106902363D02*
X112553253Y-106854744D01*
X111505634Y-106902363D02*
X111600872Y-106854744D01*
X111600872Y-106854744D02*
X111648491Y-106759505D01*
X111648491Y-106759505D02*
X111648491Y-105902363D01*
X110743729Y-106854744D02*
X110838967Y-106902363D01*
X110838967Y-106902363D02*
X111029443Y-106902363D01*
X111029443Y-106902363D02*
X111124681Y-106854744D01*
X111124681Y-106854744D02*
X111172300Y-106759505D01*
X111172300Y-106759505D02*
X111172300Y-106378553D01*
X111172300Y-106378553D02*
X111124681Y-106283315D01*
X111124681Y-106283315D02*
X111029443Y-106235696D01*
X111029443Y-106235696D02*
X110838967Y-106235696D01*
X110838967Y-106235696D02*
X110743729Y-106283315D01*
X110743729Y-106283315D02*
X110696110Y-106378553D01*
X110696110Y-106378553D02*
X110696110Y-106473791D01*
X110696110Y-106473791D02*
X111172300Y-106569029D01*
X110315157Y-106854744D02*
X110219919Y-106902363D01*
X110219919Y-106902363D02*
X110029443Y-106902363D01*
X110029443Y-106902363D02*
X109934205Y-106854744D01*
X109934205Y-106854744D02*
X109886586Y-106759505D01*
X109886586Y-106759505D02*
X109886586Y-106711886D01*
X109886586Y-106711886D02*
X109934205Y-106616648D01*
X109934205Y-106616648D02*
X110029443Y-106569029D01*
X110029443Y-106569029D02*
X110172300Y-106569029D01*
X110172300Y-106569029D02*
X110267538Y-106521410D01*
X110267538Y-106521410D02*
X110315157Y-106426172D01*
X110315157Y-106426172D02*
X110315157Y-106378553D01*
X110315157Y-106378553D02*
X110267538Y-106283315D01*
X110267538Y-106283315D02*
X110172300Y-106235696D01*
X110172300Y-106235696D02*
X110029443Y-106235696D01*
X110029443Y-106235696D02*
X109934205Y-106283315D01*
X109458014Y-106807124D02*
X109410395Y-106854744D01*
X109410395Y-106854744D02*
X109458014Y-106902363D01*
X109458014Y-106902363D02*
X109505633Y-106854744D01*
X109505633Y-106854744D02*
X109458014Y-106807124D01*
X109458014Y-106807124D02*
X109458014Y-106902363D01*
X146743734Y-108464688D02*
X146600877Y-108512307D01*
X146600877Y-108512307D02*
X146362782Y-108512307D01*
X146362782Y-108512307D02*
X146267544Y-108464688D01*
X146267544Y-108464688D02*
X146219925Y-108417068D01*
X146219925Y-108417068D02*
X146172306Y-108321830D01*
X146172306Y-108321830D02*
X146172306Y-108226592D01*
X146172306Y-108226592D02*
X146219925Y-108131354D01*
X146219925Y-108131354D02*
X146267544Y-108083735D01*
X146267544Y-108083735D02*
X146362782Y-108036116D01*
X146362782Y-108036116D02*
X146553258Y-107988497D01*
X146553258Y-107988497D02*
X146648496Y-107940878D01*
X146648496Y-107940878D02*
X146696115Y-107893259D01*
X146696115Y-107893259D02*
X146743734Y-107798021D01*
X146743734Y-107798021D02*
X146743734Y-107702783D01*
X146743734Y-107702783D02*
X146696115Y-107607545D01*
X146696115Y-107607545D02*
X146648496Y-107559926D01*
X146648496Y-107559926D02*
X146553258Y-107512307D01*
X146553258Y-107512307D02*
X146315163Y-107512307D01*
X146315163Y-107512307D02*
X146172306Y-107559926D01*
X145362782Y-108464688D02*
X145458020Y-108512307D01*
X145458020Y-108512307D02*
X145648496Y-108512307D01*
X145648496Y-108512307D02*
X145743734Y-108464688D01*
X145743734Y-108464688D02*
X145791353Y-108369449D01*
X145791353Y-108369449D02*
X145791353Y-107988497D01*
X145791353Y-107988497D02*
X145743734Y-107893259D01*
X145743734Y-107893259D02*
X145648496Y-107845640D01*
X145648496Y-107845640D02*
X145458020Y-107845640D01*
X145458020Y-107845640D02*
X145362782Y-107893259D01*
X145362782Y-107893259D02*
X145315163Y-107988497D01*
X145315163Y-107988497D02*
X145315163Y-108083735D01*
X145315163Y-108083735D02*
X145791353Y-108178973D01*
X144886591Y-107845640D02*
X144886591Y-108845640D01*
X144886591Y-107893259D02*
X144791353Y-107845640D01*
X144791353Y-107845640D02*
X144600877Y-107845640D01*
X144600877Y-107845640D02*
X144505639Y-107893259D01*
X144505639Y-107893259D02*
X144458020Y-107940878D01*
X144458020Y-107940878D02*
X144410401Y-108036116D01*
X144410401Y-108036116D02*
X144410401Y-108321830D01*
X144410401Y-108321830D02*
X144458020Y-108417068D01*
X144458020Y-108417068D02*
X144505639Y-108464688D01*
X144505639Y-108464688D02*
X144600877Y-108512307D01*
X144600877Y-108512307D02*
X144791353Y-108512307D01*
X144791353Y-108512307D02*
X144886591Y-108464688D01*
X143553258Y-108512307D02*
X143553258Y-107988497D01*
X143553258Y-107988497D02*
X143600877Y-107893259D01*
X143600877Y-107893259D02*
X143696115Y-107845640D01*
X143696115Y-107845640D02*
X143886591Y-107845640D01*
X143886591Y-107845640D02*
X143981829Y-107893259D01*
X143553258Y-108464688D02*
X143648496Y-108512307D01*
X143648496Y-108512307D02*
X143886591Y-108512307D01*
X143886591Y-108512307D02*
X143981829Y-108464688D01*
X143981829Y-108464688D02*
X144029448Y-108369449D01*
X144029448Y-108369449D02*
X144029448Y-108274211D01*
X144029448Y-108274211D02*
X143981829Y-108178973D01*
X143981829Y-108178973D02*
X143886591Y-108131354D01*
X143886591Y-108131354D02*
X143648496Y-108131354D01*
X143648496Y-108131354D02*
X143553258Y-108083735D01*
X143077067Y-108512307D02*
X143077067Y-107845640D01*
X143077067Y-108036116D02*
X143029448Y-107940878D01*
X143029448Y-107940878D02*
X142981829Y-107893259D01*
X142981829Y-107893259D02*
X142886591Y-107845640D01*
X142886591Y-107845640D02*
X142791353Y-107845640D01*
X142029448Y-108512307D02*
X142029448Y-107988497D01*
X142029448Y-107988497D02*
X142077067Y-107893259D01*
X142077067Y-107893259D02*
X142172305Y-107845640D01*
X142172305Y-107845640D02*
X142362781Y-107845640D01*
X142362781Y-107845640D02*
X142458019Y-107893259D01*
X142029448Y-108464688D02*
X142124686Y-108512307D01*
X142124686Y-108512307D02*
X142362781Y-108512307D01*
X142362781Y-108512307D02*
X142458019Y-108464688D01*
X142458019Y-108464688D02*
X142505638Y-108369449D01*
X142505638Y-108369449D02*
X142505638Y-108274211D01*
X142505638Y-108274211D02*
X142458019Y-108178973D01*
X142458019Y-108178973D02*
X142362781Y-108131354D01*
X142362781Y-108131354D02*
X142124686Y-108131354D01*
X142124686Y-108131354D02*
X142029448Y-108083735D01*
X141696114Y-107845640D02*
X141315162Y-107845640D01*
X141553257Y-107512307D02*
X141553257Y-108369449D01*
X141553257Y-108369449D02*
X141505638Y-108464688D01*
X141505638Y-108464688D02*
X141410400Y-108512307D01*
X141410400Y-108512307D02*
X141315162Y-108512307D01*
X140600876Y-108464688D02*
X140696114Y-108512307D01*
X140696114Y-108512307D02*
X140886590Y-108512307D01*
X140886590Y-108512307D02*
X140981828Y-108464688D01*
X140981828Y-108464688D02*
X141029447Y-108369449D01*
X141029447Y-108369449D02*
X141029447Y-107988497D01*
X141029447Y-107988497D02*
X140981828Y-107893259D01*
X140981828Y-107893259D02*
X140886590Y-107845640D01*
X140886590Y-107845640D02*
X140696114Y-107845640D01*
X140696114Y-107845640D02*
X140600876Y-107893259D01*
X140600876Y-107893259D02*
X140553257Y-107988497D01*
X140553257Y-107988497D02*
X140553257Y-108083735D01*
X140553257Y-108083735D02*
X141029447Y-108178973D01*
X138791352Y-108512307D02*
X139124685Y-108036116D01*
X139362780Y-108512307D02*
X139362780Y-107512307D01*
X139362780Y-107512307D02*
X138981828Y-107512307D01*
X138981828Y-107512307D02*
X138886590Y-107559926D01*
X138886590Y-107559926D02*
X138838971Y-107607545D01*
X138838971Y-107607545D02*
X138791352Y-107702783D01*
X138791352Y-107702783D02*
X138791352Y-107845640D01*
X138791352Y-107845640D02*
X138838971Y-107940878D01*
X138838971Y-107940878D02*
X138886590Y-107988497D01*
X138886590Y-107988497D02*
X138981828Y-108036116D01*
X138981828Y-108036116D02*
X139362780Y-108036116D01*
X138410399Y-108226592D02*
X137934209Y-108226592D01*
X138505637Y-108512307D02*
X138172304Y-107512307D01*
X138172304Y-107512307D02*
X137838971Y-108512307D01*
X137505637Y-108512307D02*
X137505637Y-107512307D01*
X137505637Y-107512307D02*
X137172304Y-108226592D01*
X137172304Y-108226592D02*
X136838971Y-107512307D01*
X136838971Y-107512307D02*
X136838971Y-108512307D01*
X135600875Y-108512307D02*
X135600875Y-107845640D01*
X135600875Y-107512307D02*
X135648494Y-107559926D01*
X135648494Y-107559926D02*
X135600875Y-107607545D01*
X135600875Y-107607545D02*
X135553256Y-107559926D01*
X135553256Y-107559926D02*
X135600875Y-107512307D01*
X135600875Y-107512307D02*
X135600875Y-107607545D01*
X135172304Y-108464688D02*
X135077066Y-108512307D01*
X135077066Y-108512307D02*
X134886590Y-108512307D01*
X134886590Y-108512307D02*
X134791352Y-108464688D01*
X134791352Y-108464688D02*
X134743733Y-108369449D01*
X134743733Y-108369449D02*
X134743733Y-108321830D01*
X134743733Y-108321830D02*
X134791352Y-108226592D01*
X134791352Y-108226592D02*
X134886590Y-108178973D01*
X134886590Y-108178973D02*
X135029447Y-108178973D01*
X135029447Y-108178973D02*
X135124685Y-108131354D01*
X135124685Y-108131354D02*
X135172304Y-108036116D01*
X135172304Y-108036116D02*
X135172304Y-107988497D01*
X135172304Y-107988497D02*
X135124685Y-107893259D01*
X135124685Y-107893259D02*
X135029447Y-107845640D01*
X135029447Y-107845640D02*
X134886590Y-107845640D01*
X134886590Y-107845640D02*
X134791352Y-107893259D01*
X133124685Y-107845640D02*
X133124685Y-108512307D01*
X133553256Y-107845640D02*
X133553256Y-108369449D01*
X133553256Y-108369449D02*
X133505637Y-108464688D01*
X133505637Y-108464688D02*
X133410399Y-108512307D01*
X133410399Y-108512307D02*
X133267542Y-108512307D01*
X133267542Y-108512307D02*
X133172304Y-108464688D01*
X133172304Y-108464688D02*
X133124685Y-108417068D01*
X132696113Y-108464688D02*
X132600875Y-108512307D01*
X132600875Y-108512307D02*
X132410399Y-108512307D01*
X132410399Y-108512307D02*
X132315161Y-108464688D01*
X132315161Y-108464688D02*
X132267542Y-108369449D01*
X132267542Y-108369449D02*
X132267542Y-108321830D01*
X132267542Y-108321830D02*
X132315161Y-108226592D01*
X132315161Y-108226592D02*
X132410399Y-108178973D01*
X132410399Y-108178973D02*
X132553256Y-108178973D01*
X132553256Y-108178973D02*
X132648494Y-108131354D01*
X132648494Y-108131354D02*
X132696113Y-108036116D01*
X132696113Y-108036116D02*
X132696113Y-107988497D01*
X132696113Y-107988497D02*
X132648494Y-107893259D01*
X132648494Y-107893259D02*
X132553256Y-107845640D01*
X132553256Y-107845640D02*
X132410399Y-107845640D01*
X132410399Y-107845640D02*
X132315161Y-107893259D01*
X131458018Y-108464688D02*
X131553256Y-108512307D01*
X131553256Y-108512307D02*
X131743732Y-108512307D01*
X131743732Y-108512307D02*
X131838970Y-108464688D01*
X131838970Y-108464688D02*
X131886589Y-108369449D01*
X131886589Y-108369449D02*
X131886589Y-107988497D01*
X131886589Y-107988497D02*
X131838970Y-107893259D01*
X131838970Y-107893259D02*
X131743732Y-107845640D01*
X131743732Y-107845640D02*
X131553256Y-107845640D01*
X131553256Y-107845640D02*
X131458018Y-107893259D01*
X131458018Y-107893259D02*
X131410399Y-107988497D01*
X131410399Y-107988497D02*
X131410399Y-108083735D01*
X131410399Y-108083735D02*
X131886589Y-108178973D01*
X130553256Y-108512307D02*
X130553256Y-107512307D01*
X130553256Y-108464688D02*
X130648494Y-108512307D01*
X130648494Y-108512307D02*
X130838970Y-108512307D01*
X130838970Y-108512307D02*
X130934208Y-108464688D01*
X130934208Y-108464688D02*
X130981827Y-108417068D01*
X130981827Y-108417068D02*
X131029446Y-108321830D01*
X131029446Y-108321830D02*
X131029446Y-108036116D01*
X131029446Y-108036116D02*
X130981827Y-107940878D01*
X130981827Y-107940878D02*
X130934208Y-107893259D01*
X130934208Y-107893259D02*
X130838970Y-107845640D01*
X130838970Y-107845640D02*
X130648494Y-107845640D01*
X130648494Y-107845640D02*
X130553256Y-107893259D01*
X129458017Y-107845640D02*
X129077065Y-107845640D01*
X129315160Y-108512307D02*
X129315160Y-107655164D01*
X129315160Y-107655164D02*
X129267541Y-107559926D01*
X129267541Y-107559926D02*
X129172303Y-107512307D01*
X129172303Y-107512307D02*
X129077065Y-107512307D01*
X128600874Y-108512307D02*
X128696112Y-108464688D01*
X128696112Y-108464688D02*
X128743731Y-108417068D01*
X128743731Y-108417068D02*
X128791350Y-108321830D01*
X128791350Y-108321830D02*
X128791350Y-108036116D01*
X128791350Y-108036116D02*
X128743731Y-107940878D01*
X128743731Y-107940878D02*
X128696112Y-107893259D01*
X128696112Y-107893259D02*
X128600874Y-107845640D01*
X128600874Y-107845640D02*
X128458017Y-107845640D01*
X128458017Y-107845640D02*
X128362779Y-107893259D01*
X128362779Y-107893259D02*
X128315160Y-107940878D01*
X128315160Y-107940878D02*
X128267541Y-108036116D01*
X128267541Y-108036116D02*
X128267541Y-108321830D01*
X128267541Y-108321830D02*
X128315160Y-108417068D01*
X128315160Y-108417068D02*
X128362779Y-108464688D01*
X128362779Y-108464688D02*
X128458017Y-108512307D01*
X128458017Y-108512307D02*
X128600874Y-108512307D01*
X127838969Y-108512307D02*
X127838969Y-107845640D01*
X127838969Y-108036116D02*
X127791350Y-107940878D01*
X127791350Y-107940878D02*
X127743731Y-107893259D01*
X127743731Y-107893259D02*
X127648493Y-107845640D01*
X127648493Y-107845640D02*
X127553255Y-107845640D01*
X126077064Y-108464688D02*
X126172302Y-108512307D01*
X126172302Y-108512307D02*
X126362778Y-108512307D01*
X126362778Y-108512307D02*
X126458016Y-108464688D01*
X126458016Y-108464688D02*
X126505635Y-108369449D01*
X126505635Y-108369449D02*
X126505635Y-107988497D01*
X126505635Y-107988497D02*
X126458016Y-107893259D01*
X126458016Y-107893259D02*
X126362778Y-107845640D01*
X126362778Y-107845640D02*
X126172302Y-107845640D01*
X126172302Y-107845640D02*
X126077064Y-107893259D01*
X126077064Y-107893259D02*
X126029445Y-107988497D01*
X126029445Y-107988497D02*
X126029445Y-108083735D01*
X126029445Y-108083735D02*
X126505635Y-108178973D01*
X125172302Y-108512307D02*
X125172302Y-107988497D01*
X125172302Y-107988497D02*
X125219921Y-107893259D01*
X125219921Y-107893259D02*
X125315159Y-107845640D01*
X125315159Y-107845640D02*
X125505635Y-107845640D01*
X125505635Y-107845640D02*
X125600873Y-107893259D01*
X125172302Y-108464688D02*
X125267540Y-108512307D01*
X125267540Y-108512307D02*
X125505635Y-108512307D01*
X125505635Y-108512307D02*
X125600873Y-108464688D01*
X125600873Y-108464688D02*
X125648492Y-108369449D01*
X125648492Y-108369449D02*
X125648492Y-108274211D01*
X125648492Y-108274211D02*
X125600873Y-108178973D01*
X125600873Y-108178973D02*
X125505635Y-108131354D01*
X125505635Y-108131354D02*
X125267540Y-108131354D01*
X125267540Y-108131354D02*
X125172302Y-108083735D01*
X124267540Y-108464688D02*
X124362778Y-108512307D01*
X124362778Y-108512307D02*
X124553254Y-108512307D01*
X124553254Y-108512307D02*
X124648492Y-108464688D01*
X124648492Y-108464688D02*
X124696111Y-108417068D01*
X124696111Y-108417068D02*
X124743730Y-108321830D01*
X124743730Y-108321830D02*
X124743730Y-108036116D01*
X124743730Y-108036116D02*
X124696111Y-107940878D01*
X124696111Y-107940878D02*
X124648492Y-107893259D01*
X124648492Y-107893259D02*
X124553254Y-107845640D01*
X124553254Y-107845640D02*
X124362778Y-107845640D01*
X124362778Y-107845640D02*
X124267540Y-107893259D01*
X123838968Y-108512307D02*
X123838968Y-107512307D01*
X123410397Y-108512307D02*
X123410397Y-107988497D01*
X123410397Y-107988497D02*
X123458016Y-107893259D01*
X123458016Y-107893259D02*
X123553254Y-107845640D01*
X123553254Y-107845640D02*
X123696111Y-107845640D01*
X123696111Y-107845640D02*
X123791349Y-107893259D01*
X123791349Y-107893259D02*
X123838968Y-107940878D01*
X122315158Y-107845640D02*
X121934206Y-107845640D01*
X122172301Y-107512307D02*
X122172301Y-108369449D01*
X122172301Y-108369449D02*
X122124682Y-108464688D01*
X122124682Y-108464688D02*
X122029444Y-108512307D01*
X122029444Y-108512307D02*
X121934206Y-108512307D01*
X121696110Y-107845640D02*
X121458015Y-108512307D01*
X121219920Y-107845640D02*
X121458015Y-108512307D01*
X121458015Y-108512307D02*
X121553253Y-108750402D01*
X121553253Y-108750402D02*
X121600872Y-108798021D01*
X121600872Y-108798021D02*
X121696110Y-108845640D01*
X120838967Y-107845640D02*
X120838967Y-108845640D01*
X120838967Y-107893259D02*
X120743729Y-107845640D01*
X120743729Y-107845640D02*
X120553253Y-107845640D01*
X120553253Y-107845640D02*
X120458015Y-107893259D01*
X120458015Y-107893259D02*
X120410396Y-107940878D01*
X120410396Y-107940878D02*
X120362777Y-108036116D01*
X120362777Y-108036116D02*
X120362777Y-108321830D01*
X120362777Y-108321830D02*
X120410396Y-108417068D01*
X120410396Y-108417068D02*
X120458015Y-108464688D01*
X120458015Y-108464688D02*
X120553253Y-108512307D01*
X120553253Y-108512307D02*
X120743729Y-108512307D01*
X120743729Y-108512307D02*
X120838967Y-108464688D01*
X119553253Y-108464688D02*
X119648491Y-108512307D01*
X119648491Y-108512307D02*
X119838967Y-108512307D01*
X119838967Y-108512307D02*
X119934205Y-108464688D01*
X119934205Y-108464688D02*
X119981824Y-108369449D01*
X119981824Y-108369449D02*
X119981824Y-107988497D01*
X119981824Y-107988497D02*
X119934205Y-107893259D01*
X119934205Y-107893259D02*
X119838967Y-107845640D01*
X119838967Y-107845640D02*
X119648491Y-107845640D01*
X119648491Y-107845640D02*
X119553253Y-107893259D01*
X119553253Y-107893259D02*
X119505634Y-107988497D01*
X119505634Y-107988497D02*
X119505634Y-108083735D01*
X119505634Y-108083735D02*
X119981824Y-108178973D01*
X118315157Y-108512307D02*
X118315157Y-107845640D01*
X118315157Y-107512307D02*
X118362776Y-107559926D01*
X118362776Y-107559926D02*
X118315157Y-107607545D01*
X118315157Y-107607545D02*
X118267538Y-107559926D01*
X118267538Y-107559926D02*
X118315157Y-107512307D01*
X118315157Y-107512307D02*
X118315157Y-107607545D01*
X117838967Y-107845640D02*
X117838967Y-108512307D01*
X117838967Y-107940878D02*
X117791348Y-107893259D01*
X117791348Y-107893259D02*
X117696110Y-107845640D01*
X117696110Y-107845640D02*
X117553253Y-107845640D01*
X117553253Y-107845640D02*
X117458015Y-107893259D01*
X117458015Y-107893259D02*
X117410396Y-107988497D01*
X117410396Y-107988497D02*
X117410396Y-108512307D01*
X116219919Y-108226592D02*
X115743729Y-108226592D01*
X116315157Y-108512307D02*
X115981824Y-107512307D01*
X115981824Y-107512307D02*
X115648491Y-108512307D01*
X114743729Y-108512307D02*
X115077062Y-108036116D01*
X115315157Y-108512307D02*
X115315157Y-107512307D01*
X115315157Y-107512307D02*
X114934205Y-107512307D01*
X114934205Y-107512307D02*
X114838967Y-107559926D01*
X114838967Y-107559926D02*
X114791348Y-107607545D01*
X114791348Y-107607545D02*
X114743729Y-107702783D01*
X114743729Y-107702783D02*
X114743729Y-107845640D01*
X114743729Y-107845640D02*
X114791348Y-107940878D01*
X114791348Y-107940878D02*
X114838967Y-107988497D01*
X114838967Y-107988497D02*
X114934205Y-108036116D01*
X114934205Y-108036116D02*
X115315157Y-108036116D01*
X114315157Y-108512307D02*
X114315157Y-107512307D01*
X114315157Y-107512307D02*
X113981824Y-108226592D01*
X113981824Y-108226592D02*
X113648491Y-107512307D01*
X113648491Y-107512307D02*
X113648491Y-108512307D01*
X111981824Y-108512307D02*
X111981824Y-107988497D01*
X111981824Y-107988497D02*
X112029443Y-107893259D01*
X112029443Y-107893259D02*
X112124681Y-107845640D01*
X112124681Y-107845640D02*
X112315157Y-107845640D01*
X112315157Y-107845640D02*
X112410395Y-107893259D01*
X111981824Y-108464688D02*
X112077062Y-108512307D01*
X112077062Y-108512307D02*
X112315157Y-108512307D01*
X112315157Y-108512307D02*
X112410395Y-108464688D01*
X112410395Y-108464688D02*
X112458014Y-108369449D01*
X112458014Y-108369449D02*
X112458014Y-108274211D01*
X112458014Y-108274211D02*
X112410395Y-108178973D01*
X112410395Y-108178973D02*
X112315157Y-108131354D01*
X112315157Y-108131354D02*
X112077062Y-108131354D01*
X112077062Y-108131354D02*
X111981824Y-108083735D01*
X111505633Y-108512307D02*
X111505633Y-107845640D01*
X111505633Y-108036116D02*
X111458014Y-107940878D01*
X111458014Y-107940878D02*
X111410395Y-107893259D01*
X111410395Y-107893259D02*
X111315157Y-107845640D01*
X111315157Y-107845640D02*
X111219919Y-107845640D01*
X110458014Y-108464688D02*
X110553252Y-108512307D01*
X110553252Y-108512307D02*
X110743728Y-108512307D01*
X110743728Y-108512307D02*
X110838966Y-108464688D01*
X110838966Y-108464688D02*
X110886585Y-108417068D01*
X110886585Y-108417068D02*
X110934204Y-108321830D01*
X110934204Y-108321830D02*
X110934204Y-108036116D01*
X110934204Y-108036116D02*
X110886585Y-107940878D01*
X110886585Y-107940878D02*
X110838966Y-107893259D01*
X110838966Y-107893259D02*
X110743728Y-107845640D01*
X110743728Y-107845640D02*
X110553252Y-107845640D01*
X110553252Y-107845640D02*
X110458014Y-107893259D01*
X110029442Y-108512307D02*
X110029442Y-107512307D01*
X109600871Y-108512307D02*
X109600871Y-107988497D01*
X109600871Y-107988497D02*
X109648490Y-107893259D01*
X109648490Y-107893259D02*
X109743728Y-107845640D01*
X109743728Y-107845640D02*
X109886585Y-107845640D01*
X109886585Y-107845640D02*
X109981823Y-107893259D01*
X109981823Y-107893259D02*
X110029442Y-107940878D01*
X109124680Y-108512307D02*
X109124680Y-107845640D01*
X109124680Y-107512307D02*
X109172299Y-107559926D01*
X109172299Y-107559926D02*
X109124680Y-107607545D01*
X109124680Y-107607545D02*
X109077061Y-107559926D01*
X109077061Y-107559926D02*
X109124680Y-107512307D01*
X109124680Y-107512307D02*
X109124680Y-107607545D01*
X108791347Y-107845640D02*
X108410395Y-107845640D01*
X108648490Y-107512307D02*
X108648490Y-108369449D01*
X108648490Y-108369449D02*
X108600871Y-108464688D01*
X108600871Y-108464688D02*
X108505633Y-108512307D01*
X108505633Y-108512307D02*
X108410395Y-108512307D01*
X107696109Y-108464688D02*
X107791347Y-108512307D01*
X107791347Y-108512307D02*
X107981823Y-108512307D01*
X107981823Y-108512307D02*
X108077061Y-108464688D01*
X108077061Y-108464688D02*
X108124680Y-108369449D01*
X108124680Y-108369449D02*
X108124680Y-107988497D01*
X108124680Y-107988497D02*
X108077061Y-107893259D01*
X108077061Y-107893259D02*
X107981823Y-107845640D01*
X107981823Y-107845640D02*
X107791347Y-107845640D01*
X107791347Y-107845640D02*
X107696109Y-107893259D01*
X107696109Y-107893259D02*
X107648490Y-107988497D01*
X107648490Y-107988497D02*
X107648490Y-108083735D01*
X107648490Y-108083735D02*
X108124680Y-108178973D01*
X106791347Y-108464688D02*
X106886585Y-108512307D01*
X106886585Y-108512307D02*
X107077061Y-108512307D01*
X107077061Y-108512307D02*
X107172299Y-108464688D01*
X107172299Y-108464688D02*
X107219918Y-108417068D01*
X107219918Y-108417068D02*
X107267537Y-108321830D01*
X107267537Y-108321830D02*
X107267537Y-108036116D01*
X107267537Y-108036116D02*
X107219918Y-107940878D01*
X107219918Y-107940878D02*
X107172299Y-107893259D01*
X107172299Y-107893259D02*
X107077061Y-107845640D01*
X107077061Y-107845640D02*
X106886585Y-107845640D01*
X106886585Y-107845640D02*
X106791347Y-107893259D01*
X106505632Y-107845640D02*
X106124680Y-107845640D01*
X106362775Y-107512307D02*
X106362775Y-108369449D01*
X106362775Y-108369449D02*
X106315156Y-108464688D01*
X106315156Y-108464688D02*
X106219918Y-108512307D01*
X106219918Y-108512307D02*
X106124680Y-108512307D01*
X105362775Y-107845640D02*
X105362775Y-108512307D01*
X105791346Y-107845640D02*
X105791346Y-108369449D01*
X105791346Y-108369449D02*
X105743727Y-108464688D01*
X105743727Y-108464688D02*
X105648489Y-108512307D01*
X105648489Y-108512307D02*
X105505632Y-108512307D01*
X105505632Y-108512307D02*
X105410394Y-108464688D01*
X105410394Y-108464688D02*
X105362775Y-108417068D01*
X104886584Y-108512307D02*
X104886584Y-107845640D01*
X104886584Y-108036116D02*
X104838965Y-107940878D01*
X104838965Y-107940878D02*
X104791346Y-107893259D01*
X104791346Y-107893259D02*
X104696108Y-107845640D01*
X104696108Y-107845640D02*
X104600870Y-107845640D01*
X103886584Y-108464688D02*
X103981822Y-108512307D01*
X103981822Y-108512307D02*
X104172298Y-108512307D01*
X104172298Y-108512307D02*
X104267536Y-108464688D01*
X104267536Y-108464688D02*
X104315155Y-108369449D01*
X104315155Y-108369449D02*
X104315155Y-107988497D01*
X104315155Y-107988497D02*
X104267536Y-107893259D01*
X104267536Y-107893259D02*
X104172298Y-107845640D01*
X104172298Y-107845640D02*
X103981822Y-107845640D01*
X103981822Y-107845640D02*
X103886584Y-107893259D01*
X103886584Y-107893259D02*
X103838965Y-107988497D01*
X103838965Y-107988497D02*
X103838965Y-108083735D01*
X103838965Y-108083735D02*
X104315155Y-108178973D01*
X103410393Y-108417068D02*
X103362774Y-108464688D01*
X103362774Y-108464688D02*
X103410393Y-108512307D01*
X103410393Y-108512307D02*
X103458012Y-108464688D01*
X103458012Y-108464688D02*
X103410393Y-108417068D01*
X103410393Y-108417068D02*
X103410393Y-108512307D01*
X146743734Y-110074632D02*
X146600877Y-110122251D01*
X146600877Y-110122251D02*
X146362782Y-110122251D01*
X146362782Y-110122251D02*
X146267544Y-110074632D01*
X146267544Y-110074632D02*
X146219925Y-110027012D01*
X146219925Y-110027012D02*
X146172306Y-109931774D01*
X146172306Y-109931774D02*
X146172306Y-109836536D01*
X146172306Y-109836536D02*
X146219925Y-109741298D01*
X146219925Y-109741298D02*
X146267544Y-109693679D01*
X146267544Y-109693679D02*
X146362782Y-109646060D01*
X146362782Y-109646060D02*
X146553258Y-109598441D01*
X146553258Y-109598441D02*
X146648496Y-109550822D01*
X146648496Y-109550822D02*
X146696115Y-109503203D01*
X146696115Y-109503203D02*
X146743734Y-109407965D01*
X146743734Y-109407965D02*
X146743734Y-109312727D01*
X146743734Y-109312727D02*
X146696115Y-109217489D01*
X146696115Y-109217489D02*
X146648496Y-109169870D01*
X146648496Y-109169870D02*
X146553258Y-109122251D01*
X146553258Y-109122251D02*
X146315163Y-109122251D01*
X146315163Y-109122251D02*
X146172306Y-109169870D01*
X145886591Y-109455584D02*
X145505639Y-109455584D01*
X145743734Y-109122251D02*
X145743734Y-109979393D01*
X145743734Y-109979393D02*
X145696115Y-110074632D01*
X145696115Y-110074632D02*
X145600877Y-110122251D01*
X145600877Y-110122251D02*
X145505639Y-110122251D01*
X145029448Y-110122251D02*
X145124686Y-110074632D01*
X145124686Y-110074632D02*
X145172305Y-110027012D01*
X145172305Y-110027012D02*
X145219924Y-109931774D01*
X145219924Y-109931774D02*
X145219924Y-109646060D01*
X145219924Y-109646060D02*
X145172305Y-109550822D01*
X145172305Y-109550822D02*
X145124686Y-109503203D01*
X145124686Y-109503203D02*
X145029448Y-109455584D01*
X145029448Y-109455584D02*
X144886591Y-109455584D01*
X144886591Y-109455584D02*
X144791353Y-109503203D01*
X144791353Y-109503203D02*
X144743734Y-109550822D01*
X144743734Y-109550822D02*
X144696115Y-109646060D01*
X144696115Y-109646060D02*
X144696115Y-109931774D01*
X144696115Y-109931774D02*
X144743734Y-110027012D01*
X144743734Y-110027012D02*
X144791353Y-110074632D01*
X144791353Y-110074632D02*
X144886591Y-110122251D01*
X144886591Y-110122251D02*
X145029448Y-110122251D01*
X144267543Y-110122251D02*
X144267543Y-109455584D01*
X144267543Y-109646060D02*
X144219924Y-109550822D01*
X144219924Y-109550822D02*
X144172305Y-109503203D01*
X144172305Y-109503203D02*
X144077067Y-109455584D01*
X144077067Y-109455584D02*
X143981829Y-109455584D01*
X143267543Y-110074632D02*
X143362781Y-110122251D01*
X143362781Y-110122251D02*
X143553257Y-110122251D01*
X143553257Y-110122251D02*
X143648495Y-110074632D01*
X143648495Y-110074632D02*
X143696114Y-109979393D01*
X143696114Y-109979393D02*
X143696114Y-109598441D01*
X143696114Y-109598441D02*
X143648495Y-109503203D01*
X143648495Y-109503203D02*
X143553257Y-109455584D01*
X143553257Y-109455584D02*
X143362781Y-109455584D01*
X143362781Y-109455584D02*
X143267543Y-109503203D01*
X143267543Y-109503203D02*
X143219924Y-109598441D01*
X143219924Y-109598441D02*
X143219924Y-109693679D01*
X143219924Y-109693679D02*
X143696114Y-109788917D01*
X142362781Y-110122251D02*
X142362781Y-109122251D01*
X142362781Y-110074632D02*
X142458019Y-110122251D01*
X142458019Y-110122251D02*
X142648495Y-110122251D01*
X142648495Y-110122251D02*
X142743733Y-110074632D01*
X142743733Y-110074632D02*
X142791352Y-110027012D01*
X142791352Y-110027012D02*
X142838971Y-109931774D01*
X142838971Y-109931774D02*
X142838971Y-109646060D01*
X142838971Y-109646060D02*
X142791352Y-109550822D01*
X142791352Y-109550822D02*
X142743733Y-109503203D01*
X142743733Y-109503203D02*
X142648495Y-109455584D01*
X142648495Y-109455584D02*
X142458019Y-109455584D01*
X142458019Y-109455584D02*
X142362781Y-109503203D01*
X141219923Y-109455584D02*
X140981828Y-110122251D01*
X140981828Y-110122251D02*
X140743733Y-109455584D01*
X139934209Y-110122251D02*
X139934209Y-109598441D01*
X139934209Y-109598441D02*
X139981828Y-109503203D01*
X139981828Y-109503203D02*
X140077066Y-109455584D01*
X140077066Y-109455584D02*
X140267542Y-109455584D01*
X140267542Y-109455584D02*
X140362780Y-109503203D01*
X139934209Y-110074632D02*
X140029447Y-110122251D01*
X140029447Y-110122251D02*
X140267542Y-110122251D01*
X140267542Y-110122251D02*
X140362780Y-110074632D01*
X140362780Y-110074632D02*
X140410399Y-109979393D01*
X140410399Y-109979393D02*
X140410399Y-109884155D01*
X140410399Y-109884155D02*
X140362780Y-109788917D01*
X140362780Y-109788917D02*
X140267542Y-109741298D01*
X140267542Y-109741298D02*
X140029447Y-109741298D01*
X140029447Y-109741298D02*
X139934209Y-109693679D01*
X139315161Y-110122251D02*
X139410399Y-110074632D01*
X139410399Y-110074632D02*
X139458018Y-109979393D01*
X139458018Y-109979393D02*
X139458018Y-109122251D01*
X138505637Y-109455584D02*
X138505637Y-110122251D01*
X138934208Y-109455584D02*
X138934208Y-109979393D01*
X138934208Y-109979393D02*
X138886589Y-110074632D01*
X138886589Y-110074632D02*
X138791351Y-110122251D01*
X138791351Y-110122251D02*
X138648494Y-110122251D01*
X138648494Y-110122251D02*
X138553256Y-110074632D01*
X138553256Y-110074632D02*
X138505637Y-110027012D01*
X137648494Y-110074632D02*
X137743732Y-110122251D01*
X137743732Y-110122251D02*
X137934208Y-110122251D01*
X137934208Y-110122251D02*
X138029446Y-110074632D01*
X138029446Y-110074632D02*
X138077065Y-109979393D01*
X138077065Y-109979393D02*
X138077065Y-109598441D01*
X138077065Y-109598441D02*
X138029446Y-109503203D01*
X138029446Y-109503203D02*
X137934208Y-109455584D01*
X137934208Y-109455584D02*
X137743732Y-109455584D01*
X137743732Y-109455584D02*
X137648494Y-109503203D01*
X137648494Y-109503203D02*
X137600875Y-109598441D01*
X137600875Y-109598441D02*
X137600875Y-109693679D01*
X137600875Y-109693679D02*
X138077065Y-109788917D01*
X137219922Y-110074632D02*
X137124684Y-110122251D01*
X137124684Y-110122251D02*
X136934208Y-110122251D01*
X136934208Y-110122251D02*
X136838970Y-110074632D01*
X136838970Y-110074632D02*
X136791351Y-109979393D01*
X136791351Y-109979393D02*
X136791351Y-109931774D01*
X136791351Y-109931774D02*
X136838970Y-109836536D01*
X136838970Y-109836536D02*
X136934208Y-109788917D01*
X136934208Y-109788917D02*
X137077065Y-109788917D01*
X137077065Y-109788917D02*
X137172303Y-109741298D01*
X137172303Y-109741298D02*
X137219922Y-109646060D01*
X137219922Y-109646060D02*
X137219922Y-109598441D01*
X137219922Y-109598441D02*
X137172303Y-109503203D01*
X137172303Y-109503203D02*
X137077065Y-109455584D01*
X137077065Y-109455584D02*
X136934208Y-109455584D01*
X136934208Y-109455584D02*
X136838970Y-109503203D01*
X135172303Y-110122251D02*
X135172303Y-109598441D01*
X135172303Y-109598441D02*
X135219922Y-109503203D01*
X135219922Y-109503203D02*
X135315160Y-109455584D01*
X135315160Y-109455584D02*
X135505636Y-109455584D01*
X135505636Y-109455584D02*
X135600874Y-109503203D01*
X135172303Y-110074632D02*
X135267541Y-110122251D01*
X135267541Y-110122251D02*
X135505636Y-110122251D01*
X135505636Y-110122251D02*
X135600874Y-110074632D01*
X135600874Y-110074632D02*
X135648493Y-109979393D01*
X135648493Y-109979393D02*
X135648493Y-109884155D01*
X135648493Y-109884155D02*
X135600874Y-109788917D01*
X135600874Y-109788917D02*
X135505636Y-109741298D01*
X135505636Y-109741298D02*
X135267541Y-109741298D01*
X135267541Y-109741298D02*
X135172303Y-109693679D01*
X134696112Y-110122251D02*
X134696112Y-109455584D01*
X134696112Y-109646060D02*
X134648493Y-109550822D01*
X134648493Y-109550822D02*
X134600874Y-109503203D01*
X134600874Y-109503203D02*
X134505636Y-109455584D01*
X134505636Y-109455584D02*
X134410398Y-109455584D01*
X133696112Y-110074632D02*
X133791350Y-110122251D01*
X133791350Y-110122251D02*
X133981826Y-110122251D01*
X133981826Y-110122251D02*
X134077064Y-110074632D01*
X134077064Y-110074632D02*
X134124683Y-109979393D01*
X134124683Y-109979393D02*
X134124683Y-109598441D01*
X134124683Y-109598441D02*
X134077064Y-109503203D01*
X134077064Y-109503203D02*
X133981826Y-109455584D01*
X133981826Y-109455584D02*
X133791350Y-109455584D01*
X133791350Y-109455584D02*
X133696112Y-109503203D01*
X133696112Y-109503203D02*
X133648493Y-109598441D01*
X133648493Y-109598441D02*
X133648493Y-109693679D01*
X133648493Y-109693679D02*
X134124683Y-109788917D01*
X132077064Y-110074632D02*
X132172302Y-110122251D01*
X132172302Y-110122251D02*
X132362778Y-110122251D01*
X132362778Y-110122251D02*
X132458016Y-110074632D01*
X132458016Y-110074632D02*
X132505635Y-109979393D01*
X132505635Y-109979393D02*
X132505635Y-109598441D01*
X132505635Y-109598441D02*
X132458016Y-109503203D01*
X132458016Y-109503203D02*
X132362778Y-109455584D01*
X132362778Y-109455584D02*
X132172302Y-109455584D01*
X132172302Y-109455584D02*
X132077064Y-109503203D01*
X132077064Y-109503203D02*
X132029445Y-109598441D01*
X132029445Y-109598441D02*
X132029445Y-109693679D01*
X132029445Y-109693679D02*
X132505635Y-109788917D01*
X131600873Y-110122251D02*
X131600873Y-109455584D01*
X131600873Y-109122251D02*
X131648492Y-109169870D01*
X131648492Y-109169870D02*
X131600873Y-109217489D01*
X131600873Y-109217489D02*
X131553254Y-109169870D01*
X131553254Y-109169870D02*
X131600873Y-109122251D01*
X131600873Y-109122251D02*
X131600873Y-109217489D01*
X130696112Y-109455584D02*
X130696112Y-110265108D01*
X130696112Y-110265108D02*
X130743731Y-110360346D01*
X130743731Y-110360346D02*
X130791350Y-110407965D01*
X130791350Y-110407965D02*
X130886588Y-110455584D01*
X130886588Y-110455584D02*
X131029445Y-110455584D01*
X131029445Y-110455584D02*
X131124683Y-110407965D01*
X130696112Y-110074632D02*
X130791350Y-110122251D01*
X130791350Y-110122251D02*
X130981826Y-110122251D01*
X130981826Y-110122251D02*
X131077064Y-110074632D01*
X131077064Y-110074632D02*
X131124683Y-110027012D01*
X131124683Y-110027012D02*
X131172302Y-109931774D01*
X131172302Y-109931774D02*
X131172302Y-109646060D01*
X131172302Y-109646060D02*
X131124683Y-109550822D01*
X131124683Y-109550822D02*
X131077064Y-109503203D01*
X131077064Y-109503203D02*
X130981826Y-109455584D01*
X130981826Y-109455584D02*
X130791350Y-109455584D01*
X130791350Y-109455584D02*
X130696112Y-109503203D01*
X130219921Y-110122251D02*
X130219921Y-109122251D01*
X129791350Y-110122251D02*
X129791350Y-109598441D01*
X129791350Y-109598441D02*
X129838969Y-109503203D01*
X129838969Y-109503203D02*
X129934207Y-109455584D01*
X129934207Y-109455584D02*
X130077064Y-109455584D01*
X130077064Y-109455584D02*
X130172302Y-109503203D01*
X130172302Y-109503203D02*
X130219921Y-109550822D01*
X129458016Y-109455584D02*
X129077064Y-109455584D01*
X129315159Y-109122251D02*
X129315159Y-109979393D01*
X129315159Y-109979393D02*
X129267540Y-110074632D01*
X129267540Y-110074632D02*
X129172302Y-110122251D01*
X129172302Y-110122251D02*
X129077064Y-110122251D01*
X127981825Y-110122251D02*
X127981825Y-109122251D01*
X127981825Y-109503203D02*
X127886587Y-109455584D01*
X127886587Y-109455584D02*
X127696111Y-109455584D01*
X127696111Y-109455584D02*
X127600873Y-109503203D01*
X127600873Y-109503203D02*
X127553254Y-109550822D01*
X127553254Y-109550822D02*
X127505635Y-109646060D01*
X127505635Y-109646060D02*
X127505635Y-109931774D01*
X127505635Y-109931774D02*
X127553254Y-110027012D01*
X127553254Y-110027012D02*
X127600873Y-110074632D01*
X127600873Y-110074632D02*
X127696111Y-110122251D01*
X127696111Y-110122251D02*
X127886587Y-110122251D01*
X127886587Y-110122251D02*
X127981825Y-110074632D01*
X127077063Y-110122251D02*
X127077063Y-109455584D01*
X127077063Y-109122251D02*
X127124682Y-109169870D01*
X127124682Y-109169870D02*
X127077063Y-109217489D01*
X127077063Y-109217489D02*
X127029444Y-109169870D01*
X127029444Y-109169870D02*
X127077063Y-109122251D01*
X127077063Y-109122251D02*
X127077063Y-109217489D01*
X126743730Y-109455584D02*
X126362778Y-109455584D01*
X126600873Y-109122251D02*
X126600873Y-109979393D01*
X126600873Y-109979393D02*
X126553254Y-110074632D01*
X126553254Y-110074632D02*
X126458016Y-110122251D01*
X126458016Y-110122251D02*
X126362778Y-110122251D01*
X126077063Y-110074632D02*
X125981825Y-110122251D01*
X125981825Y-110122251D02*
X125791349Y-110122251D01*
X125791349Y-110122251D02*
X125696111Y-110074632D01*
X125696111Y-110074632D02*
X125648492Y-109979393D01*
X125648492Y-109979393D02*
X125648492Y-109931774D01*
X125648492Y-109931774D02*
X125696111Y-109836536D01*
X125696111Y-109836536D02*
X125791349Y-109788917D01*
X125791349Y-109788917D02*
X125934206Y-109788917D01*
X125934206Y-109788917D02*
X126029444Y-109741298D01*
X126029444Y-109741298D02*
X126077063Y-109646060D01*
X126077063Y-109646060D02*
X126077063Y-109598441D01*
X126077063Y-109598441D02*
X126029444Y-109503203D01*
X126029444Y-109503203D02*
X125934206Y-109455584D01*
X125934206Y-109455584D02*
X125791349Y-109455584D01*
X125791349Y-109455584D02*
X125696111Y-109503203D01*
X124029444Y-110122251D02*
X124029444Y-109598441D01*
X124029444Y-109598441D02*
X124077063Y-109503203D01*
X124077063Y-109503203D02*
X124172301Y-109455584D01*
X124172301Y-109455584D02*
X124362777Y-109455584D01*
X124362777Y-109455584D02*
X124458015Y-109503203D01*
X124029444Y-110074632D02*
X124124682Y-110122251D01*
X124124682Y-110122251D02*
X124362777Y-110122251D01*
X124362777Y-110122251D02*
X124458015Y-110074632D01*
X124458015Y-110074632D02*
X124505634Y-109979393D01*
X124505634Y-109979393D02*
X124505634Y-109884155D01*
X124505634Y-109884155D02*
X124458015Y-109788917D01*
X124458015Y-109788917D02*
X124362777Y-109741298D01*
X124362777Y-109741298D02*
X124124682Y-109741298D01*
X124124682Y-109741298D02*
X124029444Y-109693679D01*
X123553253Y-109455584D02*
X123553253Y-110122251D01*
X123553253Y-109550822D02*
X123505634Y-109503203D01*
X123505634Y-109503203D02*
X123410396Y-109455584D01*
X123410396Y-109455584D02*
X123267539Y-109455584D01*
X123267539Y-109455584D02*
X123172301Y-109503203D01*
X123172301Y-109503203D02*
X123124682Y-109598441D01*
X123124682Y-109598441D02*
X123124682Y-110122251D01*
X122219920Y-110122251D02*
X122219920Y-109122251D01*
X122219920Y-110074632D02*
X122315158Y-110122251D01*
X122315158Y-110122251D02*
X122505634Y-110122251D01*
X122505634Y-110122251D02*
X122600872Y-110074632D01*
X122600872Y-110074632D02*
X122648491Y-110027012D01*
X122648491Y-110027012D02*
X122696110Y-109931774D01*
X122696110Y-109931774D02*
X122696110Y-109646060D01*
X122696110Y-109646060D02*
X122648491Y-109550822D01*
X122648491Y-109550822D02*
X122600872Y-109503203D01*
X122600872Y-109503203D02*
X122505634Y-109455584D01*
X122505634Y-109455584D02*
X122315158Y-109455584D01*
X122315158Y-109455584D02*
X122219920Y-109503203D01*
X120553253Y-110122251D02*
X120553253Y-109598441D01*
X120553253Y-109598441D02*
X120600872Y-109503203D01*
X120600872Y-109503203D02*
X120696110Y-109455584D01*
X120696110Y-109455584D02*
X120886586Y-109455584D01*
X120886586Y-109455584D02*
X120981824Y-109503203D01*
X120553253Y-110074632D02*
X120648491Y-110122251D01*
X120648491Y-110122251D02*
X120886586Y-110122251D01*
X120886586Y-110122251D02*
X120981824Y-110074632D01*
X120981824Y-110074632D02*
X121029443Y-109979393D01*
X121029443Y-109979393D02*
X121029443Y-109884155D01*
X121029443Y-109884155D02*
X120981824Y-109788917D01*
X120981824Y-109788917D02*
X120886586Y-109741298D01*
X120886586Y-109741298D02*
X120648491Y-109741298D01*
X120648491Y-109741298D02*
X120553253Y-109693679D01*
X120077062Y-110122251D02*
X120077062Y-109455584D01*
X120077062Y-109646060D02*
X120029443Y-109550822D01*
X120029443Y-109550822D02*
X119981824Y-109503203D01*
X119981824Y-109503203D02*
X119886586Y-109455584D01*
X119886586Y-109455584D02*
X119791348Y-109455584D01*
X119077062Y-110074632D02*
X119172300Y-110122251D01*
X119172300Y-110122251D02*
X119362776Y-110122251D01*
X119362776Y-110122251D02*
X119458014Y-110074632D01*
X119458014Y-110074632D02*
X119505633Y-109979393D01*
X119505633Y-109979393D02*
X119505633Y-109598441D01*
X119505633Y-109598441D02*
X119458014Y-109503203D01*
X119458014Y-109503203D02*
X119362776Y-109455584D01*
X119362776Y-109455584D02*
X119172300Y-109455584D01*
X119172300Y-109455584D02*
X119077062Y-109503203D01*
X119077062Y-109503203D02*
X119029443Y-109598441D01*
X119029443Y-109598441D02*
X119029443Y-109693679D01*
X119029443Y-109693679D02*
X119505633Y-109788917D01*
X117410395Y-110074632D02*
X117505633Y-110122251D01*
X117505633Y-110122251D02*
X117696109Y-110122251D01*
X117696109Y-110122251D02*
X117791347Y-110074632D01*
X117791347Y-110074632D02*
X117838966Y-110027012D01*
X117838966Y-110027012D02*
X117886585Y-109931774D01*
X117886585Y-109931774D02*
X117886585Y-109646060D01*
X117886585Y-109646060D02*
X117838966Y-109550822D01*
X117838966Y-109550822D02*
X117791347Y-109503203D01*
X117791347Y-109503203D02*
X117696109Y-109455584D01*
X117696109Y-109455584D02*
X117505633Y-109455584D01*
X117505633Y-109455584D02*
X117410395Y-109503203D01*
X116553252Y-110122251D02*
X116553252Y-109598441D01*
X116553252Y-109598441D02*
X116600871Y-109503203D01*
X116600871Y-109503203D02*
X116696109Y-109455584D01*
X116696109Y-109455584D02*
X116886585Y-109455584D01*
X116886585Y-109455584D02*
X116981823Y-109503203D01*
X116553252Y-110074632D02*
X116648490Y-110122251D01*
X116648490Y-110122251D02*
X116886585Y-110122251D01*
X116886585Y-110122251D02*
X116981823Y-110074632D01*
X116981823Y-110074632D02*
X117029442Y-109979393D01*
X117029442Y-109979393D02*
X117029442Y-109884155D01*
X117029442Y-109884155D02*
X116981823Y-109788917D01*
X116981823Y-109788917D02*
X116886585Y-109741298D01*
X116886585Y-109741298D02*
X116648490Y-109741298D01*
X116648490Y-109741298D02*
X116553252Y-109693679D01*
X115934204Y-110122251D02*
X116029442Y-110074632D01*
X116029442Y-110074632D02*
X116077061Y-109979393D01*
X116077061Y-109979393D02*
X116077061Y-109122251D01*
X115410394Y-110122251D02*
X115505632Y-110074632D01*
X115505632Y-110074632D02*
X115553251Y-109979393D01*
X115553251Y-109979393D02*
X115553251Y-109122251D01*
X114648489Y-110074632D02*
X114743727Y-110122251D01*
X114743727Y-110122251D02*
X114934203Y-110122251D01*
X114934203Y-110122251D02*
X115029441Y-110074632D01*
X115029441Y-110074632D02*
X115077060Y-109979393D01*
X115077060Y-109979393D02*
X115077060Y-109598441D01*
X115077060Y-109598441D02*
X115029441Y-109503203D01*
X115029441Y-109503203D02*
X114934203Y-109455584D01*
X114934203Y-109455584D02*
X114743727Y-109455584D01*
X114743727Y-109455584D02*
X114648489Y-109503203D01*
X114648489Y-109503203D02*
X114600870Y-109598441D01*
X114600870Y-109598441D02*
X114600870Y-109693679D01*
X114600870Y-109693679D02*
X115077060Y-109788917D01*
X113743727Y-110122251D02*
X113743727Y-109122251D01*
X113743727Y-110074632D02*
X113838965Y-110122251D01*
X113838965Y-110122251D02*
X114029441Y-110122251D01*
X114029441Y-110122251D02*
X114124679Y-110074632D01*
X114124679Y-110074632D02*
X114172298Y-110027012D01*
X114172298Y-110027012D02*
X114219917Y-109931774D01*
X114219917Y-109931774D02*
X114219917Y-109646060D01*
X114219917Y-109646060D02*
X114172298Y-109550822D01*
X114172298Y-109550822D02*
X114124679Y-109503203D01*
X114124679Y-109503203D02*
X114029441Y-109455584D01*
X114029441Y-109455584D02*
X113838965Y-109455584D01*
X113838965Y-109455584D02*
X113743727Y-109503203D01*
X112600869Y-109455584D02*
X112410393Y-110122251D01*
X112410393Y-110122251D02*
X112219917Y-109646060D01*
X112219917Y-109646060D02*
X112029441Y-110122251D01*
X112029441Y-110122251D02*
X111838965Y-109455584D01*
X111315155Y-110122251D02*
X111410393Y-110074632D01*
X111410393Y-110074632D02*
X111458012Y-110027012D01*
X111458012Y-110027012D02*
X111505631Y-109931774D01*
X111505631Y-109931774D02*
X111505631Y-109646060D01*
X111505631Y-109646060D02*
X111458012Y-109550822D01*
X111458012Y-109550822D02*
X111410393Y-109503203D01*
X111410393Y-109503203D02*
X111315155Y-109455584D01*
X111315155Y-109455584D02*
X111172298Y-109455584D01*
X111172298Y-109455584D02*
X111077060Y-109503203D01*
X111077060Y-109503203D02*
X111029441Y-109550822D01*
X111029441Y-109550822D02*
X110981822Y-109646060D01*
X110981822Y-109646060D02*
X110981822Y-109931774D01*
X110981822Y-109931774D02*
X111029441Y-110027012D01*
X111029441Y-110027012D02*
X111077060Y-110074632D01*
X111077060Y-110074632D02*
X111172298Y-110122251D01*
X111172298Y-110122251D02*
X111315155Y-110122251D01*
X110553250Y-110122251D02*
X110553250Y-109455584D01*
X110553250Y-109646060D02*
X110505631Y-109550822D01*
X110505631Y-109550822D02*
X110458012Y-109503203D01*
X110458012Y-109503203D02*
X110362774Y-109455584D01*
X110362774Y-109455584D02*
X110267536Y-109455584D01*
X109505631Y-110122251D02*
X109505631Y-109122251D01*
X109505631Y-110074632D02*
X109600869Y-110122251D01*
X109600869Y-110122251D02*
X109791345Y-110122251D01*
X109791345Y-110122251D02*
X109886583Y-110074632D01*
X109886583Y-110074632D02*
X109934202Y-110027012D01*
X109934202Y-110027012D02*
X109981821Y-109931774D01*
X109981821Y-109931774D02*
X109981821Y-109646060D01*
X109981821Y-109646060D02*
X109934202Y-109550822D01*
X109934202Y-109550822D02*
X109886583Y-109503203D01*
X109886583Y-109503203D02*
X109791345Y-109455584D01*
X109791345Y-109455584D02*
X109600869Y-109455584D01*
X109600869Y-109455584D02*
X109505631Y-109503203D01*
X109077059Y-110074632D02*
X108981821Y-110122251D01*
X108981821Y-110122251D02*
X108791345Y-110122251D01*
X108791345Y-110122251D02*
X108696107Y-110074632D01*
X108696107Y-110074632D02*
X108648488Y-109979393D01*
X108648488Y-109979393D02*
X108648488Y-109931774D01*
X108648488Y-109931774D02*
X108696107Y-109836536D01*
X108696107Y-109836536D02*
X108791345Y-109788917D01*
X108791345Y-109788917D02*
X108934202Y-109788917D01*
X108934202Y-109788917D02*
X109029440Y-109741298D01*
X109029440Y-109741298D02*
X109077059Y-109646060D01*
X109077059Y-109646060D02*
X109077059Y-109598441D01*
X109077059Y-109598441D02*
X109029440Y-109503203D01*
X109029440Y-109503203D02*
X108934202Y-109455584D01*
X108934202Y-109455584D02*
X108791345Y-109455584D01*
X108791345Y-109455584D02*
X108696107Y-109503203D01*
X108219916Y-110027012D02*
X108172297Y-110074632D01*
X108172297Y-110074632D02*
X108219916Y-110122251D01*
X108219916Y-110122251D02*
X108267535Y-110074632D01*
X108267535Y-110074632D02*
X108219916Y-110027012D01*
X108219916Y-110027012D02*
X108219916Y-110122251D01*
D11*
X145909774Y-103305828D02*
X146766917Y-103305828D01*
X146338346Y-103305828D02*
X146338346Y-101805828D01*
X146338346Y-101805828D02*
X146481203Y-102020114D01*
X146481203Y-102020114D02*
X146624060Y-102162971D01*
X146624060Y-102162971D02*
X146766917Y-102234400D01*
X144624061Y-101805828D02*
X144909775Y-101805828D01*
X144909775Y-101805828D02*
X145052632Y-101877257D01*
X145052632Y-101877257D02*
X145124061Y-101948685D01*
X145124061Y-101948685D02*
X145266918Y-102162971D01*
X145266918Y-102162971D02*
X145338346Y-102448685D01*
X145338346Y-102448685D02*
X145338346Y-103020114D01*
X145338346Y-103020114D02*
X145266918Y-103162971D01*
X145266918Y-103162971D02*
X145195489Y-103234400D01*
X145195489Y-103234400D02*
X145052632Y-103305828D01*
X145052632Y-103305828D02*
X144766918Y-103305828D01*
X144766918Y-103305828D02*
X144624061Y-103234400D01*
X144624061Y-103234400D02*
X144552632Y-103162971D01*
X144552632Y-103162971D02*
X144481203Y-103020114D01*
X144481203Y-103020114D02*
X144481203Y-102662971D01*
X144481203Y-102662971D02*
X144552632Y-102520114D01*
X144552632Y-102520114D02*
X144624061Y-102448685D01*
X144624061Y-102448685D02*
X144766918Y-102377257D01*
X144766918Y-102377257D02*
X145052632Y-102377257D01*
X145052632Y-102377257D02*
X145195489Y-102448685D01*
X145195489Y-102448685D02*
X145266918Y-102520114D01*
X145266918Y-102520114D02*
X145338346Y-102662971D01*
X143981204Y-103305828D02*
X143195490Y-102305828D01*
X143981204Y-102305828D02*
X143195490Y-103305828D01*
X142409775Y-102448685D02*
X142552632Y-102377257D01*
X142552632Y-102377257D02*
X142624061Y-102305828D01*
X142624061Y-102305828D02*
X142695489Y-102162971D01*
X142695489Y-102162971D02*
X142695489Y-102091542D01*
X142695489Y-102091542D02*
X142624061Y-101948685D01*
X142624061Y-101948685D02*
X142552632Y-101877257D01*
X142552632Y-101877257D02*
X142409775Y-101805828D01*
X142409775Y-101805828D02*
X142124061Y-101805828D01*
X142124061Y-101805828D02*
X141981204Y-101877257D01*
X141981204Y-101877257D02*
X141909775Y-101948685D01*
X141909775Y-101948685D02*
X141838346Y-102091542D01*
X141838346Y-102091542D02*
X141838346Y-102162971D01*
X141838346Y-102162971D02*
X141909775Y-102305828D01*
X141909775Y-102305828D02*
X141981204Y-102377257D01*
X141981204Y-102377257D02*
X142124061Y-102448685D01*
X142124061Y-102448685D02*
X142409775Y-102448685D01*
X142409775Y-102448685D02*
X142552632Y-102520114D01*
X142552632Y-102520114D02*
X142624061Y-102591542D01*
X142624061Y-102591542D02*
X142695489Y-102734400D01*
X142695489Y-102734400D02*
X142695489Y-103020114D01*
X142695489Y-103020114D02*
X142624061Y-103162971D01*
X142624061Y-103162971D02*
X142552632Y-103234400D01*
X142552632Y-103234400D02*
X142409775Y-103305828D01*
X142409775Y-103305828D02*
X142124061Y-103305828D01*
X142124061Y-103305828D02*
X141981204Y-103234400D01*
X141981204Y-103234400D02*
X141909775Y-103162971D01*
X141909775Y-103162971D02*
X141838346Y-103020114D01*
X141838346Y-103020114D02*
X141838346Y-102734400D01*
X141838346Y-102734400D02*
X141909775Y-102591542D01*
X141909775Y-102591542D02*
X141981204Y-102520114D01*
X141981204Y-102520114D02*
X142124061Y-102448685D01*
X139195490Y-103305828D02*
X139695490Y-102591542D01*
X140052633Y-103305828D02*
X140052633Y-101805828D01*
X140052633Y-101805828D02*
X139481204Y-101805828D01*
X139481204Y-101805828D02*
X139338347Y-101877257D01*
X139338347Y-101877257D02*
X139266918Y-101948685D01*
X139266918Y-101948685D02*
X139195490Y-102091542D01*
X139195490Y-102091542D02*
X139195490Y-102305828D01*
X139195490Y-102305828D02*
X139266918Y-102448685D01*
X139266918Y-102448685D02*
X139338347Y-102520114D01*
X139338347Y-102520114D02*
X139481204Y-102591542D01*
X139481204Y-102591542D02*
X140052633Y-102591542D01*
X138624061Y-102877257D02*
X137909776Y-102877257D01*
X138766918Y-103305828D02*
X138266918Y-101805828D01*
X138266918Y-101805828D02*
X137766918Y-103305828D01*
X137266919Y-103305828D02*
X137266919Y-101805828D01*
X137266919Y-101805828D02*
X136766919Y-102877257D01*
X136766919Y-102877257D02*
X136266919Y-101805828D01*
X136266919Y-101805828D02*
X136266919Y-103305828D01*
X134409776Y-103305828D02*
X134409776Y-101805828D01*
X134409776Y-101805828D02*
X133909776Y-102877257D01*
X133909776Y-102877257D02*
X133409776Y-101805828D01*
X133409776Y-101805828D02*
X133409776Y-103305828D01*
X132695490Y-102520114D02*
X132195490Y-102520114D01*
X131981204Y-103305828D02*
X132695490Y-103305828D01*
X132695490Y-103305828D02*
X132695490Y-101805828D01*
X132695490Y-101805828D02*
X131981204Y-101805828D01*
X131338347Y-103305828D02*
X131338347Y-101805828D01*
X131338347Y-101805828D02*
X130838347Y-102877257D01*
X130838347Y-102877257D02*
X130338347Y-101805828D01*
X130338347Y-101805828D02*
X130338347Y-103305828D01*
X129338346Y-101805828D02*
X129052632Y-101805828D01*
X129052632Y-101805828D02*
X128909775Y-101877257D01*
X128909775Y-101877257D02*
X128766918Y-102020114D01*
X128766918Y-102020114D02*
X128695489Y-102305828D01*
X128695489Y-102305828D02*
X128695489Y-102805828D01*
X128695489Y-102805828D02*
X128766918Y-103091542D01*
X128766918Y-103091542D02*
X128909775Y-103234400D01*
X128909775Y-103234400D02*
X129052632Y-103305828D01*
X129052632Y-103305828D02*
X129338346Y-103305828D01*
X129338346Y-103305828D02*
X129481204Y-103234400D01*
X129481204Y-103234400D02*
X129624061Y-103091542D01*
X129624061Y-103091542D02*
X129695489Y-102805828D01*
X129695489Y-102805828D02*
X129695489Y-102305828D01*
X129695489Y-102305828D02*
X129624061Y-102020114D01*
X129624061Y-102020114D02*
X129481204Y-101877257D01*
X129481204Y-101877257D02*
X129338346Y-101805828D01*
X127195489Y-103305828D02*
X127695489Y-102591542D01*
X128052632Y-103305828D02*
X128052632Y-101805828D01*
X128052632Y-101805828D02*
X127481203Y-101805828D01*
X127481203Y-101805828D02*
X127338346Y-101877257D01*
X127338346Y-101877257D02*
X127266917Y-101948685D01*
X127266917Y-101948685D02*
X127195489Y-102091542D01*
X127195489Y-102091542D02*
X127195489Y-102305828D01*
X127195489Y-102305828D02*
X127266917Y-102448685D01*
X127266917Y-102448685D02*
X127338346Y-102520114D01*
X127338346Y-102520114D02*
X127481203Y-102591542D01*
X127481203Y-102591542D02*
X128052632Y-102591542D01*
X126266917Y-102591542D02*
X126266917Y-103305828D01*
X126766917Y-101805828D02*
X126266917Y-102591542D01*
X126266917Y-102591542D02*
X125766917Y-101805828D01*
X123695489Y-103877257D02*
X123766918Y-103805828D01*
X123766918Y-103805828D02*
X123909775Y-103591542D01*
X123909775Y-103591542D02*
X123981204Y-103448685D01*
X123981204Y-103448685D02*
X124052632Y-103234400D01*
X124052632Y-103234400D02*
X124124061Y-102877257D01*
X124124061Y-102877257D02*
X124124061Y-102591542D01*
X124124061Y-102591542D02*
X124052632Y-102234400D01*
X124052632Y-102234400D02*
X123981204Y-102020114D01*
X123981204Y-102020114D02*
X123909775Y-101877257D01*
X123909775Y-101877257D02*
X123766918Y-101662971D01*
X123766918Y-101662971D02*
X123695489Y-101591542D01*
X122338346Y-103305828D02*
X123195489Y-103305828D01*
X122766918Y-103305828D02*
X122766918Y-101805828D01*
X122766918Y-101805828D02*
X122909775Y-102020114D01*
X122909775Y-102020114D02*
X123052632Y-102162971D01*
X123052632Y-102162971D02*
X123195489Y-102234400D01*
X121052633Y-101805828D02*
X121338347Y-101805828D01*
X121338347Y-101805828D02*
X121481204Y-101877257D01*
X121481204Y-101877257D02*
X121552633Y-101948685D01*
X121552633Y-101948685D02*
X121695490Y-102162971D01*
X121695490Y-102162971D02*
X121766918Y-102448685D01*
X121766918Y-102448685D02*
X121766918Y-103020114D01*
X121766918Y-103020114D02*
X121695490Y-103162971D01*
X121695490Y-103162971D02*
X121624061Y-103234400D01*
X121624061Y-103234400D02*
X121481204Y-103305828D01*
X121481204Y-103305828D02*
X121195490Y-103305828D01*
X121195490Y-103305828D02*
X121052633Y-103234400D01*
X121052633Y-103234400D02*
X120981204Y-103162971D01*
X120981204Y-103162971D02*
X120909775Y-103020114D01*
X120909775Y-103020114D02*
X120909775Y-102662971D01*
X120909775Y-102662971D02*
X120981204Y-102520114D01*
X120981204Y-102520114D02*
X121052633Y-102448685D01*
X121052633Y-102448685D02*
X121195490Y-102377257D01*
X121195490Y-102377257D02*
X121481204Y-102377257D01*
X121481204Y-102377257D02*
X121624061Y-102448685D01*
X121624061Y-102448685D02*
X121695490Y-102520114D01*
X121695490Y-102520114D02*
X121766918Y-102662971D01*
X119124062Y-103305828D02*
X119124062Y-101805828D01*
X119124062Y-102377257D02*
X118981205Y-102305828D01*
X118981205Y-102305828D02*
X118695490Y-102305828D01*
X118695490Y-102305828D02*
X118552633Y-102377257D01*
X118552633Y-102377257D02*
X118481205Y-102448685D01*
X118481205Y-102448685D02*
X118409776Y-102591542D01*
X118409776Y-102591542D02*
X118409776Y-103020114D01*
X118409776Y-103020114D02*
X118481205Y-103162971D01*
X118481205Y-103162971D02*
X118552633Y-103234400D01*
X118552633Y-103234400D02*
X118695490Y-103305828D01*
X118695490Y-103305828D02*
X118981205Y-103305828D01*
X118981205Y-103305828D02*
X119124062Y-103234400D01*
X117909776Y-102305828D02*
X117552633Y-103305828D01*
X117195490Y-102305828D02*
X117552633Y-103305828D01*
X117552633Y-103305828D02*
X117695490Y-103662971D01*
X117695490Y-103662971D02*
X117766919Y-103734400D01*
X117766919Y-103734400D02*
X117909776Y-103805828D01*
X116838347Y-102305828D02*
X116266919Y-102305828D01*
X116624062Y-101805828D02*
X116624062Y-103091542D01*
X116624062Y-103091542D02*
X116552633Y-103234400D01*
X116552633Y-103234400D02*
X116409776Y-103305828D01*
X116409776Y-103305828D02*
X116266919Y-103305828D01*
X115195490Y-103234400D02*
X115338347Y-103305828D01*
X115338347Y-103305828D02*
X115624062Y-103305828D01*
X115624062Y-103305828D02*
X115766919Y-103234400D01*
X115766919Y-103234400D02*
X115838347Y-103091542D01*
X115838347Y-103091542D02*
X115838347Y-102520114D01*
X115838347Y-102520114D02*
X115766919Y-102377257D01*
X115766919Y-102377257D02*
X115624062Y-102305828D01*
X115624062Y-102305828D02*
X115338347Y-102305828D01*
X115338347Y-102305828D02*
X115195490Y-102377257D01*
X115195490Y-102377257D02*
X115124062Y-102520114D01*
X115124062Y-102520114D02*
X115124062Y-102662971D01*
X115124062Y-102662971D02*
X115838347Y-102805828D01*
X114552633Y-103234400D02*
X114409776Y-103305828D01*
X114409776Y-103305828D02*
X114124062Y-103305828D01*
X114124062Y-103305828D02*
X113981205Y-103234400D01*
X113981205Y-103234400D02*
X113909776Y-103091542D01*
X113909776Y-103091542D02*
X113909776Y-103020114D01*
X113909776Y-103020114D02*
X113981205Y-102877257D01*
X113981205Y-102877257D02*
X114124062Y-102805828D01*
X114124062Y-102805828D02*
X114338348Y-102805828D01*
X114338348Y-102805828D02*
X114481205Y-102734400D01*
X114481205Y-102734400D02*
X114552633Y-102591542D01*
X114552633Y-102591542D02*
X114552633Y-102520114D01*
X114552633Y-102520114D02*
X114481205Y-102377257D01*
X114481205Y-102377257D02*
X114338348Y-102305828D01*
X114338348Y-102305828D02*
X114124062Y-102305828D01*
X114124062Y-102305828D02*
X113981205Y-102377257D01*
X113409776Y-103877257D02*
X113338347Y-103805828D01*
X113338347Y-103805828D02*
X113195490Y-103591542D01*
X113195490Y-103591542D02*
X113124062Y-103448685D01*
X113124062Y-103448685D02*
X113052633Y-103234400D01*
X113052633Y-103234400D02*
X112981204Y-102877257D01*
X112981204Y-102877257D02*
X112981204Y-102591542D01*
X112981204Y-102591542D02*
X113052633Y-102234400D01*
X113052633Y-102234400D02*
X113124062Y-102020114D01*
X113124062Y-102020114D02*
X113195490Y-101877257D01*
X113195490Y-101877257D02*
X113338347Y-101662971D01*
X113338347Y-101662971D02*
X113409776Y-101591542D01*
M02*
