%TF.GenerationSoftware,KiCad,Pcbnew,8.0.4*%
%TF.CreationDate,2024-11-02T16:38:00-04:00*%
%TF.ProjectId,ExamplePCB,4578616d-706c-4655-9043-422e6b696361,rev?*%
%TF.SameCoordinates,Original*%
%TF.FileFunction,Legend,Top*%
%TF.FilePolarity,Positive*%
%FSLAX46Y46*%
G04 Gerber Fmt 4.6, Leading zero omitted, Abs format (unit mm)*
G04 Created by KiCad (PCBNEW 8.0.4) date 2024-11-02 16:38:00*
%MOMM*%
%LPD*%
G01*
G04 APERTURE LIST*
%ADD10C,0.100000*%
%ADD11C,0.200000*%
%ADD12C,0.400000*%
%ADD13C,1.000000*%
%ADD14C,0.120000*%
G04 APERTURE END LIST*
D10*
X114500000Y-101500000D02*
X125000000Y-101500000D01*
X125000000Y-112000000D01*
X114500000Y-112000000D01*
X114500000Y-101500000D01*
X126000000Y-101500000D02*
X146500000Y-101500000D01*
X146500000Y-112000000D01*
X126000000Y-112000000D01*
X126000000Y-101500000D01*
D11*
X101249838Y-147261904D02*
X101202219Y-147357142D01*
X101202219Y-147357142D02*
X101202219Y-147499999D01*
X101202219Y-147499999D02*
X101249838Y-147642856D01*
X101249838Y-147642856D02*
X101345076Y-147738094D01*
X101345076Y-147738094D02*
X101440314Y-147785713D01*
X101440314Y-147785713D02*
X101630790Y-147833332D01*
X101630790Y-147833332D02*
X101773647Y-147833332D01*
X101773647Y-147833332D02*
X101964123Y-147785713D01*
X101964123Y-147785713D02*
X102059361Y-147738094D01*
X102059361Y-147738094D02*
X102154600Y-147642856D01*
X102154600Y-147642856D02*
X102202219Y-147499999D01*
X102202219Y-147499999D02*
X102202219Y-147404761D01*
X102202219Y-147404761D02*
X102154600Y-147261904D01*
X102154600Y-147261904D02*
X102106980Y-147214285D01*
X102106980Y-147214285D02*
X101773647Y-147214285D01*
X101773647Y-147214285D02*
X101773647Y-147404761D01*
X102202219Y-146785713D02*
X101202219Y-146785713D01*
X101202219Y-146785713D02*
X102202219Y-146214285D01*
X102202219Y-146214285D02*
X101202219Y-146214285D01*
X102202219Y-145738094D02*
X101202219Y-145738094D01*
X101202219Y-145738094D02*
X101202219Y-145499999D01*
X101202219Y-145499999D02*
X101249838Y-145357142D01*
X101249838Y-145357142D02*
X101345076Y-145261904D01*
X101345076Y-145261904D02*
X101440314Y-145214285D01*
X101440314Y-145214285D02*
X101630790Y-145166666D01*
X101630790Y-145166666D02*
X101773647Y-145166666D01*
X101773647Y-145166666D02*
X101964123Y-145214285D01*
X101964123Y-145214285D02*
X102059361Y-145261904D01*
X102059361Y-145261904D02*
X102154600Y-145357142D01*
X102154600Y-145357142D02*
X102202219Y-145499999D01*
X102202219Y-145499999D02*
X102202219Y-145738094D01*
X150202219Y-129321427D02*
X149202219Y-129321427D01*
X149202219Y-129321427D02*
X149916504Y-128988094D01*
X149916504Y-128988094D02*
X149202219Y-128654761D01*
X149202219Y-128654761D02*
X150202219Y-128654761D01*
X150154600Y-128226189D02*
X150202219Y-128083332D01*
X150202219Y-128083332D02*
X150202219Y-127845237D01*
X150202219Y-127845237D02*
X150154600Y-127749999D01*
X150154600Y-127749999D02*
X150106980Y-127702380D01*
X150106980Y-127702380D02*
X150011742Y-127654761D01*
X150011742Y-127654761D02*
X149916504Y-127654761D01*
X149916504Y-127654761D02*
X149821266Y-127702380D01*
X149821266Y-127702380D02*
X149773647Y-127749999D01*
X149773647Y-127749999D02*
X149726028Y-127845237D01*
X149726028Y-127845237D02*
X149678409Y-128035713D01*
X149678409Y-128035713D02*
X149630790Y-128130951D01*
X149630790Y-128130951D02*
X149583171Y-128178570D01*
X149583171Y-128178570D02*
X149487933Y-128226189D01*
X149487933Y-128226189D02*
X149392695Y-128226189D01*
X149392695Y-128226189D02*
X149297457Y-128178570D01*
X149297457Y-128178570D02*
X149249838Y-128130951D01*
X149249838Y-128130951D02*
X149202219Y-128035713D01*
X149202219Y-128035713D02*
X149202219Y-127797618D01*
X149202219Y-127797618D02*
X149249838Y-127654761D01*
X149678409Y-126892856D02*
X149726028Y-126749999D01*
X149726028Y-126749999D02*
X149773647Y-126702380D01*
X149773647Y-126702380D02*
X149868885Y-126654761D01*
X149868885Y-126654761D02*
X150011742Y-126654761D01*
X150011742Y-126654761D02*
X150106980Y-126702380D01*
X150106980Y-126702380D02*
X150154600Y-126749999D01*
X150154600Y-126749999D02*
X150202219Y-126845237D01*
X150202219Y-126845237D02*
X150202219Y-127226189D01*
X150202219Y-127226189D02*
X149202219Y-127226189D01*
X149202219Y-127226189D02*
X149202219Y-126892856D01*
X149202219Y-126892856D02*
X149249838Y-126797618D01*
X149249838Y-126797618D02*
X149297457Y-126749999D01*
X149297457Y-126749999D02*
X149392695Y-126702380D01*
X149392695Y-126702380D02*
X149487933Y-126702380D01*
X149487933Y-126702380D02*
X149583171Y-126749999D01*
X149583171Y-126749999D02*
X149630790Y-126797618D01*
X149630790Y-126797618D02*
X149678409Y-126892856D01*
X149678409Y-126892856D02*
X149678409Y-127226189D01*
X149821266Y-126226189D02*
X149821266Y-125464285D01*
X149821266Y-124988094D02*
X149821266Y-124226190D01*
X149202219Y-123845237D02*
X150202219Y-123607142D01*
X150202219Y-123607142D02*
X149487933Y-123416666D01*
X149487933Y-123416666D02*
X150202219Y-123226190D01*
X150202219Y-123226190D02*
X149202219Y-122988095D01*
X149202219Y-122416666D02*
X149202219Y-122226190D01*
X149202219Y-122226190D02*
X149249838Y-122130952D01*
X149249838Y-122130952D02*
X149345076Y-122035714D01*
X149345076Y-122035714D02*
X149535552Y-121988095D01*
X149535552Y-121988095D02*
X149868885Y-121988095D01*
X149868885Y-121988095D02*
X150059361Y-122035714D01*
X150059361Y-122035714D02*
X150154600Y-122130952D01*
X150154600Y-122130952D02*
X150202219Y-122226190D01*
X150202219Y-122226190D02*
X150202219Y-122416666D01*
X150202219Y-122416666D02*
X150154600Y-122511904D01*
X150154600Y-122511904D02*
X150059361Y-122607142D01*
X150059361Y-122607142D02*
X149868885Y-122654761D01*
X149868885Y-122654761D02*
X149535552Y-122654761D01*
X149535552Y-122654761D02*
X149345076Y-122607142D01*
X149345076Y-122607142D02*
X149249838Y-122511904D01*
X149249838Y-122511904D02*
X149202219Y-122416666D01*
X150202219Y-120988095D02*
X149726028Y-121321428D01*
X150202219Y-121559523D02*
X149202219Y-121559523D01*
X149202219Y-121559523D02*
X149202219Y-121178571D01*
X149202219Y-121178571D02*
X149249838Y-121083333D01*
X149249838Y-121083333D02*
X149297457Y-121035714D01*
X149297457Y-121035714D02*
X149392695Y-120988095D01*
X149392695Y-120988095D02*
X149535552Y-120988095D01*
X149535552Y-120988095D02*
X149630790Y-121035714D01*
X149630790Y-121035714D02*
X149678409Y-121083333D01*
X149678409Y-121083333D02*
X149726028Y-121178571D01*
X149726028Y-121178571D02*
X149726028Y-121559523D01*
X150202219Y-120559523D02*
X149202219Y-120559523D01*
X149202219Y-120559523D02*
X149202219Y-120321428D01*
X149202219Y-120321428D02*
X149249838Y-120178571D01*
X149249838Y-120178571D02*
X149345076Y-120083333D01*
X149345076Y-120083333D02*
X149440314Y-120035714D01*
X149440314Y-120035714D02*
X149630790Y-119988095D01*
X149630790Y-119988095D02*
X149773647Y-119988095D01*
X149773647Y-119988095D02*
X149964123Y-120035714D01*
X149964123Y-120035714D02*
X150059361Y-120083333D01*
X150059361Y-120083333D02*
X150154600Y-120178571D01*
X150154600Y-120178571D02*
X150202219Y-120321428D01*
X150202219Y-120321428D02*
X150202219Y-120559523D01*
X149202219Y-118607142D02*
X149202219Y-118416666D01*
X149202219Y-118416666D02*
X149249838Y-118321428D01*
X149249838Y-118321428D02*
X149345076Y-118226190D01*
X149345076Y-118226190D02*
X149535552Y-118178571D01*
X149535552Y-118178571D02*
X149868885Y-118178571D01*
X149868885Y-118178571D02*
X150059361Y-118226190D01*
X150059361Y-118226190D02*
X150154600Y-118321428D01*
X150154600Y-118321428D02*
X150202219Y-118416666D01*
X150202219Y-118416666D02*
X150202219Y-118607142D01*
X150202219Y-118607142D02*
X150154600Y-118702380D01*
X150154600Y-118702380D02*
X150059361Y-118797618D01*
X150059361Y-118797618D02*
X149868885Y-118845237D01*
X149868885Y-118845237D02*
X149535552Y-118845237D01*
X149535552Y-118845237D02*
X149345076Y-118797618D01*
X149345076Y-118797618D02*
X149249838Y-118702380D01*
X149249838Y-118702380D02*
X149202219Y-118607142D01*
X149202219Y-117749999D02*
X150011742Y-117749999D01*
X150011742Y-117749999D02*
X150106980Y-117702380D01*
X150106980Y-117702380D02*
X150154600Y-117654761D01*
X150154600Y-117654761D02*
X150202219Y-117559523D01*
X150202219Y-117559523D02*
X150202219Y-117369047D01*
X150202219Y-117369047D02*
X150154600Y-117273809D01*
X150154600Y-117273809D02*
X150106980Y-117226190D01*
X150106980Y-117226190D02*
X150011742Y-117178571D01*
X150011742Y-117178571D02*
X149202219Y-117178571D01*
X149202219Y-116845237D02*
X149202219Y-116273809D01*
X150202219Y-116559523D02*
X149202219Y-116559523D01*
X149821266Y-115940475D02*
X149821266Y-115178571D01*
X149821266Y-114702380D02*
X149821266Y-113940476D01*
X150202219Y-112988095D02*
X150202219Y-113464285D01*
X150202219Y-113464285D02*
X149202219Y-113464285D01*
X150154600Y-112702380D02*
X150202219Y-112559523D01*
X150202219Y-112559523D02*
X150202219Y-112321428D01*
X150202219Y-112321428D02*
X150154600Y-112226190D01*
X150154600Y-112226190D02*
X150106980Y-112178571D01*
X150106980Y-112178571D02*
X150011742Y-112130952D01*
X150011742Y-112130952D02*
X149916504Y-112130952D01*
X149916504Y-112130952D02*
X149821266Y-112178571D01*
X149821266Y-112178571D02*
X149773647Y-112226190D01*
X149773647Y-112226190D02*
X149726028Y-112321428D01*
X149726028Y-112321428D02*
X149678409Y-112511904D01*
X149678409Y-112511904D02*
X149630790Y-112607142D01*
X149630790Y-112607142D02*
X149583171Y-112654761D01*
X149583171Y-112654761D02*
X149487933Y-112702380D01*
X149487933Y-112702380D02*
X149392695Y-112702380D01*
X149392695Y-112702380D02*
X149297457Y-112654761D01*
X149297457Y-112654761D02*
X149249838Y-112607142D01*
X149249838Y-112607142D02*
X149202219Y-112511904D01*
X149202219Y-112511904D02*
X149202219Y-112273809D01*
X149202219Y-112273809D02*
X149249838Y-112130952D01*
X149678409Y-111369047D02*
X149726028Y-111226190D01*
X149726028Y-111226190D02*
X149773647Y-111178571D01*
X149773647Y-111178571D02*
X149868885Y-111130952D01*
X149868885Y-111130952D02*
X150011742Y-111130952D01*
X150011742Y-111130952D02*
X150106980Y-111178571D01*
X150106980Y-111178571D02*
X150154600Y-111226190D01*
X150154600Y-111226190D02*
X150202219Y-111321428D01*
X150202219Y-111321428D02*
X150202219Y-111702380D01*
X150202219Y-111702380D02*
X149202219Y-111702380D01*
X149202219Y-111702380D02*
X149202219Y-111369047D01*
X149202219Y-111369047D02*
X149249838Y-111273809D01*
X149249838Y-111273809D02*
X149297457Y-111226190D01*
X149297457Y-111226190D02*
X149392695Y-111178571D01*
X149392695Y-111178571D02*
X149487933Y-111178571D01*
X149487933Y-111178571D02*
X149583171Y-111226190D01*
X149583171Y-111226190D02*
X149630790Y-111273809D01*
X149630790Y-111273809D02*
X149678409Y-111369047D01*
X149678409Y-111369047D02*
X149678409Y-111702380D01*
X102202219Y-128642855D02*
X101202219Y-128642855D01*
X101202219Y-128642855D02*
X101916504Y-128309522D01*
X101916504Y-128309522D02*
X101202219Y-127976189D01*
X101202219Y-127976189D02*
X102202219Y-127976189D01*
X102154600Y-127547617D02*
X102202219Y-127404760D01*
X102202219Y-127404760D02*
X102202219Y-127166665D01*
X102202219Y-127166665D02*
X102154600Y-127071427D01*
X102154600Y-127071427D02*
X102106980Y-127023808D01*
X102106980Y-127023808D02*
X102011742Y-126976189D01*
X102011742Y-126976189D02*
X101916504Y-126976189D01*
X101916504Y-126976189D02*
X101821266Y-127023808D01*
X101821266Y-127023808D02*
X101773647Y-127071427D01*
X101773647Y-127071427D02*
X101726028Y-127166665D01*
X101726028Y-127166665D02*
X101678409Y-127357141D01*
X101678409Y-127357141D02*
X101630790Y-127452379D01*
X101630790Y-127452379D02*
X101583171Y-127499998D01*
X101583171Y-127499998D02*
X101487933Y-127547617D01*
X101487933Y-127547617D02*
X101392695Y-127547617D01*
X101392695Y-127547617D02*
X101297457Y-127499998D01*
X101297457Y-127499998D02*
X101249838Y-127452379D01*
X101249838Y-127452379D02*
X101202219Y-127357141D01*
X101202219Y-127357141D02*
X101202219Y-127119046D01*
X101202219Y-127119046D02*
X101249838Y-126976189D01*
X101678409Y-126214284D02*
X101726028Y-126071427D01*
X101726028Y-126071427D02*
X101773647Y-126023808D01*
X101773647Y-126023808D02*
X101868885Y-125976189D01*
X101868885Y-125976189D02*
X102011742Y-125976189D01*
X102011742Y-125976189D02*
X102106980Y-126023808D01*
X102106980Y-126023808D02*
X102154600Y-126071427D01*
X102154600Y-126071427D02*
X102202219Y-126166665D01*
X102202219Y-126166665D02*
X102202219Y-126547617D01*
X102202219Y-126547617D02*
X101202219Y-126547617D01*
X101202219Y-126547617D02*
X101202219Y-126214284D01*
X101202219Y-126214284D02*
X101249838Y-126119046D01*
X101249838Y-126119046D02*
X101297457Y-126071427D01*
X101297457Y-126071427D02*
X101392695Y-126023808D01*
X101392695Y-126023808D02*
X101487933Y-126023808D01*
X101487933Y-126023808D02*
X101583171Y-126071427D01*
X101583171Y-126071427D02*
X101630790Y-126119046D01*
X101630790Y-126119046D02*
X101678409Y-126214284D01*
X101678409Y-126214284D02*
X101678409Y-126547617D01*
X101821266Y-125547617D02*
X101821266Y-124785713D01*
X101821266Y-124309522D02*
X101821266Y-123547618D01*
X101821266Y-123071427D02*
X101821266Y-122309523D01*
X101202219Y-121928570D02*
X102202219Y-121690475D01*
X102202219Y-121690475D02*
X101487933Y-121499999D01*
X101487933Y-121499999D02*
X102202219Y-121309523D01*
X102202219Y-121309523D02*
X101202219Y-121071428D01*
X101202219Y-120499999D02*
X101202219Y-120309523D01*
X101202219Y-120309523D02*
X101249838Y-120214285D01*
X101249838Y-120214285D02*
X101345076Y-120119047D01*
X101345076Y-120119047D02*
X101535552Y-120071428D01*
X101535552Y-120071428D02*
X101868885Y-120071428D01*
X101868885Y-120071428D02*
X102059361Y-120119047D01*
X102059361Y-120119047D02*
X102154600Y-120214285D01*
X102154600Y-120214285D02*
X102202219Y-120309523D01*
X102202219Y-120309523D02*
X102202219Y-120499999D01*
X102202219Y-120499999D02*
X102154600Y-120595237D01*
X102154600Y-120595237D02*
X102059361Y-120690475D01*
X102059361Y-120690475D02*
X101868885Y-120738094D01*
X101868885Y-120738094D02*
X101535552Y-120738094D01*
X101535552Y-120738094D02*
X101345076Y-120690475D01*
X101345076Y-120690475D02*
X101249838Y-120595237D01*
X101249838Y-120595237D02*
X101202219Y-120499999D01*
X102202219Y-119071428D02*
X101726028Y-119404761D01*
X102202219Y-119642856D02*
X101202219Y-119642856D01*
X101202219Y-119642856D02*
X101202219Y-119261904D01*
X101202219Y-119261904D02*
X101249838Y-119166666D01*
X101249838Y-119166666D02*
X101297457Y-119119047D01*
X101297457Y-119119047D02*
X101392695Y-119071428D01*
X101392695Y-119071428D02*
X101535552Y-119071428D01*
X101535552Y-119071428D02*
X101630790Y-119119047D01*
X101630790Y-119119047D02*
X101678409Y-119166666D01*
X101678409Y-119166666D02*
X101726028Y-119261904D01*
X101726028Y-119261904D02*
X101726028Y-119642856D01*
X102202219Y-118642856D02*
X101202219Y-118642856D01*
X101202219Y-118642856D02*
X101202219Y-118404761D01*
X101202219Y-118404761D02*
X101249838Y-118261904D01*
X101249838Y-118261904D02*
X101345076Y-118166666D01*
X101345076Y-118166666D02*
X101440314Y-118119047D01*
X101440314Y-118119047D02*
X101630790Y-118071428D01*
X101630790Y-118071428D02*
X101773647Y-118071428D01*
X101773647Y-118071428D02*
X101964123Y-118119047D01*
X101964123Y-118119047D02*
X102059361Y-118166666D01*
X102059361Y-118166666D02*
X102154600Y-118261904D01*
X102154600Y-118261904D02*
X102202219Y-118404761D01*
X102202219Y-118404761D02*
X102202219Y-118642856D01*
X102202219Y-116880951D02*
X101202219Y-116880951D01*
X102202219Y-116404761D02*
X101202219Y-116404761D01*
X101202219Y-116404761D02*
X102202219Y-115833333D01*
X102202219Y-115833333D02*
X101202219Y-115833333D01*
X101821266Y-115357142D02*
X101821266Y-114595238D01*
X101821266Y-114119047D02*
X101821266Y-113357143D01*
X101821266Y-112880952D02*
X101821266Y-112119048D01*
X102202219Y-111166667D02*
X102202219Y-111642857D01*
X102202219Y-111642857D02*
X101202219Y-111642857D01*
X102154600Y-110880952D02*
X102202219Y-110738095D01*
X102202219Y-110738095D02*
X102202219Y-110500000D01*
X102202219Y-110500000D02*
X102154600Y-110404762D01*
X102154600Y-110404762D02*
X102106980Y-110357143D01*
X102106980Y-110357143D02*
X102011742Y-110309524D01*
X102011742Y-110309524D02*
X101916504Y-110309524D01*
X101916504Y-110309524D02*
X101821266Y-110357143D01*
X101821266Y-110357143D02*
X101773647Y-110404762D01*
X101773647Y-110404762D02*
X101726028Y-110500000D01*
X101726028Y-110500000D02*
X101678409Y-110690476D01*
X101678409Y-110690476D02*
X101630790Y-110785714D01*
X101630790Y-110785714D02*
X101583171Y-110833333D01*
X101583171Y-110833333D02*
X101487933Y-110880952D01*
X101487933Y-110880952D02*
X101392695Y-110880952D01*
X101392695Y-110880952D02*
X101297457Y-110833333D01*
X101297457Y-110833333D02*
X101249838Y-110785714D01*
X101249838Y-110785714D02*
X101202219Y-110690476D01*
X101202219Y-110690476D02*
X101202219Y-110452381D01*
X101202219Y-110452381D02*
X101249838Y-110309524D01*
X101678409Y-109547619D02*
X101726028Y-109404762D01*
X101726028Y-109404762D02*
X101773647Y-109357143D01*
X101773647Y-109357143D02*
X101868885Y-109309524D01*
X101868885Y-109309524D02*
X102011742Y-109309524D01*
X102011742Y-109309524D02*
X102106980Y-109357143D01*
X102106980Y-109357143D02*
X102154600Y-109404762D01*
X102154600Y-109404762D02*
X102202219Y-109500000D01*
X102202219Y-109500000D02*
X102202219Y-109880952D01*
X102202219Y-109880952D02*
X101202219Y-109880952D01*
X101202219Y-109880952D02*
X101202219Y-109547619D01*
X101202219Y-109547619D02*
X101249838Y-109452381D01*
X101249838Y-109452381D02*
X101297457Y-109404762D01*
X101297457Y-109404762D02*
X101392695Y-109357143D01*
X101392695Y-109357143D02*
X101487933Y-109357143D01*
X101487933Y-109357143D02*
X101583171Y-109404762D01*
X101583171Y-109404762D02*
X101630790Y-109452381D01*
X101630790Y-109452381D02*
X101678409Y-109547619D01*
X101678409Y-109547619D02*
X101678409Y-109880952D01*
D12*
X116273809Y-111163009D02*
X117226190Y-111163009D01*
X116083333Y-111734438D02*
X116749999Y-109734438D01*
X116749999Y-109734438D02*
X117416666Y-111734438D01*
X118083333Y-111734438D02*
X118083333Y-109734438D01*
X118083333Y-109734438D02*
X118559523Y-109734438D01*
X118559523Y-109734438D02*
X118845238Y-109829676D01*
X118845238Y-109829676D02*
X119035714Y-110020152D01*
X119035714Y-110020152D02*
X119130952Y-110210628D01*
X119130952Y-110210628D02*
X119226190Y-110591580D01*
X119226190Y-110591580D02*
X119226190Y-110877295D01*
X119226190Y-110877295D02*
X119130952Y-111258247D01*
X119130952Y-111258247D02*
X119035714Y-111448723D01*
X119035714Y-111448723D02*
X118845238Y-111639200D01*
X118845238Y-111639200D02*
X118559523Y-111734438D01*
X118559523Y-111734438D02*
X118083333Y-111734438D01*
X120083333Y-111734438D02*
X120083333Y-109734438D01*
X120083333Y-109734438D02*
X120559523Y-109734438D01*
X120559523Y-109734438D02*
X120845238Y-109829676D01*
X120845238Y-109829676D02*
X121035714Y-110020152D01*
X121035714Y-110020152D02*
X121130952Y-110210628D01*
X121130952Y-110210628D02*
X121226190Y-110591580D01*
X121226190Y-110591580D02*
X121226190Y-110877295D01*
X121226190Y-110877295D02*
X121130952Y-111258247D01*
X121130952Y-111258247D02*
X121035714Y-111448723D01*
X121035714Y-111448723D02*
X120845238Y-111639200D01*
X120845238Y-111639200D02*
X120559523Y-111734438D01*
X120559523Y-111734438D02*
X120083333Y-111734438D01*
X123226190Y-111734438D02*
X122559523Y-110782057D01*
X122083333Y-111734438D02*
X122083333Y-109734438D01*
X122083333Y-109734438D02*
X122845238Y-109734438D01*
X122845238Y-109734438D02*
X123035714Y-109829676D01*
X123035714Y-109829676D02*
X123130952Y-109924914D01*
X123130952Y-109924914D02*
X123226190Y-110115390D01*
X123226190Y-110115390D02*
X123226190Y-110401104D01*
X123226190Y-110401104D02*
X123130952Y-110591580D01*
X123130952Y-110591580D02*
X123035714Y-110686819D01*
X123035714Y-110686819D02*
X122845238Y-110782057D01*
X122845238Y-110782057D02*
X122083333Y-110782057D01*
D10*
X118354828Y-140464285D02*
X118402447Y-140321428D01*
X118402447Y-140321428D02*
X118402447Y-140083333D01*
X118402447Y-140083333D02*
X118354828Y-139988095D01*
X118354828Y-139988095D02*
X118307208Y-139940476D01*
X118307208Y-139940476D02*
X118211970Y-139892857D01*
X118211970Y-139892857D02*
X118116732Y-139892857D01*
X118116732Y-139892857D02*
X118021494Y-139940476D01*
X118021494Y-139940476D02*
X117973875Y-139988095D01*
X117973875Y-139988095D02*
X117926256Y-140083333D01*
X117926256Y-140083333D02*
X117878637Y-140273809D01*
X117878637Y-140273809D02*
X117831018Y-140369047D01*
X117831018Y-140369047D02*
X117783399Y-140416666D01*
X117783399Y-140416666D02*
X117688161Y-140464285D01*
X117688161Y-140464285D02*
X117592923Y-140464285D01*
X117592923Y-140464285D02*
X117497685Y-140416666D01*
X117497685Y-140416666D02*
X117450066Y-140369047D01*
X117450066Y-140369047D02*
X117402447Y-140273809D01*
X117402447Y-140273809D02*
X117402447Y-140035714D01*
X117402447Y-140035714D02*
X117450066Y-139892857D01*
X118402447Y-139464285D02*
X117402447Y-139464285D01*
X117402447Y-139464285D02*
X118402447Y-138892857D01*
X118402447Y-138892857D02*
X117402447Y-138892857D01*
X117402447Y-138511904D02*
X117402447Y-137845238D01*
X117402447Y-137845238D02*
X118402447Y-138273809D01*
X117735780Y-137035714D02*
X118402447Y-137035714D01*
X117354828Y-137273809D02*
X118069113Y-137511904D01*
X118069113Y-137511904D02*
X118069113Y-136892857D01*
X118402447Y-135988095D02*
X118402447Y-136559523D01*
X118402447Y-136273809D02*
X117402447Y-136273809D01*
X117402447Y-136273809D02*
X117545304Y-136369047D01*
X117545304Y-136369047D02*
X117640542Y-136464285D01*
X117640542Y-136464285D02*
X117688161Y-136559523D01*
X117831018Y-135416666D02*
X117783399Y-135511904D01*
X117783399Y-135511904D02*
X117735780Y-135559523D01*
X117735780Y-135559523D02*
X117640542Y-135607142D01*
X117640542Y-135607142D02*
X117592923Y-135607142D01*
X117592923Y-135607142D02*
X117497685Y-135559523D01*
X117497685Y-135559523D02*
X117450066Y-135511904D01*
X117450066Y-135511904D02*
X117402447Y-135416666D01*
X117402447Y-135416666D02*
X117402447Y-135226190D01*
X117402447Y-135226190D02*
X117450066Y-135130952D01*
X117450066Y-135130952D02*
X117497685Y-135083333D01*
X117497685Y-135083333D02*
X117592923Y-135035714D01*
X117592923Y-135035714D02*
X117640542Y-135035714D01*
X117640542Y-135035714D02*
X117735780Y-135083333D01*
X117735780Y-135083333D02*
X117783399Y-135130952D01*
X117783399Y-135130952D02*
X117831018Y-135226190D01*
X117831018Y-135226190D02*
X117831018Y-135416666D01*
X117831018Y-135416666D02*
X117878637Y-135511904D01*
X117878637Y-135511904D02*
X117926256Y-135559523D01*
X117926256Y-135559523D02*
X118021494Y-135607142D01*
X118021494Y-135607142D02*
X118211970Y-135607142D01*
X118211970Y-135607142D02*
X118307208Y-135559523D01*
X118307208Y-135559523D02*
X118354828Y-135511904D01*
X118354828Y-135511904D02*
X118402447Y-135416666D01*
X118402447Y-135416666D02*
X118402447Y-135226190D01*
X118402447Y-135226190D02*
X118354828Y-135130952D01*
X118354828Y-135130952D02*
X118307208Y-135083333D01*
X118307208Y-135083333D02*
X118211970Y-135035714D01*
X118211970Y-135035714D02*
X118021494Y-135035714D01*
X118021494Y-135035714D02*
X117926256Y-135083333D01*
X117926256Y-135083333D02*
X117878637Y-135130952D01*
X117878637Y-135130952D02*
X117831018Y-135226190D01*
X118402447Y-134559523D02*
X118402447Y-134369047D01*
X118402447Y-134369047D02*
X118354828Y-134273809D01*
X118354828Y-134273809D02*
X118307208Y-134226190D01*
X118307208Y-134226190D02*
X118164351Y-134130952D01*
X118164351Y-134130952D02*
X117973875Y-134083333D01*
X117973875Y-134083333D02*
X117592923Y-134083333D01*
X117592923Y-134083333D02*
X117497685Y-134130952D01*
X117497685Y-134130952D02*
X117450066Y-134178571D01*
X117450066Y-134178571D02*
X117402447Y-134273809D01*
X117402447Y-134273809D02*
X117402447Y-134464285D01*
X117402447Y-134464285D02*
X117450066Y-134559523D01*
X117450066Y-134559523D02*
X117497685Y-134607142D01*
X117497685Y-134607142D02*
X117592923Y-134654761D01*
X117592923Y-134654761D02*
X117831018Y-134654761D01*
X117831018Y-134654761D02*
X117926256Y-134607142D01*
X117926256Y-134607142D02*
X117973875Y-134559523D01*
X117973875Y-134559523D02*
X118021494Y-134464285D01*
X118021494Y-134464285D02*
X118021494Y-134273809D01*
X118021494Y-134273809D02*
X117973875Y-134178571D01*
X117973875Y-134178571D02*
X117926256Y-134130952D01*
X117926256Y-134130952D02*
X117831018Y-134083333D01*
X118402447Y-133654761D02*
X117402447Y-133654761D01*
X117402447Y-133654761D02*
X118402447Y-133083333D01*
X118402447Y-133083333D02*
X117402447Y-133083333D01*
X120012391Y-140178571D02*
X120012391Y-140749999D01*
X120012391Y-140464285D02*
X119012391Y-140464285D01*
X119012391Y-140464285D02*
X119155248Y-140559523D01*
X119155248Y-140559523D02*
X119250486Y-140654761D01*
X119250486Y-140654761D02*
X119298105Y-140749999D01*
X119012391Y-139321428D02*
X119012391Y-139511904D01*
X119012391Y-139511904D02*
X119060010Y-139607142D01*
X119060010Y-139607142D02*
X119107629Y-139654761D01*
X119107629Y-139654761D02*
X119250486Y-139749999D01*
X119250486Y-139749999D02*
X119440962Y-139797618D01*
X119440962Y-139797618D02*
X119821914Y-139797618D01*
X119821914Y-139797618D02*
X119917152Y-139749999D01*
X119917152Y-139749999D02*
X119964772Y-139702380D01*
X119964772Y-139702380D02*
X120012391Y-139607142D01*
X120012391Y-139607142D02*
X120012391Y-139416666D01*
X120012391Y-139416666D02*
X119964772Y-139321428D01*
X119964772Y-139321428D02*
X119917152Y-139273809D01*
X119917152Y-139273809D02*
X119821914Y-139226190D01*
X119821914Y-139226190D02*
X119583819Y-139226190D01*
X119583819Y-139226190D02*
X119488581Y-139273809D01*
X119488581Y-139273809D02*
X119440962Y-139321428D01*
X119440962Y-139321428D02*
X119393343Y-139416666D01*
X119393343Y-139416666D02*
X119393343Y-139607142D01*
X119393343Y-139607142D02*
X119440962Y-139702380D01*
X119440962Y-139702380D02*
X119488581Y-139749999D01*
X119488581Y-139749999D02*
X119583819Y-139797618D01*
X120012391Y-138892856D02*
X119345724Y-138369047D01*
X119345724Y-138892856D02*
X120012391Y-138369047D01*
X119345724Y-137559523D02*
X120012391Y-137559523D01*
X118964772Y-137797618D02*
X119679057Y-138035713D01*
X119679057Y-138035713D02*
X119679057Y-137416666D01*
X119964772Y-136321427D02*
X120012391Y-136178570D01*
X120012391Y-136178570D02*
X120012391Y-135940475D01*
X120012391Y-135940475D02*
X119964772Y-135845237D01*
X119964772Y-135845237D02*
X119917152Y-135797618D01*
X119917152Y-135797618D02*
X119821914Y-135749999D01*
X119821914Y-135749999D02*
X119726676Y-135749999D01*
X119726676Y-135749999D02*
X119631438Y-135797618D01*
X119631438Y-135797618D02*
X119583819Y-135845237D01*
X119583819Y-135845237D02*
X119536200Y-135940475D01*
X119536200Y-135940475D02*
X119488581Y-136130951D01*
X119488581Y-136130951D02*
X119440962Y-136226189D01*
X119440962Y-136226189D02*
X119393343Y-136273808D01*
X119393343Y-136273808D02*
X119298105Y-136321427D01*
X119298105Y-136321427D02*
X119202867Y-136321427D01*
X119202867Y-136321427D02*
X119107629Y-136273808D01*
X119107629Y-136273808D02*
X119060010Y-136226189D01*
X119060010Y-136226189D02*
X119012391Y-136130951D01*
X119012391Y-136130951D02*
X119012391Y-135892856D01*
X119012391Y-135892856D02*
X119060010Y-135749999D01*
X120012391Y-134749999D02*
X119536200Y-135083332D01*
X120012391Y-135321427D02*
X119012391Y-135321427D01*
X119012391Y-135321427D02*
X119012391Y-134940475D01*
X119012391Y-134940475D02*
X119060010Y-134845237D01*
X119060010Y-134845237D02*
X119107629Y-134797618D01*
X119107629Y-134797618D02*
X119202867Y-134749999D01*
X119202867Y-134749999D02*
X119345724Y-134749999D01*
X119345724Y-134749999D02*
X119440962Y-134797618D01*
X119440962Y-134797618D02*
X119488581Y-134845237D01*
X119488581Y-134845237D02*
X119536200Y-134940475D01*
X119536200Y-134940475D02*
X119536200Y-135321427D01*
X119726676Y-134369046D02*
X119726676Y-133892856D01*
X120012391Y-134464284D02*
X119012391Y-134130951D01*
X119012391Y-134130951D02*
X120012391Y-133797618D01*
X120012391Y-133464284D02*
X119012391Y-133464284D01*
X119012391Y-133464284D02*
X119726676Y-133130951D01*
X119726676Y-133130951D02*
X119012391Y-132797618D01*
X119012391Y-132797618D02*
X120012391Y-132797618D01*
X132964286Y-115902447D02*
X133630952Y-115902447D01*
X133630952Y-115902447D02*
X133202381Y-116902447D01*
X134440476Y-116235780D02*
X134440476Y-116902447D01*
X134202381Y-115854828D02*
X133964286Y-116569113D01*
X133964286Y-116569113D02*
X134583333Y-116569113D01*
X134964286Y-116902447D02*
X134964286Y-115902447D01*
X134964286Y-116378637D02*
X135535714Y-116378637D01*
X135535714Y-116902447D02*
X135535714Y-115902447D01*
X136583333Y-116807208D02*
X136535714Y-116854828D01*
X136535714Y-116854828D02*
X136392857Y-116902447D01*
X136392857Y-116902447D02*
X136297619Y-116902447D01*
X136297619Y-116902447D02*
X136154762Y-116854828D01*
X136154762Y-116854828D02*
X136059524Y-116759589D01*
X136059524Y-116759589D02*
X136011905Y-116664351D01*
X136011905Y-116664351D02*
X135964286Y-116473875D01*
X135964286Y-116473875D02*
X135964286Y-116331018D01*
X135964286Y-116331018D02*
X136011905Y-116140542D01*
X136011905Y-116140542D02*
X136059524Y-116045304D01*
X136059524Y-116045304D02*
X136154762Y-115950066D01*
X136154762Y-115950066D02*
X136297619Y-115902447D01*
X136297619Y-115902447D02*
X136392857Y-115902447D01*
X136392857Y-115902447D02*
X136535714Y-115950066D01*
X136535714Y-115950066D02*
X136583333Y-115997685D01*
X137202381Y-115902447D02*
X137297619Y-115902447D01*
X137297619Y-115902447D02*
X137392857Y-115950066D01*
X137392857Y-115950066D02*
X137440476Y-115997685D01*
X137440476Y-115997685D02*
X137488095Y-116092923D01*
X137488095Y-116092923D02*
X137535714Y-116283399D01*
X137535714Y-116283399D02*
X137535714Y-116521494D01*
X137535714Y-116521494D02*
X137488095Y-116711970D01*
X137488095Y-116711970D02*
X137440476Y-116807208D01*
X137440476Y-116807208D02*
X137392857Y-116854828D01*
X137392857Y-116854828D02*
X137297619Y-116902447D01*
X137297619Y-116902447D02*
X137202381Y-116902447D01*
X137202381Y-116902447D02*
X137107143Y-116854828D01*
X137107143Y-116854828D02*
X137059524Y-116807208D01*
X137059524Y-116807208D02*
X137011905Y-116711970D01*
X137011905Y-116711970D02*
X136964286Y-116521494D01*
X136964286Y-116521494D02*
X136964286Y-116283399D01*
X136964286Y-116283399D02*
X137011905Y-116092923D01*
X137011905Y-116092923D02*
X137059524Y-115997685D01*
X137059524Y-115997685D02*
X137107143Y-115950066D01*
X137107143Y-115950066D02*
X137202381Y-115902447D01*
X138392857Y-116235780D02*
X138392857Y-116902447D01*
X138154762Y-115854828D02*
X137916667Y-116569113D01*
X137916667Y-116569113D02*
X138535714Y-116569113D01*
X131416666Y-118512391D02*
X131416666Y-117512391D01*
X131416666Y-117988581D02*
X131988094Y-117988581D01*
X131988094Y-118512391D02*
X131988094Y-117512391D01*
X132845237Y-118464772D02*
X132749999Y-118512391D01*
X132749999Y-118512391D02*
X132559523Y-118512391D01*
X132559523Y-118512391D02*
X132464285Y-118464772D01*
X132464285Y-118464772D02*
X132416666Y-118369533D01*
X132416666Y-118369533D02*
X132416666Y-117988581D01*
X132416666Y-117988581D02*
X132464285Y-117893343D01*
X132464285Y-117893343D02*
X132559523Y-117845724D01*
X132559523Y-117845724D02*
X132749999Y-117845724D01*
X132749999Y-117845724D02*
X132845237Y-117893343D01*
X132845237Y-117893343D02*
X132892856Y-117988581D01*
X132892856Y-117988581D02*
X132892856Y-118083819D01*
X132892856Y-118083819D02*
X132416666Y-118179057D01*
X133226190Y-118512391D02*
X133749999Y-117845724D01*
X133226190Y-117845724D02*
X133749999Y-118512391D01*
X134892857Y-118512391D02*
X134892857Y-117512391D01*
X135369047Y-117845724D02*
X135369047Y-118512391D01*
X135369047Y-117940962D02*
X135416666Y-117893343D01*
X135416666Y-117893343D02*
X135511904Y-117845724D01*
X135511904Y-117845724D02*
X135654761Y-117845724D01*
X135654761Y-117845724D02*
X135749999Y-117893343D01*
X135749999Y-117893343D02*
X135797618Y-117988581D01*
X135797618Y-117988581D02*
X135797618Y-118512391D01*
X136178571Y-117845724D02*
X136416666Y-118512391D01*
X136416666Y-118512391D02*
X136654761Y-117845724D01*
X137416666Y-118464772D02*
X137321428Y-118512391D01*
X137321428Y-118512391D02*
X137130952Y-118512391D01*
X137130952Y-118512391D02*
X137035714Y-118464772D01*
X137035714Y-118464772D02*
X136988095Y-118369533D01*
X136988095Y-118369533D02*
X136988095Y-117988581D01*
X136988095Y-117988581D02*
X137035714Y-117893343D01*
X137035714Y-117893343D02*
X137130952Y-117845724D01*
X137130952Y-117845724D02*
X137321428Y-117845724D01*
X137321428Y-117845724D02*
X137416666Y-117893343D01*
X137416666Y-117893343D02*
X137464285Y-117988581D01*
X137464285Y-117988581D02*
X137464285Y-118083819D01*
X137464285Y-118083819D02*
X136988095Y-118179057D01*
X137892857Y-118512391D02*
X137892857Y-117845724D01*
X137892857Y-118036200D02*
X137940476Y-117940962D01*
X137940476Y-117940962D02*
X137988095Y-117893343D01*
X137988095Y-117893343D02*
X138083333Y-117845724D01*
X138083333Y-117845724D02*
X138178571Y-117845724D01*
X138369048Y-117845724D02*
X138750000Y-117845724D01*
X138511905Y-117512391D02*
X138511905Y-118369533D01*
X138511905Y-118369533D02*
X138559524Y-118464772D01*
X138559524Y-118464772D02*
X138654762Y-118512391D01*
X138654762Y-118512391D02*
X138750000Y-118512391D01*
X139464286Y-118464772D02*
X139369048Y-118512391D01*
X139369048Y-118512391D02*
X139178572Y-118512391D01*
X139178572Y-118512391D02*
X139083334Y-118464772D01*
X139083334Y-118464772D02*
X139035715Y-118369533D01*
X139035715Y-118369533D02*
X139035715Y-117988581D01*
X139035715Y-117988581D02*
X139083334Y-117893343D01*
X139083334Y-117893343D02*
X139178572Y-117845724D01*
X139178572Y-117845724D02*
X139369048Y-117845724D01*
X139369048Y-117845724D02*
X139464286Y-117893343D01*
X139464286Y-117893343D02*
X139511905Y-117988581D01*
X139511905Y-117988581D02*
X139511905Y-118083819D01*
X139511905Y-118083819D02*
X139035715Y-118179057D01*
X139940477Y-118512391D02*
X139940477Y-117845724D01*
X139940477Y-118036200D02*
X139988096Y-117940962D01*
X139988096Y-117940962D02*
X140035715Y-117893343D01*
X140035715Y-117893343D02*
X140130953Y-117845724D01*
X140130953Y-117845724D02*
X140226191Y-117845724D01*
X114464286Y-115902447D02*
X115130952Y-115902447D01*
X115130952Y-115902447D02*
X114702381Y-116902447D01*
X115940476Y-116235780D02*
X115940476Y-116902447D01*
X115702381Y-115854828D02*
X115464286Y-116569113D01*
X115464286Y-116569113D02*
X116083333Y-116569113D01*
X116464286Y-116902447D02*
X116464286Y-115902447D01*
X116464286Y-116378637D02*
X117035714Y-116378637D01*
X117035714Y-116902447D02*
X117035714Y-115902447D01*
X118083333Y-116807208D02*
X118035714Y-116854828D01*
X118035714Y-116854828D02*
X117892857Y-116902447D01*
X117892857Y-116902447D02*
X117797619Y-116902447D01*
X117797619Y-116902447D02*
X117654762Y-116854828D01*
X117654762Y-116854828D02*
X117559524Y-116759589D01*
X117559524Y-116759589D02*
X117511905Y-116664351D01*
X117511905Y-116664351D02*
X117464286Y-116473875D01*
X117464286Y-116473875D02*
X117464286Y-116331018D01*
X117464286Y-116331018D02*
X117511905Y-116140542D01*
X117511905Y-116140542D02*
X117559524Y-116045304D01*
X117559524Y-116045304D02*
X117654762Y-115950066D01*
X117654762Y-115950066D02*
X117797619Y-115902447D01*
X117797619Y-115902447D02*
X117892857Y-115902447D01*
X117892857Y-115902447D02*
X118035714Y-115950066D01*
X118035714Y-115950066D02*
X118083333Y-115997685D01*
X118702381Y-115902447D02*
X118797619Y-115902447D01*
X118797619Y-115902447D02*
X118892857Y-115950066D01*
X118892857Y-115950066D02*
X118940476Y-115997685D01*
X118940476Y-115997685D02*
X118988095Y-116092923D01*
X118988095Y-116092923D02*
X119035714Y-116283399D01*
X119035714Y-116283399D02*
X119035714Y-116521494D01*
X119035714Y-116521494D02*
X118988095Y-116711970D01*
X118988095Y-116711970D02*
X118940476Y-116807208D01*
X118940476Y-116807208D02*
X118892857Y-116854828D01*
X118892857Y-116854828D02*
X118797619Y-116902447D01*
X118797619Y-116902447D02*
X118702381Y-116902447D01*
X118702381Y-116902447D02*
X118607143Y-116854828D01*
X118607143Y-116854828D02*
X118559524Y-116807208D01*
X118559524Y-116807208D02*
X118511905Y-116711970D01*
X118511905Y-116711970D02*
X118464286Y-116521494D01*
X118464286Y-116521494D02*
X118464286Y-116283399D01*
X118464286Y-116283399D02*
X118511905Y-116092923D01*
X118511905Y-116092923D02*
X118559524Y-115997685D01*
X118559524Y-115997685D02*
X118607143Y-115950066D01*
X118607143Y-115950066D02*
X118702381Y-115902447D01*
X119892857Y-116235780D02*
X119892857Y-116902447D01*
X119654762Y-115854828D02*
X119416667Y-116569113D01*
X119416667Y-116569113D02*
X120035714Y-116569113D01*
X112916666Y-118512391D02*
X112916666Y-117512391D01*
X112916666Y-117988581D02*
X113488094Y-117988581D01*
X113488094Y-118512391D02*
X113488094Y-117512391D01*
X114345237Y-118464772D02*
X114249999Y-118512391D01*
X114249999Y-118512391D02*
X114059523Y-118512391D01*
X114059523Y-118512391D02*
X113964285Y-118464772D01*
X113964285Y-118464772D02*
X113916666Y-118369533D01*
X113916666Y-118369533D02*
X113916666Y-117988581D01*
X113916666Y-117988581D02*
X113964285Y-117893343D01*
X113964285Y-117893343D02*
X114059523Y-117845724D01*
X114059523Y-117845724D02*
X114249999Y-117845724D01*
X114249999Y-117845724D02*
X114345237Y-117893343D01*
X114345237Y-117893343D02*
X114392856Y-117988581D01*
X114392856Y-117988581D02*
X114392856Y-118083819D01*
X114392856Y-118083819D02*
X113916666Y-118179057D01*
X114726190Y-118512391D02*
X115249999Y-117845724D01*
X114726190Y-117845724D02*
X115249999Y-118512391D01*
X116392857Y-118512391D02*
X116392857Y-117512391D01*
X116869047Y-117845724D02*
X116869047Y-118512391D01*
X116869047Y-117940962D02*
X116916666Y-117893343D01*
X116916666Y-117893343D02*
X117011904Y-117845724D01*
X117011904Y-117845724D02*
X117154761Y-117845724D01*
X117154761Y-117845724D02*
X117249999Y-117893343D01*
X117249999Y-117893343D02*
X117297618Y-117988581D01*
X117297618Y-117988581D02*
X117297618Y-118512391D01*
X117678571Y-117845724D02*
X117916666Y-118512391D01*
X117916666Y-118512391D02*
X118154761Y-117845724D01*
X118916666Y-118464772D02*
X118821428Y-118512391D01*
X118821428Y-118512391D02*
X118630952Y-118512391D01*
X118630952Y-118512391D02*
X118535714Y-118464772D01*
X118535714Y-118464772D02*
X118488095Y-118369533D01*
X118488095Y-118369533D02*
X118488095Y-117988581D01*
X118488095Y-117988581D02*
X118535714Y-117893343D01*
X118535714Y-117893343D02*
X118630952Y-117845724D01*
X118630952Y-117845724D02*
X118821428Y-117845724D01*
X118821428Y-117845724D02*
X118916666Y-117893343D01*
X118916666Y-117893343D02*
X118964285Y-117988581D01*
X118964285Y-117988581D02*
X118964285Y-118083819D01*
X118964285Y-118083819D02*
X118488095Y-118179057D01*
X119392857Y-118512391D02*
X119392857Y-117845724D01*
X119392857Y-118036200D02*
X119440476Y-117940962D01*
X119440476Y-117940962D02*
X119488095Y-117893343D01*
X119488095Y-117893343D02*
X119583333Y-117845724D01*
X119583333Y-117845724D02*
X119678571Y-117845724D01*
X119869048Y-117845724D02*
X120250000Y-117845724D01*
X120011905Y-117512391D02*
X120011905Y-118369533D01*
X120011905Y-118369533D02*
X120059524Y-118464772D01*
X120059524Y-118464772D02*
X120154762Y-118512391D01*
X120154762Y-118512391D02*
X120250000Y-118512391D01*
X120964286Y-118464772D02*
X120869048Y-118512391D01*
X120869048Y-118512391D02*
X120678572Y-118512391D01*
X120678572Y-118512391D02*
X120583334Y-118464772D01*
X120583334Y-118464772D02*
X120535715Y-118369533D01*
X120535715Y-118369533D02*
X120535715Y-117988581D01*
X120535715Y-117988581D02*
X120583334Y-117893343D01*
X120583334Y-117893343D02*
X120678572Y-117845724D01*
X120678572Y-117845724D02*
X120869048Y-117845724D01*
X120869048Y-117845724D02*
X120964286Y-117893343D01*
X120964286Y-117893343D02*
X121011905Y-117988581D01*
X121011905Y-117988581D02*
X121011905Y-118083819D01*
X121011905Y-118083819D02*
X120535715Y-118179057D01*
X121440477Y-118512391D02*
X121440477Y-117845724D01*
X121440477Y-118036200D02*
X121488096Y-117940962D01*
X121488096Y-117940962D02*
X121535715Y-117893343D01*
X121535715Y-117893343D02*
X121630953Y-117845724D01*
X121630953Y-117845724D02*
X121726191Y-117845724D01*
D11*
X101202219Y-131380951D02*
X102202219Y-131142856D01*
X102202219Y-131142856D02*
X101487933Y-130952380D01*
X101487933Y-130952380D02*
X102202219Y-130761904D01*
X102202219Y-130761904D02*
X101202219Y-130523809D01*
X101678409Y-130142856D02*
X101678409Y-129809523D01*
X102202219Y-129666666D02*
X102202219Y-130142856D01*
X102202219Y-130142856D02*
X101202219Y-130142856D01*
X101202219Y-130142856D02*
X101202219Y-129666666D01*
X109559523Y-104952219D02*
X109083333Y-104952219D01*
X109083333Y-104952219D02*
X109035714Y-105428409D01*
X109035714Y-105428409D02*
X109083333Y-105380790D01*
X109083333Y-105380790D02*
X109178571Y-105333171D01*
X109178571Y-105333171D02*
X109416666Y-105333171D01*
X109416666Y-105333171D02*
X109511904Y-105380790D01*
X109511904Y-105380790D02*
X109559523Y-105428409D01*
X109559523Y-105428409D02*
X109607142Y-105523647D01*
X109607142Y-105523647D02*
X109607142Y-105761742D01*
X109607142Y-105761742D02*
X109559523Y-105856980D01*
X109559523Y-105856980D02*
X109511904Y-105904600D01*
X109511904Y-105904600D02*
X109416666Y-105952219D01*
X109416666Y-105952219D02*
X109178571Y-105952219D01*
X109178571Y-105952219D02*
X109083333Y-105904600D01*
X109083333Y-105904600D02*
X109035714Y-105856980D01*
X109892857Y-104952219D02*
X110226190Y-105952219D01*
X110226190Y-105952219D02*
X110559523Y-104952219D01*
D13*
X149836095Y-146294486D02*
X147455142Y-147961153D01*
X149836095Y-149151629D02*
X144836095Y-149151629D01*
X144836095Y-149151629D02*
X144836095Y-147246867D01*
X144836095Y-147246867D02*
X145074190Y-146770677D01*
X145074190Y-146770677D02*
X145312285Y-146532582D01*
X145312285Y-146532582D02*
X145788476Y-146294486D01*
X145788476Y-146294486D02*
X146502761Y-146294486D01*
X146502761Y-146294486D02*
X146978952Y-146532582D01*
X146978952Y-146532582D02*
X147217047Y-146770677D01*
X147217047Y-146770677D02*
X147455142Y-147246867D01*
X147455142Y-147246867D02*
X147455142Y-149151629D01*
X148407523Y-144389725D02*
X148407523Y-142008772D01*
X149836095Y-144865915D02*
X144836095Y-143199248D01*
X144836095Y-143199248D02*
X149836095Y-141532582D01*
X149836095Y-139865915D02*
X144836095Y-139865915D01*
X144836095Y-139865915D02*
X148407523Y-138199249D01*
X148407523Y-138199249D02*
X144836095Y-136532582D01*
X144836095Y-136532582D02*
X149836095Y-136532582D01*
D11*
X149249838Y-132511904D02*
X149202219Y-132607142D01*
X149202219Y-132607142D02*
X149202219Y-132749999D01*
X149202219Y-132749999D02*
X149249838Y-132892856D01*
X149249838Y-132892856D02*
X149345076Y-132988094D01*
X149345076Y-132988094D02*
X149440314Y-133035713D01*
X149440314Y-133035713D02*
X149630790Y-133083332D01*
X149630790Y-133083332D02*
X149773647Y-133083332D01*
X149773647Y-133083332D02*
X149964123Y-133035713D01*
X149964123Y-133035713D02*
X150059361Y-132988094D01*
X150059361Y-132988094D02*
X150154600Y-132892856D01*
X150154600Y-132892856D02*
X150202219Y-132749999D01*
X150202219Y-132749999D02*
X150202219Y-132654761D01*
X150202219Y-132654761D02*
X150154600Y-132511904D01*
X150154600Y-132511904D02*
X150106980Y-132464285D01*
X150106980Y-132464285D02*
X149773647Y-132464285D01*
X149773647Y-132464285D02*
X149773647Y-132654761D01*
X150202219Y-132035713D02*
X149202219Y-132035713D01*
X149202219Y-132035713D02*
X150202219Y-131464285D01*
X150202219Y-131464285D02*
X149202219Y-131464285D01*
X150202219Y-130988094D02*
X149202219Y-130988094D01*
X149202219Y-130988094D02*
X149202219Y-130749999D01*
X149202219Y-130749999D02*
X149249838Y-130607142D01*
X149249838Y-130607142D02*
X149345076Y-130511904D01*
X149345076Y-130511904D02*
X149440314Y-130464285D01*
X149440314Y-130464285D02*
X149630790Y-130416666D01*
X149630790Y-130416666D02*
X149773647Y-130416666D01*
X149773647Y-130416666D02*
X149964123Y-130464285D01*
X149964123Y-130464285D02*
X150059361Y-130511904D01*
X150059361Y-130511904D02*
X150154600Y-130607142D01*
X150154600Y-130607142D02*
X150202219Y-130749999D01*
X150202219Y-130749999D02*
X150202219Y-130988094D01*
D10*
X136854828Y-140464285D02*
X136902447Y-140321428D01*
X136902447Y-140321428D02*
X136902447Y-140083333D01*
X136902447Y-140083333D02*
X136854828Y-139988095D01*
X136854828Y-139988095D02*
X136807208Y-139940476D01*
X136807208Y-139940476D02*
X136711970Y-139892857D01*
X136711970Y-139892857D02*
X136616732Y-139892857D01*
X136616732Y-139892857D02*
X136521494Y-139940476D01*
X136521494Y-139940476D02*
X136473875Y-139988095D01*
X136473875Y-139988095D02*
X136426256Y-140083333D01*
X136426256Y-140083333D02*
X136378637Y-140273809D01*
X136378637Y-140273809D02*
X136331018Y-140369047D01*
X136331018Y-140369047D02*
X136283399Y-140416666D01*
X136283399Y-140416666D02*
X136188161Y-140464285D01*
X136188161Y-140464285D02*
X136092923Y-140464285D01*
X136092923Y-140464285D02*
X135997685Y-140416666D01*
X135997685Y-140416666D02*
X135950066Y-140369047D01*
X135950066Y-140369047D02*
X135902447Y-140273809D01*
X135902447Y-140273809D02*
X135902447Y-140035714D01*
X135902447Y-140035714D02*
X135950066Y-139892857D01*
X136902447Y-139464285D02*
X135902447Y-139464285D01*
X135902447Y-139464285D02*
X136902447Y-138892857D01*
X136902447Y-138892857D02*
X135902447Y-138892857D01*
X135902447Y-138511904D02*
X135902447Y-137845238D01*
X135902447Y-137845238D02*
X136902447Y-138273809D01*
X136235780Y-137035714D02*
X136902447Y-137035714D01*
X135854828Y-137273809D02*
X136569113Y-137511904D01*
X136569113Y-137511904D02*
X136569113Y-136892857D01*
X136902447Y-135988095D02*
X136902447Y-136559523D01*
X136902447Y-136273809D02*
X135902447Y-136273809D01*
X135902447Y-136273809D02*
X136045304Y-136369047D01*
X136045304Y-136369047D02*
X136140542Y-136464285D01*
X136140542Y-136464285D02*
X136188161Y-136559523D01*
X136331018Y-135416666D02*
X136283399Y-135511904D01*
X136283399Y-135511904D02*
X136235780Y-135559523D01*
X136235780Y-135559523D02*
X136140542Y-135607142D01*
X136140542Y-135607142D02*
X136092923Y-135607142D01*
X136092923Y-135607142D02*
X135997685Y-135559523D01*
X135997685Y-135559523D02*
X135950066Y-135511904D01*
X135950066Y-135511904D02*
X135902447Y-135416666D01*
X135902447Y-135416666D02*
X135902447Y-135226190D01*
X135902447Y-135226190D02*
X135950066Y-135130952D01*
X135950066Y-135130952D02*
X135997685Y-135083333D01*
X135997685Y-135083333D02*
X136092923Y-135035714D01*
X136092923Y-135035714D02*
X136140542Y-135035714D01*
X136140542Y-135035714D02*
X136235780Y-135083333D01*
X136235780Y-135083333D02*
X136283399Y-135130952D01*
X136283399Y-135130952D02*
X136331018Y-135226190D01*
X136331018Y-135226190D02*
X136331018Y-135416666D01*
X136331018Y-135416666D02*
X136378637Y-135511904D01*
X136378637Y-135511904D02*
X136426256Y-135559523D01*
X136426256Y-135559523D02*
X136521494Y-135607142D01*
X136521494Y-135607142D02*
X136711970Y-135607142D01*
X136711970Y-135607142D02*
X136807208Y-135559523D01*
X136807208Y-135559523D02*
X136854828Y-135511904D01*
X136854828Y-135511904D02*
X136902447Y-135416666D01*
X136902447Y-135416666D02*
X136902447Y-135226190D01*
X136902447Y-135226190D02*
X136854828Y-135130952D01*
X136854828Y-135130952D02*
X136807208Y-135083333D01*
X136807208Y-135083333D02*
X136711970Y-135035714D01*
X136711970Y-135035714D02*
X136521494Y-135035714D01*
X136521494Y-135035714D02*
X136426256Y-135083333D01*
X136426256Y-135083333D02*
X136378637Y-135130952D01*
X136378637Y-135130952D02*
X136331018Y-135226190D01*
X136902447Y-134559523D02*
X136902447Y-134369047D01*
X136902447Y-134369047D02*
X136854828Y-134273809D01*
X136854828Y-134273809D02*
X136807208Y-134226190D01*
X136807208Y-134226190D02*
X136664351Y-134130952D01*
X136664351Y-134130952D02*
X136473875Y-134083333D01*
X136473875Y-134083333D02*
X136092923Y-134083333D01*
X136092923Y-134083333D02*
X135997685Y-134130952D01*
X135997685Y-134130952D02*
X135950066Y-134178571D01*
X135950066Y-134178571D02*
X135902447Y-134273809D01*
X135902447Y-134273809D02*
X135902447Y-134464285D01*
X135902447Y-134464285D02*
X135950066Y-134559523D01*
X135950066Y-134559523D02*
X135997685Y-134607142D01*
X135997685Y-134607142D02*
X136092923Y-134654761D01*
X136092923Y-134654761D02*
X136331018Y-134654761D01*
X136331018Y-134654761D02*
X136426256Y-134607142D01*
X136426256Y-134607142D02*
X136473875Y-134559523D01*
X136473875Y-134559523D02*
X136521494Y-134464285D01*
X136521494Y-134464285D02*
X136521494Y-134273809D01*
X136521494Y-134273809D02*
X136473875Y-134178571D01*
X136473875Y-134178571D02*
X136426256Y-134130952D01*
X136426256Y-134130952D02*
X136331018Y-134083333D01*
X136902447Y-133654761D02*
X135902447Y-133654761D01*
X135902447Y-133654761D02*
X136902447Y-133083333D01*
X136902447Y-133083333D02*
X135902447Y-133083333D01*
X138512391Y-140178571D02*
X138512391Y-140749999D01*
X138512391Y-140464285D02*
X137512391Y-140464285D01*
X137512391Y-140464285D02*
X137655248Y-140559523D01*
X137655248Y-140559523D02*
X137750486Y-140654761D01*
X137750486Y-140654761D02*
X137798105Y-140749999D01*
X137512391Y-139321428D02*
X137512391Y-139511904D01*
X137512391Y-139511904D02*
X137560010Y-139607142D01*
X137560010Y-139607142D02*
X137607629Y-139654761D01*
X137607629Y-139654761D02*
X137750486Y-139749999D01*
X137750486Y-139749999D02*
X137940962Y-139797618D01*
X137940962Y-139797618D02*
X138321914Y-139797618D01*
X138321914Y-139797618D02*
X138417152Y-139749999D01*
X138417152Y-139749999D02*
X138464772Y-139702380D01*
X138464772Y-139702380D02*
X138512391Y-139607142D01*
X138512391Y-139607142D02*
X138512391Y-139416666D01*
X138512391Y-139416666D02*
X138464772Y-139321428D01*
X138464772Y-139321428D02*
X138417152Y-139273809D01*
X138417152Y-139273809D02*
X138321914Y-139226190D01*
X138321914Y-139226190D02*
X138083819Y-139226190D01*
X138083819Y-139226190D02*
X137988581Y-139273809D01*
X137988581Y-139273809D02*
X137940962Y-139321428D01*
X137940962Y-139321428D02*
X137893343Y-139416666D01*
X137893343Y-139416666D02*
X137893343Y-139607142D01*
X137893343Y-139607142D02*
X137940962Y-139702380D01*
X137940962Y-139702380D02*
X137988581Y-139749999D01*
X137988581Y-139749999D02*
X138083819Y-139797618D01*
X138512391Y-138892856D02*
X137845724Y-138369047D01*
X137845724Y-138892856D02*
X138512391Y-138369047D01*
X137845724Y-137559523D02*
X138512391Y-137559523D01*
X137464772Y-137797618D02*
X138179057Y-138035713D01*
X138179057Y-138035713D02*
X138179057Y-137416666D01*
X138464772Y-136321427D02*
X138512391Y-136178570D01*
X138512391Y-136178570D02*
X138512391Y-135940475D01*
X138512391Y-135940475D02*
X138464772Y-135845237D01*
X138464772Y-135845237D02*
X138417152Y-135797618D01*
X138417152Y-135797618D02*
X138321914Y-135749999D01*
X138321914Y-135749999D02*
X138226676Y-135749999D01*
X138226676Y-135749999D02*
X138131438Y-135797618D01*
X138131438Y-135797618D02*
X138083819Y-135845237D01*
X138083819Y-135845237D02*
X138036200Y-135940475D01*
X138036200Y-135940475D02*
X137988581Y-136130951D01*
X137988581Y-136130951D02*
X137940962Y-136226189D01*
X137940962Y-136226189D02*
X137893343Y-136273808D01*
X137893343Y-136273808D02*
X137798105Y-136321427D01*
X137798105Y-136321427D02*
X137702867Y-136321427D01*
X137702867Y-136321427D02*
X137607629Y-136273808D01*
X137607629Y-136273808D02*
X137560010Y-136226189D01*
X137560010Y-136226189D02*
X137512391Y-136130951D01*
X137512391Y-136130951D02*
X137512391Y-135892856D01*
X137512391Y-135892856D02*
X137560010Y-135749999D01*
X138512391Y-134749999D02*
X138036200Y-135083332D01*
X138512391Y-135321427D02*
X137512391Y-135321427D01*
X137512391Y-135321427D02*
X137512391Y-134940475D01*
X137512391Y-134940475D02*
X137560010Y-134845237D01*
X137560010Y-134845237D02*
X137607629Y-134797618D01*
X137607629Y-134797618D02*
X137702867Y-134749999D01*
X137702867Y-134749999D02*
X137845724Y-134749999D01*
X137845724Y-134749999D02*
X137940962Y-134797618D01*
X137940962Y-134797618D02*
X137988581Y-134845237D01*
X137988581Y-134845237D02*
X138036200Y-134940475D01*
X138036200Y-134940475D02*
X138036200Y-135321427D01*
X138226676Y-134369046D02*
X138226676Y-133892856D01*
X138512391Y-134464284D02*
X137512391Y-134130951D01*
X137512391Y-134130951D02*
X138512391Y-133797618D01*
X138512391Y-133464284D02*
X137512391Y-133464284D01*
X137512391Y-133464284D02*
X138226676Y-133130951D01*
X138226676Y-133130951D02*
X137512391Y-132797618D01*
X137512391Y-132797618D02*
X138512391Y-132797618D01*
D12*
X132345238Y-109734438D02*
X132821428Y-111734438D01*
X132821428Y-111734438D02*
X133202381Y-110305866D01*
X133202381Y-110305866D02*
X133583333Y-111734438D01*
X133583333Y-111734438D02*
X134059524Y-109734438D01*
X135202380Y-109734438D02*
X135583333Y-109734438D01*
X135583333Y-109734438D02*
X135773809Y-109829676D01*
X135773809Y-109829676D02*
X135964285Y-110020152D01*
X135964285Y-110020152D02*
X136059523Y-110401104D01*
X136059523Y-110401104D02*
X136059523Y-111067771D01*
X136059523Y-111067771D02*
X135964285Y-111448723D01*
X135964285Y-111448723D02*
X135773809Y-111639200D01*
X135773809Y-111639200D02*
X135583333Y-111734438D01*
X135583333Y-111734438D02*
X135202380Y-111734438D01*
X135202380Y-111734438D02*
X135011904Y-111639200D01*
X135011904Y-111639200D02*
X134821428Y-111448723D01*
X134821428Y-111448723D02*
X134726190Y-111067771D01*
X134726190Y-111067771D02*
X134726190Y-110401104D01*
X134726190Y-110401104D02*
X134821428Y-110020152D01*
X134821428Y-110020152D02*
X135011904Y-109829676D01*
X135011904Y-109829676D02*
X135202380Y-109734438D01*
X138059523Y-111734438D02*
X137392856Y-110782057D01*
X136916666Y-111734438D02*
X136916666Y-109734438D01*
X136916666Y-109734438D02*
X137678571Y-109734438D01*
X137678571Y-109734438D02*
X137869047Y-109829676D01*
X137869047Y-109829676D02*
X137964285Y-109924914D01*
X137964285Y-109924914D02*
X138059523Y-110115390D01*
X138059523Y-110115390D02*
X138059523Y-110401104D01*
X138059523Y-110401104D02*
X137964285Y-110591580D01*
X137964285Y-110591580D02*
X137869047Y-110686819D01*
X137869047Y-110686819D02*
X137678571Y-110782057D01*
X137678571Y-110782057D02*
X136916666Y-110782057D01*
X138916666Y-111734438D02*
X138916666Y-109734438D01*
X138916666Y-109734438D02*
X139392856Y-109734438D01*
X139392856Y-109734438D02*
X139678571Y-109829676D01*
X139678571Y-109829676D02*
X139869047Y-110020152D01*
X139869047Y-110020152D02*
X139964285Y-110210628D01*
X139964285Y-110210628D02*
X140059523Y-110591580D01*
X140059523Y-110591580D02*
X140059523Y-110877295D01*
X140059523Y-110877295D02*
X139964285Y-111258247D01*
X139964285Y-111258247D02*
X139869047Y-111448723D01*
X139869047Y-111448723D02*
X139678571Y-111639200D01*
X139678571Y-111639200D02*
X139392856Y-111734438D01*
X139392856Y-111734438D02*
X138916666Y-111734438D01*
D11*
X101916504Y-141738094D02*
X101916504Y-141261904D01*
X102202219Y-141833332D02*
X101202219Y-141499999D01*
X101202219Y-141499999D02*
X102202219Y-141166666D01*
X102202219Y-140833332D02*
X101202219Y-140833332D01*
X101202219Y-140833332D02*
X101202219Y-140595237D01*
X101202219Y-140595237D02*
X101249838Y-140452380D01*
X101249838Y-140452380D02*
X101345076Y-140357142D01*
X101345076Y-140357142D02*
X101440314Y-140309523D01*
X101440314Y-140309523D02*
X101630790Y-140261904D01*
X101630790Y-140261904D02*
X101773647Y-140261904D01*
X101773647Y-140261904D02*
X101964123Y-140309523D01*
X101964123Y-140309523D02*
X102059361Y-140357142D01*
X102059361Y-140357142D02*
X102154600Y-140452380D01*
X102154600Y-140452380D02*
X102202219Y-140595237D01*
X102202219Y-140595237D02*
X102202219Y-140833332D01*
X102202219Y-139833332D02*
X101202219Y-139833332D01*
X101202219Y-139833332D02*
X101202219Y-139595237D01*
X101202219Y-139595237D02*
X101249838Y-139452380D01*
X101249838Y-139452380D02*
X101345076Y-139357142D01*
X101345076Y-139357142D02*
X101440314Y-139309523D01*
X101440314Y-139309523D02*
X101630790Y-139261904D01*
X101630790Y-139261904D02*
X101773647Y-139261904D01*
X101773647Y-139261904D02*
X101964123Y-139309523D01*
X101964123Y-139309523D02*
X102059361Y-139357142D01*
X102059361Y-139357142D02*
X102154600Y-139452380D01*
X102154600Y-139452380D02*
X102202219Y-139595237D01*
X102202219Y-139595237D02*
X102202219Y-139833332D01*
X102202219Y-138261904D02*
X101726028Y-138595237D01*
X102202219Y-138833332D02*
X101202219Y-138833332D01*
X101202219Y-138833332D02*
X101202219Y-138452380D01*
X101202219Y-138452380D02*
X101249838Y-138357142D01*
X101249838Y-138357142D02*
X101297457Y-138309523D01*
X101297457Y-138309523D02*
X101392695Y-138261904D01*
X101392695Y-138261904D02*
X101535552Y-138261904D01*
X101535552Y-138261904D02*
X101630790Y-138309523D01*
X101630790Y-138309523D02*
X101678409Y-138357142D01*
X101678409Y-138357142D02*
X101726028Y-138452380D01*
X101726028Y-138452380D02*
X101726028Y-138833332D01*
X106238095Y-104999838D02*
X106142857Y-104952219D01*
X106142857Y-104952219D02*
X106000000Y-104952219D01*
X106000000Y-104952219D02*
X105857143Y-104999838D01*
X105857143Y-104999838D02*
X105761905Y-105095076D01*
X105761905Y-105095076D02*
X105714286Y-105190314D01*
X105714286Y-105190314D02*
X105666667Y-105380790D01*
X105666667Y-105380790D02*
X105666667Y-105523647D01*
X105666667Y-105523647D02*
X105714286Y-105714123D01*
X105714286Y-105714123D02*
X105761905Y-105809361D01*
X105761905Y-105809361D02*
X105857143Y-105904600D01*
X105857143Y-105904600D02*
X106000000Y-105952219D01*
X106000000Y-105952219D02*
X106095238Y-105952219D01*
X106095238Y-105952219D02*
X106238095Y-105904600D01*
X106238095Y-105904600D02*
X106285714Y-105856980D01*
X106285714Y-105856980D02*
X106285714Y-105523647D01*
X106285714Y-105523647D02*
X106095238Y-105523647D01*
X106714286Y-105952219D02*
X106714286Y-104952219D01*
X106714286Y-104952219D02*
X107285714Y-105952219D01*
X107285714Y-105952219D02*
X107285714Y-104952219D01*
X107761905Y-105952219D02*
X107761905Y-104952219D01*
X107761905Y-104952219D02*
X108000000Y-104952219D01*
X108000000Y-104952219D02*
X108142857Y-104999838D01*
X108142857Y-104999838D02*
X108238095Y-105095076D01*
X108238095Y-105095076D02*
X108285714Y-105190314D01*
X108285714Y-105190314D02*
X108333333Y-105380790D01*
X108333333Y-105380790D02*
X108333333Y-105523647D01*
X108333333Y-105523647D02*
X108285714Y-105714123D01*
X108285714Y-105714123D02*
X108238095Y-105809361D01*
X108238095Y-105809361D02*
X108142857Y-105904600D01*
X108142857Y-105904600D02*
X108000000Y-105952219D01*
X108000000Y-105952219D02*
X107761905Y-105952219D01*
D14*
%TO.C,LED_BLUE6*%
X139108571Y-106275000D02*
X139108571Y-108960000D01*
X139108571Y-108960000D02*
X141028571Y-108960000D01*
X141028571Y-108960000D02*
X141028571Y-106275000D01*
%TO.C,J3*%
X105895000Y-104580000D02*
X105895000Y-103250000D01*
X107225000Y-104580000D02*
X105895000Y-104580000D01*
X108495000Y-101920000D02*
X111095000Y-101920000D01*
X108495000Y-104580000D02*
X108495000Y-101920000D01*
X108495000Y-104580000D02*
X111095000Y-104580000D01*
X111095000Y-104580000D02*
X111095000Y-101920000D01*
%TO.C,LED_BLUE5*%
X136585714Y-106275000D02*
X136585714Y-108960000D01*
X136585714Y-108960000D02*
X138505714Y-108960000D01*
X138505714Y-108960000D02*
X138505714Y-106275000D01*
%TO.C,LED_BLUE2*%
X129017143Y-106275000D02*
X129017143Y-108960000D01*
X129017143Y-108960000D02*
X130937143Y-108960000D01*
X130937143Y-108960000D02*
X130937143Y-106275000D01*
%TO.C,J4*%
X146420000Y-130350000D02*
X146420000Y-109970000D01*
X149080000Y-109970000D02*
X146420000Y-109970000D01*
X149080000Y-130350000D02*
X146420000Y-130350000D01*
X149080000Y-130350000D02*
X149080000Y-109970000D01*
X149080000Y-131620000D02*
X149080000Y-132950000D01*
X149080000Y-132950000D02*
X147750000Y-132950000D01*
%TO.C,100\u03A91114*%
X139352856Y-103902064D02*
X139352856Y-103447936D01*
X140822856Y-103902064D02*
X140822856Y-103447936D01*
%TO.C,100\u03A9113*%
X122908571Y-103902064D02*
X122908571Y-103447936D01*
X124378571Y-103902064D02*
X124378571Y-103447936D01*
%TO.C,LED_YELLOW1*%
X115070000Y-106275000D02*
X115070000Y-108960000D01*
X115070000Y-108960000D02*
X116990000Y-108960000D01*
X116990000Y-108960000D02*
X116990000Y-106275000D01*
%TO.C,J2*%
X103330000Y-129034265D02*
X103330000Y-108654265D01*
X105990000Y-108654265D02*
X103330000Y-108654265D01*
X105990000Y-129034265D02*
X103330000Y-129034265D01*
X105990000Y-129034265D02*
X105990000Y-108654265D01*
X105990000Y-130304265D02*
X105990000Y-131634265D01*
X105990000Y-131634265D02*
X104660000Y-131634265D01*
%TO.C,LED_YELLOW2*%
X117592857Y-106275000D02*
X117592857Y-108960000D01*
X117592857Y-108960000D02*
X119512857Y-108960000D01*
X119512857Y-108960000D02*
X119512857Y-106275000D01*
%TO.C,LED_BLUE4*%
X134062857Y-106275000D02*
X134062857Y-108960000D01*
X134062857Y-108960000D02*
X135982857Y-108960000D01*
X135982857Y-108960000D02*
X135982857Y-106275000D01*
%TO.C,J1*%
X103330000Y-144994265D02*
X103330000Y-134774265D01*
X105990000Y-134774265D02*
X103330000Y-134774265D01*
X105990000Y-144994265D02*
X103330000Y-144994265D01*
X105990000Y-144994265D02*
X105990000Y-134774265D01*
X105990000Y-146264265D02*
X105990000Y-147594265D01*
X105990000Y-147594265D02*
X104660000Y-147594265D01*
%TO.C,100\u03A9111*%
X117817857Y-103902064D02*
X117817857Y-103447936D01*
X119287857Y-103902064D02*
X119287857Y-103447936D01*
%TO.C,LED_BLUE3*%
X131540000Y-106275000D02*
X131540000Y-108960000D01*
X131540000Y-108960000D02*
X133460000Y-108960000D01*
X133460000Y-108960000D02*
X133460000Y-106275000D01*
%TO.C,100\u03A91112*%
X134281428Y-103902064D02*
X134281428Y-103447936D01*
X135751428Y-103902064D02*
X135751428Y-103447936D01*
%TO.C,LED_BLUE8*%
X144154286Y-106275000D02*
X144154286Y-108960000D01*
X144154286Y-108960000D02*
X146074286Y-108960000D01*
X146074286Y-108960000D02*
X146074286Y-106275000D01*
%TO.C,100\u03A911*%
X115250000Y-103902064D02*
X115250000Y-103447936D01*
X116720000Y-103902064D02*
X116720000Y-103447936D01*
%TO.C,100\u03A912*%
X126674286Y-103902064D02*
X126674286Y-103447936D01*
X128144286Y-103902064D02*
X128144286Y-103447936D01*
%TO.C,100\u03A91116*%
X144424286Y-103902064D02*
X144424286Y-103447936D01*
X145894286Y-103902064D02*
X145894286Y-103447936D01*
%TO.C,LED_BLUE7*%
X141631428Y-106275000D02*
X141631428Y-108960000D01*
X141631428Y-108960000D02*
X143551428Y-108960000D01*
X143551428Y-108960000D02*
X143551428Y-106275000D01*
%TO.C,100\u03A9114*%
X129210000Y-103902064D02*
X129210000Y-103447936D01*
X130680000Y-103902064D02*
X130680000Y-103447936D01*
%TO.C,100\u03A91115*%
X141888570Y-103902064D02*
X141888570Y-103447936D01*
X143358570Y-103902064D02*
X143358570Y-103447936D01*
%TO.C,LED_BLUE1*%
X126494286Y-106275000D02*
X126494286Y-108960000D01*
X126494286Y-108960000D02*
X128414286Y-108960000D01*
X128414286Y-108960000D02*
X128414286Y-106275000D01*
%TO.C,100\u03A91111*%
X131745714Y-103902064D02*
X131745714Y-103447936D01*
X133215714Y-103902064D02*
X133215714Y-103447936D01*
%TO.C,100\u03A91113*%
X136817142Y-103902064D02*
X136817142Y-103447936D01*
X138287142Y-103902064D02*
X138287142Y-103447936D01*
%TO.C,100\u03A9112*%
X120370714Y-103902064D02*
X120370714Y-103447936D01*
X121840714Y-103902064D02*
X121840714Y-103447936D01*
%TO.C,LED_YELLOW4*%
X122638571Y-106275000D02*
X122638571Y-108960000D01*
X122638571Y-108960000D02*
X124558571Y-108960000D01*
X124558571Y-108960000D02*
X124558571Y-106275000D01*
%TO.C,LED_YELLOW3*%
X120115714Y-106275000D02*
X120115714Y-108960000D01*
X120115714Y-108960000D02*
X122035714Y-108960000D01*
X122035714Y-108960000D02*
X122035714Y-106275000D01*
%TD*%
M02*
