%TF.GenerationSoftware,KiCad,Pcbnew,8.0.4*%
%TF.CreationDate,2024-11-02T16:38:00-04:00*%
%TF.ProjectId,ExamplePCB,4578616d-706c-4655-9043-422e6b696361,rev?*%
%TF.SameCoordinates,Original*%
%TF.FileFunction,Copper,L1,Top*%
%TF.FilePolarity,Positive*%
%FSLAX46Y46*%
G04 Gerber Fmt 4.6, Leading zero omitted, Abs format (unit mm)*
G04 Created by KiCad (PCBNEW 8.0.4) date 2024-11-02 16:38:00*
%MOMM*%
%LPD*%
G01*
G04 APERTURE LIST*
G04 Aperture macros list*
%AMRoundRect*
0 Rectangle with rounded corners*
0 $1 Rounding radius*
0 $2 $3 $4 $5 $6 $7 $8 $9 X,Y pos of 4 corners*
0 Add a 4 corners polygon primitive as box body*
4,1,4,$2,$3,$4,$5,$6,$7,$8,$9,$2,$3,0*
0 Add four circle primitives for the rounded corners*
1,1,$1+$1,$2,$3*
1,1,$1+$1,$4,$5*
1,1,$1+$1,$6,$7*
1,1,$1+$1,$8,$9*
0 Add four rect primitives between the rounded corners*
20,1,$1+$1,$2,$3,$4,$5,0*
20,1,$1+$1,$4,$5,$6,$7,0*
20,1,$1+$1,$6,$7,$8,$9,0*
20,1,$1+$1,$8,$9,$2,$3,0*%
G04 Aperture macros list end*
%TA.AperFunction,SMDPad,CuDef*%
%ADD10RoundRect,0.243750X0.456250X-0.243750X0.456250X0.243750X-0.456250X0.243750X-0.456250X-0.243750X0*%
%TD*%
%TA.AperFunction,ComponentPad*%
%ADD11R,1.700000X1.700000*%
%TD*%
%TA.AperFunction,ComponentPad*%
%ADD12O,1.700000X1.700000*%
%TD*%
%TA.AperFunction,SMDPad,CuDef*%
%ADD13RoundRect,0.250000X0.450000X-0.262500X0.450000X0.262500X-0.450000X0.262500X-0.450000X-0.262500X0*%
%TD*%
%TA.AperFunction,ComponentPad*%
%ADD14R,1.440000X2.000000*%
%TD*%
%TA.AperFunction,ComponentPad*%
%ADD15O,1.440000X2.000000*%
%TD*%
%TA.AperFunction,ComponentPad*%
%ADD16R,2.000000X1.440000*%
%TD*%
%TA.AperFunction,ComponentPad*%
%ADD17O,2.000000X1.440000*%
%TD*%
%TA.AperFunction,ViaPad*%
%ADD18C,0.600000*%
%TD*%
%TA.AperFunction,Conductor*%
%ADD19C,0.200000*%
%TD*%
G04 APERTURE END LIST*
D10*
%TO.P,LED_BLUE6,1*%
%TO.N,Net-(74HC2-Y2)*%
X140068571Y-108212500D03*
%TO.P,LED_BLUE6,2*%
%TO.N,Net-(100\u03A91114-Pad1)*%
X140068571Y-106337500D03*
%TD*%
D11*
%TO.P,J3,1,Pin_1*%
%TO.N,GND*%
X107225000Y-103250000D03*
D12*
%TO.P,J3,2,Pin_2*%
%TO.N,+5V*%
X109765000Y-103250000D03*
%TD*%
D10*
%TO.P,LED_BLUE5,1*%
%TO.N,Net-(74HC2-Y1)*%
X137545714Y-108212500D03*
%TO.P,LED_BLUE5,2*%
%TO.N,Net-(100\u03A91113-Pad1)*%
X137545714Y-106337500D03*
%TD*%
%TO.P,LED_BLUE2,1*%
%TO.N,Net-(74HC1-Y2)*%
X129977143Y-108212500D03*
%TO.P,LED_BLUE2,2*%
%TO.N,Net-(100\u03A9114-Pad1)*%
X129977143Y-106337500D03*
%TD*%
D11*
%TO.P,J4,1,Pin_1*%
%TO.N,GND*%
X147750000Y-131620000D03*
D12*
%TO.P,J4,2,Pin_2*%
%TO.N,Net-(74HC1-Y1)*%
X147750000Y-129080000D03*
%TO.P,J4,3,Pin_3*%
%TO.N,Net-(74HC1-Y2)*%
X147750000Y-126540000D03*
%TO.P,J4,4,Pin_4*%
%TO.N,Net-(74HC1-Y3)*%
X147750000Y-124000000D03*
%TO.P,J4,5,Pin_5*%
%TO.N,Net-(74HC1-Y4)*%
X147750000Y-121460000D03*
%TO.P,J4,6,Pin_6*%
%TO.N,Net-(74HC2-Y1)*%
X147750000Y-118920000D03*
%TO.P,J4,7,Pin_7*%
%TO.N,Net-(74HC2-Y2)*%
X147750000Y-116380000D03*
%TO.P,J4,8,Pin_8*%
%TO.N,Net-(74HC2-Y3)*%
X147750000Y-113840000D03*
%TO.P,J4,9,Pin_9*%
%TO.N,Net-(74HC2-Y4)*%
X147750000Y-111300000D03*
%TD*%
D13*
%TO.P,100\u03A91114,1*%
%TO.N,Net-(100\u03A91114-Pad1)*%
X140087856Y-104587500D03*
%TO.P,100\u03A91114,2*%
%TO.N,GND*%
X140087856Y-102762500D03*
%TD*%
D14*
%TO.P,74HC1,1,A1*%
%TO.N,Net-(74HC1-A1)*%
X108920000Y-121080000D03*
D15*
%TO.P,74HC1,2,Y1*%
%TO.N,Net-(74HC1-Y1)*%
X111460000Y-121080000D03*
%TO.P,74HC1,3,A2*%
%TO.N,Net-(74HC1-A2)*%
X114000000Y-121080000D03*
%TO.P,74HC1,4,Y2*%
%TO.N,Net-(74HC1-Y2)*%
X116540000Y-121080000D03*
%TO.P,74HC1,5,A3*%
%TO.N,Net-(74HC1-A3)*%
X119080000Y-121080000D03*
%TO.P,74HC1,6,Y3*%
%TO.N,Net-(74HC1-Y3)*%
X121620000Y-121080000D03*
%TO.P,74HC1,7,GND*%
%TO.N,GND*%
X124160000Y-121080000D03*
%TO.P,74HC1,8,Y4*%
%TO.N,Net-(74HC1-Y4)*%
X124160000Y-113460000D03*
%TO.P,74HC1,9,A4*%
%TO.N,Net-(74HC1-A4)*%
X121620000Y-113460000D03*
%TO.P,74HC1,10,Y5*%
%TO.N,unconnected-(74HC1-Y5-Pad10)*%
X119080000Y-113460000D03*
%TO.P,74HC1,11,A5*%
%TO.N,unconnected-(74HC1-A5-Pad11)*%
X116540000Y-113460000D03*
%TO.P,74HC1,12,Y6*%
%TO.N,unconnected-(74HC1-Y6-Pad12)*%
X114000000Y-113460000D03*
%TO.P,74HC1,13,A6*%
%TO.N,unconnected-(74HC1-A6-Pad13)*%
X111460000Y-113460000D03*
%TO.P,74HC1,14,VCC*%
%TO.N,+5V*%
X108920000Y-113460000D03*
%TD*%
D16*
%TO.P,SN74189N1,1,A0*%
%TO.N,Net-(J1-Pin_2)*%
X114760000Y-128960000D03*
D17*
%TO.P,SN74189N1,2,ME*%
%TO.N,GND*%
X114760000Y-131500000D03*
%TO.P,SN74189N1,3,WE*%
%TO.N,Net-(J2-Pin_1)*%
X114760000Y-134040000D03*
%TO.P,SN74189N1,4,D1*%
%TO.N,Net-(J2-Pin_2)*%
X114760000Y-136580000D03*
%TO.P,SN74189N1,5,S1*%
%TO.N,Net-(74HC1-A1)*%
X114760000Y-139120000D03*
%TO.P,SN74189N1,6,D2*%
%TO.N,Net-(J2-Pin_3)*%
X114760000Y-141660000D03*
%TO.P,SN74189N1,7,S2*%
%TO.N,Net-(74HC1-A2)*%
X114760000Y-144200000D03*
%TO.P,SN74189N1,8,GND*%
%TO.N,GND*%
X114760000Y-146740000D03*
%TO.P,SN74189N1,9,S3*%
%TO.N,Net-(74HC1-A3)*%
X122380000Y-146740000D03*
%TO.P,SN74189N1,10,D3*%
%TO.N,Net-(J2-Pin_4)*%
X122380000Y-144200000D03*
%TO.P,SN74189N1,11,S4*%
%TO.N,Net-(74HC1-A4)*%
X122380000Y-141660000D03*
%TO.P,SN74189N1,12,D4*%
%TO.N,Net-(J2-Pin_5)*%
X122380000Y-139120000D03*
%TO.P,SN74189N1,13,A3*%
%TO.N,Net-(J1-Pin_5)*%
X122380000Y-136580000D03*
%TO.P,SN74189N1,14,A2*%
%TO.N,Net-(J1-Pin_4)*%
X122380000Y-134040000D03*
%TO.P,SN74189N1,15,A1*%
%TO.N,Net-(J1-Pin_3)*%
X122380000Y-131500000D03*
%TO.P,SN74189N1,16,VCC*%
%TO.N,+5V*%
X122380000Y-128960000D03*
%TD*%
D13*
%TO.P,100\u03A9113,1*%
%TO.N,Net-(100\u03A9113-Pad1)*%
X123643571Y-104587500D03*
%TO.P,100\u03A9113,2*%
%TO.N,GND*%
X123643571Y-102762500D03*
%TD*%
D10*
%TO.P,LED_YELLOW1,1*%
%TO.N,Net-(J1-Pin_2)*%
X116030000Y-108212500D03*
%TO.P,LED_YELLOW1,2*%
%TO.N,Net-(100\u03A911-Pad1)*%
X116030000Y-106337500D03*
%TD*%
D11*
%TO.P,J2,1,Pin_1*%
%TO.N,Net-(J2-Pin_1)*%
X104660000Y-130304265D03*
D12*
%TO.P,J2,2,Pin_2*%
%TO.N,Net-(J2-Pin_2)*%
X104660000Y-127764265D03*
%TO.P,J2,3,Pin_3*%
%TO.N,Net-(J2-Pin_3)*%
X104660000Y-125224265D03*
%TO.P,J2,4,Pin_4*%
%TO.N,Net-(J2-Pin_4)*%
X104660000Y-122684265D03*
%TO.P,J2,5,Pin_5*%
%TO.N,Net-(J2-Pin_5)*%
X104660000Y-120144265D03*
%TO.P,J2,6,Pin_6*%
%TO.N,Net-(J2-Pin_6)*%
X104660000Y-117604265D03*
%TO.P,J2,7,Pin_7*%
%TO.N,Net-(J2-Pin_7)*%
X104660000Y-115064265D03*
%TO.P,J2,8,Pin_8*%
%TO.N,Net-(J2-Pin_8)*%
X104660000Y-112524265D03*
%TO.P,J2,9,Pin_9*%
%TO.N,Net-(J2-Pin_9)*%
X104660000Y-109984265D03*
%TD*%
D10*
%TO.P,LED_YELLOW2,1*%
%TO.N,Net-(J1-Pin_3)*%
X118552857Y-108212500D03*
%TO.P,LED_YELLOW2,2*%
%TO.N,Net-(100\u03A9111-Pad1)*%
X118552857Y-106337500D03*
%TD*%
%TO.P,LED_BLUE4,1*%
%TO.N,Net-(74HC1-Y4)*%
X135022857Y-108212500D03*
%TO.P,LED_BLUE4,2*%
%TO.N,Net-(100\u03A91112-Pad1)*%
X135022857Y-106337500D03*
%TD*%
D14*
%TO.P,74HC2,1,A1*%
%TO.N,Net-(74HC2-A1)*%
X129250000Y-121080000D03*
D15*
%TO.P,74HC2,2,Y1*%
%TO.N,Net-(74HC2-Y1)*%
X131790000Y-121080000D03*
%TO.P,74HC2,3,A2*%
%TO.N,Net-(74HC2-A2)*%
X134330000Y-121080000D03*
%TO.P,74HC2,4,Y2*%
%TO.N,Net-(74HC2-Y2)*%
X136870000Y-121080000D03*
%TO.P,74HC2,5,A3*%
%TO.N,Net-(74HC2-A3)*%
X139410000Y-121080000D03*
%TO.P,74HC2,6,Y3*%
%TO.N,Net-(74HC2-Y3)*%
X141950000Y-121080000D03*
%TO.P,74HC2,7,GND*%
%TO.N,GND*%
X144490000Y-121080000D03*
%TO.P,74HC2,8,Y4*%
%TO.N,Net-(74HC2-Y4)*%
X144490000Y-113460000D03*
%TO.P,74HC2,9,A4*%
%TO.N,Net-(74HC2-A4)*%
X141950000Y-113460000D03*
%TO.P,74HC2,10,Y5*%
%TO.N,unconnected-(74HC2-Y5-Pad10)*%
X139410000Y-113460000D03*
%TO.P,74HC2,11,A5*%
%TO.N,unconnected-(74HC2-A5-Pad11)*%
X136870000Y-113460000D03*
%TO.P,74HC2,12,Y6*%
%TO.N,unconnected-(74HC2-Y6-Pad12)*%
X134330000Y-113460000D03*
%TO.P,74HC2,13,A6*%
%TO.N,unconnected-(74HC2-A6-Pad13)*%
X131790000Y-113460000D03*
%TO.P,74HC2,14,VCC*%
%TO.N,+5V*%
X129250000Y-113460000D03*
%TD*%
D11*
%TO.P,J1,1,Pin_1*%
%TO.N,GND*%
X104660000Y-146264265D03*
D12*
%TO.P,J1,2,Pin_2*%
%TO.N,Net-(J1-Pin_2)*%
X104660000Y-143724265D03*
%TO.P,J1,3,Pin_3*%
%TO.N,Net-(J1-Pin_3)*%
X104660000Y-141184265D03*
%TO.P,J1,4,Pin_4*%
%TO.N,Net-(J1-Pin_4)*%
X104660000Y-138644265D03*
%TO.P,J1,5,Pin_5*%
%TO.N,Net-(J1-Pin_5)*%
X104660000Y-136104265D03*
%TD*%
D13*
%TO.P,100\u03A9111,1*%
%TO.N,Net-(100\u03A9111-Pad1)*%
X118552857Y-104587500D03*
%TO.P,100\u03A9111,2*%
%TO.N,GND*%
X118552857Y-102762500D03*
%TD*%
D10*
%TO.P,LED_BLUE3,1*%
%TO.N,Net-(74HC1-Y3)*%
X132500000Y-108212500D03*
%TO.P,LED_BLUE3,2*%
%TO.N,Net-(100\u03A91111-Pad1)*%
X132500000Y-106337500D03*
%TD*%
D13*
%TO.P,100\u03A91112,1*%
%TO.N,Net-(100\u03A91112-Pad1)*%
X135016428Y-104587500D03*
%TO.P,100\u03A91112,2*%
%TO.N,GND*%
X135016428Y-102762500D03*
%TD*%
D10*
%TO.P,LED_BLUE8,1*%
%TO.N,Net-(74HC2-Y4)*%
X145114286Y-108212500D03*
%TO.P,LED_BLUE8,2*%
%TO.N,Net-(100\u03A91116-Pad1)*%
X145114286Y-106337500D03*
%TD*%
D16*
%TO.P,SN74189N2,1,A0*%
%TO.N,Net-(J1-Pin_2)*%
X133260000Y-128960000D03*
D17*
%TO.P,SN74189N2,2,ME*%
%TO.N,GND*%
X133260000Y-131500000D03*
%TO.P,SN74189N2,3,WE*%
%TO.N,Net-(J2-Pin_1)*%
X133260000Y-134040000D03*
%TO.P,SN74189N2,4,D1*%
%TO.N,Net-(J2-Pin_6)*%
X133260000Y-136580000D03*
%TO.P,SN74189N2,5,S1*%
%TO.N,Net-(74HC2-A1)*%
X133260000Y-139120000D03*
%TO.P,SN74189N2,6,D2*%
%TO.N,Net-(J2-Pin_7)*%
X133260000Y-141660000D03*
%TO.P,SN74189N2,7,S2*%
%TO.N,Net-(74HC2-A2)*%
X133260000Y-144200000D03*
%TO.P,SN74189N2,8,GND*%
%TO.N,GND*%
X133260000Y-146740000D03*
%TO.P,SN74189N2,9,S3*%
%TO.N,Net-(74HC2-A3)*%
X140880000Y-146740000D03*
%TO.P,SN74189N2,10,D3*%
%TO.N,Net-(J2-Pin_8)*%
X140880000Y-144200000D03*
%TO.P,SN74189N2,11,S4*%
%TO.N,Net-(74HC2-A4)*%
X140880000Y-141660000D03*
%TO.P,SN74189N2,12,D4*%
%TO.N,Net-(J2-Pin_9)*%
X140880000Y-139120000D03*
%TO.P,SN74189N2,13,A3*%
%TO.N,Net-(J1-Pin_5)*%
X140880000Y-136580000D03*
%TO.P,SN74189N2,14,A2*%
%TO.N,Net-(J1-Pin_4)*%
X140880000Y-134040000D03*
%TO.P,SN74189N2,15,A1*%
%TO.N,Net-(J1-Pin_3)*%
X140880000Y-131500000D03*
%TO.P,SN74189N2,16,VCC*%
%TO.N,+5V*%
X140880000Y-128960000D03*
%TD*%
D13*
%TO.P,100\u03A911,1*%
%TO.N,Net-(100\u03A911-Pad1)*%
X115985000Y-104587500D03*
%TO.P,100\u03A911,2*%
%TO.N,GND*%
X115985000Y-102762500D03*
%TD*%
%TO.P,100\u03A912,1*%
%TO.N,Net-(100\u03A912-Pad1)*%
X127409286Y-104587500D03*
%TO.P,100\u03A912,2*%
%TO.N,GND*%
X127409286Y-102762500D03*
%TD*%
%TO.P,100\u03A91116,1*%
%TO.N,Net-(100\u03A91116-Pad1)*%
X145159286Y-104587500D03*
%TO.P,100\u03A91116,2*%
%TO.N,GND*%
X145159286Y-102762500D03*
%TD*%
D10*
%TO.P,LED_BLUE7,1*%
%TO.N,Net-(74HC2-Y3)*%
X142591428Y-108212500D03*
%TO.P,LED_BLUE7,2*%
%TO.N,Net-(100\u03A91115-Pad1)*%
X142591428Y-106337500D03*
%TD*%
D13*
%TO.P,100\u03A9114,1*%
%TO.N,Net-(100\u03A9114-Pad1)*%
X129945000Y-104587500D03*
%TO.P,100\u03A9114,2*%
%TO.N,GND*%
X129945000Y-102762500D03*
%TD*%
%TO.P,100\u03A91115,1*%
%TO.N,Net-(100\u03A91115-Pad1)*%
X142623570Y-104587500D03*
%TO.P,100\u03A91115,2*%
%TO.N,GND*%
X142623570Y-102762500D03*
%TD*%
D10*
%TO.P,LED_BLUE1,1*%
%TO.N,Net-(74HC1-Y1)*%
X127454286Y-108212500D03*
%TO.P,LED_BLUE1,2*%
%TO.N,Net-(100\u03A912-Pad1)*%
X127454286Y-106337500D03*
%TD*%
D13*
%TO.P,100\u03A91111,1*%
%TO.N,Net-(100\u03A91111-Pad1)*%
X132480714Y-104587500D03*
%TO.P,100\u03A91111,2*%
%TO.N,GND*%
X132480714Y-102762500D03*
%TD*%
%TO.P,100\u03A91113,1*%
%TO.N,Net-(100\u03A91113-Pad1)*%
X137552142Y-104587500D03*
%TO.P,100\u03A91113,2*%
%TO.N,GND*%
X137552142Y-102762500D03*
%TD*%
%TO.P,100\u03A9112,1*%
%TO.N,Net-(100\u03A9112-Pad1)*%
X121105714Y-104587500D03*
%TO.P,100\u03A9112,2*%
%TO.N,GND*%
X121105714Y-102762500D03*
%TD*%
D10*
%TO.P,LED_YELLOW4,1*%
%TO.N,Net-(J1-Pin_5)*%
X123598571Y-108212500D03*
%TO.P,LED_YELLOW4,2*%
%TO.N,Net-(100\u03A9113-Pad1)*%
X123598571Y-106337500D03*
%TD*%
%TO.P,LED_YELLOW3,1*%
%TO.N,Net-(J1-Pin_4)*%
X121075714Y-108212500D03*
%TO.P,LED_YELLOW3,2*%
%TO.N,Net-(100\u03A9112-Pad1)*%
X121075714Y-106337500D03*
%TD*%
D18*
%TO.N,+5V*%
X130750000Y-115000000D03*
%TO.N,GND*%
X108000000Y-142000000D03*
X126760000Y-119780000D03*
X143420000Y-124460000D03*
X111660000Y-128444265D03*
X109000000Y-140500000D03*
%TO.N,Net-(J2-Pin_8)*%
X138194313Y-128025687D03*
%TO.N,Net-(J2-Pin_7)*%
X135260000Y-128960000D03*
%TO.N,Net-(J1-Pin_2)*%
X114500000Y-108234265D03*
%TO.N,Net-(J1-Pin_3)*%
X117165735Y-108834265D03*
%TO.N,Net-(J1-Pin_4)*%
X119750000Y-109250000D03*
%TO.N,Net-(J1-Pin_5)*%
X122500000Y-109250000D03*
%TO.N,Net-(J2-Pin_9)*%
X138760000Y-127460000D03*
%TD*%
D19*
%TO.N,GND*%
X136250000Y-108461089D02*
X136250000Y-103996072D01*
X134511089Y-110200000D02*
X136250000Y-108461089D01*
X129717502Y-110200000D02*
X134511089Y-110200000D01*
X126760000Y-113157502D02*
X129717502Y-110200000D01*
X126760000Y-119780000D02*
X126760000Y-113157502D01*
X136250000Y-103996072D02*
X135016428Y-102762500D01*
%TO.N,Net-(74HC2-Y2)*%
X143842498Y-122380000D02*
X138170000Y-122380000D01*
X138170000Y-122380000D02*
X136870000Y-121080000D01*
%TO.N,Net-(74HC2-Y1)*%
X144008183Y-122780000D02*
X144242498Y-122545685D01*
X133490000Y-122780000D02*
X144008183Y-122780000D01*
X131790000Y-121080000D02*
X133490000Y-122780000D01*
X131790000Y-119960000D02*
X131790000Y-121080000D01*
X135850000Y-115900000D02*
X131790000Y-119960000D01*
%TO.N,Net-(74HC2-Y2)*%
X137890000Y-120060000D02*
X136870000Y-121080000D01*
X137890000Y-110391071D02*
X137890000Y-120060000D01*
X140068571Y-108212500D02*
X137890000Y-110391071D01*
%TO.N,Net-(74HC2-Y3)*%
X140430000Y-119560000D02*
X141950000Y-121080000D01*
X142591428Y-108212500D02*
X140430000Y-110373928D01*
X140430000Y-110373928D02*
X140430000Y-119560000D01*
%TO.N,Net-(74HC2-Y4)*%
X144490000Y-108836786D02*
X145114286Y-108212500D01*
X144490000Y-113460000D02*
X144490000Y-108836786D01*
%TO.N,Net-(74HC2-Y1)*%
X135850000Y-109908214D02*
X137545714Y-108212500D01*
X135850000Y-115900000D02*
X135850000Y-109908214D01*
X145900000Y-120888184D02*
X144242498Y-122545685D01*
X145900000Y-120770000D02*
X145900000Y-120888184D01*
X144242498Y-122545685D02*
X144008184Y-122780000D01*
X147750000Y-118920000D02*
X145900000Y-120770000D01*
%TO.N,+5V*%
X130750000Y-114960000D02*
X129250000Y-113460000D01*
X130750000Y-115000000D02*
X130750000Y-114960000D01*
%TO.N,GND*%
X142650000Y-125230000D02*
X143420000Y-124460000D01*
X128310000Y-125230000D02*
X142650000Y-125230000D01*
X124160000Y-121080000D02*
X128310000Y-125230000D01*
%TO.N,Net-(74HC1-Y3)*%
X123000000Y-120340000D02*
X123560000Y-119780000D01*
X122260000Y-121080000D02*
X123000000Y-120340000D01*
X121620000Y-121080000D02*
X122260000Y-121080000D01*
%TO.N,Net-(74HC1-Y4)*%
X124160000Y-113203844D02*
X127563844Y-109800000D01*
X124160000Y-113460000D02*
X124160000Y-113203844D01*
%TO.N,Net-(74HC1-Y2)*%
X141405686Y-126540000D02*
X148180000Y-126540000D01*
X140805686Y-125940000D02*
X141405686Y-126540000D01*
X116540000Y-121080000D02*
X121400000Y-125940000D01*
X121400000Y-125940000D02*
X140805686Y-125940000D01*
X129189643Y-109000000D02*
X129977143Y-108212500D01*
X127232472Y-109000000D02*
X129189643Y-109000000D01*
X120500000Y-112857502D02*
X122957502Y-110400000D01*
X122957502Y-110400000D02*
X125832472Y-110400000D01*
X120500000Y-117120000D02*
X120500000Y-112857502D01*
X116540000Y-121080000D02*
X120500000Y-117120000D01*
X125832472Y-110400000D02*
X127232472Y-109000000D01*
%TO.N,Net-(74HC1-Y1)*%
X141911471Y-127611471D02*
X146281471Y-127611471D01*
X146281471Y-127611471D02*
X147830000Y-129160000D01*
X140640000Y-126340000D02*
X141911471Y-127611471D01*
X111460000Y-121080000D02*
X116720000Y-126340000D01*
X116720000Y-126340000D02*
X140640000Y-126340000D01*
X125666786Y-110000000D02*
X127454286Y-108212500D01*
X118060000Y-114480000D02*
X118060000Y-112690000D01*
X111460000Y-121080000D02*
X118060000Y-114480000D01*
X118060000Y-112690000D02*
X120750000Y-110000000D01*
X120750000Y-110000000D02*
X125666786Y-110000000D01*
%TO.N,+5V*%
X108920000Y-104095000D02*
X109765000Y-103250000D01*
X108920000Y-113460000D02*
X108920000Y-104095000D01*
X123400000Y-129980000D02*
X139860000Y-129980000D01*
X122380000Y-128960000D02*
X123400000Y-129980000D01*
X139860000Y-129980000D02*
X140880000Y-128960000D01*
%TO.N,GND*%
X103510000Y-115540611D02*
X104183654Y-116214265D01*
X133260000Y-131500000D02*
X132240000Y-130480000D01*
X115322500Y-102100000D02*
X108375000Y-102100000D01*
X145000000Y-109802518D02*
X146159286Y-108643232D01*
X133260000Y-146740000D02*
X133540000Y-146740000D01*
X146159286Y-103762500D02*
X145159286Y-102762500D01*
X103510000Y-106965000D02*
X107225000Y-103250000D01*
X108375000Y-102100000D02*
X107225000Y-103250000D01*
X108000000Y-141500000D02*
X109000000Y-140500000D01*
X132240000Y-130480000D02*
X115780000Y-130480000D01*
X106600000Y-125165686D02*
X109878579Y-128444265D01*
X145000000Y-119500000D02*
X145000000Y-109802518D01*
X104183654Y-116214265D02*
X104964265Y-116214265D01*
X134760000Y-147960000D02*
X141760000Y-147960000D01*
X143420000Y-121080000D02*
X145000000Y-119500000D01*
X103510000Y-115540611D02*
X103510000Y-106965000D01*
X104964265Y-116214265D02*
X106600000Y-117850000D01*
X141760000Y-147960000D02*
X147750000Y-141970000D01*
X106600000Y-117850000D02*
X106600000Y-125165686D01*
X108000000Y-142000000D02*
X108000000Y-141500000D01*
X145159286Y-102762500D02*
X115985000Y-102762500D01*
X115780000Y-130480000D02*
X114760000Y-131500000D01*
X146159286Y-108643232D02*
X146159286Y-103762500D01*
X109878579Y-128444265D02*
X111660000Y-128444265D01*
X115985000Y-102762500D02*
X115322500Y-102100000D01*
X147750000Y-141970000D02*
X147750000Y-132210000D01*
X133540000Y-146740000D02*
X134760000Y-147960000D01*
%TO.N,Net-(74HC1-Y4)*%
X133435357Y-109800000D02*
X135022857Y-108212500D01*
X127563844Y-109800000D02*
X133435357Y-109800000D01*
%TO.N,Net-(74HC2-Y2)*%
X145500000Y-120722498D02*
X145500000Y-119220000D01*
X145500000Y-119220000D02*
X148260000Y-116460000D01*
X143842498Y-122380000D02*
X145500000Y-120722498D01*
%TO.N,Net-(J2-Pin_8)*%
X137308626Y-127140000D02*
X109705686Y-127140000D01*
X105810000Y-115648579D02*
X105810000Y-113674265D01*
X107400000Y-117238578D02*
X105810001Y-115648579D01*
X138194313Y-128025687D02*
X137308626Y-127140000D01*
X105810000Y-113674265D02*
X104660000Y-112524265D01*
X107400000Y-124834314D02*
X107400000Y-117238578D01*
X105810001Y-115648579D02*
X105810000Y-115648579D01*
X109705686Y-127140000D02*
X107400000Y-124834314D01*
%TO.N,Net-(J2-Pin_7)*%
X134160000Y-127540000D02*
X109540000Y-127540000D01*
X135260000Y-128640000D02*
X134160000Y-127540000D01*
X107000000Y-117404265D02*
X104660000Y-115064265D01*
X107000000Y-125000000D02*
X107000000Y-117404265D01*
X135260000Y-128960000D02*
X135260000Y-128640000D01*
X109540000Y-127540000D02*
X107000000Y-125000000D01*
%TO.N,Net-(J2-Pin_6)*%
X114464265Y-140140000D02*
X129700000Y-140140000D01*
X104660000Y-117604265D02*
X101510000Y-120754265D01*
X129700000Y-140140000D02*
X133260000Y-136580000D01*
X110659999Y-146509951D02*
X110660000Y-146509951D01*
X103344314Y-147814265D02*
X109355685Y-147814265D01*
X101510000Y-145979951D02*
X103344314Y-147814265D01*
X109355685Y-147814265D02*
X110659999Y-146509951D01*
X110660000Y-146509951D02*
X110660000Y-143944265D01*
X110660000Y-143944265D02*
X114464265Y-140140000D01*
X101510000Y-120754265D02*
X101510000Y-145979951D01*
%TO.N,Net-(J2-Pin_5)*%
X110260000Y-141897502D02*
X114057502Y-138100000D01*
X103510000Y-147414265D02*
X109189999Y-147414265D01*
X110260000Y-146344264D02*
X110260000Y-141897502D01*
X114057502Y-138100000D02*
X121360000Y-138100000D01*
X101910000Y-145814265D02*
X103510000Y-147414265D01*
X101910000Y-122894265D02*
X101910000Y-145814265D01*
X109189999Y-147414265D02*
X110260000Y-146344264D01*
X104660000Y-120144265D02*
X101910000Y-122894265D01*
X121360000Y-138100000D02*
X122380000Y-139120000D01*
%TO.N,Net-(J2-Pin_2)*%
X109860000Y-143490611D02*
X109860000Y-141480000D01*
X102310000Y-144404265D02*
X102780000Y-144874265D01*
X104660000Y-127764265D02*
X106160000Y-129264265D01*
X106160000Y-129264265D02*
X106160000Y-131604265D01*
X102310000Y-135454265D02*
X102310000Y-144404265D01*
X106160000Y-131604265D02*
X102310000Y-135454265D01*
X109860000Y-141480000D02*
X114760000Y-136580000D01*
X102780000Y-144874265D02*
X108476346Y-144874265D01*
X108476346Y-144874265D02*
X109860000Y-143490611D01*
%TO.N,Net-(J1-Pin_2)*%
X114760000Y-128960000D02*
X115780000Y-127940000D01*
X109527968Y-129044265D02*
X114675735Y-129044265D01*
X102710000Y-135862233D02*
X109527968Y-129044265D01*
X114521765Y-108212500D02*
X116030000Y-108212500D01*
X114500000Y-108234265D02*
X114521765Y-108212500D01*
X102710000Y-141774265D02*
X102710000Y-135862233D01*
X132240000Y-127940000D02*
X133260000Y-128960000D01*
X115780000Y-127940000D02*
X132240000Y-127940000D01*
X114675735Y-129044265D02*
X114760000Y-128960000D01*
X104660000Y-143724265D02*
X102710000Y-141774265D01*
%TO.N,Net-(J1-Pin_3)*%
X104633654Y-134504265D02*
X112573237Y-134504265D01*
X103110000Y-139634265D02*
X103110000Y-136027919D01*
X117165735Y-108834265D02*
X117931092Y-108834265D01*
X121360000Y-132520000D02*
X122380000Y-131500000D01*
X103110000Y-136027919D02*
X104633654Y-134504265D01*
X123400000Y-132520000D02*
X139860000Y-132520000D01*
X112573237Y-134504265D02*
X114557502Y-132520000D01*
X117931092Y-108834265D02*
X118552857Y-108212500D01*
X104660000Y-141184265D02*
X103110000Y-139634265D01*
X139860000Y-132520000D02*
X140880000Y-131500000D01*
X122380000Y-131500000D02*
X123400000Y-132520000D01*
X114557502Y-132520000D02*
X121360000Y-132520000D01*
%TO.N,Net-(J1-Pin_4)*%
X120038214Y-109250000D02*
X121075714Y-108212500D01*
X107138580Y-135060000D02*
X121360000Y-135060000D01*
X119750000Y-109250000D02*
X120038214Y-109250000D01*
X123400000Y-135060000D02*
X139860000Y-135060000D01*
X106160000Y-136038580D02*
X107138580Y-135060000D01*
X104660000Y-138644265D02*
X106160000Y-137144265D01*
X139860000Y-135060000D02*
X140880000Y-134040000D01*
X122380000Y-134040000D02*
X123400000Y-135060000D01*
X106160000Y-137144265D02*
X106160000Y-136038580D01*
X121360000Y-135060000D02*
X122380000Y-134040000D01*
%TO.N,Net-(J1-Pin_5)*%
X105136346Y-139794265D02*
X106560000Y-138370611D01*
X103510000Y-137254265D02*
X103510000Y-139120611D01*
X122500000Y-109250000D02*
X122561071Y-109250000D01*
X106560000Y-138370611D02*
X106560000Y-136204266D01*
X122380000Y-136580000D02*
X123400000Y-135560000D01*
X121260000Y-135460000D02*
X122380000Y-136580000D01*
X123400000Y-135560000D02*
X139860000Y-135560000D01*
X122561071Y-109250000D02*
X123598571Y-108212500D01*
X106560000Y-136204266D02*
X107304266Y-135460000D01*
X107304266Y-135460000D02*
X121260000Y-135460000D01*
X104660000Y-136104265D02*
X103510000Y-137254265D01*
X104183654Y-139794265D02*
X105136346Y-139794265D01*
X139860000Y-135560000D02*
X140880000Y-136580000D01*
X103510000Y-139120611D02*
X104183654Y-139794265D01*
%TO.N,Net-(J2-Pin_9)*%
X109871372Y-126740000D02*
X107800000Y-124668628D01*
X138760000Y-127460000D02*
X138040000Y-126740000D01*
X107800000Y-124668628D02*
X107800000Y-117072893D01*
X138040000Y-126740000D02*
X109871372Y-126740000D01*
X106210000Y-111534265D02*
X104660000Y-109984265D01*
X107800000Y-117072893D02*
X106210000Y-115482893D01*
X106210000Y-115482893D02*
X106210000Y-111534265D01*
%TO.N,Net-(J2-Pin_1)*%
X132180000Y-132960000D02*
X133260000Y-134040000D01*
X114760000Y-134040000D02*
X115840000Y-132960000D01*
X115840000Y-132960000D02*
X132180000Y-132960000D01*
%TO.N,Net-(100\u03A911-Pad1)*%
X116030000Y-104632500D02*
X115985000Y-104587500D01*
X116030000Y-106337500D02*
X116030000Y-104632500D01*
%TO.N,Net-(100\u03A912-Pad1)*%
X127454286Y-104632500D02*
X127409286Y-104587500D01*
X127454286Y-106337500D02*
X127454286Y-104632500D01*
%TO.N,Net-(100\u03A9111-Pad1)*%
X118552857Y-106337500D02*
X118552857Y-104587500D01*
%TO.N,Net-(100\u03A9112-Pad1)*%
X121075714Y-104617500D02*
X121105714Y-104587500D01*
X121075714Y-106337500D02*
X121075714Y-104617500D01*
%TO.N,Net-(100\u03A9113-Pad1)*%
X123598571Y-104632500D02*
X123643571Y-104587500D01*
X123598571Y-106337500D02*
X123598571Y-104632500D01*
%TO.N,Net-(100\u03A9114-Pad1)*%
X129977143Y-106337500D02*
X129977143Y-104619643D01*
X129977143Y-104619643D02*
X129945000Y-104587500D01*
%TO.N,Net-(100\u03A91111-Pad1)*%
X132500000Y-106337500D02*
X132500000Y-104606786D01*
X132500000Y-104606786D02*
X132480714Y-104587500D01*
%TO.N,Net-(100\u03A91112-Pad1)*%
X135022857Y-104593929D02*
X135016428Y-104587500D01*
X135022857Y-106337500D02*
X135022857Y-104593929D01*
%TO.N,Net-(100\u03A91113-Pad1)*%
X137545714Y-106337500D02*
X137545714Y-104593928D01*
X137545714Y-104593928D02*
X137552142Y-104587500D01*
%TO.N,Net-(100\u03A91114-Pad1)*%
X140068571Y-106337500D02*
X140068571Y-104606785D01*
X140068571Y-104606785D02*
X140087856Y-104587500D01*
%TO.N,Net-(100\u03A91115-Pad1)*%
X142591428Y-106337500D02*
X142591428Y-104619642D01*
X142591428Y-104619642D02*
X142623570Y-104587500D01*
%TO.N,Net-(100\u03A91116-Pad1)*%
X145114286Y-106337500D02*
X145114286Y-104632500D01*
X145114286Y-104632500D02*
X145159286Y-104587500D01*
%TO.N,Net-(74HC1-Y3)*%
X131312500Y-109400000D02*
X132500000Y-108212500D01*
X125998158Y-110800000D02*
X127398158Y-109400000D01*
X124700000Y-110800000D02*
X125998158Y-110800000D01*
X123000000Y-112500000D02*
X124700000Y-110800000D01*
X127398158Y-109400000D02*
X131312500Y-109400000D01*
X125580000Y-119780000D02*
X123560000Y-119780000D01*
X127960000Y-123180000D02*
X126260000Y-121480000D01*
X123000000Y-120340000D02*
X123000000Y-112500000D01*
X126260000Y-120460000D02*
X125580000Y-119780000D01*
X146930000Y-123180000D02*
X127960000Y-123180000D01*
X147830000Y-124080000D02*
X146930000Y-123180000D01*
X126260000Y-121480000D02*
X126260000Y-120460000D01*
%TD*%
M02*
