M48
; DRILL file {KiCad 8.0.4} date 2024-11-02T20:41:28-0400
; FORMAT={-:-/ absolute / inch / decimal}
; #@! TF.CreationDate,2024-11-02T20:41:28-04:00
; #@! TF.GenerationSoftware,Kicad,Pcbnew,8.0.4
; #@! TF.FileFunction,Plated,1,2,PTH
FMAT,2
INCH
; #@! TA.AperFunction,Plated,PTH,ViaDrill
T1C0.0118
; #@! TA.AperFunction,Plated,PTH,ComponentDrill
T2C0.0394
%
G90
G05
T1
X4.3898Y-3.1299
X4.4291Y-3.0709
X4.5339Y-2.5962
X4.6457Y-1.8006
X4.7506Y-1.8242
X4.8524Y-1.8406
X4.8624Y-3.9864
X4.8644Y-4.264
X4.9606Y-1.8406
X5.0396Y-3.7244
X5.1283Y-2.2551
X5.2854Y-2.0669
X5.463Y-2.6165
X5.5785Y-2.5798
X5.6008Y-2.5575
X5.7843Y-2.4394
X5.8089Y-4.1043
X5.8663Y-4.4884
X6.7071Y-2.0725
X6.9403Y-3.3382
X7.1907Y-2.8599
X7.2008Y-2.5548
X7.3484Y-3.3324
X7.4979Y-1.6906
X7.5945Y-2.9387
T2
X4.1831Y-3.9343
X4.1831Y-4.0343
X4.1831Y-4.1343
X4.1831Y-4.2343
X4.1831Y-4.3886
X4.1831Y-4.4886
X4.1831Y-4.5886
X4.1831Y-4.6886
X4.1831Y-4.7886
X4.2583Y-1.8695
X4.2583Y-1.9695
X4.2583Y-2.0695
X4.2583Y-2.1695
X4.2583Y-2.2695
X4.2583Y-2.3695
X4.2583Y-2.4695
X4.2583Y-2.5695
X4.2583Y-2.6695
X4.2583Y-2.8978
X4.2583Y-2.9978
X4.2583Y-3.0978
X4.2583Y-3.1978
X4.2583Y-3.2978
X4.3213Y-4.7819
X4.3213Y-4.8819
X4.3213Y-4.9819
X4.3213Y-5.0819
X4.3213Y-5.1819
X4.3213Y-5.2819
X4.3213Y-5.3819
X4.351Y-3.7697
X4.3593Y-1.6043
X4.4213Y-3.9126
X4.4213Y-4.2126
X4.4213Y-4.3406
X4.4213Y-4.6406
X4.426Y-2.0063
X4.426Y-2.3063
X4.451Y-3.7697
X4.4593Y-1.6043
X4.5213Y-3.9126
X4.5213Y-4.2126
X4.5213Y-4.3406
X4.5213Y-4.6406
X4.526Y-2.0063
X4.526Y-2.3063
X4.6063Y-3.7697
X4.6213Y-3.9126
X4.6213Y-4.2126
X4.6213Y-4.3406
X4.6213Y-4.6406
X4.6213Y-4.7819
X4.6213Y-4.8819
X4.6213Y-4.9819
X4.6213Y-5.0819
X4.6213Y-5.1819
X4.6213Y-5.2819
X4.6213Y-5.3819
X4.626Y-2.0063
X4.626Y-2.3063
X4.6559Y-2.6165
X4.6559Y-2.7165
X4.6559Y-2.8165
X4.6559Y-2.9165
X4.6559Y-3.0165
X4.6559Y-3.1165
X4.6559Y-3.2165
X4.6559Y-3.3165
X4.7063Y-3.7697
X4.7213Y-3.9126
X4.7213Y-4.2126
X4.7213Y-4.3406
X4.7213Y-4.6406
X4.726Y-2.0063
X4.726Y-2.3063
X4.8213Y-3.9126
X4.8213Y-4.2126
X4.8213Y-4.3406
X4.8213Y-4.6406
X4.8228Y-4.7835
X4.8228Y-5.0835
X4.826Y-2.0063
X4.826Y-2.3063
X4.9213Y-3.9126
X4.9213Y-4.2126
X4.9213Y-4.3406
X4.9213Y-4.6406
X4.9228Y-4.7835
X4.9228Y-5.0835
X4.926Y-2.0063
X4.926Y-2.3063
X4.9559Y-2.6165
X4.9559Y-2.7165
X4.9559Y-2.8165
X4.9559Y-2.9165
X4.9559Y-3.0165
X4.9559Y-3.1165
X4.9559Y-3.2165
X4.9559Y-3.3165
X5.0213Y-3.9126
X5.0213Y-4.2126
X5.0213Y-4.3406
X5.0213Y-4.6406
X5.0228Y-4.7835
X5.0228Y-5.0835
X5.026Y-2.0063
X5.026Y-2.3063
X5.1213Y-3.9126
X5.1213Y-4.2126
X5.1213Y-4.3406
X5.1213Y-4.6406
X5.1228Y-4.7835
X5.1228Y-5.0835
X5.2228Y-4.7835
X5.2228Y-5.0835
X5.2264Y-2.0063
X5.2264Y-2.3063
X5.3228Y-4.7835
X5.3228Y-5.0835
X5.3264Y-2.0063
X5.3264Y-2.3063
X5.3346Y-3.8339
X5.3346Y-3.9339
X5.3346Y-4.0339
X5.3346Y-4.1339
X5.3346Y-4.2339
X5.3346Y-4.3339
X5.3346Y-4.4339
X5.3346Y-4.5339
X5.3843Y-2.6165
X5.3843Y-2.7165
X5.3843Y-2.8165
X5.3843Y-2.9165
X5.3843Y-3.0165
X5.3843Y-3.1165
X5.3843Y-3.2165
X5.3843Y-3.3165
X5.4228Y-4.7835
X5.4228Y-5.0835
X5.4264Y-2.0063
X5.4264Y-2.3063
X5.5228Y-4.7835
X5.5228Y-5.0835
X5.5264Y-2.0063
X5.5264Y-2.3063
X5.6264Y-2.0063
X5.6264Y-2.3063
X5.6346Y-3.8339
X5.6346Y-3.9339
X5.6346Y-4.0339
X5.6346Y-4.1339
X5.6346Y-4.2339
X5.6346Y-4.3339
X5.6346Y-4.4339
X5.6346Y-4.5339
X5.6843Y-2.6165
X5.6843Y-2.7165
X5.6843Y-2.8165
X5.6843Y-2.9165
X5.6843Y-3.0165
X5.6843Y-3.1165
X5.6843Y-3.2165
X5.6843Y-3.3165
X5.7264Y-2.0063
X5.7264Y-2.3063
X5.8264Y-2.0063
X5.8264Y-2.3063
X5.9547Y-1.9213
X5.9547Y-2.0213
X5.9547Y-2.1213
X5.9547Y-2.2213
X5.9547Y-2.3213
X5.9547Y-2.4213
X5.9547Y-2.5213
X5.9547Y-2.6213
X5.9547Y-2.7213
X6.3583Y-3.9256
X6.3583Y-4.0256
X6.3583Y-4.1256
X6.3583Y-4.2256
X6.3583Y-4.3256
X6.3583Y-4.5654
X6.3583Y-4.6654
X6.5906Y-1.6036
X6.5906Y-1.7036
X6.5906Y-1.8036
X6.5906Y-1.9036
X6.5906Y-2.0036
X6.5906Y-2.1036
X6.5906Y-2.2036
X6.5906Y-2.3036
X6.5906Y-2.4036
X6.6008Y-2.5714
X6.6008Y-2.6714
X6.6008Y-2.7714
X6.6008Y-2.8714
X6.6008Y-2.9714
X6.6008Y-3.0714
X6.6008Y-3.1714
X6.6008Y-3.2714
X6.7953Y-1.6036
X6.7953Y-1.7036
X6.7953Y-1.8036
X6.7953Y-1.9036
X6.7953Y-2.0036
X6.7953Y-2.1036
X6.7953Y-2.2036
X6.7953Y-2.3036
X6.7953Y-2.4036
X6.9008Y-2.5714
X6.9008Y-2.6714
X6.9008Y-2.7714
X6.9008Y-2.8714
X6.9008Y-2.9714
X6.9008Y-3.0714
X6.9008Y-3.1714
X6.9008Y-3.2714
X7.0039Y-1.6036
X7.0039Y-1.7036
X7.0039Y-1.8036
X7.0039Y-1.9036
X7.0039Y-2.0036
X7.0039Y-2.1036
X7.0039Y-2.2036
X7.0039Y-2.3036
X7.0039Y-2.4036
X7.0128Y-2.5714
X7.0128Y-2.6714
X7.0128Y-2.7714
X7.0128Y-2.8714
X7.0128Y-2.9714
X7.0128Y-3.0714
X7.0128Y-3.1714
X7.0128Y-3.2714
X7.1707Y-1.6044
X7.2707Y-1.6044
X7.3128Y-2.5714
X7.3128Y-2.6714
X7.3128Y-2.7714
X7.3128Y-2.8714
X7.3128Y-2.9714
X7.3128Y-3.0714
X7.3128Y-3.1714
X7.3128Y-3.2714
X7.4248Y-2.5714
X7.4248Y-2.6714
X7.4248Y-2.7714
X7.4248Y-2.8714
X7.4248Y-2.9714
X7.4248Y-3.0714
X7.4248Y-3.1714
X7.4248Y-3.2714
X7.5841Y-1.6044
X7.6841Y-1.6044
X7.7248Y-2.5714
X7.7248Y-2.6714
X7.7248Y-2.7714
X7.7248Y-2.8714
X7.7248Y-2.9714
X7.7248Y-3.0714
X7.7248Y-3.1714
X7.7248Y-3.2714
M30
