%TF.GenerationSoftware,KiCad,Pcbnew,8.0.4*%
%TF.CreationDate,2024-11-02T20:41:25-04:00*%
%TF.ProjectId,100x100 Panel,31303078-3130-4302-9050-616e656c2e6b,rev?*%
%TF.SameCoordinates,Original*%
%TF.FileFunction,Copper,L2,Bot*%
%TF.FilePolarity,Positive*%
%FSLAX46Y46*%
G04 Gerber Fmt 4.6, Leading zero omitted, Abs format (unit mm)*
G04 Created by KiCad (PCBNEW 8.0.4) date 2024-11-02 20:41:25*
%MOMM*%
%LPD*%
G01*
G04 APERTURE LIST*
%TA.AperFunction,ComponentPad*%
%ADD10R,2.000000X1.440000*%
%TD*%
%TA.AperFunction,ComponentPad*%
%ADD11O,2.000000X1.440000*%
%TD*%
%TA.AperFunction,ComponentPad*%
%ADD12R,1.700000X1.700000*%
%TD*%
%TA.AperFunction,ComponentPad*%
%ADD13O,1.700000X1.700000*%
%TD*%
%TA.AperFunction,ComponentPad*%
%ADD14R,1.440000X2.000000*%
%TD*%
%TA.AperFunction,ComponentPad*%
%ADD15O,1.440000X2.000000*%
%TD*%
%TA.AperFunction,ViaPad*%
%ADD16C,0.600000*%
%TD*%
%TA.AperFunction,Conductor*%
%ADD17C,0.200000*%
%TD*%
G04 APERTURE END LIST*
D10*
%TO.P,8xDIPA1,1,A1*%
%TO.N,N/C*%
X175280000Y-83092498D03*
D11*
%TO.P,8xDIPA1,2,A2*%
X175280000Y-80552498D03*
%TO.P,8xDIPA1,3,A3*%
X175280000Y-78012498D03*
%TO.P,8xDIPA1,4,A4*%
X175280000Y-75472498D03*
%TO.P,8xDIPA1,5,A5*%
X175280000Y-72932498D03*
%TO.P,8xDIPA1,6,A6*%
X175280000Y-70392498D03*
%TO.P,8xDIPA1,7,A7*%
X175280000Y-67852498D03*
%TO.P,8xDIPA1,8,A8*%
X175280000Y-65312498D03*
%TO.P,8xDIPA1,9*%
X167660000Y-65312498D03*
%TO.P,8xDIPA1,10*%
X167660000Y-67852498D03*
%TO.P,8xDIPA1,11*%
X167660000Y-70392498D03*
%TO.P,8xDIPA1,12*%
X167660000Y-72932498D03*
%TO.P,8xDIPA1,13*%
X167660000Y-75472498D03*
%TO.P,8xDIPA1,14*%
X167660000Y-78012498D03*
%TO.P,8xDIPA1,15*%
X167660000Y-80552498D03*
%TO.P,8xDIPA1,16*%
X167660000Y-83092498D03*
%TD*%
D12*
%TO.P,MW1,1,Pin_1*%
%TO.N,N/C*%
X184675000Y-40752498D03*
D13*
%TO.P,MW1,2,Pin_2*%
X182135000Y-40752498D03*
%TD*%
D12*
%TO.P,PWR1,1,Pin_1*%
%TO.N,N/C*%
X195175000Y-40752498D03*
D13*
%TO.P,PWR1,2,Pin_2*%
X192635000Y-40752498D03*
%TD*%
D12*
%TO.P,JA1,1,Pin_1*%
%TO.N,N/C*%
X167400000Y-61052498D03*
D13*
%TO.P,JA1,2,Pin_2*%
X167400000Y-58512498D03*
%TO.P,JA1,3,Pin_3*%
X167400000Y-55972498D03*
%TO.P,JA1,4,Pin_4*%
X167400000Y-53432498D03*
%TO.P,JA1,5,Pin_5*%
X167400000Y-50892498D03*
%TO.P,JA1,6,Pin_6*%
X167400000Y-48352498D03*
%TO.P,JA1,7,Pin_7*%
X167400000Y-45812498D03*
%TO.P,JA1,8,Pin_8*%
X167400000Y-43272498D03*
%TO.P,JA1,9,Pin_9*%
X167400000Y-40732498D03*
%TD*%
D10*
%TO.P,8xDIP1,1,A1*%
%TO.N,N/C*%
X196210000Y-83092498D03*
D11*
%TO.P,8xDIP1,2,A2*%
X196210000Y-80552498D03*
%TO.P,8xDIP1,3,A3*%
X196210000Y-78012498D03*
%TO.P,8xDIP1,4,A4*%
X196210000Y-75472498D03*
%TO.P,8xDIP1,5,A5*%
X196210000Y-72932498D03*
%TO.P,8xDIP1,6,A6*%
X196210000Y-70392498D03*
%TO.P,8xDIP1,7,A7*%
X196210000Y-67852498D03*
%TO.P,8xDIP1,8,A8*%
X196210000Y-65312498D03*
%TO.P,8xDIP1,9*%
X188590000Y-65312498D03*
%TO.P,8xDIP1,10*%
X188590000Y-67852498D03*
%TO.P,8xDIP1,11*%
X188590000Y-70392498D03*
%TO.P,8xDIP1,12*%
X188590000Y-72932498D03*
%TO.P,8xDIP1,13*%
X188590000Y-75472498D03*
%TO.P,8xDIP1,14*%
X188590000Y-78012498D03*
%TO.P,8xDIP1,15*%
X188590000Y-80552498D03*
%TO.P,8xDIP1,16*%
X188590000Y-83092498D03*
%TD*%
D12*
%TO.P,J2,1,Pin_1*%
%TO.N,N/C*%
X172600000Y-61052498D03*
D13*
%TO.P,J2,2,Pin_2*%
X172600000Y-58512498D03*
%TO.P,J2,3,Pin_3*%
X172600000Y-55972498D03*
%TO.P,J2,4,Pin_4*%
X172600000Y-53432498D03*
%TO.P,J2,5,Pin_5*%
X172600000Y-50892498D03*
%TO.P,J2,6,Pin_6*%
X172600000Y-48352498D03*
%TO.P,J2,7,Pin_7*%
X172600000Y-45812498D03*
%TO.P,J2,8,Pin_8*%
X172600000Y-43272498D03*
%TO.P,J2,9,Pin_9*%
X172600000Y-40732498D03*
%TD*%
D12*
%TO.P,J1,1,Pin_1*%
%TO.N,N/C*%
X177900000Y-61052498D03*
D13*
%TO.P,J1,2,Pin_2*%
X177900000Y-58512498D03*
%TO.P,J1,3,Pin_3*%
X177900000Y-55972498D03*
%TO.P,J1,4,Pin_4*%
X177900000Y-53432498D03*
%TO.P,J1,5,Pin_5*%
X177900000Y-50892498D03*
%TO.P,J1,6,Pin_6*%
X177900000Y-48352498D03*
%TO.P,J1,7,Pin_7*%
X177900000Y-45812498D03*
%TO.P,J1,8,Pin_8*%
X177900000Y-43272498D03*
%TO.P,J1,9,Pin_9*%
X177900000Y-40732498D03*
%TD*%
D10*
%TO.P,8xDIP2,1,A1*%
%TO.N,N/C*%
X185745000Y-83092498D03*
D11*
%TO.P,8xDIP2,2,A2*%
X185745000Y-80552498D03*
%TO.P,8xDIP2,3,A3*%
X185745000Y-78012498D03*
%TO.P,8xDIP2,4,A4*%
X185745000Y-75472498D03*
%TO.P,8xDIP2,5,A5*%
X185745000Y-72932498D03*
%TO.P,8xDIP2,6,A6*%
X185745000Y-70392498D03*
%TO.P,8xDIP2,7,A7*%
X185745000Y-67852498D03*
%TO.P,8xDIP2,8,A8*%
X185745000Y-65312498D03*
%TO.P,8xDIP2,9*%
X178125000Y-65312498D03*
%TO.P,8xDIP2,10*%
X178125000Y-67852498D03*
%TO.P,8xDIP2,11*%
X178125000Y-70392498D03*
%TO.P,8xDIP2,12*%
X178125000Y-72932498D03*
%TO.P,8xDIP2,13*%
X178125000Y-75472498D03*
%TO.P,8xDIP2,14*%
X178125000Y-78012498D03*
%TO.P,8xDIP2,15*%
X178125000Y-80552498D03*
%TO.P,8xDIP2,16*%
X178125000Y-83092498D03*
%TD*%
D14*
%TO.P,74HC1,1,A1*%
%TO.N,N/C*%
X112420000Y-58580000D03*
D15*
%TO.P,74HC1,2,Y1*%
X114960000Y-58580000D03*
%TO.P,74HC1,3,A2*%
X117500000Y-58580000D03*
%TO.P,74HC1,4,Y2*%
X120040000Y-58580000D03*
%TO.P,74HC1,5,A3*%
X122580000Y-58580000D03*
%TO.P,74HC1,6,Y3*%
X125120000Y-58580000D03*
%TO.P,74HC1,7,GND*%
X127660000Y-58580000D03*
%TO.P,74HC1,8,Y4*%
X127660000Y-50960000D03*
%TO.P,74HC1,9,A4*%
X125120000Y-50960000D03*
%TO.P,74HC1,10,Y5*%
X122580000Y-50960000D03*
%TO.P,74HC1,11,A5*%
X120040000Y-50960000D03*
%TO.P,74HC1,12,Y6*%
X117500000Y-50960000D03*
%TO.P,74HC1,13,A6*%
X114960000Y-50960000D03*
%TO.P,74HC1,14,VCC*%
X112420000Y-50960000D03*
%TD*%
D12*
%TO.P,EXT_CLK1,1,Pin_1*%
%TO.N,N/C*%
X161500000Y-115960000D03*
D13*
%TO.P,EXT_CLK1,2,Pin_2*%
X161500000Y-118500000D03*
%TD*%
D12*
%TO.P,DATA_IN,1,Pin_1*%
%TO.N,N/C*%
X108160000Y-67804265D03*
D13*
%TO.P,DATA_IN,2,Pin_2*%
X108160000Y-65264265D03*
%TO.P,DATA_IN,3,Pin_3*%
X108160000Y-62724265D03*
%TO.P,DATA_IN,4,Pin_4*%
X108160000Y-60184265D03*
%TO.P,DATA_IN,5,Pin_5*%
X108160000Y-57644265D03*
%TO.P,DATA_IN,6,Pin_6*%
X108160000Y-55104265D03*
%TO.P,DATA_IN,7,Pin_7*%
X108160000Y-52564265D03*
%TO.P,DATA_IN,8,Pin_8*%
X108160000Y-50024265D03*
%TO.P,DATA_IN,9,Pin_9*%
X108160000Y-47484265D03*
%TD*%
D12*
%TO.P,ADDR,1,Pin_1*%
%TO.N,N/C*%
X108160000Y-83764265D03*
D13*
%TO.P,ADDR,2,Pin_2*%
X108160000Y-81224265D03*
%TO.P,ADDR,3,Pin_3*%
X108160000Y-78684265D03*
%TO.P,ADDR,4,Pin_4*%
X108160000Y-76144265D03*
%TO.P,ADDR,5,Pin_5*%
X108160000Y-73604265D03*
%TD*%
D14*
%TO.P,MUX2,1,SEL*%
%TO.N,N/C*%
X112300000Y-117870000D03*
D15*
%TO.P,MUX2,2,A1*%
X114840000Y-117870000D03*
%TO.P,MUX2,3,B1*%
X117380000Y-117870000D03*
%TO.P,MUX2,4,Y1*%
X119920000Y-117870000D03*
%TO.P,MUX2,5,A2*%
X122460000Y-117870000D03*
%TO.P,MUX2,6,B2*%
X125000000Y-117870000D03*
%TO.P,MUX2,7,Y2*%
X127540000Y-117870000D03*
%TO.P,MUX2,8,GND*%
X130080000Y-117870000D03*
%TO.P,MUX2,9,Y3*%
X130080000Y-110250000D03*
%TO.P,MUX2,10,B3*%
X127540000Y-110250000D03*
%TO.P,MUX2,11,A3*%
X125000000Y-110250000D03*
%TO.P,MUX2,12,Y4*%
X122460000Y-110250000D03*
%TO.P,MUX2,13,B4*%
X119920000Y-110250000D03*
%TO.P,MUX2,14,A4*%
X117380000Y-110250000D03*
%TO.P,MUX2,15,EN*%
X114840000Y-110250000D03*
%TO.P,MUX2,16,VCC*%
X112300000Y-110250000D03*
%TD*%
D10*
%TO.P,SN74189N2,1,A0*%
%TO.N,N/C*%
X136760000Y-66460000D03*
D11*
%TO.P,SN74189N2,2,ME*%
X136760000Y-69000000D03*
%TO.P,SN74189N2,3,WE*%
X136760000Y-71540000D03*
%TO.P,SN74189N2,4,D1*%
X136760000Y-74080000D03*
%TO.P,SN74189N2,5,S1*%
X136760000Y-76620000D03*
%TO.P,SN74189N2,6,D2*%
X136760000Y-79160000D03*
%TO.P,SN74189N2,7,S2*%
X136760000Y-81700000D03*
%TO.P,SN74189N2,8,GND*%
X136760000Y-84240000D03*
%TO.P,SN74189N2,9,S3*%
X144380000Y-84240000D03*
%TO.P,SN74189N2,10,D3*%
X144380000Y-81700000D03*
%TO.P,SN74189N2,11,S4*%
X144380000Y-79160000D03*
%TO.P,SN74189N2,12,D4*%
X144380000Y-76620000D03*
%TO.P,SN74189N2,13,A3*%
X144380000Y-74080000D03*
%TO.P,SN74189N2,14,A2*%
X144380000Y-71540000D03*
%TO.P,SN74189N2,15,A1*%
X144380000Y-69000000D03*
%TO.P,SN74189N2,16,VCC*%
X144380000Y-66460000D03*
%TD*%
D10*
%TO.P,SN74189N1,1,A0*%
%TO.N,N/C*%
X118260000Y-66460000D03*
D11*
%TO.P,SN74189N1,2,ME*%
X118260000Y-69000000D03*
%TO.P,SN74189N1,3,WE*%
X118260000Y-71540000D03*
%TO.P,SN74189N1,4,D1*%
X118260000Y-74080000D03*
%TO.P,SN74189N1,5,S1*%
X118260000Y-76620000D03*
%TO.P,SN74189N1,6,D2*%
X118260000Y-79160000D03*
%TO.P,SN74189N1,7,S2*%
X118260000Y-81700000D03*
%TO.P,SN74189N1,8,GND*%
X118260000Y-84240000D03*
%TO.P,SN74189N1,9,S3*%
X125880000Y-84240000D03*
%TO.P,SN74189N1,10,D3*%
X125880000Y-81700000D03*
%TO.P,SN74189N1,11,S4*%
X125880000Y-79160000D03*
%TO.P,SN74189N1,12,D4*%
X125880000Y-76620000D03*
%TO.P,SN74189N1,13,A3*%
X125880000Y-74080000D03*
%TO.P,SN74189N1,14,A2*%
X125880000Y-71540000D03*
%TO.P,SN74189N1,15,A1*%
X125880000Y-69000000D03*
%TO.P,SN74189N1,16,VCC*%
X125880000Y-66460000D03*
%TD*%
D12*
%TO.P,PWR1,1,Pin_1*%
%TO.N,N/C*%
X110515000Y-95750000D03*
D13*
%TO.P,PWR1,2,Pin_2*%
X113055000Y-95750000D03*
%TD*%
D12*
%TO.P,RET_ADDR1,1,Pin_1*%
%TO.N,N/C*%
X106250000Y-107550000D03*
D13*
%TO.P,RET_ADDR1,2,Pin_2*%
X106250000Y-105010000D03*
%TO.P,RET_ADDR1,3,Pin_3*%
X106250000Y-102470000D03*
%TO.P,RET_ADDR1,4,Pin_4*%
X106250000Y-99930000D03*
%TD*%
D12*
%TO.P,DATA_OUT,1,Pin_1*%
%TO.N,N/C*%
X151250000Y-69120000D03*
D13*
%TO.P,DATA_OUT,2,Pin_2*%
X151250000Y-66580000D03*
%TO.P,DATA_OUT,3,Pin_3*%
X151250000Y-64040000D03*
%TO.P,DATA_OUT,4,Pin_4*%
X151250000Y-61500000D03*
%TO.P,DATA_OUT,5,Pin_5*%
X151250000Y-58960000D03*
%TO.P,DATA_OUT,6,Pin_6*%
X151250000Y-56420000D03*
%TO.P,DATA_OUT,7,Pin_7*%
X151250000Y-53880000D03*
%TO.P,DATA_OUT,8,Pin_8*%
X151250000Y-51340000D03*
%TO.P,DATA_OUT,9,Pin_9*%
X151250000Y-48800000D03*
%TD*%
D10*
%TO.P,ST_INV1,1,A1*%
%TO.N,N/C*%
X109760000Y-121460000D03*
D11*
%TO.P,ST_INV1,2,Y1*%
X109760000Y-124000000D03*
%TO.P,ST_INV1,3,A2*%
X109760000Y-126540000D03*
%TO.P,ST_INV1,4,Y2*%
X109760000Y-129080000D03*
%TO.P,ST_INV1,5,A3*%
X109760000Y-131620000D03*
%TO.P,ST_INV1,6,Y3*%
X109760000Y-134160000D03*
%TO.P,ST_INV1,7,GND*%
X109760000Y-136700000D03*
%TO.P,ST_INV1,8,Y4*%
X117380000Y-136700000D03*
%TO.P,ST_INV1,9,A4*%
X117380000Y-134160000D03*
%TO.P,ST_INV1,10,Y5*%
X117380000Y-131620000D03*
%TO.P,ST_INV1,11,A5*%
X117380000Y-129080000D03*
%TO.P,ST_INV1,12,Y6*%
X117380000Y-126540000D03*
%TO.P,ST_INV1,13,A6*%
X117380000Y-124000000D03*
%TO.P,ST_INV1,14,VCC*%
X117380000Y-121460000D03*
%TD*%
D14*
%TO.P,ADD1,1,S2*%
%TO.N,N/C*%
X122500000Y-129120000D03*
D15*
%TO.P,ADD1,2,B2*%
X125040000Y-129120000D03*
%TO.P,ADD1,3,A2*%
X127580000Y-129120000D03*
%TO.P,ADD1,4,S1*%
X130120000Y-129120000D03*
%TO.P,ADD1,5,A1*%
X132660000Y-129120000D03*
%TO.P,ADD1,6,B1*%
X135200000Y-129120000D03*
%TO.P,ADD1,7,C0*%
X137740000Y-129120000D03*
%TO.P,ADD1,8,GND*%
X140280000Y-129120000D03*
%TO.P,ADD1,9,C4*%
X140280000Y-121500000D03*
%TO.P,ADD1,10,S4*%
X137740000Y-121500000D03*
%TO.P,ADD1,11,B4*%
X135200000Y-121500000D03*
%TO.P,ADD1,12,A4*%
X132660000Y-121500000D03*
%TO.P,ADD1,13,S3*%
X130120000Y-121500000D03*
%TO.P,ADD1,14,A3*%
X127580000Y-121500000D03*
%TO.P,ADD1,15,B3*%
X125040000Y-121500000D03*
%TO.P,ADD1,16,VCC*%
X122500000Y-121500000D03*
%TD*%
D14*
%TO.P,MUX1,1,SEL*%
%TO.N,N/C*%
X112300000Y-107000000D03*
D15*
%TO.P,MUX1,2,A1*%
X114840000Y-107000000D03*
%TO.P,MUX1,3,B1*%
X117380000Y-107000000D03*
%TO.P,MUX1,4,Y1*%
X119920000Y-107000000D03*
%TO.P,MUX1,5,A2*%
X122460000Y-107000000D03*
%TO.P,MUX1,6,B2*%
X125000000Y-107000000D03*
%TO.P,MUX1,7,Y2*%
X127540000Y-107000000D03*
%TO.P,MUX1,8,GND*%
X130080000Y-107000000D03*
%TO.P,MUX1,9,Y3*%
X130080000Y-99380000D03*
%TO.P,MUX1,10,B3*%
X127540000Y-99380000D03*
%TO.P,MUX1,11,A3*%
X125000000Y-99380000D03*
%TO.P,MUX1,12,Y4*%
X122460000Y-99380000D03*
%TO.P,MUX1,13,B4*%
X119920000Y-99380000D03*
%TO.P,MUX1,14,A4*%
X117380000Y-99380000D03*
%TO.P,MUX1,15,EN*%
X114840000Y-99380000D03*
%TO.P,MUX1,16,VCC*%
X112300000Y-99380000D03*
%TD*%
D12*
%TO.P,B_ADDR1,1,Pin_1*%
%TO.N,N/C*%
X106250000Y-121630000D03*
D13*
%TO.P,B_ADDR1,2,Pin_2*%
X106250000Y-119090000D03*
%TO.P,B_ADDR1,3,Pin_3*%
X106250000Y-116550000D03*
%TO.P,B_ADDR1,4,Pin_4*%
X106250000Y-114010000D03*
%TO.P,B_ADDR1,5,Pin_5*%
X106250000Y-111470000D03*
%TD*%
D12*
%TO.P,LOGIC1,1,Pin_1*%
%TO.N,N/C*%
X117000000Y-95750000D03*
D13*
%TO.P,LOGIC1,2,Pin_2*%
X119540000Y-95750000D03*
%TD*%
D12*
%TO.P,INSTR_ADDR1,1,Pin_1*%
%TO.N,N/C*%
X161500000Y-99710000D03*
D13*
%TO.P,INSTR_ADDR1,2,Pin_2*%
X161500000Y-102250000D03*
%TO.P,INSTR_ADDR1,3,Pin_3*%
X161500000Y-104790000D03*
%TO.P,INSTR_ADDR1,4,Pin_4*%
X161500000Y-107330000D03*
%TO.P,INSTR_ADDR1,5,Pin_5*%
X161500000Y-109870000D03*
%TD*%
D12*
%TO.P,PWR,1,Pin_1*%
%TO.N,N/C*%
X110725000Y-40750000D03*
D13*
%TO.P,PWR,2,Pin_2*%
X113265000Y-40750000D03*
%TD*%
D14*
%TO.P,74HC2,1,A1*%
%TO.N,N/C*%
X132750000Y-58580000D03*
D15*
%TO.P,74HC2,2,Y1*%
X135290000Y-58580000D03*
%TO.P,74HC2,3,A2*%
X137830000Y-58580000D03*
%TO.P,74HC2,4,Y2*%
X140370000Y-58580000D03*
%TO.P,74HC2,5,A3*%
X142910000Y-58580000D03*
%TO.P,74HC2,6,Y3*%
X145450000Y-58580000D03*
%TO.P,74HC2,7,GND*%
X147990000Y-58580000D03*
%TO.P,74HC2,8,Y4*%
X147990000Y-50960000D03*
%TO.P,74HC2,9,A4*%
X145450000Y-50960000D03*
%TO.P,74HC2,10,Y5*%
X142910000Y-50960000D03*
%TO.P,74HC2,11,A5*%
X140370000Y-50960000D03*
%TO.P,74HC2,12,Y6*%
X137830000Y-50960000D03*
%TO.P,74HC2,13,A6*%
X135290000Y-50960000D03*
%TO.P,74HC2,14,VCC*%
X132750000Y-50960000D03*
%TD*%
D10*
%TO.P,REG1,1,CLR*%
%TO.N,N/C*%
X135500000Y-97380000D03*
D11*
%TO.P,REG1,2,Q1*%
X135500000Y-99920000D03*
%TO.P,REG1,3*%
X135500000Y-102460000D03*
%TO.P,REG1,4,D1*%
X135500000Y-105000000D03*
%TO.P,REG1,5,D2*%
X135500000Y-107540000D03*
%TO.P,REG1,6*%
X135500000Y-110080000D03*
%TO.P,REG1,7,Q2*%
X135500000Y-112620000D03*
%TO.P,REG1,8,GND*%
X135500000Y-115160000D03*
%TO.P,REG1,9,CLK*%
X143120000Y-115160000D03*
%TO.P,REG1,10,Q3*%
X143120000Y-112620000D03*
%TO.P,REG1,11*%
X143120000Y-110080000D03*
%TO.P,REG1,12,D3*%
X143120000Y-107540000D03*
%TO.P,REG1,13,D4*%
X143120000Y-105000000D03*
%TO.P,REG1,14*%
X143120000Y-102460000D03*
%TO.P,REG1,15,Q4*%
X143120000Y-99920000D03*
%TO.P,REG1,16,VCC*%
X143120000Y-97380000D03*
%TD*%
D16*
%TO.N,*%
X186650000Y-84642498D03*
X176284074Y-84791126D03*
X192900000Y-74642498D03*
X182900000Y-64892498D03*
X170360000Y-52642498D03*
X190447500Y-42939998D03*
X182645000Y-72642498D03*
X120665735Y-46334265D03*
X123505000Y-101255000D03*
X134250000Y-52500000D03*
X142260000Y-64960000D03*
X112500000Y-78000000D03*
X149005000Y-114005000D03*
X147545000Y-104250000D03*
X123250000Y-46750000D03*
X123555735Y-108305735D03*
X118000000Y-45734265D03*
X138760000Y-66460000D03*
X128005000Y-94600000D03*
X141694313Y-65525687D03*
X130260000Y-57280000D03*
X146920000Y-61960000D03*
X111500000Y-79500000D03*
X126000000Y-46750000D03*
X115160000Y-65944265D03*
%TD*%
D17*
%TO.N,*%
X184445000Y-64937498D02*
X184445000Y-75894996D01*
X179850000Y-59646249D02*
X184496249Y-64292498D01*
X177900000Y-55972498D02*
X177900000Y-56065686D01*
X176750000Y-40256152D02*
X177423654Y-39582498D01*
X176750000Y-42122498D02*
X176750000Y-40256152D01*
X177900000Y-43272498D02*
X176750000Y-42122498D01*
X190290000Y-68692498D02*
X188590000Y-70392498D01*
X180000000Y-41206152D02*
X180000000Y-55000000D01*
X189890000Y-78434996D02*
X189182498Y-79142498D01*
X184445000Y-75894996D02*
X185142502Y-76592498D01*
X179850000Y-57450000D02*
X179850000Y-59646249D01*
X179200000Y-49652498D02*
X179200000Y-56800000D01*
X187290000Y-71632498D02*
X188590000Y-72932498D01*
X179200000Y-56800000D02*
X179850000Y-57450000D01*
X185142502Y-76592498D02*
X189458184Y-76592498D01*
X176350000Y-40090466D02*
X177257968Y-39182498D01*
X190290000Y-77424314D02*
X190290000Y-78852498D01*
X179450000Y-57615686D02*
X179450000Y-59942498D01*
X184045000Y-76060682D02*
X184976816Y-76992498D01*
X180000000Y-55000000D02*
X189890000Y-64890000D01*
X190290000Y-78852498D02*
X188590000Y-80552498D01*
X189890000Y-66552498D02*
X188590000Y-67852498D01*
X180400000Y-41040466D02*
X180400000Y-54834315D01*
X178376346Y-39582498D02*
X180000000Y-41206152D01*
X188032502Y-79142498D02*
X187290000Y-79885000D01*
X179050000Y-60108184D02*
X184045000Y-65103184D01*
X177423654Y-39582498D02*
X178376346Y-39582498D01*
X177900000Y-56065686D02*
X179450000Y-57615686D01*
X189890000Y-77590000D02*
X189890000Y-78434996D01*
X189890000Y-64890000D02*
X189890000Y-66552498D01*
X187290000Y-65135000D02*
X187290000Y-71632498D01*
X180400000Y-54834315D02*
X190290000Y-64724315D01*
X187290000Y-81792498D02*
X188590000Y-83092498D01*
X184496249Y-64292498D02*
X186447498Y-64292498D01*
X179450000Y-59942498D02*
X184445000Y-64937498D01*
X189292498Y-76992498D02*
X189890000Y-77590000D01*
X189182498Y-79142498D02*
X188032502Y-79142498D01*
X186447498Y-64292498D02*
X187290000Y-65135000D01*
X190290000Y-64724315D02*
X190290000Y-68692498D01*
X176350000Y-44262498D02*
X176350000Y-40090466D01*
X177900000Y-45812498D02*
X176350000Y-44262498D01*
X184045000Y-65103184D02*
X184045000Y-76060682D01*
X189458184Y-76592498D02*
X190290000Y-77424314D01*
X187290000Y-79885000D02*
X187290000Y-81792498D01*
X177900000Y-48352498D02*
X179200000Y-49652498D01*
X184976816Y-76992498D02*
X189292498Y-76992498D01*
X177257968Y-39182498D02*
X178542032Y-39182498D01*
X178542032Y-39182498D02*
X180400000Y-41040466D01*
X177900000Y-58512498D02*
X179050000Y-59662498D01*
X179050000Y-59662498D02*
X179050000Y-60108184D01*
X179484314Y-63042498D02*
X177024314Y-63042498D01*
X187112157Y-83337153D02*
X187112157Y-82180341D01*
X179600000Y-42432498D02*
X179600000Y-56322498D01*
X177900000Y-40732498D02*
X179600000Y-42432498D01*
X179600000Y-56322498D02*
X188590000Y-65312498D01*
X177024314Y-63042498D02*
X176350000Y-62368184D01*
X176350000Y-52442498D02*
X177900000Y-50892498D01*
X173750000Y-59662498D02*
X172600000Y-58512498D01*
X177562502Y-79392498D02*
X178467498Y-79392498D01*
X183645000Y-66637498D02*
X183645000Y-77634996D01*
X178125000Y-83092498D02*
X178125000Y-82417498D01*
X176750000Y-62202498D02*
X177190000Y-62642498D01*
X190230000Y-75472498D02*
X190800000Y-76042498D01*
X183245000Y-79774996D02*
X183245000Y-66803184D01*
X179425000Y-78434996D02*
X179425000Y-77590000D01*
X178993184Y-63892498D02*
X179825000Y-64724314D01*
X185362502Y-81892498D02*
X183245000Y-79774996D01*
X187917502Y-84142498D02*
X187112157Y-83337153D01*
X171957968Y-39182498D02*
X173242032Y-39182498D01*
X175100000Y-63410001D02*
X177002497Y-65312498D01*
X176825000Y-80130000D02*
X177562502Y-79392498D01*
X171050000Y-40090466D02*
X171957968Y-39182498D01*
X178125000Y-82417498D02*
X176825000Y-81117498D01*
X189262498Y-84142498D02*
X187917502Y-84142498D01*
X186824314Y-81892498D02*
X185362502Y-81892498D01*
X188590000Y-75472498D02*
X190230000Y-75472498D01*
X187112157Y-82180341D02*
X186824314Y-81892498D01*
X185042502Y-79032498D02*
X187570000Y-79032498D01*
X177190000Y-62642498D02*
X179650000Y-62642498D01*
X179425000Y-77590000D02*
X178827498Y-76992498D01*
X174484314Y-76992498D02*
X173180000Y-75688184D01*
X172600000Y-45812498D02*
X171050000Y-44262498D01*
X176750000Y-54582498D02*
X176750000Y-62202498D01*
X183645000Y-77634996D02*
X185042502Y-79032498D01*
X175900000Y-63078629D02*
X176713869Y-63892498D01*
X178827498Y-76992498D02*
X174484314Y-76992498D01*
X179650000Y-62642498D02*
X183645000Y-66637498D01*
X175100000Y-43232498D02*
X175100000Y-63410001D01*
X179825000Y-68692498D02*
X178125000Y-70392498D01*
X173242032Y-39182498D02*
X175900000Y-41840466D01*
X173180000Y-75688184D02*
X173180000Y-64558628D01*
X178467498Y-79392498D02*
X179425000Y-78434996D01*
X173750000Y-63988628D02*
X173750000Y-59662498D01*
X176825000Y-81117498D02*
X176825000Y-80130000D01*
X175900000Y-41840466D02*
X175900000Y-63078629D01*
X179825000Y-64724314D02*
X179825000Y-68692498D01*
X171050000Y-44262498D02*
X171050000Y-40090466D01*
X172600000Y-40732498D02*
X175100000Y-43232498D01*
X183245000Y-66803184D02*
X179484314Y-63042498D01*
X190800000Y-76042498D02*
X190800000Y-82604996D01*
X187570000Y-79032498D02*
X188590000Y-78012498D01*
X176713869Y-63892498D02*
X178993184Y-63892498D01*
X177900000Y-53432498D02*
X176750000Y-54582498D01*
X173180000Y-64558628D02*
X173750000Y-63988628D01*
X177002497Y-65312498D02*
X178125000Y-65312498D01*
X176350000Y-62368184D02*
X176350000Y-52442498D01*
X190800000Y-82604996D02*
X189262498Y-84142498D01*
X171050000Y-81182498D02*
X173980000Y-84112498D01*
X178125000Y-78012498D02*
X176995000Y-79142498D01*
X178827498Y-84112498D02*
X180225000Y-82714996D01*
X178993184Y-76592498D02*
X179825000Y-77424314D01*
X179825000Y-78852498D02*
X178125000Y-80552498D01*
X173580000Y-64724314D02*
X173580000Y-75522498D01*
X173580000Y-75522498D02*
X174650000Y-76592498D01*
X172600000Y-48352498D02*
X174550000Y-50302498D01*
X177085000Y-71892498D02*
X178125000Y-72932498D01*
X172800000Y-50892498D02*
X171050000Y-52642498D01*
X179425000Y-66552498D02*
X178125000Y-67852498D01*
X174687502Y-79142498D02*
X171450000Y-75904996D01*
X178980000Y-75472498D02*
X178125000Y-75472498D01*
X173076346Y-39582498D02*
X175500000Y-42006152D01*
X174150000Y-64154314D02*
X173580000Y-64724314D01*
X171450000Y-75904996D02*
X171450000Y-54582498D01*
X179825000Y-77424314D02*
X179825000Y-78852498D01*
X171450000Y-40256152D02*
X172123654Y-39582498D01*
X174650000Y-76592498D02*
X178993184Y-76592498D01*
X174150000Y-57522498D02*
X174150000Y-64154314D01*
X176548183Y-64292498D02*
X178827498Y-64292498D01*
X178827498Y-64292498D02*
X179425000Y-64890000D01*
X175500000Y-42006152D02*
X175500000Y-63244315D01*
X174550000Y-50302498D02*
X174550000Y-64320000D01*
X180225000Y-76717498D02*
X178980000Y-75472498D01*
X172123654Y-39582498D02*
X173076346Y-39582498D01*
X171450000Y-42122498D02*
X171450000Y-40256152D01*
X174550000Y-64320000D02*
X173980000Y-64890000D01*
X176995000Y-79142498D02*
X174687502Y-79142498D01*
X175500000Y-63244315D02*
X176548183Y-64292498D01*
X175057502Y-71892498D02*
X177085000Y-71892498D01*
X180225000Y-82714996D02*
X180225000Y-76717498D01*
X171450000Y-54582498D02*
X172600000Y-53432498D01*
X190447500Y-42939998D02*
X192635000Y-40752498D01*
X173980000Y-70814996D02*
X175057502Y-71892498D01*
X173980000Y-84112498D02*
X178827498Y-84112498D01*
X173980000Y-64890000D02*
X173980000Y-70814996D01*
X171050000Y-52642498D02*
X171050000Y-81182498D01*
X172600000Y-55972498D02*
X174150000Y-57522498D01*
X179425000Y-64890000D02*
X179425000Y-66552498D01*
X172600000Y-43272498D02*
X171450000Y-42122498D01*
X176635446Y-85142498D02*
X183695000Y-85142498D01*
X192650000Y-74392498D02*
X187205000Y-74392498D01*
X165850000Y-44262498D02*
X165850000Y-40090466D01*
X187205000Y-74392498D02*
X185745000Y-72932498D01*
X196210000Y-67852498D02*
X196210000Y-65312498D01*
X186900000Y-84892498D02*
X194410000Y-84892498D01*
X192900000Y-74642498D02*
X192650000Y-74392498D01*
X178847498Y-71392498D02*
X178827498Y-71412498D01*
X176300000Y-71412498D02*
X175280000Y-70392498D01*
X181395000Y-71392498D02*
X178847498Y-71392498D01*
X178827498Y-71412498D02*
X176300000Y-71412498D01*
X183695000Y-85142498D02*
X185745000Y-83092498D01*
X186650000Y-84642498D02*
X186900000Y-84892498D01*
X176284074Y-84791126D02*
X176635446Y-85142498D01*
X185745000Y-65312498D02*
X185745000Y-67852498D01*
X175280000Y-65312498D02*
X175280000Y-67852498D01*
X194410000Y-84892498D02*
X196210000Y-83092498D01*
X182645000Y-72642498D02*
X181395000Y-71392498D01*
X168960000Y-66552498D02*
X168960000Y-40666152D01*
X167660000Y-82882498D02*
X169360000Y-81182498D01*
X167057502Y-76592498D02*
X166250000Y-75784996D01*
X169760000Y-70832498D02*
X167660000Y-72932498D01*
X167876346Y-39582498D02*
X166923654Y-39582498D01*
X167660000Y-78012498D02*
X167346130Y-78012498D01*
X168528184Y-76592498D02*
X167057502Y-76592498D01*
X167660000Y-75472498D02*
X170360000Y-72772498D01*
X168960000Y-40666152D02*
X167876346Y-39582498D01*
X167660000Y-67852498D02*
X168960000Y-66552498D01*
X166757968Y-39182498D02*
X168042032Y-39182498D01*
X167570000Y-45812498D02*
X167400000Y-45812498D01*
X167400000Y-45812498D02*
X165850000Y-44262498D01*
X169360000Y-40500466D02*
X169360000Y-68692498D01*
X165850000Y-40090466D02*
X166757968Y-39182498D01*
X169360000Y-68692498D02*
X167660000Y-70392498D01*
X169360000Y-81182498D02*
X169360000Y-77424314D01*
X166250000Y-42122498D02*
X167400000Y-43272498D01*
X166250000Y-59662498D02*
X167400000Y-58512498D01*
X166250000Y-75784996D02*
X166250000Y-59662498D01*
X166250000Y-40256152D02*
X166250000Y-42122498D01*
X169360000Y-77424314D02*
X169125685Y-77190000D01*
X167973870Y-75472498D02*
X167660000Y-75472498D01*
X169760000Y-40252498D02*
X169760000Y-70832498D01*
X166923654Y-39582498D02*
X166250000Y-40256152D01*
X167346130Y-78012498D02*
X165450000Y-76116368D01*
X165450000Y-55382498D02*
X167400000Y-53432498D01*
X166510000Y-38782498D02*
X168290000Y-38782498D01*
X165450000Y-46402498D02*
X165450000Y-39842498D01*
X169125685Y-77190000D02*
X168528184Y-76592498D01*
X170360000Y-72772498D02*
X170360000Y-52642498D01*
X165450000Y-76116368D02*
X165450000Y-55382498D01*
X168042032Y-39182498D02*
X169360000Y-40500466D01*
X166846130Y-75472498D02*
X167660000Y-75472498D01*
X167660000Y-83092498D02*
X167660000Y-82882498D01*
X168290000Y-38782498D02*
X169760000Y-40252498D01*
X165450000Y-39842498D02*
X166510000Y-38782498D01*
X168550000Y-41882498D02*
X167400000Y-40732498D01*
X167660000Y-65312498D02*
X168550000Y-64422498D01*
X168362498Y-76992498D02*
X168960000Y-77590000D01*
X165850000Y-57522498D02*
X165850000Y-75950682D01*
X168960000Y-79252498D02*
X167660000Y-80552498D01*
X182900000Y-64892498D02*
X179060000Y-61052498D01*
X167400000Y-55972498D02*
X165850000Y-57522498D01*
X166891816Y-76992498D02*
X168362498Y-76992498D01*
X179060000Y-61052498D02*
X177900000Y-61052498D01*
X165850000Y-75950682D02*
X166891816Y-76992498D01*
X168960000Y-77590000D02*
X168960000Y-79252498D01*
X167400000Y-48352498D02*
X165450000Y-46402498D01*
X168550000Y-64422498D02*
X168550000Y-41882498D01*
X126582498Y-85260000D02*
X127180000Y-84662498D01*
X156664314Y-111600000D02*
X136520000Y-111600000D01*
X121440000Y-110952498D02*
X121440000Y-103320000D01*
X130380000Y-49660000D02*
X121470000Y-40750000D01*
X119062498Y-72560000D02*
X119669117Y-71953382D01*
X136720000Y-129500000D02*
X136720000Y-128417502D01*
X112789951Y-79160000D02*
X111060000Y-77430049D01*
X131640000Y-129370000D02*
X131640000Y-128417502D01*
X111060000Y-74090050D02*
X107010000Y-70040050D01*
X123750000Y-56950000D02*
X119060000Y-52260000D01*
X121480000Y-128100000D02*
X121480000Y-118850000D01*
X125400000Y-47350000D02*
X114150000Y-47350000D01*
X108160000Y-60184265D02*
X106610000Y-61734265D01*
X113055000Y-95750000D02*
X113055000Y-98625000D01*
X145760000Y-77214314D02*
X145014314Y-77960000D01*
X134760000Y-82240000D02*
X136760000Y-84240000D01*
X160382157Y-107882157D02*
X156664314Y-111600000D01*
X138760000Y-66460000D02*
X138860000Y-66560000D01*
X135860000Y-131000000D02*
X137740000Y-129120000D01*
X112300000Y-99380000D02*
X111280000Y-100400000D01*
X123520000Y-120480000D02*
X123520000Y-113032498D01*
X111280000Y-111270000D02*
X112300000Y-110250000D01*
X131640000Y-128417502D02*
X132237502Y-127820000D01*
X132660000Y-113737502D02*
X135197502Y-111200000D01*
X143120000Y-112620000D02*
X156210000Y-112620000D01*
X118000000Y-45734265D02*
X107717968Y-45734265D01*
X136720000Y-128417502D02*
X151137502Y-114000000D01*
X114370000Y-111550000D02*
X113420000Y-110600000D01*
X111665000Y-94600000D02*
X113600000Y-94600000D01*
X144380000Y-79160000D02*
X146160000Y-77380000D01*
X121470000Y-40750000D02*
X113265000Y-40750000D01*
X133172498Y-52260000D02*
X134000000Y-51432498D01*
X120940000Y-109230000D02*
X120940000Y-100900000D01*
X136670000Y-98750000D02*
X135500000Y-99920000D01*
X127540000Y-110250000D02*
X128840000Y-108950000D01*
X123520000Y-129322498D02*
X125197502Y-131000000D01*
X106210000Y-55054265D02*
X106210000Y-71654265D01*
X119060000Y-52260000D02*
X114360000Y-52260000D01*
X123755000Y-106505000D02*
X124560000Y-105700000D01*
X138860000Y-81322498D02*
X137462498Y-82720000D01*
X113820000Y-109230000D02*
X113820000Y-100400000D01*
X161500000Y-102250000D02*
X158000000Y-98750000D01*
X108803654Y-95750000D02*
X110515000Y-95750000D01*
X130260000Y-57280000D02*
X134000000Y-57280000D01*
X126640000Y-52480000D02*
X126640000Y-65390000D01*
X123750000Y-59000000D02*
X123750000Y-56950000D01*
X143080000Y-78737502D02*
X143080000Y-82940000D01*
X111060000Y-77430049D02*
X111060000Y-74090050D01*
X117750000Y-72750000D02*
X118872498Y-72750000D01*
X131255000Y-100555000D02*
X130080000Y-99380000D01*
X135460000Y-82122498D02*
X135460000Y-80460000D01*
X111500000Y-80424265D02*
X111500000Y-79500000D01*
X136237502Y-77960000D02*
X134760000Y-79437502D01*
X128755000Y-105675000D02*
X128755000Y-95350000D01*
X115784264Y-82720000D02*
X122520000Y-82720000D01*
X149680000Y-50960000D02*
X147990000Y-50960000D01*
X129262498Y-117870000D02*
X130080000Y-117870000D01*
X144128184Y-76620000D02*
X144380000Y-76620000D01*
X119760000Y-71862499D02*
X119669117Y-71953382D01*
X105010000Y-78074265D02*
X108160000Y-81224265D01*
X119760000Y-71862498D02*
X119760000Y-71862499D01*
X119280000Y-65440000D02*
X119560000Y-65440000D01*
X134180000Y-122520000D02*
X134180000Y-113940000D01*
X133900000Y-127820000D02*
X135200000Y-129120000D01*
X151760000Y-48880000D02*
X149680000Y-50960000D01*
X117784265Y-83764265D02*
X118260000Y-84240000D01*
X126020000Y-108520000D02*
X126000000Y-108500000D01*
X106210000Y-71654265D02*
X108160000Y-73604265D01*
X127660000Y-50960000D02*
X128960000Y-52260000D01*
X119920000Y-110250000D02*
X120940000Y-109230000D01*
X138160000Y-66708529D02*
X138160000Y-58910000D01*
X119669117Y-71953382D02*
X119760000Y-71862498D01*
X128840000Y-108950000D02*
X129852498Y-108950000D01*
X110945735Y-46934265D02*
X123065735Y-46934265D01*
X161500000Y-104790000D02*
X160350000Y-105940000D01*
X145680000Y-85040000D02*
X145680000Y-83000000D01*
X152132032Y-47060000D02*
X153310000Y-48237968D01*
X135340000Y-85660000D02*
X136760000Y-84240000D01*
X117380000Y-117870000D02*
X118900000Y-116350000D01*
X161500000Y-115960000D02*
X163050000Y-114410000D01*
X116260000Y-98750000D02*
X116260000Y-113910000D01*
X111280000Y-119170000D02*
X111280000Y-111270000D01*
X126000000Y-108500000D02*
X126040000Y-108500000D01*
X118900000Y-108020000D02*
X119920000Y-107000000D01*
X107717968Y-45734265D02*
X105010000Y-48442233D01*
X134000000Y-49457502D02*
X136397502Y-47060000D01*
X134760000Y-74620000D02*
X136760000Y-76620000D01*
X143857502Y-77960000D02*
X143080000Y-78737502D01*
X119260000Y-95750000D02*
X116260000Y-98750000D01*
X151966346Y-47460000D02*
X146157502Y-47460000D01*
X121440000Y-103320000D02*
X123505000Y-101255000D01*
X122500000Y-121500000D02*
X123520000Y-120480000D01*
X109005735Y-48874265D02*
X110945735Y-46934265D01*
X132660000Y-121500000D02*
X132660000Y-113737502D01*
X118900000Y-116350000D02*
X118900000Y-108020000D01*
X115860000Y-110952498D02*
X115262498Y-111550000D01*
X130590000Y-130420000D02*
X131640000Y-129370000D01*
X142260000Y-64960000D02*
X143080000Y-65780000D01*
X111280000Y-100400000D02*
X111280000Y-109230000D01*
X106250000Y-121630000D02*
X105100000Y-120480000D01*
X108636346Y-53714265D02*
X107550000Y-53714265D01*
X110660000Y-77595735D02*
X115784264Y-82719999D01*
X106250000Y-133190000D02*
X106250000Y-121630000D01*
X110660000Y-74255736D02*
X110660000Y-77595735D01*
X109310000Y-53040611D02*
X108636346Y-53714265D01*
X108160000Y-76144265D02*
X105810000Y-73794265D01*
X153310000Y-56900000D02*
X151465000Y-58745000D01*
X113600000Y-94600000D02*
X114840000Y-95840000D01*
X115784264Y-82719999D02*
X115784264Y-82720000D01*
X108160000Y-83764265D02*
X117784265Y-83764265D01*
X125880000Y-66460000D02*
X125880000Y-61130000D01*
X134000000Y-51432498D02*
X134000000Y-49457502D01*
X134180000Y-113940000D02*
X135500000Y-112620000D01*
X134760000Y-61660000D02*
X132750000Y-59650000D01*
X113420000Y-110600000D02*
X113420000Y-108120000D01*
X135260000Y-67500000D02*
X136760000Y-69000000D01*
X137462498Y-82720000D02*
X136057502Y-82720000D01*
X126340000Y-130420000D02*
X130590000Y-130420000D01*
X146160000Y-77380000D02*
X146160000Y-61590000D01*
X122500000Y-129120000D02*
X121480000Y-128100000D01*
X125632498Y-121500000D02*
X129262498Y-117870000D01*
X136760000Y-69000000D02*
X138060000Y-70300000D01*
X160500000Y-114000000D02*
X162650000Y-111850000D01*
X118260000Y-84240000D02*
X119680000Y-85660000D01*
X125040000Y-121500000D02*
X125632498Y-121500000D01*
X162650000Y-111850000D02*
X162650000Y-103400000D01*
X125000000Y-117870000D02*
X126020000Y-116850000D01*
X123520000Y-122520000D02*
X123520000Y-129322498D01*
X125060000Y-85260000D02*
X126582498Y-85260000D01*
X111280000Y-109230000D02*
X112300000Y-110250000D01*
X124560000Y-105700000D02*
X128780000Y-105700000D01*
X152910000Y-50270000D02*
X151760000Y-51420000D01*
X105810000Y-50747919D02*
X107683654Y-48874265D01*
X138060000Y-77160000D02*
X137260000Y-77960000D01*
X146920000Y-61960000D02*
X146920000Y-64790000D01*
X117380000Y-121460000D02*
X113570000Y-121460000D01*
X135197502Y-111200000D02*
X143800000Y-111200000D01*
X134760000Y-61660000D02*
X134760000Y-74620000D01*
X127180000Y-84662498D02*
X127180000Y-83000000D01*
X124577502Y-122800000D02*
X128820000Y-122800000D01*
X145760000Y-62500000D02*
X145760000Y-77214314D01*
X130080000Y-107000000D02*
X128755000Y-105675000D01*
X114840000Y-95840000D02*
X114840000Y-99380000D01*
X127180000Y-77860000D02*
X125880000Y-79160000D01*
X132237502Y-127820000D02*
X133900000Y-127820000D01*
X107550000Y-53714265D02*
X106210000Y-55054265D01*
X134000000Y-57280000D02*
X134000000Y-60200000D01*
X146920000Y-58580000D02*
X146920000Y-61960000D01*
X138060000Y-70300000D02*
X138060000Y-77160000D01*
X107683654Y-46334265D02*
X105410000Y-48607919D01*
X108300000Y-73744265D02*
X108160000Y-73604265D01*
X143080000Y-65780000D02*
X143080000Y-75320000D01*
X115262498Y-111550000D02*
X114370000Y-111550000D01*
X119062498Y-72560000D02*
X119760000Y-71862498D01*
X146920000Y-64790000D02*
X151330000Y-69200000D01*
X124580000Y-82940000D02*
X125880000Y-84240000D01*
X107683654Y-48874265D02*
X109005735Y-48874265D01*
X109760000Y-136700000D02*
X106250000Y-133190000D01*
X126640000Y-65390000D02*
X127180000Y-65930000D01*
X105410000Y-75934265D02*
X108160000Y-78684265D01*
X113420000Y-108120000D02*
X112300000Y-107000000D01*
X125000000Y-110250000D02*
X123980000Y-111270000D01*
X136397502Y-47060000D02*
X152132032Y-47060000D01*
X118872498Y-72750000D02*
X119062498Y-72560000D01*
X143677502Y-85260000D02*
X145460000Y-85260000D01*
X127540000Y-115500000D02*
X135500000Y-107540000D01*
X127180000Y-65930000D02*
X127180000Y-77860000D01*
X153310000Y-48237968D02*
X153310000Y-56900000D01*
X105100000Y-120480000D02*
X105100000Y-99453654D01*
X142680000Y-66511374D02*
X142680000Y-84262498D01*
X136520000Y-111600000D02*
X135500000Y-112620000D01*
X158000000Y-98750000D02*
X136670000Y-98750000D01*
X128755000Y-95350000D02*
X128005000Y-94600000D01*
X125197502Y-131000000D02*
X135860000Y-131000000D01*
X113570000Y-121460000D02*
X111280000Y-119170000D01*
X112420000Y-50960000D02*
X113720000Y-49660000D01*
X115860000Y-96890000D02*
X115860000Y-110952498D01*
X122500000Y-121500000D02*
X123520000Y-122520000D01*
X115204265Y-65944265D02*
X118260000Y-69000000D01*
X122520000Y-82720000D02*
X125060000Y-85260000D01*
X108160000Y-83764265D02*
X111500000Y-80424265D01*
X112500000Y-78000000D02*
X117750000Y-72750000D01*
X136760000Y-81700000D02*
X138460000Y-80000000D01*
X107010000Y-70040050D02*
X107010000Y-63874265D01*
X124580000Y-60580000D02*
X124580000Y-82940000D01*
X134250000Y-52500000D02*
X139000000Y-57250000D01*
X132660000Y-129120000D02*
X133960000Y-130420000D01*
X145014314Y-77960000D02*
X143857502Y-77960000D01*
X144380000Y-65580000D02*
X144380000Y-66460000D01*
X135800000Y-130420000D02*
X136720000Y-129500000D01*
X118260000Y-79160000D02*
X112789951Y-79160000D01*
X120160000Y-66040000D02*
X120160000Y-74720000D01*
X119560000Y-65440000D02*
X120160000Y-66040000D01*
X128820000Y-122800000D02*
X130120000Y-121500000D01*
X105010000Y-48442233D02*
X105010000Y-78074265D01*
X108160000Y-67804265D02*
X114524265Y-67804265D01*
X151966346Y-47460000D02*
X152910000Y-48403654D01*
X123065735Y-46934265D02*
X123250000Y-46750000D01*
X113055000Y-98625000D02*
X112300000Y-99380000D01*
X119540000Y-95750000D02*
X119260000Y-95750000D01*
X119760000Y-70500000D02*
X118260000Y-69000000D01*
X120560000Y-61640000D02*
X120560000Y-79400000D01*
X135260000Y-61460000D02*
X135260000Y-67500000D01*
X137260000Y-77960000D02*
X136237502Y-77960000D01*
X123555735Y-108305735D02*
X123755000Y-108106470D01*
X125120000Y-50960000D02*
X126640000Y-52480000D01*
X112420000Y-58580000D02*
X119280000Y-65440000D01*
X146500000Y-61250000D02*
X146500000Y-52010000D01*
X126000000Y-46750000D02*
X125400000Y-47350000D01*
X114500000Y-52260000D02*
X113510000Y-52260000D01*
X156210000Y-112620000D02*
X161500000Y-107330000D01*
X143080000Y-75320000D02*
X144380000Y-76620000D01*
X127580000Y-129120000D02*
X134180000Y-122520000D01*
X134760000Y-79437502D02*
X134760000Y-82240000D01*
X138460000Y-67008529D02*
X138160000Y-66708529D01*
X146160000Y-61590000D02*
X146500000Y-61250000D01*
X128780000Y-105700000D02*
X130080000Y-107000000D01*
X128960000Y-52260000D02*
X133172498Y-52260000D01*
X113720000Y-49660000D02*
X130380000Y-49660000D01*
X114150000Y-47350000D02*
X109310000Y-52190000D01*
X112420000Y-51170000D02*
X112420000Y-50960000D01*
X126040000Y-108500000D02*
X127540000Y-107000000D01*
X109310000Y-52190000D02*
X109310000Y-53040611D01*
X106610000Y-61734265D02*
X106610000Y-70205736D01*
X120160000Y-74720000D02*
X118260000Y-76620000D01*
X145460000Y-85260000D02*
X145680000Y-85040000D01*
X123980000Y-111270000D02*
X123980000Y-122202498D01*
X135200000Y-129120000D02*
X135200000Y-121500000D01*
X115160000Y-65944265D02*
X115204265Y-65944265D01*
X145760000Y-62500000D02*
X142910000Y-59650000D01*
X125880000Y-61130000D02*
X123750000Y-59000000D01*
X121480000Y-118850000D02*
X122460000Y-117870000D01*
X127180000Y-83000000D02*
X125880000Y-81700000D01*
X139000000Y-60200000D02*
X144380000Y-65580000D01*
X134000000Y-60200000D02*
X135260000Y-61460000D01*
X143080000Y-82940000D02*
X144380000Y-84240000D01*
X105100000Y-99453654D02*
X108803654Y-95750000D01*
X136655000Y-114005000D02*
X135500000Y-115160000D01*
X130260000Y-57280000D02*
X128960000Y-57280000D01*
X122580000Y-58580000D02*
X124580000Y-60580000D01*
X106610000Y-70205736D02*
X110660000Y-74255736D01*
X163050000Y-114410000D02*
X163050000Y-101260000D01*
X133960000Y-130420000D02*
X135800000Y-130420000D01*
X113820000Y-100400000D02*
X114840000Y-99380000D01*
X142680000Y-84262498D02*
X143677502Y-85260000D01*
X163050000Y-101260000D02*
X161500000Y-99710000D01*
X135460000Y-80460000D02*
X136760000Y-79160000D01*
X128960000Y-57280000D02*
X127660000Y-58580000D01*
X160350000Y-107850000D02*
X160382157Y-107882157D01*
X119760000Y-71862498D02*
X119760000Y-70500000D01*
X113510000Y-52260000D02*
X112420000Y-51170000D01*
X117000000Y-95750000D02*
X115860000Y-96890000D01*
X146500000Y-52010000D02*
X145450000Y-50960000D01*
X138160000Y-58910000D02*
X137830000Y-58580000D01*
X118260000Y-66460000D02*
X118760000Y-66460000D01*
X123755000Y-108106470D02*
X123755000Y-106505000D01*
X138860000Y-66560000D02*
X138860000Y-81322498D01*
X110515000Y-95750000D02*
X111665000Y-94600000D01*
X120560000Y-79400000D02*
X118260000Y-81700000D01*
X139000000Y-57250000D02*
X139000000Y-60200000D01*
X123520000Y-113032498D02*
X121440000Y-110952498D01*
X120665735Y-46334265D02*
X107683654Y-46334265D01*
X162650000Y-103400000D02*
X161500000Y-102250000D01*
X131680000Y-50960000D02*
X132750000Y-50960000D01*
X129852498Y-108950000D02*
X131255000Y-107547498D01*
X127540000Y-117870000D02*
X127540000Y-115500000D01*
X138460000Y-80000000D02*
X138460000Y-67008529D01*
X105810000Y-73794265D02*
X105810000Y-50747919D01*
X147545000Y-104250000D02*
X147450000Y-104250000D01*
X147450000Y-104250000D02*
X143120000Y-99920000D01*
X131255000Y-107547498D02*
X131255000Y-100555000D01*
X132750000Y-59650000D02*
X132750000Y-58580000D01*
X116260000Y-113910000D02*
X112300000Y-117870000D01*
X147545000Y-107455000D02*
X147545000Y-104250000D01*
X114840000Y-110250000D02*
X113820000Y-109230000D01*
X125040000Y-129120000D02*
X126340000Y-130420000D01*
X119680000Y-85660000D02*
X135340000Y-85660000D01*
X107010000Y-63874265D02*
X108160000Y-62724265D01*
X130380000Y-49660000D02*
X131680000Y-50960000D01*
X149005000Y-114005000D02*
X136655000Y-114005000D01*
X126020000Y-116850000D02*
X126020000Y-108520000D01*
X117500000Y-58580000D02*
X120560000Y-61640000D01*
X142910000Y-59650000D02*
X142910000Y-58580000D01*
X160350000Y-105940000D02*
X160350000Y-107850000D01*
X105410000Y-48607919D02*
X105410000Y-75934265D01*
X123980000Y-122202498D02*
X124577502Y-122800000D01*
X136057502Y-82720000D02*
X135460000Y-82122498D01*
X151137502Y-114000000D02*
X160500000Y-114000000D01*
X120940000Y-100900000D02*
X122460000Y-99380000D01*
X141694313Y-65525687D02*
X142680000Y-66511374D01*
X135200000Y-121500000D02*
X135200000Y-115460000D01*
X143800000Y-111200000D02*
X147545000Y-107455000D01*
X152910000Y-48403654D02*
X152910000Y-50270000D01*
X114524265Y-67804265D02*
X118260000Y-71540000D01*
X135200000Y-115460000D02*
X135500000Y-115160000D01*
X145680000Y-83000000D02*
X144380000Y-81700000D01*
%TD*%
M02*
