%TF.GenerationSoftware,KiCad,Pcbnew,8.0.4*%
%TF.CreationDate,2024-11-02T20:41:25-04:00*%
%TF.ProjectId,100x100 Panel,31303078-3130-4302-9050-616e656c2e6b,rev?*%
%TF.SameCoordinates,Original*%
%TF.FileFunction,Copper,L1,Top*%
%TF.FilePolarity,Positive*%
%FSLAX46Y46*%
G04 Gerber Fmt 4.6, Leading zero omitted, Abs format (unit mm)*
G04 Created by KiCad (PCBNEW 8.0.4) date 2024-11-02 20:41:25*
%MOMM*%
%LPD*%
G01*
G04 APERTURE LIST*
G04 Aperture macros list*
%AMRoundRect*
0 Rectangle with rounded corners*
0 $1 Rounding radius*
0 $2 $3 $4 $5 $6 $7 $8 $9 X,Y pos of 4 corners*
0 Add a 4 corners polygon primitive as box body*
4,1,4,$2,$3,$4,$5,$6,$7,$8,$9,$2,$3,0*
0 Add four circle primitives for the rounded corners*
1,1,$1+$1,$2,$3*
1,1,$1+$1,$4,$5*
1,1,$1+$1,$6,$7*
1,1,$1+$1,$8,$9*
0 Add four rect primitives between the rounded corners*
20,1,$1+$1,$2,$3,$4,$5,0*
20,1,$1+$1,$4,$5,$6,$7,0*
20,1,$1+$1,$6,$7,$8,$9,0*
20,1,$1+$1,$8,$9,$2,$3,0*%
G04 Aperture macros list end*
%TA.AperFunction,NonConductor*%
%ADD10C,0.200000*%
%TD*%
%TA.AperFunction,SMDPad,CuDef*%
%ADD11RoundRect,0.135000X-0.185000X0.135000X-0.185000X-0.135000X0.185000X-0.135000X0.185000X0.135000X0*%
%TD*%
%TA.AperFunction,ComponentPad*%
%ADD12R,2.000000X1.440000*%
%TD*%
%TA.AperFunction,ComponentPad*%
%ADD13O,2.000000X1.440000*%
%TD*%
%TA.AperFunction,ComponentPad*%
%ADD14R,1.700000X1.700000*%
%TD*%
%TA.AperFunction,ComponentPad*%
%ADD15O,1.700000X1.700000*%
%TD*%
%TA.AperFunction,SMDPad,CuDef*%
%ADD16R,1.000000X1.250000*%
%TD*%
%TA.AperFunction,SMDPad,CuDef*%
%ADD17RoundRect,0.250000X1.075000X-0.312500X1.075000X0.312500X-1.075000X0.312500X-1.075000X-0.312500X0*%
%TD*%
%TA.AperFunction,ComponentPad*%
%ADD18R,1.440000X2.000000*%
%TD*%
%TA.AperFunction,ComponentPad*%
%ADD19O,1.440000X2.000000*%
%TD*%
%TA.AperFunction,SMDPad,CuDef*%
%ADD20RoundRect,0.243750X0.456250X-0.243750X0.456250X0.243750X-0.456250X0.243750X-0.456250X-0.243750X0*%
%TD*%
%TA.AperFunction,SMDPad,CuDef*%
%ADD21RoundRect,0.250000X0.450000X-0.262500X0.450000X0.262500X-0.450000X0.262500X-0.450000X-0.262500X0*%
%TD*%
%TA.AperFunction,SMDPad,CuDef*%
%ADD22RoundRect,0.250000X-0.262500X-0.450000X0.262500X-0.450000X0.262500X0.450000X-0.262500X0.450000X0*%
%TD*%
%TA.AperFunction,SMDPad,CuDef*%
%ADD23R,1.250000X1.000000*%
%TD*%
%TA.AperFunction,SMDPad,CuDef*%
%ADD24RoundRect,0.250000X-0.450000X0.262500X-0.450000X-0.262500X0.450000X-0.262500X0.450000X0.262500X0*%
%TD*%
%TA.AperFunction,SMDPad,CuDef*%
%ADD25RoundRect,0.250000X-1.050000X-0.550000X1.050000X-0.550000X1.050000X0.550000X-1.050000X0.550000X0*%
%TD*%
%TA.AperFunction,ViaPad*%
%ADD26C,0.600000*%
%TD*%
%TA.AperFunction,Conductor*%
%ADD27C,0.200000*%
%TD*%
G04 APERTURE END LIST*
D10*
X197400000Y-56142498D02*
X196650000Y-55642498D01*
X197400000Y-55142498D01*
X197400000Y-56142498D01*
%TA.AperFunction,NonConductor*%
G36*
X197400000Y-56142498D02*
G01*
X196650000Y-55642498D01*
X197400000Y-55142498D01*
X197400000Y-56142498D01*
G37*
%TD.AperFunction*%
X197400000Y-67123267D02*
X196650000Y-66623267D01*
X197400000Y-66123267D01*
X197400000Y-67123267D01*
%TA.AperFunction,NonConductor*%
G36*
X197400000Y-67123267D02*
G01*
X196650000Y-66623267D01*
X197400000Y-66123267D01*
X197400000Y-67123267D01*
G37*
%TD.AperFunction*%
D11*
%TO.P,220\u03A927111,1*%
%TO.N,N/C*%
X185044890Y-85132498D03*
%TO.P,220\u03A927111,2*%
X185044890Y-86152498D03*
%TD*%
%TO.P,220\u03A9A1,1*%
%TO.N,N/C*%
X167400000Y-85132498D03*
%TO.P,220\u03A9A1,2*%
X167400000Y-86152498D03*
%TD*%
%TO.P,220\u03A925111,1*%
%TO.N,N/C*%
X182663260Y-85132498D03*
%TO.P,220\u03A925111,2*%
X182663260Y-86152498D03*
%TD*%
%TO.P,220\u03A923111,1*%
%TO.N,N/C*%
X180281630Y-85132498D03*
%TO.P,220\u03A923111,2*%
X180281630Y-86152498D03*
%TD*%
%TO.P,220\u03A9A3,1*%
%TO.N,N/C*%
X169781630Y-85132498D03*
%TO.P,220\u03A9A3,2*%
X169781630Y-86152498D03*
%TD*%
%TO.P,220\u03A924111,1*%
%TO.N,N/C*%
X181472445Y-85132498D03*
%TO.P,220\u03A924111,2*%
X181472445Y-86152498D03*
%TD*%
%TO.P,220\u03A928111,1*%
%TO.N,N/C*%
X186235710Y-85132498D03*
%TO.P,220\u03A928111,2*%
X186235710Y-86152498D03*
%TD*%
%TO.P,220\u03A9A2,1*%
%TO.N,N/C*%
X168590815Y-85132498D03*
%TO.P,220\u03A9A2,2*%
X168590815Y-86152498D03*
%TD*%
%TO.P,220\u03A926111,1*%
%TO.N,N/C*%
X183854075Y-85132498D03*
%TO.P,220\u03A926111,2*%
X183854075Y-86152498D03*
%TD*%
D12*
%TO.P,8xDIPA1,1,A1*%
%TO.N,N/C*%
X175280000Y-83092498D03*
D13*
%TO.P,8xDIPA1,2,A2*%
X175280000Y-80552498D03*
%TO.P,8xDIPA1,3,A3*%
X175280000Y-78012498D03*
%TO.P,8xDIPA1,4,A4*%
X175280000Y-75472498D03*
%TO.P,8xDIPA1,5,A5*%
X175280000Y-72932498D03*
%TO.P,8xDIPA1,6,A6*%
X175280000Y-70392498D03*
%TO.P,8xDIPA1,7,A7*%
X175280000Y-67852498D03*
%TO.P,8xDIPA1,8,A8*%
X175280000Y-65312498D03*
%TO.P,8xDIPA1,9*%
X167660000Y-65312498D03*
%TO.P,8xDIPA1,10*%
X167660000Y-67852498D03*
%TO.P,8xDIPA1,11*%
X167660000Y-70392498D03*
%TO.P,8xDIPA1,12*%
X167660000Y-72932498D03*
%TO.P,8xDIPA1,13*%
X167660000Y-75472498D03*
%TO.P,8xDIPA1,14*%
X167660000Y-78012498D03*
%TO.P,8xDIPA1,15*%
X167660000Y-80552498D03*
%TO.P,8xDIPA1,16*%
X167660000Y-83092498D03*
%TD*%
D14*
%TO.P,MW1,1,Pin_1*%
%TO.N,N/C*%
X184675000Y-40752498D03*
D15*
%TO.P,MW1,2,Pin_2*%
X182135000Y-40752498D03*
%TD*%
D14*
%TO.P,PWR1,1,Pin_1*%
%TO.N,N/C*%
X195175000Y-40752498D03*
D15*
%TO.P,PWR1,2,Pin_2*%
X192635000Y-40752498D03*
%TD*%
D16*
%TO.P,2xPushButtonB1,1*%
%TO.N,N/C*%
X193900000Y-61767498D03*
%TO.P,2xPushButtonB1,2*%
X193900000Y-54017498D03*
%TD*%
%TO.P,2xPushButtonB2,1*%
%TO.N,N/C*%
X183400000Y-61767498D03*
%TO.P,2xPushButtonB2,2*%
X183400000Y-54017498D03*
%TD*%
D11*
%TO.P,220\u03A911111,1*%
%TO.N,N/C*%
X188400000Y-85132498D03*
%TO.P,220\u03A911111,2*%
X188400000Y-86152498D03*
%TD*%
%TO.P,220\u03A9A4,1*%
%TO.N,N/C*%
X170972445Y-85132498D03*
%TO.P,220\u03A9A4,2*%
X170972445Y-86152498D03*
%TD*%
%TO.P,220\u03A9B4,1*%
%TO.N,N/C*%
X175735710Y-85132498D03*
%TO.P,220\u03A9B4,2*%
X175735710Y-86152498D03*
%TD*%
%TO.P,220\u03A9B1,1*%
%TO.N,N/C*%
X172163260Y-85132498D03*
%TO.P,220\u03A9B1,2*%
X172163260Y-86152498D03*
%TD*%
%TO.P,220\u03A9B3,1*%
%TO.N,N/C*%
X174544890Y-85132498D03*
%TO.P,220\u03A9B3,2*%
X174544890Y-86152498D03*
%TD*%
%TO.P,220\u03A9B2,1*%
%TO.N,N/C*%
X173354075Y-85132498D03*
%TO.P,220\u03A9B2,2*%
X173354075Y-86152498D03*
%TD*%
D14*
%TO.P,JA1,1,Pin_1*%
%TO.N,N/C*%
X167400000Y-61052498D03*
D15*
%TO.P,JA1,2,Pin_2*%
X167400000Y-58512498D03*
%TO.P,JA1,3,Pin_3*%
X167400000Y-55972498D03*
%TO.P,JA1,4,Pin_4*%
X167400000Y-53432498D03*
%TO.P,JA1,5,Pin_5*%
X167400000Y-50892498D03*
%TO.P,JA1,6,Pin_6*%
X167400000Y-48352498D03*
%TO.P,JA1,7,Pin_7*%
X167400000Y-45812498D03*
%TO.P,JA1,8,Pin_8*%
X167400000Y-43272498D03*
%TO.P,JA1,9,Pin_9*%
X167400000Y-40732498D03*
%TD*%
D12*
%TO.P,8xDIP1,1,A1*%
%TO.N,N/C*%
X196210000Y-83092498D03*
D13*
%TO.P,8xDIP1,2,A2*%
X196210000Y-80552498D03*
%TO.P,8xDIP1,3,A3*%
X196210000Y-78012498D03*
%TO.P,8xDIP1,4,A4*%
X196210000Y-75472498D03*
%TO.P,8xDIP1,5,A5*%
X196210000Y-72932498D03*
%TO.P,8xDIP1,6,A6*%
X196210000Y-70392498D03*
%TO.P,8xDIP1,7,A7*%
X196210000Y-67852498D03*
%TO.P,8xDIP1,8,A8*%
X196210000Y-65312498D03*
%TO.P,8xDIP1,9*%
X188590000Y-65312498D03*
%TO.P,8xDIP1,10*%
X188590000Y-67852498D03*
%TO.P,8xDIP1,11*%
X188590000Y-70392498D03*
%TO.P,8xDIP1,12*%
X188590000Y-72932498D03*
%TO.P,8xDIP1,13*%
X188590000Y-75472498D03*
%TO.P,8xDIP1,14*%
X188590000Y-78012498D03*
%TO.P,8xDIP1,15*%
X188590000Y-80552498D03*
%TO.P,8xDIP1,16*%
X188590000Y-83092498D03*
%TD*%
D14*
%TO.P,J2,1,Pin_1*%
%TO.N,N/C*%
X172600000Y-61052498D03*
D15*
%TO.P,J2,2,Pin_2*%
X172600000Y-58512498D03*
%TO.P,J2,3,Pin_3*%
X172600000Y-55972498D03*
%TO.P,J2,4,Pin_4*%
X172600000Y-53432498D03*
%TO.P,J2,5,Pin_5*%
X172600000Y-50892498D03*
%TO.P,J2,6,Pin_6*%
X172600000Y-48352498D03*
%TO.P,J2,7,Pin_7*%
X172600000Y-45812498D03*
%TO.P,J2,8,Pin_8*%
X172600000Y-43272498D03*
%TO.P,J2,9,Pin_9*%
X172600000Y-40732498D03*
%TD*%
D17*
%TO.P,220\u03A9P1,1*%
%TO.N,N/C*%
X193900000Y-50892498D03*
%TO.P,220\u03A9P1,2*%
X193900000Y-47967498D03*
%TD*%
D14*
%TO.P,J1,1,Pin_1*%
%TO.N,N/C*%
X177900000Y-61052498D03*
D15*
%TO.P,J1,2,Pin_2*%
X177900000Y-58512498D03*
%TO.P,J1,3,Pin_3*%
X177900000Y-55972498D03*
%TO.P,J1,4,Pin_4*%
X177900000Y-53432498D03*
%TO.P,J1,5,Pin_5*%
X177900000Y-50892498D03*
%TO.P,J1,6,Pin_6*%
X177900000Y-48352498D03*
%TO.P,J1,7,Pin_7*%
X177900000Y-45812498D03*
%TO.P,J1,8,Pin_8*%
X177900000Y-43272498D03*
%TO.P,J1,9,Pin_9*%
X177900000Y-40732498D03*
%TD*%
D16*
%TO.P,WE_Switch1,1*%
%TO.N,N/C*%
X187800000Y-43717498D03*
%TO.P,WE_Switch1,2*%
X187800000Y-51467498D03*
%TD*%
D17*
%TO.P,220\u03A9P2,1*%
%TO.N,N/C*%
X183400000Y-50892498D03*
%TO.P,220\u03A9P2,2*%
X183400000Y-47967498D03*
%TD*%
D11*
%TO.P,220\u03A917111,1*%
%TO.N,N/C*%
X195544890Y-85132498D03*
%TO.P,220\u03A917111,2*%
X195544890Y-86152498D03*
%TD*%
%TO.P,220\u03A916111,1*%
%TO.N,N/C*%
X194354075Y-85132498D03*
%TO.P,220\u03A916111,2*%
X194354075Y-86152498D03*
%TD*%
%TO.P,220\u03A921111,1*%
%TO.N,N/C*%
X177900000Y-85132498D03*
%TO.P,220\u03A921111,2*%
X177900000Y-86152498D03*
%TD*%
%TO.P,220\u03A912111,1*%
%TO.N,N/C*%
X189590815Y-85132498D03*
%TO.P,220\u03A912111,2*%
X189590815Y-86152498D03*
%TD*%
%TO.P,220\u03A914111,1*%
%TO.N,N/C*%
X191972445Y-85132498D03*
%TO.P,220\u03A914111,2*%
X191972445Y-86152498D03*
%TD*%
%TO.P,220\u03A913111,1*%
%TO.N,N/C*%
X190781630Y-85132498D03*
%TO.P,220\u03A913111,2*%
X190781630Y-86152498D03*
%TD*%
%TO.P,220\u03A915111,1*%
%TO.N,N/C*%
X193163260Y-85132498D03*
%TO.P,220\u03A915111,2*%
X193163260Y-86152498D03*
%TD*%
%TO.P,220\u03A922111,1*%
%TO.N,N/C*%
X179090815Y-85132498D03*
%TO.P,220\u03A922111,2*%
X179090815Y-86152498D03*
%TD*%
%TO.P,220\u03A918111,1*%
%TO.N,N/C*%
X196735710Y-85132498D03*
%TO.P,220\u03A918111,2*%
X196735710Y-86152498D03*
%TD*%
D12*
%TO.P,8xDIP2,1,A1*%
%TO.N,N/C*%
X185745000Y-83092498D03*
D13*
%TO.P,8xDIP2,2,A2*%
X185745000Y-80552498D03*
%TO.P,8xDIP2,3,A3*%
X185745000Y-78012498D03*
%TO.P,8xDIP2,4,A4*%
X185745000Y-75472498D03*
%TO.P,8xDIP2,5,A5*%
X185745000Y-72932498D03*
%TO.P,8xDIP2,6,A6*%
X185745000Y-70392498D03*
%TO.P,8xDIP2,7,A7*%
X185745000Y-67852498D03*
%TO.P,8xDIP2,8,A8*%
X185745000Y-65312498D03*
%TO.P,8xDIP2,9*%
X178125000Y-65312498D03*
%TO.P,8xDIP2,10*%
X178125000Y-67852498D03*
%TO.P,8xDIP2,11*%
X178125000Y-70392498D03*
%TO.P,8xDIP2,12*%
X178125000Y-72932498D03*
%TO.P,8xDIP2,13*%
X178125000Y-75472498D03*
%TO.P,8xDIP2,14*%
X178125000Y-78012498D03*
%TO.P,8xDIP2,15*%
X178125000Y-80552498D03*
%TO.P,8xDIP2,16*%
X178125000Y-83092498D03*
%TD*%
D18*
%TO.P,74HC1,1,A1*%
%TO.N,N/C*%
X112420000Y-58580000D03*
D19*
%TO.P,74HC1,2,Y1*%
X114960000Y-58580000D03*
%TO.P,74HC1,3,A2*%
X117500000Y-58580000D03*
%TO.P,74HC1,4,Y2*%
X120040000Y-58580000D03*
%TO.P,74HC1,5,A3*%
X122580000Y-58580000D03*
%TO.P,74HC1,6,Y3*%
X125120000Y-58580000D03*
%TO.P,74HC1,7,GND*%
X127660000Y-58580000D03*
%TO.P,74HC1,8,Y4*%
X127660000Y-50960000D03*
%TO.P,74HC1,9,A4*%
X125120000Y-50960000D03*
%TO.P,74HC1,10,Y5*%
X122580000Y-50960000D03*
%TO.P,74HC1,11,A5*%
X120040000Y-50960000D03*
%TO.P,74HC1,12,Y6*%
X117500000Y-50960000D03*
%TO.P,74HC1,13,A6*%
X114960000Y-50960000D03*
%TO.P,74HC1,14,VCC*%
X112420000Y-50960000D03*
%TD*%
D20*
%TO.P,LED_BLUE2,1*%
%TO.N,N/C*%
X133477143Y-45712500D03*
%TO.P,LED_BLUE2,2*%
X133477143Y-43837500D03*
%TD*%
D14*
%TO.P,EXT_CLK1,1,Pin_1*%
%TO.N,N/C*%
X161500000Y-115960000D03*
D15*
%TO.P,EXT_CLK1,2,Pin_2*%
X161500000Y-118500000D03*
%TD*%
D21*
%TO.P,100\u03A91114,1*%
%TO.N,N/C*%
X143587856Y-42087500D03*
%TO.P,100\u03A91114,2*%
X143587856Y-40262500D03*
%TD*%
%TO.P,100\u03A911,1*%
%TO.N,N/C*%
X119485000Y-42087500D03*
%TO.P,100\u03A911,2*%
X119485000Y-40262500D03*
%TD*%
D14*
%TO.P,DATA_IN,1,Pin_1*%
%TO.N,N/C*%
X108160000Y-67804265D03*
D15*
%TO.P,DATA_IN,2,Pin_2*%
X108160000Y-65264265D03*
%TO.P,DATA_IN,3,Pin_3*%
X108160000Y-62724265D03*
%TO.P,DATA_IN,4,Pin_4*%
X108160000Y-60184265D03*
%TO.P,DATA_IN,5,Pin_5*%
X108160000Y-57644265D03*
%TO.P,DATA_IN,6,Pin_6*%
X108160000Y-55104265D03*
%TO.P,DATA_IN,7,Pin_7*%
X108160000Y-52564265D03*
%TO.P,DATA_IN,8,Pin_8*%
X108160000Y-50024265D03*
%TO.P,DATA_IN,9,Pin_9*%
X108160000Y-47484265D03*
%TD*%
D14*
%TO.P,ADDR,1,Pin_1*%
%TO.N,N/C*%
X108160000Y-83764265D03*
D15*
%TO.P,ADDR,2,Pin_2*%
X108160000Y-81224265D03*
%TO.P,ADDR,3,Pin_3*%
X108160000Y-78684265D03*
%TO.P,ADDR,4,Pin_4*%
X108160000Y-76144265D03*
%TO.P,ADDR,5,Pin_5*%
X108160000Y-73604265D03*
%TD*%
D18*
%TO.P,MUX2,1,SEL*%
%TO.N,N/C*%
X112300000Y-117870000D03*
D19*
%TO.P,MUX2,2,A1*%
X114840000Y-117870000D03*
%TO.P,MUX2,3,B1*%
X117380000Y-117870000D03*
%TO.P,MUX2,4,Y1*%
X119920000Y-117870000D03*
%TO.P,MUX2,5,A2*%
X122460000Y-117870000D03*
%TO.P,MUX2,6,B2*%
X125000000Y-117870000D03*
%TO.P,MUX2,7,Y2*%
X127540000Y-117870000D03*
%TO.P,MUX2,8,GND*%
X130080000Y-117870000D03*
%TO.P,MUX2,9,Y3*%
X130080000Y-110250000D03*
%TO.P,MUX2,10,B3*%
X127540000Y-110250000D03*
%TO.P,MUX2,11,A3*%
X125000000Y-110250000D03*
%TO.P,MUX2,12,Y4*%
X122460000Y-110250000D03*
%TO.P,MUX2,13,B4*%
X119920000Y-110250000D03*
%TO.P,MUX2,14,A4*%
X117380000Y-110250000D03*
%TO.P,MUX2,15,EN*%
X114840000Y-110250000D03*
%TO.P,MUX2,16,VCC*%
X112300000Y-110250000D03*
%TD*%
D20*
%TO.P,LED_YELLOW4,1*%
%TO.N,N/C*%
X147945000Y-101625000D03*
%TO.P,LED_YELLOW4,2*%
X147945000Y-99750000D03*
%TD*%
D22*
%TO.P,220\u03A92,1*%
%TO.N,N/C*%
X144337500Y-118750000D03*
%TO.P,220\u03A92,2*%
X146162500Y-118750000D03*
%TD*%
D23*
%TO.P,CLK1,1*%
%TO.N,N/C*%
X148875000Y-112500000D03*
%TO.P,CLK1,2*%
X156625000Y-112500000D03*
%TD*%
D21*
%TO.P,100\u03A91111,1*%
%TO.N,N/C*%
X135980714Y-42087500D03*
%TO.P,100\u03A91111,2*%
X135980714Y-40262500D03*
%TD*%
D20*
%TO.P,LED_BLUE4,1*%
%TO.N,N/C*%
X138522857Y-45712500D03*
%TO.P,LED_BLUE4,2*%
X138522857Y-43837500D03*
%TD*%
D12*
%TO.P,SN74189N2,1,A0*%
%TO.N,N/C*%
X136760000Y-66460000D03*
D13*
%TO.P,SN74189N2,2,ME*%
X136760000Y-69000000D03*
%TO.P,SN74189N2,3,WE*%
X136760000Y-71540000D03*
%TO.P,SN74189N2,4,D1*%
X136760000Y-74080000D03*
%TO.P,SN74189N2,5,S1*%
X136760000Y-76620000D03*
%TO.P,SN74189N2,6,D2*%
X136760000Y-79160000D03*
%TO.P,SN74189N2,7,S2*%
X136760000Y-81700000D03*
%TO.P,SN74189N2,8,GND*%
X136760000Y-84240000D03*
%TO.P,SN74189N2,9,S3*%
X144380000Y-84240000D03*
%TO.P,SN74189N2,10,D3*%
X144380000Y-81700000D03*
%TO.P,SN74189N2,11,S4*%
X144380000Y-79160000D03*
%TO.P,SN74189N2,12,D4*%
X144380000Y-76620000D03*
%TO.P,SN74189N2,13,A3*%
X144380000Y-74080000D03*
%TO.P,SN74189N2,14,A2*%
X144380000Y-71540000D03*
%TO.P,SN74189N2,15,A1*%
X144380000Y-69000000D03*
%TO.P,SN74189N2,16,VCC*%
X144380000Y-66460000D03*
%TD*%
D21*
%TO.P,100\u03A91115,1*%
%TO.N,N/C*%
X146123570Y-42087500D03*
%TO.P,100\u03A91115,2*%
X146123570Y-40262500D03*
%TD*%
D24*
%TO.P,100\u03A94,1*%
%TO.N,N/C*%
X147945000Y-95425000D03*
%TO.P,100\u03A94,2*%
X147945000Y-97250000D03*
%TD*%
D12*
%TO.P,SN74189N1,1,A0*%
%TO.N,N/C*%
X118260000Y-66460000D03*
D13*
%TO.P,SN74189N1,2,ME*%
X118260000Y-69000000D03*
%TO.P,SN74189N1,3,WE*%
X118260000Y-71540000D03*
%TO.P,SN74189N1,4,D1*%
X118260000Y-74080000D03*
%TO.P,SN74189N1,5,S1*%
X118260000Y-76620000D03*
%TO.P,SN74189N1,6,D2*%
X118260000Y-79160000D03*
%TO.P,SN74189N1,7,S2*%
X118260000Y-81700000D03*
%TO.P,SN74189N1,8,GND*%
X118260000Y-84240000D03*
%TO.P,SN74189N1,9,S3*%
X125880000Y-84240000D03*
%TO.P,SN74189N1,10,D3*%
X125880000Y-81700000D03*
%TO.P,SN74189N1,11,S4*%
X125880000Y-79160000D03*
%TO.P,SN74189N1,12,D4*%
X125880000Y-76620000D03*
%TO.P,SN74189N1,13,A3*%
X125880000Y-74080000D03*
%TO.P,SN74189N1,14,A2*%
X125880000Y-71540000D03*
%TO.P,SN74189N1,15,A1*%
X125880000Y-69000000D03*
%TO.P,SN74189N1,16,VCC*%
X125880000Y-66460000D03*
%TD*%
D20*
%TO.P,LED_BLUE6,1*%
%TO.N,N/C*%
X143568571Y-45712500D03*
%TO.P,LED_BLUE6,2*%
X143568571Y-43837500D03*
%TD*%
D21*
%TO.P,100\u03A91116,1*%
%TO.N,N/C*%
X148659286Y-42087500D03*
%TO.P,100\u03A91116,2*%
X148659286Y-40262500D03*
%TD*%
D20*
%TO.P,LED_BLUE8,1*%
%TO.N,N/C*%
X148614286Y-45712500D03*
%TO.P,LED_BLUE8,2*%
X148614286Y-43837500D03*
%TD*%
D25*
%TO.P,22\u03BCF1,1*%
%TO.N,N/C*%
X153700000Y-106750000D03*
%TO.P,22\u03BCF1,2*%
X157300000Y-106750000D03*
%TD*%
D23*
%TO.P,RESET1,1*%
%TO.N,N/C*%
X148875000Y-118750000D03*
%TO.P,RESET1,2*%
X156625000Y-118750000D03*
%TD*%
D20*
%TO.P,LED_YELLOW1,1*%
%TO.N,N/C*%
X119530000Y-45712500D03*
%TO.P,LED_YELLOW1,2*%
X119530000Y-43837500D03*
%TD*%
D14*
%TO.P,PWR1,1,Pin_1*%
%TO.N,N/C*%
X110515000Y-95750000D03*
D15*
%TO.P,PWR1,2,Pin_2*%
X113055000Y-95750000D03*
%TD*%
D24*
%TO.P,100\u03A91,1*%
%TO.N,N/C*%
X157705000Y-95425000D03*
%TO.P,100\u03A91,2*%
X157705000Y-97250000D03*
%TD*%
D14*
%TO.P,RET_ADDR1,1,Pin_1*%
%TO.N,N/C*%
X106250000Y-107550000D03*
D15*
%TO.P,RET_ADDR1,2,Pin_2*%
X106250000Y-105010000D03*
%TO.P,RET_ADDR1,3,Pin_3*%
X106250000Y-102470000D03*
%TO.P,RET_ADDR1,4,Pin_4*%
X106250000Y-99930000D03*
%TD*%
D21*
%TO.P,100\u03A91112,1*%
%TO.N,N/C*%
X138516428Y-42087500D03*
%TO.P,100\u03A91112,2*%
X138516428Y-40262500D03*
%TD*%
D20*
%TO.P,LED_YELLOW2,1*%
%TO.N,N/C*%
X154451666Y-101625000D03*
%TO.P,LED_YELLOW2,2*%
X154451666Y-99750000D03*
%TD*%
%TO.P,LED_YELLOW2,1*%
%TO.N,N/C*%
X122052857Y-45712500D03*
%TO.P,LED_YELLOW2,2*%
X122052857Y-43837500D03*
%TD*%
D14*
%TO.P,DATA_OUT,1,Pin_1*%
%TO.N,N/C*%
X151250000Y-69120000D03*
D15*
%TO.P,DATA_OUT,2,Pin_2*%
X151250000Y-66580000D03*
%TO.P,DATA_OUT,3,Pin_3*%
X151250000Y-64040000D03*
%TO.P,DATA_OUT,4,Pin_4*%
X151250000Y-61500000D03*
%TO.P,DATA_OUT,5,Pin_5*%
X151250000Y-58960000D03*
%TO.P,DATA_OUT,6,Pin_6*%
X151250000Y-56420000D03*
%TO.P,DATA_OUT,7,Pin_7*%
X151250000Y-53880000D03*
%TO.P,DATA_OUT,8,Pin_8*%
X151250000Y-51340000D03*
%TO.P,DATA_OUT,9,Pin_9*%
X151250000Y-48800000D03*
%TD*%
D24*
%TO.P,220\u03A91,1*%
%TO.N,N/C*%
X148000000Y-106000000D03*
%TO.P,220\u03A91,2*%
X148000000Y-107825000D03*
%TD*%
D20*
%TO.P,LED_BLUE5,1*%
%TO.N,N/C*%
X141045714Y-45712500D03*
%TO.P,LED_BLUE5,2*%
X141045714Y-43837500D03*
%TD*%
%TO.P,LED_YELLOW3,1*%
%TO.N,N/C*%
X151198333Y-101625000D03*
%TO.P,LED_YELLOW3,2*%
X151198333Y-99750000D03*
%TD*%
%TO.P,LED_YELLOW4,1*%
%TO.N,N/C*%
X127098571Y-45712500D03*
%TO.P,LED_YELLOW4,2*%
X127098571Y-43837500D03*
%TD*%
D21*
%TO.P,100\u03A91113,1*%
%TO.N,N/C*%
X141052142Y-42087500D03*
%TO.P,100\u03A91113,2*%
X141052142Y-40262500D03*
%TD*%
D12*
%TO.P,ST_INV1,1,A1*%
%TO.N,N/C*%
X109760000Y-121460000D03*
D13*
%TO.P,ST_INV1,2,Y1*%
X109760000Y-124000000D03*
%TO.P,ST_INV1,3,A2*%
X109760000Y-126540000D03*
%TO.P,ST_INV1,4,Y2*%
X109760000Y-129080000D03*
%TO.P,ST_INV1,5,A3*%
X109760000Y-131620000D03*
%TO.P,ST_INV1,6,Y3*%
X109760000Y-134160000D03*
%TO.P,ST_INV1,7,GND*%
X109760000Y-136700000D03*
%TO.P,ST_INV1,8,Y4*%
X117380000Y-136700000D03*
%TO.P,ST_INV1,9,A4*%
X117380000Y-134160000D03*
%TO.P,ST_INV1,10,Y5*%
X117380000Y-131620000D03*
%TO.P,ST_INV1,11,A5*%
X117380000Y-129080000D03*
%TO.P,ST_INV1,12,Y6*%
X117380000Y-126540000D03*
%TO.P,ST_INV1,13,A6*%
X117380000Y-124000000D03*
%TO.P,ST_INV1,14,VCC*%
X117380000Y-121460000D03*
%TD*%
D20*
%TO.P,LED_BLUE3,1*%
%TO.N,N/C*%
X136000000Y-45712500D03*
%TO.P,LED_BLUE3,2*%
X136000000Y-43837500D03*
%TD*%
D18*
%TO.P,ADD1,1,S2*%
%TO.N,N/C*%
X122500000Y-129120000D03*
D19*
%TO.P,ADD1,2,B2*%
X125040000Y-129120000D03*
%TO.P,ADD1,3,A2*%
X127580000Y-129120000D03*
%TO.P,ADD1,4,S1*%
X130120000Y-129120000D03*
%TO.P,ADD1,5,A1*%
X132660000Y-129120000D03*
%TO.P,ADD1,6,B1*%
X135200000Y-129120000D03*
%TO.P,ADD1,7,C0*%
X137740000Y-129120000D03*
%TO.P,ADD1,8,GND*%
X140280000Y-129120000D03*
%TO.P,ADD1,9,C4*%
X140280000Y-121500000D03*
%TO.P,ADD1,10,S4*%
X137740000Y-121500000D03*
%TO.P,ADD1,11,B4*%
X135200000Y-121500000D03*
%TO.P,ADD1,12,A4*%
X132660000Y-121500000D03*
%TO.P,ADD1,13,S3*%
X130120000Y-121500000D03*
%TO.P,ADD1,14,A3*%
X127580000Y-121500000D03*
%TO.P,ADD1,15,B3*%
X125040000Y-121500000D03*
%TO.P,ADD1,16,VCC*%
X122500000Y-121500000D03*
%TD*%
D20*
%TO.P,LED_YELLOW3,1*%
%TO.N,N/C*%
X124575714Y-45712500D03*
%TO.P,LED_YELLOW3,2*%
X124575714Y-43837500D03*
%TD*%
%TO.P,LED_YELLOW1,1*%
%TO.N,N/C*%
X157705000Y-101625000D03*
%TO.P,LED_YELLOW1,2*%
X157705000Y-99750000D03*
%TD*%
D21*
%TO.P,100\u03A9112,1*%
%TO.N,N/C*%
X124605714Y-42087500D03*
%TO.P,100\u03A9112,2*%
X124605714Y-40262500D03*
%TD*%
%TO.P,100\u03A912,1*%
%TO.N,N/C*%
X130909286Y-42087500D03*
%TO.P,100\u03A912,2*%
X130909286Y-40262500D03*
%TD*%
D18*
%TO.P,MUX1,1,SEL*%
%TO.N,N/C*%
X112300000Y-107000000D03*
D19*
%TO.P,MUX1,2,A1*%
X114840000Y-107000000D03*
%TO.P,MUX1,3,B1*%
X117380000Y-107000000D03*
%TO.P,MUX1,4,Y1*%
X119920000Y-107000000D03*
%TO.P,MUX1,5,A2*%
X122460000Y-107000000D03*
%TO.P,MUX1,6,B2*%
X125000000Y-107000000D03*
%TO.P,MUX1,7,Y2*%
X127540000Y-107000000D03*
%TO.P,MUX1,8,GND*%
X130080000Y-107000000D03*
%TO.P,MUX1,9,Y3*%
X130080000Y-99380000D03*
%TO.P,MUX1,10,B3*%
X127540000Y-99380000D03*
%TO.P,MUX1,11,A3*%
X125000000Y-99380000D03*
%TO.P,MUX1,12,Y4*%
X122460000Y-99380000D03*
%TO.P,MUX1,13,B4*%
X119920000Y-99380000D03*
%TO.P,MUX1,14,A4*%
X117380000Y-99380000D03*
%TO.P,MUX1,15,EN*%
X114840000Y-99380000D03*
%TO.P,MUX1,16,VCC*%
X112300000Y-99380000D03*
%TD*%
D24*
%TO.P,100\u03A93,1*%
%TO.N,N/C*%
X151198333Y-95425000D03*
%TO.P,100\u03A93,2*%
X151198333Y-97250000D03*
%TD*%
D14*
%TO.P,B_ADDR1,1,Pin_1*%
%TO.N,N/C*%
X106250000Y-121630000D03*
D15*
%TO.P,B_ADDR1,2,Pin_2*%
X106250000Y-119090000D03*
%TO.P,B_ADDR1,3,Pin_3*%
X106250000Y-116550000D03*
%TO.P,B_ADDR1,4,Pin_4*%
X106250000Y-114010000D03*
%TO.P,B_ADDR1,5,Pin_5*%
X106250000Y-111470000D03*
%TD*%
D21*
%TO.P,100\u03A9114,1*%
%TO.N,N/C*%
X133445000Y-42087500D03*
%TO.P,100\u03A9114,2*%
X133445000Y-40262500D03*
%TD*%
%TO.P,470\u03A91,1*%
%TO.N,N/C*%
X150500000Y-107825000D03*
%TO.P,470\u03A91,2*%
X150500000Y-106000000D03*
%TD*%
D20*
%TO.P,LED_BLUE1,1*%
%TO.N,N/C*%
X130954286Y-45712500D03*
%TO.P,LED_BLUE1,2*%
X130954286Y-43837500D03*
%TD*%
D14*
%TO.P,LOGIC1,1,Pin_1*%
%TO.N,N/C*%
X117000000Y-95750000D03*
D15*
%TO.P,LOGIC1,2,Pin_2*%
X119540000Y-95750000D03*
%TD*%
D14*
%TO.P,INSTR_ADDR1,1,Pin_1*%
%TO.N,N/C*%
X161500000Y-99710000D03*
D15*
%TO.P,INSTR_ADDR1,2,Pin_2*%
X161500000Y-102250000D03*
%TO.P,INSTR_ADDR1,3,Pin_3*%
X161500000Y-104790000D03*
%TO.P,INSTR_ADDR1,4,Pin_4*%
X161500000Y-107330000D03*
%TO.P,INSTR_ADDR1,5,Pin_5*%
X161500000Y-109870000D03*
%TD*%
D14*
%TO.P,PWR,1,Pin_1*%
%TO.N,N/C*%
X110725000Y-40750000D03*
D15*
%TO.P,PWR,2,Pin_2*%
X113265000Y-40750000D03*
%TD*%
D18*
%TO.P,74HC2,1,A1*%
%TO.N,N/C*%
X132750000Y-58580000D03*
D19*
%TO.P,74HC2,2,Y1*%
X135290000Y-58580000D03*
%TO.P,74HC2,3,A2*%
X137830000Y-58580000D03*
%TO.P,74HC2,4,Y2*%
X140370000Y-58580000D03*
%TO.P,74HC2,5,A3*%
X142910000Y-58580000D03*
%TO.P,74HC2,6,Y3*%
X145450000Y-58580000D03*
%TO.P,74HC2,7,GND*%
X147990000Y-58580000D03*
%TO.P,74HC2,8,Y4*%
X147990000Y-50960000D03*
%TO.P,74HC2,9,A4*%
X145450000Y-50960000D03*
%TO.P,74HC2,10,Y5*%
X142910000Y-50960000D03*
%TO.P,74HC2,11,A5*%
X140370000Y-50960000D03*
%TO.P,74HC2,12,Y6*%
X137830000Y-50960000D03*
%TO.P,74HC2,13,A6*%
X135290000Y-50960000D03*
%TO.P,74HC2,14,VCC*%
X132750000Y-50960000D03*
%TD*%
D20*
%TO.P,LED_BLUE7,1*%
%TO.N,N/C*%
X146091428Y-45712500D03*
%TO.P,LED_BLUE7,2*%
X146091428Y-43837500D03*
%TD*%
D21*
%TO.P,100\u03A9111,1*%
%TO.N,N/C*%
X122052857Y-42087500D03*
%TO.P,100\u03A9111,2*%
X122052857Y-40262500D03*
%TD*%
D12*
%TO.P,REG1,1,CLR*%
%TO.N,N/C*%
X135500000Y-97380000D03*
D13*
%TO.P,REG1,2,Q1*%
X135500000Y-99920000D03*
%TO.P,REG1,3*%
X135500000Y-102460000D03*
%TO.P,REG1,4,D1*%
X135500000Y-105000000D03*
%TO.P,REG1,5,D2*%
X135500000Y-107540000D03*
%TO.P,REG1,6*%
X135500000Y-110080000D03*
%TO.P,REG1,7,Q2*%
X135500000Y-112620000D03*
%TO.P,REG1,8,GND*%
X135500000Y-115160000D03*
%TO.P,REG1,9,CLK*%
X143120000Y-115160000D03*
%TO.P,REG1,10,Q3*%
X143120000Y-112620000D03*
%TO.P,REG1,11*%
X143120000Y-110080000D03*
%TO.P,REG1,12,D3*%
X143120000Y-107540000D03*
%TO.P,REG1,13,D4*%
X143120000Y-105000000D03*
%TO.P,REG1,14*%
X143120000Y-102460000D03*
%TO.P,REG1,15,Q4*%
X143120000Y-99920000D03*
%TO.P,REG1,16,VCC*%
X143120000Y-97380000D03*
%TD*%
D21*
%TO.P,100\u03A9113,1*%
%TO.N,N/C*%
X127143571Y-42087500D03*
%TO.P,100\u03A9113,2*%
X127143571Y-40262500D03*
%TD*%
D24*
%TO.P,100\u03A92,1*%
%TO.N,N/C*%
X154451666Y-95425000D03*
%TO.P,100\u03A92,2*%
X154451666Y-97250000D03*
%TD*%
D26*
%TO.N,*%
X186650000Y-84642498D03*
X176284074Y-84791126D03*
X192900000Y-74642498D03*
X182900000Y-64892498D03*
X170360000Y-52642498D03*
X190447500Y-42939998D03*
X182645000Y-72642498D03*
X120665735Y-46334265D03*
X123505000Y-101255000D03*
X134250000Y-52500000D03*
X142260000Y-64960000D03*
X112500000Y-78000000D03*
X149005000Y-114005000D03*
X147545000Y-104250000D03*
X123250000Y-46750000D03*
X123555735Y-108305735D03*
X118000000Y-45734265D03*
X138760000Y-66460000D03*
X128005000Y-94600000D03*
X141694313Y-65525687D03*
X130260000Y-57280000D03*
X146920000Y-61960000D03*
X111500000Y-79500000D03*
X126000000Y-46750000D03*
X115160000Y-65944265D03*
%TD*%
D27*
%TO.N,*%
X188400000Y-85962498D02*
X188590000Y-86152498D01*
X196735710Y-86152498D02*
X197510000Y-85378208D01*
X197510000Y-85378208D02*
X197510000Y-66642498D01*
X188590000Y-86152498D02*
X196735710Y-86152498D01*
X166360000Y-85122497D02*
X167390001Y-86152498D01*
X178090000Y-86152498D02*
X188210000Y-86152498D01*
X167390001Y-86152498D02*
X177710000Y-86152498D01*
X177710000Y-86152498D02*
X177900000Y-85962498D01*
X167400000Y-61052498D02*
X166360000Y-62092498D01*
X188210000Y-86152498D02*
X188400000Y-85962498D01*
X166360000Y-62092498D02*
X166360000Y-85122497D01*
X177900000Y-85962498D02*
X178090000Y-86152498D01*
X197510000Y-66642498D02*
X197510000Y-55642498D01*
X193565000Y-39142498D02*
X195175000Y-40752498D01*
X176580000Y-67430000D02*
X175482498Y-66332498D01*
X185025000Y-49592498D02*
X183400000Y-47967498D01*
X177900000Y-61052498D02*
X178090000Y-61052498D01*
X183285000Y-47352498D02*
X183285000Y-40007498D01*
X187045000Y-83537498D02*
X187045000Y-67227498D01*
X187900000Y-85662497D02*
X187900000Y-84392498D01*
X195710000Y-66642498D02*
X197510000Y-66642498D01*
X176580000Y-83269996D02*
X176580000Y-67430000D01*
X197510000Y-43087498D02*
X195175000Y-40752498D01*
X187045000Y-67227498D02*
X187045000Y-65135000D01*
X183400000Y-47967498D02*
X183650000Y-47717498D01*
X174577502Y-66332498D02*
X172600000Y-64354996D01*
X187887502Y-64292498D02*
X193360000Y-64292498D01*
X183650000Y-47717498D02*
X183285000Y-47352498D01*
X187045000Y-65135000D02*
X187887502Y-64292498D01*
X186150000Y-66332498D02*
X185040000Y-66332498D01*
X193900000Y-47967498D02*
X183400000Y-47967498D01*
X184150000Y-39142498D02*
X193565000Y-39142498D01*
X193360000Y-64292498D02*
X195710000Y-66642498D01*
X177700001Y-85962498D02*
X176926251Y-85188748D01*
X177900000Y-85962498D02*
X177700001Y-85962498D01*
X183285000Y-40007498D02*
X184150000Y-39142498D01*
X191090000Y-83249238D02*
X191090000Y-75432498D01*
X193163260Y-85322498D02*
X191090000Y-83249238D01*
X188400000Y-85322498D02*
X188400000Y-83282498D01*
X191490000Y-82458423D02*
X191490000Y-73292498D01*
X175482498Y-66332498D02*
X174577502Y-66332498D01*
X184340000Y-66332498D02*
X182900000Y-64892498D01*
X193800000Y-55642498D02*
X197510000Y-55642498D01*
X191890000Y-71152498D02*
X188590000Y-67852498D01*
X194354075Y-85322498D02*
X191490000Y-82458423D01*
X188400000Y-83282498D02*
X188590000Y-83092498D01*
X191890000Y-81667608D02*
X191890000Y-71152498D01*
X191490000Y-73292498D02*
X188590000Y-70392498D01*
X195544890Y-85322498D02*
X191890000Y-81667608D01*
X191090000Y-75432498D02*
X188590000Y-72932498D01*
X189590815Y-85322498D02*
X189890000Y-85023313D01*
X189890000Y-81852498D02*
X188590000Y-80552498D01*
X189890000Y-85023313D02*
X189890000Y-81852498D01*
X192290000Y-69012498D02*
X188590000Y-65312498D01*
X195590000Y-84792498D02*
X192290000Y-81492498D01*
X192290000Y-81492498D02*
X192290000Y-69012498D01*
X196735710Y-85322498D02*
X196205710Y-84792498D01*
X196205710Y-84792498D02*
X195590000Y-84792498D01*
X191972445Y-85322498D02*
X190690000Y-84040053D01*
X181025000Y-73292498D02*
X178125000Y-70392498D01*
X190690000Y-77572498D02*
X188590000Y-75472498D01*
X183854075Y-85322498D02*
X181025000Y-82493423D01*
X185705710Y-84792498D02*
X185300000Y-84792498D01*
X190290000Y-84830868D02*
X190290000Y-79712498D01*
X190781630Y-85322498D02*
X190290000Y-84830868D01*
X177900000Y-85322498D02*
X177900000Y-83317498D01*
X177900000Y-83317498D02*
X178125000Y-83092498D01*
X190290000Y-79712498D02*
X188590000Y-78012498D01*
X181025000Y-82493423D02*
X181025000Y-73292498D01*
X181825000Y-81317498D02*
X181825000Y-69012498D01*
X190690000Y-84040053D02*
X190690000Y-77572498D01*
X179090815Y-85322498D02*
X179425000Y-84988313D01*
X186235710Y-85322498D02*
X185705710Y-84792498D01*
X179425000Y-81852498D02*
X178125000Y-80552498D01*
X180225000Y-77572498D02*
X178125000Y-75472498D01*
X179425000Y-84988313D02*
X179425000Y-81852498D01*
X180625000Y-75432498D02*
X178125000Y-72932498D01*
X190447500Y-42939998D02*
X188577500Y-42939998D01*
X181825000Y-69012498D02*
X178125000Y-65312498D01*
X185300000Y-84792498D02*
X181825000Y-81317498D01*
X181425000Y-71152498D02*
X178125000Y-67852498D01*
X181425000Y-81702608D02*
X181425000Y-71152498D01*
X180225000Y-84075053D02*
X180225000Y-77572498D01*
X182663260Y-85322498D02*
X180625000Y-83284238D01*
X179825000Y-84865868D02*
X179825000Y-79712498D01*
X185044890Y-85322498D02*
X181425000Y-81702608D01*
X179825000Y-79712498D02*
X178125000Y-78012498D01*
X180625000Y-83284238D02*
X180625000Y-75432498D01*
X188577500Y-42939998D02*
X187800000Y-43717498D01*
X181472445Y-85322498D02*
X180225000Y-84075053D01*
X180281630Y-85322498D02*
X179825000Y-84865868D01*
X185745000Y-72932498D02*
X185745000Y-75472498D01*
X196210000Y-78012498D02*
X196210000Y-80552498D01*
X175280000Y-65312498D02*
X175920000Y-65312498D01*
X196210000Y-72932498D02*
X196210000Y-75472498D01*
X189290000Y-61767498D02*
X185745000Y-65312498D01*
X185745000Y-72932498D02*
X182935000Y-72932498D01*
X196210000Y-67852498D02*
X196210000Y-70392498D01*
X175280000Y-75472498D02*
X175280000Y-78012498D01*
X176284074Y-84791126D02*
X175280000Y-83787052D01*
X175280000Y-72932498D02*
X175280000Y-75472498D01*
X185745000Y-78012498D02*
X185745000Y-80552498D01*
X183410000Y-61777498D02*
X183400000Y-61767498D01*
X193900000Y-57567498D02*
X193900000Y-61767498D01*
X196210000Y-65312498D02*
X195945000Y-65312498D01*
X183400000Y-61767498D02*
X185745000Y-64112498D01*
X185425000Y-53842498D02*
X187800000Y-51467498D01*
X186650000Y-84642498D02*
X185745000Y-83737498D01*
X185745000Y-83737498D02*
X185745000Y-83092498D01*
X185745000Y-70392498D02*
X185745000Y-72932498D01*
X196210000Y-75472498D02*
X196210000Y-78012498D01*
X176940000Y-64292498D02*
X175920000Y-65312498D01*
X185425000Y-54283184D02*
X185425000Y-53842498D01*
X193730000Y-75472498D02*
X192900000Y-74642498D01*
X175280000Y-67852498D02*
X175280000Y-70392498D01*
X175920000Y-65312498D02*
X179465000Y-61767498D01*
X193900000Y-61767498D02*
X193890000Y-61777498D01*
X196210000Y-70392498D02*
X196210000Y-72932498D01*
X196210000Y-75472498D02*
X193730000Y-75472498D01*
X193890000Y-61777498D02*
X183410000Y-61777498D01*
X179465000Y-61767498D02*
X183400000Y-61767498D01*
X187800000Y-51467498D02*
X193900000Y-57567498D01*
X185745000Y-65312498D02*
X185445000Y-65312498D01*
X183400000Y-61767498D02*
X183400000Y-56308184D01*
X193900000Y-61767498D02*
X189290000Y-61767498D01*
X185745000Y-67852498D02*
X185745000Y-70392498D01*
X185745000Y-64112498D02*
X185745000Y-65312498D01*
X175280000Y-78012498D02*
X175280000Y-80552498D01*
X193900000Y-63002498D02*
X193900000Y-61767498D01*
X175280000Y-83787052D02*
X175280000Y-83092498D01*
X175280000Y-70392498D02*
X175280000Y-72932498D01*
X196210000Y-80552498D02*
X196210000Y-83092498D01*
X182935000Y-72932498D02*
X182645000Y-72642498D01*
X183400000Y-56308184D02*
X185425000Y-54283184D01*
X185745000Y-75472498D02*
X185745000Y-78012498D01*
X185745000Y-80552498D02*
X185745000Y-83092498D01*
X175280000Y-80552498D02*
X175280000Y-83092498D01*
X196210000Y-65312498D02*
X193900000Y-63002498D01*
X170972445Y-85322498D02*
X169760000Y-84110053D01*
X168610000Y-50892498D02*
X167400000Y-50892498D01*
X170960000Y-81737608D02*
X170960000Y-71152498D01*
X173354075Y-85322498D02*
X170560000Y-82528423D01*
X169360000Y-79712498D02*
X167660000Y-78012498D01*
X170560000Y-73292498D02*
X167660000Y-70392498D01*
X169781630Y-85322498D02*
X169360000Y-84900868D01*
X174544890Y-85322498D02*
X170960000Y-81737608D01*
X167400000Y-83352498D02*
X167660000Y-83092498D01*
X167400000Y-85322498D02*
X167400000Y-83352498D01*
X170960000Y-71152498D02*
X167660000Y-67852498D01*
X170360000Y-52642498D02*
X168610000Y-50892498D01*
X169760000Y-77572498D02*
X167660000Y-75472498D01*
X169760000Y-84110053D02*
X169760000Y-77572498D01*
X169360000Y-84900868D02*
X169360000Y-79712498D01*
X170560000Y-82528423D02*
X170560000Y-73292498D01*
X174580576Y-84792498D02*
X171360000Y-81571922D01*
X187900000Y-84392498D02*
X187045000Y-83537498D01*
X171360000Y-81571922D02*
X171360000Y-69012498D01*
X175735710Y-85322498D02*
X175205710Y-84792498D01*
X188400000Y-85962498D02*
X188200001Y-85962498D01*
X172163260Y-85322498D02*
X170160000Y-83319238D01*
X189760000Y-40752498D02*
X184675000Y-40752498D01*
X172600000Y-61052498D02*
X177900000Y-61052498D01*
X171360000Y-69012498D02*
X167660000Y-65312498D01*
X168590815Y-85322498D02*
X168960000Y-84953313D01*
X175205710Y-84792498D02*
X174580576Y-84792498D01*
X181285000Y-48777498D02*
X181285000Y-41602498D01*
X176926251Y-83616247D02*
X176580000Y-83269996D01*
X183400000Y-50892498D02*
X181285000Y-48777498D01*
X193900000Y-54017498D02*
X193900000Y-50892498D01*
X185040000Y-66332498D02*
X184340000Y-66332498D01*
X183400000Y-54017498D02*
X183400000Y-50892498D01*
X185025000Y-54117498D02*
X185025000Y-49592498D01*
X167400000Y-61052498D02*
X172600000Y-61052498D01*
X197510000Y-55642498D02*
X197510000Y-43087498D01*
X187045000Y-67227498D02*
X186150000Y-66332498D01*
X172600000Y-64354996D02*
X172600000Y-61052498D01*
X170160000Y-75432498D02*
X167660000Y-72932498D01*
X193900000Y-50892498D02*
X196150000Y-48642498D01*
X192275000Y-54117498D02*
X193800000Y-55642498D01*
X196150000Y-48642498D02*
X196150000Y-47142498D01*
X178090000Y-61052498D02*
X185025000Y-54117498D01*
X193900000Y-47967498D02*
X192275000Y-49592498D01*
X181285000Y-41602498D02*
X182135000Y-40752498D01*
X170160000Y-83319238D02*
X170160000Y-75432498D01*
X188200001Y-85962498D02*
X187900000Y-85662497D01*
X176926251Y-85188748D02*
X176926251Y-83616247D01*
X192275000Y-49592498D02*
X192275000Y-54117498D01*
X168960000Y-81852498D02*
X167660000Y-80552498D01*
X196150000Y-47142498D02*
X189760000Y-40752498D01*
X168960000Y-84953313D02*
X168960000Y-81852498D01*
X117964265Y-77640000D02*
X133200000Y-77640000D01*
X109660000Y-66764265D02*
X109660000Y-69104265D01*
X117380000Y-131620000D02*
X116080000Y-130320000D01*
X113760000Y-83844264D02*
X113760000Y-79397502D01*
X128880000Y-122800000D02*
X135622498Y-122800000D01*
X126061071Y-46750000D02*
X127098571Y-45712500D01*
X126130000Y-125130000D02*
X130120000Y-129120000D01*
X114205000Y-96900000D02*
X128297502Y-96900000D01*
X117740341Y-100742157D02*
X118755000Y-99727498D01*
X106250000Y-119090000D02*
X105100000Y-117940000D01*
X131063844Y-47300000D02*
X136935357Y-47300000D01*
X117380000Y-110250000D02*
X118900000Y-111770000D01*
X129060000Y-108020000D02*
X130080000Y-107000000D01*
X147742498Y-60045685D02*
X147508184Y-60280000D01*
X139750000Y-45961089D02*
X139750000Y-41496072D01*
X126500000Y-50000000D02*
X128200000Y-48300000D01*
X142100000Y-108560000D02*
X131770000Y-108560000D01*
X147990000Y-50960000D02*
X147990000Y-46336786D01*
X146162500Y-118750000D02*
X146162500Y-106320002D01*
X161500000Y-104790000D02*
X159460000Y-102750000D01*
X105410000Y-83314265D02*
X107010000Y-84914265D01*
X142100000Y-103980000D02*
X127678751Y-103980000D01*
X162755000Y-100965000D02*
X161500000Y-99710000D01*
X107010000Y-53040611D02*
X107010000Y-44465000D01*
X113455686Y-108950000D02*
X114105686Y-108300000D01*
X125505000Y-119505000D02*
X126560000Y-120560000D01*
X127817502Y-105000000D02*
X126420000Y-106397502D01*
X113662157Y-100742157D02*
X117740341Y-100742157D01*
X144337500Y-122522500D02*
X144337500Y-118750000D01*
X104700000Y-112460000D02*
X106250000Y-114010000D01*
X125880000Y-66460000D02*
X126900000Y-67480000D01*
X108160000Y-81224265D02*
X106210000Y-79274265D01*
X126900000Y-67480000D02*
X143360000Y-67480000D01*
X106210000Y-73362233D02*
X113027968Y-66544265D01*
X106250000Y-102470000D02*
X124450000Y-102470000D01*
X119497502Y-98080000D02*
X120342498Y-98080000D01*
X121255000Y-99897498D02*
X122612502Y-101255000D01*
X126900000Y-72560000D02*
X143360000Y-72560000D01*
X126457502Y-47900000D02*
X129332472Y-47900000D01*
X121560000Y-50190000D02*
X124250000Y-47500000D01*
X141045714Y-43837500D02*
X141045714Y-42093928D01*
X105010000Y-83479951D02*
X106844314Y-85314265D01*
X143568571Y-42106785D02*
X143587856Y-42087500D01*
X160480000Y-108850000D02*
X156615256Y-108850000D01*
X126420000Y-106397502D02*
X126420000Y-107868184D01*
X155576666Y-102750000D02*
X154451666Y-101625000D01*
X106250000Y-121630000D02*
X114840000Y-113040000D01*
X148614286Y-42132500D02*
X148659286Y-42087500D01*
X119705000Y-119505000D02*
X125505000Y-119505000D01*
X136000000Y-42106786D02*
X135980714Y-42087500D01*
X106250000Y-116550000D02*
X108000000Y-114800000D01*
X129060000Y-110952498D02*
X129060000Y-108020000D01*
X132689643Y-46500000D02*
X133477143Y-45712500D01*
X124760000Y-72960000D02*
X125880000Y-74080000D01*
X130954286Y-43837500D02*
X130954286Y-42132500D01*
X145411471Y-65111471D02*
X149781471Y-65111471D01*
X108636346Y-77294265D02*
X110060000Y-75870611D01*
X122500000Y-121500000D02*
X117420000Y-121500000D01*
X147545000Y-104250000D02*
X150570000Y-104250000D01*
X161500000Y-114750000D02*
X161500000Y-115960000D01*
X127660000Y-50703844D02*
X131063844Y-47300000D01*
X148945000Y-96425000D02*
X147945000Y-95425000D01*
X105100000Y-110320000D02*
X105100000Y-99400000D01*
X129080000Y-57280000D02*
X127060000Y-57280000D01*
X154451666Y-99750000D02*
X154451666Y-97250000D01*
X141694313Y-65525687D02*
X140808626Y-64640000D01*
X136930000Y-127820000D02*
X143120000Y-121630000D01*
X116080000Y-105700000D02*
X117380000Y-107000000D01*
X159293654Y-106750000D02*
X161023654Y-108480000D01*
X134000000Y-129502498D02*
X134000000Y-128597502D01*
X118900000Y-118700000D02*
X119705000Y-119505000D01*
X162755000Y-107755000D02*
X162755000Y-100965000D01*
X111500000Y-79000000D02*
X112500000Y-78000000D01*
X124410000Y-108300000D02*
X122460000Y-110250000D01*
X111976346Y-82374265D02*
X113360000Y-80990611D01*
X161500000Y-102250000D02*
X158330000Y-102250000D01*
X118755000Y-98822502D02*
X119497502Y-98080000D01*
X117170000Y-120200000D02*
X125462498Y-120200000D01*
X107570000Y-101250000D02*
X118050000Y-101250000D01*
X147508183Y-60280000D02*
X147742498Y-60045685D01*
X115680000Y-130780000D02*
X115680000Y-128491816D01*
X136505000Y-119235000D02*
X143120000Y-112620000D01*
X111300000Y-62168628D02*
X111300000Y-54572893D01*
X157705000Y-95425000D02*
X161500000Y-99220000D01*
X148659286Y-40262500D02*
X119485000Y-40262500D01*
X134250000Y-52500000D02*
X134250000Y-52460000D01*
X145260000Y-85460000D02*
X151250000Y-79470000D01*
X161500000Y-106750000D02*
X158250000Y-103500000D01*
X124900000Y-63440000D02*
X144305686Y-63440000D01*
X156615256Y-108850000D02*
X155300000Y-107534744D01*
X149659286Y-41262500D02*
X148659286Y-40262500D01*
X114840000Y-113040000D02*
X114840000Y-110250000D01*
X138760000Y-66140000D02*
X137660000Y-65040000D01*
X136935357Y-47300000D02*
X138522857Y-45712500D01*
X162650000Y-112900000D02*
X159000000Y-109250000D01*
X111500000Y-79500000D02*
X111500000Y-79000000D01*
X121431092Y-46334265D02*
X122052857Y-45712500D01*
X147120000Y-94600000D02*
X147945000Y-95425000D01*
X147000000Y-107000000D02*
X148000000Y-106000000D01*
X110900000Y-54738578D02*
X109310001Y-53148579D01*
X107010000Y-74754265D02*
X107010000Y-76620611D01*
X139750000Y-41496072D02*
X138516428Y-40262500D01*
X148945000Y-100945000D02*
X148945000Y-96425000D01*
X113378579Y-65944265D02*
X115160000Y-65944265D01*
X112420000Y-50960000D02*
X112420000Y-41595000D01*
X108160000Y-76144265D02*
X109660000Y-74644265D01*
X124860000Y-72560000D02*
X125880000Y-71540000D01*
X113371372Y-64240000D02*
X111300000Y-62168628D01*
X107010000Y-53040611D02*
X107683654Y-53714265D01*
X133267502Y-115160000D02*
X129060000Y-110952498D01*
X120342498Y-98080000D02*
X121255000Y-98992502D01*
X143120000Y-121630000D02*
X143120000Y-115160000D01*
X161500000Y-109870000D02*
X160480000Y-108850000D01*
X126255000Y-98942502D02*
X128947502Y-96250000D01*
X140280000Y-129120000D02*
X146255000Y-129120000D01*
X149005000Y-114005000D02*
X155120000Y-114005000D01*
X128947502Y-96250000D02*
X141990000Y-96250000D01*
X109310000Y-53148579D02*
X109310000Y-51174265D01*
X106420000Y-98080000D02*
X116080000Y-98080000D01*
X158710000Y-118750000D02*
X161500000Y-115960000D01*
X113360000Y-78980000D02*
X118260000Y-74080000D01*
X108160000Y-65264265D02*
X109660000Y-66764265D01*
X143930000Y-47873928D02*
X143930000Y-57060000D01*
X147945000Y-99750000D02*
X147945000Y-97250000D01*
X125120000Y-58580000D02*
X125760000Y-58580000D01*
X118260000Y-66460000D02*
X119280000Y-65440000D01*
X153073333Y-103500000D02*
X151198333Y-101625000D01*
X136760000Y-84240000D02*
X137040000Y-84240000D01*
X126185685Y-108102498D02*
X125588184Y-108700000D01*
X158330000Y-102250000D02*
X157705000Y-101625000D01*
X124575686Y-108700000D02*
X123750000Y-109525686D01*
X126900000Y-70020000D02*
X143360000Y-70020000D01*
X118822500Y-39600000D02*
X111875000Y-39600000D01*
X148875000Y-118750000D02*
X146162500Y-118750000D01*
X150500000Y-107825000D02*
X148000000Y-107825000D01*
X114960000Y-58580000D02*
X120220000Y-63840000D01*
X138522857Y-42093929D02*
X138516428Y-42087500D01*
X109660000Y-73538580D02*
X110638580Y-72560000D01*
X124575714Y-43837500D02*
X124575714Y-42117500D01*
X127660000Y-58580000D02*
X131810000Y-62730000D01*
X150005000Y-116005000D02*
X147000000Y-113000000D01*
X147000000Y-113000000D02*
X147000000Y-107000000D01*
X121255000Y-98992502D02*
X121255000Y-99897498D01*
X127612502Y-123255000D02*
X135985000Y-123255000D01*
X106250000Y-107550000D02*
X108100000Y-105700000D01*
X143360000Y-67480000D02*
X144380000Y-66460000D01*
X117380000Y-129080000D02*
X119300000Y-131000000D01*
X139350000Y-53400000D02*
X139350000Y-47408214D01*
X129166786Y-47500000D02*
X130954286Y-45712500D01*
X109660000Y-74644265D02*
X109660000Y-73538580D01*
X123250000Y-46750000D02*
X123538214Y-46750000D01*
X123750000Y-109525686D02*
X123750000Y-114040000D01*
X107400000Y-110684314D02*
X109534314Y-108550000D01*
X120220000Y-63840000D02*
X144140000Y-63840000D01*
X135680000Y-70460000D02*
X136760000Y-71540000D01*
X121160000Y-108300000D02*
X122460000Y-107000000D01*
X108160000Y-57644265D02*
X105410000Y-60394265D01*
X136000000Y-43837500D02*
X136000000Y-42106786D01*
X106610000Y-73527919D02*
X108133654Y-72004265D01*
X110060000Y-75870611D02*
X110060000Y-73704266D01*
X112689999Y-84914265D02*
X113760000Y-83844264D01*
X144305686Y-63440000D02*
X144905686Y-64040000D01*
X128200000Y-48300000D02*
X129498158Y-48300000D01*
X125880000Y-71540000D02*
X126900000Y-72560000D01*
X146255000Y-129120000D02*
X156625000Y-118750000D01*
X113040000Y-65040000D02*
X110500000Y-62500000D01*
X116080000Y-130320000D02*
X116080000Y-128657502D01*
X143360000Y-70020000D02*
X144380000Y-69000000D01*
X134777502Y-127820000D02*
X136930000Y-127820000D01*
X123750000Y-114040000D02*
X119920000Y-117870000D01*
X135740000Y-67980000D02*
X119280000Y-67980000D01*
X141540000Y-64240000D02*
X113371372Y-64240000D01*
X105100000Y-99400000D02*
X106420000Y-98080000D01*
X104700000Y-99234315D02*
X104700000Y-112460000D01*
X114159999Y-84009951D02*
X114160000Y-84009951D01*
X135200000Y-129120000D02*
X136500000Y-130420000D01*
X151250000Y-79470000D02*
X151250000Y-69710000D01*
X124860000Y-70020000D02*
X125880000Y-69000000D01*
X126020000Y-107702498D02*
X125422498Y-108300000D01*
X146091428Y-45712500D02*
X143930000Y-47873928D01*
X122612502Y-101255000D02*
X123505000Y-101255000D01*
X113027968Y-66544265D02*
X118175735Y-66544265D01*
X109534314Y-108550000D02*
X113290000Y-108550000D01*
X124000000Y-50357502D02*
X126457502Y-47900000D01*
X109760000Y-136700000D02*
X115680000Y-130780000D01*
X126255000Y-99847498D02*
X126255000Y-98942502D01*
X111665000Y-94600000D02*
X128005000Y-94600000D01*
X119485000Y-40262500D02*
X118822500Y-39600000D01*
X123010000Y-105010000D02*
X125000000Y-107000000D01*
X129760000Y-58980000D02*
X129760000Y-57960000D01*
X118021765Y-45712500D02*
X119530000Y-45712500D01*
X110100000Y-55350000D02*
X110100000Y-62665686D01*
X116390000Y-108700000D02*
X114840000Y-110250000D01*
X149000000Y-58222498D02*
X149000000Y-56720000D01*
X147342498Y-59880000D02*
X141670000Y-59880000D01*
X106210000Y-79274265D02*
X106210000Y-73362233D01*
X125760000Y-58580000D02*
X126500000Y-57840000D01*
X147990000Y-46336786D02*
X148614286Y-45712500D01*
X162030000Y-108480000D02*
X162755000Y-107755000D01*
X110638580Y-72560000D02*
X124860000Y-72560000D01*
X116677502Y-128060000D02*
X118082498Y-128060000D01*
X156625000Y-112500000D02*
X159250000Y-112500000D01*
X109310001Y-53148579D02*
X109310000Y-53148579D01*
X112420000Y-41595000D02*
X113265000Y-40750000D01*
X106844314Y-85314265D02*
X112855685Y-85314265D01*
X105810000Y-72954265D02*
X105810000Y-81904265D01*
X146920000Y-58580000D02*
X148500000Y-57000000D01*
X136505000Y-121917498D02*
X136505000Y-119235000D01*
X107010000Y-84914265D02*
X112689999Y-84914265D01*
X130732472Y-46500000D02*
X132689643Y-46500000D01*
X125040000Y-121500000D02*
X123740000Y-122800000D01*
X113360000Y-80990611D02*
X113360000Y-78980000D01*
X114840000Y-117870000D02*
X117170000Y-120200000D01*
X123300000Y-97680000D02*
X106254314Y-97680000D01*
X123555735Y-108305735D02*
X123161470Y-108700000D01*
X146162500Y-106320002D02*
X143422498Y-103580000D01*
X148000000Y-106000000D02*
X146945000Y-104945000D01*
X148500000Y-57000000D02*
X148500000Y-47302518D01*
X109710000Y-52982893D02*
X109710000Y-49034265D01*
X107420000Y-122800000D02*
X106250000Y-121630000D01*
X106250000Y-111470000D02*
X105100000Y-110320000D01*
X138760000Y-66460000D02*
X138760000Y-66140000D01*
X131810000Y-62730000D02*
X146150000Y-62730000D01*
X116080000Y-98080000D02*
X117380000Y-99380000D01*
X120040000Y-58580000D02*
X124000000Y-54620000D01*
X112855685Y-85314265D02*
X114159999Y-84009951D01*
X129332472Y-47900000D02*
X130732472Y-46500000D01*
X134000000Y-128597502D02*
X134777502Y-127820000D01*
X161500000Y-107330000D02*
X161500000Y-106750000D01*
X136500000Y-130420000D02*
X138980000Y-130420000D01*
X140808626Y-64640000D02*
X113205686Y-64640000D01*
X133217502Y-47700000D02*
X138011089Y-47700000D01*
X157705000Y-95425000D02*
X154451666Y-95425000D01*
X105810000Y-81904265D02*
X106280000Y-82374265D01*
X121560000Y-51980000D02*
X121560000Y-50190000D01*
X124250000Y-47500000D02*
X129166786Y-47500000D01*
X119530000Y-43837500D02*
X119530000Y-42132500D01*
X148000000Y-111625000D02*
X148875000Y-112500000D01*
X130898158Y-46900000D02*
X134812500Y-46900000D01*
X120622498Y-130600000D02*
X132902498Y-130600000D01*
X105100000Y-115833654D02*
X105773654Y-115160000D01*
X144325000Y-97380000D02*
X143120000Y-97380000D01*
X129498158Y-48300000D02*
X130898158Y-46900000D01*
X144140000Y-63840000D02*
X145411471Y-65111471D01*
X150430000Y-60680000D02*
X131460000Y-60680000D01*
X136760000Y-69000000D02*
X135740000Y-67980000D01*
X159460000Y-102750000D02*
X155576666Y-102750000D01*
X143360000Y-73060000D02*
X144380000Y-74080000D01*
X151198333Y-95425000D02*
X147945000Y-95425000D01*
X143568571Y-43837500D02*
X143568571Y-42106785D01*
X156200000Y-109250000D02*
X153700000Y-106750000D01*
X139350000Y-47408214D02*
X141045714Y-45712500D01*
X157705000Y-99750000D02*
X157705000Y-97250000D01*
X133477143Y-42119643D02*
X133445000Y-42087500D01*
X135200000Y-121500000D02*
X131570000Y-117870000D01*
X150005000Y-119345000D02*
X150005000Y-116005000D01*
X157300000Y-106750000D02*
X159293654Y-106750000D01*
X138522857Y-43837500D02*
X138522857Y-42093929D01*
X154450000Y-103900000D02*
X151900000Y-103900000D01*
X144905686Y-64040000D02*
X151680000Y-64040000D01*
X126560000Y-120560000D02*
X126560000Y-122202498D01*
X117420000Y-121500000D02*
X117380000Y-121460000D01*
X126900000Y-73060000D02*
X143360000Y-73060000D01*
X124000000Y-54620000D02*
X124000000Y-50357502D01*
X142260000Y-64960000D02*
X141540000Y-64240000D01*
X157300000Y-106750000D02*
X154450000Y-103900000D01*
X136990000Y-60280000D02*
X147508183Y-60280000D01*
X133200000Y-77640000D02*
X136760000Y-74080000D01*
X148614286Y-43837500D02*
X148614286Y-42132500D01*
X108464265Y-53714265D02*
X110100000Y-55350000D01*
X113205686Y-64640000D02*
X110900000Y-62334314D01*
X132902498Y-130600000D02*
X134000000Y-129502498D01*
X114160000Y-84009951D02*
X114160000Y-81444265D01*
X107010000Y-76620611D02*
X107683654Y-77294265D01*
X145337500Y-119750000D02*
X149600000Y-119750000D01*
X110515000Y-95750000D02*
X111665000Y-94600000D01*
X161500000Y-99220000D02*
X161500000Y-99710000D01*
X105100000Y-117940000D02*
X105100000Y-115833654D01*
X107010000Y-44465000D02*
X110725000Y-40750000D01*
X131770000Y-108560000D02*
X130080000Y-110250000D01*
X135290000Y-58580000D02*
X136990000Y-60280000D01*
X151198333Y-99750000D02*
X151198333Y-97250000D01*
X118050000Y-101250000D02*
X119920000Y-99380000D01*
X141390000Y-47891071D02*
X141390000Y-57560000D01*
X156625000Y-118750000D02*
X158710000Y-118750000D01*
X146150000Y-62730000D02*
X146920000Y-61960000D01*
X134812500Y-46900000D02*
X136000000Y-45712500D01*
X134250000Y-52460000D02*
X132750000Y-50960000D01*
X135500000Y-105000000D02*
X127817502Y-105000000D01*
X110900000Y-62334314D02*
X110900000Y-54738578D01*
X129760000Y-57960000D02*
X129080000Y-57280000D01*
X118900000Y-111770000D02*
X118900000Y-118700000D01*
X146091428Y-43837500D02*
X146091428Y-42119642D01*
X155300000Y-105965256D02*
X154589744Y-105255000D01*
X146945000Y-104945000D02*
X146945000Y-100000000D01*
X105773654Y-115160000D02*
X106726346Y-115160000D01*
X109660000Y-69104265D02*
X105810000Y-72954265D01*
X158250000Y-103500000D02*
X153073333Y-103500000D01*
X107683654Y-77294265D02*
X108636346Y-77294265D01*
X111875000Y-39600000D02*
X110725000Y-40750000D01*
X119280000Y-65440000D02*
X135740000Y-65440000D01*
X148000000Y-107825000D02*
X148000000Y-111625000D01*
X116080000Y-128657502D02*
X116677502Y-128060000D01*
X115680000Y-128491816D02*
X116511816Y-127660000D01*
X110500000Y-54904265D02*
X108160000Y-52564265D01*
X151575000Y-105255000D02*
X150570000Y-104250000D01*
X114105686Y-108300000D02*
X121160000Y-108300000D01*
X161023654Y-108480000D02*
X162030000Y-108480000D01*
X159250000Y-112500000D02*
X161500000Y-114750000D01*
X130260000Y-50657502D02*
X133217502Y-47700000D01*
X141045714Y-42093928D02*
X141052142Y-42087500D01*
X161500000Y-118500000D02*
X162650000Y-117350000D01*
X118000000Y-45734265D02*
X118021765Y-45712500D01*
X143120000Y-107540000D02*
X142100000Y-108560000D01*
X153700000Y-106750000D02*
X151250000Y-106750000D01*
X127580000Y-121500000D02*
X128880000Y-122800000D01*
X110060000Y-73704266D02*
X110804266Y-72960000D01*
X130260000Y-57280000D02*
X130260000Y-50657502D01*
X130954286Y-42132500D02*
X130909286Y-42087500D01*
X124847498Y-101255000D02*
X126255000Y-99847498D01*
X112300000Y-99380000D02*
X113662157Y-100742157D01*
X149659286Y-46143232D02*
X149659286Y-41262500D01*
X138011089Y-47700000D02*
X139750000Y-45961089D01*
X123740000Y-122800000D02*
X107420000Y-122800000D01*
X106250000Y-105010000D02*
X123010000Y-105010000D01*
X126420000Y-107868184D02*
X126185685Y-108102498D01*
X125588184Y-108700000D02*
X124575686Y-108700000D01*
X138260000Y-85460000D02*
X145260000Y-85460000D01*
X118260000Y-71540000D02*
X119340000Y-70460000D01*
X107683654Y-53714265D02*
X108464265Y-53714265D01*
X147342498Y-59880000D02*
X149000000Y-58222498D01*
X139350000Y-53400000D02*
X135290000Y-57460000D01*
X113055000Y-95750000D02*
X114205000Y-96900000D01*
X125880000Y-69000000D02*
X126900000Y-70020000D01*
X131460000Y-60680000D02*
X129760000Y-58980000D01*
X146091428Y-42119642D02*
X146123570Y-42087500D01*
X124575714Y-42117500D02*
X124605714Y-42087500D01*
X151330000Y-61580000D02*
X150430000Y-60680000D01*
X123505000Y-101255000D02*
X124847498Y-101255000D01*
X154451666Y-95425000D02*
X151198333Y-95425000D01*
X122052857Y-43837500D02*
X122052857Y-42087500D01*
X113290000Y-108550000D02*
X114840000Y-107000000D01*
X144337500Y-118750000D02*
X145337500Y-119750000D01*
X118057502Y-70020000D02*
X124860000Y-70020000D01*
X155120000Y-114005000D02*
X156625000Y-112500000D01*
X126500000Y-57840000D02*
X126500000Y-50000000D01*
X118175735Y-66544265D02*
X118260000Y-66460000D01*
X135740000Y-65440000D02*
X136760000Y-66460000D01*
X127660000Y-50960000D02*
X127660000Y-50703844D01*
X111300000Y-54572893D02*
X109710000Y-52982893D01*
X143568571Y-45712500D02*
X141390000Y-47891071D01*
X159000000Y-109250000D02*
X156200000Y-109250000D01*
X119280000Y-67980000D02*
X118260000Y-69000000D01*
X124860000Y-75600000D02*
X125880000Y-76620000D01*
X108133654Y-72004265D02*
X116073237Y-72004265D01*
X123161470Y-108700000D02*
X116390000Y-108700000D01*
X105010000Y-58254265D02*
X105010000Y-83479951D01*
X108160000Y-73604265D02*
X107010000Y-74754265D01*
X135985000Y-123255000D02*
X137740000Y-121500000D01*
X137040000Y-84240000D02*
X138260000Y-85460000D01*
X146945000Y-100000000D02*
X144325000Y-97380000D01*
X126130000Y-120867502D02*
X126130000Y-125130000D01*
X149000000Y-131000000D02*
X161500000Y-118500000D01*
X124450000Y-102470000D02*
X127540000Y-99380000D01*
X143422498Y-103580000D02*
X141700000Y-103580000D01*
X149600000Y-119750000D02*
X150005000Y-119345000D01*
X132790000Y-117870000D02*
X135500000Y-115160000D01*
X138980000Y-130420000D02*
X140280000Y-129120000D01*
X149781471Y-65111471D02*
X151330000Y-66660000D01*
X117557502Y-75600000D02*
X124860000Y-75600000D01*
X148500000Y-47302518D02*
X149659286Y-46143232D01*
X135622498Y-122800000D02*
X136505000Y-121917498D01*
X108100000Y-105700000D02*
X116080000Y-105700000D01*
X143120000Y-105000000D02*
X142100000Y-103980000D01*
X108160000Y-55104265D02*
X105010000Y-58254265D01*
X150570000Y-104250000D02*
X147945000Y-101625000D01*
X126500000Y-57840000D02*
X127060000Y-57280000D01*
X141670000Y-59880000D02*
X140370000Y-58580000D01*
X108000000Y-110650000D02*
X109700000Y-108950000D01*
X149400000Y-58388184D02*
X147742498Y-60045685D01*
X114960000Y-58580000D02*
X121560000Y-51980000D01*
X120665735Y-46334265D02*
X121431092Y-46334265D01*
X149400000Y-58270000D02*
X149400000Y-58388184D01*
X109700000Y-108950000D02*
X113455686Y-108950000D01*
X123538214Y-46750000D02*
X124575714Y-45712500D01*
X127678751Y-103980000D02*
X126020000Y-105638751D01*
X151250000Y-56420000D02*
X149400000Y-58270000D01*
X127098571Y-42132500D02*
X127143571Y-42087500D01*
X141390000Y-57560000D02*
X140370000Y-58580000D01*
X110500000Y-62500000D02*
X110500000Y-54904265D01*
X126560000Y-122202498D02*
X127612502Y-123255000D01*
X141990000Y-96250000D02*
X143120000Y-97380000D01*
X155300000Y-107534744D02*
X155300000Y-105965256D01*
X135500000Y-115160000D02*
X133267502Y-115160000D01*
X143360000Y-72560000D02*
X144380000Y-71540000D01*
X135290000Y-57460000D02*
X135290000Y-58580000D01*
X123580000Y-127660000D02*
X125040000Y-129120000D01*
X125040000Y-129120000D02*
X125040000Y-121500000D01*
X120040000Y-58580000D02*
X124900000Y-63440000D01*
X119530000Y-42132500D02*
X119485000Y-42087500D01*
X106254314Y-97680000D02*
X104700000Y-99234315D01*
X125880000Y-74080000D02*
X126900000Y-73060000D01*
X125462498Y-120200000D02*
X126130000Y-120867502D01*
X109710000Y-49034265D02*
X108160000Y-47484265D01*
X151900000Y-103900000D02*
X148945000Y-100945000D01*
X143930000Y-57060000D02*
X145450000Y-58580000D01*
X133477143Y-43837500D02*
X133477143Y-42119643D01*
X119300000Y-131000000D02*
X149000000Y-131000000D01*
X126000000Y-46750000D02*
X126061071Y-46750000D01*
X125422498Y-108300000D02*
X124410000Y-108300000D01*
X110804266Y-72960000D02*
X124760000Y-72960000D01*
X131570000Y-117870000D02*
X130080000Y-117870000D01*
X116073237Y-72004265D02*
X118057502Y-70020000D01*
X105410000Y-60394265D02*
X105410000Y-83314265D01*
X106610000Y-77134265D02*
X106610000Y-73527919D01*
X126020000Y-105638751D02*
X126020000Y-107702498D01*
X127098571Y-43837500D02*
X127098571Y-42132500D01*
X113760000Y-79397502D02*
X117557502Y-75600000D01*
X108000000Y-114800000D02*
X108000000Y-110650000D01*
X108160000Y-78684265D02*
X106610000Y-77134265D01*
X114160000Y-81444265D02*
X117964265Y-77640000D01*
X162650000Y-117350000D02*
X162650000Y-112900000D01*
X109310000Y-51174265D02*
X108160000Y-50024265D01*
X137660000Y-65040000D02*
X113040000Y-65040000D01*
X107400000Y-114486346D02*
X107400000Y-110684314D01*
X130080000Y-117870000D02*
X132790000Y-117870000D01*
X110100000Y-62665686D02*
X113378579Y-65944265D01*
X106726346Y-115160000D02*
X107400000Y-114486346D01*
X116511816Y-127660000D02*
X123580000Y-127660000D01*
X118755000Y-99727498D02*
X118755000Y-98822502D01*
X128005000Y-94600000D02*
X147120000Y-94600000D01*
X118082498Y-128060000D02*
X120622498Y-130600000D01*
X106280000Y-82374265D02*
X111976346Y-82374265D01*
X149000000Y-56720000D02*
X151760000Y-53960000D01*
X151250000Y-106750000D02*
X150500000Y-106000000D01*
X141700000Y-103580000D02*
X135500000Y-97380000D01*
X128297502Y-96900000D02*
X128947502Y-96250000D01*
X154589744Y-105255000D02*
X151575000Y-105255000D01*
X125000000Y-99380000D02*
X123300000Y-97680000D01*
X106250000Y-99930000D02*
X107570000Y-101250000D01*
X137740000Y-129120000D02*
X144337500Y-122522500D01*
X119340000Y-70460000D02*
X135680000Y-70460000D01*
%TD*%
M02*
