%TF.GenerationSoftware,KiCad,Pcbnew,8.0.4*%
%TF.CreationDate,2024-11-02T20:41:25-04:00*%
%TF.ProjectId,100x100 Panel,31303078-3130-4302-9050-616e656c2e6b,rev?*%
%TF.SameCoordinates,Original*%
%TF.FileFunction,Soldermask,Bot*%
%TF.FilePolarity,Negative*%
%FSLAX46Y46*%
G04 Gerber Fmt 4.6, Leading zero omitted, Abs format (unit mm)*
G04 Created by KiCad (PCBNEW 8.0.4) date 2024-11-02 20:41:25*
%MOMM*%
%LPD*%
G01*
G04 APERTURE LIST*
%ADD10R,2.000000X1.440000*%
%ADD11O,2.000000X1.440000*%
%ADD12R,1.700000X1.700000*%
%ADD13O,1.700000X1.700000*%
%ADD14R,1.440000X2.000000*%
%ADD15O,1.440000X2.000000*%
G04 APERTURE END LIST*
D10*
%TO.C,8xDIPA1*%
X175280000Y-83092498D03*
D11*
X175280000Y-80552498D03*
X175280000Y-78012498D03*
X175280000Y-75472498D03*
X175280000Y-72932498D03*
X175280000Y-70392498D03*
X175280000Y-67852498D03*
X175280000Y-65312498D03*
X167660000Y-65312498D03*
X167660000Y-67852498D03*
X167660000Y-70392498D03*
X167660000Y-72932498D03*
X167660000Y-75472498D03*
X167660000Y-78012498D03*
X167660000Y-80552498D03*
X167660000Y-83092498D03*
%TD*%
D12*
%TO.C,MW1*%
X184675000Y-40752498D03*
D13*
X182135000Y-40752498D03*
%TD*%
D12*
%TO.C,PWR1*%
X195175000Y-40752498D03*
D13*
X192635000Y-40752498D03*
%TD*%
D12*
%TO.C,JA1*%
X167400000Y-61052498D03*
D13*
X167400000Y-58512498D03*
X167400000Y-55972498D03*
X167400000Y-53432498D03*
X167400000Y-50892498D03*
X167400000Y-48352498D03*
X167400000Y-45812498D03*
X167400000Y-43272498D03*
X167400000Y-40732498D03*
%TD*%
D10*
%TO.C,8xDIP1*%
X196210000Y-83092498D03*
D11*
X196210000Y-80552498D03*
X196210000Y-78012498D03*
X196210000Y-75472498D03*
X196210000Y-72932498D03*
X196210000Y-70392498D03*
X196210000Y-67852498D03*
X196210000Y-65312498D03*
X188590000Y-65312498D03*
X188590000Y-67852498D03*
X188590000Y-70392498D03*
X188590000Y-72932498D03*
X188590000Y-75472498D03*
X188590000Y-78012498D03*
X188590000Y-80552498D03*
X188590000Y-83092498D03*
%TD*%
D12*
%TO.C,J2*%
X172600000Y-61052498D03*
D13*
X172600000Y-58512498D03*
X172600000Y-55972498D03*
X172600000Y-53432498D03*
X172600000Y-50892498D03*
X172600000Y-48352498D03*
X172600000Y-45812498D03*
X172600000Y-43272498D03*
X172600000Y-40732498D03*
%TD*%
D12*
%TO.C,J1*%
X177900000Y-61052498D03*
D13*
X177900000Y-58512498D03*
X177900000Y-55972498D03*
X177900000Y-53432498D03*
X177900000Y-50892498D03*
X177900000Y-48352498D03*
X177900000Y-45812498D03*
X177900000Y-43272498D03*
X177900000Y-40732498D03*
%TD*%
D10*
%TO.C,8xDIP2*%
X185745000Y-83092498D03*
D11*
X185745000Y-80552498D03*
X185745000Y-78012498D03*
X185745000Y-75472498D03*
X185745000Y-72932498D03*
X185745000Y-70392498D03*
X185745000Y-67852498D03*
X185745000Y-65312498D03*
X178125000Y-65312498D03*
X178125000Y-67852498D03*
X178125000Y-70392498D03*
X178125000Y-72932498D03*
X178125000Y-75472498D03*
X178125000Y-78012498D03*
X178125000Y-80552498D03*
X178125000Y-83092498D03*
%TD*%
D14*
%TO.C,74HC1*%
X112420000Y-58580000D03*
D15*
X114960000Y-58580000D03*
X117500000Y-58580000D03*
X120040000Y-58580000D03*
X122580000Y-58580000D03*
X125120000Y-58580000D03*
X127660000Y-58580000D03*
X127660000Y-50960000D03*
X125120000Y-50960000D03*
X122580000Y-50960000D03*
X120040000Y-50960000D03*
X117500000Y-50960000D03*
X114960000Y-50960000D03*
X112420000Y-50960000D03*
%TD*%
D12*
%TO.C,EXT_CLK1*%
X161500000Y-115960000D03*
D13*
X161500000Y-118500000D03*
%TD*%
D12*
%TO.C,DATA_IN*%
X108160000Y-67804265D03*
D13*
X108160000Y-65264265D03*
X108160000Y-62724265D03*
X108160000Y-60184265D03*
X108160000Y-57644265D03*
X108160000Y-55104265D03*
X108160000Y-52564265D03*
X108160000Y-50024265D03*
X108160000Y-47484265D03*
%TD*%
D12*
%TO.C,ADDR*%
X108160000Y-83764265D03*
D13*
X108160000Y-81224265D03*
X108160000Y-78684265D03*
X108160000Y-76144265D03*
X108160000Y-73604265D03*
%TD*%
D14*
%TO.C,MUX2*%
X112300000Y-117870000D03*
D15*
X114840000Y-117870000D03*
X117380000Y-117870000D03*
X119920000Y-117870000D03*
X122460000Y-117870000D03*
X125000000Y-117870000D03*
X127540000Y-117870000D03*
X130080000Y-117870000D03*
X130080000Y-110250000D03*
X127540000Y-110250000D03*
X125000000Y-110250000D03*
X122460000Y-110250000D03*
X119920000Y-110250000D03*
X117380000Y-110250000D03*
X114840000Y-110250000D03*
X112300000Y-110250000D03*
%TD*%
D10*
%TO.C,SN74189N2*%
X136760000Y-66460000D03*
D11*
X136760000Y-69000000D03*
X136760000Y-71540000D03*
X136760000Y-74080000D03*
X136760000Y-76620000D03*
X136760000Y-79160000D03*
X136760000Y-81700000D03*
X136760000Y-84240000D03*
X144380000Y-84240000D03*
X144380000Y-81700000D03*
X144380000Y-79160000D03*
X144380000Y-76620000D03*
X144380000Y-74080000D03*
X144380000Y-71540000D03*
X144380000Y-69000000D03*
X144380000Y-66460000D03*
%TD*%
D10*
%TO.C,SN74189N1*%
X118260000Y-66460000D03*
D11*
X118260000Y-69000000D03*
X118260000Y-71540000D03*
X118260000Y-74080000D03*
X118260000Y-76620000D03*
X118260000Y-79160000D03*
X118260000Y-81700000D03*
X118260000Y-84240000D03*
X125880000Y-84240000D03*
X125880000Y-81700000D03*
X125880000Y-79160000D03*
X125880000Y-76620000D03*
X125880000Y-74080000D03*
X125880000Y-71540000D03*
X125880000Y-69000000D03*
X125880000Y-66460000D03*
%TD*%
D12*
%TO.C,PWR1*%
X110515000Y-95750000D03*
D13*
X113055000Y-95750000D03*
%TD*%
D12*
%TO.C,RET_ADDR1*%
X106250000Y-107550000D03*
D13*
X106250000Y-105010000D03*
X106250000Y-102470000D03*
X106250000Y-99930000D03*
%TD*%
D12*
%TO.C,DATA_OUT*%
X151250000Y-69120000D03*
D13*
X151250000Y-66580000D03*
X151250000Y-64040000D03*
X151250000Y-61500000D03*
X151250000Y-58960000D03*
X151250000Y-56420000D03*
X151250000Y-53880000D03*
X151250000Y-51340000D03*
X151250000Y-48800000D03*
%TD*%
D10*
%TO.C,ST_INV1*%
X109760000Y-121460000D03*
D11*
X109760000Y-124000000D03*
X109760000Y-126540000D03*
X109760000Y-129080000D03*
X109760000Y-131620000D03*
X109760000Y-134160000D03*
X109760000Y-136700000D03*
X117380000Y-136700000D03*
X117380000Y-134160000D03*
X117380000Y-131620000D03*
X117380000Y-129080000D03*
X117380000Y-126540000D03*
X117380000Y-124000000D03*
X117380000Y-121460000D03*
%TD*%
D14*
%TO.C,ADD1*%
X122500000Y-129120000D03*
D15*
X125040000Y-129120000D03*
X127580000Y-129120000D03*
X130120000Y-129120000D03*
X132660000Y-129120000D03*
X135200000Y-129120000D03*
X137740000Y-129120000D03*
X140280000Y-129120000D03*
X140280000Y-121500000D03*
X137740000Y-121500000D03*
X135200000Y-121500000D03*
X132660000Y-121500000D03*
X130120000Y-121500000D03*
X127580000Y-121500000D03*
X125040000Y-121500000D03*
X122500000Y-121500000D03*
%TD*%
D14*
%TO.C,MUX1*%
X112300000Y-107000000D03*
D15*
X114840000Y-107000000D03*
X117380000Y-107000000D03*
X119920000Y-107000000D03*
X122460000Y-107000000D03*
X125000000Y-107000000D03*
X127540000Y-107000000D03*
X130080000Y-107000000D03*
X130080000Y-99380000D03*
X127540000Y-99380000D03*
X125000000Y-99380000D03*
X122460000Y-99380000D03*
X119920000Y-99380000D03*
X117380000Y-99380000D03*
X114840000Y-99380000D03*
X112300000Y-99380000D03*
%TD*%
D12*
%TO.C,B_ADDR1*%
X106250000Y-121630000D03*
D13*
X106250000Y-119090000D03*
X106250000Y-116550000D03*
X106250000Y-114010000D03*
X106250000Y-111470000D03*
%TD*%
D12*
%TO.C,LOGIC1*%
X117000000Y-95750000D03*
D13*
X119540000Y-95750000D03*
%TD*%
D12*
%TO.C,INSTR_ADDR1*%
X161500000Y-99710000D03*
D13*
X161500000Y-102250000D03*
X161500000Y-104790000D03*
X161500000Y-107330000D03*
X161500000Y-109870000D03*
%TD*%
D12*
%TO.C,PWR*%
X110725000Y-40750000D03*
D13*
X113265000Y-40750000D03*
%TD*%
D14*
%TO.C,74HC2*%
X132750000Y-58580000D03*
D15*
X135290000Y-58580000D03*
X137830000Y-58580000D03*
X140370000Y-58580000D03*
X142910000Y-58580000D03*
X145450000Y-58580000D03*
X147990000Y-58580000D03*
X147990000Y-50960000D03*
X145450000Y-50960000D03*
X142910000Y-50960000D03*
X140370000Y-50960000D03*
X137830000Y-50960000D03*
X135290000Y-50960000D03*
X132750000Y-50960000D03*
%TD*%
D10*
%TO.C,REG1*%
X135500000Y-97380000D03*
D11*
X135500000Y-99920000D03*
X135500000Y-102460000D03*
X135500000Y-105000000D03*
X135500000Y-107540000D03*
X135500000Y-110080000D03*
X135500000Y-112620000D03*
X135500000Y-115160000D03*
X143120000Y-115160000D03*
X143120000Y-112620000D03*
X143120000Y-110080000D03*
X143120000Y-107540000D03*
X143120000Y-105000000D03*
X143120000Y-102460000D03*
X143120000Y-99920000D03*
X143120000Y-97380000D03*
%TD*%
M02*
