%TF.GenerationSoftware,KiCad,Pcbnew,8.0.4*%
%TF.CreationDate,2024-11-02T20:41:25-04:00*%
%TF.ProjectId,100x100 Panel,31303078-3130-4302-9050-616e656c2e6b,rev?*%
%TF.SameCoordinates,Original*%
%TF.FileFunction,Paste,Top*%
%TF.FilePolarity,Positive*%
%FSLAX46Y46*%
G04 Gerber Fmt 4.6, Leading zero omitted, Abs format (unit mm)*
G04 Created by KiCad (PCBNEW 8.0.4) date 2024-11-02 20:41:25*
%MOMM*%
%LPD*%
G01*
G04 APERTURE LIST*
G04 Aperture macros list*
%AMRoundRect*
0 Rectangle with rounded corners*
0 $1 Rounding radius*
0 $2 $3 $4 $5 $6 $7 $8 $9 X,Y pos of 4 corners*
0 Add a 4 corners polygon primitive as box body*
4,1,4,$2,$3,$4,$5,$6,$7,$8,$9,$2,$3,0*
0 Add four circle primitives for the rounded corners*
1,1,$1+$1,$2,$3*
1,1,$1+$1,$4,$5*
1,1,$1+$1,$6,$7*
1,1,$1+$1,$8,$9*
0 Add four rect primitives between the rounded corners*
20,1,$1+$1,$2,$3,$4,$5,0*
20,1,$1+$1,$4,$5,$6,$7,0*
20,1,$1+$1,$6,$7,$8,$9,0*
20,1,$1+$1,$8,$9,$2,$3,0*%
G04 Aperture macros list end*
%ADD10RoundRect,0.135000X-0.185000X0.135000X-0.185000X-0.135000X0.185000X-0.135000X0.185000X0.135000X0*%
%ADD11R,1.000000X1.250000*%
%ADD12RoundRect,0.250000X1.075000X-0.312500X1.075000X0.312500X-1.075000X0.312500X-1.075000X-0.312500X0*%
%ADD13RoundRect,0.243750X0.456250X-0.243750X0.456250X0.243750X-0.456250X0.243750X-0.456250X-0.243750X0*%
%ADD14RoundRect,0.250000X0.450000X-0.262500X0.450000X0.262500X-0.450000X0.262500X-0.450000X-0.262500X0*%
%ADD15RoundRect,0.250000X-0.262500X-0.450000X0.262500X-0.450000X0.262500X0.450000X-0.262500X0.450000X0*%
%ADD16R,1.250000X1.000000*%
%ADD17RoundRect,0.250000X-0.450000X0.262500X-0.450000X-0.262500X0.450000X-0.262500X0.450000X0.262500X0*%
%ADD18RoundRect,0.250000X-1.050000X-0.550000X1.050000X-0.550000X1.050000X0.550000X-1.050000X0.550000X0*%
G04 APERTURE END LIST*
D10*
%TO.C,220\u03A927111*%
X185044890Y-85132498D03*
X185044890Y-86152498D03*
%TD*%
%TO.C,220\u03A9A1*%
X167400000Y-85132498D03*
X167400000Y-86152498D03*
%TD*%
%TO.C,220\u03A925111*%
X182663260Y-85132498D03*
X182663260Y-86152498D03*
%TD*%
%TO.C,220\u03A923111*%
X180281630Y-85132498D03*
X180281630Y-86152498D03*
%TD*%
%TO.C,220\u03A9A3*%
X169781630Y-85132498D03*
X169781630Y-86152498D03*
%TD*%
%TO.C,220\u03A924111*%
X181472445Y-85132498D03*
X181472445Y-86152498D03*
%TD*%
%TO.C,220\u03A928111*%
X186235710Y-85132498D03*
X186235710Y-86152498D03*
%TD*%
%TO.C,220\u03A9A2*%
X168590815Y-85132498D03*
X168590815Y-86152498D03*
%TD*%
%TO.C,220\u03A926111*%
X183854075Y-85132498D03*
X183854075Y-86152498D03*
%TD*%
D11*
%TO.C,2xPushButtonB1*%
X193900000Y-61767498D03*
X193900000Y-54017498D03*
%TD*%
%TO.C,2xPushButtonB2*%
X183400000Y-61767498D03*
X183400000Y-54017498D03*
%TD*%
D10*
%TO.C,220\u03A911111*%
X188400000Y-85132498D03*
X188400000Y-86152498D03*
%TD*%
%TO.C,220\u03A9A4*%
X170972445Y-85132498D03*
X170972445Y-86152498D03*
%TD*%
%TO.C,220\u03A9B4*%
X175735710Y-85132498D03*
X175735710Y-86152498D03*
%TD*%
%TO.C,220\u03A9B1*%
X172163260Y-85132498D03*
X172163260Y-86152498D03*
%TD*%
%TO.C,220\u03A9B3*%
X174544890Y-85132498D03*
X174544890Y-86152498D03*
%TD*%
%TO.C,220\u03A9B2*%
X173354075Y-85132498D03*
X173354075Y-86152498D03*
%TD*%
D12*
%TO.C,220\u03A9P1*%
X193900000Y-50892498D03*
X193900000Y-47967498D03*
%TD*%
D11*
%TO.C,WE_Switch1*%
X187800000Y-43717498D03*
X187800000Y-51467498D03*
%TD*%
D12*
%TO.C,220\u03A9P2*%
X183400000Y-50892498D03*
X183400000Y-47967498D03*
%TD*%
D10*
%TO.C,220\u03A917111*%
X195544890Y-85132498D03*
X195544890Y-86152498D03*
%TD*%
%TO.C,220\u03A916111*%
X194354075Y-85132498D03*
X194354075Y-86152498D03*
%TD*%
%TO.C,220\u03A921111*%
X177900000Y-85132498D03*
X177900000Y-86152498D03*
%TD*%
%TO.C,220\u03A912111*%
X189590815Y-85132498D03*
X189590815Y-86152498D03*
%TD*%
%TO.C,220\u03A914111*%
X191972445Y-85132498D03*
X191972445Y-86152498D03*
%TD*%
%TO.C,220\u03A913111*%
X190781630Y-85132498D03*
X190781630Y-86152498D03*
%TD*%
%TO.C,220\u03A915111*%
X193163260Y-85132498D03*
X193163260Y-86152498D03*
%TD*%
%TO.C,220\u03A922111*%
X179090815Y-85132498D03*
X179090815Y-86152498D03*
%TD*%
%TO.C,220\u03A918111*%
X196735710Y-85132498D03*
X196735710Y-86152498D03*
%TD*%
D13*
%TO.C,LED_BLUE2*%
X133477143Y-45712500D03*
X133477143Y-43837500D03*
%TD*%
D14*
%TO.C,100\u03A91114*%
X143587856Y-42087500D03*
X143587856Y-40262500D03*
%TD*%
%TO.C,100\u03A911*%
X119485000Y-42087500D03*
X119485000Y-40262500D03*
%TD*%
D13*
%TO.C,LED_YELLOW4*%
X147945000Y-101625000D03*
X147945000Y-99750000D03*
%TD*%
D15*
%TO.C,220\u03A92*%
X144337500Y-118750000D03*
X146162500Y-118750000D03*
%TD*%
D16*
%TO.C,CLK1*%
X148875000Y-112500000D03*
X156625000Y-112500000D03*
%TD*%
D14*
%TO.C,100\u03A91111*%
X135980714Y-42087500D03*
X135980714Y-40262500D03*
%TD*%
D13*
%TO.C,LED_BLUE4*%
X138522857Y-45712500D03*
X138522857Y-43837500D03*
%TD*%
D14*
%TO.C,100\u03A91115*%
X146123570Y-42087500D03*
X146123570Y-40262500D03*
%TD*%
D17*
%TO.C,100\u03A94*%
X147945000Y-95425000D03*
X147945000Y-97250000D03*
%TD*%
D13*
%TO.C,LED_BLUE6*%
X143568571Y-45712500D03*
X143568571Y-43837500D03*
%TD*%
D14*
%TO.C,100\u03A91116*%
X148659286Y-42087500D03*
X148659286Y-40262500D03*
%TD*%
D13*
%TO.C,LED_BLUE8*%
X148614286Y-45712500D03*
X148614286Y-43837500D03*
%TD*%
D18*
%TO.C,22\u03BCF1*%
X153700000Y-106750000D03*
X157300000Y-106750000D03*
%TD*%
D16*
%TO.C,RESET1*%
X148875000Y-118750000D03*
X156625000Y-118750000D03*
%TD*%
D13*
%TO.C,LED_YELLOW1*%
X119530000Y-45712500D03*
X119530000Y-43837500D03*
%TD*%
D17*
%TO.C,100\u03A91*%
X157705000Y-95425000D03*
X157705000Y-97250000D03*
%TD*%
D14*
%TO.C,100\u03A91112*%
X138516428Y-42087500D03*
X138516428Y-40262500D03*
%TD*%
D13*
%TO.C,LED_YELLOW2*%
X154451666Y-101625000D03*
X154451666Y-99750000D03*
%TD*%
%TO.C,LED_YELLOW2*%
X122052857Y-45712500D03*
X122052857Y-43837500D03*
%TD*%
D17*
%TO.C,220\u03A91*%
X148000000Y-106000000D03*
X148000000Y-107825000D03*
%TD*%
D13*
%TO.C,LED_BLUE5*%
X141045714Y-45712500D03*
X141045714Y-43837500D03*
%TD*%
%TO.C,LED_YELLOW3*%
X151198333Y-101625000D03*
X151198333Y-99750000D03*
%TD*%
%TO.C,LED_YELLOW4*%
X127098571Y-45712500D03*
X127098571Y-43837500D03*
%TD*%
D14*
%TO.C,100\u03A91113*%
X141052142Y-42087500D03*
X141052142Y-40262500D03*
%TD*%
D13*
%TO.C,LED_BLUE3*%
X136000000Y-45712500D03*
X136000000Y-43837500D03*
%TD*%
%TO.C,LED_YELLOW3*%
X124575714Y-45712500D03*
X124575714Y-43837500D03*
%TD*%
%TO.C,LED_YELLOW1*%
X157705000Y-101625000D03*
X157705000Y-99750000D03*
%TD*%
D14*
%TO.C,100\u03A9112*%
X124605714Y-42087500D03*
X124605714Y-40262500D03*
%TD*%
%TO.C,100\u03A912*%
X130909286Y-42087500D03*
X130909286Y-40262500D03*
%TD*%
D17*
%TO.C,100\u03A93*%
X151198333Y-95425000D03*
X151198333Y-97250000D03*
%TD*%
D14*
%TO.C,100\u03A9114*%
X133445000Y-42087500D03*
X133445000Y-40262500D03*
%TD*%
%TO.C,470\u03A91*%
X150500000Y-107825000D03*
X150500000Y-106000000D03*
%TD*%
D13*
%TO.C,LED_BLUE1*%
X130954286Y-45712500D03*
X130954286Y-43837500D03*
%TD*%
%TO.C,LED_BLUE7*%
X146091428Y-45712500D03*
X146091428Y-43837500D03*
%TD*%
D14*
%TO.C,100\u03A9111*%
X122052857Y-42087500D03*
X122052857Y-40262500D03*
%TD*%
%TO.C,100\u03A9113*%
X127143571Y-42087500D03*
X127143571Y-40262500D03*
%TD*%
D17*
%TO.C,100\u03A92*%
X154451666Y-95425000D03*
X154451666Y-97250000D03*
%TD*%
M02*
