%TF.GenerationSoftware,KiCad,Pcbnew,8.0.4*%
%TF.CreationDate,2024-10-19T17:04:57-04:00*%
%TF.ProjectId,PC Counter Standalone,50432043-6f75-46e7-9465-72205374616e,rev?*%
%TF.SameCoordinates,Original*%
%TF.FileFunction,Copper,L1,Top*%
%TF.FilePolarity,Positive*%
%FSLAX46Y46*%
G04 Gerber Fmt 4.6, Leading zero omitted, Abs format (unit mm)*
G04 Created by KiCad (PCBNEW 8.0.4) date 2024-10-19 17:04:57*
%MOMM*%
%LPD*%
G01*
G04 APERTURE LIST*
G04 Aperture macros list*
%AMRoundRect*
0 Rectangle with rounded corners*
0 $1 Rounding radius*
0 $2 $3 $4 $5 $6 $7 $8 $9 X,Y pos of 4 corners*
0 Add a 4 corners polygon primitive as box body*
4,1,4,$2,$3,$4,$5,$6,$7,$8,$9,$2,$3,0*
0 Add four circle primitives for the rounded corners*
1,1,$1+$1,$2,$3*
1,1,$1+$1,$4,$5*
1,1,$1+$1,$6,$7*
1,1,$1+$1,$8,$9*
0 Add four rect primitives between the rounded corners*
20,1,$1+$1,$2,$3,$4,$5,0*
20,1,$1+$1,$4,$5,$6,$7,0*
20,1,$1+$1,$6,$7,$8,$9,0*
20,1,$1+$1,$8,$9,$2,$3,0*%
G04 Aperture macros list end*
%TA.AperFunction,ComponentPad*%
%ADD10R,1.440000X2.000000*%
%TD*%
%TA.AperFunction,ComponentPad*%
%ADD11O,1.440000X2.000000*%
%TD*%
%TA.AperFunction,ComponentPad*%
%ADD12R,2.000000X1.440000*%
%TD*%
%TA.AperFunction,ComponentPad*%
%ADD13O,2.000000X1.440000*%
%TD*%
%TA.AperFunction,SMDPad,CuDef*%
%ADD14RoundRect,0.250000X-0.262500X-0.450000X0.262500X-0.450000X0.262500X0.450000X-0.262500X0.450000X0*%
%TD*%
%TA.AperFunction,SMDPad,CuDef*%
%ADD15R,1.250000X1.000000*%
%TD*%
%TA.AperFunction,SMDPad,CuDef*%
%ADD16RoundRect,0.250000X0.450000X-0.262500X0.450000X0.262500X-0.450000X0.262500X-0.450000X-0.262500X0*%
%TD*%
%TA.AperFunction,ComponentPad*%
%ADD17R,1.700000X1.700000*%
%TD*%
%TA.AperFunction,ComponentPad*%
%ADD18O,1.700000X1.700000*%
%TD*%
%TA.AperFunction,SMDPad,CuDef*%
%ADD19RoundRect,0.243750X0.456250X-0.243750X0.456250X0.243750X-0.456250X0.243750X-0.456250X-0.243750X0*%
%TD*%
%TA.AperFunction,SMDPad,CuDef*%
%ADD20RoundRect,0.250000X-1.050000X-0.550000X1.050000X-0.550000X1.050000X0.550000X-1.050000X0.550000X0*%
%TD*%
%TA.AperFunction,SMDPad,CuDef*%
%ADD21RoundRect,0.250000X-0.450000X0.262500X-0.450000X-0.262500X0.450000X-0.262500X0.450000X0.262500X0*%
%TD*%
%TA.AperFunction,ViaPad*%
%ADD22C,0.600000*%
%TD*%
%TA.AperFunction,Conductor*%
%ADD23C,0.200000*%
%TD*%
G04 APERTURE END LIST*
D10*
%TO.P,ADD1,1,S2*%
%TO.N,Net-(ADD1-S2)*%
X138245000Y-111865000D03*
D11*
%TO.P,ADD1,2,B2*%
%TO.N,GND*%
X140785000Y-111865000D03*
%TO.P,ADD1,3,A2*%
%TO.N,Net-(ADD1-A2)*%
X143325000Y-111865000D03*
%TO.P,ADD1,4,S1*%
%TO.N,Net-(ADD1-S1)*%
X145865000Y-111865000D03*
%TO.P,ADD1,5,A1*%
%TO.N,Net-(ADD1-A1)*%
X148405000Y-111865000D03*
%TO.P,ADD1,6,B1*%
%TO.N,GND*%
X150945000Y-111865000D03*
%TO.P,ADD1,7,C0*%
%TO.N,+5V*%
X153485000Y-111865000D03*
%TO.P,ADD1,8,GND*%
%TO.N,GND*%
X156025000Y-111865000D03*
%TO.P,ADD1,9,C4*%
%TO.N,unconnected-(ADD1-C4-Pad9)*%
X156025000Y-104245000D03*
%TO.P,ADD1,10,S4*%
%TO.N,Net-(ADD1-S4)*%
X153485000Y-104245000D03*
%TO.P,ADD1,11,B4*%
%TO.N,GND*%
X150945000Y-104245000D03*
%TO.P,ADD1,12,A4*%
%TO.N,Net-(ADD1-A4)*%
X148405000Y-104245000D03*
%TO.P,ADD1,13,S3*%
%TO.N,Net-(ADD1-S3)*%
X145865000Y-104245000D03*
%TO.P,ADD1,14,A3*%
%TO.N,Net-(ADD1-A3)*%
X143325000Y-104245000D03*
%TO.P,ADD1,15,B3*%
%TO.N,GND*%
X140785000Y-104245000D03*
%TO.P,ADD1,16,VCC*%
%TO.N,+5V*%
X138245000Y-104245000D03*
%TD*%
D12*
%TO.P,ST_INV1,1,A1*%
%TO.N,unconnected-(ST_INV1-A1-Pad1)*%
X125505000Y-104205000D03*
D13*
%TO.P,ST_INV1,2,Y1*%
%TO.N,unconnected-(ST_INV1-Y1-Pad2)*%
X125505000Y-106745000D03*
%TO.P,ST_INV1,3,A2*%
%TO.N,unconnected-(ST_INV1-A2-Pad3)*%
X125505000Y-109285000D03*
%TO.P,ST_INV1,4,Y2*%
%TO.N,unconnected-(ST_INV1-Y2-Pad4)*%
X125505000Y-111825000D03*
%TO.P,ST_INV1,5,A3*%
%TO.N,unconnected-(ST_INV1-A3-Pad5)*%
X125505000Y-114365000D03*
%TO.P,ST_INV1,6,Y3*%
%TO.N,unconnected-(ST_INV1-Y3-Pad6)*%
X125505000Y-116905000D03*
%TO.P,ST_INV1,7,GND*%
%TO.N,GND*%
X125505000Y-119445000D03*
%TO.P,ST_INV1,8,Y4*%
%TO.N,unconnected-(ST_INV1-Y4-Pad8)*%
X133125000Y-119445000D03*
%TO.P,ST_INV1,9,A4*%
%TO.N,unconnected-(ST_INV1-A4-Pad9)*%
X133125000Y-116905000D03*
%TO.P,ST_INV1,10,Y5*%
%TO.N,Net-(REG1-CLK)*%
X133125000Y-114365000D03*
%TO.P,ST_INV1,11,A5*%
%TO.N,Net-(EXT_CLK1-Pin_2)*%
X133125000Y-111825000D03*
%TO.P,ST_INV1,12,Y6*%
%TO.N,unconnected-(ST_INV1-Y6-Pad12)*%
X133125000Y-109285000D03*
%TO.P,ST_INV1,13,A6*%
%TO.N,unconnected-(ST_INV1-A6-Pad13)*%
X133125000Y-106745000D03*
%TO.P,ST_INV1,14,VCC*%
%TO.N,+5V*%
X133125000Y-104205000D03*
%TD*%
D14*
%TO.P,220\u03A92,1*%
%TO.N,+5V*%
X160082500Y-101495000D03*
%TO.P,220\u03A92,2*%
%TO.N,Net-(REG1-CLR)*%
X161907500Y-101495000D03*
%TD*%
D10*
%TO.P,MUX2,1,SEL*%
%TO.N,Net-(LOGIC1-Pin_2)*%
X128045000Y-100615000D03*
D11*
%TO.P,MUX2,2,A1*%
%TO.N,Net-(ADD1-S1)*%
X130585000Y-100615000D03*
%TO.P,MUX2,3,B1*%
%TO.N,Net-(MUX1-Y1)*%
X133125000Y-100615000D03*
%TO.P,MUX2,4,Y1*%
%TO.N,Net-(MUX2-Y1)*%
X135665000Y-100615000D03*
%TO.P,MUX2,5,A2*%
%TO.N,Net-(ADD1-S2)*%
X138205000Y-100615000D03*
%TO.P,MUX2,6,B2*%
%TO.N,Net-(MUX1-Y2)*%
X140745000Y-100615000D03*
%TO.P,MUX2,7,Y2*%
%TO.N,Net-(MUX2-Y2)*%
X143285000Y-100615000D03*
%TO.P,MUX2,8,GND*%
%TO.N,GND*%
X145825000Y-100615000D03*
%TO.P,MUX2,9,Y3*%
%TO.N,Net-(MUX2-Y3)*%
X145825000Y-92995000D03*
%TO.P,MUX2,10,B3*%
%TO.N,Net-(MUX1-Y3)*%
X143285000Y-92995000D03*
%TO.P,MUX2,11,A3*%
%TO.N,Net-(ADD1-S3)*%
X140745000Y-92995000D03*
%TO.P,MUX2,12,Y4*%
%TO.N,Net-(MUX2-Y4)*%
X138205000Y-92995000D03*
%TO.P,MUX2,13,B4*%
%TO.N,Net-(MUX1-Y4)*%
X135665000Y-92995000D03*
%TO.P,MUX2,14,A4*%
%TO.N,Net-(ADD1-S4)*%
X133125000Y-92995000D03*
%TO.P,MUX2,15,EN*%
%TO.N,GND*%
X130585000Y-92995000D03*
%TO.P,MUX2,16,VCC*%
%TO.N,+5V*%
X128045000Y-92995000D03*
%TD*%
D15*
%TO.P,RESET1,1*%
%TO.N,Net-(REG1-CLR)*%
X164620000Y-101495000D03*
%TO.P,RESET1,2*%
%TO.N,GND*%
X172370000Y-101495000D03*
%TD*%
%TO.P,CLK1,1*%
%TO.N,Net-(220\u03A91-Pad2)*%
X164620000Y-95245000D03*
%TO.P,CLK1,2*%
%TO.N,GND*%
X172370000Y-95245000D03*
%TD*%
D16*
%TO.P,470\u03A91,1*%
%TO.N,Net-(220\u03A91-Pad2)*%
X166245000Y-90570000D03*
%TO.P,470\u03A91,2*%
%TO.N,Net-(EXT_CLK1-Pin_2)*%
X166245000Y-88745000D03*
%TD*%
D17*
%TO.P,B_ADDR1,1,Pin_1*%
%TO.N,GND*%
X121995000Y-104375000D03*
D18*
%TO.P,B_ADDR1,2,Pin_2*%
%TO.N,Net-(B_ADDR1-Pin_2)*%
X121995000Y-101835000D03*
%TO.P,B_ADDR1,3,Pin_3*%
%TO.N,Net-(B_ADDR1-Pin_3)*%
X121995000Y-99295000D03*
%TO.P,B_ADDR1,4,Pin_4*%
%TO.N,Net-(B_ADDR1-Pin_4)*%
X121995000Y-96755000D03*
%TO.P,B_ADDR1,5,Pin_5*%
%TO.N,Net-(B_ADDR1-Pin_5)*%
X121995000Y-94215000D03*
%TD*%
D10*
%TO.P,MUX1,1,SEL*%
%TO.N,Net-(LOGIC1-Pin_1)*%
X128045000Y-89745000D03*
D11*
%TO.P,MUX1,2,A1*%
%TO.N,Net-(B_ADDR1-Pin_2)*%
X130585000Y-89745000D03*
%TO.P,MUX1,3,B1*%
%TO.N,Net-(MUX1-B1)*%
X133125000Y-89745000D03*
%TO.P,MUX1,4,Y1*%
%TO.N,Net-(MUX1-Y1)*%
X135665000Y-89745000D03*
%TO.P,MUX1,5,A2*%
%TO.N,Net-(B_ADDR1-Pin_3)*%
X138205000Y-89745000D03*
%TO.P,MUX1,6,B2*%
%TO.N,Net-(MUX1-B2)*%
X140745000Y-89745000D03*
%TO.P,MUX1,7,Y2*%
%TO.N,Net-(MUX1-Y2)*%
X143285000Y-89745000D03*
%TO.P,MUX1,8,GND*%
%TO.N,GND*%
X145825000Y-89745000D03*
%TO.P,MUX1,9,Y3*%
%TO.N,Net-(MUX1-Y3)*%
X145825000Y-82125000D03*
%TO.P,MUX1,10,B3*%
%TO.N,Net-(MUX1-B3)*%
X143285000Y-82125000D03*
%TO.P,MUX1,11,A3*%
%TO.N,Net-(B_ADDR1-Pin_4)*%
X140745000Y-82125000D03*
%TO.P,MUX1,12,Y4*%
%TO.N,Net-(MUX1-Y4)*%
X138205000Y-82125000D03*
%TO.P,MUX1,13,B4*%
%TO.N,Net-(MUX1-B4)*%
X135665000Y-82125000D03*
%TO.P,MUX1,14,A4*%
%TO.N,Net-(B_ADDR1-Pin_5)*%
X133125000Y-82125000D03*
%TO.P,MUX1,15,EN*%
%TO.N,GND*%
X130585000Y-82125000D03*
%TO.P,MUX1,16,VCC*%
%TO.N,+5V*%
X128045000Y-82125000D03*
%TD*%
D19*
%TO.P,LED_YELLOW3,1*%
%TO.N,Net-(ADD1-A3)*%
X166943333Y-84370000D03*
%TO.P,LED_YELLOW3,2*%
%TO.N,Net-(100\u03A93-Pad2)*%
X166943333Y-82495000D03*
%TD*%
D17*
%TO.P,RET_ADDR1,1,Pin_1*%
%TO.N,Net-(MUX1-B1)*%
X121995000Y-90295000D03*
D18*
%TO.P,RET_ADDR1,2,Pin_2*%
%TO.N,Net-(MUX1-B2)*%
X121995000Y-87755000D03*
%TO.P,RET_ADDR1,3,Pin_3*%
%TO.N,Net-(MUX1-B3)*%
X121995000Y-85215000D03*
%TO.P,RET_ADDR1,4,Pin_4*%
%TO.N,Net-(MUX1-B4)*%
X121995000Y-82675000D03*
%TD*%
D20*
%TO.P,22\u03BCF1,1*%
%TO.N,Net-(EXT_CLK1-Pin_2)*%
X169445000Y-89495000D03*
%TO.P,22\u03BCF1,2*%
%TO.N,GND*%
X173045000Y-89495000D03*
%TD*%
D17*
%TO.P,INSTR_ADDR1,1,Pin_1*%
%TO.N,GND*%
X177245000Y-82455000D03*
D18*
%TO.P,INSTR_ADDR1,2,Pin_2*%
%TO.N,Net-(ADD1-A1)*%
X177245000Y-84995000D03*
%TO.P,INSTR_ADDR1,3,Pin_3*%
%TO.N,Net-(ADD1-A2)*%
X177245000Y-87535000D03*
%TO.P,INSTR_ADDR1,4,Pin_4*%
%TO.N,Net-(ADD1-A3)*%
X177245000Y-90075000D03*
%TO.P,INSTR_ADDR1,5,Pin_5*%
%TO.N,Net-(ADD1-A4)*%
X177245000Y-92615000D03*
%TD*%
D19*
%TO.P,LED_YELLOW1,1*%
%TO.N,Net-(ADD1-A1)*%
X173450000Y-84370000D03*
%TO.P,LED_YELLOW1,2*%
%TO.N,Net-(100\u03A91-Pad2)*%
X173450000Y-82495000D03*
%TD*%
D17*
%TO.P,LOGIC1,1,Pin_1*%
%TO.N,Net-(LOGIC1-Pin_1)*%
X132745000Y-78495000D03*
D18*
%TO.P,LOGIC1,2,Pin_2*%
%TO.N,Net-(LOGIC1-Pin_2)*%
X135285000Y-78495000D03*
%TD*%
D19*
%TO.P,LED_YELLOW2,1*%
%TO.N,Net-(ADD1-A2)*%
X170196666Y-84370000D03*
%TO.P,LED_YELLOW2,2*%
%TO.N,Net-(100\u03A92-Pad2)*%
X170196666Y-82495000D03*
%TD*%
D17*
%TO.P,EXT_CLK1,1,Pin_1*%
%TO.N,GND*%
X177245000Y-98705000D03*
D18*
%TO.P,EXT_CLK1,2,Pin_2*%
%TO.N,Net-(EXT_CLK1-Pin_2)*%
X177245000Y-101245000D03*
%TD*%
D21*
%TO.P,100\u03A93,1*%
%TO.N,GND*%
X166943333Y-78170000D03*
%TO.P,100\u03A93,2*%
%TO.N,Net-(100\u03A93-Pad2)*%
X166943333Y-79995000D03*
%TD*%
D19*
%TO.P,LED_YELLOW4,1*%
%TO.N,Net-(ADD1-A4)*%
X163690000Y-84370000D03*
%TO.P,LED_YELLOW4,2*%
%TO.N,Net-(100\u03A94-Pad2)*%
X163690000Y-82495000D03*
%TD*%
D12*
%TO.P,REG1,1,CLR*%
%TO.N,Net-(REG1-CLR)*%
X151245000Y-80125000D03*
D13*
%TO.P,REG1,2,Q1*%
%TO.N,Net-(ADD1-A1)*%
X151245000Y-82665000D03*
%TO.P,REG1,3*%
%TO.N,unconnected-(REG1-Pad3)*%
X151245000Y-85205000D03*
%TO.P,REG1,4,D1*%
%TO.N,Net-(MUX2-Y1)*%
X151245000Y-87745000D03*
%TO.P,REG1,5,D2*%
%TO.N,Net-(MUX2-Y2)*%
X151245000Y-90285000D03*
%TO.P,REG1,6*%
%TO.N,unconnected-(REG1-Pad6)*%
X151245000Y-92825000D03*
%TO.P,REG1,7,Q2*%
%TO.N,Net-(ADD1-A2)*%
X151245000Y-95365000D03*
%TO.P,REG1,8,GND*%
%TO.N,GND*%
X151245000Y-97905000D03*
%TO.P,REG1,9,CLK*%
%TO.N,Net-(REG1-CLK)*%
X158865000Y-97905000D03*
%TO.P,REG1,10,Q3*%
%TO.N,Net-(ADD1-A3)*%
X158865000Y-95365000D03*
%TO.P,REG1,11*%
%TO.N,unconnected-(REG1-Pad11)*%
X158865000Y-92825000D03*
%TO.P,REG1,12,D3*%
%TO.N,Net-(MUX2-Y3)*%
X158865000Y-90285000D03*
%TO.P,REG1,13,D4*%
%TO.N,Net-(MUX2-Y4)*%
X158865000Y-87745000D03*
%TO.P,REG1,14*%
%TO.N,unconnected-(REG1-Pad14)*%
X158865000Y-85205000D03*
%TO.P,REG1,15,Q4*%
%TO.N,Net-(ADD1-A4)*%
X158865000Y-82665000D03*
%TO.P,REG1,16,VCC*%
%TO.N,+5V*%
X158865000Y-80125000D03*
%TD*%
D21*
%TO.P,100\u03A91,1*%
%TO.N,GND*%
X173450000Y-78170000D03*
%TO.P,100\u03A91,2*%
%TO.N,Net-(100\u03A91-Pad2)*%
X173450000Y-79995000D03*
%TD*%
%TO.P,100\u03A94,1*%
%TO.N,GND*%
X163690000Y-78170000D03*
%TO.P,100\u03A94,2*%
%TO.N,Net-(100\u03A94-Pad2)*%
X163690000Y-79995000D03*
%TD*%
D17*
%TO.P,PWR1,1,Pin_1*%
%TO.N,GND*%
X126260000Y-78495000D03*
D18*
%TO.P,PWR1,2,Pin_2*%
%TO.N,+5V*%
X128800000Y-78495000D03*
%TD*%
D21*
%TO.P,100\u03A92,1*%
%TO.N,GND*%
X170196666Y-78170000D03*
%TO.P,100\u03A92,2*%
%TO.N,Net-(100\u03A92-Pad2)*%
X170196666Y-79995000D03*
%TD*%
%TO.P,220\u03A91,1*%
%TO.N,+5V*%
X163745000Y-88745000D03*
%TO.P,220\u03A91,2*%
%TO.N,Net-(220\u03A91-Pad2)*%
X163745000Y-90570000D03*
%TD*%
D22*
%TO.N,GND*%
X139300735Y-91050735D03*
X143750000Y-77345000D03*
X164750000Y-96750000D03*
%TO.N,+5V*%
X139250000Y-84000000D03*
%TO.N,Net-(ADD1-A4)*%
X163290000Y-86995000D03*
%TD*%
D23*
%TO.N,GND*%
X173045000Y-89495000D02*
X175038654Y-89495000D01*
X174995000Y-95245000D02*
X177245000Y-97495000D01*
X123165000Y-105545000D02*
X121995000Y-104375000D01*
X170196666Y-78170000D02*
X166943333Y-78170000D01*
X172370000Y-95245000D02*
X174995000Y-95245000D01*
X139325000Y-110405000D02*
X140785000Y-111865000D01*
X175038654Y-89495000D02*
X176768654Y-91225000D01*
X154725000Y-113165000D02*
X156025000Y-111865000D01*
X148535000Y-100615000D02*
X151245000Y-97905000D01*
X143750000Y-77345000D02*
X162865000Y-77345000D01*
X173450000Y-78170000D02*
X177245000Y-81965000D01*
X140785000Y-104245000D02*
X139485000Y-105545000D01*
X164750000Y-96750000D02*
X170865000Y-96750000D01*
X126260000Y-78495000D02*
X127410000Y-77345000D01*
X173450000Y-78170000D02*
X170196666Y-78170000D01*
X144805000Y-90765000D02*
X145825000Y-89745000D01*
X131425000Y-113525000D02*
X131425000Y-111236816D01*
X138906470Y-91445000D02*
X132135000Y-91445000D01*
X127410000Y-77345000D02*
X143750000Y-77345000D01*
X125505000Y-119445000D02*
X131425000Y-113525000D01*
X144805000Y-93697498D02*
X144805000Y-90765000D01*
X131425000Y-111236816D02*
X132256816Y-110405000D01*
X121995000Y-104375000D02*
X130585000Y-95785000D01*
X151245000Y-97905000D02*
X149012502Y-97905000D01*
X130585000Y-95785000D02*
X130585000Y-92995000D01*
X177775000Y-91225000D02*
X178500000Y-90500000D01*
X149012502Y-97905000D02*
X144805000Y-93697498D01*
X152245000Y-113165000D02*
X154725000Y-113165000D01*
X139485000Y-105545000D02*
X123165000Y-105545000D01*
X140785000Y-111865000D02*
X140785000Y-104245000D01*
X132135000Y-91445000D02*
X130585000Y-92995000D01*
X150945000Y-104245000D02*
X147315000Y-100615000D01*
X147315000Y-100615000D02*
X145825000Y-100615000D01*
X170195000Y-86645000D02*
X167645000Y-86645000D01*
X173045000Y-89495000D02*
X170195000Y-86645000D01*
X178500000Y-90500000D02*
X178500000Y-83710000D01*
X162865000Y-77345000D02*
X163690000Y-78170000D01*
X162000000Y-111865000D02*
X172370000Y-101495000D01*
X174455000Y-101495000D02*
X177245000Y-98705000D01*
X177245000Y-81965000D02*
X177245000Y-82455000D01*
X170865000Y-96750000D02*
X172370000Y-95245000D01*
X150945000Y-111865000D02*
X152245000Y-113165000D01*
X156025000Y-111865000D02*
X162000000Y-111865000D01*
X145825000Y-100615000D02*
X148535000Y-100615000D01*
X176768654Y-91225000D02*
X177775000Y-91225000D01*
X172370000Y-101495000D02*
X174455000Y-101495000D01*
X167645000Y-86645000D02*
X164690000Y-83690000D01*
X164690000Y-79170000D02*
X163690000Y-78170000D01*
X132256816Y-110405000D02*
X139325000Y-110405000D01*
X139300735Y-91050735D02*
X138906470Y-91445000D01*
X164690000Y-83690000D02*
X164690000Y-79170000D01*
X166943333Y-78170000D02*
X163690000Y-78170000D01*
X177245000Y-97495000D02*
X177245000Y-98705000D01*
X178500000Y-83710000D02*
X177245000Y-82455000D01*
%TO.N,+5V*%
X162690000Y-82745000D02*
X160070000Y-80125000D01*
X137000000Y-82642498D02*
X138357502Y-84000000D01*
X162745000Y-89745000D02*
X163745000Y-88745000D01*
X160082500Y-105267500D02*
X160082500Y-101495000D01*
X129950000Y-79645000D02*
X144042502Y-79645000D01*
X142000000Y-82592498D02*
X142000000Y-81687502D01*
X161082500Y-102495000D02*
X165345000Y-102495000D01*
X137000000Y-81737502D02*
X137000000Y-82642498D01*
X142000000Y-81687502D02*
X144692502Y-78995000D01*
X133165000Y-104245000D02*
X133125000Y-104205000D01*
X165750000Y-98750000D02*
X162745000Y-95745000D01*
X165750000Y-102090000D02*
X165750000Y-98750000D01*
X139250000Y-84000000D02*
X140592498Y-84000000D01*
X144692502Y-78995000D02*
X157735000Y-78995000D01*
X136087498Y-80825000D02*
X137000000Y-81737502D01*
X140592498Y-84000000D02*
X142000000Y-82592498D01*
X165345000Y-102495000D02*
X165750000Y-102090000D01*
X138245000Y-104245000D02*
X133165000Y-104245000D01*
X133485341Y-83487157D02*
X134500000Y-82472498D01*
X135242502Y-80825000D02*
X136087498Y-80825000D01*
X128800000Y-78495000D02*
X129950000Y-79645000D01*
X129407157Y-83487157D02*
X133485341Y-83487157D01*
X160082500Y-101495000D02*
X161082500Y-102495000D01*
X128045000Y-82125000D02*
X129407157Y-83487157D01*
X163745000Y-88745000D02*
X162690000Y-87690000D01*
X134500000Y-81567502D02*
X135242502Y-80825000D01*
X162745000Y-95745000D02*
X162745000Y-89745000D01*
X157735000Y-78995000D02*
X158865000Y-80125000D01*
X144042502Y-79645000D02*
X144692502Y-78995000D01*
X134500000Y-82472498D02*
X134500000Y-81567502D01*
X138357502Y-84000000D02*
X139250000Y-84000000D01*
X153485000Y-111865000D02*
X160082500Y-105267500D01*
X162690000Y-87690000D02*
X162690000Y-82745000D01*
X160070000Y-80125000D02*
X158865000Y-80125000D01*
%TO.N,Net-(EXT_CLK1-Pin_2)*%
X164745000Y-113745000D02*
X177245000Y-101245000D01*
X166995000Y-89495000D02*
X166245000Y-88745000D01*
X135045000Y-113745000D02*
X164745000Y-113745000D01*
X133125000Y-111825000D02*
X135045000Y-113745000D01*
X174745000Y-91995000D02*
X171945000Y-91995000D01*
X171945000Y-91995000D02*
X169445000Y-89495000D01*
X169445000Y-89495000D02*
X166995000Y-89495000D01*
X177245000Y-101245000D02*
X178395000Y-100095000D01*
X178395000Y-100095000D02*
X178395000Y-95645000D01*
X178395000Y-95645000D02*
X174745000Y-91995000D01*
%TO.N,Net-(220\u03A91-Pad2)*%
X163745000Y-90570000D02*
X163745000Y-94370000D01*
X166245000Y-90570000D02*
X163745000Y-90570000D01*
X163745000Y-94370000D02*
X164620000Y-95245000D01*
%TO.N,Net-(REG1-CLR)*%
X161907500Y-89065002D02*
X159167498Y-86325000D01*
X159167498Y-86325000D02*
X157445000Y-86325000D01*
X164620000Y-101495000D02*
X161907500Y-101495000D01*
X161907500Y-101495000D02*
X161907500Y-89065002D01*
X157445000Y-86325000D02*
X151245000Y-80125000D01*
%TO.N,Net-(ADD1-A4)*%
X172360256Y-91595000D02*
X171045000Y-90279744D01*
X176225000Y-91595000D02*
X172360256Y-91595000D01*
X177245000Y-92615000D02*
X176225000Y-91595000D01*
X163290000Y-86995000D02*
X166315000Y-86995000D01*
X171045000Y-90279744D02*
X171045000Y-88710256D01*
X167320000Y-88000000D02*
X166315000Y-86995000D01*
X170334744Y-88000000D02*
X167320000Y-88000000D01*
X166315000Y-86995000D02*
X163690000Y-84370000D01*
X171045000Y-88710256D02*
X170334744Y-88000000D01*
%TO.N,Net-(ADD1-A2)*%
X171321666Y-85495000D02*
X170196666Y-84370000D01*
X177245000Y-87535000D02*
X175205000Y-85495000D01*
X175205000Y-85495000D02*
X171321666Y-85495000D01*
%TO.N,Net-(ADD1-S1)*%
X132915000Y-102945000D02*
X141207498Y-102945000D01*
X141875000Y-103612502D02*
X141875000Y-107875000D01*
X141875000Y-107875000D02*
X145865000Y-111865000D01*
X130585000Y-100615000D02*
X132915000Y-102945000D01*
X141207498Y-102945000D02*
X141875000Y-103612502D01*
%TO.N,Net-(ADD1-A1)*%
X177245000Y-84995000D02*
X174075000Y-84995000D01*
X174075000Y-84995000D02*
X173450000Y-84370000D01*
%TO.N,Net-(ADD1-A3)*%
X177245000Y-89495000D02*
X173995000Y-86245000D01*
X152250000Y-104662498D02*
X152250000Y-101980000D01*
X143325000Y-104245000D02*
X144625000Y-105545000D01*
X152250000Y-101980000D02*
X158865000Y-95365000D01*
X144625000Y-105545000D02*
X151367498Y-105545000D01*
X173995000Y-86245000D02*
X168818333Y-86245000D01*
X151367498Y-105545000D02*
X152250000Y-104662498D01*
X168818333Y-86245000D02*
X166943333Y-84370000D01*
X177245000Y-90075000D02*
X177245000Y-89495000D01*
%TO.N,Net-(ADD1-S4)*%
X133125000Y-92995000D02*
X134645000Y-94515000D01*
X135450000Y-102250000D02*
X141250000Y-102250000D01*
X134645000Y-94515000D02*
X134645000Y-101445000D01*
X142305000Y-104947498D02*
X143357502Y-106000000D01*
X142305000Y-103305000D02*
X142305000Y-104947498D01*
X141250000Y-102250000D02*
X142305000Y-103305000D01*
X151730000Y-106000000D02*
X153485000Y-104245000D01*
X143357502Y-106000000D02*
X151730000Y-106000000D01*
X134645000Y-101445000D02*
X135450000Y-102250000D01*
%TO.N,Net-(B_ADDR1-Pin_4)*%
X139045000Y-80425000D02*
X121999314Y-80425000D01*
X121999314Y-80425000D02*
X120445000Y-81979315D01*
X120445000Y-81979315D02*
X120445000Y-95205000D01*
X120445000Y-95205000D02*
X121995000Y-96755000D01*
X140745000Y-82125000D02*
X139045000Y-80425000D01*
%TO.N,Net-(B_ADDR1-Pin_2)*%
X123145000Y-93429314D02*
X125279314Y-91295000D01*
X123145000Y-97231346D02*
X123145000Y-93429314D01*
X122471346Y-97905000D02*
X123145000Y-97231346D01*
X125279314Y-91295000D02*
X129035000Y-91295000D01*
X120845000Y-98578654D02*
X121518654Y-97905000D01*
X121995000Y-101835000D02*
X120845000Y-100685000D01*
X121518654Y-97905000D02*
X122471346Y-97905000D01*
X129035000Y-91295000D02*
X130585000Y-89745000D01*
X120845000Y-100685000D02*
X120845000Y-98578654D01*
%TO.N,Net-(B_ADDR1-Pin_3)*%
X123745000Y-93395000D02*
X125445000Y-91695000D01*
X121995000Y-99295000D02*
X123745000Y-97545000D01*
X129200686Y-91695000D02*
X129850686Y-91045000D01*
X125445000Y-91695000D02*
X129200686Y-91695000D01*
X123745000Y-97545000D02*
X123745000Y-93395000D01*
X129850686Y-91045000D02*
X136905000Y-91045000D01*
X136905000Y-91045000D02*
X138205000Y-89745000D01*
%TO.N,Net-(B_ADDR1-Pin_5)*%
X122165000Y-80825000D02*
X131825000Y-80825000D01*
X121995000Y-94215000D02*
X120845000Y-93065000D01*
X120845000Y-93065000D02*
X120845000Y-82145000D01*
X120845000Y-82145000D02*
X122165000Y-80825000D01*
X131825000Y-80825000D02*
X133125000Y-82125000D01*
%TO.N,Net-(100\u03A91-Pad2)*%
X173450000Y-82495000D02*
X173450000Y-79995000D01*
%TO.N,Net-(100\u03A92-Pad2)*%
X170196666Y-82495000D02*
X170196666Y-79995000D01*
%TO.N,Net-(100\u03A93-Pad2)*%
X166943333Y-82495000D02*
X166943333Y-79995000D01*
%TO.N,Net-(100\u03A94-Pad2)*%
X163690000Y-82495000D02*
X163690000Y-79995000D01*
%TO.N,Net-(MUX1-B1)*%
X123845000Y-88445000D02*
X131825000Y-88445000D01*
X131825000Y-88445000D02*
X133125000Y-89745000D01*
X121995000Y-90295000D02*
X123845000Y-88445000D01*
%TO.N,Net-(MUX1-B2)*%
X121995000Y-87755000D02*
X138755000Y-87755000D01*
X138755000Y-87755000D02*
X140745000Y-89745000D01*
%TO.N,Net-(MUX1-B4)*%
X121995000Y-82675000D02*
X123315000Y-83995000D01*
X123315000Y-83995000D02*
X133795000Y-83995000D01*
X133795000Y-83995000D02*
X135665000Y-82125000D01*
%TO.N,Net-(MUX1-B3)*%
X140195000Y-85215000D02*
X143285000Y-82125000D01*
X121995000Y-85215000D02*
X140195000Y-85215000D01*
%TO.N,Net-(MUX2-Y1)*%
X140320686Y-91445000D02*
X139495000Y-92270686D01*
X141333184Y-91445000D02*
X140320686Y-91445000D01*
X142165000Y-89142502D02*
X142165000Y-90613184D01*
X139495000Y-92270686D02*
X139495000Y-96785000D01*
X142165000Y-90613184D02*
X141930685Y-90847498D01*
X139495000Y-96785000D02*
X135665000Y-100615000D01*
X151245000Y-87745000D02*
X143562502Y-87745000D01*
X141930685Y-90847498D02*
X141333184Y-91445000D01*
X143562502Y-87745000D02*
X142165000Y-89142502D01*
%TO.N,Net-(MUX2-Y3)*%
X157845000Y-91305000D02*
X147515000Y-91305000D01*
X147515000Y-91305000D02*
X145825000Y-92995000D01*
X158865000Y-90285000D02*
X157845000Y-91305000D01*
%TO.N,Net-(MUX2-Y4)*%
X141765000Y-88383751D02*
X141765000Y-90447498D01*
X158865000Y-87745000D02*
X157845000Y-86725000D01*
X157845000Y-86725000D02*
X143423751Y-86725000D01*
X141167498Y-91045000D02*
X140155000Y-91045000D01*
X140155000Y-91045000D02*
X138205000Y-92995000D01*
X141765000Y-90447498D02*
X141167498Y-91045000D01*
X143423751Y-86725000D02*
X141765000Y-88383751D01*
%TO.N,Net-(REG1-CLK)*%
X152675000Y-110565000D02*
X158865000Y-104375000D01*
X133125000Y-114365000D02*
X131825000Y-113065000D01*
X150522502Y-110565000D02*
X152675000Y-110565000D01*
X136367498Y-113345000D02*
X148647498Y-113345000D01*
X131825000Y-113065000D02*
X131825000Y-111402502D01*
X131825000Y-111402502D02*
X132422502Y-110805000D01*
X149745000Y-112247498D02*
X149745000Y-111342502D01*
X132422502Y-110805000D02*
X133827498Y-110805000D01*
X149745000Y-111342502D02*
X150522502Y-110565000D01*
X158865000Y-104375000D02*
X158865000Y-97905000D01*
X148647498Y-113345000D02*
X149745000Y-112247498D01*
X133827498Y-110805000D02*
X136367498Y-113345000D01*
%TD*%
M02*
