M48
; DRILL file {KiCad 8.0.4} date 2024-10-19T17:05:03-0400
; FORMAT={-:-/ absolute / inch / decimal}
; #@! TF.CreationDate,2024-10-19T17:05:03-04:00
; #@! TF.GenerationSoftware,Kicad,Pcbnew,8.0.4
; #@! TF.FileFunction,Plated,1,2,PTH
FMAT,2
INCH
; #@! TA.AperFunction,Plated,PTH,ViaDrill
T1C0.0118
; #@! TA.AperFunction,Plated,PTH,ComponentDrill
T2C0.0394
%
G90
G05
T1
X5.4823Y-3.3071
X5.4843Y-3.5847
X5.6594Y-3.0451
X6.4287Y-3.425
X6.4862Y-3.8091
T2
X4.803Y-3.2549
X4.803Y-3.3549
X4.803Y-3.4549
X4.803Y-3.5549
X4.803Y-3.7093
X4.803Y-3.8093
X4.803Y-3.9093
X4.803Y-4.0093
X4.803Y-4.1093
X4.9411Y-4.1026
X4.9411Y-4.2026
X4.9411Y-4.3026
X4.9411Y-4.4026
X4.9411Y-4.5026
X4.9411Y-4.6026
X4.9411Y-4.7026
X4.9709Y-3.0904
X5.0411Y-3.2333
X5.0411Y-3.5333
X5.0411Y-3.6612
X5.0411Y-3.9612
X5.0709Y-3.0904
X5.1411Y-3.2333
X5.1411Y-3.5333
X5.1411Y-3.6612
X5.1411Y-3.9612
X5.2262Y-3.0904
X5.2411Y-3.2333
X5.2411Y-3.5333
X5.2411Y-3.6612
X5.2411Y-3.9612
X5.2411Y-4.1026
X5.2411Y-4.2026
X5.2411Y-4.3026
X5.2411Y-4.4026
X5.2411Y-4.5026
X5.2411Y-4.6026
X5.2411Y-4.7026
X5.3262Y-3.0904
X5.3411Y-3.2333
X5.3411Y-3.5333
X5.3411Y-3.6612
X5.3411Y-3.9612
X5.4411Y-3.2333
X5.4411Y-3.5333
X5.4411Y-3.6612
X5.4411Y-3.9612
X5.4427Y-4.1041
X5.4427Y-4.4041
X5.5411Y-3.2333
X5.5411Y-3.5333
X5.5411Y-3.6612
X5.5411Y-3.9612
X5.5427Y-4.1041
X5.5427Y-4.4041
X5.6411Y-3.2333
X5.6411Y-3.5333
X5.6411Y-3.6612
X5.6411Y-3.9612
X5.6427Y-4.1041
X5.6427Y-4.4041
X5.7411Y-3.2333
X5.7411Y-3.5333
X5.7411Y-3.6612
X5.7411Y-3.9612
X5.7427Y-4.1041
X5.7427Y-4.4041
X5.8427Y-4.1041
X5.8427Y-4.4041
X5.9427Y-4.1041
X5.9427Y-4.4041
X5.9545Y-3.1545
X5.9545Y-3.2545
X5.9545Y-3.3545
X5.9545Y-3.4545
X5.9545Y-3.5545
X5.9545Y-3.6545
X5.9545Y-3.7545
X5.9545Y-3.8545
X6.0427Y-4.1041
X6.0427Y-4.4041
X6.1427Y-4.1041
X6.1427Y-4.4041
X6.2545Y-3.1545
X6.2545Y-3.2545
X6.2545Y-3.3545
X6.2545Y-3.4545
X6.2545Y-3.5545
X6.2545Y-3.6545
X6.2545Y-3.7545
X6.2545Y-3.8545
X6.9781Y-3.2463
X6.9781Y-3.3463
X6.9781Y-3.4463
X6.9781Y-3.5463
X6.9781Y-3.6463
X6.9781Y-3.886
X6.9781Y-3.986
M30
