%TF.GenerationSoftware,KiCad,Pcbnew,8.0.4*%
%TF.CreationDate,2024-10-19T17:04:57-04:00*%
%TF.ProjectId,PC Counter Standalone,50432043-6f75-46e7-9465-72205374616e,rev?*%
%TF.SameCoordinates,Original*%
%TF.FileFunction,Copper,L2,Bot*%
%TF.FilePolarity,Positive*%
%FSLAX46Y46*%
G04 Gerber Fmt 4.6, Leading zero omitted, Abs format (unit mm)*
G04 Created by KiCad (PCBNEW 8.0.4) date 2024-10-19 17:04:57*
%MOMM*%
%LPD*%
G01*
G04 APERTURE LIST*
%TA.AperFunction,ComponentPad*%
%ADD10R,1.440000X2.000000*%
%TD*%
%TA.AperFunction,ComponentPad*%
%ADD11O,1.440000X2.000000*%
%TD*%
%TA.AperFunction,ComponentPad*%
%ADD12R,2.000000X1.440000*%
%TD*%
%TA.AperFunction,ComponentPad*%
%ADD13O,2.000000X1.440000*%
%TD*%
%TA.AperFunction,ComponentPad*%
%ADD14R,1.700000X1.700000*%
%TD*%
%TA.AperFunction,ComponentPad*%
%ADD15O,1.700000X1.700000*%
%TD*%
%TA.AperFunction,ViaPad*%
%ADD16C,0.600000*%
%TD*%
%TA.AperFunction,Conductor*%
%ADD17C,0.200000*%
%TD*%
G04 APERTURE END LIST*
D10*
%TO.P,ADD1,1,S2*%
%TO.N,Net-(ADD1-S2)*%
X138245000Y-111865000D03*
D11*
%TO.P,ADD1,2,B2*%
%TO.N,GND*%
X140785000Y-111865000D03*
%TO.P,ADD1,3,A2*%
%TO.N,Net-(ADD1-A2)*%
X143325000Y-111865000D03*
%TO.P,ADD1,4,S1*%
%TO.N,Net-(ADD1-S1)*%
X145865000Y-111865000D03*
%TO.P,ADD1,5,A1*%
%TO.N,Net-(ADD1-A1)*%
X148405000Y-111865000D03*
%TO.P,ADD1,6,B1*%
%TO.N,GND*%
X150945000Y-111865000D03*
%TO.P,ADD1,7,C0*%
%TO.N,+5V*%
X153485000Y-111865000D03*
%TO.P,ADD1,8,GND*%
%TO.N,GND*%
X156025000Y-111865000D03*
%TO.P,ADD1,9,C4*%
%TO.N,unconnected-(ADD1-C4-Pad9)*%
X156025000Y-104245000D03*
%TO.P,ADD1,10,S4*%
%TO.N,Net-(ADD1-S4)*%
X153485000Y-104245000D03*
%TO.P,ADD1,11,B4*%
%TO.N,GND*%
X150945000Y-104245000D03*
%TO.P,ADD1,12,A4*%
%TO.N,Net-(ADD1-A4)*%
X148405000Y-104245000D03*
%TO.P,ADD1,13,S3*%
%TO.N,Net-(ADD1-S3)*%
X145865000Y-104245000D03*
%TO.P,ADD1,14,A3*%
%TO.N,Net-(ADD1-A3)*%
X143325000Y-104245000D03*
%TO.P,ADD1,15,B3*%
%TO.N,GND*%
X140785000Y-104245000D03*
%TO.P,ADD1,16,VCC*%
%TO.N,+5V*%
X138245000Y-104245000D03*
%TD*%
D12*
%TO.P,ST_INV1,1,A1*%
%TO.N,unconnected-(ST_INV1-A1-Pad1)*%
X125505000Y-104205000D03*
D13*
%TO.P,ST_INV1,2,Y1*%
%TO.N,unconnected-(ST_INV1-Y1-Pad2)*%
X125505000Y-106745000D03*
%TO.P,ST_INV1,3,A2*%
%TO.N,unconnected-(ST_INV1-A2-Pad3)*%
X125505000Y-109285000D03*
%TO.P,ST_INV1,4,Y2*%
%TO.N,unconnected-(ST_INV1-Y2-Pad4)*%
X125505000Y-111825000D03*
%TO.P,ST_INV1,5,A3*%
%TO.N,unconnected-(ST_INV1-A3-Pad5)*%
X125505000Y-114365000D03*
%TO.P,ST_INV1,6,Y3*%
%TO.N,unconnected-(ST_INV1-Y3-Pad6)*%
X125505000Y-116905000D03*
%TO.P,ST_INV1,7,GND*%
%TO.N,GND*%
X125505000Y-119445000D03*
%TO.P,ST_INV1,8,Y4*%
%TO.N,unconnected-(ST_INV1-Y4-Pad8)*%
X133125000Y-119445000D03*
%TO.P,ST_INV1,9,A4*%
%TO.N,unconnected-(ST_INV1-A4-Pad9)*%
X133125000Y-116905000D03*
%TO.P,ST_INV1,10,Y5*%
%TO.N,Net-(REG1-CLK)*%
X133125000Y-114365000D03*
%TO.P,ST_INV1,11,A5*%
%TO.N,Net-(EXT_CLK1-Pin_2)*%
X133125000Y-111825000D03*
%TO.P,ST_INV1,12,Y6*%
%TO.N,unconnected-(ST_INV1-Y6-Pad12)*%
X133125000Y-109285000D03*
%TO.P,ST_INV1,13,A6*%
%TO.N,unconnected-(ST_INV1-A6-Pad13)*%
X133125000Y-106745000D03*
%TO.P,ST_INV1,14,VCC*%
%TO.N,+5V*%
X133125000Y-104205000D03*
%TD*%
D10*
%TO.P,MUX2,1,SEL*%
%TO.N,Net-(LOGIC1-Pin_2)*%
X128045000Y-100615000D03*
D11*
%TO.P,MUX2,2,A1*%
%TO.N,Net-(ADD1-S1)*%
X130585000Y-100615000D03*
%TO.P,MUX2,3,B1*%
%TO.N,Net-(MUX1-Y1)*%
X133125000Y-100615000D03*
%TO.P,MUX2,4,Y1*%
%TO.N,Net-(MUX2-Y1)*%
X135665000Y-100615000D03*
%TO.P,MUX2,5,A2*%
%TO.N,Net-(ADD1-S2)*%
X138205000Y-100615000D03*
%TO.P,MUX2,6,B2*%
%TO.N,Net-(MUX1-Y2)*%
X140745000Y-100615000D03*
%TO.P,MUX2,7,Y2*%
%TO.N,Net-(MUX2-Y2)*%
X143285000Y-100615000D03*
%TO.P,MUX2,8,GND*%
%TO.N,GND*%
X145825000Y-100615000D03*
%TO.P,MUX2,9,Y3*%
%TO.N,Net-(MUX2-Y3)*%
X145825000Y-92995000D03*
%TO.P,MUX2,10,B3*%
%TO.N,Net-(MUX1-Y3)*%
X143285000Y-92995000D03*
%TO.P,MUX2,11,A3*%
%TO.N,Net-(ADD1-S3)*%
X140745000Y-92995000D03*
%TO.P,MUX2,12,Y4*%
%TO.N,Net-(MUX2-Y4)*%
X138205000Y-92995000D03*
%TO.P,MUX2,13,B4*%
%TO.N,Net-(MUX1-Y4)*%
X135665000Y-92995000D03*
%TO.P,MUX2,14,A4*%
%TO.N,Net-(ADD1-S4)*%
X133125000Y-92995000D03*
%TO.P,MUX2,15,EN*%
%TO.N,GND*%
X130585000Y-92995000D03*
%TO.P,MUX2,16,VCC*%
%TO.N,+5V*%
X128045000Y-92995000D03*
%TD*%
D14*
%TO.P,B_ADDR1,1,Pin_1*%
%TO.N,GND*%
X121995000Y-104375000D03*
D15*
%TO.P,B_ADDR1,2,Pin_2*%
%TO.N,Net-(B_ADDR1-Pin_2)*%
X121995000Y-101835000D03*
%TO.P,B_ADDR1,3,Pin_3*%
%TO.N,Net-(B_ADDR1-Pin_3)*%
X121995000Y-99295000D03*
%TO.P,B_ADDR1,4,Pin_4*%
%TO.N,Net-(B_ADDR1-Pin_4)*%
X121995000Y-96755000D03*
%TO.P,B_ADDR1,5,Pin_5*%
%TO.N,Net-(B_ADDR1-Pin_5)*%
X121995000Y-94215000D03*
%TD*%
D10*
%TO.P,MUX1,1,SEL*%
%TO.N,Net-(LOGIC1-Pin_1)*%
X128045000Y-89745000D03*
D11*
%TO.P,MUX1,2,A1*%
%TO.N,Net-(B_ADDR1-Pin_2)*%
X130585000Y-89745000D03*
%TO.P,MUX1,3,B1*%
%TO.N,Net-(MUX1-B1)*%
X133125000Y-89745000D03*
%TO.P,MUX1,4,Y1*%
%TO.N,Net-(MUX1-Y1)*%
X135665000Y-89745000D03*
%TO.P,MUX1,5,A2*%
%TO.N,Net-(B_ADDR1-Pin_3)*%
X138205000Y-89745000D03*
%TO.P,MUX1,6,B2*%
%TO.N,Net-(MUX1-B2)*%
X140745000Y-89745000D03*
%TO.P,MUX1,7,Y2*%
%TO.N,Net-(MUX1-Y2)*%
X143285000Y-89745000D03*
%TO.P,MUX1,8,GND*%
%TO.N,GND*%
X145825000Y-89745000D03*
%TO.P,MUX1,9,Y3*%
%TO.N,Net-(MUX1-Y3)*%
X145825000Y-82125000D03*
%TO.P,MUX1,10,B3*%
%TO.N,Net-(MUX1-B3)*%
X143285000Y-82125000D03*
%TO.P,MUX1,11,A3*%
%TO.N,Net-(B_ADDR1-Pin_4)*%
X140745000Y-82125000D03*
%TO.P,MUX1,12,Y4*%
%TO.N,Net-(MUX1-Y4)*%
X138205000Y-82125000D03*
%TO.P,MUX1,13,B4*%
%TO.N,Net-(MUX1-B4)*%
X135665000Y-82125000D03*
%TO.P,MUX1,14,A4*%
%TO.N,Net-(B_ADDR1-Pin_5)*%
X133125000Y-82125000D03*
%TO.P,MUX1,15,EN*%
%TO.N,GND*%
X130585000Y-82125000D03*
%TO.P,MUX1,16,VCC*%
%TO.N,+5V*%
X128045000Y-82125000D03*
%TD*%
D14*
%TO.P,RET_ADDR1,1,Pin_1*%
%TO.N,Net-(MUX1-B1)*%
X121995000Y-90295000D03*
D15*
%TO.P,RET_ADDR1,2,Pin_2*%
%TO.N,Net-(MUX1-B2)*%
X121995000Y-87755000D03*
%TO.P,RET_ADDR1,3,Pin_3*%
%TO.N,Net-(MUX1-B3)*%
X121995000Y-85215000D03*
%TO.P,RET_ADDR1,4,Pin_4*%
%TO.N,Net-(MUX1-B4)*%
X121995000Y-82675000D03*
%TD*%
D14*
%TO.P,INSTR_ADDR1,1,Pin_1*%
%TO.N,GND*%
X177245000Y-82455000D03*
D15*
%TO.P,INSTR_ADDR1,2,Pin_2*%
%TO.N,Net-(ADD1-A1)*%
X177245000Y-84995000D03*
%TO.P,INSTR_ADDR1,3,Pin_3*%
%TO.N,Net-(ADD1-A2)*%
X177245000Y-87535000D03*
%TO.P,INSTR_ADDR1,4,Pin_4*%
%TO.N,Net-(ADD1-A3)*%
X177245000Y-90075000D03*
%TO.P,INSTR_ADDR1,5,Pin_5*%
%TO.N,Net-(ADD1-A4)*%
X177245000Y-92615000D03*
%TD*%
D14*
%TO.P,LOGIC1,1,Pin_1*%
%TO.N,Net-(LOGIC1-Pin_1)*%
X132745000Y-78495000D03*
D15*
%TO.P,LOGIC1,2,Pin_2*%
%TO.N,Net-(LOGIC1-Pin_2)*%
X135285000Y-78495000D03*
%TD*%
D14*
%TO.P,EXT_CLK1,1,Pin_1*%
%TO.N,GND*%
X177245000Y-98705000D03*
D15*
%TO.P,EXT_CLK1,2,Pin_2*%
%TO.N,Net-(EXT_CLK1-Pin_2)*%
X177245000Y-101245000D03*
%TD*%
D12*
%TO.P,REG1,1,CLR*%
%TO.N,Net-(REG1-CLR)*%
X151245000Y-80125000D03*
D13*
%TO.P,REG1,2,Q1*%
%TO.N,Net-(ADD1-A1)*%
X151245000Y-82665000D03*
%TO.P,REG1,3*%
%TO.N,unconnected-(REG1-Pad3)*%
X151245000Y-85205000D03*
%TO.P,REG1,4,D1*%
%TO.N,Net-(MUX2-Y1)*%
X151245000Y-87745000D03*
%TO.P,REG1,5,D2*%
%TO.N,Net-(MUX2-Y2)*%
X151245000Y-90285000D03*
%TO.P,REG1,6*%
%TO.N,unconnected-(REG1-Pad6)*%
X151245000Y-92825000D03*
%TO.P,REG1,7,Q2*%
%TO.N,Net-(ADD1-A2)*%
X151245000Y-95365000D03*
%TO.P,REG1,8,GND*%
%TO.N,GND*%
X151245000Y-97905000D03*
%TO.P,REG1,9,CLK*%
%TO.N,Net-(REG1-CLK)*%
X158865000Y-97905000D03*
%TO.P,REG1,10,Q3*%
%TO.N,Net-(ADD1-A3)*%
X158865000Y-95365000D03*
%TO.P,REG1,11*%
%TO.N,unconnected-(REG1-Pad11)*%
X158865000Y-92825000D03*
%TO.P,REG1,12,D3*%
%TO.N,Net-(MUX2-Y3)*%
X158865000Y-90285000D03*
%TO.P,REG1,13,D4*%
%TO.N,Net-(MUX2-Y4)*%
X158865000Y-87745000D03*
%TO.P,REG1,14*%
%TO.N,unconnected-(REG1-Pad14)*%
X158865000Y-85205000D03*
%TO.P,REG1,15,Q4*%
%TO.N,Net-(ADD1-A4)*%
X158865000Y-82665000D03*
%TO.P,REG1,16,VCC*%
%TO.N,+5V*%
X158865000Y-80125000D03*
%TD*%
D14*
%TO.P,PWR1,1,Pin_1*%
%TO.N,GND*%
X126260000Y-78495000D03*
D15*
%TO.P,PWR1,2,Pin_2*%
%TO.N,+5V*%
X128800000Y-78495000D03*
%TD*%
D16*
%TO.N,GND*%
X139300735Y-91050735D03*
X143750000Y-77345000D03*
X164750000Y-96750000D03*
%TO.N,+5V*%
X139250000Y-84000000D03*
%TO.N,Net-(ADD1-A4)*%
X163290000Y-86995000D03*
%TD*%
D17*
%TO.N,GND*%
X127410000Y-77345000D02*
X129345000Y-77345000D01*
X145007498Y-100615000D02*
X145825000Y-100615000D01*
X129565000Y-91975000D02*
X129565000Y-83145000D01*
X120845000Y-103225000D02*
X120845000Y-82198654D01*
X178795000Y-97155000D02*
X178795000Y-84005000D01*
X139500000Y-89250000D02*
X140305000Y-88445000D01*
X149645000Y-110565000D02*
X150945000Y-111865000D01*
X150945000Y-104245000D02*
X150945000Y-98205000D01*
X121995000Y-104375000D02*
X120845000Y-103225000D01*
X164750000Y-96750000D02*
X152400000Y-96750000D01*
X141377498Y-104245000D02*
X145007498Y-100615000D01*
X144500000Y-78095000D02*
X143750000Y-77345000D01*
X145825000Y-89745000D02*
X144500000Y-88420000D01*
X144500000Y-88420000D02*
X144500000Y-78095000D01*
X146335000Y-113165000D02*
X147385000Y-112115000D01*
X139300735Y-91050735D02*
X139500000Y-90851470D01*
X140785000Y-104245000D02*
X141377498Y-104245000D01*
X140305000Y-88445000D02*
X144525000Y-88445000D01*
X147385000Y-111162502D02*
X147982502Y-110565000D01*
X126260000Y-78495000D02*
X127410000Y-77345000D01*
X130585000Y-92995000D02*
X129565000Y-91975000D01*
X147385000Y-112115000D02*
X147385000Y-111162502D01*
X120845000Y-82198654D02*
X124548654Y-78495000D01*
X152400000Y-96750000D02*
X151245000Y-97905000D01*
X144525000Y-88445000D02*
X145825000Y-89745000D01*
X147982502Y-110565000D02*
X149645000Y-110565000D01*
X130585000Y-78585000D02*
X130585000Y-82125000D01*
X177245000Y-98705000D02*
X178795000Y-97155000D01*
X121995000Y-115935000D02*
X121995000Y-104375000D01*
X139500000Y-90851470D02*
X139500000Y-89250000D01*
X142085000Y-113165000D02*
X146335000Y-113165000D01*
X178795000Y-84005000D02*
X177245000Y-82455000D01*
X150945000Y-98205000D02*
X151245000Y-97905000D01*
X150945000Y-111865000D02*
X150945000Y-104245000D01*
X124548654Y-78495000D02*
X126260000Y-78495000D01*
X125505000Y-119445000D02*
X121995000Y-115935000D01*
X140785000Y-111865000D02*
X142085000Y-113165000D01*
X129565000Y-83145000D02*
X130585000Y-82125000D01*
X129345000Y-77345000D02*
X130585000Y-78585000D01*
%TO.N,+5V*%
X127025000Y-101915000D02*
X127025000Y-94015000D01*
X140942502Y-113745000D02*
X151605000Y-113745000D01*
X139265000Y-103225000D02*
X139265000Y-95777498D01*
X139265000Y-112067498D02*
X140942502Y-113745000D01*
X127025000Y-83145000D02*
X127025000Y-91975000D01*
X137185000Y-93697498D02*
X137185000Y-86065000D01*
X129315000Y-104205000D02*
X127025000Y-101915000D01*
X138245000Y-104245000D02*
X139265000Y-103225000D01*
X128800000Y-81370000D02*
X128045000Y-82125000D01*
X127025000Y-94015000D02*
X128045000Y-92995000D01*
X138245000Y-104245000D02*
X139265000Y-105265000D01*
X127025000Y-91975000D02*
X128045000Y-92995000D01*
X139265000Y-95777498D02*
X137185000Y-93697498D01*
X139265000Y-105265000D02*
X139265000Y-112067498D01*
X128800000Y-78495000D02*
X128800000Y-81370000D01*
X137185000Y-86065000D02*
X139250000Y-84000000D01*
X128045000Y-82125000D02*
X127025000Y-83145000D01*
X133125000Y-104205000D02*
X129315000Y-104205000D01*
X151605000Y-113745000D02*
X153485000Y-111865000D01*
%TO.N,Net-(ADD1-A4)*%
X163290000Y-86995000D02*
X163195000Y-86995000D01*
X148405000Y-104245000D02*
X148405000Y-96482502D01*
X163195000Y-86995000D02*
X158865000Y-82665000D01*
X163290000Y-90200000D02*
X163290000Y-86995000D01*
X150942502Y-93945000D02*
X159545000Y-93945000D01*
X159545000Y-93945000D02*
X163290000Y-90200000D01*
X148405000Y-96482502D02*
X150942502Y-93945000D01*
%TO.N,Net-(ADD1-A2)*%
X177245000Y-87535000D02*
X176095000Y-88685000D01*
X172409314Y-94345000D02*
X152265000Y-94345000D01*
X152265000Y-94345000D02*
X151245000Y-95365000D01*
X176095000Y-90595000D02*
X176127157Y-90627157D01*
X149925000Y-105265000D02*
X149925000Y-96685000D01*
X149925000Y-96685000D02*
X151245000Y-95365000D01*
X176095000Y-88685000D02*
X176095000Y-90595000D01*
X176127157Y-90627157D02*
X172409314Y-94345000D01*
X143325000Y-111865000D02*
X149925000Y-105265000D01*
%TO.N,Net-(ADD1-A1)*%
X166882502Y-96745000D02*
X176245000Y-96745000D01*
X177245000Y-84995000D02*
X173745000Y-81495000D01*
X178395000Y-94595000D02*
X178395000Y-86145000D01*
X152465000Y-111162502D02*
X166882502Y-96745000D01*
X176245000Y-96745000D02*
X178395000Y-94595000D01*
X178395000Y-86145000D02*
X177245000Y-84995000D01*
X148405000Y-111865000D02*
X149705000Y-113165000D01*
X152415000Y-81495000D02*
X151245000Y-82665000D01*
X149705000Y-113165000D02*
X151545000Y-113165000D01*
X152465000Y-112245000D02*
X152465000Y-111162502D01*
X151545000Y-113165000D02*
X152465000Y-112245000D01*
X173745000Y-81495000D02*
X152415000Y-81495000D01*
%TO.N,Net-(ADD1-S3)*%
X140745000Y-92995000D02*
X139725000Y-94015000D01*
X139725000Y-104947498D02*
X140322502Y-105545000D01*
X140322502Y-105545000D02*
X144565000Y-105545000D01*
X139725000Y-94015000D02*
X139725000Y-104947498D01*
X144565000Y-105545000D02*
X145865000Y-104245000D01*
%TO.N,Net-(ADD1-A3)*%
X171955000Y-95365000D02*
X177245000Y-90075000D01*
X158865000Y-95365000D02*
X171955000Y-95365000D01*
%TO.N,Net-(ADD1-S2)*%
X137225000Y-110845000D02*
X137225000Y-101595000D01*
X138245000Y-111865000D02*
X137225000Y-110845000D01*
X137225000Y-101595000D02*
X138205000Y-100615000D01*
%TO.N,Net-(LOGIC1-Pin_1)*%
X131007498Y-94295000D02*
X130115000Y-94295000D01*
X129165000Y-93345000D02*
X129165000Y-90865000D01*
X131605000Y-93697498D02*
X131007498Y-94295000D01*
X132745000Y-78495000D02*
X131605000Y-79635000D01*
X131605000Y-79635000D02*
X131605000Y-93697498D01*
X129165000Y-90865000D02*
X128045000Y-89745000D01*
X130115000Y-94295000D02*
X129165000Y-93345000D01*
%TO.N,Net-(LOGIC1-Pin_2)*%
X132005000Y-81495000D02*
X132005000Y-96655000D01*
X135285000Y-78495000D02*
X135005000Y-78495000D01*
X132005000Y-96655000D02*
X128045000Y-100615000D01*
X135005000Y-78495000D02*
X132005000Y-81495000D01*
%TO.N,Net-(MUX1-Y2)*%
X141785000Y-91245000D02*
X143285000Y-89745000D01*
X141765000Y-99595000D02*
X141765000Y-91265000D01*
X141745000Y-91245000D02*
X141785000Y-91245000D01*
X141765000Y-91265000D02*
X141745000Y-91245000D01*
X140745000Y-100615000D02*
X141765000Y-99595000D01*
%TO.N,Net-(MUX1-Y1)*%
X133125000Y-100615000D02*
X134645000Y-99095000D01*
X134645000Y-99095000D02*
X134645000Y-90765000D01*
X134645000Y-90765000D02*
X135665000Y-89745000D01*
%TO.N,Net-(MUX1-Y4)*%
X136685000Y-91975000D02*
X136685000Y-83645000D01*
X135665000Y-92995000D02*
X136685000Y-91975000D01*
X136685000Y-83645000D02*
X138205000Y-82125000D01*
%TO.N,Net-(MUX1-Y3)*%
X144585000Y-91695000D02*
X145597498Y-91695000D01*
X147000000Y-90292498D02*
X147000000Y-83300000D01*
X143285000Y-92995000D02*
X144585000Y-91695000D01*
X147000000Y-83300000D02*
X145825000Y-82125000D01*
X145597498Y-91695000D02*
X147000000Y-90292498D01*
%TO.N,Net-(MUX2-Y2)*%
X143285000Y-100615000D02*
X143285000Y-98245000D01*
X143285000Y-98245000D02*
X151245000Y-90285000D01*
%TD*%
M02*
