%TF.GenerationSoftware,KiCad,Pcbnew,8.0.4*%
%TF.CreationDate,2024-10-19T17:04:57-04:00*%
%TF.ProjectId,PC Counter Standalone,50432043-6f75-46e7-9465-72205374616e,rev?*%
%TF.SameCoordinates,Original*%
%TF.FileFunction,Soldermask,Top*%
%TF.FilePolarity,Negative*%
%FSLAX46Y46*%
G04 Gerber Fmt 4.6, Leading zero omitted, Abs format (unit mm)*
G04 Created by KiCad (PCBNEW 8.0.4) date 2024-10-19 17:04:57*
%MOMM*%
%LPD*%
G01*
G04 APERTURE LIST*
G04 Aperture macros list*
%AMRoundRect*
0 Rectangle with rounded corners*
0 $1 Rounding radius*
0 $2 $3 $4 $5 $6 $7 $8 $9 X,Y pos of 4 corners*
0 Add a 4 corners polygon primitive as box body*
4,1,4,$2,$3,$4,$5,$6,$7,$8,$9,$2,$3,0*
0 Add four circle primitives for the rounded corners*
1,1,$1+$1,$2,$3*
1,1,$1+$1,$4,$5*
1,1,$1+$1,$6,$7*
1,1,$1+$1,$8,$9*
0 Add four rect primitives between the rounded corners*
20,1,$1+$1,$2,$3,$4,$5,0*
20,1,$1+$1,$4,$5,$6,$7,0*
20,1,$1+$1,$6,$7,$8,$9,0*
20,1,$1+$1,$8,$9,$2,$3,0*%
G04 Aperture macros list end*
%ADD10R,1.440000X2.000000*%
%ADD11O,1.440000X2.000000*%
%ADD12R,2.000000X1.440000*%
%ADD13O,2.000000X1.440000*%
%ADD14RoundRect,0.250000X-0.262500X-0.450000X0.262500X-0.450000X0.262500X0.450000X-0.262500X0.450000X0*%
%ADD15R,1.250000X1.000000*%
%ADD16RoundRect,0.250000X0.450000X-0.262500X0.450000X0.262500X-0.450000X0.262500X-0.450000X-0.262500X0*%
%ADD17R,1.700000X1.700000*%
%ADD18O,1.700000X1.700000*%
%ADD19RoundRect,0.243750X0.456250X-0.243750X0.456250X0.243750X-0.456250X0.243750X-0.456250X-0.243750X0*%
%ADD20RoundRect,0.250000X-1.050000X-0.550000X1.050000X-0.550000X1.050000X0.550000X-1.050000X0.550000X0*%
%ADD21RoundRect,0.250000X-0.450000X0.262500X-0.450000X-0.262500X0.450000X-0.262500X0.450000X0.262500X0*%
G04 APERTURE END LIST*
D10*
%TO.C,ADD1*%
X138245000Y-111865000D03*
D11*
X140785000Y-111865000D03*
X143325000Y-111865000D03*
X145865000Y-111865000D03*
X148405000Y-111865000D03*
X150945000Y-111865000D03*
X153485000Y-111865000D03*
X156025000Y-111865000D03*
X156025000Y-104245000D03*
X153485000Y-104245000D03*
X150945000Y-104245000D03*
X148405000Y-104245000D03*
X145865000Y-104245000D03*
X143325000Y-104245000D03*
X140785000Y-104245000D03*
X138245000Y-104245000D03*
%TD*%
D12*
%TO.C,ST_INV1*%
X125505000Y-104205000D03*
D13*
X125505000Y-106745000D03*
X125505000Y-109285000D03*
X125505000Y-111825000D03*
X125505000Y-114365000D03*
X125505000Y-116905000D03*
X125505000Y-119445000D03*
X133125000Y-119445000D03*
X133125000Y-116905000D03*
X133125000Y-114365000D03*
X133125000Y-111825000D03*
X133125000Y-109285000D03*
X133125000Y-106745000D03*
X133125000Y-104205000D03*
%TD*%
D14*
%TO.C,220\u03A92*%
X160082500Y-101495000D03*
X161907500Y-101495000D03*
%TD*%
D10*
%TO.C,MUX2*%
X128045000Y-100615000D03*
D11*
X130585000Y-100615000D03*
X133125000Y-100615000D03*
X135665000Y-100615000D03*
X138205000Y-100615000D03*
X140745000Y-100615000D03*
X143285000Y-100615000D03*
X145825000Y-100615000D03*
X145825000Y-92995000D03*
X143285000Y-92995000D03*
X140745000Y-92995000D03*
X138205000Y-92995000D03*
X135665000Y-92995000D03*
X133125000Y-92995000D03*
X130585000Y-92995000D03*
X128045000Y-92995000D03*
%TD*%
D15*
%TO.C,RESET1*%
X164620000Y-101495000D03*
X172370000Y-101495000D03*
%TD*%
%TO.C,CLK1*%
X164620000Y-95245000D03*
X172370000Y-95245000D03*
%TD*%
D16*
%TO.C,470\u03A91*%
X166245000Y-90570000D03*
X166245000Y-88745000D03*
%TD*%
D17*
%TO.C,B_ADDR1*%
X121995000Y-104375000D03*
D18*
X121995000Y-101835000D03*
X121995000Y-99295000D03*
X121995000Y-96755000D03*
X121995000Y-94215000D03*
%TD*%
D10*
%TO.C,MUX1*%
X128045000Y-89745000D03*
D11*
X130585000Y-89745000D03*
X133125000Y-89745000D03*
X135665000Y-89745000D03*
X138205000Y-89745000D03*
X140745000Y-89745000D03*
X143285000Y-89745000D03*
X145825000Y-89745000D03*
X145825000Y-82125000D03*
X143285000Y-82125000D03*
X140745000Y-82125000D03*
X138205000Y-82125000D03*
X135665000Y-82125000D03*
X133125000Y-82125000D03*
X130585000Y-82125000D03*
X128045000Y-82125000D03*
%TD*%
D19*
%TO.C,LED_YELLOW3*%
X166943333Y-84370000D03*
X166943333Y-82495000D03*
%TD*%
D17*
%TO.C,RET_ADDR1*%
X121995000Y-90295000D03*
D18*
X121995000Y-87755000D03*
X121995000Y-85215000D03*
X121995000Y-82675000D03*
%TD*%
D20*
%TO.C,22\u03BCF1*%
X169445000Y-89495000D03*
X173045000Y-89495000D03*
%TD*%
D17*
%TO.C,INSTR_ADDR1*%
X177245000Y-82455000D03*
D18*
X177245000Y-84995000D03*
X177245000Y-87535000D03*
X177245000Y-90075000D03*
X177245000Y-92615000D03*
%TD*%
D19*
%TO.C,LED_YELLOW1*%
X173450000Y-84370000D03*
X173450000Y-82495000D03*
%TD*%
D17*
%TO.C,LOGIC1*%
X132745000Y-78495000D03*
D18*
X135285000Y-78495000D03*
%TD*%
D19*
%TO.C,LED_YELLOW2*%
X170196666Y-84370000D03*
X170196666Y-82495000D03*
%TD*%
D17*
%TO.C,EXT_CLK1*%
X177245000Y-98705000D03*
D18*
X177245000Y-101245000D03*
%TD*%
D21*
%TO.C,100\u03A93*%
X166943333Y-78170000D03*
X166943333Y-79995000D03*
%TD*%
D19*
%TO.C,LED_YELLOW4*%
X163690000Y-84370000D03*
X163690000Y-82495000D03*
%TD*%
D12*
%TO.C,REG1*%
X151245000Y-80125000D03*
D13*
X151245000Y-82665000D03*
X151245000Y-85205000D03*
X151245000Y-87745000D03*
X151245000Y-90285000D03*
X151245000Y-92825000D03*
X151245000Y-95365000D03*
X151245000Y-97905000D03*
X158865000Y-97905000D03*
X158865000Y-95365000D03*
X158865000Y-92825000D03*
X158865000Y-90285000D03*
X158865000Y-87745000D03*
X158865000Y-85205000D03*
X158865000Y-82665000D03*
X158865000Y-80125000D03*
%TD*%
D21*
%TO.C,100\u03A91*%
X173450000Y-78170000D03*
X173450000Y-79995000D03*
%TD*%
%TO.C,100\u03A94*%
X163690000Y-78170000D03*
X163690000Y-79995000D03*
%TD*%
D17*
%TO.C,PWR1*%
X126260000Y-78495000D03*
D18*
X128800000Y-78495000D03*
%TD*%
D21*
%TO.C,100\u03A92*%
X170196666Y-78170000D03*
X170196666Y-79995000D03*
%TD*%
%TO.C,220\u03A91*%
X163745000Y-88745000D03*
X163745000Y-90570000D03*
%TD*%
M02*
