%TF.GenerationSoftware,KiCad,Pcbnew,8.0.4*%
%TF.CreationDate,2024-10-19T17:04:57-04:00*%
%TF.ProjectId,PC Counter Standalone,50432043-6f75-46e7-9465-72205374616e,rev?*%
%TF.SameCoordinates,Original*%
%TF.FileFunction,Legend,Bot*%
%TF.FilePolarity,Positive*%
%FSLAX46Y46*%
G04 Gerber Fmt 4.6, Leading zero omitted, Abs format (unit mm)*
G04 Created by KiCad (PCBNEW 8.0.4) date 2024-10-19 17:04:57*
%MOMM*%
%LPD*%
G01*
G04 APERTURE LIST*
%ADD10C,0.300000*%
%ADD11C,0.100000*%
G04 APERTURE END LIST*
D10*
X173944171Y-117940489D02*
X175444171Y-117940489D01*
X175444171Y-117940489D02*
X175444171Y-117369060D01*
X175444171Y-117369060D02*
X175372742Y-117226203D01*
X175372742Y-117226203D02*
X175301314Y-117154774D01*
X175301314Y-117154774D02*
X175158457Y-117083346D01*
X175158457Y-117083346D02*
X174944171Y-117083346D01*
X174944171Y-117083346D02*
X174801314Y-117154774D01*
X174801314Y-117154774D02*
X174729885Y-117226203D01*
X174729885Y-117226203D02*
X174658457Y-117369060D01*
X174658457Y-117369060D02*
X174658457Y-117940489D01*
X173944171Y-115583346D02*
X174658457Y-116083346D01*
X173944171Y-116440489D02*
X175444171Y-116440489D01*
X175444171Y-116440489D02*
X175444171Y-115869060D01*
X175444171Y-115869060D02*
X175372742Y-115726203D01*
X175372742Y-115726203D02*
X175301314Y-115654774D01*
X175301314Y-115654774D02*
X175158457Y-115583346D01*
X175158457Y-115583346D02*
X174944171Y-115583346D01*
X174944171Y-115583346D02*
X174801314Y-115654774D01*
X174801314Y-115654774D02*
X174729885Y-115726203D01*
X174729885Y-115726203D02*
X174658457Y-115869060D01*
X174658457Y-115869060D02*
X174658457Y-116440489D01*
X175444171Y-114654774D02*
X175444171Y-114369060D01*
X175444171Y-114369060D02*
X175372742Y-114226203D01*
X175372742Y-114226203D02*
X175229885Y-114083346D01*
X175229885Y-114083346D02*
X174944171Y-114011917D01*
X174944171Y-114011917D02*
X174444171Y-114011917D01*
X174444171Y-114011917D02*
X174158457Y-114083346D01*
X174158457Y-114083346D02*
X174015600Y-114226203D01*
X174015600Y-114226203D02*
X173944171Y-114369060D01*
X173944171Y-114369060D02*
X173944171Y-114654774D01*
X173944171Y-114654774D02*
X174015600Y-114797632D01*
X174015600Y-114797632D02*
X174158457Y-114940489D01*
X174158457Y-114940489D02*
X174444171Y-115011917D01*
X174444171Y-115011917D02*
X174944171Y-115011917D01*
X174944171Y-115011917D02*
X175229885Y-114940489D01*
X175229885Y-114940489D02*
X175372742Y-114797632D01*
X175372742Y-114797632D02*
X175444171Y-114654774D01*
X175372742Y-112583345D02*
X175444171Y-112726203D01*
X175444171Y-112726203D02*
X175444171Y-112940488D01*
X175444171Y-112940488D02*
X175372742Y-113154774D01*
X175372742Y-113154774D02*
X175229885Y-113297631D01*
X175229885Y-113297631D02*
X175087028Y-113369060D01*
X175087028Y-113369060D02*
X174801314Y-113440488D01*
X174801314Y-113440488D02*
X174587028Y-113440488D01*
X174587028Y-113440488D02*
X174301314Y-113369060D01*
X174301314Y-113369060D02*
X174158457Y-113297631D01*
X174158457Y-113297631D02*
X174015600Y-113154774D01*
X174015600Y-113154774D02*
X173944171Y-112940488D01*
X173944171Y-112940488D02*
X173944171Y-112797631D01*
X173944171Y-112797631D02*
X174015600Y-112583345D01*
X174015600Y-112583345D02*
X174087028Y-112511917D01*
X174087028Y-112511917D02*
X174587028Y-112511917D01*
X174587028Y-112511917D02*
X174587028Y-112797631D01*
X173944171Y-111011917D02*
X174658457Y-111511917D01*
X173944171Y-111869060D02*
X175444171Y-111869060D01*
X175444171Y-111869060D02*
X175444171Y-111297631D01*
X175444171Y-111297631D02*
X175372742Y-111154774D01*
X175372742Y-111154774D02*
X175301314Y-111083345D01*
X175301314Y-111083345D02*
X175158457Y-111011917D01*
X175158457Y-111011917D02*
X174944171Y-111011917D01*
X174944171Y-111011917D02*
X174801314Y-111083345D01*
X174801314Y-111083345D02*
X174729885Y-111154774D01*
X174729885Y-111154774D02*
X174658457Y-111297631D01*
X174658457Y-111297631D02*
X174658457Y-111869060D01*
X174372742Y-110440488D02*
X174372742Y-109726203D01*
X173944171Y-110583345D02*
X175444171Y-110083345D01*
X175444171Y-110083345D02*
X173944171Y-109583345D01*
X173944171Y-109083346D02*
X175444171Y-109083346D01*
X175444171Y-109083346D02*
X174372742Y-108583346D01*
X174372742Y-108583346D02*
X175444171Y-108083346D01*
X175444171Y-108083346D02*
X173944171Y-108083346D01*
X174087028Y-105369060D02*
X174015600Y-105440488D01*
X174015600Y-105440488D02*
X173944171Y-105654774D01*
X173944171Y-105654774D02*
X173944171Y-105797631D01*
X173944171Y-105797631D02*
X174015600Y-106011917D01*
X174015600Y-106011917D02*
X174158457Y-106154774D01*
X174158457Y-106154774D02*
X174301314Y-106226203D01*
X174301314Y-106226203D02*
X174587028Y-106297631D01*
X174587028Y-106297631D02*
X174801314Y-106297631D01*
X174801314Y-106297631D02*
X175087028Y-106226203D01*
X175087028Y-106226203D02*
X175229885Y-106154774D01*
X175229885Y-106154774D02*
X175372742Y-106011917D01*
X175372742Y-106011917D02*
X175444171Y-105797631D01*
X175444171Y-105797631D02*
X175444171Y-105654774D01*
X175444171Y-105654774D02*
X175372742Y-105440488D01*
X175372742Y-105440488D02*
X175301314Y-105369060D01*
X175444171Y-104440488D02*
X175444171Y-104154774D01*
X175444171Y-104154774D02*
X175372742Y-104011917D01*
X175372742Y-104011917D02*
X175229885Y-103869060D01*
X175229885Y-103869060D02*
X174944171Y-103797631D01*
X174944171Y-103797631D02*
X174444171Y-103797631D01*
X174444171Y-103797631D02*
X174158457Y-103869060D01*
X174158457Y-103869060D02*
X174015600Y-104011917D01*
X174015600Y-104011917D02*
X173944171Y-104154774D01*
X173944171Y-104154774D02*
X173944171Y-104440488D01*
X173944171Y-104440488D02*
X174015600Y-104583346D01*
X174015600Y-104583346D02*
X174158457Y-104726203D01*
X174158457Y-104726203D02*
X174444171Y-104797631D01*
X174444171Y-104797631D02*
X174944171Y-104797631D01*
X174944171Y-104797631D02*
X175229885Y-104726203D01*
X175229885Y-104726203D02*
X175372742Y-104583346D01*
X175372742Y-104583346D02*
X175444171Y-104440488D01*
X175444171Y-103154774D02*
X174229885Y-103154774D01*
X174229885Y-103154774D02*
X174087028Y-103083345D01*
X174087028Y-103083345D02*
X174015600Y-103011917D01*
X174015600Y-103011917D02*
X173944171Y-102869059D01*
X173944171Y-102869059D02*
X173944171Y-102583345D01*
X173944171Y-102583345D02*
X174015600Y-102440488D01*
X174015600Y-102440488D02*
X174087028Y-102369059D01*
X174087028Y-102369059D02*
X174229885Y-102297631D01*
X174229885Y-102297631D02*
X175444171Y-102297631D01*
X173944171Y-101583345D02*
X175444171Y-101583345D01*
X175444171Y-101583345D02*
X173944171Y-100726202D01*
X173944171Y-100726202D02*
X175444171Y-100726202D01*
X175444171Y-100226201D02*
X175444171Y-99369059D01*
X173944171Y-99797630D02*
X175444171Y-99797630D01*
X174729885Y-98869059D02*
X174729885Y-98369059D01*
X173944171Y-98154773D02*
X173944171Y-98869059D01*
X173944171Y-98869059D02*
X175444171Y-98869059D01*
X175444171Y-98869059D02*
X175444171Y-98154773D01*
X173944171Y-96654773D02*
X174658457Y-97154773D01*
X173944171Y-97511916D02*
X175444171Y-97511916D01*
X175444171Y-97511916D02*
X175444171Y-96940487D01*
X175444171Y-96940487D02*
X175372742Y-96797630D01*
X175372742Y-96797630D02*
X175301314Y-96726201D01*
X175301314Y-96726201D02*
X175158457Y-96654773D01*
X175158457Y-96654773D02*
X174944171Y-96654773D01*
X174944171Y-96654773D02*
X174801314Y-96726201D01*
X174801314Y-96726201D02*
X174729885Y-96797630D01*
X174729885Y-96797630D02*
X174658457Y-96940487D01*
X174658457Y-96940487D02*
X174658457Y-97511916D01*
D11*
X172702580Y-118083972D02*
X172702580Y-117512544D01*
X171702580Y-117798258D02*
X172702580Y-117798258D01*
X171702580Y-117179210D02*
X172702580Y-117179210D01*
X171702580Y-116750639D02*
X172226390Y-116750639D01*
X172226390Y-116750639D02*
X172321628Y-116798258D01*
X172321628Y-116798258D02*
X172369247Y-116893496D01*
X172369247Y-116893496D02*
X172369247Y-117036353D01*
X172369247Y-117036353D02*
X172321628Y-117131591D01*
X172321628Y-117131591D02*
X172274009Y-117179210D01*
X171750200Y-115893496D02*
X171702580Y-115988734D01*
X171702580Y-115988734D02*
X171702580Y-116179210D01*
X171702580Y-116179210D02*
X171750200Y-116274448D01*
X171750200Y-116274448D02*
X171845438Y-116322067D01*
X171845438Y-116322067D02*
X172226390Y-116322067D01*
X172226390Y-116322067D02*
X172321628Y-116274448D01*
X172321628Y-116274448D02*
X172369247Y-116179210D01*
X172369247Y-116179210D02*
X172369247Y-115988734D01*
X172369247Y-115988734D02*
X172321628Y-115893496D01*
X172321628Y-115893496D02*
X172226390Y-115845877D01*
X172226390Y-115845877D02*
X172131152Y-115845877D01*
X172131152Y-115845877D02*
X172035914Y-116322067D01*
X171702580Y-114655400D02*
X172702580Y-114655400D01*
X171702580Y-114226829D02*
X172226390Y-114226829D01*
X172226390Y-114226829D02*
X172321628Y-114274448D01*
X172321628Y-114274448D02*
X172369247Y-114369686D01*
X172369247Y-114369686D02*
X172369247Y-114512543D01*
X172369247Y-114512543D02*
X172321628Y-114607781D01*
X172321628Y-114607781D02*
X172274009Y-114655400D01*
X171750200Y-113369686D02*
X171702580Y-113464924D01*
X171702580Y-113464924D02*
X171702580Y-113655400D01*
X171702580Y-113655400D02*
X171750200Y-113750638D01*
X171750200Y-113750638D02*
X171845438Y-113798257D01*
X171845438Y-113798257D02*
X172226390Y-113798257D01*
X172226390Y-113798257D02*
X172321628Y-113750638D01*
X172321628Y-113750638D02*
X172369247Y-113655400D01*
X172369247Y-113655400D02*
X172369247Y-113464924D01*
X172369247Y-113464924D02*
X172321628Y-113369686D01*
X172321628Y-113369686D02*
X172226390Y-113322067D01*
X172226390Y-113322067D02*
X172131152Y-113322067D01*
X172131152Y-113322067D02*
X172035914Y-113798257D01*
X171702580Y-112464924D02*
X172226390Y-112464924D01*
X172226390Y-112464924D02*
X172321628Y-112512543D01*
X172321628Y-112512543D02*
X172369247Y-112607781D01*
X172369247Y-112607781D02*
X172369247Y-112798257D01*
X172369247Y-112798257D02*
X172321628Y-112893495D01*
X171750200Y-112464924D02*
X171702580Y-112560162D01*
X171702580Y-112560162D02*
X171702580Y-112798257D01*
X171702580Y-112798257D02*
X171750200Y-112893495D01*
X171750200Y-112893495D02*
X171845438Y-112941114D01*
X171845438Y-112941114D02*
X171940676Y-112941114D01*
X171940676Y-112941114D02*
X172035914Y-112893495D01*
X172035914Y-112893495D02*
X172083533Y-112798257D01*
X172083533Y-112798257D02*
X172083533Y-112560162D01*
X172083533Y-112560162D02*
X172131152Y-112464924D01*
X171702580Y-111988733D02*
X172369247Y-111988733D01*
X172178771Y-111988733D02*
X172274009Y-111941114D01*
X172274009Y-111941114D02*
X172321628Y-111893495D01*
X172321628Y-111893495D02*
X172369247Y-111798257D01*
X172369247Y-111798257D02*
X172369247Y-111703019D01*
X172369247Y-111512542D02*
X172369247Y-111131590D01*
X172702580Y-111369685D02*
X171845438Y-111369685D01*
X171845438Y-111369685D02*
X171750200Y-111322066D01*
X171750200Y-111322066D02*
X171702580Y-111226828D01*
X171702580Y-111226828D02*
X171702580Y-111131590D01*
X171702580Y-109893494D02*
X171750200Y-109988732D01*
X171750200Y-109988732D02*
X171797819Y-110036351D01*
X171797819Y-110036351D02*
X171893057Y-110083970D01*
X171893057Y-110083970D02*
X172178771Y-110083970D01*
X172178771Y-110083970D02*
X172274009Y-110036351D01*
X172274009Y-110036351D02*
X172321628Y-109988732D01*
X172321628Y-109988732D02*
X172369247Y-109893494D01*
X172369247Y-109893494D02*
X172369247Y-109750637D01*
X172369247Y-109750637D02*
X172321628Y-109655399D01*
X172321628Y-109655399D02*
X172274009Y-109607780D01*
X172274009Y-109607780D02*
X172178771Y-109560161D01*
X172178771Y-109560161D02*
X171893057Y-109560161D01*
X171893057Y-109560161D02*
X171797819Y-109607780D01*
X171797819Y-109607780D02*
X171750200Y-109655399D01*
X171750200Y-109655399D02*
X171702580Y-109750637D01*
X171702580Y-109750637D02*
X171702580Y-109893494D01*
X172369247Y-109274446D02*
X172369247Y-108893494D01*
X171702580Y-109131589D02*
X172559723Y-109131589D01*
X172559723Y-109131589D02*
X172654961Y-109083970D01*
X172654961Y-109083970D02*
X172702580Y-108988732D01*
X172702580Y-108988732D02*
X172702580Y-108893494D01*
X171702580Y-107369684D02*
X172226390Y-107369684D01*
X172226390Y-107369684D02*
X172321628Y-107417303D01*
X172321628Y-107417303D02*
X172369247Y-107512541D01*
X172369247Y-107512541D02*
X172369247Y-107703017D01*
X172369247Y-107703017D02*
X172321628Y-107798255D01*
X171750200Y-107369684D02*
X171702580Y-107464922D01*
X171702580Y-107464922D02*
X171702580Y-107703017D01*
X171702580Y-107703017D02*
X171750200Y-107798255D01*
X171750200Y-107798255D02*
X171845438Y-107845874D01*
X171845438Y-107845874D02*
X171940676Y-107845874D01*
X171940676Y-107845874D02*
X172035914Y-107798255D01*
X172035914Y-107798255D02*
X172083533Y-107703017D01*
X172083533Y-107703017D02*
X172083533Y-107464922D01*
X172083533Y-107464922D02*
X172131152Y-107369684D01*
X172369247Y-106893493D02*
X171702580Y-106893493D01*
X172274009Y-106893493D02*
X172321628Y-106845874D01*
X172321628Y-106845874D02*
X172369247Y-106750636D01*
X172369247Y-106750636D02*
X172369247Y-106607779D01*
X172369247Y-106607779D02*
X172321628Y-106512541D01*
X172321628Y-106512541D02*
X172226390Y-106464922D01*
X172226390Y-106464922D02*
X171702580Y-106464922D01*
X172369247Y-106083969D02*
X171702580Y-105845874D01*
X172369247Y-105607779D02*
X171702580Y-105845874D01*
X171702580Y-105845874D02*
X171464485Y-105941112D01*
X171464485Y-105941112D02*
X171416866Y-105988731D01*
X171416866Y-105988731D02*
X171369247Y-106083969D01*
X171750200Y-104036350D02*
X171702580Y-104131588D01*
X171702580Y-104131588D02*
X171702580Y-104322064D01*
X171702580Y-104322064D02*
X171750200Y-104417302D01*
X171750200Y-104417302D02*
X171797819Y-104464921D01*
X171797819Y-104464921D02*
X171893057Y-104512540D01*
X171893057Y-104512540D02*
X172178771Y-104512540D01*
X172178771Y-104512540D02*
X172274009Y-104464921D01*
X172274009Y-104464921D02*
X172321628Y-104417302D01*
X172321628Y-104417302D02*
X172369247Y-104322064D01*
X172369247Y-104322064D02*
X172369247Y-104131588D01*
X172369247Y-104131588D02*
X172321628Y-104036350D01*
X171702580Y-103464921D02*
X171750200Y-103560159D01*
X171750200Y-103560159D02*
X171797819Y-103607778D01*
X171797819Y-103607778D02*
X171893057Y-103655397D01*
X171893057Y-103655397D02*
X172178771Y-103655397D01*
X172178771Y-103655397D02*
X172274009Y-103607778D01*
X172274009Y-103607778D02*
X172321628Y-103560159D01*
X172321628Y-103560159D02*
X172369247Y-103464921D01*
X172369247Y-103464921D02*
X172369247Y-103322064D01*
X172369247Y-103322064D02*
X172321628Y-103226826D01*
X172321628Y-103226826D02*
X172274009Y-103179207D01*
X172274009Y-103179207D02*
X172178771Y-103131588D01*
X172178771Y-103131588D02*
X171893057Y-103131588D01*
X171893057Y-103131588D02*
X171797819Y-103179207D01*
X171797819Y-103179207D02*
X171750200Y-103226826D01*
X171750200Y-103226826D02*
X171702580Y-103322064D01*
X171702580Y-103322064D02*
X171702580Y-103464921D01*
X171702580Y-102703016D02*
X172369247Y-102703016D01*
X172274009Y-102703016D02*
X172321628Y-102655397D01*
X172321628Y-102655397D02*
X172369247Y-102560159D01*
X172369247Y-102560159D02*
X172369247Y-102417302D01*
X172369247Y-102417302D02*
X172321628Y-102322064D01*
X172321628Y-102322064D02*
X172226390Y-102274445D01*
X172226390Y-102274445D02*
X171702580Y-102274445D01*
X172226390Y-102274445D02*
X172321628Y-102226826D01*
X172321628Y-102226826D02*
X172369247Y-102131588D01*
X172369247Y-102131588D02*
X172369247Y-101988731D01*
X172369247Y-101988731D02*
X172321628Y-101893492D01*
X172321628Y-101893492D02*
X172226390Y-101845873D01*
X172226390Y-101845873D02*
X171702580Y-101845873D01*
X172369247Y-101369683D02*
X171369247Y-101369683D01*
X172321628Y-101369683D02*
X172369247Y-101274445D01*
X172369247Y-101274445D02*
X172369247Y-101083969D01*
X172369247Y-101083969D02*
X172321628Y-100988731D01*
X172321628Y-100988731D02*
X172274009Y-100941112D01*
X172274009Y-100941112D02*
X172178771Y-100893493D01*
X172178771Y-100893493D02*
X171893057Y-100893493D01*
X171893057Y-100893493D02*
X171797819Y-100941112D01*
X171797819Y-100941112D02*
X171750200Y-100988731D01*
X171750200Y-100988731D02*
X171702580Y-101083969D01*
X171702580Y-101083969D02*
X171702580Y-101274445D01*
X171702580Y-101274445D02*
X171750200Y-101369683D01*
X172369247Y-100036350D02*
X171702580Y-100036350D01*
X172369247Y-100464921D02*
X171845438Y-100464921D01*
X171845438Y-100464921D02*
X171750200Y-100417302D01*
X171750200Y-100417302D02*
X171702580Y-100322064D01*
X171702580Y-100322064D02*
X171702580Y-100179207D01*
X171702580Y-100179207D02*
X171750200Y-100083969D01*
X171750200Y-100083969D02*
X171797819Y-100036350D01*
X172369247Y-99703016D02*
X172369247Y-99322064D01*
X172702580Y-99560159D02*
X171845438Y-99560159D01*
X171845438Y-99560159D02*
X171750200Y-99512540D01*
X171750200Y-99512540D02*
X171702580Y-99417302D01*
X171702580Y-99417302D02*
X171702580Y-99322064D01*
X171750200Y-98607778D02*
X171702580Y-98703016D01*
X171702580Y-98703016D02*
X171702580Y-98893492D01*
X171702580Y-98893492D02*
X171750200Y-98988730D01*
X171750200Y-98988730D02*
X171845438Y-99036349D01*
X171845438Y-99036349D02*
X172226390Y-99036349D01*
X172226390Y-99036349D02*
X172321628Y-98988730D01*
X172321628Y-98988730D02*
X172369247Y-98893492D01*
X172369247Y-98893492D02*
X172369247Y-98703016D01*
X172369247Y-98703016D02*
X172321628Y-98607778D01*
X172321628Y-98607778D02*
X172226390Y-98560159D01*
X172226390Y-98560159D02*
X172131152Y-98560159D01*
X172131152Y-98560159D02*
X172035914Y-99036349D01*
X171702580Y-98131587D02*
X172369247Y-98131587D01*
X172178771Y-98131587D02*
X172274009Y-98083968D01*
X172274009Y-98083968D02*
X172321628Y-98036349D01*
X172321628Y-98036349D02*
X172369247Y-97941111D01*
X172369247Y-97941111D02*
X172369247Y-97845873D01*
X171702580Y-96322063D02*
X172226390Y-96322063D01*
X172226390Y-96322063D02*
X172321628Y-96369682D01*
X172321628Y-96369682D02*
X172369247Y-96464920D01*
X172369247Y-96464920D02*
X172369247Y-96655396D01*
X172369247Y-96655396D02*
X172321628Y-96750634D01*
X171750200Y-96322063D02*
X171702580Y-96417301D01*
X171702580Y-96417301D02*
X171702580Y-96655396D01*
X171702580Y-96655396D02*
X171750200Y-96750634D01*
X171750200Y-96750634D02*
X171845438Y-96798253D01*
X171845438Y-96798253D02*
X171940676Y-96798253D01*
X171940676Y-96798253D02*
X172035914Y-96750634D01*
X172035914Y-96750634D02*
X172083533Y-96655396D01*
X172083533Y-96655396D02*
X172083533Y-96417301D01*
X172083533Y-96417301D02*
X172131152Y-96322063D01*
X171702580Y-95845872D02*
X172369247Y-95845872D01*
X172178771Y-95845872D02*
X172274009Y-95798253D01*
X172274009Y-95798253D02*
X172321628Y-95750634D01*
X172321628Y-95750634D02*
X172369247Y-95655396D01*
X172369247Y-95655396D02*
X172369247Y-95560158D01*
X171750200Y-94798253D02*
X171702580Y-94893491D01*
X171702580Y-94893491D02*
X171702580Y-95083967D01*
X171702580Y-95083967D02*
X171750200Y-95179205D01*
X171750200Y-95179205D02*
X171797819Y-95226824D01*
X171797819Y-95226824D02*
X171893057Y-95274443D01*
X171893057Y-95274443D02*
X172178771Y-95274443D01*
X172178771Y-95274443D02*
X172274009Y-95226824D01*
X172274009Y-95226824D02*
X172321628Y-95179205D01*
X172321628Y-95179205D02*
X172369247Y-95083967D01*
X172369247Y-95083967D02*
X172369247Y-94893491D01*
X172369247Y-94893491D02*
X172321628Y-94798253D01*
X171702580Y-94369681D02*
X172702580Y-94369681D01*
X171702580Y-93941110D02*
X172226390Y-93941110D01*
X172226390Y-93941110D02*
X172321628Y-93988729D01*
X172321628Y-93988729D02*
X172369247Y-94083967D01*
X172369247Y-94083967D02*
X172369247Y-94226824D01*
X172369247Y-94226824D02*
X172321628Y-94322062D01*
X172321628Y-94322062D02*
X172274009Y-94369681D01*
X171702580Y-93464919D02*
X172369247Y-93464919D01*
X172702580Y-93464919D02*
X172654961Y-93512538D01*
X172654961Y-93512538D02*
X172607342Y-93464919D01*
X172607342Y-93464919D02*
X172654961Y-93417300D01*
X172654961Y-93417300D02*
X172702580Y-93464919D01*
X172702580Y-93464919D02*
X172607342Y-93464919D01*
X172369247Y-93131586D02*
X172369247Y-92750634D01*
X172702580Y-92988729D02*
X171845438Y-92988729D01*
X171845438Y-92988729D02*
X171750200Y-92941110D01*
X171750200Y-92941110D02*
X171702580Y-92845872D01*
X171702580Y-92845872D02*
X171702580Y-92750634D01*
X171750200Y-92036348D02*
X171702580Y-92131586D01*
X171702580Y-92131586D02*
X171702580Y-92322062D01*
X171702580Y-92322062D02*
X171750200Y-92417300D01*
X171750200Y-92417300D02*
X171845438Y-92464919D01*
X171845438Y-92464919D02*
X172226390Y-92464919D01*
X172226390Y-92464919D02*
X172321628Y-92417300D01*
X172321628Y-92417300D02*
X172369247Y-92322062D01*
X172369247Y-92322062D02*
X172369247Y-92131586D01*
X172369247Y-92131586D02*
X172321628Y-92036348D01*
X172321628Y-92036348D02*
X172226390Y-91988729D01*
X172226390Y-91988729D02*
X172131152Y-91988729D01*
X172131152Y-91988729D02*
X172035914Y-92464919D01*
X171750200Y-91131586D02*
X171702580Y-91226824D01*
X171702580Y-91226824D02*
X171702580Y-91417300D01*
X171702580Y-91417300D02*
X171750200Y-91512538D01*
X171750200Y-91512538D02*
X171797819Y-91560157D01*
X171797819Y-91560157D02*
X171893057Y-91607776D01*
X171893057Y-91607776D02*
X172178771Y-91607776D01*
X172178771Y-91607776D02*
X172274009Y-91560157D01*
X172274009Y-91560157D02*
X172321628Y-91512538D01*
X172321628Y-91512538D02*
X172369247Y-91417300D01*
X172369247Y-91417300D02*
X172369247Y-91226824D01*
X172369247Y-91226824D02*
X172321628Y-91131586D01*
X172369247Y-90845871D02*
X172369247Y-90464919D01*
X172702580Y-90703014D02*
X171845438Y-90703014D01*
X171845438Y-90703014D02*
X171750200Y-90655395D01*
X171750200Y-90655395D02*
X171702580Y-90560157D01*
X171702580Y-90560157D02*
X171702580Y-90464919D01*
X172369247Y-89703014D02*
X171702580Y-89703014D01*
X172369247Y-90131585D02*
X171845438Y-90131585D01*
X171845438Y-90131585D02*
X171750200Y-90083966D01*
X171750200Y-90083966D02*
X171702580Y-89988728D01*
X171702580Y-89988728D02*
X171702580Y-89845871D01*
X171702580Y-89845871D02*
X171750200Y-89750633D01*
X171750200Y-89750633D02*
X171797819Y-89703014D01*
X171702580Y-89226823D02*
X172369247Y-89226823D01*
X172178771Y-89226823D02*
X172274009Y-89179204D01*
X172274009Y-89179204D02*
X172321628Y-89131585D01*
X172321628Y-89131585D02*
X172369247Y-89036347D01*
X172369247Y-89036347D02*
X172369247Y-88941109D01*
X171750200Y-88226823D02*
X171702580Y-88322061D01*
X171702580Y-88322061D02*
X171702580Y-88512537D01*
X171702580Y-88512537D02*
X171750200Y-88607775D01*
X171750200Y-88607775D02*
X171845438Y-88655394D01*
X171845438Y-88655394D02*
X172226390Y-88655394D01*
X172226390Y-88655394D02*
X172321628Y-88607775D01*
X172321628Y-88607775D02*
X172369247Y-88512537D01*
X172369247Y-88512537D02*
X172369247Y-88322061D01*
X172369247Y-88322061D02*
X172321628Y-88226823D01*
X172321628Y-88226823D02*
X172226390Y-88179204D01*
X172226390Y-88179204D02*
X172131152Y-88179204D01*
X172131152Y-88179204D02*
X172035914Y-88655394D01*
X171797819Y-87750632D02*
X171750200Y-87703013D01*
X171750200Y-87703013D02*
X171702580Y-87750632D01*
X171702580Y-87750632D02*
X171750200Y-87798251D01*
X171750200Y-87798251D02*
X171797819Y-87750632D01*
X171797819Y-87750632D02*
X171702580Y-87750632D01*
X171092636Y-118083972D02*
X171092636Y-117512544D01*
X170092636Y-117798258D02*
X171092636Y-117798258D01*
X170092636Y-117179210D02*
X171092636Y-117179210D01*
X170092636Y-116750639D02*
X170616446Y-116750639D01*
X170616446Y-116750639D02*
X170711684Y-116798258D01*
X170711684Y-116798258D02*
X170759303Y-116893496D01*
X170759303Y-116893496D02*
X170759303Y-117036353D01*
X170759303Y-117036353D02*
X170711684Y-117131591D01*
X170711684Y-117131591D02*
X170664065Y-117179210D01*
X170140256Y-115893496D02*
X170092636Y-115988734D01*
X170092636Y-115988734D02*
X170092636Y-116179210D01*
X170092636Y-116179210D02*
X170140256Y-116274448D01*
X170140256Y-116274448D02*
X170235494Y-116322067D01*
X170235494Y-116322067D02*
X170616446Y-116322067D01*
X170616446Y-116322067D02*
X170711684Y-116274448D01*
X170711684Y-116274448D02*
X170759303Y-116179210D01*
X170759303Y-116179210D02*
X170759303Y-115988734D01*
X170759303Y-115988734D02*
X170711684Y-115893496D01*
X170711684Y-115893496D02*
X170616446Y-115845877D01*
X170616446Y-115845877D02*
X170521208Y-115845877D01*
X170521208Y-115845877D02*
X170425970Y-116322067D01*
X170092636Y-114655400D02*
X171092636Y-114655400D01*
X171092636Y-114655400D02*
X171092636Y-114274448D01*
X171092636Y-114274448D02*
X171045017Y-114179210D01*
X171045017Y-114179210D02*
X170997398Y-114131591D01*
X170997398Y-114131591D02*
X170902160Y-114083972D01*
X170902160Y-114083972D02*
X170759303Y-114083972D01*
X170759303Y-114083972D02*
X170664065Y-114131591D01*
X170664065Y-114131591D02*
X170616446Y-114179210D01*
X170616446Y-114179210D02*
X170568827Y-114274448D01*
X170568827Y-114274448D02*
X170568827Y-114655400D01*
X170187875Y-113083972D02*
X170140256Y-113131591D01*
X170140256Y-113131591D02*
X170092636Y-113274448D01*
X170092636Y-113274448D02*
X170092636Y-113369686D01*
X170092636Y-113369686D02*
X170140256Y-113512543D01*
X170140256Y-113512543D02*
X170235494Y-113607781D01*
X170235494Y-113607781D02*
X170330732Y-113655400D01*
X170330732Y-113655400D02*
X170521208Y-113703019D01*
X170521208Y-113703019D02*
X170664065Y-113703019D01*
X170664065Y-113703019D02*
X170854541Y-113655400D01*
X170854541Y-113655400D02*
X170949779Y-113607781D01*
X170949779Y-113607781D02*
X171045017Y-113512543D01*
X171045017Y-113512543D02*
X171092636Y-113369686D01*
X171092636Y-113369686D02*
X171092636Y-113274448D01*
X171092636Y-113274448D02*
X171045017Y-113131591D01*
X171045017Y-113131591D02*
X170997398Y-113083972D01*
X170092636Y-111322067D02*
X170568827Y-111655400D01*
X170092636Y-111893495D02*
X171092636Y-111893495D01*
X171092636Y-111893495D02*
X171092636Y-111512543D01*
X171092636Y-111512543D02*
X171045017Y-111417305D01*
X171045017Y-111417305D02*
X170997398Y-111369686D01*
X170997398Y-111369686D02*
X170902160Y-111322067D01*
X170902160Y-111322067D02*
X170759303Y-111322067D01*
X170759303Y-111322067D02*
X170664065Y-111369686D01*
X170664065Y-111369686D02*
X170616446Y-111417305D01*
X170616446Y-111417305D02*
X170568827Y-111512543D01*
X170568827Y-111512543D02*
X170568827Y-111893495D01*
X170140256Y-110512543D02*
X170092636Y-110607781D01*
X170092636Y-110607781D02*
X170092636Y-110798257D01*
X170092636Y-110798257D02*
X170140256Y-110893495D01*
X170140256Y-110893495D02*
X170235494Y-110941114D01*
X170235494Y-110941114D02*
X170616446Y-110941114D01*
X170616446Y-110941114D02*
X170711684Y-110893495D01*
X170711684Y-110893495D02*
X170759303Y-110798257D01*
X170759303Y-110798257D02*
X170759303Y-110607781D01*
X170759303Y-110607781D02*
X170711684Y-110512543D01*
X170711684Y-110512543D02*
X170616446Y-110464924D01*
X170616446Y-110464924D02*
X170521208Y-110464924D01*
X170521208Y-110464924D02*
X170425970Y-110941114D01*
X170759303Y-109607781D02*
X169949779Y-109607781D01*
X169949779Y-109607781D02*
X169854541Y-109655400D01*
X169854541Y-109655400D02*
X169806922Y-109703019D01*
X169806922Y-109703019D02*
X169759303Y-109798257D01*
X169759303Y-109798257D02*
X169759303Y-109941114D01*
X169759303Y-109941114D02*
X169806922Y-110036352D01*
X170140256Y-109607781D02*
X170092636Y-109703019D01*
X170092636Y-109703019D02*
X170092636Y-109893495D01*
X170092636Y-109893495D02*
X170140256Y-109988733D01*
X170140256Y-109988733D02*
X170187875Y-110036352D01*
X170187875Y-110036352D02*
X170283113Y-110083971D01*
X170283113Y-110083971D02*
X170568827Y-110083971D01*
X170568827Y-110083971D02*
X170664065Y-110036352D01*
X170664065Y-110036352D02*
X170711684Y-109988733D01*
X170711684Y-109988733D02*
X170759303Y-109893495D01*
X170759303Y-109893495D02*
X170759303Y-109703019D01*
X170759303Y-109703019D02*
X170711684Y-109607781D01*
X170092636Y-109131590D02*
X170759303Y-109131590D01*
X171092636Y-109131590D02*
X171045017Y-109179209D01*
X171045017Y-109179209D02*
X170997398Y-109131590D01*
X170997398Y-109131590D02*
X171045017Y-109083971D01*
X171045017Y-109083971D02*
X171092636Y-109131590D01*
X171092636Y-109131590D02*
X170997398Y-109131590D01*
X170140256Y-108703019D02*
X170092636Y-108607781D01*
X170092636Y-108607781D02*
X170092636Y-108417305D01*
X170092636Y-108417305D02*
X170140256Y-108322067D01*
X170140256Y-108322067D02*
X170235494Y-108274448D01*
X170235494Y-108274448D02*
X170283113Y-108274448D01*
X170283113Y-108274448D02*
X170378351Y-108322067D01*
X170378351Y-108322067D02*
X170425970Y-108417305D01*
X170425970Y-108417305D02*
X170425970Y-108560162D01*
X170425970Y-108560162D02*
X170473589Y-108655400D01*
X170473589Y-108655400D02*
X170568827Y-108703019D01*
X170568827Y-108703019D02*
X170616446Y-108703019D01*
X170616446Y-108703019D02*
X170711684Y-108655400D01*
X170711684Y-108655400D02*
X170759303Y-108560162D01*
X170759303Y-108560162D02*
X170759303Y-108417305D01*
X170759303Y-108417305D02*
X170711684Y-108322067D01*
X170759303Y-107988733D02*
X170759303Y-107607781D01*
X171092636Y-107845876D02*
X170235494Y-107845876D01*
X170235494Y-107845876D02*
X170140256Y-107798257D01*
X170140256Y-107798257D02*
X170092636Y-107703019D01*
X170092636Y-107703019D02*
X170092636Y-107607781D01*
X170140256Y-106893495D02*
X170092636Y-106988733D01*
X170092636Y-106988733D02*
X170092636Y-107179209D01*
X170092636Y-107179209D02*
X170140256Y-107274447D01*
X170140256Y-107274447D02*
X170235494Y-107322066D01*
X170235494Y-107322066D02*
X170616446Y-107322066D01*
X170616446Y-107322066D02*
X170711684Y-107274447D01*
X170711684Y-107274447D02*
X170759303Y-107179209D01*
X170759303Y-107179209D02*
X170759303Y-106988733D01*
X170759303Y-106988733D02*
X170711684Y-106893495D01*
X170711684Y-106893495D02*
X170616446Y-106845876D01*
X170616446Y-106845876D02*
X170521208Y-106845876D01*
X170521208Y-106845876D02*
X170425970Y-107322066D01*
X170092636Y-106417304D02*
X170759303Y-106417304D01*
X170568827Y-106417304D02*
X170664065Y-106369685D01*
X170664065Y-106369685D02*
X170711684Y-106322066D01*
X170711684Y-106322066D02*
X170759303Y-106226828D01*
X170759303Y-106226828D02*
X170759303Y-106131590D01*
X170092636Y-105036351D02*
X171092636Y-105036351D01*
X170092636Y-104607780D02*
X170616446Y-104607780D01*
X170616446Y-104607780D02*
X170711684Y-104655399D01*
X170711684Y-104655399D02*
X170759303Y-104750637D01*
X170759303Y-104750637D02*
X170759303Y-104893494D01*
X170759303Y-104893494D02*
X170711684Y-104988732D01*
X170711684Y-104988732D02*
X170664065Y-105036351D01*
X170092636Y-103988732D02*
X170140256Y-104083970D01*
X170140256Y-104083970D02*
X170187875Y-104131589D01*
X170187875Y-104131589D02*
X170283113Y-104179208D01*
X170283113Y-104179208D02*
X170568827Y-104179208D01*
X170568827Y-104179208D02*
X170664065Y-104131589D01*
X170664065Y-104131589D02*
X170711684Y-104083970D01*
X170711684Y-104083970D02*
X170759303Y-103988732D01*
X170759303Y-103988732D02*
X170759303Y-103845875D01*
X170759303Y-103845875D02*
X170711684Y-103750637D01*
X170711684Y-103750637D02*
X170664065Y-103703018D01*
X170664065Y-103703018D02*
X170568827Y-103655399D01*
X170568827Y-103655399D02*
X170283113Y-103655399D01*
X170283113Y-103655399D02*
X170187875Y-103703018D01*
X170187875Y-103703018D02*
X170140256Y-103750637D01*
X170140256Y-103750637D02*
X170092636Y-103845875D01*
X170092636Y-103845875D02*
X170092636Y-103988732D01*
X170092636Y-103083970D02*
X170140256Y-103179208D01*
X170140256Y-103179208D02*
X170235494Y-103226827D01*
X170235494Y-103226827D02*
X171092636Y-103226827D01*
X170092636Y-102274446D02*
X171092636Y-102274446D01*
X170140256Y-102274446D02*
X170092636Y-102369684D01*
X170092636Y-102369684D02*
X170092636Y-102560160D01*
X170092636Y-102560160D02*
X170140256Y-102655398D01*
X170140256Y-102655398D02*
X170187875Y-102703017D01*
X170187875Y-102703017D02*
X170283113Y-102750636D01*
X170283113Y-102750636D02*
X170568827Y-102750636D01*
X170568827Y-102750636D02*
X170664065Y-102703017D01*
X170664065Y-102703017D02*
X170711684Y-102655398D01*
X170711684Y-102655398D02*
X170759303Y-102560160D01*
X170759303Y-102560160D02*
X170759303Y-102369684D01*
X170759303Y-102369684D02*
X170711684Y-102274446D01*
X170140256Y-101845874D02*
X170092636Y-101750636D01*
X170092636Y-101750636D02*
X170092636Y-101560160D01*
X170092636Y-101560160D02*
X170140256Y-101464922D01*
X170140256Y-101464922D02*
X170235494Y-101417303D01*
X170235494Y-101417303D02*
X170283113Y-101417303D01*
X170283113Y-101417303D02*
X170378351Y-101464922D01*
X170378351Y-101464922D02*
X170425970Y-101560160D01*
X170425970Y-101560160D02*
X170425970Y-101703017D01*
X170425970Y-101703017D02*
X170473589Y-101798255D01*
X170473589Y-101798255D02*
X170568827Y-101845874D01*
X170568827Y-101845874D02*
X170616446Y-101845874D01*
X170616446Y-101845874D02*
X170711684Y-101798255D01*
X170711684Y-101798255D02*
X170759303Y-101703017D01*
X170759303Y-101703017D02*
X170759303Y-101560160D01*
X170759303Y-101560160D02*
X170711684Y-101464922D01*
X170759303Y-100369683D02*
X170759303Y-99988731D01*
X171092636Y-100226826D02*
X170235494Y-100226826D01*
X170235494Y-100226826D02*
X170140256Y-100179207D01*
X170140256Y-100179207D02*
X170092636Y-100083969D01*
X170092636Y-100083969D02*
X170092636Y-99988731D01*
X170092636Y-99655397D02*
X171092636Y-99655397D01*
X170092636Y-99226826D02*
X170616446Y-99226826D01*
X170616446Y-99226826D02*
X170711684Y-99274445D01*
X170711684Y-99274445D02*
X170759303Y-99369683D01*
X170759303Y-99369683D02*
X170759303Y-99512540D01*
X170759303Y-99512540D02*
X170711684Y-99607778D01*
X170711684Y-99607778D02*
X170664065Y-99655397D01*
X170140256Y-98369683D02*
X170092636Y-98464921D01*
X170092636Y-98464921D02*
X170092636Y-98655397D01*
X170092636Y-98655397D02*
X170140256Y-98750635D01*
X170140256Y-98750635D02*
X170235494Y-98798254D01*
X170235494Y-98798254D02*
X170616446Y-98798254D01*
X170616446Y-98798254D02*
X170711684Y-98750635D01*
X170711684Y-98750635D02*
X170759303Y-98655397D01*
X170759303Y-98655397D02*
X170759303Y-98464921D01*
X170759303Y-98464921D02*
X170711684Y-98369683D01*
X170711684Y-98369683D02*
X170616446Y-98322064D01*
X170616446Y-98322064D02*
X170521208Y-98322064D01*
X170521208Y-98322064D02*
X170425970Y-98798254D01*
X170092636Y-97131587D02*
X171092636Y-97131587D01*
X171092636Y-97131587D02*
X171092636Y-96750635D01*
X171092636Y-96750635D02*
X171045017Y-96655397D01*
X171045017Y-96655397D02*
X170997398Y-96607778D01*
X170997398Y-96607778D02*
X170902160Y-96560159D01*
X170902160Y-96560159D02*
X170759303Y-96560159D01*
X170759303Y-96560159D02*
X170664065Y-96607778D01*
X170664065Y-96607778D02*
X170616446Y-96655397D01*
X170616446Y-96655397D02*
X170568827Y-96750635D01*
X170568827Y-96750635D02*
X170568827Y-97131587D01*
X170092636Y-95560159D02*
X170568827Y-95893492D01*
X170092636Y-96131587D02*
X171092636Y-96131587D01*
X171092636Y-96131587D02*
X171092636Y-95750635D01*
X171092636Y-95750635D02*
X171045017Y-95655397D01*
X171045017Y-95655397D02*
X170997398Y-95607778D01*
X170997398Y-95607778D02*
X170902160Y-95560159D01*
X170902160Y-95560159D02*
X170759303Y-95560159D01*
X170759303Y-95560159D02*
X170664065Y-95607778D01*
X170664065Y-95607778D02*
X170616446Y-95655397D01*
X170616446Y-95655397D02*
X170568827Y-95750635D01*
X170568827Y-95750635D02*
X170568827Y-96131587D01*
X171092636Y-94941111D02*
X171092636Y-94750635D01*
X171092636Y-94750635D02*
X171045017Y-94655397D01*
X171045017Y-94655397D02*
X170949779Y-94560159D01*
X170949779Y-94560159D02*
X170759303Y-94512540D01*
X170759303Y-94512540D02*
X170425970Y-94512540D01*
X170425970Y-94512540D02*
X170235494Y-94560159D01*
X170235494Y-94560159D02*
X170140256Y-94655397D01*
X170140256Y-94655397D02*
X170092636Y-94750635D01*
X170092636Y-94750635D02*
X170092636Y-94941111D01*
X170092636Y-94941111D02*
X170140256Y-95036349D01*
X170140256Y-95036349D02*
X170235494Y-95131587D01*
X170235494Y-95131587D02*
X170425970Y-95179206D01*
X170425970Y-95179206D02*
X170759303Y-95179206D01*
X170759303Y-95179206D02*
X170949779Y-95131587D01*
X170949779Y-95131587D02*
X171045017Y-95036349D01*
X171045017Y-95036349D02*
X171092636Y-94941111D01*
X171045017Y-93560159D02*
X171092636Y-93655397D01*
X171092636Y-93655397D02*
X171092636Y-93798254D01*
X171092636Y-93798254D02*
X171045017Y-93941111D01*
X171045017Y-93941111D02*
X170949779Y-94036349D01*
X170949779Y-94036349D02*
X170854541Y-94083968D01*
X170854541Y-94083968D02*
X170664065Y-94131587D01*
X170664065Y-94131587D02*
X170521208Y-94131587D01*
X170521208Y-94131587D02*
X170330732Y-94083968D01*
X170330732Y-94083968D02*
X170235494Y-94036349D01*
X170235494Y-94036349D02*
X170140256Y-93941111D01*
X170140256Y-93941111D02*
X170092636Y-93798254D01*
X170092636Y-93798254D02*
X170092636Y-93703016D01*
X170092636Y-93703016D02*
X170140256Y-93560159D01*
X170140256Y-93560159D02*
X170187875Y-93512540D01*
X170187875Y-93512540D02*
X170521208Y-93512540D01*
X170521208Y-93512540D02*
X170521208Y-93703016D01*
X170092636Y-92322063D02*
X171092636Y-92322063D01*
X171092636Y-92322063D02*
X170378351Y-91988730D01*
X170378351Y-91988730D02*
X171092636Y-91655397D01*
X171092636Y-91655397D02*
X170092636Y-91655397D01*
X170616446Y-91179206D02*
X170616446Y-90845873D01*
X170092636Y-90703016D02*
X170092636Y-91179206D01*
X170092636Y-91179206D02*
X171092636Y-91179206D01*
X171092636Y-91179206D02*
X171092636Y-90703016D01*
X170092636Y-90274444D02*
X171092636Y-90274444D01*
X171092636Y-90274444D02*
X170378351Y-89941111D01*
X170378351Y-89941111D02*
X171092636Y-89607778D01*
X171092636Y-89607778D02*
X170092636Y-89607778D01*
X170092636Y-87941111D02*
X170616446Y-87941111D01*
X170616446Y-87941111D02*
X170711684Y-87988730D01*
X170711684Y-87988730D02*
X170759303Y-88083968D01*
X170759303Y-88083968D02*
X170759303Y-88274444D01*
X170759303Y-88274444D02*
X170711684Y-88369682D01*
X170140256Y-87941111D02*
X170092636Y-88036349D01*
X170092636Y-88036349D02*
X170092636Y-88274444D01*
X170092636Y-88274444D02*
X170140256Y-88369682D01*
X170140256Y-88369682D02*
X170235494Y-88417301D01*
X170235494Y-88417301D02*
X170330732Y-88417301D01*
X170330732Y-88417301D02*
X170425970Y-88369682D01*
X170425970Y-88369682D02*
X170473589Y-88274444D01*
X170473589Y-88274444D02*
X170473589Y-88036349D01*
X170473589Y-88036349D02*
X170521208Y-87941111D01*
X170092636Y-87036349D02*
X171092636Y-87036349D01*
X170140256Y-87036349D02*
X170092636Y-87131587D01*
X170092636Y-87131587D02*
X170092636Y-87322063D01*
X170092636Y-87322063D02*
X170140256Y-87417301D01*
X170140256Y-87417301D02*
X170187875Y-87464920D01*
X170187875Y-87464920D02*
X170283113Y-87512539D01*
X170283113Y-87512539D02*
X170568827Y-87512539D01*
X170568827Y-87512539D02*
X170664065Y-87464920D01*
X170664065Y-87464920D02*
X170711684Y-87417301D01*
X170711684Y-87417301D02*
X170759303Y-87322063D01*
X170759303Y-87322063D02*
X170759303Y-87131587D01*
X170759303Y-87131587D02*
X170711684Y-87036349D01*
X170092636Y-86131587D02*
X171092636Y-86131587D01*
X170140256Y-86131587D02*
X170092636Y-86226825D01*
X170092636Y-86226825D02*
X170092636Y-86417301D01*
X170092636Y-86417301D02*
X170140256Y-86512539D01*
X170140256Y-86512539D02*
X170187875Y-86560158D01*
X170187875Y-86560158D02*
X170283113Y-86607777D01*
X170283113Y-86607777D02*
X170568827Y-86607777D01*
X170568827Y-86607777D02*
X170664065Y-86560158D01*
X170664065Y-86560158D02*
X170711684Y-86512539D01*
X170711684Y-86512539D02*
X170759303Y-86417301D01*
X170759303Y-86417301D02*
X170759303Y-86226825D01*
X170759303Y-86226825D02*
X170711684Y-86131587D01*
X170092636Y-85655396D02*
X170759303Y-85655396D01*
X170568827Y-85655396D02*
X170664065Y-85607777D01*
X170664065Y-85607777D02*
X170711684Y-85560158D01*
X170711684Y-85560158D02*
X170759303Y-85464920D01*
X170759303Y-85464920D02*
X170759303Y-85369682D01*
X170140256Y-84655396D02*
X170092636Y-84750634D01*
X170092636Y-84750634D02*
X170092636Y-84941110D01*
X170092636Y-84941110D02*
X170140256Y-85036348D01*
X170140256Y-85036348D02*
X170235494Y-85083967D01*
X170235494Y-85083967D02*
X170616446Y-85083967D01*
X170616446Y-85083967D02*
X170711684Y-85036348D01*
X170711684Y-85036348D02*
X170759303Y-84941110D01*
X170759303Y-84941110D02*
X170759303Y-84750634D01*
X170759303Y-84750634D02*
X170711684Y-84655396D01*
X170711684Y-84655396D02*
X170616446Y-84607777D01*
X170616446Y-84607777D02*
X170521208Y-84607777D01*
X170521208Y-84607777D02*
X170425970Y-85083967D01*
X170140256Y-84226824D02*
X170092636Y-84131586D01*
X170092636Y-84131586D02*
X170092636Y-83941110D01*
X170092636Y-83941110D02*
X170140256Y-83845872D01*
X170140256Y-83845872D02*
X170235494Y-83798253D01*
X170235494Y-83798253D02*
X170283113Y-83798253D01*
X170283113Y-83798253D02*
X170378351Y-83845872D01*
X170378351Y-83845872D02*
X170425970Y-83941110D01*
X170425970Y-83941110D02*
X170425970Y-84083967D01*
X170425970Y-84083967D02*
X170473589Y-84179205D01*
X170473589Y-84179205D02*
X170568827Y-84226824D01*
X170568827Y-84226824D02*
X170616446Y-84226824D01*
X170616446Y-84226824D02*
X170711684Y-84179205D01*
X170711684Y-84179205D02*
X170759303Y-84083967D01*
X170759303Y-84083967D02*
X170759303Y-83941110D01*
X170759303Y-83941110D02*
X170711684Y-83845872D01*
X170140256Y-83417300D02*
X170092636Y-83322062D01*
X170092636Y-83322062D02*
X170092636Y-83131586D01*
X170092636Y-83131586D02*
X170140256Y-83036348D01*
X170140256Y-83036348D02*
X170235494Y-82988729D01*
X170235494Y-82988729D02*
X170283113Y-82988729D01*
X170283113Y-82988729D02*
X170378351Y-83036348D01*
X170378351Y-83036348D02*
X170425970Y-83131586D01*
X170425970Y-83131586D02*
X170425970Y-83274443D01*
X170425970Y-83274443D02*
X170473589Y-83369681D01*
X170473589Y-83369681D02*
X170568827Y-83417300D01*
X170568827Y-83417300D02*
X170616446Y-83417300D01*
X170616446Y-83417300D02*
X170711684Y-83369681D01*
X170711684Y-83369681D02*
X170759303Y-83274443D01*
X170759303Y-83274443D02*
X170759303Y-83131586D01*
X170759303Y-83131586D02*
X170711684Y-83036348D01*
X170092636Y-81655395D02*
X170140256Y-81750633D01*
X170140256Y-81750633D02*
X170187875Y-81798252D01*
X170187875Y-81798252D02*
X170283113Y-81845871D01*
X170283113Y-81845871D02*
X170568827Y-81845871D01*
X170568827Y-81845871D02*
X170664065Y-81798252D01*
X170664065Y-81798252D02*
X170711684Y-81750633D01*
X170711684Y-81750633D02*
X170759303Y-81655395D01*
X170759303Y-81655395D02*
X170759303Y-81512538D01*
X170759303Y-81512538D02*
X170711684Y-81417300D01*
X170711684Y-81417300D02*
X170664065Y-81369681D01*
X170664065Y-81369681D02*
X170568827Y-81322062D01*
X170568827Y-81322062D02*
X170283113Y-81322062D01*
X170283113Y-81322062D02*
X170187875Y-81369681D01*
X170187875Y-81369681D02*
X170140256Y-81417300D01*
X170140256Y-81417300D02*
X170092636Y-81512538D01*
X170092636Y-81512538D02*
X170092636Y-81655395D01*
X170759303Y-81036347D02*
X170759303Y-80655395D01*
X170092636Y-80893490D02*
X170949779Y-80893490D01*
X170949779Y-80893490D02*
X171045017Y-80845871D01*
X171045017Y-80845871D02*
X171092636Y-80750633D01*
X171092636Y-80750633D02*
X171092636Y-80655395D01*
X169149359Y-118083972D02*
X169149359Y-117703020D01*
X169482692Y-117941115D02*
X168625550Y-117941115D01*
X168625550Y-117941115D02*
X168530312Y-117893496D01*
X168530312Y-117893496D02*
X168482692Y-117798258D01*
X168482692Y-117798258D02*
X168482692Y-117703020D01*
X168482692Y-117369686D02*
X169482692Y-117369686D01*
X168482692Y-116941115D02*
X169006502Y-116941115D01*
X169006502Y-116941115D02*
X169101740Y-116988734D01*
X169101740Y-116988734D02*
X169149359Y-117083972D01*
X169149359Y-117083972D02*
X169149359Y-117226829D01*
X169149359Y-117226829D02*
X169101740Y-117322067D01*
X169101740Y-117322067D02*
X169054121Y-117369686D01*
X168530312Y-116083972D02*
X168482692Y-116179210D01*
X168482692Y-116179210D02*
X168482692Y-116369686D01*
X168482692Y-116369686D02*
X168530312Y-116464924D01*
X168530312Y-116464924D02*
X168625550Y-116512543D01*
X168625550Y-116512543D02*
X169006502Y-116512543D01*
X169006502Y-116512543D02*
X169101740Y-116464924D01*
X169101740Y-116464924D02*
X169149359Y-116369686D01*
X169149359Y-116369686D02*
X169149359Y-116179210D01*
X169149359Y-116179210D02*
X169101740Y-116083972D01*
X169101740Y-116083972D02*
X169006502Y-116036353D01*
X169006502Y-116036353D02*
X168911264Y-116036353D01*
X168911264Y-116036353D02*
X168816026Y-116512543D01*
X168530312Y-114417305D02*
X168482692Y-114512543D01*
X168482692Y-114512543D02*
X168482692Y-114703019D01*
X168482692Y-114703019D02*
X168530312Y-114798257D01*
X168530312Y-114798257D02*
X168577931Y-114845876D01*
X168577931Y-114845876D02*
X168673169Y-114893495D01*
X168673169Y-114893495D02*
X168958883Y-114893495D01*
X168958883Y-114893495D02*
X169054121Y-114845876D01*
X169054121Y-114845876D02*
X169101740Y-114798257D01*
X169101740Y-114798257D02*
X169149359Y-114703019D01*
X169149359Y-114703019D02*
X169149359Y-114512543D01*
X169149359Y-114512543D02*
X169101740Y-114417305D01*
X169149359Y-113560162D02*
X168482692Y-113560162D01*
X169149359Y-113988733D02*
X168625550Y-113988733D01*
X168625550Y-113988733D02*
X168530312Y-113941114D01*
X168530312Y-113941114D02*
X168482692Y-113845876D01*
X168482692Y-113845876D02*
X168482692Y-113703019D01*
X168482692Y-113703019D02*
X168530312Y-113607781D01*
X168530312Y-113607781D02*
X168577931Y-113560162D01*
X168482692Y-113083971D02*
X169149359Y-113083971D01*
X168958883Y-113083971D02*
X169054121Y-113036352D01*
X169054121Y-113036352D02*
X169101740Y-112988733D01*
X169101740Y-112988733D02*
X169149359Y-112893495D01*
X169149359Y-112893495D02*
X169149359Y-112798257D01*
X168482692Y-112464923D02*
X169149359Y-112464923D01*
X168958883Y-112464923D02*
X169054121Y-112417304D01*
X169054121Y-112417304D02*
X169101740Y-112369685D01*
X169101740Y-112369685D02*
X169149359Y-112274447D01*
X169149359Y-112274447D02*
X169149359Y-112179209D01*
X168530312Y-111464923D02*
X168482692Y-111560161D01*
X168482692Y-111560161D02*
X168482692Y-111750637D01*
X168482692Y-111750637D02*
X168530312Y-111845875D01*
X168530312Y-111845875D02*
X168625550Y-111893494D01*
X168625550Y-111893494D02*
X169006502Y-111893494D01*
X169006502Y-111893494D02*
X169101740Y-111845875D01*
X169101740Y-111845875D02*
X169149359Y-111750637D01*
X169149359Y-111750637D02*
X169149359Y-111560161D01*
X169149359Y-111560161D02*
X169101740Y-111464923D01*
X169101740Y-111464923D02*
X169006502Y-111417304D01*
X169006502Y-111417304D02*
X168911264Y-111417304D01*
X168911264Y-111417304D02*
X168816026Y-111893494D01*
X169149359Y-110988732D02*
X168482692Y-110988732D01*
X169054121Y-110988732D02*
X169101740Y-110941113D01*
X169101740Y-110941113D02*
X169149359Y-110845875D01*
X169149359Y-110845875D02*
X169149359Y-110703018D01*
X169149359Y-110703018D02*
X169101740Y-110607780D01*
X169101740Y-110607780D02*
X169006502Y-110560161D01*
X169006502Y-110560161D02*
X168482692Y-110560161D01*
X169149359Y-110226827D02*
X169149359Y-109845875D01*
X169482692Y-110083970D02*
X168625550Y-110083970D01*
X168625550Y-110083970D02*
X168530312Y-110036351D01*
X168530312Y-110036351D02*
X168482692Y-109941113D01*
X168482692Y-109941113D02*
X168482692Y-109845875D01*
X168482692Y-108750636D02*
X169149359Y-108750636D01*
X169482692Y-108750636D02*
X169435073Y-108798255D01*
X169435073Y-108798255D02*
X169387454Y-108750636D01*
X169387454Y-108750636D02*
X169435073Y-108703017D01*
X169435073Y-108703017D02*
X169482692Y-108750636D01*
X169482692Y-108750636D02*
X169387454Y-108750636D01*
X169149359Y-108274446D02*
X168482692Y-108274446D01*
X169054121Y-108274446D02*
X169101740Y-108226827D01*
X169101740Y-108226827D02*
X169149359Y-108131589D01*
X169149359Y-108131589D02*
X169149359Y-107988732D01*
X169149359Y-107988732D02*
X169101740Y-107893494D01*
X169101740Y-107893494D02*
X169006502Y-107845875D01*
X169006502Y-107845875D02*
X168482692Y-107845875D01*
X168530312Y-107417303D02*
X168482692Y-107322065D01*
X168482692Y-107322065D02*
X168482692Y-107131589D01*
X168482692Y-107131589D02*
X168530312Y-107036351D01*
X168530312Y-107036351D02*
X168625550Y-106988732D01*
X168625550Y-106988732D02*
X168673169Y-106988732D01*
X168673169Y-106988732D02*
X168768407Y-107036351D01*
X168768407Y-107036351D02*
X168816026Y-107131589D01*
X168816026Y-107131589D02*
X168816026Y-107274446D01*
X168816026Y-107274446D02*
X168863645Y-107369684D01*
X168863645Y-107369684D02*
X168958883Y-107417303D01*
X168958883Y-107417303D02*
X169006502Y-107417303D01*
X169006502Y-107417303D02*
X169101740Y-107369684D01*
X169101740Y-107369684D02*
X169149359Y-107274446D01*
X169149359Y-107274446D02*
X169149359Y-107131589D01*
X169149359Y-107131589D02*
X169101740Y-107036351D01*
X169149359Y-106703017D02*
X169149359Y-106322065D01*
X169482692Y-106560160D02*
X168625550Y-106560160D01*
X168625550Y-106560160D02*
X168530312Y-106512541D01*
X168530312Y-106512541D02*
X168482692Y-106417303D01*
X168482692Y-106417303D02*
X168482692Y-106322065D01*
X168482692Y-105988731D02*
X169149359Y-105988731D01*
X168958883Y-105988731D02*
X169054121Y-105941112D01*
X169054121Y-105941112D02*
X169101740Y-105893493D01*
X169101740Y-105893493D02*
X169149359Y-105798255D01*
X169149359Y-105798255D02*
X169149359Y-105703017D01*
X169149359Y-104941112D02*
X168482692Y-104941112D01*
X169149359Y-105369683D02*
X168625550Y-105369683D01*
X168625550Y-105369683D02*
X168530312Y-105322064D01*
X168530312Y-105322064D02*
X168482692Y-105226826D01*
X168482692Y-105226826D02*
X168482692Y-105083969D01*
X168482692Y-105083969D02*
X168530312Y-104988731D01*
X168530312Y-104988731D02*
X168577931Y-104941112D01*
X168530312Y-104036350D02*
X168482692Y-104131588D01*
X168482692Y-104131588D02*
X168482692Y-104322064D01*
X168482692Y-104322064D02*
X168530312Y-104417302D01*
X168530312Y-104417302D02*
X168577931Y-104464921D01*
X168577931Y-104464921D02*
X168673169Y-104512540D01*
X168673169Y-104512540D02*
X168958883Y-104512540D01*
X168958883Y-104512540D02*
X169054121Y-104464921D01*
X169054121Y-104464921D02*
X169101740Y-104417302D01*
X169101740Y-104417302D02*
X169149359Y-104322064D01*
X169149359Y-104322064D02*
X169149359Y-104131588D01*
X169149359Y-104131588D02*
X169101740Y-104036350D01*
X169149359Y-103750635D02*
X169149359Y-103369683D01*
X169482692Y-103607778D02*
X168625550Y-103607778D01*
X168625550Y-103607778D02*
X168530312Y-103560159D01*
X168530312Y-103560159D02*
X168482692Y-103464921D01*
X168482692Y-103464921D02*
X168482692Y-103369683D01*
X168482692Y-103036349D02*
X169149359Y-103036349D01*
X169482692Y-103036349D02*
X169435073Y-103083968D01*
X169435073Y-103083968D02*
X169387454Y-103036349D01*
X169387454Y-103036349D02*
X169435073Y-102988730D01*
X169435073Y-102988730D02*
X169482692Y-103036349D01*
X169482692Y-103036349D02*
X169387454Y-103036349D01*
X168482692Y-102417302D02*
X168530312Y-102512540D01*
X168530312Y-102512540D02*
X168577931Y-102560159D01*
X168577931Y-102560159D02*
X168673169Y-102607778D01*
X168673169Y-102607778D02*
X168958883Y-102607778D01*
X168958883Y-102607778D02*
X169054121Y-102560159D01*
X169054121Y-102560159D02*
X169101740Y-102512540D01*
X169101740Y-102512540D02*
X169149359Y-102417302D01*
X169149359Y-102417302D02*
X169149359Y-102274445D01*
X169149359Y-102274445D02*
X169101740Y-102179207D01*
X169101740Y-102179207D02*
X169054121Y-102131588D01*
X169054121Y-102131588D02*
X168958883Y-102083969D01*
X168958883Y-102083969D02*
X168673169Y-102083969D01*
X168673169Y-102083969D02*
X168577931Y-102131588D01*
X168577931Y-102131588D02*
X168530312Y-102179207D01*
X168530312Y-102179207D02*
X168482692Y-102274445D01*
X168482692Y-102274445D02*
X168482692Y-102417302D01*
X169149359Y-101655397D02*
X168482692Y-101655397D01*
X169054121Y-101655397D02*
X169101740Y-101607778D01*
X169101740Y-101607778D02*
X169149359Y-101512540D01*
X169149359Y-101512540D02*
X169149359Y-101369683D01*
X169149359Y-101369683D02*
X169101740Y-101274445D01*
X169101740Y-101274445D02*
X169006502Y-101226826D01*
X169006502Y-101226826D02*
X168482692Y-101226826D01*
X168577931Y-100750635D02*
X168530312Y-100703016D01*
X168530312Y-100703016D02*
X168482692Y-100750635D01*
X168482692Y-100750635D02*
X168530312Y-100798254D01*
X168530312Y-100798254D02*
X168577931Y-100750635D01*
X168577931Y-100750635D02*
X168482692Y-100750635D01*
X167872748Y-118036353D02*
X166872748Y-117798258D01*
X166872748Y-117798258D02*
X167587034Y-117607782D01*
X167587034Y-117607782D02*
X166872748Y-117417306D01*
X166872748Y-117417306D02*
X167872748Y-117179211D01*
X166872748Y-116798258D02*
X167539415Y-116798258D01*
X167872748Y-116798258D02*
X167825129Y-116845877D01*
X167825129Y-116845877D02*
X167777510Y-116798258D01*
X167777510Y-116798258D02*
X167825129Y-116750639D01*
X167825129Y-116750639D02*
X167872748Y-116798258D01*
X167872748Y-116798258D02*
X167777510Y-116798258D01*
X167539415Y-116464925D02*
X167539415Y-116083973D01*
X167872748Y-116322068D02*
X167015606Y-116322068D01*
X167015606Y-116322068D02*
X166920368Y-116274449D01*
X166920368Y-116274449D02*
X166872748Y-116179211D01*
X166872748Y-116179211D02*
X166872748Y-116083973D01*
X166872748Y-115750639D02*
X167872748Y-115750639D01*
X166872748Y-115322068D02*
X167396558Y-115322068D01*
X167396558Y-115322068D02*
X167491796Y-115369687D01*
X167491796Y-115369687D02*
X167539415Y-115464925D01*
X167539415Y-115464925D02*
X167539415Y-115607782D01*
X167539415Y-115607782D02*
X167491796Y-115703020D01*
X167491796Y-115703020D02*
X167444177Y-115750639D01*
X166920368Y-113703020D02*
X166872748Y-113798258D01*
X166872748Y-113798258D02*
X166872748Y-113988734D01*
X166872748Y-113988734D02*
X166920368Y-114083972D01*
X166920368Y-114083972D02*
X167015606Y-114131591D01*
X167015606Y-114131591D02*
X167396558Y-114131591D01*
X167396558Y-114131591D02*
X167491796Y-114083972D01*
X167491796Y-114083972D02*
X167539415Y-113988734D01*
X167539415Y-113988734D02*
X167539415Y-113798258D01*
X167539415Y-113798258D02*
X167491796Y-113703020D01*
X167491796Y-113703020D02*
X167396558Y-113655401D01*
X167396558Y-113655401D02*
X167301320Y-113655401D01*
X167301320Y-113655401D02*
X167206082Y-114131591D01*
X167539415Y-113322067D02*
X166872748Y-113083972D01*
X166872748Y-113083972D02*
X167539415Y-112845877D01*
X166920368Y-112083972D02*
X166872748Y-112179210D01*
X166872748Y-112179210D02*
X166872748Y-112369686D01*
X166872748Y-112369686D02*
X166920368Y-112464924D01*
X166920368Y-112464924D02*
X167015606Y-112512543D01*
X167015606Y-112512543D02*
X167396558Y-112512543D01*
X167396558Y-112512543D02*
X167491796Y-112464924D01*
X167491796Y-112464924D02*
X167539415Y-112369686D01*
X167539415Y-112369686D02*
X167539415Y-112179210D01*
X167539415Y-112179210D02*
X167491796Y-112083972D01*
X167491796Y-112083972D02*
X167396558Y-112036353D01*
X167396558Y-112036353D02*
X167301320Y-112036353D01*
X167301320Y-112036353D02*
X167206082Y-112512543D01*
X166872748Y-111607781D02*
X167539415Y-111607781D01*
X167348939Y-111607781D02*
X167444177Y-111560162D01*
X167444177Y-111560162D02*
X167491796Y-111512543D01*
X167491796Y-111512543D02*
X167539415Y-111417305D01*
X167539415Y-111417305D02*
X167539415Y-111322067D01*
X167539415Y-111083971D02*
X166872748Y-110845876D01*
X167539415Y-110607781D02*
X166872748Y-110845876D01*
X166872748Y-110845876D02*
X166634653Y-110941114D01*
X166634653Y-110941114D02*
X166587034Y-110988733D01*
X166587034Y-110988733D02*
X166539415Y-111083971D01*
X166920368Y-109036352D02*
X166872748Y-109131590D01*
X166872748Y-109131590D02*
X166872748Y-109322066D01*
X166872748Y-109322066D02*
X166920368Y-109417304D01*
X166920368Y-109417304D02*
X166967987Y-109464923D01*
X166967987Y-109464923D02*
X167063225Y-109512542D01*
X167063225Y-109512542D02*
X167348939Y-109512542D01*
X167348939Y-109512542D02*
X167444177Y-109464923D01*
X167444177Y-109464923D02*
X167491796Y-109417304D01*
X167491796Y-109417304D02*
X167539415Y-109322066D01*
X167539415Y-109322066D02*
X167539415Y-109131590D01*
X167539415Y-109131590D02*
X167491796Y-109036352D01*
X166872748Y-108464923D02*
X166920368Y-108560161D01*
X166920368Y-108560161D02*
X167015606Y-108607780D01*
X167015606Y-108607780D02*
X167872748Y-108607780D01*
X166872748Y-107941113D02*
X166920368Y-108036351D01*
X166920368Y-108036351D02*
X166967987Y-108083970D01*
X166967987Y-108083970D02*
X167063225Y-108131589D01*
X167063225Y-108131589D02*
X167348939Y-108131589D01*
X167348939Y-108131589D02*
X167444177Y-108083970D01*
X167444177Y-108083970D02*
X167491796Y-108036351D01*
X167491796Y-108036351D02*
X167539415Y-107941113D01*
X167539415Y-107941113D02*
X167539415Y-107798256D01*
X167539415Y-107798256D02*
X167491796Y-107703018D01*
X167491796Y-107703018D02*
X167444177Y-107655399D01*
X167444177Y-107655399D02*
X167348939Y-107607780D01*
X167348939Y-107607780D02*
X167063225Y-107607780D01*
X167063225Y-107607780D02*
X166967987Y-107655399D01*
X166967987Y-107655399D02*
X166920368Y-107703018D01*
X166920368Y-107703018D02*
X166872748Y-107798256D01*
X166872748Y-107798256D02*
X166872748Y-107941113D01*
X166920368Y-106750637D02*
X166872748Y-106845875D01*
X166872748Y-106845875D02*
X166872748Y-107036351D01*
X166872748Y-107036351D02*
X166920368Y-107131589D01*
X166920368Y-107131589D02*
X166967987Y-107179208D01*
X166967987Y-107179208D02*
X167063225Y-107226827D01*
X167063225Y-107226827D02*
X167348939Y-107226827D01*
X167348939Y-107226827D02*
X167444177Y-107179208D01*
X167444177Y-107179208D02*
X167491796Y-107131589D01*
X167491796Y-107131589D02*
X167539415Y-107036351D01*
X167539415Y-107036351D02*
X167539415Y-106845875D01*
X167539415Y-106845875D02*
X167491796Y-106750637D01*
X166872748Y-106322065D02*
X167872748Y-106322065D01*
X167253701Y-106226827D02*
X166872748Y-105941113D01*
X167539415Y-105941113D02*
X167158463Y-106322065D01*
X167539415Y-104750636D02*
X166539415Y-104750636D01*
X167491796Y-104750636D02*
X167539415Y-104655398D01*
X167539415Y-104655398D02*
X167539415Y-104464922D01*
X167539415Y-104464922D02*
X167491796Y-104369684D01*
X167491796Y-104369684D02*
X167444177Y-104322065D01*
X167444177Y-104322065D02*
X167348939Y-104274446D01*
X167348939Y-104274446D02*
X167063225Y-104274446D01*
X167063225Y-104274446D02*
X166967987Y-104322065D01*
X166967987Y-104322065D02*
X166920368Y-104369684D01*
X166920368Y-104369684D02*
X166872748Y-104464922D01*
X166872748Y-104464922D02*
X166872748Y-104655398D01*
X166872748Y-104655398D02*
X166920368Y-104750636D01*
X167539415Y-103417303D02*
X166872748Y-103417303D01*
X167539415Y-103845874D02*
X167015606Y-103845874D01*
X167015606Y-103845874D02*
X166920368Y-103798255D01*
X166920368Y-103798255D02*
X166872748Y-103703017D01*
X166872748Y-103703017D02*
X166872748Y-103560160D01*
X166872748Y-103560160D02*
X166920368Y-103464922D01*
X166920368Y-103464922D02*
X166967987Y-103417303D01*
X166872748Y-102798255D02*
X166920368Y-102893493D01*
X166920368Y-102893493D02*
X167015606Y-102941112D01*
X167015606Y-102941112D02*
X167872748Y-102941112D01*
X166920368Y-102464921D02*
X166872748Y-102369683D01*
X166872748Y-102369683D02*
X166872748Y-102179207D01*
X166872748Y-102179207D02*
X166920368Y-102083969D01*
X166920368Y-102083969D02*
X167015606Y-102036350D01*
X167015606Y-102036350D02*
X167063225Y-102036350D01*
X167063225Y-102036350D02*
X167158463Y-102083969D01*
X167158463Y-102083969D02*
X167206082Y-102179207D01*
X167206082Y-102179207D02*
X167206082Y-102322064D01*
X167206082Y-102322064D02*
X167253701Y-102417302D01*
X167253701Y-102417302D02*
X167348939Y-102464921D01*
X167348939Y-102464921D02*
X167396558Y-102464921D01*
X167396558Y-102464921D02*
X167491796Y-102417302D01*
X167491796Y-102417302D02*
X167539415Y-102322064D01*
X167539415Y-102322064D02*
X167539415Y-102179207D01*
X167539415Y-102179207D02*
X167491796Y-102083969D01*
X166920368Y-101226826D02*
X166872748Y-101322064D01*
X166872748Y-101322064D02*
X166872748Y-101512540D01*
X166872748Y-101512540D02*
X166920368Y-101607778D01*
X166920368Y-101607778D02*
X167015606Y-101655397D01*
X167015606Y-101655397D02*
X167396558Y-101655397D01*
X167396558Y-101655397D02*
X167491796Y-101607778D01*
X167491796Y-101607778D02*
X167539415Y-101512540D01*
X167539415Y-101512540D02*
X167539415Y-101322064D01*
X167539415Y-101322064D02*
X167491796Y-101226826D01*
X167491796Y-101226826D02*
X167396558Y-101179207D01*
X167396558Y-101179207D02*
X167301320Y-101179207D01*
X167301320Y-101179207D02*
X167206082Y-101655397D01*
X166920368Y-100703016D02*
X166872748Y-100703016D01*
X166872748Y-100703016D02*
X166777510Y-100750635D01*
X166777510Y-100750635D02*
X166729891Y-100798254D01*
X167539415Y-99655397D02*
X167539415Y-99274445D01*
X167872748Y-99512540D02*
X167015606Y-99512540D01*
X167015606Y-99512540D02*
X166920368Y-99464921D01*
X166920368Y-99464921D02*
X166872748Y-99369683D01*
X166872748Y-99369683D02*
X166872748Y-99274445D01*
X166872748Y-98941111D02*
X167872748Y-98941111D01*
X166872748Y-98512540D02*
X167396558Y-98512540D01*
X167396558Y-98512540D02*
X167491796Y-98560159D01*
X167491796Y-98560159D02*
X167539415Y-98655397D01*
X167539415Y-98655397D02*
X167539415Y-98798254D01*
X167539415Y-98798254D02*
X167491796Y-98893492D01*
X167491796Y-98893492D02*
X167444177Y-98941111D01*
X166920368Y-97655397D02*
X166872748Y-97750635D01*
X166872748Y-97750635D02*
X166872748Y-97941111D01*
X166872748Y-97941111D02*
X166920368Y-98036349D01*
X166920368Y-98036349D02*
X167015606Y-98083968D01*
X167015606Y-98083968D02*
X167396558Y-98083968D01*
X167396558Y-98083968D02*
X167491796Y-98036349D01*
X167491796Y-98036349D02*
X167539415Y-97941111D01*
X167539415Y-97941111D02*
X167539415Y-97750635D01*
X167539415Y-97750635D02*
X167491796Y-97655397D01*
X167491796Y-97655397D02*
X167396558Y-97607778D01*
X167396558Y-97607778D02*
X167301320Y-97607778D01*
X167301320Y-97607778D02*
X167206082Y-98083968D01*
X166872748Y-95988730D02*
X167396558Y-95988730D01*
X167396558Y-95988730D02*
X167491796Y-96036349D01*
X167491796Y-96036349D02*
X167539415Y-96131587D01*
X167539415Y-96131587D02*
X167539415Y-96322063D01*
X167539415Y-96322063D02*
X167491796Y-96417301D01*
X166920368Y-95988730D02*
X166872748Y-96083968D01*
X166872748Y-96083968D02*
X166872748Y-96322063D01*
X166872748Y-96322063D02*
X166920368Y-96417301D01*
X166920368Y-96417301D02*
X167015606Y-96464920D01*
X167015606Y-96464920D02*
X167110844Y-96464920D01*
X167110844Y-96464920D02*
X167206082Y-96417301D01*
X167206082Y-96417301D02*
X167253701Y-96322063D01*
X167253701Y-96322063D02*
X167253701Y-96083968D01*
X167253701Y-96083968D02*
X167301320Y-95988730D01*
X166872748Y-95083968D02*
X167872748Y-95083968D01*
X166920368Y-95083968D02*
X166872748Y-95179206D01*
X166872748Y-95179206D02*
X166872748Y-95369682D01*
X166872748Y-95369682D02*
X166920368Y-95464920D01*
X166920368Y-95464920D02*
X166967987Y-95512539D01*
X166967987Y-95512539D02*
X167063225Y-95560158D01*
X167063225Y-95560158D02*
X167348939Y-95560158D01*
X167348939Y-95560158D02*
X167444177Y-95512539D01*
X167444177Y-95512539D02*
X167491796Y-95464920D01*
X167491796Y-95464920D02*
X167539415Y-95369682D01*
X167539415Y-95369682D02*
X167539415Y-95179206D01*
X167539415Y-95179206D02*
X167491796Y-95083968D01*
X166872748Y-94179206D02*
X167872748Y-94179206D01*
X166920368Y-94179206D02*
X166872748Y-94274444D01*
X166872748Y-94274444D02*
X166872748Y-94464920D01*
X166872748Y-94464920D02*
X166920368Y-94560158D01*
X166920368Y-94560158D02*
X166967987Y-94607777D01*
X166967987Y-94607777D02*
X167063225Y-94655396D01*
X167063225Y-94655396D02*
X167348939Y-94655396D01*
X167348939Y-94655396D02*
X167444177Y-94607777D01*
X167444177Y-94607777D02*
X167491796Y-94560158D01*
X167491796Y-94560158D02*
X167539415Y-94464920D01*
X167539415Y-94464920D02*
X167539415Y-94274444D01*
X167539415Y-94274444D02*
X167491796Y-94179206D01*
X166872748Y-93703015D02*
X167539415Y-93703015D01*
X167348939Y-93703015D02*
X167444177Y-93655396D01*
X167444177Y-93655396D02*
X167491796Y-93607777D01*
X167491796Y-93607777D02*
X167539415Y-93512539D01*
X167539415Y-93512539D02*
X167539415Y-93417301D01*
X166920368Y-92703015D02*
X166872748Y-92798253D01*
X166872748Y-92798253D02*
X166872748Y-92988729D01*
X166872748Y-92988729D02*
X166920368Y-93083967D01*
X166920368Y-93083967D02*
X167015606Y-93131586D01*
X167015606Y-93131586D02*
X167396558Y-93131586D01*
X167396558Y-93131586D02*
X167491796Y-93083967D01*
X167491796Y-93083967D02*
X167539415Y-92988729D01*
X167539415Y-92988729D02*
X167539415Y-92798253D01*
X167539415Y-92798253D02*
X167491796Y-92703015D01*
X167491796Y-92703015D02*
X167396558Y-92655396D01*
X167396558Y-92655396D02*
X167301320Y-92655396D01*
X167301320Y-92655396D02*
X167206082Y-93131586D01*
X166920368Y-92274443D02*
X166872748Y-92179205D01*
X166872748Y-92179205D02*
X166872748Y-91988729D01*
X166872748Y-91988729D02*
X166920368Y-91893491D01*
X166920368Y-91893491D02*
X167015606Y-91845872D01*
X167015606Y-91845872D02*
X167063225Y-91845872D01*
X167063225Y-91845872D02*
X167158463Y-91893491D01*
X167158463Y-91893491D02*
X167206082Y-91988729D01*
X167206082Y-91988729D02*
X167206082Y-92131586D01*
X167206082Y-92131586D02*
X167253701Y-92226824D01*
X167253701Y-92226824D02*
X167348939Y-92274443D01*
X167348939Y-92274443D02*
X167396558Y-92274443D01*
X167396558Y-92274443D02*
X167491796Y-92226824D01*
X167491796Y-92226824D02*
X167539415Y-92131586D01*
X167539415Y-92131586D02*
X167539415Y-91988729D01*
X167539415Y-91988729D02*
X167491796Y-91893491D01*
X166920368Y-91464919D02*
X166872748Y-91369681D01*
X166872748Y-91369681D02*
X166872748Y-91179205D01*
X166872748Y-91179205D02*
X166920368Y-91083967D01*
X166920368Y-91083967D02*
X167015606Y-91036348D01*
X167015606Y-91036348D02*
X167063225Y-91036348D01*
X167063225Y-91036348D02*
X167158463Y-91083967D01*
X167158463Y-91083967D02*
X167206082Y-91179205D01*
X167206082Y-91179205D02*
X167206082Y-91322062D01*
X167206082Y-91322062D02*
X167253701Y-91417300D01*
X167253701Y-91417300D02*
X167348939Y-91464919D01*
X167348939Y-91464919D02*
X167396558Y-91464919D01*
X167396558Y-91464919D02*
X167491796Y-91417300D01*
X167491796Y-91417300D02*
X167539415Y-91322062D01*
X167539415Y-91322062D02*
X167539415Y-91179205D01*
X167539415Y-91179205D02*
X167491796Y-91083967D01*
X166872748Y-89845871D02*
X167539415Y-89845871D01*
X167872748Y-89845871D02*
X167825129Y-89893490D01*
X167825129Y-89893490D02*
X167777510Y-89845871D01*
X167777510Y-89845871D02*
X167825129Y-89798252D01*
X167825129Y-89798252D02*
X167872748Y-89845871D01*
X167872748Y-89845871D02*
X167777510Y-89845871D01*
X166920368Y-89417300D02*
X166872748Y-89322062D01*
X166872748Y-89322062D02*
X166872748Y-89131586D01*
X166872748Y-89131586D02*
X166920368Y-89036348D01*
X166920368Y-89036348D02*
X167015606Y-88988729D01*
X167015606Y-88988729D02*
X167063225Y-88988729D01*
X167063225Y-88988729D02*
X167158463Y-89036348D01*
X167158463Y-89036348D02*
X167206082Y-89131586D01*
X167206082Y-89131586D02*
X167206082Y-89274443D01*
X167206082Y-89274443D02*
X167253701Y-89369681D01*
X167253701Y-89369681D02*
X167348939Y-89417300D01*
X167348939Y-89417300D02*
X167396558Y-89417300D01*
X167396558Y-89417300D02*
X167491796Y-89369681D01*
X167491796Y-89369681D02*
X167539415Y-89274443D01*
X167539415Y-89274443D02*
X167539415Y-89131586D01*
X167539415Y-89131586D02*
X167491796Y-89036348D01*
X166872748Y-87798252D02*
X167539415Y-87798252D01*
X167872748Y-87798252D02*
X167825129Y-87845871D01*
X167825129Y-87845871D02*
X167777510Y-87798252D01*
X167777510Y-87798252D02*
X167825129Y-87750633D01*
X167825129Y-87750633D02*
X167872748Y-87798252D01*
X167872748Y-87798252D02*
X167777510Y-87798252D01*
X167539415Y-87322062D02*
X166872748Y-87322062D01*
X167444177Y-87322062D02*
X167491796Y-87274443D01*
X167491796Y-87274443D02*
X167539415Y-87179205D01*
X167539415Y-87179205D02*
X167539415Y-87036348D01*
X167539415Y-87036348D02*
X167491796Y-86941110D01*
X167491796Y-86941110D02*
X167396558Y-86893491D01*
X167396558Y-86893491D02*
X166872748Y-86893491D01*
X166920368Y-85988729D02*
X166872748Y-86083967D01*
X166872748Y-86083967D02*
X166872748Y-86274443D01*
X166872748Y-86274443D02*
X166920368Y-86369681D01*
X166920368Y-86369681D02*
X166967987Y-86417300D01*
X166967987Y-86417300D02*
X167063225Y-86464919D01*
X167063225Y-86464919D02*
X167348939Y-86464919D01*
X167348939Y-86464919D02*
X167444177Y-86417300D01*
X167444177Y-86417300D02*
X167491796Y-86369681D01*
X167491796Y-86369681D02*
X167539415Y-86274443D01*
X167539415Y-86274443D02*
X167539415Y-86083967D01*
X167539415Y-86083967D02*
X167491796Y-85988729D01*
X166872748Y-85560157D02*
X167539415Y-85560157D01*
X167348939Y-85560157D02*
X167444177Y-85512538D01*
X167444177Y-85512538D02*
X167491796Y-85464919D01*
X167491796Y-85464919D02*
X167539415Y-85369681D01*
X167539415Y-85369681D02*
X167539415Y-85274443D01*
X166920368Y-84560157D02*
X166872748Y-84655395D01*
X166872748Y-84655395D02*
X166872748Y-84845871D01*
X166872748Y-84845871D02*
X166920368Y-84941109D01*
X166920368Y-84941109D02*
X167015606Y-84988728D01*
X167015606Y-84988728D02*
X167396558Y-84988728D01*
X167396558Y-84988728D02*
X167491796Y-84941109D01*
X167491796Y-84941109D02*
X167539415Y-84845871D01*
X167539415Y-84845871D02*
X167539415Y-84655395D01*
X167539415Y-84655395D02*
X167491796Y-84560157D01*
X167491796Y-84560157D02*
X167396558Y-84512538D01*
X167396558Y-84512538D02*
X167301320Y-84512538D01*
X167301320Y-84512538D02*
X167206082Y-84988728D01*
X166872748Y-84083966D02*
X167539415Y-84083966D01*
X167444177Y-84083966D02*
X167491796Y-84036347D01*
X167491796Y-84036347D02*
X167539415Y-83941109D01*
X167539415Y-83941109D02*
X167539415Y-83798252D01*
X167539415Y-83798252D02*
X167491796Y-83703014D01*
X167491796Y-83703014D02*
X167396558Y-83655395D01*
X167396558Y-83655395D02*
X166872748Y-83655395D01*
X167396558Y-83655395D02*
X167491796Y-83607776D01*
X167491796Y-83607776D02*
X167539415Y-83512538D01*
X167539415Y-83512538D02*
X167539415Y-83369681D01*
X167539415Y-83369681D02*
X167491796Y-83274442D01*
X167491796Y-83274442D02*
X167396558Y-83226823D01*
X167396558Y-83226823D02*
X166872748Y-83226823D01*
X166920368Y-82369681D02*
X166872748Y-82464919D01*
X166872748Y-82464919D02*
X166872748Y-82655395D01*
X166872748Y-82655395D02*
X166920368Y-82750633D01*
X166920368Y-82750633D02*
X167015606Y-82798252D01*
X167015606Y-82798252D02*
X167396558Y-82798252D01*
X167396558Y-82798252D02*
X167491796Y-82750633D01*
X167491796Y-82750633D02*
X167539415Y-82655395D01*
X167539415Y-82655395D02*
X167539415Y-82464919D01*
X167539415Y-82464919D02*
X167491796Y-82369681D01*
X167491796Y-82369681D02*
X167396558Y-82322062D01*
X167396558Y-82322062D02*
X167301320Y-82322062D01*
X167301320Y-82322062D02*
X167206082Y-82798252D01*
X167539415Y-81893490D02*
X166872748Y-81893490D01*
X167444177Y-81893490D02*
X167491796Y-81845871D01*
X167491796Y-81845871D02*
X167539415Y-81750633D01*
X167539415Y-81750633D02*
X167539415Y-81607776D01*
X167539415Y-81607776D02*
X167491796Y-81512538D01*
X167491796Y-81512538D02*
X167396558Y-81464919D01*
X167396558Y-81464919D02*
X166872748Y-81464919D01*
X167539415Y-81131585D02*
X167539415Y-80750633D01*
X167872748Y-80988728D02*
X167015606Y-80988728D01*
X167015606Y-80988728D02*
X166920368Y-80941109D01*
X166920368Y-80941109D02*
X166872748Y-80845871D01*
X166872748Y-80845871D02*
X166872748Y-80750633D01*
X166920368Y-80036347D02*
X166872748Y-80131585D01*
X166872748Y-80131585D02*
X166872748Y-80322061D01*
X166872748Y-80322061D02*
X166920368Y-80417299D01*
X166920368Y-80417299D02*
X167015606Y-80464918D01*
X167015606Y-80464918D02*
X167396558Y-80464918D01*
X167396558Y-80464918D02*
X167491796Y-80417299D01*
X167491796Y-80417299D02*
X167539415Y-80322061D01*
X167539415Y-80322061D02*
X167539415Y-80131585D01*
X167539415Y-80131585D02*
X167491796Y-80036347D01*
X167491796Y-80036347D02*
X167396558Y-79988728D01*
X167396558Y-79988728D02*
X167301320Y-79988728D01*
X167301320Y-79988728D02*
X167206082Y-80464918D01*
X166872748Y-79131585D02*
X167872748Y-79131585D01*
X166920368Y-79131585D02*
X166872748Y-79226823D01*
X166872748Y-79226823D02*
X166872748Y-79417299D01*
X166872748Y-79417299D02*
X166920368Y-79512537D01*
X166920368Y-79512537D02*
X166967987Y-79560156D01*
X166967987Y-79560156D02*
X167063225Y-79607775D01*
X167063225Y-79607775D02*
X167348939Y-79607775D01*
X167348939Y-79607775D02*
X167444177Y-79560156D01*
X167444177Y-79560156D02*
X167491796Y-79512537D01*
X167491796Y-79512537D02*
X167539415Y-79417299D01*
X167539415Y-79417299D02*
X167539415Y-79226823D01*
X167539415Y-79226823D02*
X167491796Y-79131585D01*
X165262804Y-117941115D02*
X166262804Y-117941115D01*
X165881852Y-117941115D02*
X165929471Y-117845877D01*
X165929471Y-117845877D02*
X165929471Y-117655401D01*
X165929471Y-117655401D02*
X165881852Y-117560163D01*
X165881852Y-117560163D02*
X165834233Y-117512544D01*
X165834233Y-117512544D02*
X165738995Y-117464925D01*
X165738995Y-117464925D02*
X165453281Y-117464925D01*
X165453281Y-117464925D02*
X165358043Y-117512544D01*
X165358043Y-117512544D02*
X165310424Y-117560163D01*
X165310424Y-117560163D02*
X165262804Y-117655401D01*
X165262804Y-117655401D02*
X165262804Y-117845877D01*
X165262804Y-117845877D02*
X165310424Y-117941115D01*
X165929471Y-117131591D02*
X165262804Y-116893496D01*
X165929471Y-116655401D02*
X165262804Y-116893496D01*
X165262804Y-116893496D02*
X165024709Y-116988734D01*
X165024709Y-116988734D02*
X164977090Y-117036353D01*
X164977090Y-117036353D02*
X164929471Y-117131591D01*
X165262804Y-115369686D02*
X165310424Y-115464924D01*
X165310424Y-115464924D02*
X165358043Y-115512543D01*
X165358043Y-115512543D02*
X165453281Y-115560162D01*
X165453281Y-115560162D02*
X165738995Y-115560162D01*
X165738995Y-115560162D02*
X165834233Y-115512543D01*
X165834233Y-115512543D02*
X165881852Y-115464924D01*
X165881852Y-115464924D02*
X165929471Y-115369686D01*
X165929471Y-115369686D02*
X165929471Y-115226829D01*
X165929471Y-115226829D02*
X165881852Y-115131591D01*
X165881852Y-115131591D02*
X165834233Y-115083972D01*
X165834233Y-115083972D02*
X165738995Y-115036353D01*
X165738995Y-115036353D02*
X165453281Y-115036353D01*
X165453281Y-115036353D02*
X165358043Y-115083972D01*
X165358043Y-115083972D02*
X165310424Y-115131591D01*
X165310424Y-115131591D02*
X165262804Y-115226829D01*
X165262804Y-115226829D02*
X165262804Y-115369686D01*
X165929471Y-114607781D02*
X165262804Y-114607781D01*
X165834233Y-114607781D02*
X165881852Y-114560162D01*
X165881852Y-114560162D02*
X165929471Y-114464924D01*
X165929471Y-114464924D02*
X165929471Y-114322067D01*
X165929471Y-114322067D02*
X165881852Y-114226829D01*
X165881852Y-114226829D02*
X165786614Y-114179210D01*
X165786614Y-114179210D02*
X165262804Y-114179210D01*
X165310424Y-113322067D02*
X165262804Y-113417305D01*
X165262804Y-113417305D02*
X165262804Y-113607781D01*
X165262804Y-113607781D02*
X165310424Y-113703019D01*
X165310424Y-113703019D02*
X165405662Y-113750638D01*
X165405662Y-113750638D02*
X165786614Y-113750638D01*
X165786614Y-113750638D02*
X165881852Y-113703019D01*
X165881852Y-113703019D02*
X165929471Y-113607781D01*
X165929471Y-113607781D02*
X165929471Y-113417305D01*
X165929471Y-113417305D02*
X165881852Y-113322067D01*
X165881852Y-113322067D02*
X165786614Y-113274448D01*
X165786614Y-113274448D02*
X165691376Y-113274448D01*
X165691376Y-113274448D02*
X165596138Y-113750638D01*
X165643757Y-112083971D02*
X165643757Y-111322067D01*
X165929471Y-110941114D02*
X165262804Y-110703019D01*
X165262804Y-110703019D02*
X165929471Y-110464924D01*
X165262804Y-110083971D02*
X165929471Y-110083971D01*
X166262804Y-110083971D02*
X166215185Y-110131590D01*
X166215185Y-110131590D02*
X166167566Y-110083971D01*
X166167566Y-110083971D02*
X166215185Y-110036352D01*
X166215185Y-110036352D02*
X166262804Y-110083971D01*
X166262804Y-110083971D02*
X166167566Y-110083971D01*
X165262804Y-109179210D02*
X165786614Y-109179210D01*
X165786614Y-109179210D02*
X165881852Y-109226829D01*
X165881852Y-109226829D02*
X165929471Y-109322067D01*
X165929471Y-109322067D02*
X165929471Y-109512543D01*
X165929471Y-109512543D02*
X165881852Y-109607781D01*
X165310424Y-109179210D02*
X165262804Y-109274448D01*
X165262804Y-109274448D02*
X165262804Y-109512543D01*
X165262804Y-109512543D02*
X165310424Y-109607781D01*
X165310424Y-109607781D02*
X165405662Y-109655400D01*
X165405662Y-109655400D02*
X165500900Y-109655400D01*
X165500900Y-109655400D02*
X165596138Y-109607781D01*
X165596138Y-109607781D02*
X165643757Y-109512543D01*
X165643757Y-109512543D02*
X165643757Y-109274448D01*
X165643757Y-109274448D02*
X165691376Y-109179210D01*
X165929471Y-108083971D02*
X165929471Y-107703019D01*
X166262804Y-107941114D02*
X165405662Y-107941114D01*
X165405662Y-107941114D02*
X165310424Y-107893495D01*
X165310424Y-107893495D02*
X165262804Y-107798257D01*
X165262804Y-107798257D02*
X165262804Y-107703019D01*
X165262804Y-107369685D02*
X166262804Y-107369685D01*
X165262804Y-106941114D02*
X165786614Y-106941114D01*
X165786614Y-106941114D02*
X165881852Y-106988733D01*
X165881852Y-106988733D02*
X165929471Y-107083971D01*
X165929471Y-107083971D02*
X165929471Y-107226828D01*
X165929471Y-107226828D02*
X165881852Y-107322066D01*
X165881852Y-107322066D02*
X165834233Y-107369685D01*
X165310424Y-106083971D02*
X165262804Y-106179209D01*
X165262804Y-106179209D02*
X165262804Y-106369685D01*
X165262804Y-106369685D02*
X165310424Y-106464923D01*
X165310424Y-106464923D02*
X165405662Y-106512542D01*
X165405662Y-106512542D02*
X165786614Y-106512542D01*
X165786614Y-106512542D02*
X165881852Y-106464923D01*
X165881852Y-106464923D02*
X165929471Y-106369685D01*
X165929471Y-106369685D02*
X165929471Y-106179209D01*
X165929471Y-106179209D02*
X165881852Y-106083971D01*
X165881852Y-106083971D02*
X165786614Y-106036352D01*
X165786614Y-106036352D02*
X165691376Y-106036352D01*
X165691376Y-106036352D02*
X165596138Y-106512542D01*
X165548519Y-104893494D02*
X165548519Y-104417304D01*
X165262804Y-104988732D02*
X166262804Y-104655399D01*
X166262804Y-104655399D02*
X165262804Y-104322066D01*
X165262804Y-103560161D02*
X166262804Y-103560161D01*
X165310424Y-103560161D02*
X165262804Y-103655399D01*
X165262804Y-103655399D02*
X165262804Y-103845875D01*
X165262804Y-103845875D02*
X165310424Y-103941113D01*
X165310424Y-103941113D02*
X165358043Y-103988732D01*
X165358043Y-103988732D02*
X165453281Y-104036351D01*
X165453281Y-104036351D02*
X165738995Y-104036351D01*
X165738995Y-104036351D02*
X165834233Y-103988732D01*
X165834233Y-103988732D02*
X165881852Y-103941113D01*
X165881852Y-103941113D02*
X165929471Y-103845875D01*
X165929471Y-103845875D02*
X165929471Y-103655399D01*
X165929471Y-103655399D02*
X165881852Y-103560161D01*
X165262804Y-102655399D02*
X166262804Y-102655399D01*
X165310424Y-102655399D02*
X165262804Y-102750637D01*
X165262804Y-102750637D02*
X165262804Y-102941113D01*
X165262804Y-102941113D02*
X165310424Y-103036351D01*
X165310424Y-103036351D02*
X165358043Y-103083970D01*
X165358043Y-103083970D02*
X165453281Y-103131589D01*
X165453281Y-103131589D02*
X165738995Y-103131589D01*
X165738995Y-103131589D02*
X165834233Y-103083970D01*
X165834233Y-103083970D02*
X165881852Y-103036351D01*
X165881852Y-103036351D02*
X165929471Y-102941113D01*
X165929471Y-102941113D02*
X165929471Y-102750637D01*
X165929471Y-102750637D02*
X165881852Y-102655399D01*
X165310424Y-101798256D02*
X165262804Y-101893494D01*
X165262804Y-101893494D02*
X165262804Y-102083970D01*
X165262804Y-102083970D02*
X165310424Y-102179208D01*
X165310424Y-102179208D02*
X165405662Y-102226827D01*
X165405662Y-102226827D02*
X165786614Y-102226827D01*
X165786614Y-102226827D02*
X165881852Y-102179208D01*
X165881852Y-102179208D02*
X165929471Y-102083970D01*
X165929471Y-102083970D02*
X165929471Y-101893494D01*
X165929471Y-101893494D02*
X165881852Y-101798256D01*
X165881852Y-101798256D02*
X165786614Y-101750637D01*
X165786614Y-101750637D02*
X165691376Y-101750637D01*
X165691376Y-101750637D02*
X165596138Y-102226827D01*
X165262804Y-101322065D02*
X165929471Y-101322065D01*
X165738995Y-101322065D02*
X165834233Y-101274446D01*
X165834233Y-101274446D02*
X165881852Y-101226827D01*
X165881852Y-101226827D02*
X165929471Y-101131589D01*
X165929471Y-101131589D02*
X165929471Y-101036351D01*
X165643757Y-100703017D02*
X165643757Y-99941113D01*
X165929471Y-98845874D02*
X165929471Y-98464922D01*
X166262804Y-98703017D02*
X165405662Y-98703017D01*
X165405662Y-98703017D02*
X165310424Y-98655398D01*
X165310424Y-98655398D02*
X165262804Y-98560160D01*
X165262804Y-98560160D02*
X165262804Y-98464922D01*
X165262804Y-97988731D02*
X165310424Y-98083969D01*
X165310424Y-98083969D02*
X165358043Y-98131588D01*
X165358043Y-98131588D02*
X165453281Y-98179207D01*
X165453281Y-98179207D02*
X165738995Y-98179207D01*
X165738995Y-98179207D02*
X165834233Y-98131588D01*
X165834233Y-98131588D02*
X165881852Y-98083969D01*
X165881852Y-98083969D02*
X165929471Y-97988731D01*
X165929471Y-97988731D02*
X165929471Y-97845874D01*
X165929471Y-97845874D02*
X165881852Y-97750636D01*
X165881852Y-97750636D02*
X165834233Y-97703017D01*
X165834233Y-97703017D02*
X165738995Y-97655398D01*
X165738995Y-97655398D02*
X165453281Y-97655398D01*
X165453281Y-97655398D02*
X165358043Y-97703017D01*
X165358043Y-97703017D02*
X165310424Y-97750636D01*
X165310424Y-97750636D02*
X165262804Y-97845874D01*
X165262804Y-97845874D02*
X165262804Y-97988731D01*
X165262804Y-96464921D02*
X165929471Y-96464921D01*
X165738995Y-96464921D02*
X165834233Y-96417302D01*
X165834233Y-96417302D02*
X165881852Y-96369683D01*
X165881852Y-96369683D02*
X165929471Y-96274445D01*
X165929471Y-96274445D02*
X165929471Y-96179207D01*
X165310424Y-95464921D02*
X165262804Y-95560159D01*
X165262804Y-95560159D02*
X165262804Y-95750635D01*
X165262804Y-95750635D02*
X165310424Y-95845873D01*
X165310424Y-95845873D02*
X165405662Y-95893492D01*
X165405662Y-95893492D02*
X165786614Y-95893492D01*
X165786614Y-95893492D02*
X165881852Y-95845873D01*
X165881852Y-95845873D02*
X165929471Y-95750635D01*
X165929471Y-95750635D02*
X165929471Y-95560159D01*
X165929471Y-95560159D02*
X165881852Y-95464921D01*
X165881852Y-95464921D02*
X165786614Y-95417302D01*
X165786614Y-95417302D02*
X165691376Y-95417302D01*
X165691376Y-95417302D02*
X165596138Y-95893492D01*
X165262804Y-94560159D02*
X165786614Y-94560159D01*
X165786614Y-94560159D02*
X165881852Y-94607778D01*
X165881852Y-94607778D02*
X165929471Y-94703016D01*
X165929471Y-94703016D02*
X165929471Y-94893492D01*
X165929471Y-94893492D02*
X165881852Y-94988730D01*
X165310424Y-94560159D02*
X165262804Y-94655397D01*
X165262804Y-94655397D02*
X165262804Y-94893492D01*
X165262804Y-94893492D02*
X165310424Y-94988730D01*
X165310424Y-94988730D02*
X165405662Y-95036349D01*
X165405662Y-95036349D02*
X165500900Y-95036349D01*
X165500900Y-95036349D02*
X165596138Y-94988730D01*
X165596138Y-94988730D02*
X165643757Y-94893492D01*
X165643757Y-94893492D02*
X165643757Y-94655397D01*
X165643757Y-94655397D02*
X165691376Y-94560159D01*
X165262804Y-93655397D02*
X166262804Y-93655397D01*
X165310424Y-93655397D02*
X165262804Y-93750635D01*
X165262804Y-93750635D02*
X165262804Y-93941111D01*
X165262804Y-93941111D02*
X165310424Y-94036349D01*
X165310424Y-94036349D02*
X165358043Y-94083968D01*
X165358043Y-94083968D02*
X165453281Y-94131587D01*
X165453281Y-94131587D02*
X165738995Y-94131587D01*
X165738995Y-94131587D02*
X165834233Y-94083968D01*
X165834233Y-94083968D02*
X165881852Y-94036349D01*
X165881852Y-94036349D02*
X165929471Y-93941111D01*
X165929471Y-93941111D02*
X165929471Y-93750635D01*
X165929471Y-93750635D02*
X165881852Y-93655397D01*
X165929471Y-92560158D02*
X165929471Y-92179206D01*
X166262804Y-92417301D02*
X165405662Y-92417301D01*
X165405662Y-92417301D02*
X165310424Y-92369682D01*
X165310424Y-92369682D02*
X165262804Y-92274444D01*
X165262804Y-92274444D02*
X165262804Y-92179206D01*
X165262804Y-91845872D02*
X166262804Y-91845872D01*
X165262804Y-91417301D02*
X165786614Y-91417301D01*
X165786614Y-91417301D02*
X165881852Y-91464920D01*
X165881852Y-91464920D02*
X165929471Y-91560158D01*
X165929471Y-91560158D02*
X165929471Y-91703015D01*
X165929471Y-91703015D02*
X165881852Y-91798253D01*
X165881852Y-91798253D02*
X165834233Y-91845872D01*
X165262804Y-90941110D02*
X165929471Y-90941110D01*
X165738995Y-90941110D02*
X165834233Y-90893491D01*
X165834233Y-90893491D02*
X165881852Y-90845872D01*
X165881852Y-90845872D02*
X165929471Y-90750634D01*
X165929471Y-90750634D02*
X165929471Y-90655396D01*
X165262804Y-90179205D02*
X165310424Y-90274443D01*
X165310424Y-90274443D02*
X165358043Y-90322062D01*
X165358043Y-90322062D02*
X165453281Y-90369681D01*
X165453281Y-90369681D02*
X165738995Y-90369681D01*
X165738995Y-90369681D02*
X165834233Y-90322062D01*
X165834233Y-90322062D02*
X165881852Y-90274443D01*
X165881852Y-90274443D02*
X165929471Y-90179205D01*
X165929471Y-90179205D02*
X165929471Y-90036348D01*
X165929471Y-90036348D02*
X165881852Y-89941110D01*
X165881852Y-89941110D02*
X165834233Y-89893491D01*
X165834233Y-89893491D02*
X165738995Y-89845872D01*
X165738995Y-89845872D02*
X165453281Y-89845872D01*
X165453281Y-89845872D02*
X165358043Y-89893491D01*
X165358043Y-89893491D02*
X165310424Y-89941110D01*
X165310424Y-89941110D02*
X165262804Y-90036348D01*
X165262804Y-90036348D02*
X165262804Y-90179205D01*
X165929471Y-88988729D02*
X165262804Y-88988729D01*
X165929471Y-89417300D02*
X165405662Y-89417300D01*
X165405662Y-89417300D02*
X165310424Y-89369681D01*
X165310424Y-89369681D02*
X165262804Y-89274443D01*
X165262804Y-89274443D02*
X165262804Y-89131586D01*
X165262804Y-89131586D02*
X165310424Y-89036348D01*
X165310424Y-89036348D02*
X165358043Y-88988729D01*
X165929471Y-88083967D02*
X165119947Y-88083967D01*
X165119947Y-88083967D02*
X165024709Y-88131586D01*
X165024709Y-88131586D02*
X164977090Y-88179205D01*
X164977090Y-88179205D02*
X164929471Y-88274443D01*
X164929471Y-88274443D02*
X164929471Y-88417300D01*
X164929471Y-88417300D02*
X164977090Y-88512538D01*
X165310424Y-88083967D02*
X165262804Y-88179205D01*
X165262804Y-88179205D02*
X165262804Y-88369681D01*
X165262804Y-88369681D02*
X165310424Y-88464919D01*
X165310424Y-88464919D02*
X165358043Y-88512538D01*
X165358043Y-88512538D02*
X165453281Y-88560157D01*
X165453281Y-88560157D02*
X165738995Y-88560157D01*
X165738995Y-88560157D02*
X165834233Y-88512538D01*
X165834233Y-88512538D02*
X165881852Y-88464919D01*
X165881852Y-88464919D02*
X165929471Y-88369681D01*
X165929471Y-88369681D02*
X165929471Y-88179205D01*
X165929471Y-88179205D02*
X165881852Y-88083967D01*
X165262804Y-87607776D02*
X166262804Y-87607776D01*
X165262804Y-87179205D02*
X165786614Y-87179205D01*
X165786614Y-87179205D02*
X165881852Y-87226824D01*
X165881852Y-87226824D02*
X165929471Y-87322062D01*
X165929471Y-87322062D02*
X165929471Y-87464919D01*
X165929471Y-87464919D02*
X165881852Y-87560157D01*
X165881852Y-87560157D02*
X165834233Y-87607776D01*
X165262804Y-85512538D02*
X165786614Y-85512538D01*
X165786614Y-85512538D02*
X165881852Y-85560157D01*
X165881852Y-85560157D02*
X165929471Y-85655395D01*
X165929471Y-85655395D02*
X165929471Y-85845871D01*
X165929471Y-85845871D02*
X165881852Y-85941109D01*
X165310424Y-85512538D02*
X165262804Y-85607776D01*
X165262804Y-85607776D02*
X165262804Y-85845871D01*
X165262804Y-85845871D02*
X165310424Y-85941109D01*
X165310424Y-85941109D02*
X165405662Y-85988728D01*
X165405662Y-85988728D02*
X165500900Y-85988728D01*
X165500900Y-85988728D02*
X165596138Y-85941109D01*
X165596138Y-85941109D02*
X165643757Y-85845871D01*
X165643757Y-85845871D02*
X165643757Y-85607776D01*
X165643757Y-85607776D02*
X165691376Y-85512538D01*
X165929471Y-84274442D02*
X164929471Y-84274442D01*
X165881852Y-84274442D02*
X165929471Y-84179204D01*
X165929471Y-84179204D02*
X165929471Y-83988728D01*
X165929471Y-83988728D02*
X165881852Y-83893490D01*
X165881852Y-83893490D02*
X165834233Y-83845871D01*
X165834233Y-83845871D02*
X165738995Y-83798252D01*
X165738995Y-83798252D02*
X165453281Y-83798252D01*
X165453281Y-83798252D02*
X165358043Y-83845871D01*
X165358043Y-83845871D02*
X165310424Y-83893490D01*
X165310424Y-83893490D02*
X165262804Y-83988728D01*
X165262804Y-83988728D02*
X165262804Y-84179204D01*
X165262804Y-84179204D02*
X165310424Y-84274442D01*
X165262804Y-83369680D02*
X165929471Y-83369680D01*
X165738995Y-83369680D02*
X165834233Y-83322061D01*
X165834233Y-83322061D02*
X165881852Y-83274442D01*
X165881852Y-83274442D02*
X165929471Y-83179204D01*
X165929471Y-83179204D02*
X165929471Y-83083966D01*
X165262804Y-82607775D02*
X165310424Y-82703013D01*
X165310424Y-82703013D02*
X165358043Y-82750632D01*
X165358043Y-82750632D02*
X165453281Y-82798251D01*
X165453281Y-82798251D02*
X165738995Y-82798251D01*
X165738995Y-82798251D02*
X165834233Y-82750632D01*
X165834233Y-82750632D02*
X165881852Y-82703013D01*
X165881852Y-82703013D02*
X165929471Y-82607775D01*
X165929471Y-82607775D02*
X165929471Y-82464918D01*
X165929471Y-82464918D02*
X165881852Y-82369680D01*
X165881852Y-82369680D02*
X165834233Y-82322061D01*
X165834233Y-82322061D02*
X165738995Y-82274442D01*
X165738995Y-82274442D02*
X165453281Y-82274442D01*
X165453281Y-82274442D02*
X165358043Y-82322061D01*
X165358043Y-82322061D02*
X165310424Y-82369680D01*
X165310424Y-82369680D02*
X165262804Y-82464918D01*
X165262804Y-82464918D02*
X165262804Y-82607775D01*
X165929471Y-81417299D02*
X165119947Y-81417299D01*
X165119947Y-81417299D02*
X165024709Y-81464918D01*
X165024709Y-81464918D02*
X164977090Y-81512537D01*
X164977090Y-81512537D02*
X164929471Y-81607775D01*
X164929471Y-81607775D02*
X164929471Y-81750632D01*
X164929471Y-81750632D02*
X164977090Y-81845870D01*
X165310424Y-81417299D02*
X165262804Y-81512537D01*
X165262804Y-81512537D02*
X165262804Y-81703013D01*
X165262804Y-81703013D02*
X165310424Y-81798251D01*
X165310424Y-81798251D02*
X165358043Y-81845870D01*
X165358043Y-81845870D02*
X165453281Y-81893489D01*
X165453281Y-81893489D02*
X165738995Y-81893489D01*
X165738995Y-81893489D02*
X165834233Y-81845870D01*
X165834233Y-81845870D02*
X165881852Y-81798251D01*
X165881852Y-81798251D02*
X165929471Y-81703013D01*
X165929471Y-81703013D02*
X165929471Y-81512537D01*
X165929471Y-81512537D02*
X165881852Y-81417299D01*
X165262804Y-80941108D02*
X165929471Y-80941108D01*
X165738995Y-80941108D02*
X165834233Y-80893489D01*
X165834233Y-80893489D02*
X165881852Y-80845870D01*
X165881852Y-80845870D02*
X165929471Y-80750632D01*
X165929471Y-80750632D02*
X165929471Y-80655394D01*
X165262804Y-79893489D02*
X165786614Y-79893489D01*
X165786614Y-79893489D02*
X165881852Y-79941108D01*
X165881852Y-79941108D02*
X165929471Y-80036346D01*
X165929471Y-80036346D02*
X165929471Y-80226822D01*
X165929471Y-80226822D02*
X165881852Y-80322060D01*
X165310424Y-79893489D02*
X165262804Y-79988727D01*
X165262804Y-79988727D02*
X165262804Y-80226822D01*
X165262804Y-80226822D02*
X165310424Y-80322060D01*
X165310424Y-80322060D02*
X165405662Y-80369679D01*
X165405662Y-80369679D02*
X165500900Y-80369679D01*
X165500900Y-80369679D02*
X165596138Y-80322060D01*
X165596138Y-80322060D02*
X165643757Y-80226822D01*
X165643757Y-80226822D02*
X165643757Y-79988727D01*
X165643757Y-79988727D02*
X165691376Y-79893489D01*
X165262804Y-79417298D02*
X165929471Y-79417298D01*
X165834233Y-79417298D02*
X165881852Y-79369679D01*
X165881852Y-79369679D02*
X165929471Y-79274441D01*
X165929471Y-79274441D02*
X165929471Y-79131584D01*
X165929471Y-79131584D02*
X165881852Y-79036346D01*
X165881852Y-79036346D02*
X165786614Y-78988727D01*
X165786614Y-78988727D02*
X165262804Y-78988727D01*
X165786614Y-78988727D02*
X165881852Y-78941108D01*
X165881852Y-78941108D02*
X165929471Y-78845870D01*
X165929471Y-78845870D02*
X165929471Y-78703013D01*
X165929471Y-78703013D02*
X165881852Y-78607774D01*
X165881852Y-78607774D02*
X165786614Y-78560155D01*
X165786614Y-78560155D02*
X165262804Y-78560155D01*
X165358043Y-78083965D02*
X165310424Y-78036346D01*
X165310424Y-78036346D02*
X165262804Y-78083965D01*
X165262804Y-78083965D02*
X165310424Y-78131584D01*
X165310424Y-78131584D02*
X165358043Y-78083965D01*
X165358043Y-78083965D02*
X165262804Y-78083965D01*
X164652860Y-118083972D02*
X164652860Y-117512544D01*
X163652860Y-117798258D02*
X164652860Y-117798258D01*
X163652860Y-117179210D02*
X164652860Y-117179210D01*
X163652860Y-116750639D02*
X164176670Y-116750639D01*
X164176670Y-116750639D02*
X164271908Y-116798258D01*
X164271908Y-116798258D02*
X164319527Y-116893496D01*
X164319527Y-116893496D02*
X164319527Y-117036353D01*
X164319527Y-117036353D02*
X164271908Y-117131591D01*
X164271908Y-117131591D02*
X164224289Y-117179210D01*
X163700480Y-115893496D02*
X163652860Y-115988734D01*
X163652860Y-115988734D02*
X163652860Y-116179210D01*
X163652860Y-116179210D02*
X163700480Y-116274448D01*
X163700480Y-116274448D02*
X163795718Y-116322067D01*
X163795718Y-116322067D02*
X164176670Y-116322067D01*
X164176670Y-116322067D02*
X164271908Y-116274448D01*
X164271908Y-116274448D02*
X164319527Y-116179210D01*
X164319527Y-116179210D02*
X164319527Y-115988734D01*
X164319527Y-115988734D02*
X164271908Y-115893496D01*
X164271908Y-115893496D02*
X164176670Y-115845877D01*
X164176670Y-115845877D02*
X164081432Y-115845877D01*
X164081432Y-115845877D02*
X163986194Y-116322067D01*
X163700480Y-114703019D02*
X163652860Y-114560162D01*
X163652860Y-114560162D02*
X163652860Y-114322067D01*
X163652860Y-114322067D02*
X163700480Y-114226829D01*
X163700480Y-114226829D02*
X163748099Y-114179210D01*
X163748099Y-114179210D02*
X163843337Y-114131591D01*
X163843337Y-114131591D02*
X163938575Y-114131591D01*
X163938575Y-114131591D02*
X164033813Y-114179210D01*
X164033813Y-114179210D02*
X164081432Y-114226829D01*
X164081432Y-114226829D02*
X164129051Y-114322067D01*
X164129051Y-114322067D02*
X164176670Y-114512543D01*
X164176670Y-114512543D02*
X164224289Y-114607781D01*
X164224289Y-114607781D02*
X164271908Y-114655400D01*
X164271908Y-114655400D02*
X164367146Y-114703019D01*
X164367146Y-114703019D02*
X164462384Y-114703019D01*
X164462384Y-114703019D02*
X164557622Y-114655400D01*
X164557622Y-114655400D02*
X164605241Y-114607781D01*
X164605241Y-114607781D02*
X164652860Y-114512543D01*
X164652860Y-114512543D02*
X164652860Y-114274448D01*
X164652860Y-114274448D02*
X164605241Y-114131591D01*
X163700480Y-113274448D02*
X163652860Y-113369686D01*
X163652860Y-113369686D02*
X163652860Y-113560162D01*
X163652860Y-113560162D02*
X163700480Y-113655400D01*
X163700480Y-113655400D02*
X163748099Y-113703019D01*
X163748099Y-113703019D02*
X163843337Y-113750638D01*
X163843337Y-113750638D02*
X164129051Y-113750638D01*
X164129051Y-113750638D02*
X164224289Y-113703019D01*
X164224289Y-113703019D02*
X164271908Y-113655400D01*
X164271908Y-113655400D02*
X164319527Y-113560162D01*
X164319527Y-113560162D02*
X164319527Y-113369686D01*
X164319527Y-113369686D02*
X164271908Y-113274448D01*
X163652860Y-112845876D02*
X164652860Y-112845876D01*
X163652860Y-112417305D02*
X164176670Y-112417305D01*
X164176670Y-112417305D02*
X164271908Y-112464924D01*
X164271908Y-112464924D02*
X164319527Y-112560162D01*
X164319527Y-112560162D02*
X164319527Y-112703019D01*
X164319527Y-112703019D02*
X164271908Y-112798257D01*
X164271908Y-112798257D02*
X164224289Y-112845876D01*
X163652860Y-111941114D02*
X164319527Y-111941114D01*
X164224289Y-111941114D02*
X164271908Y-111893495D01*
X164271908Y-111893495D02*
X164319527Y-111798257D01*
X164319527Y-111798257D02*
X164319527Y-111655400D01*
X164319527Y-111655400D02*
X164271908Y-111560162D01*
X164271908Y-111560162D02*
X164176670Y-111512543D01*
X164176670Y-111512543D02*
X163652860Y-111512543D01*
X164176670Y-111512543D02*
X164271908Y-111464924D01*
X164271908Y-111464924D02*
X164319527Y-111369686D01*
X164319527Y-111369686D02*
X164319527Y-111226829D01*
X164319527Y-111226829D02*
X164271908Y-111131590D01*
X164271908Y-111131590D02*
X164176670Y-111083971D01*
X164176670Y-111083971D02*
X163652860Y-111083971D01*
X163652860Y-110607781D02*
X164319527Y-110607781D01*
X164652860Y-110607781D02*
X164605241Y-110655400D01*
X164605241Y-110655400D02*
X164557622Y-110607781D01*
X164557622Y-110607781D02*
X164605241Y-110560162D01*
X164605241Y-110560162D02*
X164652860Y-110607781D01*
X164652860Y-110607781D02*
X164557622Y-110607781D01*
X164319527Y-110274448D02*
X164319527Y-109893496D01*
X164652860Y-110131591D02*
X163795718Y-110131591D01*
X163795718Y-110131591D02*
X163700480Y-110083972D01*
X163700480Y-110083972D02*
X163652860Y-109988734D01*
X163652860Y-109988734D02*
X163652860Y-109893496D01*
X164319527Y-109703019D02*
X164319527Y-109322067D01*
X164652860Y-109560162D02*
X163795718Y-109560162D01*
X163795718Y-109560162D02*
X163700480Y-109512543D01*
X163700480Y-109512543D02*
X163652860Y-109417305D01*
X163652860Y-109417305D02*
X163652860Y-109322067D01*
X164652860Y-108369685D02*
X164652860Y-107798257D01*
X163652860Y-108083971D02*
X164652860Y-108083971D01*
X163652860Y-107464923D02*
X164319527Y-107464923D01*
X164129051Y-107464923D02*
X164224289Y-107417304D01*
X164224289Y-107417304D02*
X164271908Y-107369685D01*
X164271908Y-107369685D02*
X164319527Y-107274447D01*
X164319527Y-107274447D02*
X164319527Y-107179209D01*
X163652860Y-106845875D02*
X164319527Y-106845875D01*
X164652860Y-106845875D02*
X164605241Y-106893494D01*
X164605241Y-106893494D02*
X164557622Y-106845875D01*
X164557622Y-106845875D02*
X164605241Y-106798256D01*
X164605241Y-106798256D02*
X164652860Y-106845875D01*
X164652860Y-106845875D02*
X164557622Y-106845875D01*
X164319527Y-105941114D02*
X163510003Y-105941114D01*
X163510003Y-105941114D02*
X163414765Y-105988733D01*
X163414765Y-105988733D02*
X163367146Y-106036352D01*
X163367146Y-106036352D02*
X163319527Y-106131590D01*
X163319527Y-106131590D02*
X163319527Y-106274447D01*
X163319527Y-106274447D02*
X163367146Y-106369685D01*
X163700480Y-105941114D02*
X163652860Y-106036352D01*
X163652860Y-106036352D02*
X163652860Y-106226828D01*
X163652860Y-106226828D02*
X163700480Y-106322066D01*
X163700480Y-106322066D02*
X163748099Y-106369685D01*
X163748099Y-106369685D02*
X163843337Y-106417304D01*
X163843337Y-106417304D02*
X164129051Y-106417304D01*
X164129051Y-106417304D02*
X164224289Y-106369685D01*
X164224289Y-106369685D02*
X164271908Y-106322066D01*
X164271908Y-106322066D02*
X164319527Y-106226828D01*
X164319527Y-106226828D02*
X164319527Y-106036352D01*
X164319527Y-106036352D02*
X164271908Y-105941114D01*
X164319527Y-105036352D02*
X163510003Y-105036352D01*
X163510003Y-105036352D02*
X163414765Y-105083971D01*
X163414765Y-105083971D02*
X163367146Y-105131590D01*
X163367146Y-105131590D02*
X163319527Y-105226828D01*
X163319527Y-105226828D02*
X163319527Y-105369685D01*
X163319527Y-105369685D02*
X163367146Y-105464923D01*
X163700480Y-105036352D02*
X163652860Y-105131590D01*
X163652860Y-105131590D02*
X163652860Y-105322066D01*
X163652860Y-105322066D02*
X163700480Y-105417304D01*
X163700480Y-105417304D02*
X163748099Y-105464923D01*
X163748099Y-105464923D02*
X163843337Y-105512542D01*
X163843337Y-105512542D02*
X164129051Y-105512542D01*
X164129051Y-105512542D02*
X164224289Y-105464923D01*
X164224289Y-105464923D02*
X164271908Y-105417304D01*
X164271908Y-105417304D02*
X164319527Y-105322066D01*
X164319527Y-105322066D02*
X164319527Y-105131590D01*
X164319527Y-105131590D02*
X164271908Y-105036352D01*
X163700480Y-104179209D02*
X163652860Y-104274447D01*
X163652860Y-104274447D02*
X163652860Y-104464923D01*
X163652860Y-104464923D02*
X163700480Y-104560161D01*
X163700480Y-104560161D02*
X163795718Y-104607780D01*
X163795718Y-104607780D02*
X164176670Y-104607780D01*
X164176670Y-104607780D02*
X164271908Y-104560161D01*
X164271908Y-104560161D02*
X164319527Y-104464923D01*
X164319527Y-104464923D02*
X164319527Y-104274447D01*
X164319527Y-104274447D02*
X164271908Y-104179209D01*
X164271908Y-104179209D02*
X164176670Y-104131590D01*
X164176670Y-104131590D02*
X164081432Y-104131590D01*
X164081432Y-104131590D02*
X163986194Y-104607780D01*
X163652860Y-103703018D02*
X164319527Y-103703018D01*
X164129051Y-103703018D02*
X164224289Y-103655399D01*
X164224289Y-103655399D02*
X164271908Y-103607780D01*
X164271908Y-103607780D02*
X164319527Y-103512542D01*
X164319527Y-103512542D02*
X164319527Y-103417304D01*
X163652860Y-102322065D02*
X164319527Y-102322065D01*
X164129051Y-102322065D02*
X164224289Y-102274446D01*
X164224289Y-102274446D02*
X164271908Y-102226827D01*
X164271908Y-102226827D02*
X164319527Y-102131589D01*
X164319527Y-102131589D02*
X164319527Y-102036351D01*
X163700480Y-101322065D02*
X163652860Y-101417303D01*
X163652860Y-101417303D02*
X163652860Y-101607779D01*
X163652860Y-101607779D02*
X163700480Y-101703017D01*
X163700480Y-101703017D02*
X163795718Y-101750636D01*
X163795718Y-101750636D02*
X164176670Y-101750636D01*
X164176670Y-101750636D02*
X164271908Y-101703017D01*
X164271908Y-101703017D02*
X164319527Y-101607779D01*
X164319527Y-101607779D02*
X164319527Y-101417303D01*
X164319527Y-101417303D02*
X164271908Y-101322065D01*
X164271908Y-101322065D02*
X164176670Y-101274446D01*
X164176670Y-101274446D02*
X164081432Y-101274446D01*
X164081432Y-101274446D02*
X163986194Y-101750636D01*
X163652860Y-100845874D02*
X164319527Y-100845874D01*
X164224289Y-100845874D02*
X164271908Y-100798255D01*
X164271908Y-100798255D02*
X164319527Y-100703017D01*
X164319527Y-100703017D02*
X164319527Y-100560160D01*
X164319527Y-100560160D02*
X164271908Y-100464922D01*
X164271908Y-100464922D02*
X164176670Y-100417303D01*
X164176670Y-100417303D02*
X163652860Y-100417303D01*
X164176670Y-100417303D02*
X164271908Y-100369684D01*
X164271908Y-100369684D02*
X164319527Y-100274446D01*
X164319527Y-100274446D02*
X164319527Y-100131589D01*
X164319527Y-100131589D02*
X164271908Y-100036350D01*
X164271908Y-100036350D02*
X164176670Y-99988731D01*
X164176670Y-99988731D02*
X163652860Y-99988731D01*
X163652860Y-99369684D02*
X163700480Y-99464922D01*
X163700480Y-99464922D02*
X163748099Y-99512541D01*
X163748099Y-99512541D02*
X163843337Y-99560160D01*
X163843337Y-99560160D02*
X164129051Y-99560160D01*
X164129051Y-99560160D02*
X164224289Y-99512541D01*
X164224289Y-99512541D02*
X164271908Y-99464922D01*
X164271908Y-99464922D02*
X164319527Y-99369684D01*
X164319527Y-99369684D02*
X164319527Y-99226827D01*
X164319527Y-99226827D02*
X164271908Y-99131589D01*
X164271908Y-99131589D02*
X164224289Y-99083970D01*
X164224289Y-99083970D02*
X164129051Y-99036351D01*
X164129051Y-99036351D02*
X163843337Y-99036351D01*
X163843337Y-99036351D02*
X163748099Y-99083970D01*
X163748099Y-99083970D02*
X163700480Y-99131589D01*
X163700480Y-99131589D02*
X163652860Y-99226827D01*
X163652860Y-99226827D02*
X163652860Y-99369684D01*
X164319527Y-98703017D02*
X163652860Y-98464922D01*
X163652860Y-98464922D02*
X164319527Y-98226827D01*
X163700480Y-97464922D02*
X163652860Y-97560160D01*
X163652860Y-97560160D02*
X163652860Y-97750636D01*
X163652860Y-97750636D02*
X163700480Y-97845874D01*
X163700480Y-97845874D02*
X163795718Y-97893493D01*
X163795718Y-97893493D02*
X164176670Y-97893493D01*
X164176670Y-97893493D02*
X164271908Y-97845874D01*
X164271908Y-97845874D02*
X164319527Y-97750636D01*
X164319527Y-97750636D02*
X164319527Y-97560160D01*
X164319527Y-97560160D02*
X164271908Y-97464922D01*
X164271908Y-97464922D02*
X164176670Y-97417303D01*
X164176670Y-97417303D02*
X164081432Y-97417303D01*
X164081432Y-97417303D02*
X163986194Y-97893493D01*
X163700480Y-97036350D02*
X163652860Y-96941112D01*
X163652860Y-96941112D02*
X163652860Y-96750636D01*
X163652860Y-96750636D02*
X163700480Y-96655398D01*
X163700480Y-96655398D02*
X163795718Y-96607779D01*
X163795718Y-96607779D02*
X163843337Y-96607779D01*
X163843337Y-96607779D02*
X163938575Y-96655398D01*
X163938575Y-96655398D02*
X163986194Y-96750636D01*
X163986194Y-96750636D02*
X163986194Y-96893493D01*
X163986194Y-96893493D02*
X164033813Y-96988731D01*
X164033813Y-96988731D02*
X164129051Y-97036350D01*
X164129051Y-97036350D02*
X164176670Y-97036350D01*
X164176670Y-97036350D02*
X164271908Y-96988731D01*
X164271908Y-96988731D02*
X164319527Y-96893493D01*
X164319527Y-96893493D02*
X164319527Y-96750636D01*
X164319527Y-96750636D02*
X164271908Y-96655398D01*
X163652860Y-95417302D02*
X164652860Y-95417302D01*
X164271908Y-95417302D02*
X164319527Y-95322064D01*
X164319527Y-95322064D02*
X164319527Y-95131588D01*
X164319527Y-95131588D02*
X164271908Y-95036350D01*
X164271908Y-95036350D02*
X164224289Y-94988731D01*
X164224289Y-94988731D02*
X164129051Y-94941112D01*
X164129051Y-94941112D02*
X163843337Y-94941112D01*
X163843337Y-94941112D02*
X163748099Y-94988731D01*
X163748099Y-94988731D02*
X163700480Y-95036350D01*
X163700480Y-95036350D02*
X163652860Y-95131588D01*
X163652860Y-95131588D02*
X163652860Y-95322064D01*
X163652860Y-95322064D02*
X163700480Y-95417302D01*
X163652860Y-94369683D02*
X163700480Y-94464921D01*
X163700480Y-94464921D02*
X163748099Y-94512540D01*
X163748099Y-94512540D02*
X163843337Y-94560159D01*
X163843337Y-94560159D02*
X164129051Y-94560159D01*
X164129051Y-94560159D02*
X164224289Y-94512540D01*
X164224289Y-94512540D02*
X164271908Y-94464921D01*
X164271908Y-94464921D02*
X164319527Y-94369683D01*
X164319527Y-94369683D02*
X164319527Y-94226826D01*
X164319527Y-94226826D02*
X164271908Y-94131588D01*
X164271908Y-94131588D02*
X164224289Y-94083969D01*
X164224289Y-94083969D02*
X164129051Y-94036350D01*
X164129051Y-94036350D02*
X163843337Y-94036350D01*
X163843337Y-94036350D02*
X163748099Y-94083969D01*
X163748099Y-94083969D02*
X163700480Y-94131588D01*
X163700480Y-94131588D02*
X163652860Y-94226826D01*
X163652860Y-94226826D02*
X163652860Y-94369683D01*
X164319527Y-93179207D02*
X163652860Y-93179207D01*
X164319527Y-93607778D02*
X163795718Y-93607778D01*
X163795718Y-93607778D02*
X163700480Y-93560159D01*
X163700480Y-93560159D02*
X163652860Y-93464921D01*
X163652860Y-93464921D02*
X163652860Y-93322064D01*
X163652860Y-93322064D02*
X163700480Y-93226826D01*
X163700480Y-93226826D02*
X163748099Y-93179207D01*
X164319527Y-92703016D02*
X163652860Y-92703016D01*
X164224289Y-92703016D02*
X164271908Y-92655397D01*
X164271908Y-92655397D02*
X164319527Y-92560159D01*
X164319527Y-92560159D02*
X164319527Y-92417302D01*
X164319527Y-92417302D02*
X164271908Y-92322064D01*
X164271908Y-92322064D02*
X164176670Y-92274445D01*
X164176670Y-92274445D02*
X163652860Y-92274445D01*
X163700480Y-91369683D02*
X163652860Y-91464921D01*
X163652860Y-91464921D02*
X163652860Y-91655397D01*
X163652860Y-91655397D02*
X163700480Y-91750635D01*
X163700480Y-91750635D02*
X163748099Y-91798254D01*
X163748099Y-91798254D02*
X163843337Y-91845873D01*
X163843337Y-91845873D02*
X164129051Y-91845873D01*
X164129051Y-91845873D02*
X164224289Y-91798254D01*
X164224289Y-91798254D02*
X164271908Y-91750635D01*
X164271908Y-91750635D02*
X164319527Y-91655397D01*
X164319527Y-91655397D02*
X164319527Y-91464921D01*
X164319527Y-91464921D02*
X164271908Y-91369683D01*
X163700480Y-90560159D02*
X163652860Y-90655397D01*
X163652860Y-90655397D02*
X163652860Y-90845873D01*
X163652860Y-90845873D02*
X163700480Y-90941111D01*
X163700480Y-90941111D02*
X163795718Y-90988730D01*
X163795718Y-90988730D02*
X164176670Y-90988730D01*
X164176670Y-90988730D02*
X164271908Y-90941111D01*
X164271908Y-90941111D02*
X164319527Y-90845873D01*
X164319527Y-90845873D02*
X164319527Y-90655397D01*
X164319527Y-90655397D02*
X164271908Y-90560159D01*
X164271908Y-90560159D02*
X164176670Y-90512540D01*
X164176670Y-90512540D02*
X164081432Y-90512540D01*
X164081432Y-90512540D02*
X163986194Y-90988730D01*
X163652860Y-89322063D02*
X164319527Y-89322063D01*
X164652860Y-89322063D02*
X164605241Y-89369682D01*
X164605241Y-89369682D02*
X164557622Y-89322063D01*
X164557622Y-89322063D02*
X164605241Y-89274444D01*
X164605241Y-89274444D02*
X164652860Y-89322063D01*
X164652860Y-89322063D02*
X164557622Y-89322063D01*
X164319527Y-88845873D02*
X163652860Y-88845873D01*
X164224289Y-88845873D02*
X164271908Y-88798254D01*
X164271908Y-88798254D02*
X164319527Y-88703016D01*
X164319527Y-88703016D02*
X164319527Y-88560159D01*
X164319527Y-88560159D02*
X164271908Y-88464921D01*
X164271908Y-88464921D02*
X164176670Y-88417302D01*
X164176670Y-88417302D02*
X163652860Y-88417302D01*
X164319527Y-87322063D02*
X164319527Y-86941111D01*
X164652860Y-87179206D02*
X163795718Y-87179206D01*
X163795718Y-87179206D02*
X163700480Y-87131587D01*
X163700480Y-87131587D02*
X163652860Y-87036349D01*
X163652860Y-87036349D02*
X163652860Y-86941111D01*
X163652860Y-86607777D02*
X164652860Y-86607777D01*
X163652860Y-86179206D02*
X164176670Y-86179206D01*
X164176670Y-86179206D02*
X164271908Y-86226825D01*
X164271908Y-86226825D02*
X164319527Y-86322063D01*
X164319527Y-86322063D02*
X164319527Y-86464920D01*
X164319527Y-86464920D02*
X164271908Y-86560158D01*
X164271908Y-86560158D02*
X164224289Y-86607777D01*
X163700480Y-85322063D02*
X163652860Y-85417301D01*
X163652860Y-85417301D02*
X163652860Y-85607777D01*
X163652860Y-85607777D02*
X163700480Y-85703015D01*
X163700480Y-85703015D02*
X163795718Y-85750634D01*
X163795718Y-85750634D02*
X164176670Y-85750634D01*
X164176670Y-85750634D02*
X164271908Y-85703015D01*
X164271908Y-85703015D02*
X164319527Y-85607777D01*
X164319527Y-85607777D02*
X164319527Y-85417301D01*
X164319527Y-85417301D02*
X164271908Y-85322063D01*
X164271908Y-85322063D02*
X164176670Y-85274444D01*
X164176670Y-85274444D02*
X164081432Y-85274444D01*
X164081432Y-85274444D02*
X163986194Y-85750634D01*
X163700480Y-83655396D02*
X163652860Y-83750634D01*
X163652860Y-83750634D02*
X163652860Y-83941110D01*
X163652860Y-83941110D02*
X163700480Y-84036348D01*
X163700480Y-84036348D02*
X163748099Y-84083967D01*
X163748099Y-84083967D02*
X163843337Y-84131586D01*
X163843337Y-84131586D02*
X164129051Y-84131586D01*
X164129051Y-84131586D02*
X164224289Y-84083967D01*
X164224289Y-84083967D02*
X164271908Y-84036348D01*
X164271908Y-84036348D02*
X164319527Y-83941110D01*
X164319527Y-83941110D02*
X164319527Y-83750634D01*
X164319527Y-83750634D02*
X164271908Y-83655396D01*
X163652860Y-83083967D02*
X163700480Y-83179205D01*
X163700480Y-83179205D02*
X163795718Y-83226824D01*
X163795718Y-83226824D02*
X164652860Y-83226824D01*
X163652860Y-82560157D02*
X163700480Y-82655395D01*
X163700480Y-82655395D02*
X163748099Y-82703014D01*
X163748099Y-82703014D02*
X163843337Y-82750633D01*
X163843337Y-82750633D02*
X164129051Y-82750633D01*
X164129051Y-82750633D02*
X164224289Y-82703014D01*
X164224289Y-82703014D02*
X164271908Y-82655395D01*
X164271908Y-82655395D02*
X164319527Y-82560157D01*
X164319527Y-82560157D02*
X164319527Y-82417300D01*
X164319527Y-82417300D02*
X164271908Y-82322062D01*
X164271908Y-82322062D02*
X164224289Y-82274443D01*
X164224289Y-82274443D02*
X164129051Y-82226824D01*
X164129051Y-82226824D02*
X163843337Y-82226824D01*
X163843337Y-82226824D02*
X163748099Y-82274443D01*
X163748099Y-82274443D02*
X163700480Y-82322062D01*
X163700480Y-82322062D02*
X163652860Y-82417300D01*
X163652860Y-82417300D02*
X163652860Y-82560157D01*
X163700480Y-81369681D02*
X163652860Y-81464919D01*
X163652860Y-81464919D02*
X163652860Y-81655395D01*
X163652860Y-81655395D02*
X163700480Y-81750633D01*
X163700480Y-81750633D02*
X163748099Y-81798252D01*
X163748099Y-81798252D02*
X163843337Y-81845871D01*
X163843337Y-81845871D02*
X164129051Y-81845871D01*
X164129051Y-81845871D02*
X164224289Y-81798252D01*
X164224289Y-81798252D02*
X164271908Y-81750633D01*
X164271908Y-81750633D02*
X164319527Y-81655395D01*
X164319527Y-81655395D02*
X164319527Y-81464919D01*
X164319527Y-81464919D02*
X164271908Y-81369681D01*
X163652860Y-80941109D02*
X164652860Y-80941109D01*
X164033813Y-80845871D02*
X163652860Y-80560157D01*
X164319527Y-80560157D02*
X163938575Y-80941109D01*
X163748099Y-80131585D02*
X163700480Y-80083966D01*
X163700480Y-80083966D02*
X163652860Y-80131585D01*
X163652860Y-80131585D02*
X163700480Y-80179204D01*
X163700480Y-80179204D02*
X163748099Y-80131585D01*
X163748099Y-80131585D02*
X163652860Y-80131585D01*
X163042916Y-118083972D02*
X163042916Y-117512544D01*
X162042916Y-117798258D02*
X163042916Y-117798258D01*
X162042916Y-117179210D02*
X163042916Y-117179210D01*
X162042916Y-116750639D02*
X162566726Y-116750639D01*
X162566726Y-116750639D02*
X162661964Y-116798258D01*
X162661964Y-116798258D02*
X162709583Y-116893496D01*
X162709583Y-116893496D02*
X162709583Y-117036353D01*
X162709583Y-117036353D02*
X162661964Y-117131591D01*
X162661964Y-117131591D02*
X162614345Y-117179210D01*
X162090536Y-115893496D02*
X162042916Y-115988734D01*
X162042916Y-115988734D02*
X162042916Y-116179210D01*
X162042916Y-116179210D02*
X162090536Y-116274448D01*
X162090536Y-116274448D02*
X162185774Y-116322067D01*
X162185774Y-116322067D02*
X162566726Y-116322067D01*
X162566726Y-116322067D02*
X162661964Y-116274448D01*
X162661964Y-116274448D02*
X162709583Y-116179210D01*
X162709583Y-116179210D02*
X162709583Y-115988734D01*
X162709583Y-115988734D02*
X162661964Y-115893496D01*
X162661964Y-115893496D02*
X162566726Y-115845877D01*
X162566726Y-115845877D02*
X162471488Y-115845877D01*
X162471488Y-115845877D02*
X162376250Y-116322067D01*
X162042916Y-114655400D02*
X162709583Y-114655400D01*
X163042916Y-114655400D02*
X162995297Y-114703019D01*
X162995297Y-114703019D02*
X162947678Y-114655400D01*
X162947678Y-114655400D02*
X162995297Y-114607781D01*
X162995297Y-114607781D02*
X163042916Y-114655400D01*
X163042916Y-114655400D02*
X162947678Y-114655400D01*
X162709583Y-114179210D02*
X162042916Y-114179210D01*
X162614345Y-114179210D02*
X162661964Y-114131591D01*
X162661964Y-114131591D02*
X162709583Y-114036353D01*
X162709583Y-114036353D02*
X162709583Y-113893496D01*
X162709583Y-113893496D02*
X162661964Y-113798258D01*
X162661964Y-113798258D02*
X162566726Y-113750639D01*
X162566726Y-113750639D02*
X162042916Y-113750639D01*
X162709583Y-113274448D02*
X161709583Y-113274448D01*
X162661964Y-113274448D02*
X162709583Y-113179210D01*
X162709583Y-113179210D02*
X162709583Y-112988734D01*
X162709583Y-112988734D02*
X162661964Y-112893496D01*
X162661964Y-112893496D02*
X162614345Y-112845877D01*
X162614345Y-112845877D02*
X162519107Y-112798258D01*
X162519107Y-112798258D02*
X162233393Y-112798258D01*
X162233393Y-112798258D02*
X162138155Y-112845877D01*
X162138155Y-112845877D02*
X162090536Y-112893496D01*
X162090536Y-112893496D02*
X162042916Y-112988734D01*
X162042916Y-112988734D02*
X162042916Y-113179210D01*
X162042916Y-113179210D02*
X162090536Y-113274448D01*
X162709583Y-111941115D02*
X162042916Y-111941115D01*
X162709583Y-112369686D02*
X162185774Y-112369686D01*
X162185774Y-112369686D02*
X162090536Y-112322067D01*
X162090536Y-112322067D02*
X162042916Y-112226829D01*
X162042916Y-112226829D02*
X162042916Y-112083972D01*
X162042916Y-112083972D02*
X162090536Y-111988734D01*
X162090536Y-111988734D02*
X162138155Y-111941115D01*
X162709583Y-111607781D02*
X162709583Y-111226829D01*
X163042916Y-111464924D02*
X162185774Y-111464924D01*
X162185774Y-111464924D02*
X162090536Y-111417305D01*
X162090536Y-111417305D02*
X162042916Y-111322067D01*
X162042916Y-111322067D02*
X162042916Y-111226829D01*
X162042916Y-110131590D02*
X163042916Y-110131590D01*
X162661964Y-110131590D02*
X162709583Y-110036352D01*
X162709583Y-110036352D02*
X162709583Y-109845876D01*
X162709583Y-109845876D02*
X162661964Y-109750638D01*
X162661964Y-109750638D02*
X162614345Y-109703019D01*
X162614345Y-109703019D02*
X162519107Y-109655400D01*
X162519107Y-109655400D02*
X162233393Y-109655400D01*
X162233393Y-109655400D02*
X162138155Y-109703019D01*
X162138155Y-109703019D02*
X162090536Y-109750638D01*
X162090536Y-109750638D02*
X162042916Y-109845876D01*
X162042916Y-109845876D02*
X162042916Y-110036352D01*
X162042916Y-110036352D02*
X162090536Y-110131590D01*
X162709583Y-108798257D02*
X162042916Y-108798257D01*
X162709583Y-109226828D02*
X162185774Y-109226828D01*
X162185774Y-109226828D02*
X162090536Y-109179209D01*
X162090536Y-109179209D02*
X162042916Y-109083971D01*
X162042916Y-109083971D02*
X162042916Y-108941114D01*
X162042916Y-108941114D02*
X162090536Y-108845876D01*
X162090536Y-108845876D02*
X162138155Y-108798257D01*
X162090536Y-108369685D02*
X162042916Y-108274447D01*
X162042916Y-108274447D02*
X162042916Y-108083971D01*
X162042916Y-108083971D02*
X162090536Y-107988733D01*
X162090536Y-107988733D02*
X162185774Y-107941114D01*
X162185774Y-107941114D02*
X162233393Y-107941114D01*
X162233393Y-107941114D02*
X162328631Y-107988733D01*
X162328631Y-107988733D02*
X162376250Y-108083971D01*
X162376250Y-108083971D02*
X162376250Y-108226828D01*
X162376250Y-108226828D02*
X162423869Y-108322066D01*
X162423869Y-108322066D02*
X162519107Y-108369685D01*
X162519107Y-108369685D02*
X162566726Y-108369685D01*
X162566726Y-108369685D02*
X162661964Y-108322066D01*
X162661964Y-108322066D02*
X162709583Y-108226828D01*
X162709583Y-108226828D02*
X162709583Y-108083971D01*
X162709583Y-108083971D02*
X162661964Y-107988733D01*
X162042916Y-106322066D02*
X162566726Y-106322066D01*
X162566726Y-106322066D02*
X162661964Y-106369685D01*
X162661964Y-106369685D02*
X162709583Y-106464923D01*
X162709583Y-106464923D02*
X162709583Y-106655399D01*
X162709583Y-106655399D02*
X162661964Y-106750637D01*
X162090536Y-106322066D02*
X162042916Y-106417304D01*
X162042916Y-106417304D02*
X162042916Y-106655399D01*
X162042916Y-106655399D02*
X162090536Y-106750637D01*
X162090536Y-106750637D02*
X162185774Y-106798256D01*
X162185774Y-106798256D02*
X162281012Y-106798256D01*
X162281012Y-106798256D02*
X162376250Y-106750637D01*
X162376250Y-106750637D02*
X162423869Y-106655399D01*
X162423869Y-106655399D02*
X162423869Y-106417304D01*
X162423869Y-106417304D02*
X162471488Y-106322066D01*
X162042916Y-105703018D02*
X162090536Y-105798256D01*
X162090536Y-105798256D02*
X162185774Y-105845875D01*
X162185774Y-105845875D02*
X163042916Y-105845875D01*
X162042916Y-105179208D02*
X162090536Y-105274446D01*
X162090536Y-105274446D02*
X162185774Y-105322065D01*
X162185774Y-105322065D02*
X163042916Y-105322065D01*
X162042916Y-104655398D02*
X162090536Y-104750636D01*
X162090536Y-104750636D02*
X162138155Y-104798255D01*
X162138155Y-104798255D02*
X162233393Y-104845874D01*
X162233393Y-104845874D02*
X162519107Y-104845874D01*
X162519107Y-104845874D02*
X162614345Y-104798255D01*
X162614345Y-104798255D02*
X162661964Y-104750636D01*
X162661964Y-104750636D02*
X162709583Y-104655398D01*
X162709583Y-104655398D02*
X162709583Y-104512541D01*
X162709583Y-104512541D02*
X162661964Y-104417303D01*
X162661964Y-104417303D02*
X162614345Y-104369684D01*
X162614345Y-104369684D02*
X162519107Y-104322065D01*
X162519107Y-104322065D02*
X162233393Y-104322065D01*
X162233393Y-104322065D02*
X162138155Y-104369684D01*
X162138155Y-104369684D02*
X162090536Y-104417303D01*
X162090536Y-104417303D02*
X162042916Y-104512541D01*
X162042916Y-104512541D02*
X162042916Y-104655398D01*
X162709583Y-103988731D02*
X162042916Y-103798255D01*
X162042916Y-103798255D02*
X162519107Y-103607779D01*
X162519107Y-103607779D02*
X162042916Y-103417303D01*
X162042916Y-103417303D02*
X162709583Y-103226827D01*
X162090536Y-102893493D02*
X162042916Y-102798255D01*
X162042916Y-102798255D02*
X162042916Y-102607779D01*
X162042916Y-102607779D02*
X162090536Y-102512541D01*
X162090536Y-102512541D02*
X162185774Y-102464922D01*
X162185774Y-102464922D02*
X162233393Y-102464922D01*
X162233393Y-102464922D02*
X162328631Y-102512541D01*
X162328631Y-102512541D02*
X162376250Y-102607779D01*
X162376250Y-102607779D02*
X162376250Y-102750636D01*
X162376250Y-102750636D02*
X162423869Y-102845874D01*
X162423869Y-102845874D02*
X162519107Y-102893493D01*
X162519107Y-102893493D02*
X162566726Y-102893493D01*
X162566726Y-102893493D02*
X162661964Y-102845874D01*
X162661964Y-102845874D02*
X162709583Y-102750636D01*
X162709583Y-102750636D02*
X162709583Y-102607779D01*
X162709583Y-102607779D02*
X162661964Y-102512541D01*
X162709583Y-101417302D02*
X162709583Y-101036350D01*
X163042916Y-101274445D02*
X162185774Y-101274445D01*
X162185774Y-101274445D02*
X162090536Y-101226826D01*
X162090536Y-101226826D02*
X162042916Y-101131588D01*
X162042916Y-101131588D02*
X162042916Y-101036350D01*
X162042916Y-100703016D02*
X163042916Y-100703016D01*
X162042916Y-100274445D02*
X162566726Y-100274445D01*
X162566726Y-100274445D02*
X162661964Y-100322064D01*
X162661964Y-100322064D02*
X162709583Y-100417302D01*
X162709583Y-100417302D02*
X162709583Y-100560159D01*
X162709583Y-100560159D02*
X162661964Y-100655397D01*
X162661964Y-100655397D02*
X162614345Y-100703016D01*
X162090536Y-99417302D02*
X162042916Y-99512540D01*
X162042916Y-99512540D02*
X162042916Y-99703016D01*
X162042916Y-99703016D02*
X162090536Y-99798254D01*
X162090536Y-99798254D02*
X162185774Y-99845873D01*
X162185774Y-99845873D02*
X162566726Y-99845873D01*
X162566726Y-99845873D02*
X162661964Y-99798254D01*
X162661964Y-99798254D02*
X162709583Y-99703016D01*
X162709583Y-99703016D02*
X162709583Y-99512540D01*
X162709583Y-99512540D02*
X162661964Y-99417302D01*
X162661964Y-99417302D02*
X162566726Y-99369683D01*
X162566726Y-99369683D02*
X162471488Y-99369683D01*
X162471488Y-99369683D02*
X162376250Y-99845873D01*
X162042916Y-98179206D02*
X163042916Y-98179206D01*
X163042916Y-98179206D02*
X163042916Y-97798254D01*
X163042916Y-97798254D02*
X162995297Y-97703016D01*
X162995297Y-97703016D02*
X162947678Y-97655397D01*
X162947678Y-97655397D02*
X162852440Y-97607778D01*
X162852440Y-97607778D02*
X162709583Y-97607778D01*
X162709583Y-97607778D02*
X162614345Y-97655397D01*
X162614345Y-97655397D02*
X162566726Y-97703016D01*
X162566726Y-97703016D02*
X162519107Y-97798254D01*
X162519107Y-97798254D02*
X162519107Y-98179206D01*
X162138155Y-96607778D02*
X162090536Y-96655397D01*
X162090536Y-96655397D02*
X162042916Y-96798254D01*
X162042916Y-96798254D02*
X162042916Y-96893492D01*
X162042916Y-96893492D02*
X162090536Y-97036349D01*
X162090536Y-97036349D02*
X162185774Y-97131587D01*
X162185774Y-97131587D02*
X162281012Y-97179206D01*
X162281012Y-97179206D02*
X162471488Y-97226825D01*
X162471488Y-97226825D02*
X162614345Y-97226825D01*
X162614345Y-97226825D02*
X162804821Y-97179206D01*
X162804821Y-97179206D02*
X162900059Y-97131587D01*
X162900059Y-97131587D02*
X162995297Y-97036349D01*
X162995297Y-97036349D02*
X163042916Y-96893492D01*
X163042916Y-96893492D02*
X163042916Y-96798254D01*
X163042916Y-96798254D02*
X162995297Y-96655397D01*
X162995297Y-96655397D02*
X162947678Y-96607778D01*
X162709583Y-95560158D02*
X162709583Y-95179206D01*
X163042916Y-95417301D02*
X162185774Y-95417301D01*
X162185774Y-95417301D02*
X162090536Y-95369682D01*
X162090536Y-95369682D02*
X162042916Y-95274444D01*
X162042916Y-95274444D02*
X162042916Y-95179206D01*
X162042916Y-94703015D02*
X162090536Y-94798253D01*
X162090536Y-94798253D02*
X162138155Y-94845872D01*
X162138155Y-94845872D02*
X162233393Y-94893491D01*
X162233393Y-94893491D02*
X162519107Y-94893491D01*
X162519107Y-94893491D02*
X162614345Y-94845872D01*
X162614345Y-94845872D02*
X162661964Y-94798253D01*
X162661964Y-94798253D02*
X162709583Y-94703015D01*
X162709583Y-94703015D02*
X162709583Y-94560158D01*
X162709583Y-94560158D02*
X162661964Y-94464920D01*
X162661964Y-94464920D02*
X162614345Y-94417301D01*
X162614345Y-94417301D02*
X162519107Y-94369682D01*
X162519107Y-94369682D02*
X162233393Y-94369682D01*
X162233393Y-94369682D02*
X162138155Y-94417301D01*
X162138155Y-94417301D02*
X162090536Y-94464920D01*
X162090536Y-94464920D02*
X162042916Y-94560158D01*
X162042916Y-94560158D02*
X162042916Y-94703015D01*
X162042916Y-93036348D02*
X162090536Y-93131586D01*
X162090536Y-93131586D02*
X162138155Y-93179205D01*
X162138155Y-93179205D02*
X162233393Y-93226824D01*
X162233393Y-93226824D02*
X162519107Y-93226824D01*
X162519107Y-93226824D02*
X162614345Y-93179205D01*
X162614345Y-93179205D02*
X162661964Y-93131586D01*
X162661964Y-93131586D02*
X162709583Y-93036348D01*
X162709583Y-93036348D02*
X162709583Y-92893491D01*
X162709583Y-92893491D02*
X162661964Y-92798253D01*
X162661964Y-92798253D02*
X162614345Y-92750634D01*
X162614345Y-92750634D02*
X162519107Y-92703015D01*
X162519107Y-92703015D02*
X162233393Y-92703015D01*
X162233393Y-92703015D02*
X162138155Y-92750634D01*
X162138155Y-92750634D02*
X162090536Y-92798253D01*
X162090536Y-92798253D02*
X162042916Y-92893491D01*
X162042916Y-92893491D02*
X162042916Y-93036348D01*
X162709583Y-92274443D02*
X161709583Y-92274443D01*
X162661964Y-92274443D02*
X162709583Y-92179205D01*
X162709583Y-92179205D02*
X162709583Y-91988729D01*
X162709583Y-91988729D02*
X162661964Y-91893491D01*
X162661964Y-91893491D02*
X162614345Y-91845872D01*
X162614345Y-91845872D02*
X162519107Y-91798253D01*
X162519107Y-91798253D02*
X162233393Y-91798253D01*
X162233393Y-91798253D02*
X162138155Y-91845872D01*
X162138155Y-91845872D02*
X162090536Y-91893491D01*
X162090536Y-91893491D02*
X162042916Y-91988729D01*
X162042916Y-91988729D02*
X162042916Y-92179205D01*
X162042916Y-92179205D02*
X162090536Y-92274443D01*
X162709583Y-91512538D02*
X162709583Y-91131586D01*
X163042916Y-91369681D02*
X162185774Y-91369681D01*
X162185774Y-91369681D02*
X162090536Y-91322062D01*
X162090536Y-91322062D02*
X162042916Y-91226824D01*
X162042916Y-91226824D02*
X162042916Y-91131586D01*
X162042916Y-90798252D02*
X162709583Y-90798252D01*
X163042916Y-90798252D02*
X162995297Y-90845871D01*
X162995297Y-90845871D02*
X162947678Y-90798252D01*
X162947678Y-90798252D02*
X162995297Y-90750633D01*
X162995297Y-90750633D02*
X163042916Y-90798252D01*
X163042916Y-90798252D02*
X162947678Y-90798252D01*
X162042916Y-90179205D02*
X162090536Y-90274443D01*
X162090536Y-90274443D02*
X162138155Y-90322062D01*
X162138155Y-90322062D02*
X162233393Y-90369681D01*
X162233393Y-90369681D02*
X162519107Y-90369681D01*
X162519107Y-90369681D02*
X162614345Y-90322062D01*
X162614345Y-90322062D02*
X162661964Y-90274443D01*
X162661964Y-90274443D02*
X162709583Y-90179205D01*
X162709583Y-90179205D02*
X162709583Y-90036348D01*
X162709583Y-90036348D02*
X162661964Y-89941110D01*
X162661964Y-89941110D02*
X162614345Y-89893491D01*
X162614345Y-89893491D02*
X162519107Y-89845872D01*
X162519107Y-89845872D02*
X162233393Y-89845872D01*
X162233393Y-89845872D02*
X162138155Y-89893491D01*
X162138155Y-89893491D02*
X162090536Y-89941110D01*
X162090536Y-89941110D02*
X162042916Y-90036348D01*
X162042916Y-90036348D02*
X162042916Y-90179205D01*
X162709583Y-89417300D02*
X162042916Y-89417300D01*
X162614345Y-89417300D02*
X162661964Y-89369681D01*
X162661964Y-89369681D02*
X162709583Y-89274443D01*
X162709583Y-89274443D02*
X162709583Y-89131586D01*
X162709583Y-89131586D02*
X162661964Y-89036348D01*
X162661964Y-89036348D02*
X162566726Y-88988729D01*
X162566726Y-88988729D02*
X162042916Y-88988729D01*
X162042916Y-88083967D02*
X162566726Y-88083967D01*
X162566726Y-88083967D02*
X162661964Y-88131586D01*
X162661964Y-88131586D02*
X162709583Y-88226824D01*
X162709583Y-88226824D02*
X162709583Y-88417300D01*
X162709583Y-88417300D02*
X162661964Y-88512538D01*
X162090536Y-88083967D02*
X162042916Y-88179205D01*
X162042916Y-88179205D02*
X162042916Y-88417300D01*
X162042916Y-88417300D02*
X162090536Y-88512538D01*
X162090536Y-88512538D02*
X162185774Y-88560157D01*
X162185774Y-88560157D02*
X162281012Y-88560157D01*
X162281012Y-88560157D02*
X162376250Y-88512538D01*
X162376250Y-88512538D02*
X162423869Y-88417300D01*
X162423869Y-88417300D02*
X162423869Y-88179205D01*
X162423869Y-88179205D02*
X162471488Y-88083967D01*
X162042916Y-87464919D02*
X162090536Y-87560157D01*
X162090536Y-87560157D02*
X162185774Y-87607776D01*
X162185774Y-87607776D02*
X163042916Y-87607776D01*
X162042916Y-86941109D02*
X162090536Y-87036347D01*
X162090536Y-87036347D02*
X162185774Y-87083966D01*
X162185774Y-87083966D02*
X163042916Y-87083966D01*
X162709583Y-86655394D02*
X162042916Y-86417299D01*
X162709583Y-86179204D02*
X162042916Y-86417299D01*
X162042916Y-86417299D02*
X161804821Y-86512537D01*
X161804821Y-86512537D02*
X161757202Y-86560156D01*
X161757202Y-86560156D02*
X161709583Y-86655394D01*
X162042916Y-85036346D02*
X163042916Y-85036346D01*
X162661964Y-85036346D02*
X162709583Y-84941108D01*
X162709583Y-84941108D02*
X162709583Y-84750632D01*
X162709583Y-84750632D02*
X162661964Y-84655394D01*
X162661964Y-84655394D02*
X162614345Y-84607775D01*
X162614345Y-84607775D02*
X162519107Y-84560156D01*
X162519107Y-84560156D02*
X162233393Y-84560156D01*
X162233393Y-84560156D02*
X162138155Y-84607775D01*
X162138155Y-84607775D02*
X162090536Y-84655394D01*
X162090536Y-84655394D02*
X162042916Y-84750632D01*
X162042916Y-84750632D02*
X162042916Y-84941108D01*
X162042916Y-84941108D02*
X162090536Y-85036346D01*
X162042916Y-84131584D02*
X162709583Y-84131584D01*
X162519107Y-84131584D02*
X162614345Y-84083965D01*
X162614345Y-84083965D02*
X162661964Y-84036346D01*
X162661964Y-84036346D02*
X162709583Y-83941108D01*
X162709583Y-83941108D02*
X162709583Y-83845870D01*
X162042916Y-83083965D02*
X162566726Y-83083965D01*
X162566726Y-83083965D02*
X162661964Y-83131584D01*
X162661964Y-83131584D02*
X162709583Y-83226822D01*
X162709583Y-83226822D02*
X162709583Y-83417298D01*
X162709583Y-83417298D02*
X162661964Y-83512536D01*
X162090536Y-83083965D02*
X162042916Y-83179203D01*
X162042916Y-83179203D02*
X162042916Y-83417298D01*
X162042916Y-83417298D02*
X162090536Y-83512536D01*
X162090536Y-83512536D02*
X162185774Y-83560155D01*
X162185774Y-83560155D02*
X162281012Y-83560155D01*
X162281012Y-83560155D02*
X162376250Y-83512536D01*
X162376250Y-83512536D02*
X162423869Y-83417298D01*
X162423869Y-83417298D02*
X162423869Y-83179203D01*
X162423869Y-83179203D02*
X162471488Y-83083965D01*
X162709583Y-82607774D02*
X162042916Y-82607774D01*
X162614345Y-82607774D02*
X162661964Y-82560155D01*
X162661964Y-82560155D02*
X162709583Y-82464917D01*
X162709583Y-82464917D02*
X162709583Y-82322060D01*
X162709583Y-82322060D02*
X162661964Y-82226822D01*
X162661964Y-82226822D02*
X162566726Y-82179203D01*
X162566726Y-82179203D02*
X162042916Y-82179203D01*
X162090536Y-81274441D02*
X162042916Y-81369679D01*
X162042916Y-81369679D02*
X162042916Y-81560155D01*
X162042916Y-81560155D02*
X162090536Y-81655393D01*
X162090536Y-81655393D02*
X162138155Y-81703012D01*
X162138155Y-81703012D02*
X162233393Y-81750631D01*
X162233393Y-81750631D02*
X162519107Y-81750631D01*
X162519107Y-81750631D02*
X162614345Y-81703012D01*
X162614345Y-81703012D02*
X162661964Y-81655393D01*
X162661964Y-81655393D02*
X162709583Y-81560155D01*
X162709583Y-81560155D02*
X162709583Y-81369679D01*
X162709583Y-81369679D02*
X162661964Y-81274441D01*
X162042916Y-80845869D02*
X163042916Y-80845869D01*
X162042916Y-80417298D02*
X162566726Y-80417298D01*
X162566726Y-80417298D02*
X162661964Y-80464917D01*
X162661964Y-80464917D02*
X162709583Y-80560155D01*
X162709583Y-80560155D02*
X162709583Y-80703012D01*
X162709583Y-80703012D02*
X162661964Y-80798250D01*
X162661964Y-80798250D02*
X162614345Y-80845869D01*
X160432972Y-117512544D02*
X160956782Y-117512544D01*
X160956782Y-117512544D02*
X161052020Y-117560163D01*
X161052020Y-117560163D02*
X161099639Y-117655401D01*
X161099639Y-117655401D02*
X161099639Y-117845877D01*
X161099639Y-117845877D02*
X161052020Y-117941115D01*
X160480592Y-117512544D02*
X160432972Y-117607782D01*
X160432972Y-117607782D02*
X160432972Y-117845877D01*
X160432972Y-117845877D02*
X160480592Y-117941115D01*
X160480592Y-117941115D02*
X160575830Y-117988734D01*
X160575830Y-117988734D02*
X160671068Y-117988734D01*
X160671068Y-117988734D02*
X160766306Y-117941115D01*
X160766306Y-117941115D02*
X160813925Y-117845877D01*
X160813925Y-117845877D02*
X160813925Y-117607782D01*
X160813925Y-117607782D02*
X160861544Y-117512544D01*
X161099639Y-117036353D02*
X160432972Y-117036353D01*
X161004401Y-117036353D02*
X161052020Y-116988734D01*
X161052020Y-116988734D02*
X161099639Y-116893496D01*
X161099639Y-116893496D02*
X161099639Y-116750639D01*
X161099639Y-116750639D02*
X161052020Y-116655401D01*
X161052020Y-116655401D02*
X160956782Y-116607782D01*
X160956782Y-116607782D02*
X160432972Y-116607782D01*
X160432972Y-115703020D02*
X161432972Y-115703020D01*
X160480592Y-115703020D02*
X160432972Y-115798258D01*
X160432972Y-115798258D02*
X160432972Y-115988734D01*
X160432972Y-115988734D02*
X160480592Y-116083972D01*
X160480592Y-116083972D02*
X160528211Y-116131591D01*
X160528211Y-116131591D02*
X160623449Y-116179210D01*
X160623449Y-116179210D02*
X160909163Y-116179210D01*
X160909163Y-116179210D02*
X161004401Y-116131591D01*
X161004401Y-116131591D02*
X161052020Y-116083972D01*
X161052020Y-116083972D02*
X161099639Y-115988734D01*
X161099639Y-115988734D02*
X161099639Y-115798258D01*
X161099639Y-115798258D02*
X161052020Y-115703020D01*
X160432972Y-114464924D02*
X161099639Y-114464924D01*
X160909163Y-114464924D02*
X161004401Y-114417305D01*
X161004401Y-114417305D02*
X161052020Y-114369686D01*
X161052020Y-114369686D02*
X161099639Y-114274448D01*
X161099639Y-114274448D02*
X161099639Y-114179210D01*
X160480592Y-113464924D02*
X160432972Y-113560162D01*
X160432972Y-113560162D02*
X160432972Y-113750638D01*
X160432972Y-113750638D02*
X160480592Y-113845876D01*
X160480592Y-113845876D02*
X160575830Y-113893495D01*
X160575830Y-113893495D02*
X160956782Y-113893495D01*
X160956782Y-113893495D02*
X161052020Y-113845876D01*
X161052020Y-113845876D02*
X161099639Y-113750638D01*
X161099639Y-113750638D02*
X161099639Y-113560162D01*
X161099639Y-113560162D02*
X161052020Y-113464924D01*
X161052020Y-113464924D02*
X160956782Y-113417305D01*
X160956782Y-113417305D02*
X160861544Y-113417305D01*
X160861544Y-113417305D02*
X160766306Y-113893495D01*
X161099639Y-113131590D02*
X161099639Y-112750638D01*
X161432972Y-112988733D02*
X160575830Y-112988733D01*
X160575830Y-112988733D02*
X160480592Y-112941114D01*
X160480592Y-112941114D02*
X160432972Y-112845876D01*
X160432972Y-112845876D02*
X160432972Y-112750638D01*
X161099639Y-111988733D02*
X160432972Y-111988733D01*
X161099639Y-112417304D02*
X160575830Y-112417304D01*
X160575830Y-112417304D02*
X160480592Y-112369685D01*
X160480592Y-112369685D02*
X160432972Y-112274447D01*
X160432972Y-112274447D02*
X160432972Y-112131590D01*
X160432972Y-112131590D02*
X160480592Y-112036352D01*
X160480592Y-112036352D02*
X160528211Y-111988733D01*
X160432972Y-111512542D02*
X161099639Y-111512542D01*
X160909163Y-111512542D02*
X161004401Y-111464923D01*
X161004401Y-111464923D02*
X161052020Y-111417304D01*
X161052020Y-111417304D02*
X161099639Y-111322066D01*
X161099639Y-111322066D02*
X161099639Y-111226828D01*
X161099639Y-110893494D02*
X160432972Y-110893494D01*
X161004401Y-110893494D02*
X161052020Y-110845875D01*
X161052020Y-110845875D02*
X161099639Y-110750637D01*
X161099639Y-110750637D02*
X161099639Y-110607780D01*
X161099639Y-110607780D02*
X161052020Y-110512542D01*
X161052020Y-110512542D02*
X160956782Y-110464923D01*
X160956782Y-110464923D02*
X160432972Y-110464923D01*
X161099639Y-109369684D02*
X161099639Y-108988732D01*
X161432972Y-109226827D02*
X160575830Y-109226827D01*
X160575830Y-109226827D02*
X160480592Y-109179208D01*
X160480592Y-109179208D02*
X160432972Y-109083970D01*
X160432972Y-109083970D02*
X160432972Y-108988732D01*
X160432972Y-108655398D02*
X161432972Y-108655398D01*
X160432972Y-108226827D02*
X160956782Y-108226827D01*
X160956782Y-108226827D02*
X161052020Y-108274446D01*
X161052020Y-108274446D02*
X161099639Y-108369684D01*
X161099639Y-108369684D02*
X161099639Y-108512541D01*
X161099639Y-108512541D02*
X161052020Y-108607779D01*
X161052020Y-108607779D02*
X161004401Y-108655398D01*
X160432972Y-107750636D02*
X161099639Y-107750636D01*
X160909163Y-107750636D02*
X161004401Y-107703017D01*
X161004401Y-107703017D02*
X161052020Y-107655398D01*
X161052020Y-107655398D02*
X161099639Y-107560160D01*
X161099639Y-107560160D02*
X161099639Y-107464922D01*
X160432972Y-106988731D02*
X160480592Y-107083969D01*
X160480592Y-107083969D02*
X160528211Y-107131588D01*
X160528211Y-107131588D02*
X160623449Y-107179207D01*
X160623449Y-107179207D02*
X160909163Y-107179207D01*
X160909163Y-107179207D02*
X161004401Y-107131588D01*
X161004401Y-107131588D02*
X161052020Y-107083969D01*
X161052020Y-107083969D02*
X161099639Y-106988731D01*
X161099639Y-106988731D02*
X161099639Y-106845874D01*
X161099639Y-106845874D02*
X161052020Y-106750636D01*
X161052020Y-106750636D02*
X161004401Y-106703017D01*
X161004401Y-106703017D02*
X160909163Y-106655398D01*
X160909163Y-106655398D02*
X160623449Y-106655398D01*
X160623449Y-106655398D02*
X160528211Y-106703017D01*
X160528211Y-106703017D02*
X160480592Y-106750636D01*
X160480592Y-106750636D02*
X160432972Y-106845874D01*
X160432972Y-106845874D02*
X160432972Y-106988731D01*
X161099639Y-105798255D02*
X160432972Y-105798255D01*
X161099639Y-106226826D02*
X160575830Y-106226826D01*
X160575830Y-106226826D02*
X160480592Y-106179207D01*
X160480592Y-106179207D02*
X160432972Y-106083969D01*
X160432972Y-106083969D02*
X160432972Y-105941112D01*
X160432972Y-105941112D02*
X160480592Y-105845874D01*
X160480592Y-105845874D02*
X160528211Y-105798255D01*
X161099639Y-104893493D02*
X160290115Y-104893493D01*
X160290115Y-104893493D02*
X160194877Y-104941112D01*
X160194877Y-104941112D02*
X160147258Y-104988731D01*
X160147258Y-104988731D02*
X160099639Y-105083969D01*
X160099639Y-105083969D02*
X160099639Y-105226826D01*
X160099639Y-105226826D02*
X160147258Y-105322064D01*
X160480592Y-104893493D02*
X160432972Y-104988731D01*
X160432972Y-104988731D02*
X160432972Y-105179207D01*
X160432972Y-105179207D02*
X160480592Y-105274445D01*
X160480592Y-105274445D02*
X160528211Y-105322064D01*
X160528211Y-105322064D02*
X160623449Y-105369683D01*
X160623449Y-105369683D02*
X160909163Y-105369683D01*
X160909163Y-105369683D02*
X161004401Y-105322064D01*
X161004401Y-105322064D02*
X161052020Y-105274445D01*
X161052020Y-105274445D02*
X161099639Y-105179207D01*
X161099639Y-105179207D02*
X161099639Y-104988731D01*
X161099639Y-104988731D02*
X161052020Y-104893493D01*
X160432972Y-104417302D02*
X161432972Y-104417302D01*
X160432972Y-103988731D02*
X160956782Y-103988731D01*
X160956782Y-103988731D02*
X161052020Y-104036350D01*
X161052020Y-104036350D02*
X161099639Y-104131588D01*
X161099639Y-104131588D02*
X161099639Y-104274445D01*
X161099639Y-104274445D02*
X161052020Y-104369683D01*
X161052020Y-104369683D02*
X161004401Y-104417302D01*
X161099639Y-102893492D02*
X161099639Y-102512540D01*
X161432972Y-102750635D02*
X160575830Y-102750635D01*
X160575830Y-102750635D02*
X160480592Y-102703016D01*
X160480592Y-102703016D02*
X160432972Y-102607778D01*
X160432972Y-102607778D02*
X160432972Y-102512540D01*
X160432972Y-102179206D02*
X161432972Y-102179206D01*
X160432972Y-101750635D02*
X160956782Y-101750635D01*
X160956782Y-101750635D02*
X161052020Y-101798254D01*
X161052020Y-101798254D02*
X161099639Y-101893492D01*
X161099639Y-101893492D02*
X161099639Y-102036349D01*
X161099639Y-102036349D02*
X161052020Y-102131587D01*
X161052020Y-102131587D02*
X161004401Y-102179206D01*
X160480592Y-100893492D02*
X160432972Y-100988730D01*
X160432972Y-100988730D02*
X160432972Y-101179206D01*
X160432972Y-101179206D02*
X160480592Y-101274444D01*
X160480592Y-101274444D02*
X160575830Y-101322063D01*
X160575830Y-101322063D02*
X160956782Y-101322063D01*
X160956782Y-101322063D02*
X161052020Y-101274444D01*
X161052020Y-101274444D02*
X161099639Y-101179206D01*
X161099639Y-101179206D02*
X161099639Y-100988730D01*
X161099639Y-100988730D02*
X161052020Y-100893492D01*
X161052020Y-100893492D02*
X160956782Y-100845873D01*
X160956782Y-100845873D02*
X160861544Y-100845873D01*
X160861544Y-100845873D02*
X160766306Y-101322063D01*
X161099639Y-99655396D02*
X160099639Y-99655396D01*
X161052020Y-99655396D02*
X161099639Y-99560158D01*
X161099639Y-99560158D02*
X161099639Y-99369682D01*
X161099639Y-99369682D02*
X161052020Y-99274444D01*
X161052020Y-99274444D02*
X161004401Y-99226825D01*
X161004401Y-99226825D02*
X160909163Y-99179206D01*
X160909163Y-99179206D02*
X160623449Y-99179206D01*
X160623449Y-99179206D02*
X160528211Y-99226825D01*
X160528211Y-99226825D02*
X160480592Y-99274444D01*
X160480592Y-99274444D02*
X160432972Y-99369682D01*
X160432972Y-99369682D02*
X160432972Y-99560158D01*
X160432972Y-99560158D02*
X160480592Y-99655396D01*
X160432972Y-98750634D02*
X161099639Y-98750634D01*
X160909163Y-98750634D02*
X161004401Y-98703015D01*
X161004401Y-98703015D02*
X161052020Y-98655396D01*
X161052020Y-98655396D02*
X161099639Y-98560158D01*
X161099639Y-98560158D02*
X161099639Y-98464920D01*
X160432972Y-97988729D02*
X160480592Y-98083967D01*
X160480592Y-98083967D02*
X160528211Y-98131586D01*
X160528211Y-98131586D02*
X160623449Y-98179205D01*
X160623449Y-98179205D02*
X160909163Y-98179205D01*
X160909163Y-98179205D02*
X161004401Y-98131586D01*
X161004401Y-98131586D02*
X161052020Y-98083967D01*
X161052020Y-98083967D02*
X161099639Y-97988729D01*
X161099639Y-97988729D02*
X161099639Y-97845872D01*
X161099639Y-97845872D02*
X161052020Y-97750634D01*
X161052020Y-97750634D02*
X161004401Y-97703015D01*
X161004401Y-97703015D02*
X160909163Y-97655396D01*
X160909163Y-97655396D02*
X160623449Y-97655396D01*
X160623449Y-97655396D02*
X160528211Y-97703015D01*
X160528211Y-97703015D02*
X160480592Y-97750634D01*
X160480592Y-97750634D02*
X160432972Y-97845872D01*
X160432972Y-97845872D02*
X160432972Y-97988729D01*
X161099639Y-96798253D02*
X160290115Y-96798253D01*
X160290115Y-96798253D02*
X160194877Y-96845872D01*
X160194877Y-96845872D02*
X160147258Y-96893491D01*
X160147258Y-96893491D02*
X160099639Y-96988729D01*
X160099639Y-96988729D02*
X160099639Y-97131586D01*
X160099639Y-97131586D02*
X160147258Y-97226824D01*
X160480592Y-96798253D02*
X160432972Y-96893491D01*
X160432972Y-96893491D02*
X160432972Y-97083967D01*
X160432972Y-97083967D02*
X160480592Y-97179205D01*
X160480592Y-97179205D02*
X160528211Y-97226824D01*
X160528211Y-97226824D02*
X160623449Y-97274443D01*
X160623449Y-97274443D02*
X160909163Y-97274443D01*
X160909163Y-97274443D02*
X161004401Y-97226824D01*
X161004401Y-97226824D02*
X161052020Y-97179205D01*
X161052020Y-97179205D02*
X161099639Y-97083967D01*
X161099639Y-97083967D02*
X161099639Y-96893491D01*
X161099639Y-96893491D02*
X161052020Y-96798253D01*
X160432972Y-96322062D02*
X161099639Y-96322062D01*
X160909163Y-96322062D02*
X161004401Y-96274443D01*
X161004401Y-96274443D02*
X161052020Y-96226824D01*
X161052020Y-96226824D02*
X161099639Y-96131586D01*
X161099639Y-96131586D02*
X161099639Y-96036348D01*
X160432972Y-95274443D02*
X160956782Y-95274443D01*
X160956782Y-95274443D02*
X161052020Y-95322062D01*
X161052020Y-95322062D02*
X161099639Y-95417300D01*
X161099639Y-95417300D02*
X161099639Y-95607776D01*
X161099639Y-95607776D02*
X161052020Y-95703014D01*
X160480592Y-95274443D02*
X160432972Y-95369681D01*
X160432972Y-95369681D02*
X160432972Y-95607776D01*
X160432972Y-95607776D02*
X160480592Y-95703014D01*
X160480592Y-95703014D02*
X160575830Y-95750633D01*
X160575830Y-95750633D02*
X160671068Y-95750633D01*
X160671068Y-95750633D02*
X160766306Y-95703014D01*
X160766306Y-95703014D02*
X160813925Y-95607776D01*
X160813925Y-95607776D02*
X160813925Y-95369681D01*
X160813925Y-95369681D02*
X160861544Y-95274443D01*
X160432972Y-94798252D02*
X161099639Y-94798252D01*
X161004401Y-94798252D02*
X161052020Y-94750633D01*
X161052020Y-94750633D02*
X161099639Y-94655395D01*
X161099639Y-94655395D02*
X161099639Y-94512538D01*
X161099639Y-94512538D02*
X161052020Y-94417300D01*
X161052020Y-94417300D02*
X160956782Y-94369681D01*
X160956782Y-94369681D02*
X160432972Y-94369681D01*
X160956782Y-94369681D02*
X161052020Y-94322062D01*
X161052020Y-94322062D02*
X161099639Y-94226824D01*
X161099639Y-94226824D02*
X161099639Y-94083967D01*
X161099639Y-94083967D02*
X161052020Y-93988728D01*
X161052020Y-93988728D02*
X160956782Y-93941109D01*
X160956782Y-93941109D02*
X160432972Y-93941109D01*
X161099639Y-92703014D02*
X160432972Y-92703014D01*
X161004401Y-92703014D02*
X161052020Y-92655395D01*
X161052020Y-92655395D02*
X161099639Y-92560157D01*
X161099639Y-92560157D02*
X161099639Y-92417300D01*
X161099639Y-92417300D02*
X161052020Y-92322062D01*
X161052020Y-92322062D02*
X160956782Y-92274443D01*
X160956782Y-92274443D02*
X160432972Y-92274443D01*
X160432972Y-91655395D02*
X160480592Y-91750633D01*
X160480592Y-91750633D02*
X160528211Y-91798252D01*
X160528211Y-91798252D02*
X160623449Y-91845871D01*
X160623449Y-91845871D02*
X160909163Y-91845871D01*
X160909163Y-91845871D02*
X161004401Y-91798252D01*
X161004401Y-91798252D02*
X161052020Y-91750633D01*
X161052020Y-91750633D02*
X161099639Y-91655395D01*
X161099639Y-91655395D02*
X161099639Y-91512538D01*
X161099639Y-91512538D02*
X161052020Y-91417300D01*
X161052020Y-91417300D02*
X161004401Y-91369681D01*
X161004401Y-91369681D02*
X160909163Y-91322062D01*
X160909163Y-91322062D02*
X160623449Y-91322062D01*
X160623449Y-91322062D02*
X160528211Y-91369681D01*
X160528211Y-91369681D02*
X160480592Y-91417300D01*
X160480592Y-91417300D02*
X160432972Y-91512538D01*
X160432972Y-91512538D02*
X160432972Y-91655395D01*
X161099639Y-90893490D02*
X160432972Y-90893490D01*
X161004401Y-90893490D02*
X161052020Y-90845871D01*
X161052020Y-90845871D02*
X161099639Y-90750633D01*
X161099639Y-90750633D02*
X161099639Y-90607776D01*
X161099639Y-90607776D02*
X161052020Y-90512538D01*
X161052020Y-90512538D02*
X160956782Y-90464919D01*
X160956782Y-90464919D02*
X160432972Y-90464919D01*
X160813925Y-89988728D02*
X160813925Y-89226824D01*
X160480592Y-88798252D02*
X160432972Y-88703014D01*
X160432972Y-88703014D02*
X160432972Y-88512538D01*
X160432972Y-88512538D02*
X160480592Y-88417300D01*
X160480592Y-88417300D02*
X160575830Y-88369681D01*
X160575830Y-88369681D02*
X160623449Y-88369681D01*
X160623449Y-88369681D02*
X160718687Y-88417300D01*
X160718687Y-88417300D02*
X160766306Y-88512538D01*
X160766306Y-88512538D02*
X160766306Y-88655395D01*
X160766306Y-88655395D02*
X160813925Y-88750633D01*
X160813925Y-88750633D02*
X160909163Y-88798252D01*
X160909163Y-88798252D02*
X160956782Y-88798252D01*
X160956782Y-88798252D02*
X161052020Y-88750633D01*
X161052020Y-88750633D02*
X161099639Y-88655395D01*
X161099639Y-88655395D02*
X161099639Y-88512538D01*
X161099639Y-88512538D02*
X161052020Y-88417300D01*
X160480592Y-87560157D02*
X160432972Y-87655395D01*
X160432972Y-87655395D02*
X160432972Y-87845871D01*
X160432972Y-87845871D02*
X160480592Y-87941109D01*
X160480592Y-87941109D02*
X160575830Y-87988728D01*
X160575830Y-87988728D02*
X160956782Y-87988728D01*
X160956782Y-87988728D02*
X161052020Y-87941109D01*
X161052020Y-87941109D02*
X161099639Y-87845871D01*
X161099639Y-87845871D02*
X161099639Y-87655395D01*
X161099639Y-87655395D02*
X161052020Y-87560157D01*
X161052020Y-87560157D02*
X160956782Y-87512538D01*
X160956782Y-87512538D02*
X160861544Y-87512538D01*
X160861544Y-87512538D02*
X160766306Y-87988728D01*
X161099639Y-86655395D02*
X160099639Y-86655395D01*
X160480592Y-86655395D02*
X160432972Y-86750633D01*
X160432972Y-86750633D02*
X160432972Y-86941109D01*
X160432972Y-86941109D02*
X160480592Y-87036347D01*
X160480592Y-87036347D02*
X160528211Y-87083966D01*
X160528211Y-87083966D02*
X160623449Y-87131585D01*
X160623449Y-87131585D02*
X160909163Y-87131585D01*
X160909163Y-87131585D02*
X161004401Y-87083966D01*
X161004401Y-87083966D02*
X161052020Y-87036347D01*
X161052020Y-87036347D02*
X161099639Y-86941109D01*
X161099639Y-86941109D02*
X161099639Y-86750633D01*
X161099639Y-86750633D02*
X161052020Y-86655395D01*
X161099639Y-85750633D02*
X160432972Y-85750633D01*
X161099639Y-86179204D02*
X160575830Y-86179204D01*
X160575830Y-86179204D02*
X160480592Y-86131585D01*
X160480592Y-86131585D02*
X160432972Y-86036347D01*
X160432972Y-86036347D02*
X160432972Y-85893490D01*
X160432972Y-85893490D02*
X160480592Y-85798252D01*
X160480592Y-85798252D02*
X160528211Y-85750633D01*
X160480592Y-84893490D02*
X160432972Y-84988728D01*
X160432972Y-84988728D02*
X160432972Y-85179204D01*
X160432972Y-85179204D02*
X160480592Y-85274442D01*
X160480592Y-85274442D02*
X160575830Y-85322061D01*
X160575830Y-85322061D02*
X160956782Y-85322061D01*
X160956782Y-85322061D02*
X161052020Y-85274442D01*
X161052020Y-85274442D02*
X161099639Y-85179204D01*
X161099639Y-85179204D02*
X161099639Y-84988728D01*
X161099639Y-84988728D02*
X161052020Y-84893490D01*
X161052020Y-84893490D02*
X160956782Y-84845871D01*
X160956782Y-84845871D02*
X160861544Y-84845871D01*
X160861544Y-84845871D02*
X160766306Y-85322061D01*
X161099639Y-84417299D02*
X160432972Y-84417299D01*
X161004401Y-84417299D02*
X161052020Y-84369680D01*
X161052020Y-84369680D02*
X161099639Y-84274442D01*
X161099639Y-84274442D02*
X161099639Y-84131585D01*
X161099639Y-84131585D02*
X161052020Y-84036347D01*
X161052020Y-84036347D02*
X160956782Y-83988728D01*
X160956782Y-83988728D02*
X160432972Y-83988728D01*
X161099639Y-83655394D02*
X161099639Y-83274442D01*
X161432972Y-83512537D02*
X160575830Y-83512537D01*
X160575830Y-83512537D02*
X160480592Y-83464918D01*
X160480592Y-83464918D02*
X160432972Y-83369680D01*
X160432972Y-83369680D02*
X160432972Y-83274442D01*
X160432972Y-82941108D02*
X161099639Y-82941108D01*
X161432972Y-82941108D02*
X161385353Y-82988727D01*
X161385353Y-82988727D02*
X161337734Y-82941108D01*
X161337734Y-82941108D02*
X161385353Y-82893489D01*
X161385353Y-82893489D02*
X161432972Y-82941108D01*
X161432972Y-82941108D02*
X161337734Y-82941108D01*
X160432972Y-82036347D02*
X160956782Y-82036347D01*
X160956782Y-82036347D02*
X161052020Y-82083966D01*
X161052020Y-82083966D02*
X161099639Y-82179204D01*
X161099639Y-82179204D02*
X161099639Y-82369680D01*
X161099639Y-82369680D02*
X161052020Y-82464918D01*
X160480592Y-82036347D02*
X160432972Y-82131585D01*
X160432972Y-82131585D02*
X160432972Y-82369680D01*
X160432972Y-82369680D02*
X160480592Y-82464918D01*
X160480592Y-82464918D02*
X160575830Y-82512537D01*
X160575830Y-82512537D02*
X160671068Y-82512537D01*
X160671068Y-82512537D02*
X160766306Y-82464918D01*
X160766306Y-82464918D02*
X160813925Y-82369680D01*
X160813925Y-82369680D02*
X160813925Y-82131585D01*
X160813925Y-82131585D02*
X160861544Y-82036347D01*
X160432972Y-81417299D02*
X160480592Y-81512537D01*
X160480592Y-81512537D02*
X160575830Y-81560156D01*
X160575830Y-81560156D02*
X161432972Y-81560156D01*
X160432972Y-80893489D02*
X160480592Y-80988727D01*
X160480592Y-80988727D02*
X160575830Y-81036346D01*
X160575830Y-81036346D02*
X161432972Y-81036346D01*
X161099639Y-80607774D02*
X160432972Y-80369679D01*
X161099639Y-80131584D02*
X160432972Y-80369679D01*
X160432972Y-80369679D02*
X160194877Y-80464917D01*
X160194877Y-80464917D02*
X160147258Y-80512536D01*
X160147258Y-80512536D02*
X160099639Y-80607774D01*
X160528211Y-79750631D02*
X160480592Y-79703012D01*
X160480592Y-79703012D02*
X160432972Y-79750631D01*
X160432972Y-79750631D02*
X160480592Y-79798250D01*
X160480592Y-79798250D02*
X160528211Y-79750631D01*
X160528211Y-79750631D02*
X160432972Y-79750631D01*
M02*
