%TF.GenerationSoftware,KiCad,Pcbnew,8.0.4*%
%TF.CreationDate,2024-11-02T20:35:01-04:00*%
%TF.ProjectId,Programming Board,50726f67-7261-46d6-9d69-6e6720426f61,rev?*%
%TF.SameCoordinates,Original*%
%TF.FileFunction,Soldermask,Top*%
%TF.FilePolarity,Negative*%
%FSLAX46Y46*%
G04 Gerber Fmt 4.6, Leading zero omitted, Abs format (unit mm)*
G04 Created by KiCad (PCBNEW 8.0.4) date 2024-11-02 20:35:01*
%MOMM*%
%LPD*%
G01*
G04 APERTURE LIST*
G04 Aperture macros list*
%AMRoundRect*
0 Rectangle with rounded corners*
0 $1 Rounding radius*
0 $2 $3 $4 $5 $6 $7 $8 $9 X,Y pos of 4 corners*
0 Add a 4 corners polygon primitive as box body*
4,1,4,$2,$3,$4,$5,$6,$7,$8,$9,$2,$3,0*
0 Add four circle primitives for the rounded corners*
1,1,$1+$1,$2,$3*
1,1,$1+$1,$4,$5*
1,1,$1+$1,$6,$7*
1,1,$1+$1,$8,$9*
0 Add four rect primitives between the rounded corners*
20,1,$1+$1,$2,$3,$4,$5,0*
20,1,$1+$1,$4,$5,$6,$7,0*
20,1,$1+$1,$6,$7,$8,$9,0*
20,1,$1+$1,$8,$9,$2,$3,0*%
G04 Aperture macros list end*
%ADD10RoundRect,0.135000X0.135000X0.185000X-0.135000X0.185000X-0.135000X-0.185000X0.135000X-0.185000X0*%
%ADD11R,1.440000X2.000000*%
%ADD12O,1.440000X2.000000*%
%ADD13RoundRect,0.250000X-0.312500X-1.075000X0.312500X-1.075000X0.312500X1.075000X-0.312500X1.075000X0*%
%ADD14R,1.250000X1.000000*%
%ADD15R,1.700000X1.700000*%
%ADD16O,1.700000X1.700000*%
G04 APERTURE END LIST*
D10*
%TO.C,220\u03A9B4*%
X89760000Y-63835710D03*
X88740000Y-63835710D03*
%TD*%
%TO.C,220\u03A9B3*%
X89760000Y-62644890D03*
X88740000Y-62644890D03*
%TD*%
%TO.C,220\u03A9B2*%
X89760000Y-61454075D03*
X88740000Y-61454075D03*
%TD*%
%TO.C,220\u03A9B1*%
X89760000Y-60263260D03*
X88740000Y-60263260D03*
%TD*%
%TO.C,220\u03A9A4*%
X89760000Y-59072445D03*
X88740000Y-59072445D03*
%TD*%
%TO.C,220\u03A9A3*%
X89760000Y-57881630D03*
X88740000Y-57881630D03*
%TD*%
%TO.C,220\u03A9A2*%
X89760000Y-56690815D03*
X88740000Y-56690815D03*
%TD*%
%TO.C,220\u03A9A1*%
X89760000Y-55500000D03*
X88740000Y-55500000D03*
%TD*%
%TO.C,220\u03A928111*%
X89760000Y-74335710D03*
X88740000Y-74335710D03*
%TD*%
%TO.C,220\u03A927111*%
X89760000Y-73144890D03*
X88740000Y-73144890D03*
%TD*%
%TO.C,220\u03A926111*%
X89760000Y-71954075D03*
X88740000Y-71954075D03*
%TD*%
%TO.C,220\u03A925111*%
X89760000Y-70763260D03*
X88740000Y-70763260D03*
%TD*%
%TO.C,220\u03A924111*%
X89760000Y-69572445D03*
X88740000Y-69572445D03*
%TD*%
%TO.C,220\u03A923111*%
X89760000Y-68381630D03*
X88740000Y-68381630D03*
%TD*%
%TO.C,220\u03A922111*%
X89760000Y-67190815D03*
X88740000Y-67190815D03*
%TD*%
%TO.C,220\u03A921111*%
X89760000Y-66000000D03*
X88740000Y-66000000D03*
%TD*%
%TO.C,220\u03A918111*%
X89760000Y-84835710D03*
X88740000Y-84835710D03*
%TD*%
%TO.C,220\u03A917111*%
X89760000Y-83644890D03*
X88740000Y-83644890D03*
%TD*%
%TO.C,220\u03A916111*%
X89760000Y-82454075D03*
X88740000Y-82454075D03*
%TD*%
%TO.C,220\u03A915111*%
X89760000Y-81263260D03*
X88740000Y-81263260D03*
%TD*%
%TO.C,220\u03A914111*%
X89760000Y-80072445D03*
X88740000Y-80072445D03*
%TD*%
%TO.C,220\u03A913111*%
X89760000Y-78881630D03*
X88740000Y-78881630D03*
%TD*%
%TO.C,220\u03A912111*%
X89760000Y-77690815D03*
X88740000Y-77690815D03*
%TD*%
%TO.C,220\u03A911111*%
X89760000Y-76500000D03*
X88740000Y-76500000D03*
%TD*%
D11*
%TO.C,8xDIP2*%
X91800000Y-73845000D03*
D12*
X94340000Y-73845000D03*
X96880000Y-73845000D03*
X99420000Y-73845000D03*
X101960000Y-73845000D03*
X104500000Y-73845000D03*
X107040000Y-73845000D03*
X109580000Y-73845000D03*
X109580000Y-66225000D03*
X107040000Y-66225000D03*
X104500000Y-66225000D03*
X101960000Y-66225000D03*
X99420000Y-66225000D03*
X96880000Y-66225000D03*
X94340000Y-66225000D03*
X91800000Y-66225000D03*
%TD*%
D13*
%TO.C,220\u03A9P2*%
X124000000Y-71500000D03*
X126925000Y-71500000D03*
%TD*%
D14*
%TO.C,WE_Switch1*%
X131175000Y-75900000D03*
X123425000Y-75900000D03*
%TD*%
D15*
%TO.C,J1*%
X113840000Y-66000000D03*
D16*
X116380000Y-66000000D03*
X118920000Y-66000000D03*
X121460000Y-66000000D03*
X124000000Y-66000000D03*
X126540000Y-66000000D03*
X129080000Y-66000000D03*
X131620000Y-66000000D03*
X134160000Y-66000000D03*
%TD*%
D15*
%TO.C,MW1*%
X134140000Y-72775000D03*
D16*
X134140000Y-70235000D03*
%TD*%
D11*
%TO.C,8xDIPA1*%
X91800000Y-63380000D03*
D12*
X94340000Y-63380000D03*
X96880000Y-63380000D03*
X99420000Y-63380000D03*
X101960000Y-63380000D03*
X104500000Y-63380000D03*
X107040000Y-63380000D03*
X109580000Y-63380000D03*
X109580000Y-55760000D03*
X107040000Y-55760000D03*
X104500000Y-55760000D03*
X101960000Y-55760000D03*
X99420000Y-55760000D03*
X96880000Y-55760000D03*
X94340000Y-55760000D03*
X91800000Y-55760000D03*
%TD*%
D14*
%TO.C,2xPushButtonB1*%
X113125000Y-82000000D03*
X120875000Y-82000000D03*
%TD*%
%TO.C,2xPushButtonB2*%
X113125000Y-71500000D03*
X120875000Y-71500000D03*
%TD*%
D15*
%TO.C,PWR1*%
X134140000Y-83275000D03*
D16*
X134140000Y-80735000D03*
%TD*%
D11*
%TO.C,8xDIP1*%
X91800000Y-84310000D03*
D12*
X94340000Y-84310000D03*
X96880000Y-84310000D03*
X99420000Y-84310000D03*
X101960000Y-84310000D03*
X104500000Y-84310000D03*
X107040000Y-84310000D03*
X109580000Y-84310000D03*
X109580000Y-76690000D03*
X107040000Y-76690000D03*
X104500000Y-76690000D03*
X101960000Y-76690000D03*
X99420000Y-76690000D03*
X96880000Y-76690000D03*
X94340000Y-76690000D03*
X91800000Y-76690000D03*
%TD*%
D15*
%TO.C,J2*%
X113840000Y-60700000D03*
D16*
X116380000Y-60700000D03*
X118920000Y-60700000D03*
X121460000Y-60700000D03*
X124000000Y-60700000D03*
X126540000Y-60700000D03*
X129080000Y-60700000D03*
X131620000Y-60700000D03*
X134160000Y-60700000D03*
%TD*%
D15*
%TO.C,JA1*%
X113840000Y-55500000D03*
D16*
X116380000Y-55500000D03*
X118920000Y-55500000D03*
X121460000Y-55500000D03*
X124000000Y-55500000D03*
X126540000Y-55500000D03*
X129080000Y-55500000D03*
X131620000Y-55500000D03*
X134160000Y-55500000D03*
%TD*%
D13*
%TO.C,220\u03A9P1*%
X124000000Y-82000000D03*
X126925000Y-82000000D03*
%TD*%
M02*
