%TF.GenerationSoftware,KiCad,Pcbnew,8.0.4*%
%TF.CreationDate,2024-11-02T20:35:01-04:00*%
%TF.ProjectId,Programming Board,50726f67-7261-46d6-9d69-6e6720426f61,rev?*%
%TF.SameCoordinates,Original*%
%TF.FileFunction,Legend,Bot*%
%TF.FilePolarity,Positive*%
%FSLAX46Y46*%
G04 Gerber Fmt 4.6, Leading zero omitted, Abs format (unit mm)*
G04 Created by KiCad (PCBNEW 8.0.4) date 2024-11-02 20:35:01*
%MOMM*%
%LPD*%
G01*
G04 APERTURE LIST*
%ADD10C,0.300000*%
%ADD11C,0.100000*%
G04 APERTURE END LIST*
D10*
X111755828Y-67454510D02*
X112970114Y-67454510D01*
X112970114Y-67454510D02*
X113112971Y-67525939D01*
X113112971Y-67525939D02*
X113184400Y-67597368D01*
X113184400Y-67597368D02*
X113255828Y-67740225D01*
X113255828Y-67740225D02*
X113255828Y-68025939D01*
X113255828Y-68025939D02*
X113184400Y-68168796D01*
X113184400Y-68168796D02*
X113112971Y-68240225D01*
X113112971Y-68240225D02*
X112970114Y-68311653D01*
X112970114Y-68311653D02*
X111755828Y-68311653D01*
X113184400Y-68954511D02*
X113255828Y-69168797D01*
X113255828Y-69168797D02*
X113255828Y-69525939D01*
X113255828Y-69525939D02*
X113184400Y-69668797D01*
X113184400Y-69668797D02*
X113112971Y-69740225D01*
X113112971Y-69740225D02*
X112970114Y-69811654D01*
X112970114Y-69811654D02*
X112827257Y-69811654D01*
X112827257Y-69811654D02*
X112684400Y-69740225D01*
X112684400Y-69740225D02*
X112612971Y-69668797D01*
X112612971Y-69668797D02*
X112541542Y-69525939D01*
X112541542Y-69525939D02*
X112470114Y-69240225D01*
X112470114Y-69240225D02*
X112398685Y-69097368D01*
X112398685Y-69097368D02*
X112327257Y-69025939D01*
X112327257Y-69025939D02*
X112184400Y-68954511D01*
X112184400Y-68954511D02*
X112041542Y-68954511D01*
X112041542Y-68954511D02*
X111898685Y-69025939D01*
X111898685Y-69025939D02*
X111827257Y-69097368D01*
X111827257Y-69097368D02*
X111755828Y-69240225D01*
X111755828Y-69240225D02*
X111755828Y-69597368D01*
X111755828Y-69597368D02*
X111827257Y-69811654D01*
X112470114Y-70454510D02*
X112470114Y-70954510D01*
X113255828Y-71168796D02*
X113255828Y-70454510D01*
X113255828Y-70454510D02*
X111755828Y-70454510D01*
X111755828Y-70454510D02*
X111755828Y-71168796D01*
X113255828Y-72668796D02*
X112541542Y-72168796D01*
X113255828Y-71811653D02*
X111755828Y-71811653D01*
X111755828Y-71811653D02*
X111755828Y-72383082D01*
X111755828Y-72383082D02*
X111827257Y-72525939D01*
X111827257Y-72525939D02*
X111898685Y-72597368D01*
X111898685Y-72597368D02*
X112041542Y-72668796D01*
X112041542Y-72668796D02*
X112255828Y-72668796D01*
X112255828Y-72668796D02*
X112398685Y-72597368D01*
X112398685Y-72597368D02*
X112470114Y-72525939D01*
X112470114Y-72525939D02*
X112541542Y-72383082D01*
X112541542Y-72383082D02*
X112541542Y-71811653D01*
X113255828Y-74454510D02*
X111755828Y-74454510D01*
X113255828Y-75168796D02*
X111755828Y-75168796D01*
X111755828Y-75168796D02*
X113255828Y-76025939D01*
X113255828Y-76025939D02*
X111755828Y-76025939D01*
X113255828Y-76740225D02*
X111755828Y-76740225D01*
X111755828Y-76740225D02*
X111755828Y-77311654D01*
X111755828Y-77311654D02*
X111827257Y-77454511D01*
X111827257Y-77454511D02*
X111898685Y-77525940D01*
X111898685Y-77525940D02*
X112041542Y-77597368D01*
X112041542Y-77597368D02*
X112255828Y-77597368D01*
X112255828Y-77597368D02*
X112398685Y-77525940D01*
X112398685Y-77525940D02*
X112470114Y-77454511D01*
X112470114Y-77454511D02*
X112541542Y-77311654D01*
X112541542Y-77311654D02*
X112541542Y-76740225D01*
X111755828Y-78240225D02*
X112970114Y-78240225D01*
X112970114Y-78240225D02*
X113112971Y-78311654D01*
X113112971Y-78311654D02*
X113184400Y-78383083D01*
X113184400Y-78383083D02*
X113255828Y-78525940D01*
X113255828Y-78525940D02*
X113255828Y-78811654D01*
X113255828Y-78811654D02*
X113184400Y-78954511D01*
X113184400Y-78954511D02*
X113112971Y-79025940D01*
X113112971Y-79025940D02*
X112970114Y-79097368D01*
X112970114Y-79097368D02*
X111755828Y-79097368D01*
X111755828Y-79597369D02*
X111755828Y-80454512D01*
X113255828Y-80025940D02*
X111755828Y-80025940D01*
D11*
X115442419Y-67403884D02*
X114442419Y-67403884D01*
X114442419Y-67403884D02*
X114442419Y-67641979D01*
X114442419Y-67641979D02*
X114490038Y-67784836D01*
X114490038Y-67784836D02*
X114585276Y-67880074D01*
X114585276Y-67880074D02*
X114680514Y-67927693D01*
X114680514Y-67927693D02*
X114870990Y-67975312D01*
X114870990Y-67975312D02*
X115013847Y-67975312D01*
X115013847Y-67975312D02*
X115204323Y-67927693D01*
X115204323Y-67927693D02*
X115299561Y-67880074D01*
X115299561Y-67880074D02*
X115394800Y-67784836D01*
X115394800Y-67784836D02*
X115442419Y-67641979D01*
X115442419Y-67641979D02*
X115442419Y-67403884D01*
X115442419Y-68403884D02*
X114442419Y-68403884D01*
X115442419Y-68880074D02*
X114442419Y-68880074D01*
X114442419Y-68880074D02*
X114442419Y-69261026D01*
X114442419Y-69261026D02*
X114490038Y-69356264D01*
X114490038Y-69356264D02*
X114537657Y-69403883D01*
X114537657Y-69403883D02*
X114632895Y-69451502D01*
X114632895Y-69451502D02*
X114775752Y-69451502D01*
X114775752Y-69451502D02*
X114870990Y-69403883D01*
X114870990Y-69403883D02*
X114918609Y-69356264D01*
X114918609Y-69356264D02*
X114966228Y-69261026D01*
X114966228Y-69261026D02*
X114966228Y-68880074D01*
X115394800Y-70594360D02*
X115442419Y-70737217D01*
X115442419Y-70737217D02*
X115442419Y-70975312D01*
X115442419Y-70975312D02*
X115394800Y-71070550D01*
X115394800Y-71070550D02*
X115347180Y-71118169D01*
X115347180Y-71118169D02*
X115251942Y-71165788D01*
X115251942Y-71165788D02*
X115156704Y-71165788D01*
X115156704Y-71165788D02*
X115061466Y-71118169D01*
X115061466Y-71118169D02*
X115013847Y-71070550D01*
X115013847Y-71070550D02*
X114966228Y-70975312D01*
X114966228Y-70975312D02*
X114918609Y-70784836D01*
X114918609Y-70784836D02*
X114870990Y-70689598D01*
X114870990Y-70689598D02*
X114823371Y-70641979D01*
X114823371Y-70641979D02*
X114728133Y-70594360D01*
X114728133Y-70594360D02*
X114632895Y-70594360D01*
X114632895Y-70594360D02*
X114537657Y-70641979D01*
X114537657Y-70641979D02*
X114490038Y-70689598D01*
X114490038Y-70689598D02*
X114442419Y-70784836D01*
X114442419Y-70784836D02*
X114442419Y-71022931D01*
X114442419Y-71022931D02*
X114490038Y-71165788D01*
X114775752Y-71499122D02*
X115442419Y-71689598D01*
X115442419Y-71689598D02*
X114966228Y-71880074D01*
X114966228Y-71880074D02*
X115442419Y-72070550D01*
X115442419Y-72070550D02*
X114775752Y-72261026D01*
X115442419Y-72641979D02*
X114775752Y-72641979D01*
X114442419Y-72641979D02*
X114490038Y-72594360D01*
X114490038Y-72594360D02*
X114537657Y-72641979D01*
X114537657Y-72641979D02*
X114490038Y-72689598D01*
X114490038Y-72689598D02*
X114442419Y-72641979D01*
X114442419Y-72641979D02*
X114537657Y-72641979D01*
X114775752Y-72975312D02*
X114775752Y-73356264D01*
X114442419Y-73118169D02*
X115299561Y-73118169D01*
X115299561Y-73118169D02*
X115394800Y-73165788D01*
X115394800Y-73165788D02*
X115442419Y-73261026D01*
X115442419Y-73261026D02*
X115442419Y-73356264D01*
X115394800Y-74118169D02*
X115442419Y-74022931D01*
X115442419Y-74022931D02*
X115442419Y-73832455D01*
X115442419Y-73832455D02*
X115394800Y-73737217D01*
X115394800Y-73737217D02*
X115347180Y-73689598D01*
X115347180Y-73689598D02*
X115251942Y-73641979D01*
X115251942Y-73641979D02*
X114966228Y-73641979D01*
X114966228Y-73641979D02*
X114870990Y-73689598D01*
X114870990Y-73689598D02*
X114823371Y-73737217D01*
X114823371Y-73737217D02*
X114775752Y-73832455D01*
X114775752Y-73832455D02*
X114775752Y-74022931D01*
X114775752Y-74022931D02*
X114823371Y-74118169D01*
X115442419Y-74546741D02*
X114442419Y-74546741D01*
X115442419Y-74975312D02*
X114918609Y-74975312D01*
X114918609Y-74975312D02*
X114823371Y-74927693D01*
X114823371Y-74927693D02*
X114775752Y-74832455D01*
X114775752Y-74832455D02*
X114775752Y-74689598D01*
X114775752Y-74689598D02*
X114823371Y-74594360D01*
X114823371Y-74594360D02*
X114870990Y-74546741D01*
X115394800Y-75832455D02*
X115442419Y-75737217D01*
X115442419Y-75737217D02*
X115442419Y-75546741D01*
X115442419Y-75546741D02*
X115394800Y-75451503D01*
X115394800Y-75451503D02*
X115299561Y-75403884D01*
X115299561Y-75403884D02*
X114918609Y-75403884D01*
X114918609Y-75403884D02*
X114823371Y-75451503D01*
X114823371Y-75451503D02*
X114775752Y-75546741D01*
X114775752Y-75546741D02*
X114775752Y-75737217D01*
X114775752Y-75737217D02*
X114823371Y-75832455D01*
X114823371Y-75832455D02*
X114918609Y-75880074D01*
X114918609Y-75880074D02*
X115013847Y-75880074D01*
X115013847Y-75880074D02*
X115109085Y-75403884D01*
X115394800Y-76261027D02*
X115442419Y-76356265D01*
X115442419Y-76356265D02*
X115442419Y-76546741D01*
X115442419Y-76546741D02*
X115394800Y-76641979D01*
X115394800Y-76641979D02*
X115299561Y-76689598D01*
X115299561Y-76689598D02*
X115251942Y-76689598D01*
X115251942Y-76689598D02*
X115156704Y-76641979D01*
X115156704Y-76641979D02*
X115109085Y-76546741D01*
X115109085Y-76546741D02*
X115109085Y-76403884D01*
X115109085Y-76403884D02*
X115061466Y-76308646D01*
X115061466Y-76308646D02*
X114966228Y-76261027D01*
X114966228Y-76261027D02*
X114918609Y-76261027D01*
X114918609Y-76261027D02*
X114823371Y-76308646D01*
X114823371Y-76308646D02*
X114775752Y-76403884D01*
X114775752Y-76403884D02*
X114775752Y-76546741D01*
X114775752Y-76546741D02*
X114823371Y-76641979D01*
X115442419Y-78308646D02*
X114918609Y-78308646D01*
X114918609Y-78308646D02*
X114823371Y-78261027D01*
X114823371Y-78261027D02*
X114775752Y-78165789D01*
X114775752Y-78165789D02*
X114775752Y-77975313D01*
X114775752Y-77975313D02*
X114823371Y-77880075D01*
X115394800Y-78308646D02*
X115442419Y-78213408D01*
X115442419Y-78213408D02*
X115442419Y-77975313D01*
X115442419Y-77975313D02*
X115394800Y-77880075D01*
X115394800Y-77880075D02*
X115299561Y-77832456D01*
X115299561Y-77832456D02*
X115204323Y-77832456D01*
X115204323Y-77832456D02*
X115109085Y-77880075D01*
X115109085Y-77880075D02*
X115061466Y-77975313D01*
X115061466Y-77975313D02*
X115061466Y-78213408D01*
X115061466Y-78213408D02*
X115013847Y-78308646D01*
X115442419Y-78784837D02*
X114775752Y-78784837D01*
X114966228Y-78784837D02*
X114870990Y-78832456D01*
X114870990Y-78832456D02*
X114823371Y-78880075D01*
X114823371Y-78880075D02*
X114775752Y-78975313D01*
X114775752Y-78975313D02*
X114775752Y-79070551D01*
X115394800Y-79784837D02*
X115442419Y-79689599D01*
X115442419Y-79689599D02*
X115442419Y-79499123D01*
X115442419Y-79499123D02*
X115394800Y-79403885D01*
X115394800Y-79403885D02*
X115299561Y-79356266D01*
X115299561Y-79356266D02*
X114918609Y-79356266D01*
X114918609Y-79356266D02*
X114823371Y-79403885D01*
X114823371Y-79403885D02*
X114775752Y-79499123D01*
X114775752Y-79499123D02*
X114775752Y-79689599D01*
X114775752Y-79689599D02*
X114823371Y-79784837D01*
X114823371Y-79784837D02*
X114918609Y-79832456D01*
X114918609Y-79832456D02*
X115013847Y-79832456D01*
X115013847Y-79832456D02*
X115109085Y-79356266D01*
X114775752Y-81451504D02*
X115442419Y-81451504D01*
X114775752Y-81022933D02*
X115299561Y-81022933D01*
X115299561Y-81022933D02*
X115394800Y-81070552D01*
X115394800Y-81070552D02*
X115442419Y-81165790D01*
X115442419Y-81165790D02*
X115442419Y-81308647D01*
X115442419Y-81308647D02*
X115394800Y-81403885D01*
X115394800Y-81403885D02*
X115347180Y-81451504D01*
X115394800Y-81880076D02*
X115442419Y-81975314D01*
X115442419Y-81975314D02*
X115442419Y-82165790D01*
X115442419Y-82165790D02*
X115394800Y-82261028D01*
X115394800Y-82261028D02*
X115299561Y-82308647D01*
X115299561Y-82308647D02*
X115251942Y-82308647D01*
X115251942Y-82308647D02*
X115156704Y-82261028D01*
X115156704Y-82261028D02*
X115109085Y-82165790D01*
X115109085Y-82165790D02*
X115109085Y-82022933D01*
X115109085Y-82022933D02*
X115061466Y-81927695D01*
X115061466Y-81927695D02*
X114966228Y-81880076D01*
X114966228Y-81880076D02*
X114918609Y-81880076D01*
X114918609Y-81880076D02*
X114823371Y-81927695D01*
X114823371Y-81927695D02*
X114775752Y-82022933D01*
X114775752Y-82022933D02*
X114775752Y-82165790D01*
X114775752Y-82165790D02*
X114823371Y-82261028D01*
X115394800Y-83118171D02*
X115442419Y-83022933D01*
X115442419Y-83022933D02*
X115442419Y-82832457D01*
X115442419Y-82832457D02*
X115394800Y-82737219D01*
X115394800Y-82737219D02*
X115299561Y-82689600D01*
X115299561Y-82689600D02*
X114918609Y-82689600D01*
X114918609Y-82689600D02*
X114823371Y-82737219D01*
X114823371Y-82737219D02*
X114775752Y-82832457D01*
X114775752Y-82832457D02*
X114775752Y-83022933D01*
X114775752Y-83022933D02*
X114823371Y-83118171D01*
X114823371Y-83118171D02*
X114918609Y-83165790D01*
X114918609Y-83165790D02*
X115013847Y-83165790D01*
X115013847Y-83165790D02*
X115109085Y-82689600D01*
X115442419Y-84022933D02*
X114442419Y-84022933D01*
X115394800Y-84022933D02*
X115442419Y-83927695D01*
X115442419Y-83927695D02*
X115442419Y-83737219D01*
X115442419Y-83737219D02*
X115394800Y-83641981D01*
X115394800Y-83641981D02*
X115347180Y-83594362D01*
X115347180Y-83594362D02*
X115251942Y-83546743D01*
X115251942Y-83546743D02*
X114966228Y-83546743D01*
X114966228Y-83546743D02*
X114870990Y-83594362D01*
X114870990Y-83594362D02*
X114823371Y-83641981D01*
X114823371Y-83641981D02*
X114775752Y-83737219D01*
X114775752Y-83737219D02*
X114775752Y-83927695D01*
X114775752Y-83927695D02*
X114823371Y-84022933D01*
X116385696Y-67261027D02*
X116385696Y-67641979D01*
X116052363Y-67403884D02*
X116909505Y-67403884D01*
X116909505Y-67403884D02*
X117004744Y-67451503D01*
X117004744Y-67451503D02*
X117052363Y-67546741D01*
X117052363Y-67546741D02*
X117052363Y-67641979D01*
X117052363Y-68118170D02*
X117004744Y-68022932D01*
X117004744Y-68022932D02*
X116957124Y-67975313D01*
X116957124Y-67975313D02*
X116861886Y-67927694D01*
X116861886Y-67927694D02*
X116576172Y-67927694D01*
X116576172Y-67927694D02*
X116480934Y-67975313D01*
X116480934Y-67975313D02*
X116433315Y-68022932D01*
X116433315Y-68022932D02*
X116385696Y-68118170D01*
X116385696Y-68118170D02*
X116385696Y-68261027D01*
X116385696Y-68261027D02*
X116433315Y-68356265D01*
X116433315Y-68356265D02*
X116480934Y-68403884D01*
X116480934Y-68403884D02*
X116576172Y-68451503D01*
X116576172Y-68451503D02*
X116861886Y-68451503D01*
X116861886Y-68451503D02*
X116957124Y-68403884D01*
X116957124Y-68403884D02*
X117004744Y-68356265D01*
X117004744Y-68356265D02*
X117052363Y-68261027D01*
X117052363Y-68261027D02*
X117052363Y-68118170D01*
X117052363Y-69641980D02*
X116385696Y-69641980D01*
X116480934Y-69641980D02*
X116433315Y-69689599D01*
X116433315Y-69689599D02*
X116385696Y-69784837D01*
X116385696Y-69784837D02*
X116385696Y-69927694D01*
X116385696Y-69927694D02*
X116433315Y-70022932D01*
X116433315Y-70022932D02*
X116528553Y-70070551D01*
X116528553Y-70070551D02*
X117052363Y-70070551D01*
X116528553Y-70070551D02*
X116433315Y-70118170D01*
X116433315Y-70118170D02*
X116385696Y-70213408D01*
X116385696Y-70213408D02*
X116385696Y-70356265D01*
X116385696Y-70356265D02*
X116433315Y-70451504D01*
X116433315Y-70451504D02*
X116528553Y-70499123D01*
X116528553Y-70499123D02*
X117052363Y-70499123D01*
X117052363Y-71403884D02*
X116528553Y-71403884D01*
X116528553Y-71403884D02*
X116433315Y-71356265D01*
X116433315Y-71356265D02*
X116385696Y-71261027D01*
X116385696Y-71261027D02*
X116385696Y-71070551D01*
X116385696Y-71070551D02*
X116433315Y-70975313D01*
X117004744Y-71403884D02*
X117052363Y-71308646D01*
X117052363Y-71308646D02*
X117052363Y-71070551D01*
X117052363Y-71070551D02*
X117004744Y-70975313D01*
X117004744Y-70975313D02*
X116909505Y-70927694D01*
X116909505Y-70927694D02*
X116814267Y-70927694D01*
X116814267Y-70927694D02*
X116719029Y-70975313D01*
X116719029Y-70975313D02*
X116671410Y-71070551D01*
X116671410Y-71070551D02*
X116671410Y-71308646D01*
X116671410Y-71308646D02*
X116623791Y-71403884D01*
X116385696Y-71880075D02*
X117052363Y-71880075D01*
X116480934Y-71880075D02*
X116433315Y-71927694D01*
X116433315Y-71927694D02*
X116385696Y-72022932D01*
X116385696Y-72022932D02*
X116385696Y-72165789D01*
X116385696Y-72165789D02*
X116433315Y-72261027D01*
X116433315Y-72261027D02*
X116528553Y-72308646D01*
X116528553Y-72308646D02*
X117052363Y-72308646D01*
X116385696Y-73213408D02*
X117052363Y-73213408D01*
X116385696Y-72784837D02*
X116909505Y-72784837D01*
X116909505Y-72784837D02*
X117004744Y-72832456D01*
X117004744Y-72832456D02*
X117052363Y-72927694D01*
X117052363Y-72927694D02*
X117052363Y-73070551D01*
X117052363Y-73070551D02*
X117004744Y-73165789D01*
X117004744Y-73165789D02*
X116957124Y-73213408D01*
X117052363Y-74118170D02*
X116528553Y-74118170D01*
X116528553Y-74118170D02*
X116433315Y-74070551D01*
X116433315Y-74070551D02*
X116385696Y-73975313D01*
X116385696Y-73975313D02*
X116385696Y-73784837D01*
X116385696Y-73784837D02*
X116433315Y-73689599D01*
X117004744Y-74118170D02*
X117052363Y-74022932D01*
X117052363Y-74022932D02*
X117052363Y-73784837D01*
X117052363Y-73784837D02*
X117004744Y-73689599D01*
X117004744Y-73689599D02*
X116909505Y-73641980D01*
X116909505Y-73641980D02*
X116814267Y-73641980D01*
X116814267Y-73641980D02*
X116719029Y-73689599D01*
X116719029Y-73689599D02*
X116671410Y-73784837D01*
X116671410Y-73784837D02*
X116671410Y-74022932D01*
X116671410Y-74022932D02*
X116623791Y-74118170D01*
X117052363Y-74737218D02*
X117004744Y-74641980D01*
X117004744Y-74641980D02*
X116909505Y-74594361D01*
X116909505Y-74594361D02*
X116052363Y-74594361D01*
X117052363Y-75261028D02*
X117004744Y-75165790D01*
X117004744Y-75165790D02*
X116909505Y-75118171D01*
X116909505Y-75118171D02*
X116052363Y-75118171D01*
X116385696Y-75546743D02*
X117052363Y-75784838D01*
X116385696Y-76022933D02*
X117052363Y-75784838D01*
X117052363Y-75784838D02*
X117290458Y-75689600D01*
X117290458Y-75689600D02*
X117338077Y-75641981D01*
X117338077Y-75641981D02*
X117385696Y-75546743D01*
X117004744Y-77546743D02*
X117052363Y-77451505D01*
X117052363Y-77451505D02*
X117052363Y-77261029D01*
X117052363Y-77261029D02*
X117004744Y-77165791D01*
X117004744Y-77165791D02*
X116909505Y-77118172D01*
X116909505Y-77118172D02*
X116528553Y-77118172D01*
X116528553Y-77118172D02*
X116433315Y-77165791D01*
X116433315Y-77165791D02*
X116385696Y-77261029D01*
X116385696Y-77261029D02*
X116385696Y-77451505D01*
X116385696Y-77451505D02*
X116433315Y-77546743D01*
X116433315Y-77546743D02*
X116528553Y-77594362D01*
X116528553Y-77594362D02*
X116623791Y-77594362D01*
X116623791Y-77594362D02*
X116719029Y-77118172D01*
X116385696Y-78022934D02*
X117052363Y-78022934D01*
X116480934Y-78022934D02*
X116433315Y-78070553D01*
X116433315Y-78070553D02*
X116385696Y-78165791D01*
X116385696Y-78165791D02*
X116385696Y-78308648D01*
X116385696Y-78308648D02*
X116433315Y-78403886D01*
X116433315Y-78403886D02*
X116528553Y-78451505D01*
X116528553Y-78451505D02*
X117052363Y-78451505D01*
X116385696Y-78784839D02*
X116385696Y-79165791D01*
X116052363Y-78927696D02*
X116909505Y-78927696D01*
X116909505Y-78927696D02*
X117004744Y-78975315D01*
X117004744Y-78975315D02*
X117052363Y-79070553D01*
X117052363Y-79070553D02*
X117052363Y-79165791D01*
X117004744Y-79880077D02*
X117052363Y-79784839D01*
X117052363Y-79784839D02*
X117052363Y-79594363D01*
X117052363Y-79594363D02*
X117004744Y-79499125D01*
X117004744Y-79499125D02*
X116909505Y-79451506D01*
X116909505Y-79451506D02*
X116528553Y-79451506D01*
X116528553Y-79451506D02*
X116433315Y-79499125D01*
X116433315Y-79499125D02*
X116385696Y-79594363D01*
X116385696Y-79594363D02*
X116385696Y-79784839D01*
X116385696Y-79784839D02*
X116433315Y-79880077D01*
X116433315Y-79880077D02*
X116528553Y-79927696D01*
X116528553Y-79927696D02*
X116623791Y-79927696D01*
X116623791Y-79927696D02*
X116719029Y-79451506D01*
X117052363Y-80356268D02*
X116385696Y-80356268D01*
X116576172Y-80356268D02*
X116480934Y-80403887D01*
X116480934Y-80403887D02*
X116433315Y-80451506D01*
X116433315Y-80451506D02*
X116385696Y-80546744D01*
X116385696Y-80546744D02*
X116385696Y-80641982D01*
X116385696Y-81641983D02*
X117052363Y-81832459D01*
X117052363Y-81832459D02*
X116576172Y-82022935D01*
X116576172Y-82022935D02*
X117052363Y-82213411D01*
X117052363Y-82213411D02*
X116385696Y-82403887D01*
X117052363Y-82927697D02*
X117004744Y-82832459D01*
X117004744Y-82832459D02*
X116957124Y-82784840D01*
X116957124Y-82784840D02*
X116861886Y-82737221D01*
X116861886Y-82737221D02*
X116576172Y-82737221D01*
X116576172Y-82737221D02*
X116480934Y-82784840D01*
X116480934Y-82784840D02*
X116433315Y-82832459D01*
X116433315Y-82832459D02*
X116385696Y-82927697D01*
X116385696Y-82927697D02*
X116385696Y-83070554D01*
X116385696Y-83070554D02*
X116433315Y-83165792D01*
X116433315Y-83165792D02*
X116480934Y-83213411D01*
X116480934Y-83213411D02*
X116576172Y-83261030D01*
X116576172Y-83261030D02*
X116861886Y-83261030D01*
X116861886Y-83261030D02*
X116957124Y-83213411D01*
X116957124Y-83213411D02*
X117004744Y-83165792D01*
X117004744Y-83165792D02*
X117052363Y-83070554D01*
X117052363Y-83070554D02*
X117052363Y-82927697D01*
X117052363Y-83689602D02*
X116385696Y-83689602D01*
X116576172Y-83689602D02*
X116480934Y-83737221D01*
X116480934Y-83737221D02*
X116433315Y-83784840D01*
X116433315Y-83784840D02*
X116385696Y-83880078D01*
X116385696Y-83880078D02*
X116385696Y-83975316D01*
X117052363Y-84737221D02*
X116052363Y-84737221D01*
X117004744Y-84737221D02*
X117052363Y-84641983D01*
X117052363Y-84641983D02*
X117052363Y-84451507D01*
X117052363Y-84451507D02*
X117004744Y-84356269D01*
X117004744Y-84356269D02*
X116957124Y-84308650D01*
X116957124Y-84308650D02*
X116861886Y-84261031D01*
X116861886Y-84261031D02*
X116576172Y-84261031D01*
X116576172Y-84261031D02*
X116480934Y-84308650D01*
X116480934Y-84308650D02*
X116433315Y-84356269D01*
X116433315Y-84356269D02*
X116385696Y-84451507D01*
X116385696Y-84451507D02*
X116385696Y-84641983D01*
X116385696Y-84641983D02*
X116433315Y-84737221D01*
X117004744Y-85165793D02*
X117052363Y-85261031D01*
X117052363Y-85261031D02*
X117052363Y-85451507D01*
X117052363Y-85451507D02*
X117004744Y-85546745D01*
X117004744Y-85546745D02*
X116909505Y-85594364D01*
X116909505Y-85594364D02*
X116861886Y-85594364D01*
X116861886Y-85594364D02*
X116766648Y-85546745D01*
X116766648Y-85546745D02*
X116719029Y-85451507D01*
X116719029Y-85451507D02*
X116719029Y-85308650D01*
X116719029Y-85308650D02*
X116671410Y-85213412D01*
X116671410Y-85213412D02*
X116576172Y-85165793D01*
X116576172Y-85165793D02*
X116528553Y-85165793D01*
X116528553Y-85165793D02*
X116433315Y-85213412D01*
X116433315Y-85213412D02*
X116385696Y-85308650D01*
X116385696Y-85308650D02*
X116385696Y-85451507D01*
X116385696Y-85451507D02*
X116433315Y-85546745D01*
X118662307Y-67403884D02*
X117995640Y-67403884D01*
X117662307Y-67403884D02*
X117709926Y-67356265D01*
X117709926Y-67356265D02*
X117757545Y-67403884D01*
X117757545Y-67403884D02*
X117709926Y-67451503D01*
X117709926Y-67451503D02*
X117662307Y-67403884D01*
X117662307Y-67403884D02*
X117757545Y-67403884D01*
X117995640Y-67880074D02*
X118662307Y-67880074D01*
X118090878Y-67880074D02*
X118043259Y-67927693D01*
X118043259Y-67927693D02*
X117995640Y-68022931D01*
X117995640Y-68022931D02*
X117995640Y-68165788D01*
X117995640Y-68165788D02*
X118043259Y-68261026D01*
X118043259Y-68261026D02*
X118138497Y-68308645D01*
X118138497Y-68308645D02*
X118662307Y-68308645D01*
X117995640Y-68641979D02*
X117995640Y-69022931D01*
X117662307Y-68784836D02*
X118519449Y-68784836D01*
X118519449Y-68784836D02*
X118614688Y-68832455D01*
X118614688Y-68832455D02*
X118662307Y-68927693D01*
X118662307Y-68927693D02*
X118662307Y-69022931D01*
X118662307Y-69499122D02*
X118614688Y-69403884D01*
X118614688Y-69403884D02*
X118567068Y-69356265D01*
X118567068Y-69356265D02*
X118471830Y-69308646D01*
X118471830Y-69308646D02*
X118186116Y-69308646D01*
X118186116Y-69308646D02*
X118090878Y-69356265D01*
X118090878Y-69356265D02*
X118043259Y-69403884D01*
X118043259Y-69403884D02*
X117995640Y-69499122D01*
X117995640Y-69499122D02*
X117995640Y-69641979D01*
X117995640Y-69641979D02*
X118043259Y-69737217D01*
X118043259Y-69737217D02*
X118090878Y-69784836D01*
X118090878Y-69784836D02*
X118186116Y-69832455D01*
X118186116Y-69832455D02*
X118471830Y-69832455D01*
X118471830Y-69832455D02*
X118567068Y-69784836D01*
X118567068Y-69784836D02*
X118614688Y-69737217D01*
X118614688Y-69737217D02*
X118662307Y-69641979D01*
X118662307Y-69641979D02*
X118662307Y-69499122D01*
X118662307Y-71022932D02*
X117662307Y-71022932D01*
X117662307Y-71022932D02*
X117662307Y-71403884D01*
X117662307Y-71403884D02*
X117709926Y-71499122D01*
X117709926Y-71499122D02*
X117757545Y-71546741D01*
X117757545Y-71546741D02*
X117852783Y-71594360D01*
X117852783Y-71594360D02*
X117995640Y-71594360D01*
X117995640Y-71594360D02*
X118090878Y-71546741D01*
X118090878Y-71546741D02*
X118138497Y-71499122D01*
X118138497Y-71499122D02*
X118186116Y-71403884D01*
X118186116Y-71403884D02*
X118186116Y-71022932D01*
X118662307Y-72594360D02*
X118186116Y-72261027D01*
X118662307Y-72022932D02*
X117662307Y-72022932D01*
X117662307Y-72022932D02*
X117662307Y-72403884D01*
X117662307Y-72403884D02*
X117709926Y-72499122D01*
X117709926Y-72499122D02*
X117757545Y-72546741D01*
X117757545Y-72546741D02*
X117852783Y-72594360D01*
X117852783Y-72594360D02*
X117995640Y-72594360D01*
X117995640Y-72594360D02*
X118090878Y-72546741D01*
X118090878Y-72546741D02*
X118138497Y-72499122D01*
X118138497Y-72499122D02*
X118186116Y-72403884D01*
X118186116Y-72403884D02*
X118186116Y-72022932D01*
X117662307Y-73213408D02*
X117662307Y-73403884D01*
X117662307Y-73403884D02*
X117709926Y-73499122D01*
X117709926Y-73499122D02*
X117805164Y-73594360D01*
X117805164Y-73594360D02*
X117995640Y-73641979D01*
X117995640Y-73641979D02*
X118328973Y-73641979D01*
X118328973Y-73641979D02*
X118519449Y-73594360D01*
X118519449Y-73594360D02*
X118614688Y-73499122D01*
X118614688Y-73499122D02*
X118662307Y-73403884D01*
X118662307Y-73403884D02*
X118662307Y-73213408D01*
X118662307Y-73213408D02*
X118614688Y-73118170D01*
X118614688Y-73118170D02*
X118519449Y-73022932D01*
X118519449Y-73022932D02*
X118328973Y-72975313D01*
X118328973Y-72975313D02*
X117995640Y-72975313D01*
X117995640Y-72975313D02*
X117805164Y-73022932D01*
X117805164Y-73022932D02*
X117709926Y-73118170D01*
X117709926Y-73118170D02*
X117662307Y-73213408D01*
X117709926Y-74594360D02*
X117662307Y-74499122D01*
X117662307Y-74499122D02*
X117662307Y-74356265D01*
X117662307Y-74356265D02*
X117709926Y-74213408D01*
X117709926Y-74213408D02*
X117805164Y-74118170D01*
X117805164Y-74118170D02*
X117900402Y-74070551D01*
X117900402Y-74070551D02*
X118090878Y-74022932D01*
X118090878Y-74022932D02*
X118233735Y-74022932D01*
X118233735Y-74022932D02*
X118424211Y-74070551D01*
X118424211Y-74070551D02*
X118519449Y-74118170D01*
X118519449Y-74118170D02*
X118614688Y-74213408D01*
X118614688Y-74213408D02*
X118662307Y-74356265D01*
X118662307Y-74356265D02*
X118662307Y-74451503D01*
X118662307Y-74451503D02*
X118614688Y-74594360D01*
X118614688Y-74594360D02*
X118567068Y-74641979D01*
X118567068Y-74641979D02*
X118233735Y-74641979D01*
X118233735Y-74641979D02*
X118233735Y-74451503D01*
X118662307Y-76641980D02*
X118662307Y-76594361D01*
X118662307Y-76594361D02*
X118614688Y-76499122D01*
X118614688Y-76499122D02*
X118471830Y-76356265D01*
X118471830Y-76356265D02*
X118186116Y-76118170D01*
X118186116Y-76118170D02*
X118043259Y-76022932D01*
X118043259Y-76022932D02*
X117900402Y-75975313D01*
X117900402Y-75975313D02*
X117805164Y-75975313D01*
X117805164Y-75975313D02*
X117709926Y-76022932D01*
X117709926Y-76022932D02*
X117662307Y-76118170D01*
X117662307Y-76118170D02*
X117662307Y-76165789D01*
X117662307Y-76165789D02*
X117709926Y-76261027D01*
X117709926Y-76261027D02*
X117805164Y-76308646D01*
X117805164Y-76308646D02*
X117852783Y-76308646D01*
X117852783Y-76308646D02*
X117948021Y-76261027D01*
X117948021Y-76261027D02*
X117995640Y-76213408D01*
X117995640Y-76213408D02*
X118186116Y-75927694D01*
X118186116Y-75927694D02*
X118233735Y-75880075D01*
X118233735Y-75880075D02*
X118328973Y-75832456D01*
X118328973Y-75832456D02*
X118471830Y-75832456D01*
X118471830Y-75832456D02*
X118567068Y-75880075D01*
X118567068Y-75880075D02*
X118614688Y-75927694D01*
X118614688Y-75927694D02*
X118662307Y-76022932D01*
X118662307Y-76022932D02*
X118662307Y-76165789D01*
X118662307Y-76165789D02*
X118614688Y-76261027D01*
X118614688Y-76261027D02*
X118567068Y-76308646D01*
X118567068Y-76308646D02*
X118376592Y-76451503D01*
X118376592Y-76451503D02*
X118233735Y-76499122D01*
X118233735Y-76499122D02*
X118138497Y-76499122D01*
X118662307Y-77832456D02*
X117662307Y-77832456D01*
X117662307Y-77832456D02*
X117662307Y-78070551D01*
X117662307Y-78070551D02*
X117709926Y-78213408D01*
X117709926Y-78213408D02*
X117805164Y-78308646D01*
X117805164Y-78308646D02*
X117900402Y-78356265D01*
X117900402Y-78356265D02*
X118090878Y-78403884D01*
X118090878Y-78403884D02*
X118233735Y-78403884D01*
X118233735Y-78403884D02*
X118424211Y-78356265D01*
X118424211Y-78356265D02*
X118519449Y-78308646D01*
X118519449Y-78308646D02*
X118614688Y-78213408D01*
X118614688Y-78213408D02*
X118662307Y-78070551D01*
X118662307Y-78070551D02*
X118662307Y-77832456D01*
X118376592Y-78784837D02*
X118376592Y-79261027D01*
X118662307Y-78689599D02*
X117662307Y-79022932D01*
X117662307Y-79022932D02*
X118662307Y-79356265D01*
X117662307Y-79546742D02*
X117662307Y-80118170D01*
X118662307Y-79832456D02*
X117662307Y-79832456D01*
X118376592Y-80403885D02*
X118376592Y-80880075D01*
X118662307Y-80308647D02*
X117662307Y-80641980D01*
X117662307Y-80641980D02*
X118662307Y-80975313D01*
X118662307Y-82070552D02*
X117662307Y-82070552D01*
X117662307Y-82070552D02*
X118376592Y-82403885D01*
X118376592Y-82403885D02*
X117662307Y-82737218D01*
X117662307Y-82737218D02*
X118662307Y-82737218D01*
X118138497Y-83213409D02*
X118138497Y-83546742D01*
X118662307Y-83689599D02*
X118662307Y-83213409D01*
X118662307Y-83213409D02*
X117662307Y-83213409D01*
X117662307Y-83213409D02*
X117662307Y-83689599D01*
X118662307Y-84118171D02*
X117662307Y-84118171D01*
X117662307Y-84118171D02*
X118376592Y-84451504D01*
X118376592Y-84451504D02*
X117662307Y-84784837D01*
X117662307Y-84784837D02*
X118662307Y-84784837D01*
X118567068Y-85261028D02*
X118614688Y-85308647D01*
X118614688Y-85308647D02*
X118662307Y-85261028D01*
X118662307Y-85261028D02*
X118614688Y-85213409D01*
X118614688Y-85213409D02*
X118567068Y-85261028D01*
X118567068Y-85261028D02*
X118662307Y-85261028D01*
X119272251Y-67261027D02*
X119272251Y-67832455D01*
X120272251Y-67546741D02*
X119272251Y-67546741D01*
X120272251Y-68165789D02*
X119272251Y-68165789D01*
X120272251Y-68594360D02*
X119748441Y-68594360D01*
X119748441Y-68594360D02*
X119653203Y-68546741D01*
X119653203Y-68546741D02*
X119605584Y-68451503D01*
X119605584Y-68451503D02*
X119605584Y-68308646D01*
X119605584Y-68308646D02*
X119653203Y-68213408D01*
X119653203Y-68213408D02*
X119700822Y-68165789D01*
X120224632Y-69451503D02*
X120272251Y-69356265D01*
X120272251Y-69356265D02*
X120272251Y-69165789D01*
X120272251Y-69165789D02*
X120224632Y-69070551D01*
X120224632Y-69070551D02*
X120129393Y-69022932D01*
X120129393Y-69022932D02*
X119748441Y-69022932D01*
X119748441Y-69022932D02*
X119653203Y-69070551D01*
X119653203Y-69070551D02*
X119605584Y-69165789D01*
X119605584Y-69165789D02*
X119605584Y-69356265D01*
X119605584Y-69356265D02*
X119653203Y-69451503D01*
X119653203Y-69451503D02*
X119748441Y-69499122D01*
X119748441Y-69499122D02*
X119843679Y-69499122D01*
X119843679Y-69499122D02*
X119938917Y-69022932D01*
X119272251Y-70594361D02*
X120272251Y-70832456D01*
X120272251Y-70832456D02*
X119557965Y-71022932D01*
X119557965Y-71022932D02*
X120272251Y-71213408D01*
X120272251Y-71213408D02*
X119272251Y-71451504D01*
X120272251Y-72403884D02*
X119796060Y-72070551D01*
X120272251Y-71832456D02*
X119272251Y-71832456D01*
X119272251Y-71832456D02*
X119272251Y-72213408D01*
X119272251Y-72213408D02*
X119319870Y-72308646D01*
X119319870Y-72308646D02*
X119367489Y-72356265D01*
X119367489Y-72356265D02*
X119462727Y-72403884D01*
X119462727Y-72403884D02*
X119605584Y-72403884D01*
X119605584Y-72403884D02*
X119700822Y-72356265D01*
X119700822Y-72356265D02*
X119748441Y-72308646D01*
X119748441Y-72308646D02*
X119796060Y-72213408D01*
X119796060Y-72213408D02*
X119796060Y-71832456D01*
X120272251Y-72832456D02*
X119272251Y-72832456D01*
X119272251Y-73165789D02*
X119272251Y-73737217D01*
X120272251Y-73451503D02*
X119272251Y-73451503D01*
X119748441Y-74070551D02*
X119748441Y-74403884D01*
X120272251Y-74546741D02*
X120272251Y-74070551D01*
X120272251Y-74070551D02*
X119272251Y-74070551D01*
X119272251Y-74070551D02*
X119272251Y-74546741D01*
X119605584Y-75737218D02*
X120605584Y-75737218D01*
X119653203Y-75737218D02*
X119605584Y-75832456D01*
X119605584Y-75832456D02*
X119605584Y-76022932D01*
X119605584Y-76022932D02*
X119653203Y-76118170D01*
X119653203Y-76118170D02*
X119700822Y-76165789D01*
X119700822Y-76165789D02*
X119796060Y-76213408D01*
X119796060Y-76213408D02*
X120081774Y-76213408D01*
X120081774Y-76213408D02*
X120177012Y-76165789D01*
X120177012Y-76165789D02*
X120224632Y-76118170D01*
X120224632Y-76118170D02*
X120272251Y-76022932D01*
X120272251Y-76022932D02*
X120272251Y-75832456D01*
X120272251Y-75832456D02*
X120224632Y-75737218D01*
X119605584Y-77070551D02*
X120272251Y-77070551D01*
X119605584Y-76641980D02*
X120129393Y-76641980D01*
X120129393Y-76641980D02*
X120224632Y-76689599D01*
X120224632Y-76689599D02*
X120272251Y-76784837D01*
X120272251Y-76784837D02*
X120272251Y-76927694D01*
X120272251Y-76927694D02*
X120224632Y-77022932D01*
X120224632Y-77022932D02*
X120177012Y-77070551D01*
X120224632Y-77499123D02*
X120272251Y-77594361D01*
X120272251Y-77594361D02*
X120272251Y-77784837D01*
X120272251Y-77784837D02*
X120224632Y-77880075D01*
X120224632Y-77880075D02*
X120129393Y-77927694D01*
X120129393Y-77927694D02*
X120081774Y-77927694D01*
X120081774Y-77927694D02*
X119986536Y-77880075D01*
X119986536Y-77880075D02*
X119938917Y-77784837D01*
X119938917Y-77784837D02*
X119938917Y-77641980D01*
X119938917Y-77641980D02*
X119891298Y-77546742D01*
X119891298Y-77546742D02*
X119796060Y-77499123D01*
X119796060Y-77499123D02*
X119748441Y-77499123D01*
X119748441Y-77499123D02*
X119653203Y-77546742D01*
X119653203Y-77546742D02*
X119605584Y-77641980D01*
X119605584Y-77641980D02*
X119605584Y-77784837D01*
X119605584Y-77784837D02*
X119653203Y-77880075D01*
X120272251Y-78356266D02*
X119272251Y-78356266D01*
X120272251Y-78784837D02*
X119748441Y-78784837D01*
X119748441Y-78784837D02*
X119653203Y-78737218D01*
X119653203Y-78737218D02*
X119605584Y-78641980D01*
X119605584Y-78641980D02*
X119605584Y-78499123D01*
X119605584Y-78499123D02*
X119653203Y-78403885D01*
X119653203Y-78403885D02*
X119700822Y-78356266D01*
X119891298Y-79261028D02*
X119891298Y-80022933D01*
X120272251Y-80499123D02*
X119272251Y-80499123D01*
X119653203Y-80499123D02*
X119605584Y-80594361D01*
X119605584Y-80594361D02*
X119605584Y-80784837D01*
X119605584Y-80784837D02*
X119653203Y-80880075D01*
X119653203Y-80880075D02*
X119700822Y-80927694D01*
X119700822Y-80927694D02*
X119796060Y-80975313D01*
X119796060Y-80975313D02*
X120081774Y-80975313D01*
X120081774Y-80975313D02*
X120177012Y-80927694D01*
X120177012Y-80927694D02*
X120224632Y-80880075D01*
X120224632Y-80880075D02*
X120272251Y-80784837D01*
X120272251Y-80784837D02*
X120272251Y-80594361D01*
X120272251Y-80594361D02*
X120224632Y-80499123D01*
X119605584Y-81832456D02*
X120272251Y-81832456D01*
X119605584Y-81403885D02*
X120129393Y-81403885D01*
X120129393Y-81403885D02*
X120224632Y-81451504D01*
X120224632Y-81451504D02*
X120272251Y-81546742D01*
X120272251Y-81546742D02*
X120272251Y-81689599D01*
X120272251Y-81689599D02*
X120224632Y-81784837D01*
X120224632Y-81784837D02*
X120177012Y-81832456D01*
X119605584Y-82165790D02*
X119605584Y-82546742D01*
X119272251Y-82308647D02*
X120129393Y-82308647D01*
X120129393Y-82308647D02*
X120224632Y-82356266D01*
X120224632Y-82356266D02*
X120272251Y-82451504D01*
X120272251Y-82451504D02*
X120272251Y-82546742D01*
X119605584Y-82737219D02*
X119605584Y-83118171D01*
X119272251Y-82880076D02*
X120129393Y-82880076D01*
X120129393Y-82880076D02*
X120224632Y-82927695D01*
X120224632Y-82927695D02*
X120272251Y-83022933D01*
X120272251Y-83022933D02*
X120272251Y-83118171D01*
X120272251Y-83594362D02*
X120224632Y-83499124D01*
X120224632Y-83499124D02*
X120177012Y-83451505D01*
X120177012Y-83451505D02*
X120081774Y-83403886D01*
X120081774Y-83403886D02*
X119796060Y-83403886D01*
X119796060Y-83403886D02*
X119700822Y-83451505D01*
X119700822Y-83451505D02*
X119653203Y-83499124D01*
X119653203Y-83499124D02*
X119605584Y-83594362D01*
X119605584Y-83594362D02*
X119605584Y-83737219D01*
X119605584Y-83737219D02*
X119653203Y-83832457D01*
X119653203Y-83832457D02*
X119700822Y-83880076D01*
X119700822Y-83880076D02*
X119796060Y-83927695D01*
X119796060Y-83927695D02*
X120081774Y-83927695D01*
X120081774Y-83927695D02*
X120177012Y-83880076D01*
X120177012Y-83880076D02*
X120224632Y-83832457D01*
X120224632Y-83832457D02*
X120272251Y-83737219D01*
X120272251Y-83737219D02*
X120272251Y-83594362D01*
X119605584Y-84356267D02*
X120272251Y-84356267D01*
X119700822Y-84356267D02*
X119653203Y-84403886D01*
X119653203Y-84403886D02*
X119605584Y-84499124D01*
X119605584Y-84499124D02*
X119605584Y-84641981D01*
X119605584Y-84641981D02*
X119653203Y-84737219D01*
X119653203Y-84737219D02*
X119748441Y-84784838D01*
X119748441Y-84784838D02*
X120272251Y-84784838D01*
X120224632Y-85213410D02*
X120272251Y-85308648D01*
X120272251Y-85308648D02*
X120272251Y-85499124D01*
X120272251Y-85499124D02*
X120224632Y-85594362D01*
X120224632Y-85594362D02*
X120129393Y-85641981D01*
X120129393Y-85641981D02*
X120081774Y-85641981D01*
X120081774Y-85641981D02*
X119986536Y-85594362D01*
X119986536Y-85594362D02*
X119938917Y-85499124D01*
X119938917Y-85499124D02*
X119938917Y-85356267D01*
X119938917Y-85356267D02*
X119891298Y-85261029D01*
X119891298Y-85261029D02*
X119796060Y-85213410D01*
X119796060Y-85213410D02*
X119748441Y-85213410D01*
X119748441Y-85213410D02*
X119653203Y-85261029D01*
X119653203Y-85261029D02*
X119605584Y-85356267D01*
X119605584Y-85356267D02*
X119605584Y-85499124D01*
X119605584Y-85499124D02*
X119653203Y-85594362D01*
X121215528Y-67261027D02*
X121215528Y-67641979D01*
X120882195Y-67403884D02*
X121739337Y-67403884D01*
X121739337Y-67403884D02*
X121834576Y-67451503D01*
X121834576Y-67451503D02*
X121882195Y-67546741D01*
X121882195Y-67546741D02*
X121882195Y-67641979D01*
X121882195Y-67975313D02*
X121215528Y-67975313D01*
X121406004Y-67975313D02*
X121310766Y-68022932D01*
X121310766Y-68022932D02*
X121263147Y-68070551D01*
X121263147Y-68070551D02*
X121215528Y-68165789D01*
X121215528Y-68165789D02*
X121215528Y-68261027D01*
X121882195Y-68594361D02*
X121215528Y-68594361D01*
X120882195Y-68594361D02*
X120929814Y-68546742D01*
X120929814Y-68546742D02*
X120977433Y-68594361D01*
X120977433Y-68594361D02*
X120929814Y-68641980D01*
X120929814Y-68641980D02*
X120882195Y-68594361D01*
X120882195Y-68594361D02*
X120977433Y-68594361D01*
X121215528Y-69499122D02*
X122025052Y-69499122D01*
X122025052Y-69499122D02*
X122120290Y-69451503D01*
X122120290Y-69451503D02*
X122167909Y-69403884D01*
X122167909Y-69403884D02*
X122215528Y-69308646D01*
X122215528Y-69308646D02*
X122215528Y-69165789D01*
X122215528Y-69165789D02*
X122167909Y-69070551D01*
X121834576Y-69499122D02*
X121882195Y-69403884D01*
X121882195Y-69403884D02*
X121882195Y-69213408D01*
X121882195Y-69213408D02*
X121834576Y-69118170D01*
X121834576Y-69118170D02*
X121786956Y-69070551D01*
X121786956Y-69070551D02*
X121691718Y-69022932D01*
X121691718Y-69022932D02*
X121406004Y-69022932D01*
X121406004Y-69022932D02*
X121310766Y-69070551D01*
X121310766Y-69070551D02*
X121263147Y-69118170D01*
X121263147Y-69118170D02*
X121215528Y-69213408D01*
X121215528Y-69213408D02*
X121215528Y-69403884D01*
X121215528Y-69403884D02*
X121263147Y-69499122D01*
X121215528Y-70403884D02*
X122025052Y-70403884D01*
X122025052Y-70403884D02*
X122120290Y-70356265D01*
X122120290Y-70356265D02*
X122167909Y-70308646D01*
X122167909Y-70308646D02*
X122215528Y-70213408D01*
X122215528Y-70213408D02*
X122215528Y-70070551D01*
X122215528Y-70070551D02*
X122167909Y-69975313D01*
X121834576Y-70403884D02*
X121882195Y-70308646D01*
X121882195Y-70308646D02*
X121882195Y-70118170D01*
X121882195Y-70118170D02*
X121834576Y-70022932D01*
X121834576Y-70022932D02*
X121786956Y-69975313D01*
X121786956Y-69975313D02*
X121691718Y-69927694D01*
X121691718Y-69927694D02*
X121406004Y-69927694D01*
X121406004Y-69927694D02*
X121310766Y-69975313D01*
X121310766Y-69975313D02*
X121263147Y-70022932D01*
X121263147Y-70022932D02*
X121215528Y-70118170D01*
X121215528Y-70118170D02*
X121215528Y-70308646D01*
X121215528Y-70308646D02*
X121263147Y-70403884D01*
X121834576Y-71261027D02*
X121882195Y-71165789D01*
X121882195Y-71165789D02*
X121882195Y-70975313D01*
X121882195Y-70975313D02*
X121834576Y-70880075D01*
X121834576Y-70880075D02*
X121739337Y-70832456D01*
X121739337Y-70832456D02*
X121358385Y-70832456D01*
X121358385Y-70832456D02*
X121263147Y-70880075D01*
X121263147Y-70880075D02*
X121215528Y-70975313D01*
X121215528Y-70975313D02*
X121215528Y-71165789D01*
X121215528Y-71165789D02*
X121263147Y-71261027D01*
X121263147Y-71261027D02*
X121358385Y-71308646D01*
X121358385Y-71308646D02*
X121453623Y-71308646D01*
X121453623Y-71308646D02*
X121548861Y-70832456D01*
X121882195Y-71737218D02*
X121215528Y-71737218D01*
X121406004Y-71737218D02*
X121310766Y-71784837D01*
X121310766Y-71784837D02*
X121263147Y-71832456D01*
X121263147Y-71832456D02*
X121215528Y-71927694D01*
X121215528Y-71927694D02*
X121215528Y-72022932D01*
X121834576Y-73499123D02*
X121882195Y-73403885D01*
X121882195Y-73403885D02*
X121882195Y-73213409D01*
X121882195Y-73213409D02*
X121834576Y-73118171D01*
X121834576Y-73118171D02*
X121739337Y-73070552D01*
X121739337Y-73070552D02*
X121358385Y-73070552D01*
X121358385Y-73070552D02*
X121263147Y-73118171D01*
X121263147Y-73118171D02*
X121215528Y-73213409D01*
X121215528Y-73213409D02*
X121215528Y-73403885D01*
X121215528Y-73403885D02*
X121263147Y-73499123D01*
X121263147Y-73499123D02*
X121358385Y-73546742D01*
X121358385Y-73546742D02*
X121453623Y-73546742D01*
X121453623Y-73546742D02*
X121548861Y-73070552D01*
X121882195Y-74403885D02*
X121358385Y-74403885D01*
X121358385Y-74403885D02*
X121263147Y-74356266D01*
X121263147Y-74356266D02*
X121215528Y-74261028D01*
X121215528Y-74261028D02*
X121215528Y-74070552D01*
X121215528Y-74070552D02*
X121263147Y-73975314D01*
X121834576Y-74403885D02*
X121882195Y-74308647D01*
X121882195Y-74308647D02*
X121882195Y-74070552D01*
X121882195Y-74070552D02*
X121834576Y-73975314D01*
X121834576Y-73975314D02*
X121739337Y-73927695D01*
X121739337Y-73927695D02*
X121644099Y-73927695D01*
X121644099Y-73927695D02*
X121548861Y-73975314D01*
X121548861Y-73975314D02*
X121501242Y-74070552D01*
X121501242Y-74070552D02*
X121501242Y-74308647D01*
X121501242Y-74308647D02*
X121453623Y-74403885D01*
X121834576Y-75308647D02*
X121882195Y-75213409D01*
X121882195Y-75213409D02*
X121882195Y-75022933D01*
X121882195Y-75022933D02*
X121834576Y-74927695D01*
X121834576Y-74927695D02*
X121786956Y-74880076D01*
X121786956Y-74880076D02*
X121691718Y-74832457D01*
X121691718Y-74832457D02*
X121406004Y-74832457D01*
X121406004Y-74832457D02*
X121310766Y-74880076D01*
X121310766Y-74880076D02*
X121263147Y-74927695D01*
X121263147Y-74927695D02*
X121215528Y-75022933D01*
X121215528Y-75022933D02*
X121215528Y-75213409D01*
X121215528Y-75213409D02*
X121263147Y-75308647D01*
X121882195Y-75737219D02*
X120882195Y-75737219D01*
X121882195Y-76165790D02*
X121358385Y-76165790D01*
X121358385Y-76165790D02*
X121263147Y-76118171D01*
X121263147Y-76118171D02*
X121215528Y-76022933D01*
X121215528Y-76022933D02*
X121215528Y-75880076D01*
X121215528Y-75880076D02*
X121263147Y-75784838D01*
X121263147Y-75784838D02*
X121310766Y-75737219D01*
X121834576Y-77784838D02*
X121882195Y-77689600D01*
X121882195Y-77689600D02*
X121882195Y-77499124D01*
X121882195Y-77499124D02*
X121834576Y-77403886D01*
X121834576Y-77403886D02*
X121739337Y-77356267D01*
X121739337Y-77356267D02*
X121358385Y-77356267D01*
X121358385Y-77356267D02*
X121263147Y-77403886D01*
X121263147Y-77403886D02*
X121215528Y-77499124D01*
X121215528Y-77499124D02*
X121215528Y-77689600D01*
X121215528Y-77689600D02*
X121263147Y-77784838D01*
X121263147Y-77784838D02*
X121358385Y-77832457D01*
X121358385Y-77832457D02*
X121453623Y-77832457D01*
X121453623Y-77832457D02*
X121548861Y-77356267D01*
X121215528Y-78165791D02*
X121882195Y-78403886D01*
X121882195Y-78403886D02*
X121215528Y-78641981D01*
X121834576Y-79403886D02*
X121882195Y-79308648D01*
X121882195Y-79308648D02*
X121882195Y-79118172D01*
X121882195Y-79118172D02*
X121834576Y-79022934D01*
X121834576Y-79022934D02*
X121739337Y-78975315D01*
X121739337Y-78975315D02*
X121358385Y-78975315D01*
X121358385Y-78975315D02*
X121263147Y-79022934D01*
X121263147Y-79022934D02*
X121215528Y-79118172D01*
X121215528Y-79118172D02*
X121215528Y-79308648D01*
X121215528Y-79308648D02*
X121263147Y-79403886D01*
X121263147Y-79403886D02*
X121358385Y-79451505D01*
X121358385Y-79451505D02*
X121453623Y-79451505D01*
X121453623Y-79451505D02*
X121548861Y-78975315D01*
X121215528Y-79880077D02*
X121882195Y-79880077D01*
X121310766Y-79880077D02*
X121263147Y-79927696D01*
X121263147Y-79927696D02*
X121215528Y-80022934D01*
X121215528Y-80022934D02*
X121215528Y-80165791D01*
X121215528Y-80165791D02*
X121263147Y-80261029D01*
X121263147Y-80261029D02*
X121358385Y-80308648D01*
X121358385Y-80308648D02*
X121882195Y-80308648D01*
X121215528Y-80641982D02*
X121215528Y-81022934D01*
X120882195Y-80784839D02*
X121739337Y-80784839D01*
X121739337Y-80784839D02*
X121834576Y-80832458D01*
X121834576Y-80832458D02*
X121882195Y-80927696D01*
X121882195Y-80927696D02*
X121882195Y-81022934D01*
X121786956Y-81356268D02*
X121834576Y-81403887D01*
X121834576Y-81403887D02*
X121882195Y-81356268D01*
X121882195Y-81356268D02*
X121834576Y-81308649D01*
X121834576Y-81308649D02*
X121786956Y-81356268D01*
X121786956Y-81356268D02*
X121882195Y-81356268D01*
X122492139Y-67261027D02*
X122492139Y-67832455D01*
X123492139Y-67546741D02*
X122492139Y-67546741D01*
X123492139Y-68165789D02*
X122492139Y-68165789D01*
X123492139Y-68594360D02*
X122968329Y-68594360D01*
X122968329Y-68594360D02*
X122873091Y-68546741D01*
X122873091Y-68546741D02*
X122825472Y-68451503D01*
X122825472Y-68451503D02*
X122825472Y-68308646D01*
X122825472Y-68308646D02*
X122873091Y-68213408D01*
X122873091Y-68213408D02*
X122920710Y-68165789D01*
X123444520Y-69451503D02*
X123492139Y-69356265D01*
X123492139Y-69356265D02*
X123492139Y-69165789D01*
X123492139Y-69165789D02*
X123444520Y-69070551D01*
X123444520Y-69070551D02*
X123349281Y-69022932D01*
X123349281Y-69022932D02*
X122968329Y-69022932D01*
X122968329Y-69022932D02*
X122873091Y-69070551D01*
X122873091Y-69070551D02*
X122825472Y-69165789D01*
X122825472Y-69165789D02*
X122825472Y-69356265D01*
X122825472Y-69356265D02*
X122873091Y-69451503D01*
X122873091Y-69451503D02*
X122968329Y-69499122D01*
X122968329Y-69499122D02*
X123063567Y-69499122D01*
X123063567Y-69499122D02*
X123158805Y-69022932D01*
X122968329Y-70689599D02*
X122968329Y-71022932D01*
X123492139Y-71165789D02*
X123492139Y-70689599D01*
X123492139Y-70689599D02*
X122492139Y-70689599D01*
X122492139Y-70689599D02*
X122492139Y-71165789D01*
X123492139Y-71594361D02*
X122492139Y-71594361D01*
X122492139Y-71594361D02*
X123492139Y-72165789D01*
X123492139Y-72165789D02*
X122492139Y-72165789D01*
X122492139Y-73308647D02*
X123492139Y-73546742D01*
X123492139Y-73546742D02*
X122777853Y-73737218D01*
X122777853Y-73737218D02*
X123492139Y-73927694D01*
X123492139Y-73927694D02*
X122492139Y-74165790D01*
X123492139Y-75118170D02*
X123015948Y-74784837D01*
X123492139Y-74546742D02*
X122492139Y-74546742D01*
X122492139Y-74546742D02*
X122492139Y-74927694D01*
X122492139Y-74927694D02*
X122539758Y-75022932D01*
X122539758Y-75022932D02*
X122587377Y-75070551D01*
X122587377Y-75070551D02*
X122682615Y-75118170D01*
X122682615Y-75118170D02*
X122825472Y-75118170D01*
X122825472Y-75118170D02*
X122920710Y-75070551D01*
X122920710Y-75070551D02*
X122968329Y-75022932D01*
X122968329Y-75022932D02*
X123015948Y-74927694D01*
X123015948Y-74927694D02*
X123015948Y-74546742D01*
X123492139Y-75546742D02*
X122492139Y-75546742D01*
X122492139Y-75880075D02*
X122492139Y-76451503D01*
X123492139Y-76165789D02*
X122492139Y-76165789D01*
X122968329Y-76784837D02*
X122968329Y-77118170D01*
X123492139Y-77261027D02*
X123492139Y-76784837D01*
X123492139Y-76784837D02*
X122492139Y-76784837D01*
X122492139Y-76784837D02*
X122492139Y-77261027D01*
X123444520Y-78403885D02*
X123492139Y-78499123D01*
X123492139Y-78499123D02*
X123492139Y-78689599D01*
X123492139Y-78689599D02*
X123444520Y-78784837D01*
X123444520Y-78784837D02*
X123349281Y-78832456D01*
X123349281Y-78832456D02*
X123301662Y-78832456D01*
X123301662Y-78832456D02*
X123206424Y-78784837D01*
X123206424Y-78784837D02*
X123158805Y-78689599D01*
X123158805Y-78689599D02*
X123158805Y-78546742D01*
X123158805Y-78546742D02*
X123111186Y-78451504D01*
X123111186Y-78451504D02*
X123015948Y-78403885D01*
X123015948Y-78403885D02*
X122968329Y-78403885D01*
X122968329Y-78403885D02*
X122873091Y-78451504D01*
X122873091Y-78451504D02*
X122825472Y-78546742D01*
X122825472Y-78546742D02*
X122825472Y-78689599D01*
X122825472Y-78689599D02*
X122873091Y-78784837D01*
X122825472Y-79165790D02*
X123492139Y-79356266D01*
X123492139Y-79356266D02*
X123015948Y-79546742D01*
X123015948Y-79546742D02*
X123492139Y-79737218D01*
X123492139Y-79737218D02*
X122825472Y-79927694D01*
X123492139Y-80308647D02*
X122825472Y-80308647D01*
X122492139Y-80308647D02*
X122539758Y-80261028D01*
X122539758Y-80261028D02*
X122587377Y-80308647D01*
X122587377Y-80308647D02*
X122539758Y-80356266D01*
X122539758Y-80356266D02*
X122492139Y-80308647D01*
X122492139Y-80308647D02*
X122587377Y-80308647D01*
X122825472Y-80641980D02*
X122825472Y-81022932D01*
X122492139Y-80784837D02*
X123349281Y-80784837D01*
X123349281Y-80784837D02*
X123444520Y-80832456D01*
X123444520Y-80832456D02*
X123492139Y-80927694D01*
X123492139Y-80927694D02*
X123492139Y-81022932D01*
X123444520Y-81784837D02*
X123492139Y-81689599D01*
X123492139Y-81689599D02*
X123492139Y-81499123D01*
X123492139Y-81499123D02*
X123444520Y-81403885D01*
X123444520Y-81403885D02*
X123396900Y-81356266D01*
X123396900Y-81356266D02*
X123301662Y-81308647D01*
X123301662Y-81308647D02*
X123015948Y-81308647D01*
X123015948Y-81308647D02*
X122920710Y-81356266D01*
X122920710Y-81356266D02*
X122873091Y-81403885D01*
X122873091Y-81403885D02*
X122825472Y-81499123D01*
X122825472Y-81499123D02*
X122825472Y-81689599D01*
X122825472Y-81689599D02*
X122873091Y-81784837D01*
X123492139Y-82213409D02*
X122492139Y-82213409D01*
X123492139Y-82641980D02*
X122968329Y-82641980D01*
X122968329Y-82641980D02*
X122873091Y-82594361D01*
X122873091Y-82594361D02*
X122825472Y-82499123D01*
X122825472Y-82499123D02*
X122825472Y-82356266D01*
X122825472Y-82356266D02*
X122873091Y-82261028D01*
X122873091Y-82261028D02*
X122920710Y-82213409D01*
X125054464Y-67784836D02*
X125102083Y-67689598D01*
X125102083Y-67689598D02*
X125102083Y-67499122D01*
X125102083Y-67499122D02*
X125054464Y-67403884D01*
X125054464Y-67403884D02*
X124959225Y-67356265D01*
X124959225Y-67356265D02*
X124578273Y-67356265D01*
X124578273Y-67356265D02*
X124483035Y-67403884D01*
X124483035Y-67403884D02*
X124435416Y-67499122D01*
X124435416Y-67499122D02*
X124435416Y-67689598D01*
X124435416Y-67689598D02*
X124483035Y-67784836D01*
X124483035Y-67784836D02*
X124578273Y-67832455D01*
X124578273Y-67832455D02*
X124673511Y-67832455D01*
X124673511Y-67832455D02*
X124768749Y-67356265D01*
X124435416Y-68261027D02*
X125102083Y-68261027D01*
X124530654Y-68261027D02*
X124483035Y-68308646D01*
X124483035Y-68308646D02*
X124435416Y-68403884D01*
X124435416Y-68403884D02*
X124435416Y-68546741D01*
X124435416Y-68546741D02*
X124483035Y-68641979D01*
X124483035Y-68641979D02*
X124578273Y-68689598D01*
X124578273Y-68689598D02*
X125102083Y-68689598D01*
X125102083Y-69594360D02*
X124578273Y-69594360D01*
X124578273Y-69594360D02*
X124483035Y-69546741D01*
X124483035Y-69546741D02*
X124435416Y-69451503D01*
X124435416Y-69451503D02*
X124435416Y-69261027D01*
X124435416Y-69261027D02*
X124483035Y-69165789D01*
X125054464Y-69594360D02*
X125102083Y-69499122D01*
X125102083Y-69499122D02*
X125102083Y-69261027D01*
X125102083Y-69261027D02*
X125054464Y-69165789D01*
X125054464Y-69165789D02*
X124959225Y-69118170D01*
X124959225Y-69118170D02*
X124863987Y-69118170D01*
X124863987Y-69118170D02*
X124768749Y-69165789D01*
X124768749Y-69165789D02*
X124721130Y-69261027D01*
X124721130Y-69261027D02*
X124721130Y-69499122D01*
X124721130Y-69499122D02*
X124673511Y-69594360D01*
X125102083Y-70070551D02*
X124102083Y-70070551D01*
X124483035Y-70070551D02*
X124435416Y-70165789D01*
X124435416Y-70165789D02*
X124435416Y-70356265D01*
X124435416Y-70356265D02*
X124483035Y-70451503D01*
X124483035Y-70451503D02*
X124530654Y-70499122D01*
X124530654Y-70499122D02*
X124625892Y-70546741D01*
X124625892Y-70546741D02*
X124911606Y-70546741D01*
X124911606Y-70546741D02*
X125006844Y-70499122D01*
X125006844Y-70499122D02*
X125054464Y-70451503D01*
X125054464Y-70451503D02*
X125102083Y-70356265D01*
X125102083Y-70356265D02*
X125102083Y-70165789D01*
X125102083Y-70165789D02*
X125054464Y-70070551D01*
X125102083Y-71118170D02*
X125054464Y-71022932D01*
X125054464Y-71022932D02*
X124959225Y-70975313D01*
X124959225Y-70975313D02*
X124102083Y-70975313D01*
X125054464Y-71880075D02*
X125102083Y-71784837D01*
X125102083Y-71784837D02*
X125102083Y-71594361D01*
X125102083Y-71594361D02*
X125054464Y-71499123D01*
X125054464Y-71499123D02*
X124959225Y-71451504D01*
X124959225Y-71451504D02*
X124578273Y-71451504D01*
X124578273Y-71451504D02*
X124483035Y-71499123D01*
X124483035Y-71499123D02*
X124435416Y-71594361D01*
X124435416Y-71594361D02*
X124435416Y-71784837D01*
X124435416Y-71784837D02*
X124483035Y-71880075D01*
X124483035Y-71880075D02*
X124578273Y-71927694D01*
X124578273Y-71927694D02*
X124673511Y-71927694D01*
X124673511Y-71927694D02*
X124768749Y-71451504D01*
X125054464Y-72308647D02*
X125102083Y-72403885D01*
X125102083Y-72403885D02*
X125102083Y-72594361D01*
X125102083Y-72594361D02*
X125054464Y-72689599D01*
X125054464Y-72689599D02*
X124959225Y-72737218D01*
X124959225Y-72737218D02*
X124911606Y-72737218D01*
X124911606Y-72737218D02*
X124816368Y-72689599D01*
X124816368Y-72689599D02*
X124768749Y-72594361D01*
X124768749Y-72594361D02*
X124768749Y-72451504D01*
X124768749Y-72451504D02*
X124721130Y-72356266D01*
X124721130Y-72356266D02*
X124625892Y-72308647D01*
X124625892Y-72308647D02*
X124578273Y-72308647D01*
X124578273Y-72308647D02*
X124483035Y-72356266D01*
X124483035Y-72356266D02*
X124435416Y-72451504D01*
X124435416Y-72451504D02*
X124435416Y-72594361D01*
X124435416Y-72594361D02*
X124483035Y-72689599D01*
X124435416Y-73927695D02*
X125435416Y-73927695D01*
X124483035Y-73927695D02*
X124435416Y-74022933D01*
X124435416Y-74022933D02*
X124435416Y-74213409D01*
X124435416Y-74213409D02*
X124483035Y-74308647D01*
X124483035Y-74308647D02*
X124530654Y-74356266D01*
X124530654Y-74356266D02*
X124625892Y-74403885D01*
X124625892Y-74403885D02*
X124911606Y-74403885D01*
X124911606Y-74403885D02*
X125006844Y-74356266D01*
X125006844Y-74356266D02*
X125054464Y-74308647D01*
X125054464Y-74308647D02*
X125102083Y-74213409D01*
X125102083Y-74213409D02*
X125102083Y-74022933D01*
X125102083Y-74022933D02*
X125054464Y-73927695D01*
X125102083Y-74832457D02*
X124435416Y-74832457D01*
X124625892Y-74832457D02*
X124530654Y-74880076D01*
X124530654Y-74880076D02*
X124483035Y-74927695D01*
X124483035Y-74927695D02*
X124435416Y-75022933D01*
X124435416Y-75022933D02*
X124435416Y-75118171D01*
X125102083Y-75594362D02*
X125054464Y-75499124D01*
X125054464Y-75499124D02*
X125006844Y-75451505D01*
X125006844Y-75451505D02*
X124911606Y-75403886D01*
X124911606Y-75403886D02*
X124625892Y-75403886D01*
X124625892Y-75403886D02*
X124530654Y-75451505D01*
X124530654Y-75451505D02*
X124483035Y-75499124D01*
X124483035Y-75499124D02*
X124435416Y-75594362D01*
X124435416Y-75594362D02*
X124435416Y-75737219D01*
X124435416Y-75737219D02*
X124483035Y-75832457D01*
X124483035Y-75832457D02*
X124530654Y-75880076D01*
X124530654Y-75880076D02*
X124625892Y-75927695D01*
X124625892Y-75927695D02*
X124911606Y-75927695D01*
X124911606Y-75927695D02*
X125006844Y-75880076D01*
X125006844Y-75880076D02*
X125054464Y-75832457D01*
X125054464Y-75832457D02*
X125102083Y-75737219D01*
X125102083Y-75737219D02*
X125102083Y-75594362D01*
X124435416Y-76784838D02*
X125244940Y-76784838D01*
X125244940Y-76784838D02*
X125340178Y-76737219D01*
X125340178Y-76737219D02*
X125387797Y-76689600D01*
X125387797Y-76689600D02*
X125435416Y-76594362D01*
X125435416Y-76594362D02*
X125435416Y-76451505D01*
X125435416Y-76451505D02*
X125387797Y-76356267D01*
X125054464Y-76784838D02*
X125102083Y-76689600D01*
X125102083Y-76689600D02*
X125102083Y-76499124D01*
X125102083Y-76499124D02*
X125054464Y-76403886D01*
X125054464Y-76403886D02*
X125006844Y-76356267D01*
X125006844Y-76356267D02*
X124911606Y-76308648D01*
X124911606Y-76308648D02*
X124625892Y-76308648D01*
X124625892Y-76308648D02*
X124530654Y-76356267D01*
X124530654Y-76356267D02*
X124483035Y-76403886D01*
X124483035Y-76403886D02*
X124435416Y-76499124D01*
X124435416Y-76499124D02*
X124435416Y-76689600D01*
X124435416Y-76689600D02*
X124483035Y-76784838D01*
X125102083Y-77261029D02*
X124435416Y-77261029D01*
X124625892Y-77261029D02*
X124530654Y-77308648D01*
X124530654Y-77308648D02*
X124483035Y-77356267D01*
X124483035Y-77356267D02*
X124435416Y-77451505D01*
X124435416Y-77451505D02*
X124435416Y-77546743D01*
X125102083Y-78308648D02*
X124578273Y-78308648D01*
X124578273Y-78308648D02*
X124483035Y-78261029D01*
X124483035Y-78261029D02*
X124435416Y-78165791D01*
X124435416Y-78165791D02*
X124435416Y-77975315D01*
X124435416Y-77975315D02*
X124483035Y-77880077D01*
X125054464Y-78308648D02*
X125102083Y-78213410D01*
X125102083Y-78213410D02*
X125102083Y-77975315D01*
X125102083Y-77975315D02*
X125054464Y-77880077D01*
X125054464Y-77880077D02*
X124959225Y-77832458D01*
X124959225Y-77832458D02*
X124863987Y-77832458D01*
X124863987Y-77832458D02*
X124768749Y-77880077D01*
X124768749Y-77880077D02*
X124721130Y-77975315D01*
X124721130Y-77975315D02*
X124721130Y-78213410D01*
X124721130Y-78213410D02*
X124673511Y-78308648D01*
X125102083Y-78784839D02*
X124435416Y-78784839D01*
X124530654Y-78784839D02*
X124483035Y-78832458D01*
X124483035Y-78832458D02*
X124435416Y-78927696D01*
X124435416Y-78927696D02*
X124435416Y-79070553D01*
X124435416Y-79070553D02*
X124483035Y-79165791D01*
X124483035Y-79165791D02*
X124578273Y-79213410D01*
X124578273Y-79213410D02*
X125102083Y-79213410D01*
X124578273Y-79213410D02*
X124483035Y-79261029D01*
X124483035Y-79261029D02*
X124435416Y-79356267D01*
X124435416Y-79356267D02*
X124435416Y-79499124D01*
X124435416Y-79499124D02*
X124483035Y-79594363D01*
X124483035Y-79594363D02*
X124578273Y-79641982D01*
X124578273Y-79641982D02*
X125102083Y-79641982D01*
X125102083Y-80118172D02*
X124435416Y-80118172D01*
X124530654Y-80118172D02*
X124483035Y-80165791D01*
X124483035Y-80165791D02*
X124435416Y-80261029D01*
X124435416Y-80261029D02*
X124435416Y-80403886D01*
X124435416Y-80403886D02*
X124483035Y-80499124D01*
X124483035Y-80499124D02*
X124578273Y-80546743D01*
X124578273Y-80546743D02*
X125102083Y-80546743D01*
X124578273Y-80546743D02*
X124483035Y-80594362D01*
X124483035Y-80594362D02*
X124435416Y-80689600D01*
X124435416Y-80689600D02*
X124435416Y-80832457D01*
X124435416Y-80832457D02*
X124483035Y-80927696D01*
X124483035Y-80927696D02*
X124578273Y-80975315D01*
X124578273Y-80975315D02*
X125102083Y-80975315D01*
X125102083Y-81451505D02*
X124435416Y-81451505D01*
X124102083Y-81451505D02*
X124149702Y-81403886D01*
X124149702Y-81403886D02*
X124197321Y-81451505D01*
X124197321Y-81451505D02*
X124149702Y-81499124D01*
X124149702Y-81499124D02*
X124102083Y-81451505D01*
X124102083Y-81451505D02*
X124197321Y-81451505D01*
X124435416Y-81927695D02*
X125102083Y-81927695D01*
X124530654Y-81927695D02*
X124483035Y-81975314D01*
X124483035Y-81975314D02*
X124435416Y-82070552D01*
X124435416Y-82070552D02*
X124435416Y-82213409D01*
X124435416Y-82213409D02*
X124483035Y-82308647D01*
X124483035Y-82308647D02*
X124578273Y-82356266D01*
X124578273Y-82356266D02*
X125102083Y-82356266D01*
X124435416Y-83261028D02*
X125244940Y-83261028D01*
X125244940Y-83261028D02*
X125340178Y-83213409D01*
X125340178Y-83213409D02*
X125387797Y-83165790D01*
X125387797Y-83165790D02*
X125435416Y-83070552D01*
X125435416Y-83070552D02*
X125435416Y-82927695D01*
X125435416Y-82927695D02*
X125387797Y-82832457D01*
X125054464Y-83261028D02*
X125102083Y-83165790D01*
X125102083Y-83165790D02*
X125102083Y-82975314D01*
X125102083Y-82975314D02*
X125054464Y-82880076D01*
X125054464Y-82880076D02*
X125006844Y-82832457D01*
X125006844Y-82832457D02*
X124911606Y-82784838D01*
X124911606Y-82784838D02*
X124625892Y-82784838D01*
X124625892Y-82784838D02*
X124530654Y-82832457D01*
X124530654Y-82832457D02*
X124483035Y-82880076D01*
X124483035Y-82880076D02*
X124435416Y-82975314D01*
X124435416Y-82975314D02*
X124435416Y-83165790D01*
X124435416Y-83165790D02*
X124483035Y-83261028D01*
X126712027Y-67403884D02*
X126045360Y-67403884D01*
X126140598Y-67403884D02*
X126092979Y-67451503D01*
X126092979Y-67451503D02*
X126045360Y-67546741D01*
X126045360Y-67546741D02*
X126045360Y-67689598D01*
X126045360Y-67689598D02*
X126092979Y-67784836D01*
X126092979Y-67784836D02*
X126188217Y-67832455D01*
X126188217Y-67832455D02*
X126712027Y-67832455D01*
X126188217Y-67832455D02*
X126092979Y-67880074D01*
X126092979Y-67880074D02*
X126045360Y-67975312D01*
X126045360Y-67975312D02*
X126045360Y-68118169D01*
X126045360Y-68118169D02*
X126092979Y-68213408D01*
X126092979Y-68213408D02*
X126188217Y-68261027D01*
X126188217Y-68261027D02*
X126712027Y-68261027D01*
X126712027Y-68880074D02*
X126664408Y-68784836D01*
X126664408Y-68784836D02*
X126616788Y-68737217D01*
X126616788Y-68737217D02*
X126521550Y-68689598D01*
X126521550Y-68689598D02*
X126235836Y-68689598D01*
X126235836Y-68689598D02*
X126140598Y-68737217D01*
X126140598Y-68737217D02*
X126092979Y-68784836D01*
X126092979Y-68784836D02*
X126045360Y-68880074D01*
X126045360Y-68880074D02*
X126045360Y-69022931D01*
X126045360Y-69022931D02*
X126092979Y-69118169D01*
X126092979Y-69118169D02*
X126140598Y-69165788D01*
X126140598Y-69165788D02*
X126235836Y-69213407D01*
X126235836Y-69213407D02*
X126521550Y-69213407D01*
X126521550Y-69213407D02*
X126616788Y-69165788D01*
X126616788Y-69165788D02*
X126664408Y-69118169D01*
X126664408Y-69118169D02*
X126712027Y-69022931D01*
X126712027Y-69022931D02*
X126712027Y-68880074D01*
X126712027Y-70070550D02*
X125712027Y-70070550D01*
X126664408Y-70070550D02*
X126712027Y-69975312D01*
X126712027Y-69975312D02*
X126712027Y-69784836D01*
X126712027Y-69784836D02*
X126664408Y-69689598D01*
X126664408Y-69689598D02*
X126616788Y-69641979D01*
X126616788Y-69641979D02*
X126521550Y-69594360D01*
X126521550Y-69594360D02*
X126235836Y-69594360D01*
X126235836Y-69594360D02*
X126140598Y-69641979D01*
X126140598Y-69641979D02*
X126092979Y-69689598D01*
X126092979Y-69689598D02*
X126045360Y-69784836D01*
X126045360Y-69784836D02*
X126045360Y-69975312D01*
X126045360Y-69975312D02*
X126092979Y-70070550D01*
X126664408Y-70927693D02*
X126712027Y-70832455D01*
X126712027Y-70832455D02*
X126712027Y-70641979D01*
X126712027Y-70641979D02*
X126664408Y-70546741D01*
X126664408Y-70546741D02*
X126569169Y-70499122D01*
X126569169Y-70499122D02*
X126188217Y-70499122D01*
X126188217Y-70499122D02*
X126092979Y-70546741D01*
X126092979Y-70546741D02*
X126045360Y-70641979D01*
X126045360Y-70641979D02*
X126045360Y-70832455D01*
X126045360Y-70832455D02*
X126092979Y-70927693D01*
X126092979Y-70927693D02*
X126188217Y-70975312D01*
X126188217Y-70975312D02*
X126283455Y-70975312D01*
X126283455Y-70975312D02*
X126378693Y-70499122D01*
X126616788Y-71403884D02*
X126664408Y-71451503D01*
X126664408Y-71451503D02*
X126712027Y-71403884D01*
X126712027Y-71403884D02*
X126664408Y-71356265D01*
X126664408Y-71356265D02*
X126616788Y-71403884D01*
X126616788Y-71403884D02*
X126712027Y-71403884D01*
M02*
