%TF.GenerationSoftware,KiCad,Pcbnew,8.0.4*%
%TF.CreationDate,2024-11-02T20:35:01-04:00*%
%TF.ProjectId,Programming Board,50726f67-7261-46d6-9d69-6e6720426f61,rev?*%
%TF.SameCoordinates,Original*%
%TF.FileFunction,Copper,L1,Top*%
%TF.FilePolarity,Positive*%
%FSLAX46Y46*%
G04 Gerber Fmt 4.6, Leading zero omitted, Abs format (unit mm)*
G04 Created by KiCad (PCBNEW 8.0.4) date 2024-11-02 20:35:01*
%MOMM*%
%LPD*%
G01*
G04 APERTURE LIST*
G04 Aperture macros list*
%AMRoundRect*
0 Rectangle with rounded corners*
0 $1 Rounding radius*
0 $2 $3 $4 $5 $6 $7 $8 $9 X,Y pos of 4 corners*
0 Add a 4 corners polygon primitive as box body*
4,1,4,$2,$3,$4,$5,$6,$7,$8,$9,$2,$3,0*
0 Add four circle primitives for the rounded corners*
1,1,$1+$1,$2,$3*
1,1,$1+$1,$4,$5*
1,1,$1+$1,$6,$7*
1,1,$1+$1,$8,$9*
0 Add four rect primitives between the rounded corners*
20,1,$1+$1,$2,$3,$4,$5,0*
20,1,$1+$1,$4,$5,$6,$7,0*
20,1,$1+$1,$6,$7,$8,$9,0*
20,1,$1+$1,$8,$9,$2,$3,0*%
G04 Aperture macros list end*
%TA.AperFunction,Conductor*%
%ADD10C,0.200000*%
%TD*%
%TA.AperFunction,SMDPad,CuDef*%
%ADD11RoundRect,0.135000X0.135000X0.185000X-0.135000X0.185000X-0.135000X-0.185000X0.135000X-0.185000X0*%
%TD*%
%TA.AperFunction,ComponentPad*%
%ADD12R,1.440000X2.000000*%
%TD*%
%TA.AperFunction,ComponentPad*%
%ADD13O,1.440000X2.000000*%
%TD*%
%TA.AperFunction,SMDPad,CuDef*%
%ADD14RoundRect,0.250000X-0.312500X-1.075000X0.312500X-1.075000X0.312500X1.075000X-0.312500X1.075000X0*%
%TD*%
%TA.AperFunction,SMDPad,CuDef*%
%ADD15R,1.250000X1.000000*%
%TD*%
%TA.AperFunction,ComponentPad*%
%ADD16R,1.700000X1.700000*%
%TD*%
%TA.AperFunction,ComponentPad*%
%ADD17O,1.700000X1.700000*%
%TD*%
%TA.AperFunction,ViaPad*%
%ADD18C,0.600000*%
%TD*%
G04 APERTURE END LIST*
D10*
%TO.N,GND*%
X119750000Y-85500000D02*
X118750000Y-85500000D01*
X119250000Y-84750000D01*
X119750000Y-85500000D01*
%TA.AperFunction,Conductor*%
G36*
X119750000Y-85500000D02*
G01*
X118750000Y-85500000D01*
X119250000Y-84750000D01*
X119750000Y-85500000D01*
G37*
%TD.AperFunction*%
X108769231Y-85500000D02*
X107769231Y-85500000D01*
X108269231Y-84750000D01*
X108769231Y-85500000D01*
%TA.AperFunction,Conductor*%
G36*
X108769231Y-85500000D02*
G01*
X107769231Y-85500000D01*
X108269231Y-84750000D01*
X108769231Y-85500000D01*
G37*
%TD.AperFunction*%
%TD*%
D11*
%TO.P,220\u03A9B4,1*%
%TO.N,Net-(JA1-Pin_9)*%
X89760000Y-63835710D03*
%TO.P,220\u03A9B4,2*%
%TO.N,GND*%
X88740000Y-63835710D03*
%TD*%
%TO.P,220\u03A9B3,1*%
%TO.N,Net-(JA1-Pin_8)*%
X89760000Y-62644890D03*
%TO.P,220\u03A9B3,2*%
%TO.N,GND*%
X88740000Y-62644890D03*
%TD*%
%TO.P,220\u03A9B2,1*%
%TO.N,Net-(JA1-Pin_7)*%
X89760000Y-61454075D03*
%TO.P,220\u03A9B2,2*%
%TO.N,GND*%
X88740000Y-61454075D03*
%TD*%
%TO.P,220\u03A9B1,1*%
%TO.N,Net-(JA1-Pin_6)*%
X89760000Y-60263260D03*
%TO.P,220\u03A9B1,2*%
%TO.N,GND*%
X88740000Y-60263260D03*
%TD*%
%TO.P,220\u03A9A4,1*%
%TO.N,Net-(JA1-Pin_5)*%
X89760000Y-59072445D03*
%TO.P,220\u03A9A4,2*%
%TO.N,GND*%
X88740000Y-59072445D03*
%TD*%
%TO.P,220\u03A9A3,1*%
%TO.N,Net-(JA1-Pin_4)*%
X89760000Y-57881630D03*
%TO.P,220\u03A9A3,2*%
%TO.N,GND*%
X88740000Y-57881630D03*
%TD*%
%TO.P,220\u03A9A2,1*%
%TO.N,Net-(JA1-Pin_3)*%
X89760000Y-56690815D03*
%TO.P,220\u03A9A2,2*%
%TO.N,GND*%
X88740000Y-56690815D03*
%TD*%
%TO.P,220\u03A9A1,1*%
%TO.N,Net-(JA1-Pin_2)*%
X89760000Y-55500000D03*
%TO.P,220\u03A9A1,2*%
%TO.N,GND*%
X88740000Y-55500000D03*
%TD*%
%TO.P,220\u03A928111,1*%
%TO.N,Net-(J2-Pin_9)*%
X89760000Y-74335710D03*
%TO.P,220\u03A928111,2*%
%TO.N,GND*%
X88740000Y-74335710D03*
%TD*%
%TO.P,220\u03A927111,1*%
%TO.N,Net-(J2-Pin_8)*%
X89760000Y-73144890D03*
%TO.P,220\u03A927111,2*%
%TO.N,GND*%
X88740000Y-73144890D03*
%TD*%
%TO.P,220\u03A926111,1*%
%TO.N,Net-(J2-Pin_7)*%
X89760000Y-71954075D03*
%TO.P,220\u03A926111,2*%
%TO.N,GND*%
X88740000Y-71954075D03*
%TD*%
%TO.P,220\u03A925111,1*%
%TO.N,Net-(J2-Pin_6)*%
X89760000Y-70763260D03*
%TO.P,220\u03A925111,2*%
%TO.N,GND*%
X88740000Y-70763260D03*
%TD*%
%TO.P,220\u03A924111,1*%
%TO.N,Net-(J2-Pin_5)*%
X89760000Y-69572445D03*
%TO.P,220\u03A924111,2*%
%TO.N,GND*%
X88740000Y-69572445D03*
%TD*%
%TO.P,220\u03A923111,1*%
%TO.N,Net-(J2-Pin_4)*%
X89760000Y-68381630D03*
%TO.P,220\u03A923111,2*%
%TO.N,GND*%
X88740000Y-68381630D03*
%TD*%
%TO.P,220\u03A922111,1*%
%TO.N,Net-(J2-Pin_3)*%
X89760000Y-67190815D03*
%TO.P,220\u03A922111,2*%
%TO.N,GND*%
X88740000Y-67190815D03*
%TD*%
%TO.P,220\u03A921111,1*%
%TO.N,Net-(J2-Pin_2)*%
X89760000Y-66000000D03*
%TO.P,220\u03A921111,2*%
%TO.N,GND*%
X88740000Y-66000000D03*
%TD*%
%TO.P,220\u03A918111,1*%
%TO.N,Net-(J1-Pin_9)*%
X89760000Y-84835710D03*
%TO.P,220\u03A918111,2*%
%TO.N,GND*%
X88740000Y-84835710D03*
%TD*%
%TO.P,220\u03A917111,1*%
%TO.N,Net-(J1-Pin_8)*%
X89760000Y-83644890D03*
%TO.P,220\u03A917111,2*%
%TO.N,GND*%
X88740000Y-83644890D03*
%TD*%
%TO.P,220\u03A916111,1*%
%TO.N,Net-(J1-Pin_7)*%
X89760000Y-82454075D03*
%TO.P,220\u03A916111,2*%
%TO.N,GND*%
X88740000Y-82454075D03*
%TD*%
%TO.P,220\u03A915111,1*%
%TO.N,Net-(J1-Pin_6)*%
X89760000Y-81263260D03*
%TO.P,220\u03A915111,2*%
%TO.N,GND*%
X88740000Y-81263260D03*
%TD*%
%TO.P,220\u03A914111,1*%
%TO.N,Net-(J1-Pin_5)*%
X89760000Y-80072445D03*
%TO.P,220\u03A914111,2*%
%TO.N,GND*%
X88740000Y-80072445D03*
%TD*%
%TO.P,220\u03A913111,1*%
%TO.N,Net-(J1-Pin_4)*%
X89760000Y-78881630D03*
%TO.P,220\u03A913111,2*%
%TO.N,GND*%
X88740000Y-78881630D03*
%TD*%
%TO.P,220\u03A912111,1*%
%TO.N,Net-(J1-Pin_3)*%
X89760000Y-77690815D03*
%TO.P,220\u03A912111,2*%
%TO.N,GND*%
X88740000Y-77690815D03*
%TD*%
%TO.P,220\u03A911111,1*%
%TO.N,Net-(J1-Pin_2)*%
X89760000Y-76500000D03*
%TO.P,220\u03A911111,2*%
%TO.N,GND*%
X88740000Y-76500000D03*
%TD*%
D12*
%TO.P,8xDIP2,1,A1*%
%TO.N,Net-(8xDIP1-A1)*%
X91800000Y-73845000D03*
D13*
%TO.P,8xDIP2,2,A2*%
X94340000Y-73845000D03*
%TO.P,8xDIP2,3,A3*%
X96880000Y-73845000D03*
%TO.P,8xDIP2,4,A4*%
X99420000Y-73845000D03*
%TO.P,8xDIP2,5,A5*%
X101960000Y-73845000D03*
%TO.P,8xDIP2,6,A6*%
X104500000Y-73845000D03*
%TO.P,8xDIP2,7,A7*%
X107040000Y-73845000D03*
%TO.P,8xDIP2,8,A8*%
X109580000Y-73845000D03*
%TO.P,8xDIP2,9*%
%TO.N,Net-(J2-Pin_9)*%
X109580000Y-66225000D03*
%TO.P,8xDIP2,10*%
%TO.N,Net-(J2-Pin_8)*%
X107040000Y-66225000D03*
%TO.P,8xDIP2,11*%
%TO.N,Net-(J2-Pin_7)*%
X104500000Y-66225000D03*
%TO.P,8xDIP2,12*%
%TO.N,Net-(J2-Pin_6)*%
X101960000Y-66225000D03*
%TO.P,8xDIP2,13*%
%TO.N,Net-(J2-Pin_5)*%
X99420000Y-66225000D03*
%TO.P,8xDIP2,14*%
%TO.N,Net-(J2-Pin_4)*%
X96880000Y-66225000D03*
%TO.P,8xDIP2,15*%
%TO.N,Net-(J2-Pin_3)*%
X94340000Y-66225000D03*
%TO.P,8xDIP2,16*%
%TO.N,Net-(J2-Pin_2)*%
X91800000Y-66225000D03*
%TD*%
D14*
%TO.P,220\u03A9P2,1*%
%TO.N,Net-(MW1-Pin_2)*%
X124000000Y-71500000D03*
%TO.P,220\u03A9P2,2*%
%TO.N,GND*%
X126925000Y-71500000D03*
%TD*%
D15*
%TO.P,WE_Switch1,1*%
%TO.N,+5V*%
X131175000Y-75900000D03*
%TO.P,WE_Switch1,2*%
%TO.N,Net-(8xDIP1-A1)*%
X123425000Y-75900000D03*
%TD*%
D16*
%TO.P,J1,1,Pin_1*%
%TO.N,GND*%
X113840000Y-66000000D03*
D17*
%TO.P,J1,2,Pin_2*%
%TO.N,Net-(J1-Pin_2)*%
X116380000Y-66000000D03*
%TO.P,J1,3,Pin_3*%
%TO.N,Net-(J1-Pin_3)*%
X118920000Y-66000000D03*
%TO.P,J1,4,Pin_4*%
%TO.N,Net-(J1-Pin_4)*%
X121460000Y-66000000D03*
%TO.P,J1,5,Pin_5*%
%TO.N,Net-(J1-Pin_5)*%
X124000000Y-66000000D03*
%TO.P,J1,6,Pin_6*%
%TO.N,Net-(J1-Pin_6)*%
X126540000Y-66000000D03*
%TO.P,J1,7,Pin_7*%
%TO.N,Net-(J1-Pin_7)*%
X129080000Y-66000000D03*
%TO.P,J1,8,Pin_8*%
%TO.N,Net-(J1-Pin_8)*%
X131620000Y-66000000D03*
%TO.P,J1,9,Pin_9*%
%TO.N,Net-(J1-Pin_9)*%
X134160000Y-66000000D03*
%TD*%
D16*
%TO.P,MW1,1,Pin_1*%
%TO.N,Net-(MW1-Pin_1)*%
X134140000Y-72775000D03*
D17*
%TO.P,MW1,2,Pin_2*%
%TO.N,Net-(MW1-Pin_2)*%
X134140000Y-70235000D03*
%TD*%
D12*
%TO.P,8xDIPA1,1,A1*%
%TO.N,Net-(8xDIP1-A1)*%
X91800000Y-63380000D03*
D13*
%TO.P,8xDIPA1,2,A2*%
X94340000Y-63380000D03*
%TO.P,8xDIPA1,3,A3*%
X96880000Y-63380000D03*
%TO.P,8xDIPA1,4,A4*%
X99420000Y-63380000D03*
%TO.P,8xDIPA1,5,A5*%
X101960000Y-63380000D03*
%TO.P,8xDIPA1,6,A6*%
X104500000Y-63380000D03*
%TO.P,8xDIPA1,7,A7*%
X107040000Y-63380000D03*
%TO.P,8xDIPA1,8,A8*%
X109580000Y-63380000D03*
%TO.P,8xDIPA1,9*%
%TO.N,Net-(JA1-Pin_9)*%
X109580000Y-55760000D03*
%TO.P,8xDIPA1,10*%
%TO.N,Net-(JA1-Pin_8)*%
X107040000Y-55760000D03*
%TO.P,8xDIPA1,11*%
%TO.N,Net-(JA1-Pin_7)*%
X104500000Y-55760000D03*
%TO.P,8xDIPA1,12*%
%TO.N,Net-(JA1-Pin_6)*%
X101960000Y-55760000D03*
%TO.P,8xDIPA1,13*%
%TO.N,Net-(JA1-Pin_5)*%
X99420000Y-55760000D03*
%TO.P,8xDIPA1,14*%
%TO.N,Net-(JA1-Pin_4)*%
X96880000Y-55760000D03*
%TO.P,8xDIPA1,15*%
%TO.N,Net-(JA1-Pin_3)*%
X94340000Y-55760000D03*
%TO.P,8xDIPA1,16*%
%TO.N,Net-(JA1-Pin_2)*%
X91800000Y-55760000D03*
%TD*%
D15*
%TO.P,2xPushButtonB1,1*%
%TO.N,Net-(8xDIP1-A1)*%
X113125000Y-82000000D03*
%TO.P,2xPushButtonB1,2*%
%TO.N,Net-(MW1-Pin_1)*%
X120875000Y-82000000D03*
%TD*%
%TO.P,2xPushButtonB2,1*%
%TO.N,Net-(8xDIP1-A1)*%
X113125000Y-71500000D03*
%TO.P,2xPushButtonB2,2*%
%TO.N,Net-(MW1-Pin_2)*%
X120875000Y-71500000D03*
%TD*%
D16*
%TO.P,PWR1,1,Pin_1*%
%TO.N,GND*%
X134140000Y-83275000D03*
D17*
%TO.P,PWR1,2,Pin_2*%
%TO.N,+5V*%
X134140000Y-80735000D03*
%TD*%
D12*
%TO.P,8xDIP1,1,A1*%
%TO.N,Net-(8xDIP1-A1)*%
X91800000Y-84310000D03*
D13*
%TO.P,8xDIP1,2,A2*%
X94340000Y-84310000D03*
%TO.P,8xDIP1,3,A3*%
X96880000Y-84310000D03*
%TO.P,8xDIP1,4,A4*%
X99420000Y-84310000D03*
%TO.P,8xDIP1,5,A5*%
X101960000Y-84310000D03*
%TO.P,8xDIP1,6,A6*%
X104500000Y-84310000D03*
%TO.P,8xDIP1,7,A7*%
X107040000Y-84310000D03*
%TO.P,8xDIP1,8,A8*%
X109580000Y-84310000D03*
%TO.P,8xDIP1,9*%
%TO.N,Net-(J1-Pin_9)*%
X109580000Y-76690000D03*
%TO.P,8xDIP1,10*%
%TO.N,Net-(J1-Pin_8)*%
X107040000Y-76690000D03*
%TO.P,8xDIP1,11*%
%TO.N,Net-(J1-Pin_7)*%
X104500000Y-76690000D03*
%TO.P,8xDIP1,12*%
%TO.N,Net-(J1-Pin_6)*%
X101960000Y-76690000D03*
%TO.P,8xDIP1,13*%
%TO.N,Net-(J1-Pin_5)*%
X99420000Y-76690000D03*
%TO.P,8xDIP1,14*%
%TO.N,Net-(J1-Pin_4)*%
X96880000Y-76690000D03*
%TO.P,8xDIP1,15*%
%TO.N,Net-(J1-Pin_3)*%
X94340000Y-76690000D03*
%TO.P,8xDIP1,16*%
%TO.N,Net-(J1-Pin_2)*%
X91800000Y-76690000D03*
%TD*%
D16*
%TO.P,J2,1,Pin_1*%
%TO.N,GND*%
X113840000Y-60700000D03*
D17*
%TO.P,J2,2,Pin_2*%
%TO.N,Net-(J2-Pin_2)*%
X116380000Y-60700000D03*
%TO.P,J2,3,Pin_3*%
%TO.N,Net-(J2-Pin_3)*%
X118920000Y-60700000D03*
%TO.P,J2,4,Pin_4*%
%TO.N,Net-(J2-Pin_4)*%
X121460000Y-60700000D03*
%TO.P,J2,5,Pin_5*%
%TO.N,Net-(J2-Pin_5)*%
X124000000Y-60700000D03*
%TO.P,J2,6,Pin_6*%
%TO.N,Net-(J2-Pin_6)*%
X126540000Y-60700000D03*
%TO.P,J2,7,Pin_7*%
%TO.N,Net-(J2-Pin_7)*%
X129080000Y-60700000D03*
%TO.P,J2,8,Pin_8*%
%TO.N,Net-(J2-Pin_8)*%
X131620000Y-60700000D03*
%TO.P,J2,9,Pin_9*%
%TO.N,Net-(J2-Pin_9)*%
X134160000Y-60700000D03*
%TD*%
D16*
%TO.P,JA1,1,Pin_1*%
%TO.N,GND*%
X113840000Y-55500000D03*
D17*
%TO.P,JA1,2,Pin_2*%
%TO.N,Net-(JA1-Pin_2)*%
X116380000Y-55500000D03*
%TO.P,JA1,3,Pin_3*%
%TO.N,Net-(JA1-Pin_3)*%
X118920000Y-55500000D03*
%TO.P,JA1,4,Pin_4*%
%TO.N,Net-(JA1-Pin_4)*%
X121460000Y-55500000D03*
%TO.P,JA1,5,Pin_5*%
%TO.N,Net-(JA1-Pin_5)*%
X124000000Y-55500000D03*
%TO.P,JA1,6,Pin_6*%
%TO.N,Net-(JA1-Pin_6)*%
X126540000Y-55500000D03*
%TO.P,JA1,7,Pin_7*%
%TO.N,Net-(JA1-Pin_7)*%
X129080000Y-55500000D03*
%TO.P,JA1,8,Pin_8*%
%TO.N,Net-(JA1-Pin_8)*%
X131620000Y-55500000D03*
%TO.P,JA1,9,Pin_9*%
%TO.N,Net-(JA1-Pin_9)*%
X134160000Y-55500000D03*
%TD*%
D14*
%TO.P,220\u03A9P1,1*%
%TO.N,Net-(MW1-Pin_1)*%
X124000000Y-82000000D03*
%TO.P,220\u03A9P1,2*%
%TO.N,GND*%
X126925000Y-82000000D03*
%TD*%
D18*
%TO.N,+5V*%
X131952500Y-78547500D03*
%TO.N,GND*%
X110000000Y-71000000D03*
%TO.N,Net-(JA1-Pin_5)*%
X122250000Y-58460000D03*
%TO.N,Net-(8xDIP1-A1)*%
X90101372Y-64384074D03*
X102250000Y-70745000D03*
X100250000Y-81000000D03*
X90250000Y-74750000D03*
%TD*%
D10*
%TO.N,GND*%
X88740000Y-55490001D02*
X88740000Y-65810000D01*
X89770001Y-54460000D02*
X88740000Y-55490001D01*
X88740000Y-65810000D02*
X88930000Y-66000000D01*
X112800000Y-54460000D02*
X89770001Y-54460000D01*
X113840000Y-55500000D02*
X112800000Y-54460000D01*
X88740000Y-76310000D02*
X88930000Y-76500000D01*
X88740000Y-66190000D02*
X88740000Y-76310000D01*
X88930000Y-66000000D02*
X88740000Y-66190000D01*
X88740000Y-76690000D02*
X88740000Y-84835710D01*
X88930000Y-76500000D02*
X88740000Y-76690000D01*
X89514290Y-85610000D02*
X108250000Y-85610000D01*
X88740000Y-84835710D02*
X89514290Y-85610000D01*
%TO.N,+5V*%
X131952500Y-76677500D02*
X131175000Y-75900000D01*
X131952500Y-78547500D02*
X131952500Y-76677500D01*
%TO.N,Net-(J2-Pin_5)*%
X90817445Y-68325000D02*
X97320000Y-68325000D01*
X97320000Y-68325000D02*
X99420000Y-66225000D01*
X89570000Y-69572445D02*
X90817445Y-68325000D01*
%TO.N,Net-(J2-Pin_6)*%
X99460000Y-68725000D02*
X101960000Y-66225000D01*
X89570000Y-70763260D02*
X91608260Y-68725000D01*
X91608260Y-68725000D02*
X99460000Y-68725000D01*
%TO.N,Net-(J2-Pin_4)*%
X90026630Y-67925000D02*
X95180000Y-67925000D01*
X95180000Y-67925000D02*
X96880000Y-66225000D01*
X89570000Y-68381630D02*
X90026630Y-67925000D01*
%TO.N,Net-(J2-Pin_8)*%
X89570000Y-73144890D02*
X93189890Y-69525000D01*
X93189890Y-69525000D02*
X103740000Y-69525000D01*
X103740000Y-69525000D02*
X107040000Y-66225000D01*
%TO.N,Net-(J2-Pin_3)*%
X89904185Y-67525000D02*
X93040000Y-67525000D01*
X93040000Y-67525000D02*
X94340000Y-66225000D01*
X89570000Y-67190815D02*
X89904185Y-67525000D01*
%TO.N,Net-(J2-Pin_9)*%
X90100000Y-73400000D02*
X93575000Y-69925000D01*
X105880000Y-69925000D02*
X109580000Y-66225000D01*
X89570000Y-74335710D02*
X90100000Y-73805710D01*
X90100000Y-73805710D02*
X90100000Y-73400000D01*
X93575000Y-69925000D02*
X105880000Y-69925000D01*
%TO.N,Net-(J2-Pin_7)*%
X101600000Y-69125000D02*
X104500000Y-66225000D01*
X89570000Y-71954075D02*
X92399075Y-69125000D01*
X92399075Y-69125000D02*
X101600000Y-69125000D01*
%TO.N,Net-(J2-Pin_2)*%
X91575000Y-66000000D02*
X91800000Y-66225000D01*
X89570000Y-66000000D02*
X91575000Y-66000000D01*
%TO.N,Net-(J1-Pin_4)*%
X89570000Y-78881630D02*
X90061630Y-78390000D01*
X90061630Y-78390000D02*
X95180000Y-78390000D01*
X95180000Y-78390000D02*
X96880000Y-76690000D01*
%TO.N,Net-(J1-Pin_5)*%
X97320000Y-78790000D02*
X99420000Y-76690000D01*
X90852445Y-78790000D02*
X97320000Y-78790000D01*
X89570000Y-80072445D02*
X90852445Y-78790000D01*
%TO.N,Net-(J1-Pin_9)*%
X93400000Y-80390000D02*
X105880000Y-80390000D01*
X90100000Y-83690000D02*
X93400000Y-80390000D01*
X90100000Y-84305710D02*
X90100000Y-83690000D01*
X89570000Y-84835710D02*
X90100000Y-84305710D01*
X105880000Y-80390000D02*
X109580000Y-76690000D01*
%TO.N,Net-(J1-Pin_3)*%
X89869185Y-77990000D02*
X93040000Y-77990000D01*
X93040000Y-77990000D02*
X94340000Y-76690000D01*
X89570000Y-77690815D02*
X89869185Y-77990000D01*
%TO.N,Net-(J1-Pin_7)*%
X101600000Y-79590000D02*
X104500000Y-76690000D01*
X92434075Y-79590000D02*
X101600000Y-79590000D01*
X89570000Y-82454075D02*
X92434075Y-79590000D01*
%TO.N,Net-(J1-Pin_6)*%
X99460000Y-79190000D02*
X101960000Y-76690000D01*
X89570000Y-81263260D02*
X91643260Y-79190000D01*
X91643260Y-79190000D02*
X99460000Y-79190000D01*
%TO.N,Net-(J1-Pin_2)*%
X89570000Y-76500000D02*
X91610000Y-76500000D01*
X91610000Y-76500000D02*
X91800000Y-76690000D01*
%TO.N,Net-(J1-Pin_8)*%
X89570000Y-83644890D02*
X93224890Y-79990000D01*
X93224890Y-79990000D02*
X103740000Y-79990000D01*
X103740000Y-79990000D02*
X107040000Y-76690000D01*
%TO.N,GND*%
X119250000Y-81900000D02*
X119250000Y-85610000D01*
X108560000Y-72440000D02*
X110000000Y-71000000D01*
X108560000Y-63582498D02*
X108560000Y-62677502D01*
X134885000Y-71385000D02*
X135750000Y-72250000D01*
X91355000Y-75145000D02*
X107665000Y-75145000D01*
X135750000Y-81665000D02*
X134140000Y-83275000D01*
X127540000Y-71385000D02*
X134885000Y-71385000D01*
X108560000Y-62677502D02*
X110537502Y-60700000D01*
X108250000Y-85610000D02*
X119250000Y-85610000D01*
X88930000Y-65800001D02*
X89703750Y-65026251D01*
X107462498Y-64680000D02*
X108560000Y-63582498D01*
X110600000Y-81460000D02*
X108250000Y-83810000D01*
X109757498Y-75145000D02*
X110600000Y-75987502D01*
X108560000Y-74250000D02*
X108560000Y-73140000D01*
X126925000Y-71500000D02*
X127175000Y-71750000D01*
X135750000Y-72250000D02*
X135750000Y-81665000D01*
X126925000Y-82000000D02*
X126925000Y-71500000D01*
X127175000Y-71750000D02*
X127540000Y-71385000D01*
X110600000Y-75987502D02*
X110600000Y-81460000D01*
X113840000Y-66000000D02*
X113840000Y-66190000D01*
X107665000Y-75145000D02*
X109757498Y-75145000D01*
X131805000Y-85610000D02*
X134140000Y-83275000D01*
X125300000Y-73125000D02*
X126925000Y-71500000D01*
X91622502Y-64680000D02*
X107462498Y-64680000D01*
X108250000Y-83810000D02*
X108250000Y-85610000D01*
X88930000Y-66000000D02*
X88930000Y-65800001D01*
X89230001Y-76000000D02*
X90500000Y-76000000D01*
X126925000Y-82000000D02*
X125300000Y-80375000D01*
X91276251Y-65026251D02*
X91622502Y-64680000D01*
X88930000Y-76500000D02*
X88930000Y-76300001D01*
X89703750Y-65026251D02*
X91276251Y-65026251D01*
X90500000Y-76000000D02*
X91355000Y-75145000D01*
X110537502Y-60700000D02*
X113840000Y-60700000D01*
X119250000Y-85610000D02*
X131805000Y-85610000D01*
X113840000Y-60700000D02*
X113840000Y-66000000D01*
X88930000Y-76300001D02*
X89230001Y-76000000D01*
X113840000Y-66190000D02*
X120775000Y-73125000D01*
X108560000Y-73140000D02*
X108560000Y-72440000D01*
X125300000Y-80375000D02*
X120775000Y-80375000D01*
X120775000Y-73125000D02*
X125300000Y-73125000D01*
X120775000Y-80375000D02*
X119250000Y-81900000D01*
X113840000Y-55500000D02*
X113840000Y-60700000D01*
X107665000Y-75145000D02*
X108560000Y-74250000D01*
%TO.N,Net-(MW1-Pin_1)*%
X126250000Y-84250000D02*
X127750000Y-84250000D01*
X127750000Y-84250000D02*
X134140000Y-77860000D01*
X134140000Y-77860000D02*
X134140000Y-72775000D01*
X120875000Y-82000000D02*
X124000000Y-82000000D01*
X124000000Y-82000000D02*
X126250000Y-84250000D01*
%TO.N,Net-(MW1-Pin_2)*%
X124000000Y-71500000D02*
X126115000Y-69385000D01*
X126115000Y-69385000D02*
X133290000Y-69385000D01*
X120875000Y-71500000D02*
X124000000Y-71500000D01*
X133290000Y-69385000D02*
X134140000Y-70235000D01*
%TO.N,Net-(JA1-Pin_3)*%
X89939185Y-57060000D02*
X93040000Y-57060000D01*
X93040000Y-57060000D02*
X94340000Y-55760000D01*
X89570000Y-56690815D02*
X89939185Y-57060000D01*
%TO.N,Net-(JA1-Pin_9)*%
X105880000Y-59460000D02*
X109580000Y-55760000D01*
X89570000Y-63835710D02*
X90100000Y-63305710D01*
X93320576Y-59460000D02*
X105880000Y-59460000D01*
X90100000Y-62680576D02*
X93320576Y-59460000D01*
X90100000Y-63305710D02*
X90100000Y-62680576D01*
%TO.N,Net-(JA1-Pin_6)*%
X89570000Y-60263260D02*
X91573260Y-58260000D01*
X99460000Y-58260000D02*
X101960000Y-55760000D01*
X91573260Y-58260000D02*
X99460000Y-58260000D01*
%TO.N,Net-(JA1-Pin_4)*%
X95180000Y-57460000D02*
X96880000Y-55760000D01*
X89570000Y-57881630D02*
X89991630Y-57460000D01*
X89991630Y-57460000D02*
X95180000Y-57460000D01*
%TO.N,Net-(JA1-Pin_8)*%
X103740000Y-59060000D02*
X107040000Y-55760000D01*
X93154890Y-59060000D02*
X103740000Y-59060000D01*
X89570000Y-62644890D02*
X93154890Y-59060000D01*
%TO.N,Net-(JA1-Pin_5)*%
X90782445Y-57860000D02*
X97320000Y-57860000D01*
X89570000Y-59072445D02*
X90782445Y-57860000D01*
X97320000Y-57860000D02*
X99420000Y-55760000D01*
X124000000Y-56710000D02*
X124000000Y-55500000D01*
X122250000Y-58460000D02*
X124000000Y-56710000D01*
%TO.N,Net-(JA1-Pin_2)*%
X89570000Y-55500000D02*
X91540000Y-55500000D01*
X91540000Y-55500000D02*
X91800000Y-55760000D01*
%TO.N,Net-(JA1-Pin_7)*%
X89570000Y-61454075D02*
X92364075Y-58660000D01*
X92364075Y-58660000D02*
X101600000Y-58660000D01*
X101600000Y-58660000D02*
X104500000Y-55760000D01*
%TO.N,Net-(8xDIP1-A1)*%
X113125000Y-71500000D02*
X118584314Y-71500000D01*
X109580000Y-73845000D02*
X109580000Y-73545000D01*
X118584314Y-71500000D02*
X120609314Y-73525000D01*
X99420000Y-63380000D02*
X96880000Y-63380000D01*
X109580000Y-63380000D02*
X109580000Y-64020000D01*
X96880000Y-73845000D02*
X94340000Y-73845000D01*
X101960000Y-71035000D02*
X102250000Y-70745000D01*
X90250000Y-74750000D02*
X91155000Y-73845000D01*
X117325000Y-82000000D02*
X113125000Y-82000000D01*
X94340000Y-73845000D02*
X91800000Y-73845000D01*
X107040000Y-63380000D02*
X104500000Y-63380000D01*
X99420000Y-81830000D02*
X100250000Y-81000000D01*
X113115000Y-71510000D02*
X113125000Y-71500000D01*
X109580000Y-84310000D02*
X109580000Y-84045000D01*
X107040000Y-73845000D02*
X104500000Y-73845000D01*
X109580000Y-64020000D02*
X113125000Y-67565000D01*
X101960000Y-73845000D02*
X99420000Y-73845000D01*
X90101372Y-64384074D02*
X91105446Y-63380000D01*
X113125000Y-82000000D02*
X113125000Y-77390000D01*
X94340000Y-84310000D02*
X91800000Y-84310000D01*
X99420000Y-84310000D02*
X96880000Y-84310000D01*
X101960000Y-84310000D02*
X99420000Y-84310000D01*
X113125000Y-77390000D02*
X109580000Y-73845000D01*
X111890000Y-82000000D02*
X113125000Y-82000000D01*
X109580000Y-84310000D02*
X111890000Y-82000000D01*
X91155000Y-73845000D02*
X91800000Y-73845000D01*
X104500000Y-63380000D02*
X101960000Y-63380000D01*
X113125000Y-67565000D02*
X113125000Y-71500000D01*
X121050000Y-73525000D02*
X123425000Y-75900000D01*
X94340000Y-63380000D02*
X91800000Y-63380000D01*
X110600000Y-65040000D02*
X109580000Y-64020000D01*
X96880000Y-84310000D02*
X94340000Y-84310000D01*
X104500000Y-73845000D02*
X101960000Y-73845000D01*
X113115000Y-81990000D02*
X113115000Y-71510000D01*
X99420000Y-73845000D02*
X96880000Y-73845000D01*
X99420000Y-84310000D02*
X99420000Y-81830000D01*
X101960000Y-63380000D02*
X99420000Y-63380000D01*
X113125000Y-71500000D02*
X110780000Y-73845000D01*
X107040000Y-84310000D02*
X104500000Y-84310000D01*
X91105446Y-63380000D02*
X91800000Y-63380000D01*
X104500000Y-84310000D02*
X101960000Y-84310000D01*
X123425000Y-75900000D02*
X117325000Y-82000000D01*
X101960000Y-73845000D02*
X101960000Y-71035000D01*
X113125000Y-82000000D02*
X113115000Y-81990000D01*
X96880000Y-63380000D02*
X94340000Y-63380000D01*
X120609314Y-73525000D02*
X121050000Y-73525000D01*
X110780000Y-73845000D02*
X109580000Y-73845000D01*
%TD*%
M02*
