M48
; DRILL file {KiCad 8.0.4} date 2024-11-02T20:34:58-0400
; FORMAT={-:-/ absolute / inch / decimal}
; #@! TF.CreationDate,2024-11-02T20:34:58-04:00
; #@! TF.GenerationSoftware,Kicad,Pcbnew,8.0.4
; #@! TF.FileFunction,Plated,1,2,PTH
FMAT,2
INCH
; #@! TA.AperFunction,Plated,PTH,ViaDrill
T1C0.0118
; #@! TA.AperFunction,Plated,PTH,ComponentDrill
T2C0.0394
%
G90
G05
T1
X3.5473Y-2.5348
X3.5531Y-2.9429
X3.9469Y-3.189
X4.0256Y-2.7852
X4.3307Y-2.7953
X4.813Y-2.3016
X5.195Y-3.0924
T2
X3.6142Y-2.1953
X3.6142Y-2.4953
X3.6142Y-2.6073
X3.6142Y-2.9073
X3.6142Y-3.0193
X3.6142Y-3.3193
X3.7142Y-2.1953
X3.7142Y-2.4953
X3.7142Y-2.6073
X3.7142Y-2.9073
X3.7142Y-3.0193
X3.7142Y-3.3193
X3.8142Y-2.1953
X3.8142Y-2.4953
X3.8142Y-2.6073
X3.8142Y-2.9073
X3.8142Y-3.0193
X3.8142Y-3.3193
X3.9142Y-2.1953
X3.9142Y-2.4953
X3.9142Y-2.6073
X3.9142Y-2.9073
X3.9142Y-3.0193
X3.9142Y-3.3193
X4.0142Y-2.1953
X4.0142Y-2.4953
X4.0142Y-2.6073
X4.0142Y-2.9073
X4.0142Y-3.0193
X4.0142Y-3.3193
X4.1142Y-2.1953
X4.1142Y-2.4953
X4.1142Y-2.6073
X4.1142Y-2.9073
X4.1142Y-3.0193
X4.1142Y-3.3193
X4.2142Y-2.1953
X4.2142Y-2.4953
X4.2142Y-2.6073
X4.2142Y-2.9073
X4.2142Y-3.0193
X4.2142Y-3.3193
X4.3142Y-2.1953
X4.3142Y-2.4953
X4.3142Y-2.6073
X4.3142Y-2.9073
X4.3142Y-3.0193
X4.3142Y-3.3193
X4.4819Y-2.185
X4.4819Y-2.3898
X4.4819Y-2.5984
X4.5819Y-2.185
X4.5819Y-2.3898
X4.5819Y-2.5984
X4.6819Y-2.185
X4.6819Y-2.3898
X4.6819Y-2.5984
X4.7819Y-2.185
X4.7819Y-2.3898
X4.7819Y-2.5984
X4.8819Y-2.185
X4.8819Y-2.3898
X4.8819Y-2.5984
X4.9819Y-2.185
X4.9819Y-2.3898
X4.9819Y-2.5984
X5.0819Y-2.185
X5.0819Y-2.3898
X5.0819Y-2.5984
X5.1819Y-2.185
X5.1819Y-2.3898
X5.1819Y-2.5984
X5.2811Y-2.7652
X5.2811Y-2.8652
X5.2811Y-3.1785
X5.2811Y-3.2785
X5.2819Y-2.185
X5.2819Y-2.3898
X5.2819Y-2.5984
M30
