%TF.GenerationSoftware,KiCad,Pcbnew,8.0.4*%
%TF.CreationDate,2024-11-02T20:35:01-04:00*%
%TF.ProjectId,Programming Board,50726f67-7261-46d6-9d69-6e6720426f61,rev?*%
%TF.SameCoordinates,Original*%
%TF.FileFunction,Legend,Top*%
%TF.FilePolarity,Positive*%
%FSLAX46Y46*%
G04 Gerber Fmt 4.6, Leading zero omitted, Abs format (unit mm)*
G04 Created by KiCad (PCBNEW 8.0.4) date 2024-11-02 20:35:01*
%MOMM*%
%LPD*%
G01*
G04 APERTURE LIST*
%ADD10C,0.100000*%
%ADD11C,0.200000*%
%ADD12C,0.400000*%
%ADD13C,1.000000*%
%ADD14C,0.120000*%
G04 APERTURE END LIST*
D10*
X110750000Y-70050000D02*
X112510000Y-62030000D01*
X100750000Y-54500000D02*
X110750000Y-54500000D01*
X110750000Y-64875000D01*
X100750000Y-64875000D01*
X100750000Y-54500000D01*
X112400000Y-79800000D02*
X121600000Y-79800000D01*
X121600000Y-85600000D01*
X112400000Y-85600000D01*
X112400000Y-79800000D01*
X112510000Y-56830000D02*
X110750000Y-59687500D01*
X110750000Y-80350000D02*
X112510000Y-67330000D01*
X122700000Y-73700000D02*
X131900000Y-73700000D01*
X131900000Y-79600000D01*
X122700000Y-79600000D01*
X122700000Y-73700000D01*
X90750000Y-54500000D02*
X100750000Y-54500000D01*
X100750000Y-64875000D01*
X90750000Y-64875000D01*
X90750000Y-54500000D01*
G36*
X90750000Y-54500000D02*
G01*
X100750000Y-54500000D01*
X100750000Y-64875000D01*
X90750000Y-64875000D01*
X90750000Y-54500000D01*
G37*
X90750000Y-75225000D02*
X110750000Y-75225000D01*
X110750000Y-85475000D01*
X90750000Y-85475000D01*
X90750000Y-75225000D01*
X112400000Y-69300000D02*
X121600000Y-69300000D01*
X121600000Y-75200000D01*
X112400000Y-75200000D01*
X112400000Y-69300000D01*
X90750000Y-64875000D02*
X110750000Y-64875000D01*
X110750000Y-75225000D01*
X90750000Y-75225000D01*
X90750000Y-64875000D01*
D11*
X124319047Y-78643409D02*
X124652380Y-78643409D01*
X124795237Y-79167219D02*
X124319047Y-79167219D01*
X124319047Y-79167219D02*
X124319047Y-78167219D01*
X124319047Y-78167219D02*
X124795237Y-78167219D01*
X125223809Y-78500552D02*
X125223809Y-79167219D01*
X125223809Y-78595790D02*
X125271428Y-78548171D01*
X125271428Y-78548171D02*
X125366666Y-78500552D01*
X125366666Y-78500552D02*
X125509523Y-78500552D01*
X125509523Y-78500552D02*
X125604761Y-78548171D01*
X125604761Y-78548171D02*
X125652380Y-78643409D01*
X125652380Y-78643409D02*
X125652380Y-79167219D01*
X126795238Y-78167219D02*
X127033333Y-79167219D01*
X127033333Y-79167219D02*
X127223809Y-78452933D01*
X127223809Y-78452933D02*
X127414285Y-79167219D01*
X127414285Y-79167219D02*
X127652381Y-78167219D01*
X128033333Y-79167219D02*
X128033333Y-78500552D01*
X128033333Y-78691028D02*
X128080952Y-78595790D01*
X128080952Y-78595790D02*
X128128571Y-78548171D01*
X128128571Y-78548171D02*
X128223809Y-78500552D01*
X128223809Y-78500552D02*
X128319047Y-78500552D01*
X128652381Y-79167219D02*
X128652381Y-78500552D01*
X128652381Y-78167219D02*
X128604762Y-78214838D01*
X128604762Y-78214838D02*
X128652381Y-78262457D01*
X128652381Y-78262457D02*
X128700000Y-78214838D01*
X128700000Y-78214838D02*
X128652381Y-78167219D01*
X128652381Y-78167219D02*
X128652381Y-78262457D01*
X128985714Y-78500552D02*
X129366666Y-78500552D01*
X129128571Y-78167219D02*
X129128571Y-79024361D01*
X129128571Y-79024361D02*
X129176190Y-79119600D01*
X129176190Y-79119600D02*
X129271428Y-79167219D01*
X129271428Y-79167219D02*
X129366666Y-79167219D01*
X130080952Y-79119600D02*
X129985714Y-79167219D01*
X129985714Y-79167219D02*
X129795238Y-79167219D01*
X129795238Y-79167219D02*
X129700000Y-79119600D01*
X129700000Y-79119600D02*
X129652381Y-79024361D01*
X129652381Y-79024361D02*
X129652381Y-78643409D01*
X129652381Y-78643409D02*
X129700000Y-78548171D01*
X129700000Y-78548171D02*
X129795238Y-78500552D01*
X129795238Y-78500552D02*
X129985714Y-78500552D01*
X129985714Y-78500552D02*
X130080952Y-78548171D01*
X130080952Y-78548171D02*
X130128571Y-78643409D01*
X130128571Y-78643409D02*
X130128571Y-78738647D01*
X130128571Y-78738647D02*
X129652381Y-78833885D01*
X131583183Y-80157219D02*
X131106993Y-80157219D01*
X131106993Y-80157219D02*
X131059374Y-80633409D01*
X131059374Y-80633409D02*
X131106993Y-80585790D01*
X131106993Y-80585790D02*
X131202231Y-80538171D01*
X131202231Y-80538171D02*
X131440326Y-80538171D01*
X131440326Y-80538171D02*
X131535564Y-80585790D01*
X131535564Y-80585790D02*
X131583183Y-80633409D01*
X131583183Y-80633409D02*
X131630802Y-80728647D01*
X131630802Y-80728647D02*
X131630802Y-80966742D01*
X131630802Y-80966742D02*
X131583183Y-81061980D01*
X131583183Y-81061980D02*
X131535564Y-81109600D01*
X131535564Y-81109600D02*
X131440326Y-81157219D01*
X131440326Y-81157219D02*
X131202231Y-81157219D01*
X131202231Y-81157219D02*
X131106993Y-81109600D01*
X131106993Y-81109600D02*
X131059374Y-81061980D01*
X131916517Y-80157219D02*
X132249850Y-81157219D01*
X132249850Y-81157219D02*
X132583183Y-80157219D01*
X102761278Y-54367219D02*
X102761278Y-53367219D01*
X102761278Y-53367219D02*
X102999373Y-53367219D01*
X102999373Y-53367219D02*
X103142230Y-53414838D01*
X103142230Y-53414838D02*
X103237468Y-53510076D01*
X103237468Y-53510076D02*
X103285087Y-53605314D01*
X103285087Y-53605314D02*
X103332706Y-53795790D01*
X103332706Y-53795790D02*
X103332706Y-53938647D01*
X103332706Y-53938647D02*
X103285087Y-54129123D01*
X103285087Y-54129123D02*
X103237468Y-54224361D01*
X103237468Y-54224361D02*
X103142230Y-54319600D01*
X103142230Y-54319600D02*
X102999373Y-54367219D01*
X102999373Y-54367219D02*
X102761278Y-54367219D01*
X103713659Y-54081504D02*
X104189849Y-54081504D01*
X103618421Y-54367219D02*
X103951754Y-53367219D01*
X103951754Y-53367219D02*
X104285087Y-54367219D01*
X104475564Y-53367219D02*
X105046992Y-53367219D01*
X104761278Y-54367219D02*
X104761278Y-53367219D01*
X105332707Y-54081504D02*
X105808897Y-54081504D01*
X105237469Y-54367219D02*
X105570802Y-53367219D01*
X105570802Y-53367219D02*
X105904135Y-54367219D01*
X106951755Y-54081504D02*
X107427945Y-54081504D01*
X106856517Y-54367219D02*
X107189850Y-53367219D01*
X107189850Y-53367219D02*
X107523183Y-54367219D01*
X107856517Y-54367219D02*
X107856517Y-53367219D01*
X107856517Y-53367219D02*
X108094612Y-53367219D01*
X108094612Y-53367219D02*
X108237469Y-53414838D01*
X108237469Y-53414838D02*
X108332707Y-53510076D01*
X108332707Y-53510076D02*
X108380326Y-53605314D01*
X108380326Y-53605314D02*
X108427945Y-53795790D01*
X108427945Y-53795790D02*
X108427945Y-53938647D01*
X108427945Y-53938647D02*
X108380326Y-54129123D01*
X108380326Y-54129123D02*
X108332707Y-54224361D01*
X108332707Y-54224361D02*
X108237469Y-54319600D01*
X108237469Y-54319600D02*
X108094612Y-54367219D01*
X108094612Y-54367219D02*
X107856517Y-54367219D01*
X108856517Y-54367219D02*
X108856517Y-53367219D01*
X108856517Y-53367219D02*
X109094612Y-53367219D01*
X109094612Y-53367219D02*
X109237469Y-53414838D01*
X109237469Y-53414838D02*
X109332707Y-53510076D01*
X109332707Y-53510076D02*
X109380326Y-53605314D01*
X109380326Y-53605314D02*
X109427945Y-53795790D01*
X109427945Y-53795790D02*
X109427945Y-53938647D01*
X109427945Y-53938647D02*
X109380326Y-54129123D01*
X109380326Y-54129123D02*
X109332707Y-54224361D01*
X109332707Y-54224361D02*
X109237469Y-54319600D01*
X109237469Y-54319600D02*
X109094612Y-54367219D01*
X109094612Y-54367219D02*
X108856517Y-54367219D01*
X110427945Y-54367219D02*
X110094612Y-53891028D01*
X109856517Y-54367219D02*
X109856517Y-53367219D01*
X109856517Y-53367219D02*
X110237469Y-53367219D01*
X110237469Y-53367219D02*
X110332707Y-53414838D01*
X110332707Y-53414838D02*
X110380326Y-53462457D01*
X110380326Y-53462457D02*
X110427945Y-53557695D01*
X110427945Y-53557695D02*
X110427945Y-53700552D01*
X110427945Y-53700552D02*
X110380326Y-53795790D01*
X110380326Y-53795790D02*
X110332707Y-53843409D01*
X110332707Y-53843409D02*
X110237469Y-53891028D01*
X110237469Y-53891028D02*
X109856517Y-53891028D01*
X113138095Y-62414838D02*
X113042857Y-62367219D01*
X113042857Y-62367219D02*
X112900000Y-62367219D01*
X112900000Y-62367219D02*
X112757143Y-62414838D01*
X112757143Y-62414838D02*
X112661905Y-62510076D01*
X112661905Y-62510076D02*
X112614286Y-62605314D01*
X112614286Y-62605314D02*
X112566667Y-62795790D01*
X112566667Y-62795790D02*
X112566667Y-62938647D01*
X112566667Y-62938647D02*
X112614286Y-63129123D01*
X112614286Y-63129123D02*
X112661905Y-63224361D01*
X112661905Y-63224361D02*
X112757143Y-63319600D01*
X112757143Y-63319600D02*
X112900000Y-63367219D01*
X112900000Y-63367219D02*
X112995238Y-63367219D01*
X112995238Y-63367219D02*
X113138095Y-63319600D01*
X113138095Y-63319600D02*
X113185714Y-63271980D01*
X113185714Y-63271980D02*
X113185714Y-62938647D01*
X113185714Y-62938647D02*
X112995238Y-62938647D01*
X113614286Y-63367219D02*
X113614286Y-62367219D01*
X113614286Y-62367219D02*
X114185714Y-63367219D01*
X114185714Y-63367219D02*
X114185714Y-62367219D01*
X114661905Y-63367219D02*
X114661905Y-62367219D01*
X114661905Y-62367219D02*
X114900000Y-62367219D01*
X114900000Y-62367219D02*
X115042857Y-62414838D01*
X115042857Y-62414838D02*
X115138095Y-62510076D01*
X115138095Y-62510076D02*
X115185714Y-62605314D01*
X115185714Y-62605314D02*
X115233333Y-62795790D01*
X115233333Y-62795790D02*
X115233333Y-62938647D01*
X115233333Y-62938647D02*
X115185714Y-63129123D01*
X115185714Y-63129123D02*
X115138095Y-63224361D01*
X115138095Y-63224361D02*
X115042857Y-63319600D01*
X115042857Y-63319600D02*
X114900000Y-63367219D01*
X114900000Y-63367219D02*
X114661905Y-63367219D01*
D12*
X90484438Y-83350000D02*
X88484438Y-83350000D01*
X88484438Y-83350000D02*
X88484438Y-82873810D01*
X88484438Y-82873810D02*
X88579676Y-82588095D01*
X88579676Y-82588095D02*
X88770152Y-82397619D01*
X88770152Y-82397619D02*
X88960628Y-82302381D01*
X88960628Y-82302381D02*
X89341580Y-82207143D01*
X89341580Y-82207143D02*
X89627295Y-82207143D01*
X89627295Y-82207143D02*
X90008247Y-82302381D01*
X90008247Y-82302381D02*
X90198723Y-82397619D01*
X90198723Y-82397619D02*
X90389200Y-82588095D01*
X90389200Y-82588095D02*
X90484438Y-82873810D01*
X90484438Y-82873810D02*
X90484438Y-83350000D01*
X89913009Y-81445238D02*
X89913009Y-80492857D01*
X90484438Y-81635714D02*
X88484438Y-80969048D01*
X88484438Y-80969048D02*
X90484438Y-80302381D01*
X88484438Y-79921428D02*
X88484438Y-78778571D01*
X90484438Y-79350000D02*
X88484438Y-79350000D01*
X89913009Y-78207142D02*
X89913009Y-77254761D01*
X90484438Y-78397618D02*
X88484438Y-77730952D01*
X88484438Y-77730952D02*
X90484438Y-77064285D01*
D11*
X113038095Y-67714838D02*
X112942857Y-67667219D01*
X112942857Y-67667219D02*
X112800000Y-67667219D01*
X112800000Y-67667219D02*
X112657143Y-67714838D01*
X112657143Y-67714838D02*
X112561905Y-67810076D01*
X112561905Y-67810076D02*
X112514286Y-67905314D01*
X112514286Y-67905314D02*
X112466667Y-68095790D01*
X112466667Y-68095790D02*
X112466667Y-68238647D01*
X112466667Y-68238647D02*
X112514286Y-68429123D01*
X112514286Y-68429123D02*
X112561905Y-68524361D01*
X112561905Y-68524361D02*
X112657143Y-68619600D01*
X112657143Y-68619600D02*
X112800000Y-68667219D01*
X112800000Y-68667219D02*
X112895238Y-68667219D01*
X112895238Y-68667219D02*
X113038095Y-68619600D01*
X113038095Y-68619600D02*
X113085714Y-68571980D01*
X113085714Y-68571980D02*
X113085714Y-68238647D01*
X113085714Y-68238647D02*
X112895238Y-68238647D01*
X113514286Y-68667219D02*
X113514286Y-67667219D01*
X113514286Y-67667219D02*
X114085714Y-68667219D01*
X114085714Y-68667219D02*
X114085714Y-67667219D01*
X114561905Y-68667219D02*
X114561905Y-67667219D01*
X114561905Y-67667219D02*
X114800000Y-67667219D01*
X114800000Y-67667219D02*
X114942857Y-67714838D01*
X114942857Y-67714838D02*
X115038095Y-67810076D01*
X115038095Y-67810076D02*
X115085714Y-67905314D01*
X115085714Y-67905314D02*
X115133333Y-68095790D01*
X115133333Y-68095790D02*
X115133333Y-68238647D01*
X115133333Y-68238647D02*
X115085714Y-68429123D01*
X115085714Y-68429123D02*
X115038095Y-68524361D01*
X115038095Y-68524361D02*
X114942857Y-68619600D01*
X114942857Y-68619600D02*
X114800000Y-68667219D01*
X114800000Y-68667219D02*
X114561905Y-68667219D01*
X116304762Y-58067219D02*
X116304762Y-57067219D01*
X116304762Y-57067219D02*
X116638095Y-57781504D01*
X116638095Y-57781504D02*
X116971428Y-57067219D01*
X116971428Y-57067219D02*
X116971428Y-58067219D01*
X117400000Y-58019600D02*
X117542857Y-58067219D01*
X117542857Y-58067219D02*
X117780952Y-58067219D01*
X117780952Y-58067219D02*
X117876190Y-58019600D01*
X117876190Y-58019600D02*
X117923809Y-57971980D01*
X117923809Y-57971980D02*
X117971428Y-57876742D01*
X117971428Y-57876742D02*
X117971428Y-57781504D01*
X117971428Y-57781504D02*
X117923809Y-57686266D01*
X117923809Y-57686266D02*
X117876190Y-57638647D01*
X117876190Y-57638647D02*
X117780952Y-57591028D01*
X117780952Y-57591028D02*
X117590476Y-57543409D01*
X117590476Y-57543409D02*
X117495238Y-57495790D01*
X117495238Y-57495790D02*
X117447619Y-57448171D01*
X117447619Y-57448171D02*
X117400000Y-57352933D01*
X117400000Y-57352933D02*
X117400000Y-57257695D01*
X117400000Y-57257695D02*
X117447619Y-57162457D01*
X117447619Y-57162457D02*
X117495238Y-57114838D01*
X117495238Y-57114838D02*
X117590476Y-57067219D01*
X117590476Y-57067219D02*
X117828571Y-57067219D01*
X117828571Y-57067219D02*
X117971428Y-57114838D01*
X118733333Y-57543409D02*
X118876190Y-57591028D01*
X118876190Y-57591028D02*
X118923809Y-57638647D01*
X118923809Y-57638647D02*
X118971428Y-57733885D01*
X118971428Y-57733885D02*
X118971428Y-57876742D01*
X118971428Y-57876742D02*
X118923809Y-57971980D01*
X118923809Y-57971980D02*
X118876190Y-58019600D01*
X118876190Y-58019600D02*
X118780952Y-58067219D01*
X118780952Y-58067219D02*
X118400000Y-58067219D01*
X118400000Y-58067219D02*
X118400000Y-57067219D01*
X118400000Y-57067219D02*
X118733333Y-57067219D01*
X118733333Y-57067219D02*
X118828571Y-57114838D01*
X118828571Y-57114838D02*
X118876190Y-57162457D01*
X118876190Y-57162457D02*
X118923809Y-57257695D01*
X118923809Y-57257695D02*
X118923809Y-57352933D01*
X118923809Y-57352933D02*
X118876190Y-57448171D01*
X118876190Y-57448171D02*
X118828571Y-57495790D01*
X118828571Y-57495790D02*
X118733333Y-57543409D01*
X118733333Y-57543409D02*
X118400000Y-57543409D01*
X119400000Y-57686266D02*
X120161905Y-57686266D01*
X120638095Y-57686266D02*
X121400000Y-57686266D01*
X121876190Y-57686266D02*
X122638095Y-57686266D01*
X123828571Y-57781504D02*
X124304761Y-57781504D01*
X123733333Y-58067219D02*
X124066666Y-57067219D01*
X124066666Y-57067219D02*
X124399999Y-58067219D01*
X124733333Y-58067219D02*
X124733333Y-57067219D01*
X124733333Y-57067219D02*
X124971428Y-57067219D01*
X124971428Y-57067219D02*
X125114285Y-57114838D01*
X125114285Y-57114838D02*
X125209523Y-57210076D01*
X125209523Y-57210076D02*
X125257142Y-57305314D01*
X125257142Y-57305314D02*
X125304761Y-57495790D01*
X125304761Y-57495790D02*
X125304761Y-57638647D01*
X125304761Y-57638647D02*
X125257142Y-57829123D01*
X125257142Y-57829123D02*
X125209523Y-57924361D01*
X125209523Y-57924361D02*
X125114285Y-58019600D01*
X125114285Y-58019600D02*
X124971428Y-58067219D01*
X124971428Y-58067219D02*
X124733333Y-58067219D01*
X125733333Y-58067219D02*
X125733333Y-57067219D01*
X125733333Y-57067219D02*
X125971428Y-57067219D01*
X125971428Y-57067219D02*
X126114285Y-57114838D01*
X126114285Y-57114838D02*
X126209523Y-57210076D01*
X126209523Y-57210076D02*
X126257142Y-57305314D01*
X126257142Y-57305314D02*
X126304761Y-57495790D01*
X126304761Y-57495790D02*
X126304761Y-57638647D01*
X126304761Y-57638647D02*
X126257142Y-57829123D01*
X126257142Y-57829123D02*
X126209523Y-57924361D01*
X126209523Y-57924361D02*
X126114285Y-58019600D01*
X126114285Y-58019600D02*
X125971428Y-58067219D01*
X125971428Y-58067219D02*
X125733333Y-58067219D01*
X127304761Y-58067219D02*
X126971428Y-57591028D01*
X126733333Y-58067219D02*
X126733333Y-57067219D01*
X126733333Y-57067219D02*
X127114285Y-57067219D01*
X127114285Y-57067219D02*
X127209523Y-57114838D01*
X127209523Y-57114838D02*
X127257142Y-57162457D01*
X127257142Y-57162457D02*
X127304761Y-57257695D01*
X127304761Y-57257695D02*
X127304761Y-57400552D01*
X127304761Y-57400552D02*
X127257142Y-57495790D01*
X127257142Y-57495790D02*
X127209523Y-57543409D01*
X127209523Y-57543409D02*
X127114285Y-57591028D01*
X127114285Y-57591028D02*
X126733333Y-57591028D01*
X128495238Y-57686266D02*
X129257143Y-57686266D01*
X129733333Y-57686266D02*
X130495238Y-57686266D01*
X130971428Y-57686266D02*
X131733333Y-57686266D01*
X132685713Y-58067219D02*
X132209523Y-58067219D01*
X132209523Y-58067219D02*
X132209523Y-57067219D01*
X132971428Y-58019600D02*
X133114285Y-58067219D01*
X133114285Y-58067219D02*
X133352380Y-58067219D01*
X133352380Y-58067219D02*
X133447618Y-58019600D01*
X133447618Y-58019600D02*
X133495237Y-57971980D01*
X133495237Y-57971980D02*
X133542856Y-57876742D01*
X133542856Y-57876742D02*
X133542856Y-57781504D01*
X133542856Y-57781504D02*
X133495237Y-57686266D01*
X133495237Y-57686266D02*
X133447618Y-57638647D01*
X133447618Y-57638647D02*
X133352380Y-57591028D01*
X133352380Y-57591028D02*
X133161904Y-57543409D01*
X133161904Y-57543409D02*
X133066666Y-57495790D01*
X133066666Y-57495790D02*
X133019047Y-57448171D01*
X133019047Y-57448171D02*
X132971428Y-57352933D01*
X132971428Y-57352933D02*
X132971428Y-57257695D01*
X132971428Y-57257695D02*
X133019047Y-57162457D01*
X133019047Y-57162457D02*
X133066666Y-57114838D01*
X133066666Y-57114838D02*
X133161904Y-57067219D01*
X133161904Y-57067219D02*
X133399999Y-57067219D01*
X133399999Y-57067219D02*
X133542856Y-57114838D01*
X134304761Y-57543409D02*
X134447618Y-57591028D01*
X134447618Y-57591028D02*
X134495237Y-57638647D01*
X134495237Y-57638647D02*
X134542856Y-57733885D01*
X134542856Y-57733885D02*
X134542856Y-57876742D01*
X134542856Y-57876742D02*
X134495237Y-57971980D01*
X134495237Y-57971980D02*
X134447618Y-58019600D01*
X134447618Y-58019600D02*
X134352380Y-58067219D01*
X134352380Y-58067219D02*
X133971428Y-58067219D01*
X133971428Y-58067219D02*
X133971428Y-57067219D01*
X133971428Y-57067219D02*
X134304761Y-57067219D01*
X134304761Y-57067219D02*
X134399999Y-57114838D01*
X134399999Y-57114838D02*
X134447618Y-57162457D01*
X134447618Y-57162457D02*
X134495237Y-57257695D01*
X134495237Y-57257695D02*
X134495237Y-57352933D01*
X134495237Y-57352933D02*
X134447618Y-57448171D01*
X134447618Y-57448171D02*
X134399999Y-57495790D01*
X134399999Y-57495790D02*
X134304761Y-57543409D01*
X134304761Y-57543409D02*
X133971428Y-57543409D01*
D13*
X88461154Y-93336095D02*
X88461154Y-88336095D01*
X88461154Y-88336095D02*
X90365916Y-88336095D01*
X90365916Y-88336095D02*
X90842106Y-88574190D01*
X90842106Y-88574190D02*
X91080201Y-88812285D01*
X91080201Y-88812285D02*
X91318297Y-89288476D01*
X91318297Y-89288476D02*
X91318297Y-90002761D01*
X91318297Y-90002761D02*
X91080201Y-90478952D01*
X91080201Y-90478952D02*
X90842106Y-90717047D01*
X90842106Y-90717047D02*
X90365916Y-90955142D01*
X90365916Y-90955142D02*
X88461154Y-90955142D01*
X96318297Y-93336095D02*
X94651630Y-90955142D01*
X93461154Y-93336095D02*
X93461154Y-88336095D01*
X93461154Y-88336095D02*
X95365916Y-88336095D01*
X95365916Y-88336095D02*
X95842106Y-88574190D01*
X95842106Y-88574190D02*
X96080201Y-88812285D01*
X96080201Y-88812285D02*
X96318297Y-89288476D01*
X96318297Y-89288476D02*
X96318297Y-90002761D01*
X96318297Y-90002761D02*
X96080201Y-90478952D01*
X96080201Y-90478952D02*
X95842106Y-90717047D01*
X95842106Y-90717047D02*
X95365916Y-90955142D01*
X95365916Y-90955142D02*
X93461154Y-90955142D01*
X99413535Y-88336095D02*
X100365916Y-88336095D01*
X100365916Y-88336095D02*
X100842106Y-88574190D01*
X100842106Y-88574190D02*
X101318297Y-89050380D01*
X101318297Y-89050380D02*
X101556392Y-90002761D01*
X101556392Y-90002761D02*
X101556392Y-91669428D01*
X101556392Y-91669428D02*
X101318297Y-92621809D01*
X101318297Y-92621809D02*
X100842106Y-93098000D01*
X100842106Y-93098000D02*
X100365916Y-93336095D01*
X100365916Y-93336095D02*
X99413535Y-93336095D01*
X99413535Y-93336095D02*
X98937344Y-93098000D01*
X98937344Y-93098000D02*
X98461154Y-92621809D01*
X98461154Y-92621809D02*
X98223058Y-91669428D01*
X98223058Y-91669428D02*
X98223058Y-90002761D01*
X98223058Y-90002761D02*
X98461154Y-89050380D01*
X98461154Y-89050380D02*
X98937344Y-88574190D01*
X98937344Y-88574190D02*
X99413535Y-88336095D01*
X106318296Y-88574190D02*
X105842106Y-88336095D01*
X105842106Y-88336095D02*
X105127820Y-88336095D01*
X105127820Y-88336095D02*
X104413534Y-88574190D01*
X104413534Y-88574190D02*
X103937344Y-89050380D01*
X103937344Y-89050380D02*
X103699249Y-89526571D01*
X103699249Y-89526571D02*
X103461153Y-90478952D01*
X103461153Y-90478952D02*
X103461153Y-91193238D01*
X103461153Y-91193238D02*
X103699249Y-92145619D01*
X103699249Y-92145619D02*
X103937344Y-92621809D01*
X103937344Y-92621809D02*
X104413534Y-93098000D01*
X104413534Y-93098000D02*
X105127820Y-93336095D01*
X105127820Y-93336095D02*
X105604011Y-93336095D01*
X105604011Y-93336095D02*
X106318296Y-93098000D01*
X106318296Y-93098000D02*
X106556392Y-92859904D01*
X106556392Y-92859904D02*
X106556392Y-91193238D01*
X106556392Y-91193238D02*
X105604011Y-91193238D01*
X111556392Y-93336095D02*
X109889725Y-90955142D01*
X108699249Y-93336095D02*
X108699249Y-88336095D01*
X108699249Y-88336095D02*
X110604011Y-88336095D01*
X110604011Y-88336095D02*
X111080201Y-88574190D01*
X111080201Y-88574190D02*
X111318296Y-88812285D01*
X111318296Y-88812285D02*
X111556392Y-89288476D01*
X111556392Y-89288476D02*
X111556392Y-90002761D01*
X111556392Y-90002761D02*
X111318296Y-90478952D01*
X111318296Y-90478952D02*
X111080201Y-90717047D01*
X111080201Y-90717047D02*
X110604011Y-90955142D01*
X110604011Y-90955142D02*
X108699249Y-90955142D01*
X113461153Y-91907523D02*
X115842106Y-91907523D01*
X112984963Y-93336095D02*
X114651630Y-88336095D01*
X114651630Y-88336095D02*
X116318296Y-93336095D01*
X117984963Y-93336095D02*
X117984963Y-88336095D01*
X117984963Y-88336095D02*
X119651629Y-91907523D01*
X119651629Y-91907523D02*
X121318296Y-88336095D01*
X121318296Y-88336095D02*
X121318296Y-93336095D01*
X123699249Y-93336095D02*
X123699249Y-88336095D01*
X123699249Y-88336095D02*
X125365915Y-91907523D01*
X125365915Y-91907523D02*
X127032582Y-88336095D01*
X127032582Y-88336095D02*
X127032582Y-93336095D01*
X129413535Y-93336095D02*
X129413535Y-88336095D01*
X131794487Y-93336095D02*
X131794487Y-88336095D01*
X131794487Y-88336095D02*
X134651630Y-93336095D01*
X134651630Y-93336095D02*
X134651630Y-88336095D01*
X139651629Y-88574190D02*
X139175439Y-88336095D01*
X139175439Y-88336095D02*
X138461153Y-88336095D01*
X138461153Y-88336095D02*
X137746867Y-88574190D01*
X137746867Y-88574190D02*
X137270677Y-89050380D01*
X137270677Y-89050380D02*
X137032582Y-89526571D01*
X137032582Y-89526571D02*
X136794486Y-90478952D01*
X136794486Y-90478952D02*
X136794486Y-91193238D01*
X136794486Y-91193238D02*
X137032582Y-92145619D01*
X137032582Y-92145619D02*
X137270677Y-92621809D01*
X137270677Y-92621809D02*
X137746867Y-93098000D01*
X137746867Y-93098000D02*
X138461153Y-93336095D01*
X138461153Y-93336095D02*
X138937344Y-93336095D01*
X138937344Y-93336095D02*
X139651629Y-93098000D01*
X139651629Y-93098000D02*
X139889725Y-92859904D01*
X139889725Y-92859904D02*
X139889725Y-91193238D01*
X139889725Y-91193238D02*
X138937344Y-91193238D01*
D11*
X91119673Y-54367219D02*
X91119673Y-53367219D01*
X91119673Y-53367219D02*
X91500625Y-53367219D01*
X91500625Y-53367219D02*
X91595863Y-53414838D01*
X91595863Y-53414838D02*
X91643482Y-53462457D01*
X91643482Y-53462457D02*
X91691101Y-53557695D01*
X91691101Y-53557695D02*
X91691101Y-53700552D01*
X91691101Y-53700552D02*
X91643482Y-53795790D01*
X91643482Y-53795790D02*
X91595863Y-53843409D01*
X91595863Y-53843409D02*
X91500625Y-53891028D01*
X91500625Y-53891028D02*
X91119673Y-53891028D01*
X92691101Y-54367219D02*
X92357768Y-53891028D01*
X92119673Y-54367219D02*
X92119673Y-53367219D01*
X92119673Y-53367219D02*
X92500625Y-53367219D01*
X92500625Y-53367219D02*
X92595863Y-53414838D01*
X92595863Y-53414838D02*
X92643482Y-53462457D01*
X92643482Y-53462457D02*
X92691101Y-53557695D01*
X92691101Y-53557695D02*
X92691101Y-53700552D01*
X92691101Y-53700552D02*
X92643482Y-53795790D01*
X92643482Y-53795790D02*
X92595863Y-53843409D01*
X92595863Y-53843409D02*
X92500625Y-53891028D01*
X92500625Y-53891028D02*
X92119673Y-53891028D01*
X93310149Y-53367219D02*
X93500625Y-53367219D01*
X93500625Y-53367219D02*
X93595863Y-53414838D01*
X93595863Y-53414838D02*
X93691101Y-53510076D01*
X93691101Y-53510076D02*
X93738720Y-53700552D01*
X93738720Y-53700552D02*
X93738720Y-54033885D01*
X93738720Y-54033885D02*
X93691101Y-54224361D01*
X93691101Y-54224361D02*
X93595863Y-54319600D01*
X93595863Y-54319600D02*
X93500625Y-54367219D01*
X93500625Y-54367219D02*
X93310149Y-54367219D01*
X93310149Y-54367219D02*
X93214911Y-54319600D01*
X93214911Y-54319600D02*
X93119673Y-54224361D01*
X93119673Y-54224361D02*
X93072054Y-54033885D01*
X93072054Y-54033885D02*
X93072054Y-53700552D01*
X93072054Y-53700552D02*
X93119673Y-53510076D01*
X93119673Y-53510076D02*
X93214911Y-53414838D01*
X93214911Y-53414838D02*
X93310149Y-53367219D01*
X94691101Y-53414838D02*
X94595863Y-53367219D01*
X94595863Y-53367219D02*
X94453006Y-53367219D01*
X94453006Y-53367219D02*
X94310149Y-53414838D01*
X94310149Y-53414838D02*
X94214911Y-53510076D01*
X94214911Y-53510076D02*
X94167292Y-53605314D01*
X94167292Y-53605314D02*
X94119673Y-53795790D01*
X94119673Y-53795790D02*
X94119673Y-53938647D01*
X94119673Y-53938647D02*
X94167292Y-54129123D01*
X94167292Y-54129123D02*
X94214911Y-54224361D01*
X94214911Y-54224361D02*
X94310149Y-54319600D01*
X94310149Y-54319600D02*
X94453006Y-54367219D01*
X94453006Y-54367219D02*
X94548244Y-54367219D01*
X94548244Y-54367219D02*
X94691101Y-54319600D01*
X94691101Y-54319600D02*
X94738720Y-54271980D01*
X94738720Y-54271980D02*
X94738720Y-53938647D01*
X94738720Y-53938647D02*
X94548244Y-53938647D01*
X95881578Y-54081504D02*
X96357768Y-54081504D01*
X95786340Y-54367219D02*
X96119673Y-53367219D01*
X96119673Y-53367219D02*
X96453006Y-54367219D01*
X96786340Y-54367219D02*
X96786340Y-53367219D01*
X96786340Y-53367219D02*
X97024435Y-53367219D01*
X97024435Y-53367219D02*
X97167292Y-53414838D01*
X97167292Y-53414838D02*
X97262530Y-53510076D01*
X97262530Y-53510076D02*
X97310149Y-53605314D01*
X97310149Y-53605314D02*
X97357768Y-53795790D01*
X97357768Y-53795790D02*
X97357768Y-53938647D01*
X97357768Y-53938647D02*
X97310149Y-54129123D01*
X97310149Y-54129123D02*
X97262530Y-54224361D01*
X97262530Y-54224361D02*
X97167292Y-54319600D01*
X97167292Y-54319600D02*
X97024435Y-54367219D01*
X97024435Y-54367219D02*
X96786340Y-54367219D01*
X97786340Y-54367219D02*
X97786340Y-53367219D01*
X97786340Y-53367219D02*
X98024435Y-53367219D01*
X98024435Y-53367219D02*
X98167292Y-53414838D01*
X98167292Y-53414838D02*
X98262530Y-53510076D01*
X98262530Y-53510076D02*
X98310149Y-53605314D01*
X98310149Y-53605314D02*
X98357768Y-53795790D01*
X98357768Y-53795790D02*
X98357768Y-53938647D01*
X98357768Y-53938647D02*
X98310149Y-54129123D01*
X98310149Y-54129123D02*
X98262530Y-54224361D01*
X98262530Y-54224361D02*
X98167292Y-54319600D01*
X98167292Y-54319600D02*
X98024435Y-54367219D01*
X98024435Y-54367219D02*
X97786340Y-54367219D01*
X99357768Y-54367219D02*
X99024435Y-53891028D01*
X98786340Y-54367219D02*
X98786340Y-53367219D01*
X98786340Y-53367219D02*
X99167292Y-53367219D01*
X99167292Y-53367219D02*
X99262530Y-53414838D01*
X99262530Y-53414838D02*
X99310149Y-53462457D01*
X99310149Y-53462457D02*
X99357768Y-53557695D01*
X99357768Y-53557695D02*
X99357768Y-53700552D01*
X99357768Y-53700552D02*
X99310149Y-53795790D01*
X99310149Y-53795790D02*
X99262530Y-53843409D01*
X99262530Y-53843409D02*
X99167292Y-53891028D01*
X99167292Y-53891028D02*
X98786340Y-53891028D01*
X112804762Y-73767219D02*
X113042857Y-74767219D01*
X113042857Y-74767219D02*
X113233333Y-74052933D01*
X113233333Y-74052933D02*
X113423809Y-74767219D01*
X113423809Y-74767219D02*
X113661905Y-73767219D01*
X114042857Y-74767219D02*
X114042857Y-74100552D01*
X114042857Y-74291028D02*
X114090476Y-74195790D01*
X114090476Y-74195790D02*
X114138095Y-74148171D01*
X114138095Y-74148171D02*
X114233333Y-74100552D01*
X114233333Y-74100552D02*
X114328571Y-74100552D01*
X114661905Y-74767219D02*
X114661905Y-74100552D01*
X114661905Y-73767219D02*
X114614286Y-73814838D01*
X114614286Y-73814838D02*
X114661905Y-73862457D01*
X114661905Y-73862457D02*
X114709524Y-73814838D01*
X114709524Y-73814838D02*
X114661905Y-73767219D01*
X114661905Y-73767219D02*
X114661905Y-73862457D01*
X114995238Y-74100552D02*
X115376190Y-74100552D01*
X115138095Y-73767219D02*
X115138095Y-74624361D01*
X115138095Y-74624361D02*
X115185714Y-74719600D01*
X115185714Y-74719600D02*
X115280952Y-74767219D01*
X115280952Y-74767219D02*
X115376190Y-74767219D01*
X116090476Y-74719600D02*
X115995238Y-74767219D01*
X115995238Y-74767219D02*
X115804762Y-74767219D01*
X115804762Y-74767219D02*
X115709524Y-74719600D01*
X115709524Y-74719600D02*
X115661905Y-74624361D01*
X115661905Y-74624361D02*
X115661905Y-74243409D01*
X115661905Y-74243409D02*
X115709524Y-74148171D01*
X115709524Y-74148171D02*
X115804762Y-74100552D01*
X115804762Y-74100552D02*
X115995238Y-74100552D01*
X115995238Y-74100552D02*
X116090476Y-74148171D01*
X116090476Y-74148171D02*
X116138095Y-74243409D01*
X116138095Y-74243409D02*
X116138095Y-74338647D01*
X116138095Y-74338647D02*
X115661905Y-74433885D01*
X117328572Y-74767219D02*
X117328572Y-73767219D01*
X117328572Y-73767219D02*
X117709524Y-73767219D01*
X117709524Y-73767219D02*
X117804762Y-73814838D01*
X117804762Y-73814838D02*
X117852381Y-73862457D01*
X117852381Y-73862457D02*
X117900000Y-73957695D01*
X117900000Y-73957695D02*
X117900000Y-74100552D01*
X117900000Y-74100552D02*
X117852381Y-74195790D01*
X117852381Y-74195790D02*
X117804762Y-74243409D01*
X117804762Y-74243409D02*
X117709524Y-74291028D01*
X117709524Y-74291028D02*
X117328572Y-74291028D01*
X118900000Y-74767219D02*
X118566667Y-74291028D01*
X118328572Y-74767219D02*
X118328572Y-73767219D01*
X118328572Y-73767219D02*
X118709524Y-73767219D01*
X118709524Y-73767219D02*
X118804762Y-73814838D01*
X118804762Y-73814838D02*
X118852381Y-73862457D01*
X118852381Y-73862457D02*
X118900000Y-73957695D01*
X118900000Y-73957695D02*
X118900000Y-74100552D01*
X118900000Y-74100552D02*
X118852381Y-74195790D01*
X118852381Y-74195790D02*
X118804762Y-74243409D01*
X118804762Y-74243409D02*
X118709524Y-74291028D01*
X118709524Y-74291028D02*
X118328572Y-74291028D01*
X119519048Y-73767219D02*
X119709524Y-73767219D01*
X119709524Y-73767219D02*
X119804762Y-73814838D01*
X119804762Y-73814838D02*
X119900000Y-73910076D01*
X119900000Y-73910076D02*
X119947619Y-74100552D01*
X119947619Y-74100552D02*
X119947619Y-74433885D01*
X119947619Y-74433885D02*
X119900000Y-74624361D01*
X119900000Y-74624361D02*
X119804762Y-74719600D01*
X119804762Y-74719600D02*
X119709524Y-74767219D01*
X119709524Y-74767219D02*
X119519048Y-74767219D01*
X119519048Y-74767219D02*
X119423810Y-74719600D01*
X119423810Y-74719600D02*
X119328572Y-74624361D01*
X119328572Y-74624361D02*
X119280953Y-74433885D01*
X119280953Y-74433885D02*
X119280953Y-74100552D01*
X119280953Y-74100552D02*
X119328572Y-73910076D01*
X119328572Y-73910076D02*
X119423810Y-73814838D01*
X119423810Y-73814838D02*
X119519048Y-73767219D01*
X120900000Y-73814838D02*
X120804762Y-73767219D01*
X120804762Y-73767219D02*
X120661905Y-73767219D01*
X120661905Y-73767219D02*
X120519048Y-73814838D01*
X120519048Y-73814838D02*
X120423810Y-73910076D01*
X120423810Y-73910076D02*
X120376191Y-74005314D01*
X120376191Y-74005314D02*
X120328572Y-74195790D01*
X120328572Y-74195790D02*
X120328572Y-74338647D01*
X120328572Y-74338647D02*
X120376191Y-74529123D01*
X120376191Y-74529123D02*
X120423810Y-74624361D01*
X120423810Y-74624361D02*
X120519048Y-74719600D01*
X120519048Y-74719600D02*
X120661905Y-74767219D01*
X120661905Y-74767219D02*
X120757143Y-74767219D01*
X120757143Y-74767219D02*
X120900000Y-74719600D01*
X120900000Y-74719600D02*
X120947619Y-74671980D01*
X120947619Y-74671980D02*
X120947619Y-74338647D01*
X120947619Y-74338647D02*
X120757143Y-74338647D01*
X116395238Y-68667219D02*
X116395238Y-67667219D01*
X116395238Y-67667219D02*
X116728571Y-68381504D01*
X116728571Y-68381504D02*
X117061904Y-67667219D01*
X117061904Y-67667219D02*
X117061904Y-68667219D01*
X117490476Y-68619600D02*
X117633333Y-68667219D01*
X117633333Y-68667219D02*
X117871428Y-68667219D01*
X117871428Y-68667219D02*
X117966666Y-68619600D01*
X117966666Y-68619600D02*
X118014285Y-68571980D01*
X118014285Y-68571980D02*
X118061904Y-68476742D01*
X118061904Y-68476742D02*
X118061904Y-68381504D01*
X118061904Y-68381504D02*
X118014285Y-68286266D01*
X118014285Y-68286266D02*
X117966666Y-68238647D01*
X117966666Y-68238647D02*
X117871428Y-68191028D01*
X117871428Y-68191028D02*
X117680952Y-68143409D01*
X117680952Y-68143409D02*
X117585714Y-68095790D01*
X117585714Y-68095790D02*
X117538095Y-68048171D01*
X117538095Y-68048171D02*
X117490476Y-67952933D01*
X117490476Y-67952933D02*
X117490476Y-67857695D01*
X117490476Y-67857695D02*
X117538095Y-67762457D01*
X117538095Y-67762457D02*
X117585714Y-67714838D01*
X117585714Y-67714838D02*
X117680952Y-67667219D01*
X117680952Y-67667219D02*
X117919047Y-67667219D01*
X117919047Y-67667219D02*
X118061904Y-67714838D01*
X118823809Y-68143409D02*
X118966666Y-68191028D01*
X118966666Y-68191028D02*
X119014285Y-68238647D01*
X119014285Y-68238647D02*
X119061904Y-68333885D01*
X119061904Y-68333885D02*
X119061904Y-68476742D01*
X119061904Y-68476742D02*
X119014285Y-68571980D01*
X119014285Y-68571980D02*
X118966666Y-68619600D01*
X118966666Y-68619600D02*
X118871428Y-68667219D01*
X118871428Y-68667219D02*
X118490476Y-68667219D01*
X118490476Y-68667219D02*
X118490476Y-67667219D01*
X118490476Y-67667219D02*
X118823809Y-67667219D01*
X118823809Y-67667219D02*
X118919047Y-67714838D01*
X118919047Y-67714838D02*
X118966666Y-67762457D01*
X118966666Y-67762457D02*
X119014285Y-67857695D01*
X119014285Y-67857695D02*
X119014285Y-67952933D01*
X119014285Y-67952933D02*
X118966666Y-68048171D01*
X118966666Y-68048171D02*
X118919047Y-68095790D01*
X118919047Y-68095790D02*
X118823809Y-68143409D01*
X118823809Y-68143409D02*
X118490476Y-68143409D01*
X119490476Y-68286266D02*
X120252381Y-68286266D01*
X120728571Y-68286266D02*
X121490476Y-68286266D01*
X121966666Y-68286266D02*
X122728571Y-68286266D01*
X123966666Y-68667219D02*
X123966666Y-67667219D01*
X123966666Y-67667219D02*
X124204761Y-67667219D01*
X124204761Y-67667219D02*
X124347618Y-67714838D01*
X124347618Y-67714838D02*
X124442856Y-67810076D01*
X124442856Y-67810076D02*
X124490475Y-67905314D01*
X124490475Y-67905314D02*
X124538094Y-68095790D01*
X124538094Y-68095790D02*
X124538094Y-68238647D01*
X124538094Y-68238647D02*
X124490475Y-68429123D01*
X124490475Y-68429123D02*
X124442856Y-68524361D01*
X124442856Y-68524361D02*
X124347618Y-68619600D01*
X124347618Y-68619600D02*
X124204761Y-68667219D01*
X124204761Y-68667219D02*
X123966666Y-68667219D01*
X124919047Y-68381504D02*
X125395237Y-68381504D01*
X124823809Y-68667219D02*
X125157142Y-67667219D01*
X125157142Y-67667219D02*
X125490475Y-68667219D01*
X125680952Y-67667219D02*
X126252380Y-67667219D01*
X125966666Y-68667219D02*
X125966666Y-67667219D01*
X126538095Y-68381504D02*
X127014285Y-68381504D01*
X126442857Y-68667219D02*
X126776190Y-67667219D01*
X126776190Y-67667219D02*
X127109523Y-68667219D01*
X128204762Y-68286266D02*
X128966667Y-68286266D01*
X129442857Y-68286266D02*
X130204762Y-68286266D01*
X130680952Y-68286266D02*
X131442857Y-68286266D01*
X132395237Y-68667219D02*
X131919047Y-68667219D01*
X131919047Y-68667219D02*
X131919047Y-67667219D01*
X132680952Y-68619600D02*
X132823809Y-68667219D01*
X132823809Y-68667219D02*
X133061904Y-68667219D01*
X133061904Y-68667219D02*
X133157142Y-68619600D01*
X133157142Y-68619600D02*
X133204761Y-68571980D01*
X133204761Y-68571980D02*
X133252380Y-68476742D01*
X133252380Y-68476742D02*
X133252380Y-68381504D01*
X133252380Y-68381504D02*
X133204761Y-68286266D01*
X133204761Y-68286266D02*
X133157142Y-68238647D01*
X133157142Y-68238647D02*
X133061904Y-68191028D01*
X133061904Y-68191028D02*
X132871428Y-68143409D01*
X132871428Y-68143409D02*
X132776190Y-68095790D01*
X132776190Y-68095790D02*
X132728571Y-68048171D01*
X132728571Y-68048171D02*
X132680952Y-67952933D01*
X132680952Y-67952933D02*
X132680952Y-67857695D01*
X132680952Y-67857695D02*
X132728571Y-67762457D01*
X132728571Y-67762457D02*
X132776190Y-67714838D01*
X132776190Y-67714838D02*
X132871428Y-67667219D01*
X132871428Y-67667219D02*
X133109523Y-67667219D01*
X133109523Y-67667219D02*
X133252380Y-67714838D01*
X134014285Y-68143409D02*
X134157142Y-68191028D01*
X134157142Y-68191028D02*
X134204761Y-68238647D01*
X134204761Y-68238647D02*
X134252380Y-68333885D01*
X134252380Y-68333885D02*
X134252380Y-68476742D01*
X134252380Y-68476742D02*
X134204761Y-68571980D01*
X134204761Y-68571980D02*
X134157142Y-68619600D01*
X134157142Y-68619600D02*
X134061904Y-68667219D01*
X134061904Y-68667219D02*
X133680952Y-68667219D01*
X133680952Y-68667219D02*
X133680952Y-67667219D01*
X133680952Y-67667219D02*
X134014285Y-67667219D01*
X134014285Y-67667219D02*
X134109523Y-67714838D01*
X134109523Y-67714838D02*
X134157142Y-67762457D01*
X134157142Y-67762457D02*
X134204761Y-67857695D01*
X134204761Y-67857695D02*
X134204761Y-67952933D01*
X134204761Y-67952933D02*
X134157142Y-68048171D01*
X134157142Y-68048171D02*
X134109523Y-68095790D01*
X134109523Y-68095790D02*
X134014285Y-68143409D01*
X134014285Y-68143409D02*
X133680952Y-68143409D01*
X113090476Y-84267219D02*
X113328571Y-85267219D01*
X113328571Y-85267219D02*
X113519047Y-84552933D01*
X113519047Y-84552933D02*
X113709523Y-85267219D01*
X113709523Y-85267219D02*
X113947619Y-84267219D01*
X114328571Y-85267219D02*
X114328571Y-84600552D01*
X114328571Y-84791028D02*
X114376190Y-84695790D01*
X114376190Y-84695790D02*
X114423809Y-84648171D01*
X114423809Y-84648171D02*
X114519047Y-84600552D01*
X114519047Y-84600552D02*
X114614285Y-84600552D01*
X114947619Y-85267219D02*
X114947619Y-84600552D01*
X114947619Y-84267219D02*
X114900000Y-84314838D01*
X114900000Y-84314838D02*
X114947619Y-84362457D01*
X114947619Y-84362457D02*
X114995238Y-84314838D01*
X114995238Y-84314838D02*
X114947619Y-84267219D01*
X114947619Y-84267219D02*
X114947619Y-84362457D01*
X115280952Y-84600552D02*
X115661904Y-84600552D01*
X115423809Y-84267219D02*
X115423809Y-85124361D01*
X115423809Y-85124361D02*
X115471428Y-85219600D01*
X115471428Y-85219600D02*
X115566666Y-85267219D01*
X115566666Y-85267219D02*
X115661904Y-85267219D01*
X116376190Y-85219600D02*
X116280952Y-85267219D01*
X116280952Y-85267219D02*
X116090476Y-85267219D01*
X116090476Y-85267219D02*
X115995238Y-85219600D01*
X115995238Y-85219600D02*
X115947619Y-85124361D01*
X115947619Y-85124361D02*
X115947619Y-84743409D01*
X115947619Y-84743409D02*
X115995238Y-84648171D01*
X115995238Y-84648171D02*
X116090476Y-84600552D01*
X116090476Y-84600552D02*
X116280952Y-84600552D01*
X116280952Y-84600552D02*
X116376190Y-84648171D01*
X116376190Y-84648171D02*
X116423809Y-84743409D01*
X116423809Y-84743409D02*
X116423809Y-84838647D01*
X116423809Y-84838647D02*
X115947619Y-84933885D01*
X117614286Y-85267219D02*
X117614286Y-84267219D01*
X117614286Y-84267219D02*
X117852381Y-84267219D01*
X117852381Y-84267219D02*
X117995238Y-84314838D01*
X117995238Y-84314838D02*
X118090476Y-84410076D01*
X118090476Y-84410076D02*
X118138095Y-84505314D01*
X118138095Y-84505314D02*
X118185714Y-84695790D01*
X118185714Y-84695790D02*
X118185714Y-84838647D01*
X118185714Y-84838647D02*
X118138095Y-85029123D01*
X118138095Y-85029123D02*
X118090476Y-85124361D01*
X118090476Y-85124361D02*
X117995238Y-85219600D01*
X117995238Y-85219600D02*
X117852381Y-85267219D01*
X117852381Y-85267219D02*
X117614286Y-85267219D01*
X118566667Y-84981504D02*
X119042857Y-84981504D01*
X118471429Y-85267219D02*
X118804762Y-84267219D01*
X118804762Y-84267219D02*
X119138095Y-85267219D01*
X119328572Y-84267219D02*
X119900000Y-84267219D01*
X119614286Y-85267219D02*
X119614286Y-84267219D01*
X120185715Y-84981504D02*
X120661905Y-84981504D01*
X120090477Y-85267219D02*
X120423810Y-84267219D01*
X120423810Y-84267219D02*
X120757143Y-85267219D01*
D12*
X90484438Y-73621428D02*
X88484438Y-73621428D01*
X88484438Y-73621428D02*
X88484438Y-72859523D01*
X88484438Y-72859523D02*
X88579676Y-72669047D01*
X88579676Y-72669047D02*
X88674914Y-72573809D01*
X88674914Y-72573809D02*
X88865390Y-72478571D01*
X88865390Y-72478571D02*
X89151104Y-72478571D01*
X89151104Y-72478571D02*
X89341580Y-72573809D01*
X89341580Y-72573809D02*
X89436819Y-72669047D01*
X89436819Y-72669047D02*
X89532057Y-72859523D01*
X89532057Y-72859523D02*
X89532057Y-73621428D01*
X90484438Y-70478571D02*
X89532057Y-71145238D01*
X90484438Y-71621428D02*
X88484438Y-71621428D01*
X88484438Y-71621428D02*
X88484438Y-70859523D01*
X88484438Y-70859523D02*
X88579676Y-70669047D01*
X88579676Y-70669047D02*
X88674914Y-70573809D01*
X88674914Y-70573809D02*
X88865390Y-70478571D01*
X88865390Y-70478571D02*
X89151104Y-70478571D01*
X89151104Y-70478571D02*
X89341580Y-70573809D01*
X89341580Y-70573809D02*
X89436819Y-70669047D01*
X89436819Y-70669047D02*
X89532057Y-70859523D01*
X89532057Y-70859523D02*
X89532057Y-71621428D01*
X88484438Y-69240476D02*
X88484438Y-68859523D01*
X88484438Y-68859523D02*
X88579676Y-68669047D01*
X88579676Y-68669047D02*
X88770152Y-68478571D01*
X88770152Y-68478571D02*
X89151104Y-68383333D01*
X89151104Y-68383333D02*
X89817771Y-68383333D01*
X89817771Y-68383333D02*
X90198723Y-68478571D01*
X90198723Y-68478571D02*
X90389200Y-68669047D01*
X90389200Y-68669047D02*
X90484438Y-68859523D01*
X90484438Y-68859523D02*
X90484438Y-69240476D01*
X90484438Y-69240476D02*
X90389200Y-69430952D01*
X90389200Y-69430952D02*
X90198723Y-69621428D01*
X90198723Y-69621428D02*
X89817771Y-69716666D01*
X89817771Y-69716666D02*
X89151104Y-69716666D01*
X89151104Y-69716666D02*
X88770152Y-69621428D01*
X88770152Y-69621428D02*
X88579676Y-69430952D01*
X88579676Y-69430952D02*
X88484438Y-69240476D01*
X88579676Y-66478571D02*
X88484438Y-66669047D01*
X88484438Y-66669047D02*
X88484438Y-66954761D01*
X88484438Y-66954761D02*
X88579676Y-67240476D01*
X88579676Y-67240476D02*
X88770152Y-67430952D01*
X88770152Y-67430952D02*
X88960628Y-67526190D01*
X88960628Y-67526190D02*
X89341580Y-67621428D01*
X89341580Y-67621428D02*
X89627295Y-67621428D01*
X89627295Y-67621428D02*
X90008247Y-67526190D01*
X90008247Y-67526190D02*
X90198723Y-67430952D01*
X90198723Y-67430952D02*
X90389200Y-67240476D01*
X90389200Y-67240476D02*
X90484438Y-66954761D01*
X90484438Y-66954761D02*
X90484438Y-66764285D01*
X90484438Y-66764285D02*
X90389200Y-66478571D01*
X90389200Y-66478571D02*
X90293961Y-66383333D01*
X90293961Y-66383333D02*
X89627295Y-66383333D01*
X89627295Y-66383333D02*
X89627295Y-66764285D01*
D11*
X116209524Y-63367219D02*
X116209524Y-62367219D01*
X116209524Y-62367219D02*
X116542857Y-63081504D01*
X116542857Y-63081504D02*
X116876190Y-62367219D01*
X116876190Y-62367219D02*
X116876190Y-63367219D01*
X117304762Y-63319600D02*
X117447619Y-63367219D01*
X117447619Y-63367219D02*
X117685714Y-63367219D01*
X117685714Y-63367219D02*
X117780952Y-63319600D01*
X117780952Y-63319600D02*
X117828571Y-63271980D01*
X117828571Y-63271980D02*
X117876190Y-63176742D01*
X117876190Y-63176742D02*
X117876190Y-63081504D01*
X117876190Y-63081504D02*
X117828571Y-62986266D01*
X117828571Y-62986266D02*
X117780952Y-62938647D01*
X117780952Y-62938647D02*
X117685714Y-62891028D01*
X117685714Y-62891028D02*
X117495238Y-62843409D01*
X117495238Y-62843409D02*
X117400000Y-62795790D01*
X117400000Y-62795790D02*
X117352381Y-62748171D01*
X117352381Y-62748171D02*
X117304762Y-62652933D01*
X117304762Y-62652933D02*
X117304762Y-62557695D01*
X117304762Y-62557695D02*
X117352381Y-62462457D01*
X117352381Y-62462457D02*
X117400000Y-62414838D01*
X117400000Y-62414838D02*
X117495238Y-62367219D01*
X117495238Y-62367219D02*
X117733333Y-62367219D01*
X117733333Y-62367219D02*
X117876190Y-62414838D01*
X118638095Y-62843409D02*
X118780952Y-62891028D01*
X118780952Y-62891028D02*
X118828571Y-62938647D01*
X118828571Y-62938647D02*
X118876190Y-63033885D01*
X118876190Y-63033885D02*
X118876190Y-63176742D01*
X118876190Y-63176742D02*
X118828571Y-63271980D01*
X118828571Y-63271980D02*
X118780952Y-63319600D01*
X118780952Y-63319600D02*
X118685714Y-63367219D01*
X118685714Y-63367219D02*
X118304762Y-63367219D01*
X118304762Y-63367219D02*
X118304762Y-62367219D01*
X118304762Y-62367219D02*
X118638095Y-62367219D01*
X118638095Y-62367219D02*
X118733333Y-62414838D01*
X118733333Y-62414838D02*
X118780952Y-62462457D01*
X118780952Y-62462457D02*
X118828571Y-62557695D01*
X118828571Y-62557695D02*
X118828571Y-62652933D01*
X118828571Y-62652933D02*
X118780952Y-62748171D01*
X118780952Y-62748171D02*
X118733333Y-62795790D01*
X118733333Y-62795790D02*
X118638095Y-62843409D01*
X118638095Y-62843409D02*
X118304762Y-62843409D01*
X119304762Y-62986266D02*
X120066667Y-62986266D01*
X120542857Y-62986266D02*
X121304762Y-62986266D01*
X121780952Y-62986266D02*
X122542857Y-62986266D01*
X123780952Y-63367219D02*
X123780952Y-62367219D01*
X123780952Y-62367219D02*
X124161904Y-62367219D01*
X124161904Y-62367219D02*
X124257142Y-62414838D01*
X124257142Y-62414838D02*
X124304761Y-62462457D01*
X124304761Y-62462457D02*
X124352380Y-62557695D01*
X124352380Y-62557695D02*
X124352380Y-62700552D01*
X124352380Y-62700552D02*
X124304761Y-62795790D01*
X124304761Y-62795790D02*
X124257142Y-62843409D01*
X124257142Y-62843409D02*
X124161904Y-62891028D01*
X124161904Y-62891028D02*
X123780952Y-62891028D01*
X125352380Y-63367219D02*
X125019047Y-62891028D01*
X124780952Y-63367219D02*
X124780952Y-62367219D01*
X124780952Y-62367219D02*
X125161904Y-62367219D01*
X125161904Y-62367219D02*
X125257142Y-62414838D01*
X125257142Y-62414838D02*
X125304761Y-62462457D01*
X125304761Y-62462457D02*
X125352380Y-62557695D01*
X125352380Y-62557695D02*
X125352380Y-62700552D01*
X125352380Y-62700552D02*
X125304761Y-62795790D01*
X125304761Y-62795790D02*
X125257142Y-62843409D01*
X125257142Y-62843409D02*
X125161904Y-62891028D01*
X125161904Y-62891028D02*
X124780952Y-62891028D01*
X125971428Y-62367219D02*
X126161904Y-62367219D01*
X126161904Y-62367219D02*
X126257142Y-62414838D01*
X126257142Y-62414838D02*
X126352380Y-62510076D01*
X126352380Y-62510076D02*
X126399999Y-62700552D01*
X126399999Y-62700552D02*
X126399999Y-63033885D01*
X126399999Y-63033885D02*
X126352380Y-63224361D01*
X126352380Y-63224361D02*
X126257142Y-63319600D01*
X126257142Y-63319600D02*
X126161904Y-63367219D01*
X126161904Y-63367219D02*
X125971428Y-63367219D01*
X125971428Y-63367219D02*
X125876190Y-63319600D01*
X125876190Y-63319600D02*
X125780952Y-63224361D01*
X125780952Y-63224361D02*
X125733333Y-63033885D01*
X125733333Y-63033885D02*
X125733333Y-62700552D01*
X125733333Y-62700552D02*
X125780952Y-62510076D01*
X125780952Y-62510076D02*
X125876190Y-62414838D01*
X125876190Y-62414838D02*
X125971428Y-62367219D01*
X127352380Y-62414838D02*
X127257142Y-62367219D01*
X127257142Y-62367219D02*
X127114285Y-62367219D01*
X127114285Y-62367219D02*
X126971428Y-62414838D01*
X126971428Y-62414838D02*
X126876190Y-62510076D01*
X126876190Y-62510076D02*
X126828571Y-62605314D01*
X126828571Y-62605314D02*
X126780952Y-62795790D01*
X126780952Y-62795790D02*
X126780952Y-62938647D01*
X126780952Y-62938647D02*
X126828571Y-63129123D01*
X126828571Y-63129123D02*
X126876190Y-63224361D01*
X126876190Y-63224361D02*
X126971428Y-63319600D01*
X126971428Y-63319600D02*
X127114285Y-63367219D01*
X127114285Y-63367219D02*
X127209523Y-63367219D01*
X127209523Y-63367219D02*
X127352380Y-63319600D01*
X127352380Y-63319600D02*
X127399999Y-63271980D01*
X127399999Y-63271980D02*
X127399999Y-62938647D01*
X127399999Y-62938647D02*
X127209523Y-62938647D01*
X128590476Y-62986266D02*
X129352381Y-62986266D01*
X129828571Y-62986266D02*
X130590476Y-62986266D01*
X131066666Y-62986266D02*
X131828571Y-62986266D01*
X132780951Y-63367219D02*
X132304761Y-63367219D01*
X132304761Y-63367219D02*
X132304761Y-62367219D01*
X133066666Y-63319600D02*
X133209523Y-63367219D01*
X133209523Y-63367219D02*
X133447618Y-63367219D01*
X133447618Y-63367219D02*
X133542856Y-63319600D01*
X133542856Y-63319600D02*
X133590475Y-63271980D01*
X133590475Y-63271980D02*
X133638094Y-63176742D01*
X133638094Y-63176742D02*
X133638094Y-63081504D01*
X133638094Y-63081504D02*
X133590475Y-62986266D01*
X133590475Y-62986266D02*
X133542856Y-62938647D01*
X133542856Y-62938647D02*
X133447618Y-62891028D01*
X133447618Y-62891028D02*
X133257142Y-62843409D01*
X133257142Y-62843409D02*
X133161904Y-62795790D01*
X133161904Y-62795790D02*
X133114285Y-62748171D01*
X133114285Y-62748171D02*
X133066666Y-62652933D01*
X133066666Y-62652933D02*
X133066666Y-62557695D01*
X133066666Y-62557695D02*
X133114285Y-62462457D01*
X133114285Y-62462457D02*
X133161904Y-62414838D01*
X133161904Y-62414838D02*
X133257142Y-62367219D01*
X133257142Y-62367219D02*
X133495237Y-62367219D01*
X133495237Y-62367219D02*
X133638094Y-62414838D01*
X134399999Y-62843409D02*
X134542856Y-62891028D01*
X134542856Y-62891028D02*
X134590475Y-62938647D01*
X134590475Y-62938647D02*
X134638094Y-63033885D01*
X134638094Y-63033885D02*
X134638094Y-63176742D01*
X134638094Y-63176742D02*
X134590475Y-63271980D01*
X134590475Y-63271980D02*
X134542856Y-63319600D01*
X134542856Y-63319600D02*
X134447618Y-63367219D01*
X134447618Y-63367219D02*
X134066666Y-63367219D01*
X134066666Y-63367219D02*
X134066666Y-62367219D01*
X134066666Y-62367219D02*
X134399999Y-62367219D01*
X134399999Y-62367219D02*
X134495237Y-62414838D01*
X134495237Y-62414838D02*
X134542856Y-62462457D01*
X134542856Y-62462457D02*
X134590475Y-62557695D01*
X134590475Y-62557695D02*
X134590475Y-62652933D01*
X134590475Y-62652933D02*
X134542856Y-62748171D01*
X134542856Y-62748171D02*
X134495237Y-62795790D01*
X134495237Y-62795790D02*
X134399999Y-62843409D01*
X134399999Y-62843409D02*
X134066666Y-62843409D01*
X130382707Y-82799838D02*
X130287469Y-82752219D01*
X130287469Y-82752219D02*
X130144612Y-82752219D01*
X130144612Y-82752219D02*
X130001755Y-82799838D01*
X130001755Y-82799838D02*
X129906517Y-82895076D01*
X129906517Y-82895076D02*
X129858898Y-82990314D01*
X129858898Y-82990314D02*
X129811279Y-83180790D01*
X129811279Y-83180790D02*
X129811279Y-83323647D01*
X129811279Y-83323647D02*
X129858898Y-83514123D01*
X129858898Y-83514123D02*
X129906517Y-83609361D01*
X129906517Y-83609361D02*
X130001755Y-83704600D01*
X130001755Y-83704600D02*
X130144612Y-83752219D01*
X130144612Y-83752219D02*
X130239850Y-83752219D01*
X130239850Y-83752219D02*
X130382707Y-83704600D01*
X130382707Y-83704600D02*
X130430326Y-83656980D01*
X130430326Y-83656980D02*
X130430326Y-83323647D01*
X130430326Y-83323647D02*
X130239850Y-83323647D01*
X130858898Y-83752219D02*
X130858898Y-82752219D01*
X130858898Y-82752219D02*
X131430326Y-83752219D01*
X131430326Y-83752219D02*
X131430326Y-82752219D01*
X131906517Y-83752219D02*
X131906517Y-82752219D01*
X131906517Y-82752219D02*
X132144612Y-82752219D01*
X132144612Y-82752219D02*
X132287469Y-82799838D01*
X132287469Y-82799838D02*
X132382707Y-82895076D01*
X132382707Y-82895076D02*
X132430326Y-82990314D01*
X132430326Y-82990314D02*
X132477945Y-83180790D01*
X132477945Y-83180790D02*
X132477945Y-83323647D01*
X132477945Y-83323647D02*
X132430326Y-83514123D01*
X132430326Y-83514123D02*
X132382707Y-83609361D01*
X132382707Y-83609361D02*
X132287469Y-83704600D01*
X132287469Y-83704600D02*
X132144612Y-83752219D01*
X132144612Y-83752219D02*
X131906517Y-83752219D01*
D12*
X89913009Y-63101190D02*
X89913009Y-62148809D01*
X90484438Y-63291666D02*
X88484438Y-62625000D01*
X88484438Y-62625000D02*
X90484438Y-61958333D01*
X90484438Y-61291666D02*
X88484438Y-61291666D01*
X88484438Y-61291666D02*
X88484438Y-60815476D01*
X88484438Y-60815476D02*
X88579676Y-60529761D01*
X88579676Y-60529761D02*
X88770152Y-60339285D01*
X88770152Y-60339285D02*
X88960628Y-60244047D01*
X88960628Y-60244047D02*
X89341580Y-60148809D01*
X89341580Y-60148809D02*
X89627295Y-60148809D01*
X89627295Y-60148809D02*
X90008247Y-60244047D01*
X90008247Y-60244047D02*
X90198723Y-60339285D01*
X90198723Y-60339285D02*
X90389200Y-60529761D01*
X90389200Y-60529761D02*
X90484438Y-60815476D01*
X90484438Y-60815476D02*
X90484438Y-61291666D01*
X90484438Y-59291666D02*
X88484438Y-59291666D01*
X88484438Y-59291666D02*
X88484438Y-58815476D01*
X88484438Y-58815476D02*
X88579676Y-58529761D01*
X88579676Y-58529761D02*
X88770152Y-58339285D01*
X88770152Y-58339285D02*
X88960628Y-58244047D01*
X88960628Y-58244047D02*
X89341580Y-58148809D01*
X89341580Y-58148809D02*
X89627295Y-58148809D01*
X89627295Y-58148809D02*
X90008247Y-58244047D01*
X90008247Y-58244047D02*
X90198723Y-58339285D01*
X90198723Y-58339285D02*
X90389200Y-58529761D01*
X90389200Y-58529761D02*
X90484438Y-58815476D01*
X90484438Y-58815476D02*
X90484438Y-59291666D01*
X90484438Y-56148809D02*
X89532057Y-56815476D01*
X90484438Y-57291666D02*
X88484438Y-57291666D01*
X88484438Y-57291666D02*
X88484438Y-56529761D01*
X88484438Y-56529761D02*
X88579676Y-56339285D01*
X88579676Y-56339285D02*
X88674914Y-56244047D01*
X88674914Y-56244047D02*
X88865390Y-56148809D01*
X88865390Y-56148809D02*
X89151104Y-56148809D01*
X89151104Y-56148809D02*
X89341580Y-56244047D01*
X89341580Y-56244047D02*
X89436819Y-56339285D01*
X89436819Y-56339285D02*
X89532057Y-56529761D01*
X89532057Y-56529761D02*
X89532057Y-57291666D01*
D11*
X130668422Y-72152219D02*
X130906517Y-73152219D01*
X130906517Y-73152219D02*
X131096993Y-72437933D01*
X131096993Y-72437933D02*
X131287469Y-73152219D01*
X131287469Y-73152219D02*
X131525565Y-72152219D01*
X131906517Y-73152219D02*
X131906517Y-72152219D01*
X131906517Y-72152219D02*
X132144612Y-72152219D01*
X132144612Y-72152219D02*
X132287469Y-72199838D01*
X132287469Y-72199838D02*
X132382707Y-72295076D01*
X132382707Y-72295076D02*
X132430326Y-72390314D01*
X132430326Y-72390314D02*
X132477945Y-72580790D01*
X132477945Y-72580790D02*
X132477945Y-72723647D01*
X132477945Y-72723647D02*
X132430326Y-72914123D01*
X132430326Y-72914123D02*
X132382707Y-73009361D01*
X132382707Y-73009361D02*
X132287469Y-73104600D01*
X132287469Y-73104600D02*
X132144612Y-73152219D01*
X132144612Y-73152219D02*
X131906517Y-73152219D01*
X113138095Y-57114838D02*
X113042857Y-57067219D01*
X113042857Y-57067219D02*
X112900000Y-57067219D01*
X112900000Y-57067219D02*
X112757143Y-57114838D01*
X112757143Y-57114838D02*
X112661905Y-57210076D01*
X112661905Y-57210076D02*
X112614286Y-57305314D01*
X112614286Y-57305314D02*
X112566667Y-57495790D01*
X112566667Y-57495790D02*
X112566667Y-57638647D01*
X112566667Y-57638647D02*
X112614286Y-57829123D01*
X112614286Y-57829123D02*
X112661905Y-57924361D01*
X112661905Y-57924361D02*
X112757143Y-58019600D01*
X112757143Y-58019600D02*
X112900000Y-58067219D01*
X112900000Y-58067219D02*
X112995238Y-58067219D01*
X112995238Y-58067219D02*
X113138095Y-58019600D01*
X113138095Y-58019600D02*
X113185714Y-57971980D01*
X113185714Y-57971980D02*
X113185714Y-57638647D01*
X113185714Y-57638647D02*
X112995238Y-57638647D01*
X113614286Y-58067219D02*
X113614286Y-57067219D01*
X113614286Y-57067219D02*
X114185714Y-58067219D01*
X114185714Y-58067219D02*
X114185714Y-57067219D01*
X114661905Y-58067219D02*
X114661905Y-57067219D01*
X114661905Y-57067219D02*
X114900000Y-57067219D01*
X114900000Y-57067219D02*
X115042857Y-57114838D01*
X115042857Y-57114838D02*
X115138095Y-57210076D01*
X115138095Y-57210076D02*
X115185714Y-57305314D01*
X115185714Y-57305314D02*
X115233333Y-57495790D01*
X115233333Y-57495790D02*
X115233333Y-57638647D01*
X115233333Y-57638647D02*
X115185714Y-57829123D01*
X115185714Y-57829123D02*
X115138095Y-57924361D01*
X115138095Y-57924361D02*
X115042857Y-58019600D01*
X115042857Y-58019600D02*
X114900000Y-58067219D01*
X114900000Y-58067219D02*
X114661905Y-58067219D01*
X130678422Y-69657219D02*
X130916517Y-70657219D01*
X130916517Y-70657219D02*
X131106993Y-69942933D01*
X131106993Y-69942933D02*
X131297469Y-70657219D01*
X131297469Y-70657219D02*
X131535565Y-69657219D01*
X131916517Y-70657219D02*
X131916517Y-69657219D01*
X131916517Y-69657219D02*
X132297469Y-69657219D01*
X132297469Y-69657219D02*
X132392707Y-69704838D01*
X132392707Y-69704838D02*
X132440326Y-69752457D01*
X132440326Y-69752457D02*
X132487945Y-69847695D01*
X132487945Y-69847695D02*
X132487945Y-69990552D01*
X132487945Y-69990552D02*
X132440326Y-70085790D01*
X132440326Y-70085790D02*
X132392707Y-70133409D01*
X132392707Y-70133409D02*
X132297469Y-70181028D01*
X132297469Y-70181028D02*
X131916517Y-70181028D01*
D14*
%TO.C,220\u03A9B4*%
X89403641Y-64215710D02*
X89096359Y-64215710D01*
X89403641Y-63455710D02*
X89096359Y-63455710D01*
%TO.C,220\u03A9B3*%
X89403641Y-63024890D02*
X89096359Y-63024890D01*
X89403641Y-62264890D02*
X89096359Y-62264890D01*
%TO.C,220\u03A9B2*%
X89403641Y-61834075D02*
X89096359Y-61834075D01*
X89403641Y-61074075D02*
X89096359Y-61074075D01*
%TO.C,220\u03A9B1*%
X89403641Y-60643260D02*
X89096359Y-60643260D01*
X89403641Y-59883260D02*
X89096359Y-59883260D01*
%TO.C,220\u03A9A4*%
X89403641Y-59452445D02*
X89096359Y-59452445D01*
X89403641Y-58692445D02*
X89096359Y-58692445D01*
%TO.C,220\u03A9A3*%
X89403641Y-58261630D02*
X89096359Y-58261630D01*
X89403641Y-57501630D02*
X89096359Y-57501630D01*
%TO.C,220\u03A9A2*%
X89403641Y-57070815D02*
X89096359Y-57070815D01*
X89403641Y-56310815D02*
X89096359Y-56310815D01*
%TO.C,220\u03A9A1*%
X89403641Y-55880000D02*
X89096359Y-55880000D01*
X89403641Y-55120000D02*
X89096359Y-55120000D01*
%TO.C,220\u03A928111*%
X89403641Y-74715710D02*
X89096359Y-74715710D01*
X89403641Y-73955710D02*
X89096359Y-73955710D01*
%TO.C,220\u03A927111*%
X89403641Y-73524890D02*
X89096359Y-73524890D01*
X89403641Y-72764890D02*
X89096359Y-72764890D01*
%TO.C,220\u03A926111*%
X89403641Y-72334075D02*
X89096359Y-72334075D01*
X89403641Y-71574075D02*
X89096359Y-71574075D01*
%TO.C,220\u03A925111*%
X89403641Y-71143260D02*
X89096359Y-71143260D01*
X89403641Y-70383260D02*
X89096359Y-70383260D01*
%TO.C,220\u03A924111*%
X89403641Y-69952445D02*
X89096359Y-69952445D01*
X89403641Y-69192445D02*
X89096359Y-69192445D01*
%TO.C,220\u03A923111*%
X89403641Y-68761630D02*
X89096359Y-68761630D01*
X89403641Y-68001630D02*
X89096359Y-68001630D01*
%TO.C,220\u03A922111*%
X89403641Y-67570815D02*
X89096359Y-67570815D01*
X89403641Y-66810815D02*
X89096359Y-66810815D01*
%TO.C,220\u03A921111*%
X89403641Y-66380000D02*
X89096359Y-66380000D01*
X89403641Y-65620000D02*
X89096359Y-65620000D01*
%TO.C,220\u03A918111*%
X89403641Y-85215710D02*
X89096359Y-85215710D01*
X89403641Y-84455710D02*
X89096359Y-84455710D01*
%TO.C,220\u03A917111*%
X89403641Y-84024890D02*
X89096359Y-84024890D01*
X89403641Y-83264890D02*
X89096359Y-83264890D01*
%TO.C,220\u03A916111*%
X89403641Y-82834075D02*
X89096359Y-82834075D01*
X89403641Y-82074075D02*
X89096359Y-82074075D01*
%TO.C,220\u03A915111*%
X89403641Y-81643260D02*
X89096359Y-81643260D01*
X89403641Y-80883260D02*
X89096359Y-80883260D01*
%TO.C,220\u03A914111*%
X89403641Y-80452445D02*
X89096359Y-80452445D01*
X89403641Y-79692445D02*
X89096359Y-79692445D01*
%TO.C,220\u03A913111*%
X89403641Y-79261630D02*
X89096359Y-79261630D01*
X89403641Y-78501630D02*
X89096359Y-78501630D01*
%TO.C,220\u03A912111*%
X89403641Y-78070815D02*
X89096359Y-78070815D01*
X89403641Y-77310815D02*
X89096359Y-77310815D01*
%TO.C,220\u03A911111*%
X89403641Y-76880000D02*
X89096359Y-76880000D01*
X89403641Y-76120000D02*
X89096359Y-76120000D01*
%TO.C,220\u03A9P2*%
X124738763Y-70145000D02*
X126186237Y-70145000D01*
X124738763Y-72855000D02*
X126186237Y-72855000D01*
%TO.C,WE_Switch1*%
X124100000Y-73900000D02*
X124100000Y-75100000D01*
X124100000Y-76700000D02*
X124100000Y-77900000D01*
X124100000Y-77900000D02*
X130500000Y-77900000D01*
X130500000Y-73900000D02*
X124100000Y-73900000D01*
X130500000Y-75100000D02*
X130500000Y-73900000D01*
X130500000Y-77900000D02*
X130500000Y-76700000D01*
%TO.C,J1*%
X112510000Y-67330000D02*
X112510000Y-66000000D01*
X113840000Y-67330000D02*
X112510000Y-67330000D01*
X115110000Y-64670000D02*
X135490000Y-64670000D01*
X115110000Y-67330000D02*
X115110000Y-64670000D01*
X115110000Y-67330000D02*
X135490000Y-67330000D01*
X135490000Y-67330000D02*
X135490000Y-64670000D01*
%TO.C,MW1*%
X132810000Y-71505000D02*
X132810000Y-68905000D01*
X135470000Y-68905000D02*
X132810000Y-68905000D01*
X135470000Y-71505000D02*
X132810000Y-71505000D01*
X135470000Y-71505000D02*
X135470000Y-68905000D01*
X135470000Y-72775000D02*
X135470000Y-74105000D01*
X135470000Y-74105000D02*
X134140000Y-74105000D01*
%TO.C,2xPushButtonB1*%
X113800000Y-80000000D02*
X113800000Y-81200000D01*
X113800000Y-82800000D02*
X113800000Y-84000000D01*
X113800000Y-84000000D02*
X120200000Y-84000000D01*
X120200000Y-80000000D02*
X113800000Y-80000000D01*
X120200000Y-81200000D02*
X120200000Y-80000000D01*
X120200000Y-84000000D02*
X120200000Y-82800000D01*
%TO.C,2xPushButtonB2*%
X113800000Y-69500000D02*
X113800000Y-70700000D01*
X113800000Y-72300000D02*
X113800000Y-73500000D01*
X113800000Y-73500000D02*
X120200000Y-73500000D01*
X120200000Y-69500000D02*
X113800000Y-69500000D01*
X120200000Y-70700000D02*
X120200000Y-69500000D01*
X120200000Y-73500000D02*
X120200000Y-72300000D01*
%TO.C,PWR1*%
X132810000Y-82005000D02*
X132810000Y-79405000D01*
X135470000Y-79405000D02*
X132810000Y-79405000D01*
X135470000Y-82005000D02*
X132810000Y-82005000D01*
X135470000Y-82005000D02*
X135470000Y-79405000D01*
X135470000Y-83275000D02*
X135470000Y-84605000D01*
X135470000Y-84605000D02*
X134140000Y-84605000D01*
%TO.C,J2*%
X112510000Y-62030000D02*
X112510000Y-60700000D01*
X113840000Y-62030000D02*
X112510000Y-62030000D01*
X115110000Y-59370000D02*
X135490000Y-59370000D01*
X115110000Y-62030000D02*
X115110000Y-59370000D01*
X115110000Y-62030000D02*
X135490000Y-62030000D01*
X135490000Y-62030000D02*
X135490000Y-59370000D01*
%TO.C,JA1*%
X112510000Y-56830000D02*
X112510000Y-55500000D01*
X113840000Y-56830000D02*
X112510000Y-56830000D01*
X115110000Y-54170000D02*
X135490000Y-54170000D01*
X115110000Y-56830000D02*
X115110000Y-54170000D01*
X115110000Y-56830000D02*
X135490000Y-56830000D01*
X135490000Y-56830000D02*
X135490000Y-54170000D01*
%TO.C,220\u03A9P1*%
X124738763Y-80645000D02*
X126186237Y-80645000D01*
X124738763Y-83355000D02*
X126186237Y-83355000D01*
%TD*%
M02*
